<?xml version="1.0" encoding="UTF-8"?>
<svg id="Layer_2" data-name="Layer 2" xmlns="http://www.w3.org/2000/svg" xmlns:xlink="http://www.w3.org/1999/xlink" viewBox="0 0 429.02 304.31">
  <defs>
    <style>
      .cls-1 {
        fill: url(#linear-gradient-3);
      }

      .cls-1, .cls-2, .cls-3 {
        mix-blend-mode: multiply;
      }

      .cls-4 {
        fill: url(#linear-gradient-2);
      }

      .cls-5, .cls-6, .cls-7, .cls-8, .cls-9, .cls-10, .cls-11, .cls-12 {
        fill: #fff;
      }

      .cls-13 {
        fill: #eea886;
      }

      .cls-14 {
        fill: url(#linear-gradient-17);
      }

      .cls-15 {
        fill: #84bde7;
      }

      .cls-16 {
        fill: #535352;
      }

      .cls-17 {
        fill: #e1d1c9;
      }

      .cls-18 {
        fill: url(#linear-gradient-43);
      }

      .cls-19 {
        fill: #296a93;
      }

      .cls-20 {
        fill: #a1c3e7;
      }

      .cls-21 {
        fill: #dce5f4;
      }

      .cls-22 {
        fill: url(#linear-gradient-15);
      }

      .cls-23 {
        fill: #5b82c2;
      }

      .cls-24 {
        fill: url(#linear-gradient-18);
      }

      .cls-25 {
        fill: url(#linear-gradient-40);
      }

      .cls-26 {
        fill: url(#linear-gradient-28);
      }

      .cls-27 {
        fill: url(#linear-gradient-14);
      }

      .cls-28 {
        fill: url(#linear-gradient-36);
      }

      .cls-29 {
        mask: url(#mask-2);
      }

      .cls-30 {
        fill: url(#linear-gradient-20);
      }

      .cls-31 {
        fill: url(#linear-gradient-6);
      }

      .cls-32 {
        fill: #323657;
      }

      .cls-33 {
        fill: #a67861;
      }

      .cls-34 {
        fill: #6896cf;
      }

      .cls-35 {
        fill: url(#linear-gradient-35);
      }

      .cls-36 {
        mask: url(#mask-3);
      }

      .cls-37 {
        fill: url(#linear-gradient-32);
      }

      .cls-38 {
        fill: #f48664;
      }

      .cls-6 {
        font-size: 6.54px;
      }

      .cls-6, .cls-7, .cls-8, .cls-9, .cls-10, .cls-11, .cls-12 {
        font-family: MontserratThin-SemiBold, 'Montserrat Thin';
        font-variation-settings: 'wght' 600;
        font-weight: 600;
      }

      .cls-39 {
        fill: url(#linear-gradient-11);
      }

      .cls-40 {
        fill: url(#linear-gradient-39);
      }

      .cls-41 {
        fill: url(#linear-gradient-10);
      }

      .cls-2 {
        fill: url(#linear-gradient-5);
      }

      .cls-42 {
        mask: url(#mask-5);
      }

      .cls-43 {
        fill: #f1eff7;
      }

      .cls-44 {
        fill: #444;
      }

      .cls-45 {
        fill: url(#linear-gradient-37);
      }

      .cls-46 {
        fill: url(#linear-gradient-16);
      }

      .cls-47 {
        fill: #5578b2;
      }

      .cls-48 {
        fill: url(#linear-gradient-31);
      }

      .cls-49 {
        fill: #d99a5c;
      }

      .cls-50 {
        fill: url(#linear-gradient-41);
      }

      .cls-51 {
        filter: url(#luminosity-noclip-4);
      }

      .cls-52 {
        fill: #e7744d;
      }

      .cls-7 {
        font-size: 13.23px;
      }

      .cls-8 {
        font-size: 9.57px;
      }

      .cls-53 {
        fill: #35537b;
      }

      .cls-54 {
        fill: url(#linear-gradient-21);
      }

      .cls-55 {
        filter: url(#luminosity-noclip-6);
      }

      .cls-9 {
        font-size: 8.67px;
      }

      .cls-10 {
        font-size: 6px;
      }

      .cls-56 {
        fill: url(#linear-gradient-25);
      }

      .cls-57 {
        mask: url(#mask-4);
      }

      .cls-58 {
        fill: #908481;
      }

      .cls-59 {
        fill: #293f5e;
      }

      .cls-60 {
        fill: #3b4048;
      }

      .cls-61 {
        fill: #434773;
      }

      .cls-62 {
        fill: url(#linear-gradient-34);
      }

      .cls-63 {
        fill: #754836;
      }

      .cls-64 {
        fill: #434d94;
      }

      .cls-65 {
        fill: #6f6e6f;
      }

      .cls-66 {
        fill: #1c3b54;
      }

      .cls-67 {
        fill: #2f3669;
      }

      .cls-68 {
        fill: #6081c1;
      }

      .cls-69 {
        fill: #c4ccd9;
      }

      .cls-70 {
        fill: #eea987;
      }

      .cls-71 {
        fill: url(#linear-gradient-24);
      }

      .cls-72 {
        fill: #3881c3;
      }

      .cls-73 {
        fill: url(#linear-gradient-9);
      }

      .cls-74 {
        fill: url(#linear-gradient-22);
      }

      .cls-75 {
        fill: #d7d7e5;
      }

      .cls-76 {
        filter: url(#luminosity-noclip-2);
      }

      .cls-11 {
        font-size: 9.06px;
      }

      .cls-77 {
        fill: url(#linear-gradient-42);
      }

      .cls-78 {
        mask: url(#mask-1);
      }

      .cls-79 {
        mask: url(#mask);
      }

      .cls-80 {
        fill: #2a2c47;
      }

      .cls-3 {
        fill: url(#linear-gradient-7);
      }

      .cls-81 {
        fill: url(#linear-gradient);
      }

      .cls-82 {
        fill: url(#linear-gradient-27);
      }

      .cls-12 {
        font-size: 17.54px;
      }

      .cls-83 {
        fill: url(#linear-gradient-33);
      }

      .cls-84 {
        fill: url(#linear-gradient-38);
      }

      .cls-85 {
        fill: #eda885;
      }

      .cls-86 {
        fill: url(#linear-gradient-29);
      }

      .cls-87 {
        fill: url(#linear-gradient-30);
      }

      .cls-88 {
        fill: url(#linear-gradient-23);
      }

      .cls-89 {
        fill: url(#linear-gradient-19);
      }

      .cls-90 {
        fill: url(#linear-gradient-4);
      }

      .cls-91 {
        fill: #e35253;
      }

      .cls-92 {
        fill: #49699c;
      }

      .cls-93 {
        fill: #e9d7ce;
      }

      .cls-94 {
        fill: url(#linear-gradient-8);
      }

      .cls-95 {
        fill: url(#linear-gradient-44);
      }

      .cls-96 {
        fill: #857c77;
      }

      .cls-97 {
        fill: url(#linear-gradient-12);
      }

      .cls-98 {
        fill: url(#linear-gradient-13);
      }

      .cls-99 {
        fill: url(#linear-gradient-26);
      }

      .cls-100 {
        fill: #dfdfdf;
      }
    </style>
    <linearGradient id="linear-gradient" x1="104.16" y1="271.44" x2="429.02" y2="271.44" gradientUnits="userSpaceOnUse">
      <stop offset="0" stop-color="#486ab2"/>
      <stop offset="1" stop-color="#292b74"/>
    </linearGradient>
    <linearGradient id="linear-gradient-2" x1="404.33" y1="55.34" x2="305.59" y2="121.17" xlink:href="#linear-gradient"/>
    <filter id="luminosity-noclip-2" data-name="luminosity-noclip" x="47.64" y="15.17" width="270.8" height="270.8" color-interpolation-filters="sRGB" filterUnits="userSpaceOnUse">
      <feFlood flood-color="#fff" result="bg"/>
      <feBlend in="SourceGraphic" in2="bg"/>
    </filter>
    <filter id="luminosity-noclip-3" x="8406.51" y="-8344.15" width="-32766" height="32766" color-interpolation-filters="sRGB" filterUnits="userSpaceOnUse">
      <feFlood flood-color="#fff" result="bg"/>
      <feBlend in="SourceGraphic" in2="bg"/>
    </filter>
    <mask id="mask-1" x="8406.51" y="-8344.15" width="-32766" height="32766" maskUnits="userSpaceOnUse"/>
    <linearGradient id="linear-gradient-3" x1="47.64" y1="150.57" x2="318.44" y2="150.57" gradientUnits="userSpaceOnUse">
      <stop offset="0" stop-color="#000"/>
      <stop offset="1" stop-color="#fff"/>
    </linearGradient>
    <mask id="mask" x="47.64" y="15.17" width="270.8" height="270.8" maskUnits="userSpaceOnUse">
      <g class="cls-76">
        <g class="cls-78">
          <path class="cls-1" d="M183.04,285.97c-18.27,0-36.01-3.58-52.71-10.65-16.13-6.82-30.6-16.58-43.03-29.01s-22.19-26.91-29.01-43.03c-7.06-16.7-10.65-34.44-10.65-52.71s3.58-36.01,10.65-52.71c6.82-16.13,16.58-30.6,29.01-43.03,12.43-12.43,26.91-22.19,43.03-29.01,16.7-7.06,34.44-10.65,52.71-10.65s36.01,3.58,52.71,10.65c16.13,6.82,30.6,16.58,43.03,29.01,12.43,12.43,22.19,26.91,29.01,43.03,7.06,16.7,10.65,34.44,10.65,52.71s-3.58,36.01-10.65,52.71c-6.82,16.13-16.58,30.6-29.01,43.03-12.43,12.43-26.91,22.19-43.03,29.01-16.7,7.06-34.44,10.65-52.71,10.65Zm0-242.03c-58.8,0-106.63,47.83-106.63,106.63s47.83,106.63,106.63,106.63,106.63-47.83,106.63-106.63-47.83-106.63-106.63-106.63Z"/>
        </g>
      </g>
    </mask>
    <linearGradient id="linear-gradient-4" x1="47.64" y1="150.57" x2="318.44" y2="150.57" xlink:href="#linear-gradient"/>
    <filter id="luminosity-noclip-4" x="81.63" y="208.51" width="204.13" height="40.39" color-interpolation-filters="sRGB" filterUnits="userSpaceOnUse">
      <feFlood flood-color="#fff" result="bg"/>
      <feBlend in="SourceGraphic" in2="bg"/>
    </filter>
    <filter id="luminosity-noclip-5" x="8406.51" y="-8344.15" width="-32766" height="32766" color-interpolation-filters="sRGB" filterUnits="userSpaceOnUse">
      <feFlood flood-color="#fff" result="bg"/>
      <feBlend in="SourceGraphic" in2="bg"/>
    </filter>
    <mask id="mask-3" x="8406.51" y="-8344.15" width="-32766" height="32766" maskUnits="userSpaceOnUse"/>
    <linearGradient id="linear-gradient-5" x1="183.7" y1="215.12" x2="183.7" y2="272.4" xlink:href="#linear-gradient-3"/>
    <mask id="mask-2" x="81.63" y="208.51" width="204.13" height="40.39" maskUnits="userSpaceOnUse">
      <g class="cls-51">
        <g class="cls-36">
          <rect class="cls-2" x="81.63" y="208.51" width="204.13" height="40.39"/>
        </g>
      </g>
    </mask>
    <linearGradient id="linear-gradient-6" x1="183.7" y1="215.12" x2="183.7" y2="272.4" gradientUnits="userSpaceOnUse">
      <stop offset="0" stop-color="#58c6da"/>
      <stop offset="1" stop-color="#5a71b5"/>
    </linearGradient>
    <filter id="luminosity-noclip-6" x="16.71" y="257.19" width="166.33" height="28.77" color-interpolation-filters="sRGB" filterUnits="userSpaceOnUse">
      <feFlood flood-color="#fff" result="bg"/>
      <feBlend in="SourceGraphic" in2="bg"/>
    </filter>
    <filter id="luminosity-noclip-7" x="8406.51" y="-8344.15" width="-32766" height="32766" color-interpolation-filters="sRGB" filterUnits="userSpaceOnUse">
      <feFlood flood-color="#fff" result="bg"/>
      <feBlend in="SourceGraphic" in2="bg"/>
    </filter>
    <mask id="mask-5" x="8406.51" y="-8344.15" width="-32766" height="32766" maskUnits="userSpaceOnUse"/>
    <linearGradient id="linear-gradient-7" x1="16.71" y1="271.58" x2="183.04" y2="271.58" xlink:href="#linear-gradient-3"/>
    <mask id="mask-4" x="16.71" y="257.19" width="166.33" height="28.77" maskUnits="userSpaceOnUse">
      <g class="cls-55">
        <g class="cls-42">
          <rect class="cls-3" x="16.71" y="257.19" width="166.33" height="28.77"/>
        </g>
      </g>
    </mask>
    <linearGradient id="linear-gradient-8" x1="16.71" y1="271.58" x2="183.04" y2="271.58" xlink:href="#linear-gradient"/>
    <linearGradient id="linear-gradient-9" x1="150.48" y1="156.4" x2="163.66" y2="156.4" xlink:href="#linear-gradient"/>
    <linearGradient id="linear-gradient-10" x1="162.34" y1="207.82" x2="168.8" y2="207.82" xlink:href="#linear-gradient"/>
    <linearGradient id="linear-gradient-11" x1="229.51" y1="105.17" x2="259.51" y2="105.17" xlink:href="#linear-gradient"/>
    <linearGradient id="linear-gradient-12" x1="195.29" y1="143.52" x2="212.87" y2="143.52" xlink:href="#linear-gradient"/>
    <linearGradient id="linear-gradient-13" x1="181.52" y1="195.23" x2="199.1" y2="195.23" xlink:href="#linear-gradient"/>
    <linearGradient id="linear-gradient-14" x1="138.85" y1="117.95" x2="144.51" y2="117.95" xlink:href="#linear-gradient"/>
    <linearGradient id="linear-gradient-15" x1="238.85" y1="130.74" x2="253.85" y2="130.74" xlink:href="#linear-gradient"/>
    <linearGradient id="linear-gradient-16" x1="161.73" y1="233.39" x2="176.73" y2="233.39" xlink:href="#linear-gradient"/>
    <linearGradient id="linear-gradient-17" x1="135.51" y1="130.74" x2="146.49" y2="130.74" xlink:href="#linear-gradient"/>
    <linearGradient id="linear-gradient-18" x1="137.7" y1="182.25" x2="148.68" y2="182.25" xlink:href="#linear-gradient"/>
    <linearGradient id="linear-gradient-19" x1="240.27" y1="95.33" x2="331.61" y2="95.33" xlink:href="#linear-gradient"/>
    <linearGradient id="linear-gradient-20" x1="183.7" y1="214.62" x2="183.7" y2="281.32" gradientUnits="userSpaceOnUse">
      <stop offset="0" stop-color="#58c6da"/>
      <stop offset="1" stop-color="#5468b0"/>
    </linearGradient>
    <linearGradient id="linear-gradient-21" x1="228.66" y1="212.16" x2="228.66" y2="267.13" xlink:href="#linear-gradient-20"/>
    <linearGradient id="linear-gradient-22" x1="33.03" y1="148.02" x2="57.39" y2="148.02" xlink:href="#linear-gradient"/>
    <linearGradient id="linear-gradient-23" x1="33.03" y1="135.62" x2="57.39" y2="135.62" xlink:href="#linear-gradient"/>
    <linearGradient id="linear-gradient-24" x1="192.8" y1="225.21" x2="211.12" y2="225.21" xlink:href="#linear-gradient"/>
    <linearGradient id="linear-gradient-25" x1="202.85" y1="223.25" x2="234.85" y2="223.25" xlink:href="#linear-gradient"/>
    <linearGradient id="linear-gradient-26" x1="199.72" y1="240.99" x2="230.07" y2="240.99" xlink:href="#linear-gradient"/>
    <linearGradient id="linear-gradient-27" x1="213.86" y1="225.71" x2="236.21" y2="225.71" xlink:href="#linear-gradient"/>
    <linearGradient id="linear-gradient-28" x1="227.53" y1="221.48" x2="229.14" y2="221.48" xlink:href="#linear-gradient"/>
    <linearGradient id="linear-gradient-29" x1="208.12" y1="223.78" x2="209.33" y2="223.78" xlink:href="#linear-gradient"/>
    <linearGradient id="linear-gradient-30" x1="131.05" y1="90.21" x2="155.02" y2="90.21" xlink:href="#linear-gradient"/>
    <linearGradient id="linear-gradient-31" x1="138.86" y1="87.91" x2="140.38" y2="87.91" xlink:href="#linear-gradient"/>
    <linearGradient id="linear-gradient-32" x1="149.28" y1="88.05" x2="150.94" y2="88.05" xlink:href="#linear-gradient"/>
    <linearGradient id="linear-gradient-33" x1="198.03" y1="24.53" x2="249.39" y2="24.53" xlink:href="#linear-gradient"/>
    <linearGradient id="linear-gradient-34" x1="235.47" y1="18.91" x2="241.99" y2="18.91" xlink:href="#linear-gradient"/>
    <linearGradient id="linear-gradient-35" x1="207.47" y1="18.92" x2="213.97" y2="18.92" xlink:href="#linear-gradient"/>
    <linearGradient id="linear-gradient-36" x1="71.43" y1="53.9" x2="127.59" y2="53.9" xlink:href="#linear-gradient"/>
    <linearGradient id="linear-gradient-37" x1="292.48" y1="211.24" x2="362.87" y2="211.24" xlink:href="#linear-gradient"/>
    <linearGradient id="linear-gradient-38" x1="186.51" y1="177.6" x2="217.41" y2="177.6" xlink:href="#linear-gradient"/>
    <linearGradient id="linear-gradient-39" x1="335.9" y1="173.6" x2="372.02" y2="173.6" xlink:href="#linear-gradient"/>
    <linearGradient id="linear-gradient-40" x1="0" y1="198.5" x2="45.87" y2="198.5" xlink:href="#linear-gradient"/>
    <linearGradient id="linear-gradient-41" x1="319.97" y1="116.25" x2="363.49" y2="116.25" xlink:href="#linear-gradient"/>
    <linearGradient id="linear-gradient-42" x1="126.51" y1="13.95" x2="174.45" y2="13.95" xlink:href="#linear-gradient"/>
    <linearGradient id="linear-gradient-43" x1="61.9" y1="129.6" x2="98.02" y2="129.6" xlink:href="#linear-gradient"/>
    <linearGradient id="linear-gradient-44" x1="309.9" y1="24.6" x2="346.02" y2="24.6" xlink:href="#linear-gradient"/>
  </defs>
  <g id="Layer_1-2" data-name="Layer 1">
    <g>
      <g>
        <polygon class="cls-81" points="429.02 271.44 387.32 239.29 387.32 257.2 382.21 257.2 341.87 257.2 104.16 257.2 104.16 285.97 367.3 285.97 382.21 285.97 387.32 285.97 387.32 303.58 429.02 271.44"/>
        <path class="cls-4" d="M366.05,34.56l-28.63,6.17,13.26,26.12,4.72-9.91c21.2,10.1,30.23,35.56,20.14,56.76-10.1,21.2-35.56,30.23-56.76,20.14-21.2-10.1-30.23-35.56-20.14-56.76l-12.48-5.94c-13.37,28.08-1.41,61.81,26.68,75.18,28.08,13.37,61.81,1.41,75.18-26.68,13.37-28.08,1.41-61.81-26.68-75.18l4.72-9.91Z"/>
        <g class="cls-79">
          <path class="cls-90" d="M183.04,285.97c-18.27,0-36.01-3.58-52.71-10.65-16.13-6.82-30.6-16.58-43.03-29.01s-22.19-26.91-29.01-43.03c-7.06-16.7-10.65-34.44-10.65-52.71s3.58-36.01,10.65-52.71c6.82-16.13,16.58-30.6,29.01-43.03,12.43-12.43,26.91-22.19,43.03-29.01,16.7-7.06,34.44-10.65,52.71-10.65s36.01,3.58,52.71,10.65c16.13,6.82,30.6,16.58,43.03,29.01,12.43,12.43,22.19,26.91,29.01,43.03,7.06,16.7,10.65,34.44,10.65,52.71s-3.58,36.01-10.65,52.71c-6.82,16.13-16.58,30.6-29.01,43.03-12.43,12.43-26.91,22.19-43.03,29.01-16.7,7.06-34.44,10.65-52.71,10.65Zm0-242.03c-58.8,0-106.63,47.83-106.63,106.63s47.83,106.63,106.63,106.63,106.63-47.83,106.63-106.63-47.83-106.63-106.63-106.63Z"/>
        </g>
        <g class="cls-29">
          <rect class="cls-31" x="81.63" y="208.51" width="204.13" height="40.39"/>
        </g>
        <g class="cls-57">
          <rect class="cls-94" x="16.71" y="257.19" width="166.33" height="28.77"/>
        </g>
        <rect class="cls-100" x="107.83" y="103.47" width="33.16" height="3.4"/>
        <rect class="cls-100" x="150.28" y="129.04" width="23.94" height="3.4"/>
        <rect class="cls-72" x="177.96" y="129.04" width="15.89" height="3.4"/>
        <rect class="cls-72" x="210.42" y="231.69" width="15.89" height="3.4"/>
        <rect class="cls-72" x="108.21" y="193.34" width="15.89" height="3.4"/>
        <rect class="cls-100" x="196.99" y="129.04" width="38.36" height="3.4"/>
        <rect class="cls-100" x="108.21" y="180.46" width="24.65" height="3.4"/>
        <rect class="cls-100" x="174.45" y="206.12" width="24.65" height="3.4"/>
        <rect class="cls-100" x="142.57" y="206.12" width="15.05" height="3.4"/>
        <rect class="cls-72" x="108.21" y="206.12" width="29.82" height="3.4"/>
        <rect class="cls-100" x="108.21" y="218.91" width="16.45" height="3.4"/>
        <rect class="cls-15" x="147.45" y="103.47" width="23.54" height="3.4"/>
        <rect class="cls-72" x="147.45" y="141.82" width="23.54" height="3.4"/>
        <rect class="cls-100" x="135.68" y="154.61" width="10.06" height="3.4"/>
        <rect class="cls-15" x="125.62" y="167.58" width="22.59" height="3.4"/>
        <rect class="cls-72" x="151.63" y="167.58" width="31.19" height="3.4"/>
        <rect class="cls-72" x="108.21" y="154.7" width="23.54" height="3.4"/>
        <rect class="cls-72" x="108.21" y="167.58" width="13.97" height="3.4"/>
        <rect class="cls-73" x="150.48" y="154.7" width="13.18" height="3.4"/>
        <rect class="cls-38" x="108.61" y="231.69" width="13.18" height="3.4"/>
        <rect class="cls-15" x="108.12" y="129.04" width="23.54" height="3.4"/>
        <rect class="cls-15" x="128.94" y="193.34" width="23.54" height="3.4"/>
        <rect class="cls-15" x="129.23" y="218.91" width="23.54" height="3.4"/>
        <rect class="cls-15" x="171.05" y="218.91" width="23.54" height="3.4"/>
        <rect class="cls-15" x="108.12" y="141.82" width="33.56" height="3.4"/>
        <rect class="cls-15" x="181.52" y="231.69" width="23.54" height="3.4"/>
        <rect class="cls-72" x="177.33" y="103.47" width="30" height="3.4"/>
        <rect class="cls-72" x="126.76" y="231.69" width="30" height="3.4"/>
        <rect class="cls-72" x="231.35" y="231.69" width="30" height="3.4"/>
        <rect class="cls-72" x="226.74" y="206.12" width="30" height="3.4"/>
        <rect class="cls-72" x="218.36" y="141.82" width="30" height="3.4"/>
        <rect class="cls-41" x="162.34" y="206.12" width="6.47" height="3.4"/>
        <rect class="cls-39" x="229.51" y="103.47" width="30" height="3.4"/>
        <rect class="cls-97" x="195.29" y="141.82" width="17.59" height="3.4"/>
        <rect class="cls-98" x="181.52" y="193.53" width="17.59" height="3.4"/>
        <rect class="cls-100" x="212.87" y="103.47" width="10.98" height="3.4"/>
        <rect class="cls-100" x="177.33" y="141.82" width="10.98" height="3.4"/>
        <rect class="cls-72" x="107.83" y="116.25" width="17.18" height="3.4"/>
        <rect class="cls-72" x="153.66" y="180.55" width="13.56" height="3.4"/>
        <rect class="cls-72" x="129.23" y="116.25" width="5.55" height="3.4"/>
        <rect class="cls-100" x="199.1" y="218.91" width="45.84" height="3.4"/>
        <rect class="cls-27" x="138.85" y="116.25" width="5.66" height="3.4"/>
        <rect class="cls-72" x="223.85" y="116.25" width="15" height="3.4"/>
        <rect class="cls-22" x="238.85" y="129.04" width="15" height="3.4"/>
        <rect class="cls-38" x="205.38" y="206.12" width="15" height="3.4"/>
        <rect class="cls-46" x="161.73" y="231.69" width="15" height="3.4"/>
        <rect class="cls-72" x="187.97" y="116.25" width="31.91" height="3.4"/>
        <rect class="cls-72" x="158.27" y="193.53" width="18.64" height="3.4"/>
        <rect class="cls-72" x="157.07" y="218.91" width="9.32" height="3.4"/>
        <rect class="cls-15" x="172.47" y="116.25" width="10.98" height="3.4"/>
        <rect class="cls-14" x="135.51" y="129.04" width="10.98" height="3.4"/>
        <rect class="cls-24" x="137.7" y="180.55" width="10.98" height="3.4"/>
        <rect class="cls-72" x="149.15" y="116.25" width="19.13" height="3.4"/>
        <path class="cls-32" d="M103.63,244.94s0,0-.01,0c.06,.03,.07,.03,.01,0Z"/>
        <rect class="cls-5" x="105.33" y="55.86" width="13.67" height="2.48" transform="translate(224.34 114.2) rotate(180)"/>
        <rect class="cls-5" x="105.33" y="54.71" width="13.67" height=".47" transform="translate(224.34 109.88) rotate(180)"/>
        <polygon class="cls-89" points="240.91 104.66 258.66 86.91 331.61 86.91 331.61 86 258.29 86 240.27 104.02 240.91 104.66"/>
        <rect class="cls-30" x="81.63" y="248.27" width="204.13" height="40.39"/>
        <polygon class="cls-15" points="128.06 145.25 128.7 144.61 94.77 110.67 30.55 110.67 30.55 111.58 94.39 111.58 128.06 145.25"/>
        <polygon class="cls-72" points="195.67 104.43 196.31 103.79 167.67 75.15 127.39 75.15 127.39 76.06 167.3 76.06 195.67 104.43"/>
        <polygon class="cls-54" points="285.77 288.66 285.77 248.27 211.48 248.27 171.55 288.2 285.77 288.66"/>
        <g>
          <rect class="cls-34" x="292.04" y="62.59" width="6.44" height="19.56"/>
          <rect class="cls-20" x="267.45" y="32.78" width="55.61" height="39.23" rx="2.83" ry="2.83"/>
          <rect class="cls-5" x="269.63" y="35.02" width="51.25" height="30.84"/>
          <rect class="cls-20" x="280.77" y="81.41" width="28.97" height="1.48" transform="translate(590.51 164.3) rotate(180)"/>
          <rect class="cls-75" x="301.69" y="44.38" width="16.47" height="19.04" transform="translate(619.85 107.8) rotate(180)"/>
          <rect class="cls-75" x="282.17" y="44.38" width="16.97" height="2.37" transform="translate(581.32 91.13) rotate(180)"/>
          <rect class="cls-75" x="282.17" y="49.25" width="16.97" height="2.37" transform="translate(581.32 100.88) rotate(180)"/>
          <rect class="cls-75" x="282.17" y="53.63" width="16.97" height="9.79" transform="translate(581.32 117.05) rotate(180)"/>
          <rect class="cls-75" x="272.57" y="43.84" width="7.2" height="19.58" transform="translate(552.35 107.26) rotate(180)"/>
          <rect class="cls-75" x="272.74" y="37.39" width="45.59" height="4.89" transform="translate(591.07 79.68) rotate(180)"/>
        </g>
        <g>
          <rect class="cls-20" x="133.16" y="30.98" width="28.23" height="39.91" rx="2.71" ry="2.71" transform="translate(294.55 101.88) rotate(180)"/>
          <rect class="cls-5" x="134.72" y="32.83" width="25.11" height="32.76" transform="translate(294.55 98.41) rotate(180)"/>
          <rect class="cls-75" x="136.41" y="35.18" width="21.86" height="4.36" transform="translate(294.67 74.73) rotate(180)"/>
          <rect class="cls-75" x="149.27" y="41.23" width="9" height="21.37" transform="translate(307.53 103.84) rotate(180)"/>
          <rect class="cls-75" x="136.41" y="41.23" width="11.19" height="2.48" transform="translate(284 84.94) rotate(180)"/>
          <rect class="cls-75" x="136.41" y="45.51" width="11.19" height="2.48" transform="translate(284 93.5) rotate(180)"/>
          <rect class="cls-75" x="136.41" y="49.79" width="11.19" height="2.48" transform="translate(284 102.06) rotate(180)"/>
          <rect class="cls-75" x="136.41" y="54.07" width="11.19" height="8.54" transform="translate(284 116.68) rotate(180)"/>
        </g>
        <g>
          <path class="cls-34" d="M40.72,75.33h44.01v27.9c0,1.09-.89,1.98-1.98,1.98H42.7c-1.09,0-1.98-.89-1.98-1.98v-27.9h0Z" transform="translate(125.45 180.54) rotate(180)"/>
          <rect class="cls-5" x="41.95" y="76.92" width="41.56" height="26.7" transform="translate(125.45 180.54) rotate(180)"/>
          <path class="cls-20" d="M40.33,105.21h44.79c.96,0,1.73,.78,1.73,1.73v.46H38.59v-.46c0-.96,.78-1.73,1.73-1.73Z" transform="translate(125.45 212.62) rotate(180)"/>
          <rect class="cls-75" x="43.68" y="78.86" width="38.04" height="3.71" transform="translate(125.4 161.43) rotate(180)"/>
          <rect class="cls-75" x="68.68" y="84.67" width="13.04" height="17.01" transform="translate(150.4 186.35) rotate(180)"/>
          <rect class="cls-75" x="53.97" y="84.67" width="13.04" height="17.01" transform="translate(120.98 186.35) rotate(180)"/>
          <rect class="cls-75" x="43.68" y="84.67" width="7.95" height="2.43" transform="translate(95.32 171.77) rotate(180)"/>
          <rect class="cls-75" x="43.68" y="88.43" width="7.95" height="2.43" transform="translate(95.32 179.29) rotate(180)"/>
          <rect class="cls-75" x="43.68" y="92.19" width="7.95" height="9.5" transform="translate(95.32 193.87) rotate(180)"/>
        </g>
        <g>
          <polygon class="cls-74" points="57.39 148.02 47.59 142.37 47.59 146.1 33.03 146.1 33.03 149.95 47.59 149.95 47.59 153.68 57.39 148.02"/>
          <polygon class="cls-88" points="33.03 135.62 42.83 141.28 42.83 137.55 57.39 137.55 57.39 133.69 42.83 133.69 42.83 129.97 33.03 135.62"/>
        </g>
        <g>
          <polygon class="cls-19" points="200.51 67.44 193.17 63.2 193.17 65.99 182.26 65.99 182.26 68.88 193.17 68.88 193.17 71.67 200.51 67.44"/>
          <polygon class="cls-19" points="182.26 58.14 189.6 62.38 189.6 59.58 200.51 59.58 200.51 56.7 189.6 56.7 189.6 53.9 182.26 58.14"/>
        </g>
        <g>
          <path class="cls-5" d="M299.68,134.71c-.97-.07-1.88-.44-2.58-1.04-.79-.68-1.23-1.59-1.23-2.55-.13-1.9-.73-3.86-1.21-5.21-2.33-1.86-3.58-4.72-3.35-7.69,.37-4.93,4.69-8.64,9.62-8.26,4.93,.37,8.64,4.69,8.26,9.62-.2,2.68-1.58,5.1-3.78,6.65-.67,1.82-1.07,3.48-1.19,4.95-.02,1.97-1.9,3.56-4.19,3.55-.11,0-.23,0-.34-.01Zm1.19-24.02c-4.53-.34-8.49,3.06-8.83,7.59-.21,2.76,.97,5.42,3.16,7.12l.08,.06,.04,.1c.51,1.4,1.15,3.49,1.29,5.52v.03c0,.75,.34,1.46,.97,2.01,.65,.56,1.52,.87,2.44,.87,1.89,.01,3.44-1.26,3.45-2.84h0s0-.03,0-.03c.13-1.57,.56-3.34,1.28-5.27l.04-.11,.1-.07c2.07-1.42,3.37-3.67,3.56-6.17,.34-4.53-3.06-8.49-7.59-8.83Z"/>
          <polygon class="cls-5" points="298.01 131.65 296.84 121.88 298.88 123.57 300.14 122.16 301.23 123.48 303.14 121.87 301.98 131.65 301.25 131.57 302.19 123.63 301.14 124.52 300.12 123.28 298.95 124.58 297.79 123.62 298.74 131.56 298.01 131.65"/>
          <rect class="cls-5" x="296.83" y="133.83" width="6.36" height="2.56" transform="translate(.91 -2.01) rotate(.38)"/>
          <rect class="cls-5" x="295.82" y="131.21" width="8.4" height="4.13" transform="translate(.9 -2.01) rotate(.38)"/>
        </g>
        <g>
          <path class="cls-23" d="M319.96,282.35c-.19,1.3-8.01,6.78-9.56,7.88-1.24,.88-2.31,1.28-4.18,1.99h0c-4.25,1.12-30.91,9.07-30.91,9.07-.07-.27-.11-.51-.26-.81-1,.4-2.02,.65-2.67,.86-.99,.31-8.87,.56-10.49,.87-1.61,.31-4.84,.81-6.14-.43-1.3-1.24,.81-3.91,2.61-4.59,1.8-.68,8.38-.87,9.56-.99,1.18-.12,2.73-.56,3.47-.31,.24,.08,1.28-.23,2.59-.68-.03-.48-.04-.79-.04-.79l7-2.02-1.3-12.4s3.05-11.48,15.22-2.72c0,0,2.72,.8,3.65,1.05,.07,.02,.17,.02,.31,0,1.86-.14,9.83-2.55,12.72-2.55,3.1,0,4.1-.19,5.21,.37,1.12,.56,3.41,4.9,3.23,6.2Z"/>
          <path class="cls-23" d="M307.5,301.77c-1.3,1.24-4.53,.74-6.14,.43-1.61-.31-9.49-.56-10.49-.87-.99-.31-2.85-.74-4.16-1.61-.1-.07-.34-.17-.7-.31,0,0,0,0,0,0l-1.97,1.42-27.4-8.72c-1.64-.45-2.94-1.13-3.81-1.89-1.43-1.24-9.37-6.58-9.56-7.88-.19-1.3,2.11-5.65,3.23-6.2,1.12-.56,2.11-.37,5.21-.37s12.1,2.79,13.03,2.54c.42-.11,1.3-.56,2.13-1.01,1-.54,1.92-1.1,1.92-1.1,13.33-5.95,14.81,3.78,14.81,3.78l-.79,12.02s1.11,.55,2.56,1.24l6.61,1.87-.86,.62c.37,.12,.64,.18,.75,.14,.74-.25,2.3,.19,3.47,.31,1.18,.12,7.76,.31,9.56,.99,1.8,.68,3.91,3.35,2.61,4.59Z"/>
          <path class="cls-47" d="M266.87,277.3c.92,.06,7.13,3.66,8.6,4.52-2.24-1.17-10.73-3.51-10.73-3.51,.42-.11,1.3-.56,2.13-1.01Z"/>
          <path class="cls-47" d="M298.81,278.32s-10.7,2.6-12.65,3.68c.09-.06,5.64-4.28,8.55-4.84,0,0,2.86,.9,3.79,1.15,.07,.02,.17,.02,.31,0h0Z"/>
          <path class="cls-85" d="M307.5,301.77c-1.3,1.24-4.53,.74-6.14,.43-1.61-.31-9.49-.56-10.49-.87-.29-.09-.64-.19-1.04-.31,0,0,0,0,0,0-.98-.29-2.19-.69-3.12-1.31-.1-.07-.34-.17-.7-.31l4.96-3.58,.14-.1c.37,.12,.64,.18,.75,.14,.74-.25,2.3,.19,3.47,.31,1.18,.12,7.76,.31,9.56,.99,1.8,.68,3.91,3.35,2.61,4.59Z"/>
          <path class="cls-69" d="M307.5,301.77c-1.3,1.24-4.53,.74-6.14,.43-1.61-.31-9.49-.56-10.49-.87-.29-.09-.64-.19-1.04-.31,0,0,0,0,0,0,0,0,0,0,0,0,0,0,2.17-2.15,1.14-5.19l.14-.1c.37,.12,.64,.18,.75,.14,.74-.25,2.3,.19,3.47,.31,1.18,.12,7.76,.31,9.56,.99,1.8,.68,3.91,3.35,2.61,4.59Z"/>
          <path class="cls-91" d="M269.6,280.04s.01,.06,0,.07c-.12,.09-.1,.05,0-.07Z"/>
          <path class="cls-21" d="M305.46,265.53c-.1-.21-5.76-9.1-7.29-13.15-1.53-4.05-5.21-5.92-6.95-6.49-.62-.21-1.72-.57-2.89-.94-2.1-.68-4.39-1.41-4.39-1.41h-7.24s-2.51,.84-5.17,1.77c0,0,0,0,0,0-2.45,.86-5.04,1.8-5.91,2.24-1.82,.91-4.88,7.4-5.5,8.15-.62,.74-5.39,9.59-6.08,12.99-.53,2.64,15.14,10.37,15.56,11.36,.5-.55,2.78-2.74,2.78-2.74,0,0-.73-.46-1.76-1.14,4.2,.19,14.45-.17,15.93-.1,.3,.01,.62,0,.95-.02,0,0,0,0,0,0,.46,.33,3.39,2.93,3.39,2.93,0,0,7.24-3.01,10.57-6.37,4.73-4.78,4.53-6.02,4.01-7.07Zm-41.16,5.88c-1.55-1.86-3.69-2.99-3.15-3.81,.54-.83,5.09-8.69,5.09-8.69,0,0,2.36,5.17,3.02,7.86,.66,2.69,.61,3.92,.33,4.76-.25,.75-.45,1.26-.68,3.49-1.86-1.27-3.9-2.76-4.61-3.61Zm32.01-.89c-.61,.69-3.02,2.22-5.18,3.48-.16-1.5-.41-3.86-.44-4.71-.04-1.28,.5-4.96,1.16-6.37,.66-1.41,1.12-5.25,1.12-5.25,0,0,5.48,7.45,6.35,8.23,.87,.79-.95,2.29-3,4.62Z"/>
          <path class="cls-85" d="M281.18,223.63s5.66,.89,4.8,9.75c-.86,8.86-5.86,8.13-6.19,8.12-.33,0-5.02,.16-5.38-10.65,0,0-.16-8,6.77-7.22Z"/>
          <path class="cls-85" d="M286.07,230.88s.62-.66,.85,0c.23,.67-.85,3.66-.88,3.8,0,0-.11,.26-.26,.12-.15-.14,.3-3.92,.3-3.92Z"/>
          <path class="cls-85" d="M274.56,230.76s-.61-.67-.85,0c-.24,.67,.77,3.68,.81,3.82,0,0,.11,.26,.26,.12,.15-.14-.22-3.93-.22-3.93Z"/>
          <path class="cls-44" d="M286.07,232.23l-.81,1.08s.02-2.38-.11-2.75c-.13-.37-.33-1.51-.44-1.78-.11-.27-4.86-1.6-9.06,.39,0,0,.18,1.71-.22,1.86-.4,.15-.21,2.78-.21,2.78l-.67-.75s-1.02-6.81-.77-7.52c.25-.71,1.05-4.98,9.67-2.45,0,0,2.68-.57,3.22,1.29,.54,1.85-.62,7.85-.62,7.85Z"/>
          <path class="cls-92" d="M272.85,288.87s-8.67-5.19-12.45-6.01c-3.58-.77-4.88-2.11-4.88-2.11,0,0,5.69,0,9.47,2.69,2.57,1.83,7.86,5.43,7.86,5.43Z"/>
          <path class="cls-92" d="M280.55,292.49s15.07-7.91,21.23-9.63c3.52-.98,4.88-2.11,4.88-2.11,0,0-9.32,.91-14.99,4.32-2.7,1.63-11.12,7.42-11.12,7.42Z"/>
          <path class="cls-85" d="M275.04,300.47c-1,.4-2.02,.65-2.67,.86-.99,.31-8.87,.56-10.49,.87-1.61,.31-4.84,.81-6.14-.43-1.3-1.24,.81-3.91,2.61-4.59,1.8-.68,8.38-.87,9.56-.99,1.18-.12,2.73-.56,3.47-.31,.24,.08,1.28-.23,2.59-.68,.04,.79,1.08,5.28,1.08,5.28Z"/>
          <path class="cls-23" d="M280.55,299.72l14.82-4.38-2.93-.89s-11.84,4.29-11.89,5.28Z"/>
          <polygon class="cls-92" points="280.55 299.72 287.49 297.61 282.68 300.4 280.55 299.72"/>
          <path class="cls-16" d="M275.79,282s-.12-.07-.31-.18c.12,.06,.23,.13,.31,.18Z"/>
          <path class="cls-69" d="M272.37,301.33c-.99,.31-8.87,.56-10.49,.87-1.61,.31-4.84,.81-6.14-.43-1.3-1.24,.81-3.91,2.61-4.59,1.8-.68,8.38-.87,9.56-.99,1.18-.12,2.73-.56,3.47-.31,0,0-1.99,3.04,.99,5.46Z"/>
          <path class="cls-21" d="M288.33,244.94s-2.37,10.43-8.03,10.43-8.78-10.07-8.78-10.07c0,0,0,0,0,0,2.66-.93,5.17-1.77,5.17-1.77h7.24s2.29,.74,4.39,1.41Z"/>
          <path class="cls-16" d="M267.48,280.75l-2.28-12.99,29.52-.68-1.9,12.78s-9.42,3.45-12.62,5.46c0,0-8.08-3.32-12.72-4.57Z"/>
          <path class="cls-65" d="M281.93,275.6c0,1.07-.74,1.94-1.65,1.94s-1.65-.87-1.65-1.94,.74-1.94,1.65-1.94,1.65,.87,1.65,1.94Z"/>
          <path class="cls-85" d="M284.01,243.55s0-.02,0-.02c-.35-.79-.18-4.63-.18-4.63,0,0-7.21-1.84-7-.43,.21,1.4-.62,5.23-.62,5.23l-3.7,1.27s3.94,10.58,8.47,9.22c4.53-1.37,6.24-9.6,6.24-9.6l-3.2-1.03Z"/>
          <path class="cls-33" d="M276.81,239.89s1.28,1.63,3.29,1.63c1.33,0,2.37-.46,3.69-1.75,0,0-.67,2.54-3.69,2.77,0,0-2.3,.14-3.3-2.65Z"/>
        </g>
        <polygon class="cls-15" points="258.08 162.67 228.45 162.67 228.45 184.15 228.45 188.67 232.97 184.15 258.08 184.15 258.08 162.67"/>
        <g>
          <path class="cls-53" d="M213.81,287.35s.31,2.52,.72,3.63c.41,1.11,2.63,3.67,1.69,6.14-1.02,2.67-5.46,.1-7.27-.72-1.81-.81-1.4-2.29-1.59-4.1-.19-1.81-1.08-1.86-.75-3.13,.33-1.27,2.31-3.71,2.31-3.71l4.9,1.9Z"/>
          <path class="cls-85" d="M209.77,284.13s-1.14,1.59-1.11,1.64c.03,.04,4.87,2.99,5.21,2.03,.27-.76,.38-1.86,.38-1.86l-4.48-1.81Z"/>
          <path class="cls-53" d="M193.36,289.13s-1.48,1.29-2.8,3.28c-1.33,1.99-4.85,2.09-5,4.81-.15,2.71,4.78,2.8,7.38,1.91,2.59-.88,2.98-3.54,4.55-4.2,1.57-.66,2.38-1.2,2.26-2.49-.12-1.29-.99-3.4-.99-3.4,0,0-.97,.31-1.55,.37-.57,.06-2.5,.09-3.85-.29Z"/>
          <path class="cls-71" d="M211.12,215.58s-.99,5.91-1.79,9.81h0c-.32,1.58-.62,2.83-.8,3.23-.23,.5-2.09,2.5-4.37,4.85-4,4.12-9.29,9.31-9.29,9.31l-2.07-3.92s4.7-5.51,7.88-9.18c1.47-1.7,2.62-3.01,2.83-3.2,.67-.6,1.44-6.46,2.53-11.3,1.09-4.84,3.26-7.51,3.26-7.51l1.82,7.92Z"/>
          <path class="cls-85" d="M204.16,233.46c-4,4.12-9.29,9.31-9.29,9.31l-2.07-3.92s4.7-5.51,7.88-9.18c.98,.48,2.77,1.62,3.48,3.8Z"/>
          <path class="cls-85" d="M193.59,287.32l-.23,1.81s2.57,.91,5.4-.08l.06-1.61-5.23-.12Z"/>
          <path class="cls-56" d="M230.07,241.97c.15,.53-27.22,0-27.22,0,0,0,7.57-5.51,8.06-6.98,.49-1.47-1.93-10.3-2.24-13.18-.25-2.3-.88-12.59,.63-14.16,1.58-1.64,7.29-3.36,7.29-3.36l8.32,.31s1.37,.29,2.35,.74c.98,.46,6.59,2.45,7.5,5.26,.91,2.8-5.6,11.82-5.6,11.82,0,0-.01,.41-.03,1.07h0c-.03,.89-.06,2.23-.1,3.69-.04,1.89-.08,3.97-.08,5.49,0,3.57,.97,8.78,1.11,9.3Z"/>
          <path class="cls-59" d="M230.07,241.97s3.72,5.47,3.77,9.2c.05,3.73-6.61,16.23-7.61,18.02-3.03,5.38-11.34,16.97-11.34,16.97,0,0-1.43-.04-5.9-1.77,0,0,5.53-15.32,6.23-16.91,2.97-6.74,4.63-11.53,3.63-12.68-1-1.16-3.72-2.32-4.51-3-.79-.68-14.52,2.6-15.96,2.97-3.73,.97-2.03,7.45-1.2,10.36,1.38,4.86,2.58,22.43,2.58,22.43,0,0-2.65,1.13-7.1,.18,0,0-8.73-31.72-9.01-34.87-.28-3.15-.42-8.35,21.1-12.31l25.32,1.42Z"/>
          <path class="cls-85" d="M218.87,186.22s-7.22-1.63-5.57,7.46c1.65,9.09,3.39,9.8,7.74,7.92,4.36-1.88,3.97-7.7,4.18-10.56,.22-2.85-4.05-4.72-6.36-4.82Z"/>
          <path class="cls-85" d="M216.96,206.62s3.2,3.39,8.25,.31c0,0-1.13-7.35-.54-10.92,.59-3.58-6.59,5.54-6.59,5.54,.09,.05,.16,.39,.17,.88,.01,.41,0,.93-.08,1.46-.15,1.19-.52,2.45-1.22,2.74Z"/>
          <path class="cls-60" d="M224.88,195.7s-.19-2.86-1.23-2.95c-1.05-.09-1.21,1.06-1.21,1.06l-1.06,.2s.33-2.51-.71-2.95c-1.04-.44-6.76,1.38-7.6,.64-.84-.74-.44-5.83,1.07-6.52,1.52-.7,5.7-2.26,8.77-.18,0,0,2.39-.27,2.75,1.66,.35,1.93-.13,7.6-.78,9.04Z"/>
          <path class="cls-33" d="M218.18,203.88c5.21-1.61,5.61-4.75,5.61-4.8-1.72,2.95-5.54,3.34-5.54,3.34,.01,.41,0,.93-.08,1.46Z"/>
          <path class="cls-85" d="M227.35,205.38s-3.82,7.6-9.99,7.11c-6.17-.49-1.05-8.13-.77-8.2,.31-.08,6.33-1.58,10.76,1.09Z"/>
          <path class="cls-99" d="M199.72,241.59s18.9,2.33,30.35,.38l-21.88-2.73s-.13,.56-8.47,2.35Z"/>
          <path class="cls-85" d="M213.86,238.38l-1.41,.71s.32,2.24,1.09,2.91l1.58-.4s-.33-2.45-1.26-3.22Z"/>
          <path class="cls-82" d="M235.73,233.8c-.28,.33-4,1.82-8.19,3.44h0c-5.73,2.21-12.2,4.3-12.2,4.3l-1.47-3.16s6.77-3.68,11.35-6.26c2.16-1.22,3.83-2.19,4.07-2.42,.74-.7,.93-1.82,.39-3.78-.54-1.96-1.79-10.97-1.93-12.02-.14-1.05,.35-3.85,2.98-4s3.97,.6,3.97,.6c0,0,.66,.27,1.15,6.65,.49,6.38,.56,15.87-.11,16.65Z"/>
          <path class="cls-26" d="M229.14,223.49h0c-.03,.89-.06,2.23-.1,3.69-2.57-6.29-1.08-11.31-1.06-11.39-.28,1.71,1.13,7.62,1.15,7.7Z"/>
          <path class="cls-86" d="M209.33,225.38h0c-.32,1.58-.62,2.83-.8,3.23-.88-4.24-.09-9.67-.09-9.67,.12,2.59,.89,6.44,.89,6.44Z"/>
          <path class="cls-85" d="M227.53,237.24h0c-5.73,2.21-12.41,4.37-12.41,4.37l-1.26-3.22s6.77-3.68,11.35-6.26c0,0,1.67,.81,2.32,5.12Z"/>
          <polygon class="cls-64" points="213.45 241.79 186.59 241.39 200.15 248.28 213.45 241.79"/>
          <polygon class="cls-67" points="200.15 248.28 213.45 243.13 213.45 241.79 199.1 246.96 200.15 248.28"/>
          <path class="cls-85" d="M212.75,239.14s-1.68-.26-2.84-.53c-.9-.21-3.13,.08-3.7,.65-.57,.58-2.38,4.59-2.72,4.83-.34,.24,.18,.81,.78,.53,0,0,.55,1.76,1.91,1.1,1.36-.66,2.28-2.09,3-2.35,.71-.25,4.86-1.53,4.86-1.53,0,0-.22-3.14-1.29-2.71Z"/>
          <path class="cls-85" d="M206.63,239s-1.08,.52-1.36,.75c-.28,.23-1.42,1.09-1.7,1.29-.28,.2,.42,.77,2.46-.11,2.04-.88,.6-1.93,.6-1.93Z"/>
          <polygon class="cls-67" points="200.15 248.28 192.16 226.46 166.41 226.89 174.02 246.99 200.15 248.28"/>
          <path class="cls-68" d="M183.92,236.12c.79,1.57,.55,3.28-.53,3.82-1.08,.54-2.59-.3-3.38-1.87-.79-1.57-.55-3.28,.53-3.82,1.08-.54,2.59,.3,3.38,1.87Z"/>
          <path class="cls-85" d="M222.46,192.6c.1-.8,1.68-1.1,1.81,.11,.13,1.2-.72,3.31-1.32,3.1-.6-.21-.62-2.1-.49-3.21Z"/>
        </g>
        <g>
          <path class="cls-32" d="M108,198.61s-.94,13.16,1.63,14.73c1.61,.99,8.03,4.31,7.84,4.94-.19,.62-3.63,5.55-3.63,5.55,0,0-12.33-8.12-12.73-10.68-.39-2.5,.61-19.26,2.3-20.04,1.27-.58,1.94-.1,3.54,1.09,2.25,1.67,1.04,4.41,1.04,4.41Z"/>
          <path class="cls-93" d="M130.47,202.37l1.09-.4s-1.36-3.18-1.95-3.1c-.68,.09-1.53,.31-1.53,.31l2.39,3.19Z"/>
          <path class="cls-49" d="M130.72,202.92c-.14-.1-2.31-4.27-2.31-4.27l-4.64,.63,2.51,4.93,4.44-1.3Z"/>
          <path class="cls-61" d="M106.56,294.36s-.38,2.66-.43,3.06c-.05,.4-4.27-.24-4.27-.24l-.34-3.17s4.51-.03,5.04,.34Z"/>
          <path class="cls-80" d="M106.18,297.08s1.34,1.6,2.63,2.3c1.29,.7,3.32,.98,4.09,1.7,.55,.52,2.01,2.77-3.36,2.73-5.37-.05-7.96,.32-8.53-.54-.58-.86,.83-6.36,.83-6.36,0,0,1.27,.46,4.34,.18Z"/>
          <path class="cls-61" d="M127.67,294.36s-.38,2.66-.43,3.06c-.05,.4-4.27-.24-4.27-.24l-.34-3.17s4.51-.03,5.04,.34Z"/>
          <path class="cls-80" d="M127.29,297.08s1.34,1.6,2.63,2.3c1.29,.7,6.05,1.27,6.81,2,.55,.52,1.47,2.63-6.08,2.43-5.37-.14-7.96,.32-8.53-.54-.58-.86,.83-6.36,.83-6.36,0,0,1.2,.49,4.34,.18Z"/>
          <path class="cls-80" d="M108.08,225.95s-3.96,6.3-3.67,11.99c.3,5.69-.35,11.77-.95,17.72-.66,6.63-2.47,20.43-2.57,23.97-.1,3.55,.13,16.89,.13,16.89l6.88-.05s2.44-26.96,3.62-29.76c1.18-2.8,6.04-23.05,6.24-25.29,.2-2.24-9.68-15.47-9.68-15.47Z"/>
          <path class="cls-80" d="M128.94,226.81s1.57,15.48,1.96,18.96c.39,3.48,.12,18.58,.32,20.76,.2,2.18-1.32,25.21-1.69,29.6l-7.56-.05s-.52-18.63-.52-27.68-2.32-19.59-4.98-25.56c-2.66-5.97-8.75-6.11-10.39-17.2,0,0,20.65-2.34,22.86,1.18Z"/>
          <path class="cls-85" d="M112.26,172.86s4.72-3.15,8.04,.22c3.32,3.38,4.95,11.33,2.56,12.91-2.38,1.59-6.42,2-8.34-.15-1.92-2.15-3.96-5.43-4.47-7.83s1.01-4.15,2.2-5.16Z"/>
          <path class="cls-85" d="M121.26,186.53s-.06,3.32,.3,4.03c.37,.71-6.89,.73-6.89,.73,0,0-.59-3.85-1.71-7.1-1.12-3.25,8.29,2.35,8.29,2.35Z"/>
          <path class="cls-63" d="M113.15,184.13s.68,.69,2.59-.09c1.92-.78,3.72-4,4.48-4.49,.76-.49,.66-.98,.66-.98l.7,.64,.9-.15s-1.36-2.18-.38-3.43c.99-1.25-3.07-7.37-8.93-3.64,0,0-4.58,2.51-3.75,5.25,.84,2.75,2.3,5.75,3.72,6.88Z"/>
          <path class="cls-17" d="M122,190.47s-.02-1.35-.64-1.48c-.61-.13-6.76-.72-7.52-.43v1.57s1.45,.89,8.15,.33Z"/>
          <path class="cls-85" d="M120.51,177.59c-.22-.44-1.73-1.5-1.84,.04-.12,1.54,1.48,3.19,2.08,2.88,.6-.32,.33-1.8-.23-2.92Z"/>
          <path class="cls-32" d="M146.41,206.44s0,0,0,0c.04,.02,.05,.02,0,0Z"/>
          <path class="cls-32" d="M130.98,192.34c-4.38-.77-8.98-1.87-8.98-1.87l-8.15-.33s-7.48,1.65-10.43,2.98c-.28,.13-.28,6.67-1.05,8.39l2.44,5.15s1.41,10.21,1.7,14.75c.13,2.08-2.91,19.55-2.91,19.55,0,0,3.26,.96,8.83,1.57,5.56,.61,19.47-.22,19.55-.88,.09-.66-2.69-24.47-2.82-25.7-.19-1.89,.55-10.64,.55-10.64,1.05,1.41,6.03,7.53,8.82,10.56,1.64,1.78,7.66,4.87,9.06,5.49,3.02,1.35,7.86,4.45,8.04,4.12,.14-.19,3.39-5.69,3.01-5.82-.33-.11-10.46-6.3-13.35-7.83-1.06-.56-5.17-7.62-5.17-7.62,0,0-6.73-10.79-9.14-11.87Z"/>
          <path class="cls-63" d="M110.9,173.67s-6.75,1.81,1.98,10.2l-1.98-10.2Z"/>
          <path class="cls-70" d="M162.49,226.71s-.59,.01-.86-.11c0,0-.46-.26-.8-.42-.11-.05-.2-.09-.27-.11-.27-.09-.88-.2-1.47-.59-.59-.39-2.52-1.97-2.52-1.97l1.06-1.88,.43-1.83s4.27,.15,4.86,.45c.06,.03,.11,.06,.16,.09,.47,.3,.7,.73,.93,.91,.08,.07,.87,.81,.85,1.14-.03,.45-.23,.75-.5,.9,0,0-.09,.88-.52,1.29,0,0-.06,.81-.73,1.18,0,0-.15,.82-.63,.94Z"/>
        </g>
        <g>
          <path class="cls-52" d="M63.07,182.29c.66,2.17-.18,4.35-1.89,4.87-1.71,.52-3.63-.82-4.29-2.98-.66-2.17,.18-4.35,1.89-4.87,1.71-.52,3.63,.82,4.29,2.98Z"/>
          <path class="cls-32" d="M71.43,193.95s2.41,.76,3.79,2.65c1.38,1.89,1.59,4.54,1.65,5.89,.06,1.35,.43,6.58,.43,6.58l-4.09,1.15-1.78-16.27Z"/>
          <path class="cls-80" d="M88.76,299s3.07,4.13,2.65,4.78c-.42,.65-3.65,.75-5.61,0-1.96-.75-2.01-5.59-2.9-7.67-.37-.87,.42-3.44,1.54-3.63,1.12-.19,2.34,.36,2.34,.36,0,0-1.16,2.93,1.98,6.15Z"/>
          <path class="cls-85" d="M86.8,292.81s.65,1.76,.88,3.44c.2,1.39,2.19,4.35,2.09,4.72-.09,.37-2.62,.71-3.65-.25-1.03-.96-1.69-3.77-1.92-5.45-.21-1.56-.48-2.33-.48-2.33,0,0,2.09-1.16,3.07-.13Z"/>
          <path class="cls-80" d="M62.06,299.07s2.96,4.06,2.54,4.72c-.42,.65-3.65,.75-5.61,0-1.96-.75-2.01-5.59-2.9-7.67-.37-.87,.42-3.44,1.54-3.63,1.12-.19,2.43,.4,2.43,.4,0,0-1.15,2.96,2,6.18Z"/>
          <path class="cls-85" d="M60.06,292.89s.23,1.92,.61,3.27c.37,1.36,2.38,4.44,2.29,4.82-.09,.37-2.62,.71-3.65-.25-1.03-.96-1.82-3.76-1.92-5.45-.09-1.69,.23-2.79,.23-2.79,0,0,1.45-.63,2.43,.4Z"/>
          <path class="cls-85" d="M74.84,225.65s2.63,12.25,3.24,15.33c.6,3.08,2.3,18.02,2.48,20.55,.18,2.54,2.75,12.11,2.63,13.01-.12,.91,3.8,19.12,3.8,19.12,0,0-1.34,1.08-2.75,.1-.73-.5-8.61-17.05-8.61-21.59,0-6.27-4.63-14.45-5.23-15.85-5.56-13.03-4.46-17.01-5.19-17.85-.73-.85-.79,.52-1.21,2.4-.42,1.87-1.33,18.08-1.87,20.13s-.12,9.01-.42,12.51c-.3,3.51-1.63,19.37-1.63,19.37,0,0-1.03,1.61-2.47,.04-.31-.34-2.49-17.67-2.55-21.84-.06-4.17-.12-9.92-.24-11.73-1.12-17.29-3.87-19.75,.46-31.99,8.12-22.91,19.58-1.72,19.58-1.72Z"/>
          <path class="cls-32" d="M57.16,222.23s-7.5,10.5-4.27,32.82c0,0,17.79,2.42,27.32-2.8,0,0-3.94-23.02-5.37-26.6-1.43-3.58-17.68-3.42-17.68-3.42Z"/>
          <polygon class="cls-80" points="82.82 295.75 82.82 300.07 83.38 300.07 83.38 296.73 82.82 295.75"/>
          <polygon class="cls-80" points="56 295.75 56 300.07 56.57 300.07 56.57 296.73 56 295.75"/>
          <path class="cls-32" d="M67.22,192.41s3.24,1.35,4.2,1.54c.96,.19,4.2,4.98,4.85,6.75,.65,1.77,0,4.41-1.34,7.52-1.34,3.11-.08,4.14-.69,7.25-.61,3.11,1.37,9.74,1.48,11.46,.12,1.73-18.04,2.01-21.61-1.14,0,0,3.59-5.37,4.05-6.14,.46-.77,.08-4.95-.35-6.02-.42-1.07-3.23-10.21-3.23-10.21,0,0-2.3-7.02-.22-8.63,1.8-1.4,6.72-1.9,7.6-2.21,.88-.31,3.45-.44,5.25-.17Z"/>
          <path class="cls-85" d="M68.54,189.22s-.08,.69-.17,1.65c-.04,.42-.08,.9-.12,1.39-.11,1.39-.2,2.91-.15,3.67,0,0-2.87,2.88-6.14-3.36,0,0,1.37-2.57,.34-6.07-1.03-3.5,6.23,2.71,6.23,2.71Z"/>
          <polygon class="cls-85" points="75.76 212.37 76.24 213.54 75.21 212.8 75.76 212.37"/>
          <path class="cls-13" d="M69.52,173.3s6.44,2.02,2.94,13.13-12.29-1.29-11.37-8.06c.92-6.77,8.42-5.08,8.42-5.08Z"/>
          <path class="cls-52" d="M73.12,179.78s-3.2,3.14-8.55,3.53c0,0-2.06,2.41-2.22,3.36,0,0-5.6-9.35,1.09-13.02,7.09-3.88,11.83,4.12,9.67,6.13Z"/>
          <path class="cls-13" d="M64.53,183.25c-.04-.81-.54-2.65-1.74-2.13-1.2,.51,.07,4.26,.87,4.03,0,0,.97,.01,.87-1.9Z"/>
          <path class="cls-33" d="M68.38,190.87c-.04,.42-.08,.9-.12,1.39h0c-3.72-1.84-4.29-4.49-4.31-4.57,2.84,3.18,4.43,3.18,4.43,3.18Z"/>
          <path class="cls-66" d="M76.62,202.42s.18,3.91-.7,6.15l-.81-.42s1.49-3.91,1.51-5.74Z"/>
          <path class="cls-85" d="M62.65,215.13s1.49-.98,1.72-1.13,1.04-.1,1.88,.17c.81,.26,1.73,.61,1.98,.75,.13,.07,.26,.1,.21,.48-.06,.38-.32,.68-.32,.68,0,0,.15,.51-.19,.84,0,0,.12,.48-.34,.8,0,0,.11,.47-.25,.68,0,0-.76,.1-1.05,.04-.41-.09-2.53-.58-4.02-.97,0,0-.62-.37,.38-2.35Z"/>
          <path class="cls-85" d="M67.78,214.8s3.85,.85,3.8,1.14c-.07,.43-1.02,.59-3.95-.21-2.84-.78,.14-.93,.14-.93Z"/>
          <path class="cls-32" d="M58.29,194.14c-.87-.53-3.79-.47-4.93,2.27-1.14,2.74-2.07,5.85-2.87,7.28-.8,1.43-3.51,7.96-2.71,8.74,.81,.78,2.46,1.72,4.96,2.3,2.57,.61,10.04,3.39,10.04,3.39l.95-4.04s-3.28-1.57-5.18-2.33c-1.69-.68-1.48-.85-4.26-1.84,0,0,1.59-4.06,2.31-5.15s5.61-8.25,1.68-10.62Z"/>
          <path class="cls-96" d="M68.45,222.02l9.99-.81c.45-.04,.85-.28,1.09-.67l10.35-16.79c.58-.94-.09-2.15-1.19-2.16l-10.7-.11c-.52,0-1.01,.28-1.26,.74l-9.64,17.71c-.54,.99,.24,2.18,1.36,2.09Z"/>
          <path class="cls-85" d="M82.44,215.85s.63-.58,1.19-1.4c.56-.82,2.39-3.93,2.22-4.13s-2.89-.26-3.38,.18c-.49,.44,.48,.62,.48,.62,0,0-1.49,.15-1.38,.57,.11,.42,1,.3,1,.3,0,0-1.2,.23-1.02,.6s.76,.36,.76,.36c0,0-1.06,.13-.93,.54,.13,.4,1.81,.78,1.58,1.12-.22,.33-.53,1.24-.53,1.24Z"/>
          <path class="cls-85" d="M61.5,192.7s3.61,5.87,6.47,5.8c2.86-.07,.91-5.43,.91-5.43,0,0-2.19-1.76-7.37-.37Z"/>
          <path class="cls-58" d="M80.28,212.4c-.97,.97-2.27,1.23-2.91,.58-.64-.64-.38-1.95,.58-2.91s2.27-1.23,2.91-.58,.38,1.95-.58,2.91Z"/>
          <path class="cls-52" d="M73.65,178.23s.4,1.54-.28,4.24c0,0,.11-2.54-.43-3.23-.53-.69,.7-1.01,.7-1.01Z"/>
        </g>
      </g>
      <g>
        <path class="cls-87" d="M155.02,82.93c0,3.32,0,6.64,0,9.96,0,.23,0,.47,0,.7-.04,1.18-.38,1.54-1.55,1.55-2.11,.02-4.22,0-6.32,0-.43,0-.85,0-1.27,0-.83,.8-1.37,1.76-2.05,2.61-.7,.86-1.02,.89-1.71,0-.67-.85-1.29-1.74-1.93-2.61-2.45,0-4.83,0-7.21,0-1.61,0-1.92-.3-1.92-1.91,0-3.44,0-6.87,0-10.31,.37-.89,1.13-.93,1.95-.93,5.26,.01,10.51,0,15.77,0,1.56,0,3.12,.02,4.67-.01,.74-.01,1.29,.22,1.58,.93Zm-12.78,7.76c-.62-1.46-1.25-2.92-1.88-4.38-.21-.48-.43-.96-1.21-.66-.78,1.68-1.55,3.45-2.21,5.19,.3,.35,.54,.37,.85,.19,.2-.38,.41-.79,.6-1.15,.45-.04,.84-.09,1.22-.1,.38,0,.78-.08,1.14,.11,.44,.37,.32,1.16,1,1.32,.24-.05,.36-.2,.48-.52Zm5.56,.52c.41-.01,.56-.28,.71-.57,.14-.27,.14-.62,.49-.84,.71-.05,1.48-.08,2.08,0,.68,.38,.41,1.35,1.22,1.4,.36-.16,.41-.44,.3-.71-.62-1.51-1.25-3.01-1.89-4.51-.21-.48-.58-.59-1.15-.29-.64,1.49-1.31,3.06-1.97,4.63-.13,.3-.18,.6,.2,.87Zm-.91-5.75c-.99,1.34-1.23,3-2.05,4.48-.78-1.46-1.04-3.04-1.88-4.32-.42-.13-.65,.01-.76,.42,.73,1.67,1.33,3.44,2.14,5.03,.42,.14,.72,.16,1.14-.13,.58-1.45,1.22-3.04,1.86-4.62,.14-.35,.11-.6-.45-.85Zm-11.16,.09c-.22,.01-.4,.07-.44,.22-.37,1.33,0,2.7-.22,4.1-.29,.11-.51,.39-.9,.39-.38,0-.77-.17-1.13,.09-.12,.31-.05,.57,.25,.69,1.61,.65,2.76,.05,2.86-1.53,.07-1.09,.01-2.18,.01-3.27,0-.29-.08-.54-.42-.69Z"/>
        <path class="cls-43" d="M142.24,90.69c-.13,.32-.24,.47-.48,.52-.68-.16-.55-.95-1-1.32-.36-.19-.76-.12-1.14-.11-.38,0-.77,.06-1.22,.1-.19,.36-.4,.77-.6,1.15-.31,.19-.55,.16-.85-.19,.66-1.74,1.43-3.5,2.21-5.19,.78-.3,1,.18,1.21,.66,.63,1.46,1.25,2.92,1.88,4.38Zm-2.68-3.86c-.24,.8-.67,1.34-.71,2.09,.54,.07,1.02,.15,1.52-.04-.12-.7-.43-1.27-.81-2.05Z"/>
        <path class="cls-43" d="M147.8,91.22c-.39-.27-.33-.57-.2-.87,.66-1.57,1.33-3.13,1.97-4.63,.56-.3,.94-.19,1.15,.29,.65,1.5,1.27,3,1.89,4.51,.11,.26,.06,.54-.3,.71-.81-.05-.55-1.02-1.22-1.4-.61-.08-1.37-.05-2.08,0-.35,.22-.35,.57-.49,.84-.15,.29-.29,.55-.71,.57Zm1.48-2.37c.59,.19,1.08,.19,1.66,.03-.24-.63-.45-1.19-.85-1.77-.47,.53-.59,1.12-.81,1.73Z"/>
        <path class="cls-43" d="M146.89,85.46c.57,.25,.59,.5,.45,.85-.65,1.58-1.28,3.17-1.86,4.62-.42,.3-.73,.27-1.14,.13-.81-1.59-1.4-3.36-2.14-5.03,.11-.41,.33-.55,.76-.42,.84,1.28,1.1,2.87,1.88,4.32,.83-1.47,1.06-3.14,2.05-4.48Z"/>
        <path class="cls-43" d="M135.73,85.55c.35,.15,.42,.4,.42,.69,0,1.09,.06,2.18-.01,3.27-.1,1.58-1.24,2.18-2.86,1.53-.29-.12-.36-.38-.25-.69,.35-.26,.75-.09,1.13-.09,.39,0,.61-.29,.9-.39,.22-1.4-.15-2.78,.22-4.1,.04-.15,.22-.2,.44-.22Z"/>
        <path class="cls-48" d="M139.57,86.83c.38,.78,.69,1.35,.81,2.05-.5,.19-.98,.11-1.52,.04,.04-.75,.47-1.29,.71-2.09Z"/>
        <path class="cls-37" d="M149.28,88.85c.23-.62,.34-1.21,.81-1.73,.4,.57,.61,1.14,.85,1.77-.58,.16-1.07,.15-1.66-.03Z"/>
      </g>
      <g>
        <path class="cls-83" d="M249.38,30c-.02,.58,0,1.17-.08,1.74-.3,2.12-1.49,3.2-3.69,3.21-4.82,.03-9.64,.01-14.45,.01-.49,0-.99,0-1.43,0-2.6,2.03-3.44,5.59-6.59,7.14-2.43-2.05-3.46-5.05-5.92-7.14-4.56,0-9.28,0-14.01,0-.66,0-1.33,.03-1.99,0-2.17-.1-3.16-1.08-3.18-3.26-.04-4.49-.02-8.97-.02-13.46,0-3.07,0-6.15,0-9.22,.45-.58,.64-1.37,1.47-1.83,.83-.31,1.83-.2,2.81-.2,14.35-.01,28.69,0,43.04-.03,1.5,0,2.81,.16,3.65,1.57-.04,.44,.02,.85,.39,1.15,0,6.77,0,13.55,0,20.32Zm-13.91-6.56c1.74,0,3.13,.07,4.52-.02,2.33-.14,4.15-1.85,4.38-3.98,.25-2.32-1.2-4.27-3.57-4.95-1.96-.57-3.94-.35-5.91-.36-1.06,0-1.75,.64-1.76,1.7-.04,3.73-.07,7.45,.01,11.18,.03,1.4,.4,1.5,2.33,.95v-4.52Zm-15.83-9.37c-.73,.29-1.11,.59-1.12,1.01-.03,4.38-.02,8.75-.02,13.07,.84,.34,1.37,.46,1.91-.2,.49-1.63-.33-3.53,.62-5.44,2.08,.04,4.2-.21,6.5,.19,0,1.51,0,2.91,0,4.3,0,.74,.29,1.34,1.1,1.41,.81,.07,1.26-.45,1.26-1.21,.03-3.91,.06-7.81,0-11.72-.02-1.12-.73-1.6-1.93-1.12-.98,1.75,.06,3.77-.7,5.65-2.15,.16-4.27,.22-6.32-.04-1.11-1.86,.62-4.25-1.3-5.91Zm-11.6,9.42c.58,0,1.31,0,2.05,0,.75,0,1.5,.03,2.24-.06,1.95-.22,3.84-2.2,4.04-4.16,.17-1.62-1.24-4.07-2.85-4.58-2.64-.84-5.34-.72-8.37-.33,0,4.47,0,8.76,.02,13.06,0,.41,.33,.75,.95,1.07,2.66-.72,.59-3.31,1.92-5.01Z"/>
        <path class="cls-43" d="M235.47,23.44v4.52c-1.92,.56-2.3,.45-2.33-.95-.08-3.72-.06-7.45-.01-11.18,.01-1.06,.7-1.7,1.76-1.7,1.97,0,3.96-.21,5.91,.36,2.37,.68,3.82,2.63,3.57,4.95-.23,2.13-2.06,3.84-4.38,3.98-1.39,.08-2.79,.02-4.52,.02Zm.12-2.25c1.59,.53,2.87-.08,4.18-.13,1.45-.06,2.18-.9,2.22-2.15,.04-1.27-.6-2.09-2.08-2.33-1.38-.22-2.77-.16-4.31,.03-.17,1.57-.16,3.03,0,4.58Z"/>
        <path class="cls-43" d="M219.64,14.07c1.92,1.66,.18,4.05,1.3,5.91,2.05,.26,4.17,.19,6.32,.04,.77-1.88-.27-3.91,.7-5.65,1.2-.48,1.91,0,1.93,1.12,.07,3.91,.04,7.81,0,11.72,0,.75-.45,1.28-1.26,1.21-.8-.07-1.09-.67-1.1-1.41,0-1.4,0-2.8,0-4.3-2.3-.39-4.42-.15-6.5-.19-.95,1.91-.13,3.81-.62,5.44-.54,.66-1.07,.54-1.91,.2,0-4.32-.01-8.69,.02-13.07,0-.42,.39-.72,1.12-1.01Z"/>
        <path class="cls-43" d="M208.04,23.48c-1.33,1.7,.74,4.29-1.92,5.01-.63-.32-.95-.66-.95-1.07-.03-4.29-.02-8.58-.02-13.06,3.03-.39,5.73-.51,8.37,.33,1.62,.51,3.02,2.96,2.85,4.58-.2,1.96-2.09,3.93-4.04,4.16-.74,.09-1.49,.05-2.24,.06-.74,0-1.48,0-2.05,0Zm-.42-2.19c1.67,.17,3.04,.2,4.42-.18,1.19-.32,1.89-.98,1.92-2.22,.03-1.18-.8-2.15-2.13-2.32-1.36-.17-2.76-.24-4.24,.07-.16,1.58-.2,3.02,.03,4.65Z"/>
        <path class="cls-62" d="M235.59,21.18c-.15-1.56-.16-3.01,0-4.58,1.54-.19,2.94-.25,4.31-.03,1.48,.24,2.13,1.06,2.08,2.33-.04,1.26-.77,2.1-2.22,2.15-1.31,.05-2.59,.66-4.18,.13Z"/>
        <path class="cls-35" d="M207.62,21.29c-.22-1.62-.18-3.07-.03-4.65,1.48-.31,2.87-.24,4.24-.07,1.34,.16,2.16,1.14,2.13,2.32-.03,1.25-.73,1.9-1.92,2.22-1.39,.37-2.76,.35-4.42,.18Z"/>
      </g>
      <path class="cls-28" d="M127.59,41.54v14.92c0,2.2-1.78,3.99-3.99,3.99h-16.27l-6.65,8.89c-.89,1.19-2.66,1.21-3.58,.05l-7.08-8.94h-14.62c-2.2,0-3.99-1.78-3.99-3.99v-14.92c0-2.2,1.78-3.99,3.99-3.99h48.19c2.2,0,3.99,1.78,3.99,3.99Z"/>
      <path class="cls-45" d="M362.87,195.75v18.71c0,2.76-2.24,5-5,5h-20.4l-8.33,11.14c-1.11,1.49-3.33,1.52-4.48,.06l-8.87-11.2h-18.32c-2.76,0-5-2.24-5-5v-18.71c0-2.76,2.24-5,5-5h60.4c2.76,0,5,2.24,5,5Z"/>
      <path class="cls-84" d="M217.41,170.8v8.21c0,1.21-.98,2.19-2.19,2.19h-8.95l-3.66,4.89c-.49,.65-1.46,.67-1.97,.03l-3.89-4.92h-8.04c-1.21,0-2.19-.98-2.19-2.19v-8.21c0-1.21,.98-2.19,2.19-2.19h26.51c1.21,0,2.19,.98,2.19,2.19Z"/>
      <path class="cls-40" d="M372.02,165.65v9.6c0,1.42-1.15,2.56-2.56,2.56h-10.47l-4.28,5.72c-.57,.76-1.71,.78-2.3,.03l-4.55-5.75h-9.4c-1.42,0-2.56-1.15-2.56-2.56v-9.6c0-1.42,1.15-2.56,2.56-2.56h31c1.42,0,2.56,1.15,2.56,2.56Z"/>
      <path class="cls-25" d="M45.87,188.41v12.19c0,1.8-1.46,3.26-3.26,3.26h-13.29l-5.43,7.26c-.72,.97-2.17,.99-2.92,.04l-5.78-7.3H3.26c-1.8,0-3.26-1.46-3.26-3.26v-12.19c0-1.8,1.46-3.26,3.26-3.26H42.61c1.8,0,3.26,1.46,3.26,3.26Z"/>
      <path class="cls-50" d="M363.49,106.68v11.56c0,1.71-1.38,3.09-3.09,3.09h-12.61l-5.15,6.88c-.69,.92-2.06,.94-2.77,.04l-5.49-6.92h-11.32c-1.71,0-3.09-1.38-3.09-3.09v-11.56c0-1.71,1.38-3.09,3.09-3.09h37.34c1.71,0,3.09,1.38,3.09,3.09Z"/>
      <text class="cls-7" transform="translate(76.06 53.36)"><tspan x="0" y="0">HTML5</tspan></text>
      <text class="cls-12" transform="translate(302.12 211.24)"><tspan x="0" y="0">CSS3</tspan></text>
      <text class="cls-6" transform="translate(189.67 177.6)"><tspan x="0" y="0">LAVAEL</tspan></text>
      <text class="cls-9" transform="translate(7.44 197.39)"><tspan x="0" y="0">JQuery</tspan></text>
      <text class="cls-9" transform="translate(328.04 114.25)"><tspan x="0" y="0">Vue.js</tspan></text>
      <g>
        <path class="cls-77" d="M174.45,3.4v12.74c0,1.88-1.52,3.4-3.4,3.4h-13.89l-5.67,7.58c-.76,1.01-2.27,1.03-3.05,.04l-6.04-7.63h-12.48c-1.88,0-3.4-1.52-3.4-3.4V3.4c0-1.88,1.52-3.4,3.4-3.4h41.14c1.88,0,3.4,1.52,3.4,3.4Z"/>
        <text class="cls-11" transform="translate(134.15 12.16)"><tspan x="0" y="0">MySQL</tspan></text>
      </g>
      <text class="cls-10" transform="translate(338.98 172.67)"><tspan x="0" y="0">Bootstrap</tspan></text>
      <g>
        <path class="cls-18" d="M98.02,121.65v9.6c0,1.42-1.15,2.56-2.56,2.56h-10.47l-4.28,5.72c-.57,.76-1.71,.78-2.3,.03l-4.55-5.75h-9.4c-1.42,0-2.56-1.15-2.56-2.56v-9.6c0-1.42,1.15-2.56,2.56-2.56h31c1.42,0,2.56,1.15,2.56,2.56Z"/>
        <text class="cls-10" transform="translate(64.7 128.31)"><tspan x="0" y="0">JavaScript</tspan></text>
      </g>
      <g>
        <path class="cls-95" d="M346.02,16.65v9.6c0,1.42-1.15,2.56-2.56,2.56h-10.47l-4.28,5.72c-.57,.76-1.71,.78-2.3,.03l-4.55-5.75h-9.4c-1.42,0-2.56-1.15-2.56-2.56v-9.6c0-1.42,1.15-2.56,2.56-2.56h31c1.42,0,2.56,1.15,2.56,2.56Z"/>
        <text class="cls-8" transform="translate(317.75 24.33)"><tspan x="0" y="0">Ajax</tspan></text>
      </g>
    </g>
  </g>
</svg>