<?xml version="1.0" encoding="UTF-8"?>
<svg xmlns="http://www.w3.org/2000/svg" xmlns:xlink="http://www.w3.org/1999/xlink" viewBox="0 0 202.54 184.78">
  <defs>
    <style>
      .cls-1 {
        fill: #c2e0f5;
      }

      .cls-2 {
        fill: url(#linear-gradient-2);
      }

      .cls-3, .cls-4 {
        fill: #fff;
      }

      .cls-5, .cls-6 {
        mix-blend-mode: multiply;
        opacity: .7;
      }

      .cls-7 {
        fill: #75b3e2;
      }

      .cls-8 {
        fill: #fddece;
      }

      .cls-9 {
        fill: #fddad0;
      }

      .cls-10, .cls-11 {
        fill: #e3eef4;
      }

      .cls-12 {
        stroke: #75b3e2;
        stroke-width: 2.49px;
      }

      .cls-12, .cls-13 {
        fill: none;
        stroke-miterlimit: 10;
      }

      .cls-14 {
        fill: #1e3b6f;
      }

      .cls-15 {
        fill: #00b49c;
      }

      .cls-16 {
        fill: #00ae99;
      }

      .cls-17 {
        fill: #2c5baa;
      }

      .cls-18 {
        fill: #fbba98;
      }

      .cls-19 {
        isolation: isolate;
      }

      .cls-20 {
        fill: #00b6a1;
      }

      .cls-13 {
        stroke: #fff;
        stroke-width: .24px;
      }

      .cls-21 {
        fill: #164ca0;
      }

      .cls-22 {
        fill: #7b69af;
      }

      .cls-23 {
        fill: #fcc5a9;
      }

      .cls-24 {
        fill: #1b4967;
      }

      .cls-25 {
        fill: #f5f6f6;
      }

      .cls-26 {
        fill: #fccec0;
      }

      .cls-27 {
        fill: #eeaf9f;
      }

      .cls-11 {
        opacity: .2;
      }

      .cls-28 {
        fill: #aed9ea;
      }

      .cls-29 {
        fill: #3364a7;
      }

      .cls-30 {
        fill: #4d73b7;
      }

      .cls-31 {
        fill: #cee1f4;
      }

      .cls-32 {
        fill: #1d1b50;
      }

      .cls-33 {
        fill: #00b399;
      }

      .cls-6 {
        fill: url(#linear-gradient);
      }

      .cls-34 {
        fill: #6fc9bf;
      }

      .cls-35 {
        fill: #171311;
      }

      .cls-36 {
        fill: #d5d6ec;
      }

      .cls-37 {
        fill: #e7eced;
      }

      .cls-38 {
        fill: #8ebae3;
      }

      .cls-39 {
        fill: #f5b092;
      }

      .cls-4 {
        font-family: MyriadPro-Regular, 'Myriad Pro';
        font-size: 8.42px;
      }

      .cls-40 {
        fill: #00af9c;
      }

      .cls-41 {
        fill: url(#linear-gradient-3);
      }

      .cls-42 {
        fill: #eaf6f5;
      }

      .cls-43 {
        fill: #4da3da;
      }

      .cls-44 {
        fill: #7e929e;
      }

      .cls-45 {
        fill: #ffd590;
      }
    </style>
    <linearGradient id="linear-gradient" x1="983.49" y1="147.37" x2="1034.19" y2="147.37" gradientTransform="translate(1121.23) rotate(-180) scale(1 -1)" gradientUnits="userSpaceOnUse">
      <stop offset="0" stop-color="#6a6cb2"/>
      <stop offset=".96" stop-color="#d9dff1"/>
    </linearGradient>
    <linearGradient id="linear-gradient-2" x1="1434.05" y1="208.56" x2="1464.98" y2="208.56" gradientTransform="translate(-1337.12 -69.21)" xlink:href="#linear-gradient"/>
    <linearGradient id="linear-gradient-3" x1="1053.14" y1="133" x2="1184.83" y2="133" gradientTransform="translate(1231.38) rotate(-180) scale(1 -1)" xlink:href="#linear-gradient"/>
  </defs>
  <g class="cls-19">
    <g id="Layer_2" data-name="Layer 2">
      <g id="Layer_1-2" data-name="Layer 1">
        <g>
          <path class="cls-7" d="M202.14,94.56c-.2-.26-1.43-.53-2.83-.55-.31-1.17-.79-2.27-1.4-3.27,.9-.83,1.76-1.8,1.66-2.4-.2-1.21-2.83-3.28-3.35-3.35-.33-.04-1.42,.66-2.44,1.66-1-.6-2.09-1.06-3.25-1.36,.05-1.23-.03-2.53-.52-2.88-1-.72-4.32-.32-4.74,0-.26,.2-.53,1.42-.55,2.81-1.2,.27-2.33,.72-3.36,1.32-.81-.86-1.73-1.66-2.31-1.57-1.21,.2-3.28,2.83-3.35,3.35-.04,.31,.57,1.27,1.46,2.23-.68,1.05-1.2,2.22-1.52,3.46-1.11-.02-2.2,.09-2.52,.53-.72,1-.32,4.32,0,4.74,.18,.23,1.18,.47,2.4,.54,.29,1.31,.78,2.54,1.45,3.65-.75,.74-1.37,1.52-1.28,2.04,.2,1.21,2.83,3.28,3.35,3.35,.28,.04,1.13-.48,2.01-1.26,1.12,.69,2.35,1.2,3.67,1.51,0,1.05,.11,2.04,.53,2.34,1,.72,4.32,.32,4.74,0,.23-.18,.47-1.19,.54-2.41,1.27-.33,2.47-.86,3.55-1.55,.77,.79,1.6,1.47,2.14,1.38,1.21-.2,3.28-2.83,3.35-3.35,.04-.31-.57-1.28-1.47-2.24,.61-1.06,1.07-2.22,1.34-3.45,1.17,.03,2.37-.06,2.71-.53,.72-1,.32-4.32,0-4.74Zm-14.67,8.08c-3.03,0-5.48-2.45-5.48-5.48s2.45-5.48,5.48-5.48,5.48,2.45,5.48,5.48-2.45,5.48-5.48,5.48Z"/>
          <circle class="cls-13" cx="187.39" cy="97.16" r="8.23"/>
          <path class="cls-3" d="M127.72,153.09v-15.64h-30.67v15.64c-2.89,1.86-6.32,2.94-10.01,2.94,0,.7,.57,1.26,1.26,1.26h48.17c.7,0,1.26-.57,1.26-1.26-3.69,0-7.12-1.09-10.01-2.94Z"/>
          <path class="cls-6" d="M97.05,153.09v-15.64h30.67v15.64c2.89,1.86,6.32,2.94,10.01,2.94,0,.7-.57,1.26-1.26,1.26h-48.17c-.7,0-1.26-.57-1.26-1.26,3.69,0,7.12-1.09,10.01-2.94Z"/>
          <g class="cls-5">
            <rect class="cls-2" x="96.92" y="136.75" width="30.93" height="5.2"/>
          </g>
          <path class="cls-7" d="M178.25,128.73V59.33c0-4.18-3.39-7.58-7.58-7.58H54.13c-4.18,0-7.58,3.39-7.58,7.58v69.39H178.25Z"/>
          <path class="cls-3" d="M178.25,128.73v.97c0,4.18-3.39,7.58-7.58,7.58H54.13c-4.18,0-7.58-3.39-7.58-7.58v-.97H178.25Z"/>
          <g class="cls-5">
            <path class="cls-41" d="M46.55,128.73v.97c0,4.18,3.39,7.58,7.58,7.58h116.54c4.18,0,7.58-3.39,7.58-7.58v-.97H46.55Z"/>
          </g>
          <rect class="cls-28" x="51.56" y="57.58" width="121.67" height="65.32" rx="2.02" ry="2.02"/>
          <path class="cls-3" d="M137.04,158.46h-48.35c-.88,0-1.59-.71-1.59-1.59h0c0-.88,.71-1.59,1.59-1.59h48.35c.88,0,1.59,.71,1.59,1.59h0c0,.88-.71,1.59-1.59,1.59Z"/>
          <path class="cls-43" d="M66.55,184.78H8.45c-.75,0-1.36-.61-1.36-1.36h0c0-.75,.61-1.36,1.36-1.36h58.1c.75,0,1.36,.61,1.36,1.36h0c0,.75-.61,1.36-1.36,1.36Z"/>
          <polygon class="cls-7" points="29.3 33.84 35.36 4.49 36.32 4.62 37.28 4.49 44.7 40.42 43.1 40.63 36.32 7.8 30.9 34.04 29.3 33.84"/>
          <rect class="cls-38" x="1.41" y="27.88" width="19.98" height="4.45" transform="translate(22.8 60.2) rotate(180)"/>
          <rect class="cls-38" x="68.31" y="18.93" width="1.25" height="8.76"/>
          <g>
            <polygon class="cls-36" points="117.33 19.98 116.45 19.1 110.44 25.11 110.44 20.06 110.52 19.98 110.44 19.9 110.44 18.93 109.19 18.93 109.19 19.55 103.62 25.11 103.62 20.06 103.71 19.98 103.62 19.9 103.62 18.93 102.38 18.93 102.38 19.55 96.81 25.11 96.81 20.06 96.89 19.98 96.81 19.9 96.81 18.93 95.56 18.93 95.56 19.55 90 25.11 90 20.06 90.08 19.98 90 19.9 90 18.93 88.75 18.93 88.75 19.55 83.18 25.11 83.18 20.06 83.26 19.98 83.18 19.9 83.18 18.93 81.93 18.93 81.93 19.55 76.37 25.11 76.37 20.06 76.45 19.98 76.37 19.9 76.37 18.93 75.12 18.93 75.12 19.55 68.65 26.02 69.53 26.9 75.12 21.31 75.12 27.69 76.37 27.69 76.37 26.88 81.93 21.31 81.93 27.69 83.18 27.69 83.18 26.88 88.75 21.31 88.75 27.69 90 27.69 90 26.88 95.56 21.31 95.56 27.69 96.81 27.69 96.81 26.88 102.38 21.31 102.38 27.69 103.62 27.69 103.62 26.88 109.19 21.31 109.19 27.69 110.44 27.69 110.44 26.88 117.33 19.98"/>
            <polygon class="cls-36" points="69.64 19.98 68.76 19.1 62.74 25.11 62.74 20.06 62.82 19.98 62.74 19.9 62.74 18.93 61.49 18.93 61.49 19.55 55.93 25.11 55.93 18.93 54.68 18.93 54.68 27.69 55.93 27.69 55.93 26.88 61.49 21.31 61.49 27.69 62.74 27.69 62.74 26.88 69.64 19.98"/>
          </g>
          <polygon class="cls-36" points="40.7 48.86 40.7 47.62 33.07 47.62 32.99 47.53 32.91 47.62 31.94 47.62 31.94 48.86 32.56 48.86 38.12 54.43 33.07 54.43 32.99 54.35 32.91 54.43 31.94 54.43 31.94 55.68 32.56 55.68 38.12 61.25 33.07 61.25 32.99 61.16 32.91 61.25 31.94 61.25 31.94 62.49 32.56 62.49 37.75 67.69 33.07 67.69 32.99 67.6 32.91 67.69 31.94 67.69 31.94 68.93 32.56 68.93 38.12 74.5 33.07 74.5 32.99 74.42 32.91 74.5 31.94 74.5 31.94 75.75 32.56 75.75 38.12 81.31 33.07 81.31 32.99 81.23 32.91 81.31 31.94 81.31 31.94 82.56 32.56 82.56 38.12 88.13 33.07 88.13 32.99 88.04 32.91 88.13 31.94 88.13 31.94 89.37 32.56 89.37 38.12 94.94 33.07 94.94 32.99 94.86 32.91 94.94 31.94 94.94 31.94 96.19 32.56 96.19 38.12 101.76 31.94 101.76 31.94 102.69 31.79 102.84 31.94 102.99 31.94 103 31.96 103 37.81 108.85 32.76 108.85 32.68 108.77 32.59 108.85 31.63 108.85 31.63 110.1 32.24 110.1 37.81 115.67 32.76 115.67 32.68 115.59 32.59 115.67 31.63 115.67 31.63 116.92 32.24 116.92 37.81 122.48 32.76 122.48 32.68 122.4 32.59 122.48 31.63 122.48 31.63 123.73 32.24 123.73 37.81 129.3 32.76 129.3 32.68 129.21 32.59 129.3 31.63 129.3 31.63 130.54 32.24 130.54 37.81 136.11 32.76 136.11 32.68 136.03 32.59 136.11 31.63 136.11 31.63 137.36 32.24 137.36 37.81 142.92 32.76 142.92 32.68 142.84 32.59 142.92 31.63 142.92 31.63 144.17 32.24 144.17 37.81 149.74 32.76 149.74 32.68 149.65 32.59 149.74 31.63 149.74 31.63 150.98 32.24 150.98 37.81 156.55 32.76 156.55 32.68 156.47 32.59 156.55 31.63 156.55 31.63 157.8 32.24 157.8 37.81 163.37 31.63 163.37 31.63 164.61 40.39 164.61 40.39 163.37 39.57 163.37 34.01 157.8 40.39 157.8 40.39 156.55 39.57 156.55 34.01 150.98 40.39 150.98 40.39 149.74 39.57 149.74 34.01 144.17 40.39 144.17 40.39 142.92 39.57 142.92 34.01 137.36 40.39 137.36 40.39 136.11 39.57 136.11 34.01 130.54 40.39 130.54 40.39 129.3 39.57 129.3 34.01 123.73 40.39 123.73 40.39 122.48 39.57 122.48 34.01 116.92 40.39 116.92 40.39 115.67 39.57 115.67 34.01 110.1 40.39 110.1 40.39 108.85 39.57 108.85 33.72 103 40.7 103 40.7 101.76 39.89 101.76 34.32 96.19 40.7 96.19 40.7 94.94 39.88 94.94 34.32 89.37 40.7 89.37 40.7 88.13 39.88 88.13 34.32 82.56 40.7 82.56 40.7 81.31 39.89 81.31 34.32 75.75 40.7 75.75 40.7 74.5 39.89 74.5 34.32 68.93 39 68.93 39.03 68.97 39.06 68.93 40.7 68.93 40.7 67.69 39.51 67.69 34.32 62.49 40.7 62.49 40.7 61.25 39.89 61.25 34.32 55.68 40.7 55.68 40.7 54.43 39.89 54.43 34.32 48.86 40.7 48.86"/>
          <rect class="cls-38" x="57.63" y="-13.02" width=".78" height="46.11" transform="translate(26.46 59.75) rotate(-67.41)"/>
          <polygon class="cls-38" points="98.66 19.43 98.47 19.38 37.97 2.21 38.18 1.46 38.38 1.51 98.88 18.69 98.66 19.43"/>
          <polygon class="cls-38" points="14.56 18.46 14.19 17.95 14.35 17.83 36.88 1.43 37.24 1.94 37.08 2.06 14.56 18.46"/>
          <polygon class="cls-38" points="5.71 19.84 5.41 19.28 36.21 1.99 36.52 2.54 5.71 19.84"/>
          <path class="cls-7" d="M34.12,2.35c0,1.3,1.05,2.35,2.35,2.35s2.35-1.05,2.35-2.35-1.05-2.35-2.35-2.35-2.35,1.05-2.35,2.35Z"/>
          <rect class="cls-38" x="3.87" y="17.24" width="17.51" height="8.9" transform="translate(25.26 43.38) rotate(180)"/>
          <rect class="cls-7" x="39.43" y="40.65" width="1.62" height="139.35" transform="translate(80.47 220.66) rotate(180)"/>
          <rect class="cls-7" x="31.6" y="40.76" width="1.62" height="139.35" transform="translate(64.82 220.87) rotate(180)"/>
          <rect class="cls-38" x="21.09" y="173.09" width="30.46" height="8.18"/>
          <rect class="cls-22" x="21.09" y="174.43" width="30.46" height="1.94"/>
          <rect class="cls-22" x="21.09" y="177.61" width="30.46" height="1.94"/>
          <polygon class="cls-7" points="27.57 43.54 42.83 43.54 45.08 40.89 39.32 31.86 27.57 31.86 27.57 43.54"/>
          <polygon class="cls-36" points="33.07 33.86 38.27 33.86 41.36 38.65 33.07 38.65 33.07 33.86"/>
          <path class="cls-7" d="M0,26.14v1.62H142.77s.02,0,.02,0l.36-1.21-.38-.11-1-.29-25.08-7.41h0s0,0,0,0H54.88s-11.55,7.4-11.55,7.4H0Zm137.3,0H45.68l9.53-6.11h61.41l20.68,6.11Z"/>
          <g>
            <rect class="cls-30" x="16.46" y="21.27" width=".81" height="4.87"/>
            <rect class="cls-30" x="12.23" y="21.27" width=".81" height="4.87"/>
            <rect class="cls-30" x="8" y="21.27" width=".81" height="4.87"/>
            <rect class="cls-30" x="18.17" y="28.18" width=".81" height="2.22"/>
            <rect class="cls-30" x="14.75" y="28.18" width=".81" height="2.22"/>
            <rect class="cls-30" x="11.33" y="28.18" width=".81" height="2.22"/>
            <rect class="cls-30" x="7.9" y="28.18" width=".81" height="2.22"/>
            <rect class="cls-30" x="4.48" y="28.18" width=".81" height="2.22"/>
          </g>
          <rect class="cls-38" x="27.63" y="43.54" width="15.2" height="2" transform="translate(70.46 89.07) rotate(180)"/>
          <path class="cls-29" d="M36.47,3c-.41,0-.74-.33-.74-.74s.33-.74,.74-.74,.74,.33,.74,.74-.33,.74-.74,.74Zm0-1.07c-.18,0-.33,.15-.33,.33s.15,.33,.33,.33,.33-.15,.33-.33-.15-.33-.33-.33Z"/>
          <line class="cls-12" x1="142.83" y1="26.33" x2="142.83" y2="55.16"/>
          <path class="cls-43" d="M142.72,175.13h-58.1c-.75,0-1.36-.61-1.36-1.36h0c0-.75,.61-1.36,1.36-1.36h58.1c.75,0,1.36,.61,1.36,1.36h0c0,.75-.61,1.36-1.36,1.36Z"/>
          <g>
            <path class="cls-33" d="M120.1,128.95c-1.69-.14-5.36-2.3-5.36-2.3,.02,.02-2.5-2.15-1.4-3.72,.92-1.31,2.24-.64,3.33,.21,.86,.67,3.33,2.55,3.33,2.55l2.84,.18,1.15,2.46c-1.21,.54-3.07,.69-3.88,.62Z"/>
            <path class="cls-8" d="M122.03,126.04s5.23-.44,5.79-.34c.35,.06,1.06,.75,1.06,.75,0,0-2,1.5-4.64,1.98-1.17,.21-2.2-2.39-2.2-2.39Z"/>
            <path class="cls-34" d="M121.88,125.86c-.6,1.07,.16,2.32,.68,3.01,.15,.21,.45,.21,1.5-.06,.42-.11,0-.27-.3-.56-1.09-1.03-.41-2.15-.29-2.32,.19-.28-1.28-.61-1.59-.07Z"/>
            <path class="cls-8" d="M127.3,126.78l-.11-.88,.49-.56c.19-.22,.43-.37,.7-.44l.49-.12s-.03,.03,.21-.26c.09-.11,.14-.22,.14-.22,0,0,1.27-.56,1.29,.14,0,.23-.25,.54-.25,.54,.05,.29,.07,.79,.1,1.12,.07,.76-.73,.82-.73,.82l-.9,.25c-.51,.14-1.19-.06-1.42-.39Z"/>
          </g>
          <g>
            <g>
              <polygon class="cls-7" points="116.09 171.16 117.61 171.28 117.86 167.84 116.08 167.69 116.09 171.16"/>
              <path class="cls-7" d="M115.84,172.15l1.52,.13,.66,.06,3.84,.33s-.01-.69-2.58-1.01c-.66-.08-1.05-1.1-1.05-1.1,0,0-.31-.35-.86,.36-.14,.19-1.51-.31-1.51-.31,0,0-.21,.99-.02,1.55Z"/>
            </g>
            <path class="cls-7" d="M115.42,137.69l5.03,16.19c.27,1.07-.34,2.17-1.37,2.46l-2.67-.27s-3.12-5.95-5.08-10.58c-2.47-5.81,4.09-7.8,4.09-7.8Z"/>
            <path class="cls-7" d="M113.7,138.93l-1.85,16.27c-.05,1.11-.95,1.97-2.01,1.92l-2.47-1.1s-.71-5.88-.83-10.94c-.22-9.36,7.15-6.14,7.15-6.14Z"/>
            <path class="cls-7" d="M115.8,169.23c.05-3.32-1.09-10.18-.72-12.24,.69-3.81,2.1-4.88,2.1-4.88l3.33,2.38-2.54,15.21-2.17-.48Z"/>
            <g>
              <polygon class="cls-7" points="107.52 171.3 108.91 171.32 108.93 168.25 107.29 168.23 107.52 171.3"/>
              <path class="cls-7" d="M107.34,172.2h1.4s.61,.02,.61,.02l3.54,.04s-.05-.61-2.43-.73c-.61-.03-1.03-.91-1.03-.91,0,0-.3-.29-.77,.37-.12,.17-1.4-.17-1.4-.17,0,0-.13,.89,.08,1.37Z"/>
            </g>
            <path class="cls-7" d="M107.21,169.36c.04-3.32-1.13-10.17-.77-12.23,.67-3.81,2.09-4.89,2.09-4.89l3.32,2.96-2.47,14.63-2.17-.47Z"/>
          </g>
          <path class="cls-15" d="M105.18,126.71c-.26-1.59,.45-3.19,1.78-4,.45-.27,.94-.49,1.43-.58,.79-.13,5.06-.96,5.06-.96,0,0,1.76,.91,2.26,2.81,.05,.19,.74,2.75,0,12.62-.07,.96-1.33,1.81-3.47,1.64-1.77-.14-3.28,0-3.28,0,0,0-1.26,2.02-1.16,1.4,.25-1.6,.21-4.81-.74-5.81-.74-.77-1.48-4.64-1.89-7.13Z"/>
          <path class="cls-7" d="M113.49,121.11c-.28-.17-.83,.07-.93,.21,.48,.09,2.85,1.95,2.78,5.85-.49,.67-3.38,1.13-4.25,.83-.11-1.29-.63-3.22-1.21-4.26-.84-1.53-1.46-1.67-1.46-1.67,0,0-1.1-.02-1.24,.41,0,0,.72-.18,1.56,1.17,.71,1.15,1.53,3.91,.91,4.27-2.22,1.29-4.35-.4-4.35-.4l2.5,12.92c.02,.69,2.7-.47,4.58-.4,1.49,.06,2.98-1.41,3.05-1.76,.26-1.29,1.1-9.17,.99-11.42-.12-2.48-1.38-4.81-2.94-5.75Z"/>
          <path class="cls-44" d="M111.11,127.67c.05,.48,.03,.84,.03,1.26,0,.31-1.4,.45-1.43,.13-.03-.3-.09-.68-.07-1.29,0-.16,.12-.04,.68-.13,.6-.1,.77-.17,.79,.04Z"/>
          <g>
            <g>
              <path class="cls-26" d="M111.56,114s3.41,4.05,2.83,5.27c-.03,.05-.67,.59-.8,1.18-.12,.56,.11,.92,.09,1.15,0,.07-.04,.2-.04,.35,.03,.66-.6,.85-.86,.75-.31-.11-1.18-.13-1.41-.29-.15-.11-.31-.14-.32-.42-.03-.59-.23-1.6-.48-1.9-.73-.9-2.94-1.92-2.08-4.2,.25-.66,2.76-2.1,3.07-1.9Z"/>
              <path class="cls-27" d="M114.36,119.2s-.18,.02-.53,.04c-.12,0-.45,.02-.61,.08-.69,.24-.64,.29-1.08,.35-.51,.07-1.61,0-1.61,0,0,0,.53,.28,.74,.39,.39,.21,.75,.19,1.04,.12,1.25-.3,1.24-.18,1.38-.27,0,0,.05-.1,.66-.7Z"/>
              <path class="cls-14" d="M108.3,115.76c.32-1.14,1.87-2.42,3.53-2.36,.22,0,.41,.14,.48,.36,.11,.33,.18,.79-.3,.82,0,0-1.19-.37-2.12,.51-.97,.92-.07,1,.18,1.38,.47,.72,.04,1.44,.04,1.44l-.26,.24s-.6-.55-.61-.25c0,.37,.41,.8,.46,.87,.05,.07,.44,.58,.81,1.28-.13,.1-.42,.03-.78-.32-.8-.78-1.85-2.49-1.44-3.98Z"/>
              <path class="cls-26" d="M109.28,117.82c-.24,.17-.31,.51-.15,.77,.16,.26,.49,.33,.73,.16"/>
            </g>
            <g>
              <path class="cls-25" d="M111.93,112.97c-1.39-1.23-2.83-.74-3.63,.08-.7,.72-1.11,2.11-.53,3.52,0,0,1.24-2.37,2.38-2.74,.47-.15,1.78-.87,1.78-.87Z"/>
              <path class="cls-31" d="M113.09,112.71c-.61-.79-2.44,.17-3.25,.69-1.97,1.28-2.86,3.48-1.52,3.88-.13-.24-.25-1.36,.16-1.8,.36-.39,.75-.79,1.19-1.11,.93-.67,2.46-.73,2.4,.26,0,0,1.79-.93,1.02-1.92Z"/>
            </g>
          </g>
          <g>
            <path class="cls-37" d="M110.91,129.24l-.83,.03c-.26,0-.47-.2-.48-.47l-.03-.87c0-.27,.19-.49,.45-.5l.83-.03c.26,0,.47,.2,.48,.47l.03,.87c0,.27-.19,.49-.45,.5Z"/>
            <path class="cls-3" d="M110.79,128.99l-.6,.02c-.18,0-.34-.14-.34-.34l-.02-.63c0-.19,.14-.35,.32-.36l.6-.02c.18,0,.34,.14,.34,.34l.02,.63c0,.19-.14,.35-.32,.36Z"/>
          </g>
          <g>
            <path class="cls-37" d="M116.11,128.44l-.64,.11c-.23,.04-.46-.13-.49-.37l-.14-.93c-.04-.25,.12-.48,.36-.52l.64-.11c.23-.04,.46,.13,.49,.37l.14,.93c.04,.25-.12,.48-.36,.52Z"/>
            <path class="cls-3" d="M115.98,128.2l-.46,.08c-.17,.03-.33-.09-.35-.27l-.1-.67c-.03-.18,.09-.34,.26-.37l.46-.08c.17-.03,.33,.09,.35,.27l.1,.67c.03,.18-.09,.34-.26,.37Z"/>
          </g>
          <polygon class="cls-39" points="112.97 117.46 113.58 117.43 113.41 116.99 112.97 117.46"/>
          <polygon class="cls-9" points="113.41 116.99 112.8 116.12 112.97 117.46 113.41 116.99"/>
          <path class="cls-7" d="M116.95,142.62c-.6-2.4-.96-3.11-1.76-5.31-.36,.8-1.82,1.93-2.59,2.29-.97,.45-1.9,1.01-2.76,1.66-.01,.85-.28,1.66-.45,2.49-.17,.84-.24,1.69-.21,2.55,0,.26,.03,.54,.16,.76,.31,.51,1.02,.51,1.49,.87,0,0,4.96-4.48,6.12-5.31Z"/>
          <g>
            <g>
              <path class="cls-8" d="M116.79,109.3l-.74-.64v-1.34s.62-.89,.62-.89c0,0,0,.05-.01-.37,0-.17-.04-.29-.04-.29,0,0,.68-1.44,1.22-.89,.17,.18,.18,.64,.18,.64,.25,.2,.64,.6,.91,.85,.62,.57-.03,1.24-.03,1.24l-.59,.9c-.33,.51-1.07,.87-1.52,.78Z"/>
              <polygon class="cls-8" points="116.11 112.01 117.82 108.73 115.83 108.17 114.6 111.05 116.11 112.01"/>
            </g>
            <path class="cls-20" d="M111.59,122.48l-1.29-.76-1.58-1.82c-1.37,1.93-3.06,3.99-3.06,3.99-1.61,2.18-.16,4.17,.87,4.32,.7,.1,1.54-.77,1.54-.77,0,0,1.58-2.09,3.52-4.96Z"/>
            <path class="cls-8" d="M117.11,109.44c-1.55,3.9-1.65,5.64-2.91,8.03-1,1.85-2.35,3.48-3.35,5.25l-2.09-1.62c.92-1.93,2.17-3.92,3.36-5.72,.62-.96,2.91-5.11,3.36-6.29l1.63,.35Z"/>
            <path class="cls-34" d="M111.3,123.26c-.37,.04-1.44-.72-1.78-1-.41-.34-1-1.12-1.43-1.45-.2-.16-.55-.19,0-1.17,.22-.39,.58-.47,.91-.19,.86,.76,1.69,1.65,2.61,2.33,.27,.2,.05,1.42-.31,1.47Z"/>
            <path class="cls-8" d="M116.53,108.22c.31-.45-.01-1.15-.36-1.42-.12-.1,1.1-.69,.58-1.05,0,0-.62-.08-1.2,.17-.05,.02-.47,.21-.36,.92,.19,1.28,.01,1.5,.36,1.77,.35,.27,.68,.05,.99-.4Z"/>
          </g>
          <g>
            <path class="cls-32" d="M158.78,23.99c-.86,1.39-.53,3.18-.67,4.82-.07,.79-.26,1.57-.57,2.31-.03,.06-.05,.13-.03,.2,.03,.07,.12,.1,.19,.11,.52,.09,1.04-.17,1.48-.45,.95-.61,1.81-1.36,2.52-2.23,.56-.69,1.05-1.47,1.2-2.35,.15-.88-.11-1.86-.81-2.41-.55-.44-1.33-.55-2-.35-.68,.2-1.25,.69-1.6,1.3"/>
            <path class="cls-32" d="M165.79,27.46c1.09,3.48,.77,7.53-1.45,10.42-2.22,2.89-6.53,4.2-9.74,2.47-.89-.48-1.74-1.3-1.73-2.32,0-.65,.36-1.26,.82-1.71,.73-.72,1.74-1.16,2.76-1.18-1.56-1.05-1.77-3.61-.4-4.9,.85-.8,2.05-1.06,3.15-1.43,1.21-.4,2.4-.98,3.27-1.91,.75-.8,1.05-1.77,1.24-2.81,1.1,.34,1.77,2.33,2.1,3.38Z"/>
            <path class="cls-45" d="M152.49,49.84c-.32-.37-.5-.84-.74-1.25-.19-.8-.18-1.33,.04-1.52,.86-.71,3.81,.77,11.23,11.9,1.62,2.42,4.81,7.05,4.13,6.54-.76-.57-1.37-1.25-2.08-1.99-10.14-10.51-11.07-11.93-12.58-13.68Z"/>
            <path class="cls-35" d="M162.73,40.67c0,.05,.27,.08,.59,.06l3.63-.23c.32-.02,.58-.08,.58-.14v-.21c-.02-.05-.28-.08-.6-.06l-3.63,.23c-.32,.02-.58,.08-.58,.14v.21Z"/>
            <g>
              <path class="cls-23" d="M155.41,50.66c-.24-.41-.3-.9-.45-1.35-.01-.8,.14-1.26,.37-1.45,1.03-.87,3.16,.88,6.46,8.29,1.66,3.74,2.98,7.2,5.33,9.25,.34,.3,.43,.34,.54,.68,.32,1.05,.12,2.33,.08,2.29-1.44-1.41-7.74-9.89-12.33-17.71Z"/>
              <path class="cls-24" d="M168.46,67.63l-1.07-2.24c-.1-.22-.3-.35-.49-.36l.82,1.73c.16,.33,.06,.75-.21,.92-.09,.06-.2,.08-.3,.08l.24,.52c.16,.33,.51,.46,.79,.29,.28-.18,.37-.59,.22-.92Z"/>
            </g>
            <g>
              <path class="cls-16" d="M161.81,30.13c-.43-.06-1.93,1.21-2.08,2.06-.71,4.12-.18,8.02-.18,8.02,0,0,.1,1.34,.82,1.05,.73-.3,1.57-3.18,2.18-9.04,.18-1.69-.02-1.97-.75-2.08Z"/>
              <path class="cls-18" d="M157.02,42.24c1.24-.36,2.77-.93,3.74-1.69-.06-.42-.11-.57-.9-.78l-2.32,1.42c-1.11,.61-2.59,1.57-2.9,1.8-.16,.12-.56,.77-.93,1.51-.25,.17-.5,.41-.61,.53-.17,.18-.86,1.15-.86,1.15,0,0,.43-.11,.7-.51,.11-.16,.27-.32,.43-.48-.01,.02-.02,.05-.03,.07-.36,.86-.44,1.24-.44,1.24,0,0,.36-.13,.54-.7,.11-.35,.24-.64,.41-.86-.15,.41-.34,1-.34,1,0,0,.37-.24,.52-.69,.08-.24,.2-.48,.32-.69,.05-.02,.1-.04,.14-.06,.17,.37,.36,.82,.82,.82,0,0-.22-.27-.33-.83-.04-.19,.4-.6,.43-.91,.01-.1,0-.17-.04-.22,.09-.12,.19-.24,.32-.36,.26-.26,.75-.51,1.32-.76Z"/>
              <path class="cls-16" d="M157.72,42.61c-.09-.51-.46-.99-.68-1.31,1.02-.76,1.98-1.27,3.1-1.94,.42-.25,.94,.17,.88,.59-.11,.79-.25,1.12-1.1,1.61-.78,.45-1.58,.8-2.2,1.05Z"/>
            </g>
            <path class="cls-21" d="M152.79,46.67c-.3,.02-.62,.04-.88,.2-.38,.24-.53,.75-.47,1.2,.06,.45,.29,.86,.52,1.25,2.72,4.61,6.22,8.75,10.31,12.2,.42,.35,.94,.72,1.46,.57-1.21-2.48-2.03-5.14-3.21-7.63-1.17-2.5-2.77-4.91-5.1-6.38,2.61,.26,5.24,.32,7.86,.17,.64-.04,1.35-.12,1.76-.61,.08-.1,.15-.21,.14-.34,0-.1-.07-.19-.13-.27-1.23-1.62-3.68-.86-5.4-.76-2.29,.14-4.58,.27-6.86,.41Z"/>
            <path class="cls-32" d="M158.37,26.51c.39,1.81,2.08,2.98,3.78,2.61,1.69-.37,2.75-2.13,2.36-3.94-.39-1.81-2.08-2.98-3.78-2.61-1.69,.37-2.75,2.13-2.36,3.94Z"/>
            <path class="cls-18" d="M166.53,30.29s-.84,3.14-2.46,3.9c-1.62,.76-2.51,.57-2.9-.06-.39-.63-.75-1.95-.43-2.38,.32-.43,.62-.85,.83-1.56,.17-.58-.12-1.5-.47-2.19-.35-.69-.95-.61-.44-1.08,.51-.47,.19-.76,.8-.78,.61-.03,.9-.32,1.02,.24,.22,1.02,.45,2.48,1.16,3.01,.79,.59,1.46,.68,2.9,.9Z"/>
            <path class="cls-23" d="M159.87,24.15s.1-.05,.14-.07c.24,.58,.87,1.19,1.73,1.59,.21,.1,.42,.17,.63,.23l.12,.56c.18,.84-.38,1.67-1.25,1.86-.87,.19-1.73-.34-1.91-1.17l-.28-1.27c.37-.38,.67-1,.82-1.73Z"/>
            <path class="cls-35" d="M162.57,41.22c0,.06,.3,.09,.65,.07l4.05-.25c.36-.02,.64-.09,.64-.15v-.23c-.02-.06-.31-.09-.67-.07l-4.04,.25c-.36,.02-.64,.09-.64,.15v.23Z"/>
            <path class="cls-40" d="M159.98,35.51c-.1-1.91,.38-2.78,.76-3.76,.1-.26,.61-1.02,.7-1.23-.62,3.83,2.96,1.37,3.98-.5,1.97-.09,2.2,1.81,2.21,1.94,.05,1.33-.5,6.41-.5,6.41,.02,.53,1.1,2.34,.73,2.36l-5.32,.29c-.36,.03-.84-1.06-.86-1.59l-.55-2.6s0-.09,0-.14c-.39-.46-1.11-.54-1.14-1.17Z"/>
            <g>
              <path class="cls-17" d="M160.3,31.13c.11-.2,.96-.79,1.14-.89-.35,.23-1.19,1.7-.65,4.4,.42,.41,2.49,.37,3.06,.05-.08-.91,.04-2.31,.31-3.11,.4-1.16,.69-1.61,.69-1.61,0,0,1.21-.05,1.36,.23,0,0-.86,.15-1.27,1.19-.35,.89-.58,2.9-.1,3.08,1.7,.62,2.74-.63,2.74-.63l.68,7.49c.07,.48-2.53,1.6-3.82,1.89-1.03,.23-2.29-.6-2.33-.84-.68-3.6-1.76-3.91-1.99-4.82-.27-1.09-.05-2.44-.11-2.98-.22-1.74-.2-2.46,.3-3.43Z"/>
              <g>
                <path class="cls-37" d="M164.01,35.31l.58-.08c.18-.03,.3-.2,.27-.38l-.09-.61c-.03-.19-.19-.32-.37-.29l-.58,.08c-.18,.03-.3,.2-.27,.38l.09,.61c.03,.19,.19,.32,.37,.29Z"/>
                <path class="cls-3" d="M164.07,35.11l.42-.06c.13-.02,.22-.14,.2-.28l-.06-.44c-.02-.13-.14-.23-.27-.21l-.42,.06c-.13,.02-.22,.14-.2,.28l.06,.44c.02,.13,.14,.23,.27,.21Z"/>
              </g>
              <g>
                <path class="cls-37" d="M160.08,35.39h.46c.17,0,.3-.15,.3-.33l-.02-.66c0-.18-.14-.32-.31-.31h-.46c-.17,0-.3,.15-.3,.33l.02,.66c0,.18,.14,.32,.31,.31Z"/>
                <path class="cls-3" d="M160.14,35.21h.33c.12,0,.22-.11,.21-.23v-.48c-.01-.13-.12-.23-.24-.23h-.33c-.12,0-.22,.11-.21,.23v.48c.01,.13,.12,.23,.24,.23Z"/>
              </g>
            </g>
            <path class="cls-1" d="M157.67,46.05c0,.24-.12,.44-.26,.44h-5.27c-.14,0-.34-.16-.51-.77l-2.6-7.08c0-.31,.16-.49,.3-.44l5.34,.06c.14,.05,.26,.21,.34,.54l2.66,7.26Z"/>
            <path class="cls-1" d="M151.91,45.4h9.31c.25,0,.45,.2,.45,.45h0c0,.25-.2,.45-.45,.45h-9.31"/>
            <path class="cls-17" d="M170.84,47.74c.13,.62,.22,1.27,.05,1.88-.29,1.07-1.33,1.8-2.41,2.06-1.08,.26-2.2,.14-3.31,.05-1.71-.14-3.43-.2-5.14-.19-.91,0-1.85,.03-2.7-.31-.78-.32-1.41-.92-1.93-1.58-.24-.3-.46-.65-.49-1.03-.04-.57,.38-1.1,.89-1.36,.51-.26,1.1-.31,1.68-.36q2.55-.21,5.11-.42c-.64-.14-.4-4.51-.04-5.47,0,0,1.33,.08,2.31-.23,.74-.24,1.97-.42,2.71-.09,.66,.29,1.04,1.26,1.38,1.88,.88,1.62,1.52,3.38,1.89,5.19Z"/>
            <g>
              <path class="cls-20" d="M166.4,30.22c-.4-.18-1.09-.25-1.27,.62-.79,3.83-1.25,11.4-1.25,11.4,0,0,.35,.36,1.11,.17,1.29-.33,1.3-3.03,2.43-9.24,.33-1.79-.34-2.63-1.02-2.94Z"/>
              <path class="cls-23" d="M160.57,43.6s-1.9,1.61-2.06,1.67c-.16,.06-.28,0-.67-.03-.39-.02-.46,0-.77,0-.31,0-.34,.01-.34,.01,0,0,.02,.17,.14,.2,.11,.02,.37,.02,.46,.04,.09,.03-.22,0-.67,.11-.44,.1-.87,.26-1.05,.34-.11,.05-.13,.06-.13,.07,0,.05,.02,.1,.08,.11,.05,0,.22-.03,.21-.03-.03,.04-.29,.17-.34,.18-.05,.02-.11,.04-.15,.06-.08,.04-.03,.14,.12,.16,0,0,.05,.07,.09,.07,.02,0,.04,0,.06,.01,.03,0,.06,0,.08,0,.1,0,.2,0,.29,0,.04,0,.37-.08,.37-.06,0,0-.26,.1-.25,.12,.02,.04,.08,.09,.12,.08,.08-.02,.21-.05,.56-.14,.38-.1,.46-.16,.97-.17,.44,0,.57-.1,.82-.33,.85-.78,2.72-1.48,2.97-1.7,.25-.22-.95-.78-.95-.78Z"/>
              <path class="cls-20" d="M160.97,45.18c-.45-.25-.47-.83-.75-1.46,1.31-1,2.26-1.96,3.72-2.89,.54-.35,1.74,.02,1.89,.42,.27,.68-1.96,2.19-3.09,2.85-.65,.38-1.3,.94-1.78,1.09Z"/>
            </g>
            <path class="cls-17" d="M154.82,48.47c-.08,.36-.02,.74,.07,1.1,.43,1.81,1.5,3.38,2.56,4.91,2.07,2.99,4.14,5.99,6.51,8.75,.1,.12,.21,.24,.34,.32,.41,.25,.93,.07,1.37-.11-.86-3.07-1.88-5.45-3.28-8.31-.89-1.83-1.85-4.27-3.26-5.75-.86-.9-3.73-3.67-4.3-.91Z"/>
            <path class="cls-42" d="M163.92,23.5h-.02s-.26-.81-.26-.81c-.49-1.54-2.14-2.39-3.68-1.89h0c-1.46,.47-2.29,1.97-1.96,3.43,.04,.18,.02,.36-.05,.53l-.17,.4c-.1,.23-.3,.41-.54,.49h0c-.21,.07-.35,.27-.32,.48,.04,.27,.31,.43,.56,.35l7.08-2.27-.15-.46c-.06-.2-.28-.31-.48-.25Z"/>
          </g>
          <g>
            <path class="cls-3" d="M91.07,83.83c3.76,.7,5.91,4.4,5.56,7.45-.48,4.21-3.3,6.8-7.38,6.86-1.26,.02-2.51,0-3.77,0-.03-1.4,.22-2.45,.94-4,1.07-.23,2.1-.73,3.3-.81,1.32-.08,2.13-1.18,2.13-2.45,0-1.31-.94-2.43-2.28-2.56-.87-.09-1.76-.02-2.84-.02-1.54,4.51-2.35,9.28-3.99,13.91-1.5,.75-3,.78-4.69,.04,.85-3.23,1.65-6.32,2.46-9.4,.61-2.31,1.22-4.61,1.85-6.91,.25-.89,.41-1.88,1.54-2.14,2.38,.54,4.77,.51,7.15,.02Z"/>
            <path class="cls-3" d="M135.89,97.03c.19-.85,.29-1.73,.88-2.35,1.22-.5,2.4-.57,3.6-.52,.68,.03,1.26-.1,1.25-1.22-1.86-.46-3.73-.26-5.63-.09-.76,1.57-1.08,3.17-1.39,4.76-.08,.39,.1,.73,.46,.96,.43,.56,1.04,.33,1.58,.33,2.14,.03,4.28,.04,6.42,0,.75-.02,1.34,.12,1.77,.75-.31,1.07-.2,2.35-1.49,2.93-.19-.19-.42-.26-.68-.25-3.14,0-6.27,0-9.41,0-.32,0-.62,.03-.84,.31-2.45-.96-3.35-2.53-2.75-4.95,.43-1.76,.9-3.52,1.43-5.26,.81-2.66,2.64-4.03,5.43-4.09,1.95-.04,3.9-.04,5.86,0,2.82,.06,4.16,1.53,4.06,4.38-.1,3.04-.7,3.94-3.07,4.63-.37-.48-.9-.31-1.37-.31-2.04-.01-4.07,0-6.11,0Z"/>
            <path class="cls-3" d="M99.07,102.64c-2.34-.74-3.66-2.51-3.37-4.5,.36-2.46,1.97-3.98,4.43-4.05,1.89-.06,3.78-.01,5.67,0,.18,0,.35,.08,.53,.12-.29,2.69-.82,3.16-3.38,3.21-.73,.01-1.51-.22-2.19,.23-.15,.52,.19,.82,.41,1.15,1.73,.37,3.35-.24,5.24-.41,.46-1.88,1.53-3.67,1.33-5.8-.24-.65-.81-.48-1.28-.48-2.07-.01-4.13-.01-6.2,0-.42,0-.89-.12-1.2,.32-1.47-1.05-1.55-1.58-.59-4.12,3.49,0,7.02-.07,10.55,.02,2.53,.07,4.22,2.13,3.73,4.64-.5,2.59-1.24,5.13-1.98,7.66-.31,1.07-1.09,1.82-2.27,2.01-.38-.49-.93-.3-1.41-.31-2.21-.02-4.41-.02-6.62,0-.48,0-1.02-.18-1.41,.31Z"/>
            <path class="cls-3" d="M126.95,102.61c-1.43,.14-2.89,.36-4.43-.23,.46-1.84,.86-3.47,1.29-5.1,.81-3.09-.09-4.25-3.3-4.23-.49,0-1.01-.11-1.55,.22-1.08,2.99-1.54,6.24-2.67,9.19-2.28,.5-3.24,.42-4.6-.44,1.19-4.48,2.39-9.01,3.64-13.71,2.89,.17,5.72-.35,8.5,.36,3.54,.9,5.77,4.61,4.95,8.18-.4,1.71-.88,3.41-1.35,5.1-.06,.23-.28,.41-.47,.68Z"/>
            <path class="cls-3" d="M80.54,88.33c-.39,1.55-.65,2.9-1.26,4.07-1.05,.89-2.23,.6-3.34,.63-2.15,.07-2.67,.47-3.29,2.61,.41,2.74,2.51,2.56,4.59,2.5,.54,1.79,.04,3.21-.95,4.49-3.86,.28-6.4-1.05-7.7-3.97-1.28-2.88-.55-6.33,1.78-8.48,1.26-1.16,2.78-1.75,4.45-1.84,1.82-.1,3.65-.02,5.72-.02Z"/>
            <path class="cls-3" d="M145.27,102.53c1.68-6.26,3.35-12.45,5.02-18.67,1.62,.4,2.99,.1,4.35,.32,.33,.59,.13,1.12-.02,1.65-1.09,4.05-2.17,8.11-3.27,12.16-.6,2.21-1.97,3.73-4.16,4.5-.61,.22-1.18,.32-1.92,.04Z"/>
            <path class="cls-3" d="M144.84,99.65c-.43-.64-1.03-.77-1.77-.75-2.14,.05-4.28,.03-6.42,0-.54,0-1.15,.23-1.58-.33h9.79c.31,.39,.02,.73-.02,1.08Z"/>
            <path class="cls-3" d="M132.42,102.63c.22-.28,.52-.31,.84-.31,3.14,0,6.27,0,9.41,0,.26,0,.49,.07,.68,.25-3.64,.29-7.28,.2-10.92,.05Z"/>
            <path class="cls-3" d="M99.07,102.64c.38-.49,.92-.31,1.41-.31,2.21-.02,4.41-.02,6.62,0,.48,0,1.02-.18,1.41,.31-3.14,.17-6.29,.13-9.43,0Z"/>
            <path class="cls-3" d="M99.07,92.42c.31-.44,.78-.32,1.2-.32,2.07,0,4.13-.01,6.2,0,.47,0,1.04-.17,1.28,.48-2.89-.14-5.79,.15-8.68-.16Z"/>
            <path class="cls-3" d="M135.89,97.03c2.04,0,4.07-.02,6.11,0,.47,0,1-.17,1.37,.31-2.26,.02-4.52,.04-6.78,.05-.28,0-.65,.11-.7-.36Z"/>
          </g>
          <text class="cls-4" transform="translate(156.76 90.24)"><tspan x="0" y="0">TM</tspan></text>
          <g>
            <g>
              <path class="cls-10" d="M151.23,58.23c.02-.24,.03-.48,.03-.72,0-4.8-3.89-8.69-8.69-8.69-4.09,0-7.52,2.82-8.44,6.63-.79-.79-1.85-1.28-3.03-1.28-2.24,0-4.08,1.76-4.34,4.02-2.23,.2-3.97,2.07-3.97,4.35,0,2.41,1.96,4.37,4.37,4.37h23.35c2.41,0,4.37-1.96,4.37-4.37,0-2.17-1.58-3.96-3.65-4.31Z"/>
              <path class="cls-11" d="M150.5,65.68h-23.35c-2.21,0-4.03-1.64-4.33-3.76-.03,.2-.04,.41-.04,.62,0,2.41,1.96,4.37,4.37,4.37h23.35c2.41,0,4.37-1.96,4.37-4.37,0-.21-.02-.42-.04-.62-.3,2.12-2.12,3.76-4.33,3.76Z"/>
            </g>
            <g>
              <rect class="cls-3" x="142.61" y="64.28" width="2.96" height="14.81"/>
              <polygon class="cls-3" points="140.35 66.91 144.09 60.43 147.83 66.91 140.35 66.91"/>
            </g>
            <g>
              <rect class="cls-3" x="133.6" y="60.43" width="2.96" height="14.81"/>
              <polygon class="cls-3" points="138.82 72.61 135.08 79.09 131.34 72.61 138.82 72.61"/>
            </g>
          </g>
        </g>
      </g>
    </g>
  </g>
</svg>