<?xml version="1.0" encoding="UTF-8"?>
<svg id="Layer_2" data-name="Layer 2" xmlns="http://www.w3.org/2000/svg" xmlns:xlink="http://www.w3.org/1999/xlink" viewBox="0 0 384 362.46">
  <defs>
    <style>
      .cls-1 {
        fill: url(#linear-gradient-12);
      }

      .cls-1, .cls-2, .cls-3, .cls-4, .cls-5, .cls-6, .cls-7, .cls-8, .cls-9, .cls-10 {
        opacity: .5;
      }

      .cls-11, .cls-12, .cls-13, .cls-14 {
        fill: #fff;
      }

      .cls-15 {
        fill: url(#linear-gradient-17);
      }

      .cls-16 {
        fill: #455b64;
      }

      .cls-17 {
        stroke: url(#linear-gradient-3);
      }

      .cls-17, .cls-18, .cls-19, .cls-20 {
        fill: none;
        stroke-linecap: round;
        stroke-linejoin: round;
        stroke-width: .84px;
      }

      .cls-2 {
        fill: url(#linear-gradient-18);
      }

      .cls-21 {
        fill: #74b2e0;
      }

      .cls-3 {
        fill: url(#linear-gradient-8);
      }

      .cls-22 {
        fill: #37474f;
      }

      .cls-23 {
        fill: url(#linear-gradient-15);
      }

      .cls-4 {
        fill: url(#linear-gradient-19);
      }

      .cls-24 {
        fill: #f5f5f5;
      }

      .cls-5 {
        fill: url(#linear-gradient-25);
      }

      .cls-25 {
        fill: url(#linear-gradient-14);
      }

      .cls-26 {
        fill: url(#linear-gradient-20);
      }

      .cls-27 {
        fill: url(#linear-gradient-6);
      }

      .cls-6 {
        fill: url(#linear-gradient-13);
      }

      .cls-28 {
        opacity: .2;
      }

      .cls-29 {
        fill: url(#linear-gradient-32);
      }

      .cls-30 {
        fill: url(#linear-gradient-11);
      }

      .cls-12, .cls-31 {
        opacity: .8;
      }

      .cls-7 {
        fill: url(#linear-gradient-24);
      }

      .cls-32 {
        fill: url(#linear-gradient-10);
      }

      .cls-33 {
        fill: #e6e6e6;
      }

      .cls-18 {
        stroke: url(#linear-gradient);
      }

      .cls-8 {
        fill: url(#linear-gradient-9);
      }

      .cls-34 {
        opacity: .4;
      }

      .cls-35 {
        fill: url(#linear-gradient-16);
      }

      .cls-36 {
        opacity: .75;
      }

      .cls-37 {
        fill: url(#linear-gradient-31);
      }

      .cls-9 {
        fill: url(#linear-gradient-28);
      }

      .cls-31, .cls-38 {
        fill: #58c2b1;
      }

      .cls-39 {
        fill: url(#linear-gradient-21);
      }

      .cls-19 {
        stroke: url(#linear-gradient-2);
      }

      .cls-40 {
        fill: url(#linear-gradient-34);
      }

      .cls-40, .cls-41 {
        opacity: .7;
      }

      .cls-42 {
        fill: url(#linear-gradient-5);
      }

      .cls-13 {
        opacity: .35;
      }

      .cls-14 {
        opacity: .15;
      }

      .cls-43 {
        fill: #fafbfb;
      }

      .cls-44 {
        fill: url(#linear-gradient-7);
      }

      .cls-10 {
        fill: url(#linear-gradient-29);
      }

      .cls-45 {
        fill: url(#linear-gradient-22);
      }

      .cls-46 {
        fill: url(#linear-gradient-27);
      }

      .cls-20 {
        stroke: url(#linear-gradient-4);
      }

      .cls-47 {
        fill: url(#linear-gradient-30);
      }

      .cls-41 {
        fill: url(#linear-gradient-33);
      }

      .cls-48 {
        fill: url(#linear-gradient-23);
      }

      .cls-49 {
        fill: #263238;
      }

      .cls-50 {
        fill: url(#linear-gradient-26);
      }
    </style>
    <linearGradient id="linear-gradient" x1="145.43" y1="270.55" x2="241.53" y2="270.55" gradientUnits="userSpaceOnUse">
      <stop offset="0" stop-color="#486ab2"/>
      <stop offset="1" stop-color="#292b74"/>
    </linearGradient>
    <linearGradient id="linear-gradient-2" x1="138.64" y1="265.94" x2="234.72" y2="265.94" xlink:href="#linear-gradient"/>
    <linearGradient id="linear-gradient-3" x1="131.82" y1="260.36" x2="228.2" y2="260.36" xlink:href="#linear-gradient"/>
    <linearGradient id="linear-gradient-4" x1="125.04" y1="254.46" x2="221.11" y2="254.46" xlink:href="#linear-gradient"/>
    <linearGradient id="linear-gradient-5" x1="208.19" y1="144.32" x2="284.83" y2="144.32" xlink:href="#linear-gradient"/>
    <linearGradient id="linear-gradient-6" x1="43.79" y1="271.83" x2="152.66" y2="271.83" xlink:href="#linear-gradient"/>
    <linearGradient id="linear-gradient-7" x1="43.79" y1="286.56" x2="98.23" y2="286.56" xlink:href="#linear-gradient"/>
    <linearGradient id="linear-gradient-8" x1="98.23" y1="294.78" x2="152.66" y2="294.78" xlink:href="#linear-gradient"/>
    <linearGradient id="linear-gradient-9" x1="43.79" y1="294.78" x2="98.23" y2="294.78" xlink:href="#linear-gradient"/>
    <linearGradient id="linear-gradient-10" x1="43.79" y1="248.26" x2="152.66" y2="248.26" xlink:href="#linear-gradient"/>
    <linearGradient id="linear-gradient-11" x1="43.79" y1="262.99" x2="98.23" y2="262.99" xlink:href="#linear-gradient"/>
    <linearGradient id="linear-gradient-12" x1="98.23" y1="271.83" x2="152.66" y2="271.83" xlink:href="#linear-gradient"/>
    <linearGradient id="linear-gradient-13" x1="43.79" y1="271.83" x2="98.23" y2="271.83" xlink:href="#linear-gradient"/>
    <linearGradient id="linear-gradient-14" x1="98.23" y1="283.61" x2="145.86" y2="283.61" xlink:href="#linear-gradient"/>
    <linearGradient id="linear-gradient-15" x1="47.19" y1="282.63" x2="98.23" y2="282.63" xlink:href="#linear-gradient"/>
    <linearGradient id="linear-gradient-16" x1="43.79" y1="224.69" x2="152.66" y2="224.69" xlink:href="#linear-gradient"/>
    <linearGradient id="linear-gradient-17" x1="43.79" y1="239.42" x2="98.23" y2="239.42" xlink:href="#linear-gradient"/>
    <linearGradient id="linear-gradient-18" x1="98.23" y1="248.26" x2="152.66" y2="248.26" xlink:href="#linear-gradient"/>
    <linearGradient id="linear-gradient-19" x1="43.79" y1="248.26" x2="98.23" y2="248.26" xlink:href="#linear-gradient"/>
    <linearGradient id="linear-gradient-20" x1="98.23" y1="260.04" x2="145.86" y2="260.04" xlink:href="#linear-gradient"/>
    <linearGradient id="linear-gradient-21" x1="47.19" y1="259.06" x2="98.23" y2="259.06" xlink:href="#linear-gradient"/>
    <linearGradient id="linear-gradient-22" x1="43.79" y1="201.12" x2="152.66" y2="201.12" xlink:href="#linear-gradient"/>
    <linearGradient id="linear-gradient-23" x1="43.79" y1="215.85" x2="98.23" y2="215.85" xlink:href="#linear-gradient"/>
    <linearGradient id="linear-gradient-24" x1="98.23" y1="224.69" x2="152.66" y2="224.69" xlink:href="#linear-gradient"/>
    <linearGradient id="linear-gradient-25" x1="43.79" y1="224.69" x2="98.23" y2="224.69" xlink:href="#linear-gradient"/>
    <linearGradient id="linear-gradient-26" x1="98.23" y1="236.47" x2="145.86" y2="236.47" xlink:href="#linear-gradient"/>
    <linearGradient id="linear-gradient-27" x1="47.19" y1="235.49" x2="98.23" y2="235.49" xlink:href="#linear-gradient"/>
    <linearGradient id="linear-gradient-28" x1="43.79" y1="185.78" x2="152.66" y2="185.78" xlink:href="#linear-gradient"/>
    <linearGradient id="linear-gradient-29" x1="98.2" y1="200.63" x2="152.66" y2="200.63" xlink:href="#linear-gradient"/>
    <linearGradient id="linear-gradient-30" x1="45.07" y1="177.55" x2="151.39" y2="177.55" xlink:href="#linear-gradient"/>
    <linearGradient id="linear-gradient-31" x1="98.23" y1="212.91" x2="145.86" y2="212.91" xlink:href="#linear-gradient"/>
    <linearGradient id="linear-gradient-32" x1="47.19" y1="211.93" x2="98.23" y2="211.93" xlink:href="#linear-gradient"/>
    <linearGradient id="linear-gradient-33" x1="26.1" y1="75.24" x2="167.72" y2="75.24" xlink:href="#linear-gradient"/>
    <linearGradient id="linear-gradient-34" x1="30.28" y1="75.24" x2="163.53" y2="75.24" xlink:href="#linear-gradient"/>
  </defs>
  <g id="Layer_1-2" data-name="Layer 1">
    <g>
      <ellipse id="Floor" class="cls-24" cx="192" cy="258.38" rx="192" ry="104.08"/>
      <path id="Shadow" class="cls-33" d="M158.43,289.55l-57.73,33.31c-1.38,.8-3.63,.8-5.01,0l-57.66-33.31c-1.38-.8-1.38-2.1,0-2.89l57.73-33.31c1.38-.8,3.63-.8,5.01,0l57.66,33.31c1.38,.8,1.38,2.1,0,2.89Z"/>
      <path class="cls-33" d="M268.31,280.74c-1.52,0-2.95-.36-4.14-1.05l-58.91-34.01c-1.82-1.05-2.9-2.82-2.9-4.74s1.08-3.69,2.9-4.74l80.61-46.54c1.19-.69,2.62-1.05,4.14-1.05s2.95,.36,4.14,1.05l58.91,34.01c1.82,1.05,2.9,2.82,2.9,4.74s-1.09,3.69-2.9,4.74l-80.61,46.54c-1.19,.69-2.62,1.05-4.14,1.05Z"/>
      <g>
        <path class="cls-18" d="M145.85,279.65l25.4-14.66c1-.58,2.62-.58,3.63,0l26.99,15.62c1,.58,2.62,.58,3.63,0l35.61-20.56"/>
        <path class="cls-19" d="M139.06,275.76l32.2-18.59c1-.58,2.63-.58,3.63,0l26.99,15.58c1,.58,2.63,.58,3.63,0l28.8-16.63"/>
        <path class="cls-17" d="M227.78,252.03l-22.28,12.86c-1,.58-2.63,.58-3.63,0l-26.99-15.58c-1-.58-2.63-.58-3.63,0l-39.01,22.52"/>
        <path class="cls-20" d="M220.7,248.26l-15.2,8.77c-1,.58-2.63,.58-3.63,0l-26.99-15.58c-1-.58-2.63-.58-3.63,0l-45.79,26.44"/>
      </g>
      <g id="Laptop">
        <g id="Laptop-2" data-name="Laptop">
          <path class="cls-22" d="M202.99,237.52c0,1.3,.97,2.91,2.17,3.6l60.67,35.03c1.2,.69,3.13,.69,4.33,0l83.01-47.93c1.2-.69,2.17-2.3,2.17-3.6,0-1.3-.97-2.91-2.17-3.6l-60.67-35.03c-1.2-.69-3.13-.69-4.33,0l-83.01,47.93c-1.2,.69-2.17,2.3-2.17,3.6Z"/>
          <path class="cls-49" d="M267.99,271.97v4.69c-.79,0-1.57-.17-2.17-.51l-60.67-35.03c-1.2-.69-2.17-2.3-2.17-3.6,0-1.22,.86-2.71,1.95-3.46-.97,.69-.9,1.72,.22,2.36l60.67,35.03c.59,.34,1.38,.52,2.17,.52Z"/>
          <path class="cls-16" d="M200.96,234c-1.12-.65-2.03-2.29-2.03-3.67v-72.4c0-1.38,.97-3.06,2.16-3.75l83.01-47.93c1.2-.69,3.07-.73,4.2-.08,1.12,.65,2.03,2.29,2.03,3.67v72.4c0,1.38-.97,3.06-2.17,3.75l-83.01,47.93c-1.2,.69-3.07,.73-4.2,.08Z"/>
          <path class="cls-49" d="M204.9,234.06c-1.2,.56-2.9,.55-3.94-.06-1.12-.64-2.03-2.29-2.03-3.67v-72.4c0-.69,.24-1.46,.64-2.13l4.06,2.34h0c-.39,.69-.64,1.45-.64,2.14v72.4c0,1.28,.84,1.86,1.91,1.38Z"/>
          <path class="cls-22" d="M202.99,160.28v72.4c0,1.38,.97,1.94,2.17,1.25l83.01-47.93c1.2-.69,2.17-2.37,2.17-3.75V109.85c0-1.38-.97-1.94-2.17-1.25l-83.01,47.93c-1.2,.69-2.17,2.37-2.17,3.75Z"/>
          <path class="cls-16" d="M205.15,236.43l60.67,35.03c1.2,.69,3.13,.69,4.33,0l83.01-47.93c1.2-.69,1.2-1.81,0-2.5l-60.67-35.03c-1.2-.69-3.13-.69-4.33,0l-83.01,47.93c-1.2,.69-1.2,1.81,0,2.5Z"/>
          <path class="cls-43" d="M206.32,160.55l80.03-46.19c.72-.41,1.3-.08,1.3,.75v62.67c0,.83-.58,1.84-1.3,2.25l-80.03,46.19c-.72,.41-1.3,.08-1.3-.75v-62.67c0-.83,.58-1.84,1.3-2.25Z"/>
          <path class="cls-38" d="M212.19,234.55l77.05-44.48c.6-.35,1.57-.35,2.17,0l3.94,2.28c.6,.35,.6,.9,0,1.25l-77.06,44.48c-.6,.35-1.57,.35-2.17,0l-3.93-2.27c-.6-.35-.6-.9,0-1.25Z"/>
          <path class="cls-49" d="M212.19,234.55l77.05-44.48c.6-.35,1.57-.35,2.17,0l3.94,2.28c.6,.35,.6,.9,0,1.25l-77.06,44.48c-.6,.35-1.57,.35-2.17,0l-3.93-2.27c-.6-.35-.6-.9,0-1.25Z"/>
          <path class="cls-49" d="M222.35,240.41l77.05-44.49c.6-.35,1.57-.35,2.17,0l24.24,14c.6,.35,.6,.9,0,1.25l-76.96,44.42c-.6,.35-1.57,.35-2.17,0l-24.32-13.94c-.6-.34-.6-.9,0-1.25Z"/>
          <path class="cls-38" d="M291.42,215.94l2.41-1.39c.1-.06,.1-.16-.01-.22l-2.79-1.61c-.11-.06-.28-.07-.38,0l-2.41,1.39c-.1,.06-.1,.16,.01,.22l2.79,1.61c.11,.06,.28,.07,.38,0Zm-4.76-5.53l-2.41,1.39c-.1,.06-.1,.16,.01,.22l2.79,1.61c.11,.06,.28,.07,.38,0l2.41-1.39c.1-.06,.1-.16-.01-.22l-2.79-1.61c-.11-.06-.28-.07-.38,0Zm-7.79,4.5l-4.08,2.36c-.1,.06-.1,.16,.01,.22l2.79,1.61c.11,.06,.28,.07,.38,0l4.08-2.36c.1-.06,.1-.16-.01-.22l-2.79-1.61c-.11-.06-.28-.07-.38,0Zm4.27-2.46l-2.41,1.39c-.1,.06-.1,.16,.01,.22l2.79,1.61c.11,.06,.28,.07,.38,0l2.41-1.39c.1-.06,.1-.16-.01-.22l-2.79-1.61c-.11-.06-.28-.07-.38,0Zm-9.46,5.46l-2.41,1.39c-.1,.06-.1,.16,.01,.22l2.79,1.61c.11,.06,.28,.07,.38,0l2.41-1.39c.1-.06,.1-.16-.01-.22l-2.79-1.61c-.11-.06-.28-.07-.38,0Zm-3.53,2.04l-2.41,1.39c-.1,.06-.1,.16,.01,.22l2.79,1.61c.11,.06,.28,.07,.38,0l2.41-1.39c.1-.06,.1-.16-.01-.22l-2.79-1.61c-.11-.06-.28-.07-.38,0Zm10.97,6.55l2.41-1.39c.1-.06,.1-.16-.01-.22l-2.79-1.61c-.11-.06-.28-.07-.38,0l-2.41,1.39c-.1,.06-.1,.16,.01,.22l2.79,1.61c.11,.06,.28,.07,.38,0Zm-3.53,2.04l2.41-1.39c.1-.06,.1-.16-.01-.22l-2.79-1.61c-.11-.06-.28-.07-.38,0l-2.41,1.39c-.1,.06-.1,.16,.01,.22l2.79,1.61c.11,.06,.28,.07,.38,0Zm-3.53,2.04l2.41-1.39c.1-.06,.1-.16-.01-.22l-2.79-1.61c-.11-.06-.28-.07-.38,0l-2.41,1.39c-.1,.06-.1,.16,.01,.22l2.79,1.61c.11,.06,.28,.07,.38,0Zm-3.53,2.04l2.41-1.39c.1-.06,.1-.16-.01-.22l-2.79-1.61c-.11-.06-.28-.07-.38,0l-2.41,1.39c-.1,.06-.1,.16,.01,.22l2.79,1.61c.11,.06,.28,.07,.38,0Zm17.36-14.62l2.41-1.39c.1-.06,.1-.16-.01-.22l-2.79-1.61c-.11-.06-.28-.07-.38,0l-2.41,1.39c-.1,.06-.1,.16,.01,.22l2.79,1.61c.11,.06,.28,.07,.39,0Zm-3.25,6.48l5.38-3.11c.1-.06,.1-.16-.01-.22l-6.77-3.91c-.11-.06-.28-.07-.38,0l-2.78,1.61c-.1,.06-.1,.16,.01,.22l3.59,2.07c.11,.06,.12,.16,.01,.22l-2.23,1.29c-.1,.06-.1,.16,.01,.22l2.79,1.61c.11,.06,.28,.07,.38,0Zm-18.02-2.48l-2.41,1.39c-.1,.06-.1,.16,.01,.22l2.79,1.61c.11,.06,.28,.07,.38,0l2.41-1.39c.1-.06,.1-.16-.01-.22l-2.79-1.61c-.11-.06-.28-.07-.38,0Zm-3.53,2.04l-2.41,1.39c-.1,.06-.1,.16,.01,.22l2.79,1.61c.11,.06,.28,.07,.38,0l2.41-1.39c.1-.06,.1-.16-.01-.22l-2.79-1.61c-.11-.06-.28-.07-.38,0Zm-17.62,22.83c.11,.06,.28,.07,.38,0l2.41-1.39c.1-.06,.1-.16-.01-.22l-2.79-1.61c-.11-.06-.28-.07-.38,0l-2.41,1.39c-.1,.06-.1,.16,.01,.22l2.79,1.61Zm-10.59-6.54l-2.41,1.39c-.1,.06-.1,.16,.01,.22l2.79,1.61c.11,.06,.28,.07,.38,0l2.41-1.39c.1-.06,.1-.16-.01-.22l-2.79-1.61c-.11-.06-.28-.07-.38,0Zm5.67,4.78c.11,.06,.28,.07,.38,0l2.41-1.39c.1-.06,.1-.16-.01-.22l-2.79-1.61c-.11-.06-.28-.07-.38,0l-2.41,1.39c-.1,.06-.1,.16,.01,.22l2.79,1.61Zm11.14,3l2.41-1.39c.1-.06,.1-.16-.01-.22l-2.79-1.61c-.11-.06-.28-.07-.39,0l-2.41,1.39c-.1,.06-.1,.16,.01,.22l2.79,1.61c.11,.06,.28,.07,.38,0Zm-3.91,2.03c.11,.06,.28,.07,.38,0l2.41-1.39c.1-.06,.1-.16-.01-.22l-2.79-1.61c-.11-.06-.28-.07-.38,0l-2.41,1.39c-.1,.06-.1,.16,.01,.22l2.79,1.61Zm-9.38-11.84l-2.41,1.39c-.1,.06-.1,.16,.01,.22l2.79,1.61c.11,.06,.28,.07,.38,0l2.41-1.39c.1-.06,.1-.16-.01-.22l-2.79-1.61c-.11-.06-.28-.07-.38,0Zm17.63-10.18l-2.41,1.39c-.1,.06-.1,.16,.01,.22l2.79,1.61c.11,.06,.28,.07,.38,0l2.41-1.39c.1-.06,.1-.16-.01-.22l-2.79-1.61c-.11-.06-.28-.07-.38,0Zm-14.1,8.14l-2.41,1.39c-.1,.06-.1,.16,.01,.22l2.79,1.61c.11,.06,.28,.07,.38,0l2.41-1.39c.1-.06,.1-.16-.01-.22l-2.79-1.61c-.11-.06-.28-.07-.38,0Zm17.63-10.18l-2.41,1.39c-.1,.06-.1,.16,.01,.22l2.79,1.61c.11,.06,.28,.07,.38,0l2.41-1.39c.1-.06,.1-.16-.01-.22l-2.79-1.61c-.11-.06-.28-.07-.38,0Zm-7.05,4.07l-2.41,1.39c-.1,.06-.1,.16,.01,.22l2.79,1.61c.11,.06,.28,.07,.38,0l2.41-1.39c.1-.06,.1-.16-.01-.22l-2.79-1.61c-.11-.06-.28-.07-.38,0Zm-3.53,2.04l-2.41,1.39c-.1,.06-.1,.16,.01,.22l2.79,1.61c.11,.06,.28,.07,.38,0l2.41-1.39c.1-.06,.1-.16-.01-.22l-2.79-1.61c-.11-.06-.28-.07-.38,0Zm-3.53,2.04l-2.41,1.39c-.1,.06-.1,.16,.01,.22l2.79,1.61c.11,.06,.28,.07,.38,0l2.41-1.39c.1-.06,.1-.16-.01-.22l-2.79-1.61c-.11-.06-.28-.07-.38,0Zm18.02,2.48l2.41-1.39c.1-.06,.1-.16-.01-.22l-2.79-1.61c-.11-.06-.28-.07-.38,0l-2.41,1.39c-.1,.06-.1,.16,.01,.22l2.79,1.61c.11,.06,.28,.07,.38,0Zm30.97-30.76l-2.41,1.39c-.1,.06-.1,.16,.01,.22l2.79,1.61c.11,.06,.28,.07,.38,0l2.41-1.39c.1-.06,.1-.16-.01-.22l-2.79-1.61c-.11-.06-.28-.07-.38,0Zm-4.27,2.46l-2.41,1.39c-.1,.06-.1,.16,.01,.22l2.79,1.61c.11,.06,.28,.07,.38,0l2.41-1.39c.1-.06,.1-.16-.01-.22l-2.79-1.61c-.11-.06-.28-.07-.38,0Zm7.79-4.5l-2.41,1.39c-.1,.06-.1,.16,.01,.22l2.79,1.61c.11,.06,.28,.07,.38,0l2.41-1.39c.1-.06,.1-.16-.01-.22l-2.79-1.61c-.11-.06-.28-.07-.39,0Zm-18.25,18.82l2.41-1.39c.1-.06,.1-.16-.01-.22l-2.79-1.61c-.11-.06-.28-.07-.38,0l-2.41,1.39c-.1,.06-.1,.16,.01,.22l2.79,1.61c.11,.06,.28,.07,.38,0Zm22.16-20.85c-.11-.06-.28-.07-.38,0l-2.41,1.39c-.1,.06-.1,.16,.01,.22l2.79,1.61c.11,.06,.28,.07,.38,0l2.41-1.39c.1-.06,.1-.16-.01-.22l-2.79-1.61Zm-34.88,32.79l2.41-1.39c.1-.06,.1-.16-.01-.22l-2.79-1.61c-.11-.06-.28-.07-.38,0l-2.41,1.39c-.1,.06-.1,.16,.01,.22l2.79,1.61c.11,.06,.28,.07,.38,0Zm43.24-24.96l2.41-1.39c.1-.06,.1-.16-.01-.22l-2.79-1.61c-.11-.06-.28-.07-.38,0l-2.41,1.39c-.1,.06-.1,.16,.01,.22l2.79,1.61c.11,.06,.28,.07,.38,0Zm-7.51-.26l2.41-1.39c.1-.06,.1-.16-.01-.22l-2.79-1.61c-.11-.06-.28-.07-.38,0l-2.41,1.39c-.1,.06-.1,.16,.01,.22l2.79,1.61c.11,.06,.28,.07,.38,0Zm3.13-5.26c-.11-.06-.28-.07-.38,0l-2.41,1.39c-.1,.06-.1,.16,.01,.22l2.79,1.61c.11,.06,.28,.07,.38,0l2.41-1.39c.1-.06,.1-.16-.01-.22l-2.79-1.61Zm.74-.43l6.77,3.91c.11,.06,.28,.07,.38,0l2.41-1.39c.1-.06,.1-.16-.01-.22l-6.77-3.91c-.11-.06-.28-.07-.39,0l-2.41,1.39c-.1,.06-.1,.16,.01,.22Zm-8.18,4.49l-2.41,1.39c-.1,.06-.1,.16,.01,.22l2.79,1.61c.11,.06,.28,.07,.38,0l2.41-1.39c.1-.06,.1-.16-.01-.22l-2.79-1.61c-.11-.06-.28-.07-.39,0Zm-26.54,15.32l-2.41,1.39c-.1,.06-.1,.16,.01,.22l2.79,1.61c.11,.06,.28,.07,.38,0l2.41-1.39c.1-.06,.1-.16-.01-.22l-2.79-1.61c-.11-.06-.28-.07-.38,0Zm34.44-11.83c.11,.06,.28,.07,.38,0l2.41-1.39c.1-.06,.1-.16-.01-.22l-2.79-1.61c-.11-.06-.28-.07-.38,0l-2.41,1.39c-.1,.06-.1,.16,.01,.22l2.79,1.61Zm-30.91,9.79l-2.41,1.39c-.1,.06-.1,.16,.01,.22l2.79,1.61c.11,.06,.28,.07,.38,0l2.41-1.39c.1-.06,.1-.16-.01-.22l-2.79-1.61c-.11-.06-.28-.07-.38,0Zm-26.43,23.31c.11,.06,.28,.07,.38,0l2.41-1.39c.1-.06,.1-.16-.01-.22l-2.79-1.61c-.11-.06-.28-.07-.38,0l-2.41,1.39c-.1,.06-.1,.16,.01,.22l2.79,1.61Zm-5.3-4.99l-2.41,1.39c-.1,.06-.1,.16,.01,.22l2.79,1.61c.11,.06,.28,.07,.38,0l2.41-1.39c.1-.06,.1-.16-.01-.22l-2.79-1.61c-.11-.06-.28-.07-.38,0Zm9.21,2.96l2.41-1.39c.1-.06,.1-.16-.01-.22l-2.79-1.61c-.11-.06-.28-.07-.38,0l-2.41,1.39c-.1,.06-.1,.16,.01,.22l2.79,1.61c.11,.06,.28,.07,.38,0Zm3.53-2.04l2.41-1.39c.1-.06,.1-.16-.01-.22l-2.79-1.61c-.11-.06-.28-.07-.38,0l-2.41,1.39c-.1,.06-.1,.16,.01,.22l2.79,1.61c.11,.06,.28,.07,.38,0Zm3.53-2.04l2.41-1.39c.1-.06,.1-.16-.01-.22l-2.79-1.61c-.11-.06-.28-.07-.38,0l-2.41,1.39c-.1,.06-.1,.16,.01,.22l2.79,1.61c.11,.06,.28,.07,.38,0Zm-12.74-.93l-2.41,1.39c-.1,.06-.1,.16,.01,.22l2.79,1.61c.11,.06,.28,.07,.38,0l2.41-1.39c.1-.06,.1-.16-.01-.22l-2.79-1.61c-.11-.06-.28-.07-.38,0Zm3.53-2.04l-2.41,1.39c-.1,.06-.1,.16,.01,.22l2.79,1.61c.11,.06,.28,.07,.38,0l2.41-1.39c.1-.06,.1-.16-.01-.22l-2.79-1.61c-.11-.06-.28-.07-.38,0Zm14.1-8.14l-2.41,1.39c-.1,.06-.1,.16,.01,.22l2.79,1.61c.11,.06,.28,.07,.38,0l2.41-1.39c.1-.06,.1-.16-.01-.22l-2.79-1.61c-.11-.06-.28-.07-.38,0Zm-3.53,2.04l-2.41,1.39c-.1,.06-.1,.16,.01,.22l2.79,1.61c.11,.06,.28,.07,.38,0l2.41-1.39c.1-.06,.1-.16-.01-.22l-2.79-1.61c-.11-.06-.28-.07-.38,0Zm7.05-4.07l-2.41,1.39c-.1,.06-.1,.16,.01,.22l2.79,1.61c.11,.06,.28,.07,.38,0l2.41-1.39c.1-.06,.1-.16-.01-.22l-2.79-1.61c-.11-.06-.28-.07-.38,0Zm-14.1,8.14l-2.41,1.39c-.1,.06-.1,.16,.01,.22l2.79,1.61c.11,.06,.28,.07,.38,0l2.41-1.39c.1-.06,.1-.16-.01-.22l-2.79-1.61c-.11-.06-.28-.07-.38,0Zm3.53-2.04l-2.41,1.39c-.1,.06-.1,.16,.01,.22l2.79,1.61c.11,.06,.28,.07,.38,0l2.41-1.39c.1-.06,.1-.16-.01-.22l-2.79-1.61c-.11-.06-.28-.07-.38,0Zm-2.57,14.37l2.41-1.39c.1-.06,.1-.16-.01-.22l-2.79-1.61c-.11-.06-.28-.07-.38,0l-2.41,1.39c-.1,.06-.1,.16,.01,.22l2.79,1.61c.11,.06,.28,.07,.38,0Zm-20.69-2.09l-2.79-1.61c-.11-.06-.28-.07-.38,0l-2.41,1.39c-.1,.06-.1,.16,.01,.22l2.79,1.61c.11,.06,.28,.07,.38,0l2.41-1.39c.1-.06,.1-.16-.01-.22Zm5.28,1.55l-2.79-1.61c-.11-.06-.28-.07-.38,0l-3.71,2.14c-.1,.06-.1,.16,.01,.22l2.79,1.61c.11,.06,.28,.07,.38,0l3.71-2.14c.1-.06,.1-.16-.01-.22Zm-9.56-4.66l-2.79-1.61c-.11-.06-.28-.07-.38,0l-2.97,1.71c-.1,.06-.1,.16,.01,.22l2.79,1.61c.11,.06,.28,.07,.38,0l2.97-1.71c.1-.06,.1-.16-.01-.22Zm2.28-1.31c.11,.06,.28,.07,.38,0l2.41-1.39c.1-.06,.1-.16-.01-.22l-2.79-1.61c-.11-.06-.28-.07-.38,0l-2.41,1.39c-.1,.06-.1,.16,.01,.22l2.79,1.61Zm12.2,7.74l-2.79-1.61c-.11-.06-.28-.07-.38,0l-4.64,2.68c-.1,.06-.1,.16,.01,.22l2.79,1.61c.11,.06,.28,.07,.38,0l4.64-2.68c.1-.06,.1-.16-.01-.22Zm2.32,3.27l-2.79-1.61c-.11-.06-.28-.07-.38,0l-2.97,1.71c-.1,.06-.1,.16,.01,.22l2.79,1.61c.11,.06,.28,.07,.38,0l2.97-1.71c.1-.06,.1-.16-.01-.22Zm11.7-26.14c.11,.06,.28,.07,.38,0l2.41-1.39c.1-.06,.1-.16-.01-.22l-2.79-1.61c-.11-.06-.28-.07-.39,0l-2.41,1.39c-.1,.06-.1,.16,.01,.22l2.79,1.61Zm-7.05,4.07c.11,.06,.28,.07,.38,0l2.41-1.39c.1-.06,.1-.16-.01-.22l-2.79-1.61c-.11-.06-.28-.07-.38,0l-2.41,1.39c-.1,.06-.1,.16,.01,.22l2.79,1.61Zm-15.64,9.03c.11,.06,.28,.07,.38,0l2.41-1.39c.1-.06,.1-.16-.01-.22l-2.79-1.61c-.11-.06-.28-.07-.38,0l-2.41,1.39c-.1,.06-.1,.16,.01,.22l2.79,1.61Zm19.16-11.06c.11,.06,.28,.07,.38,0l2.41-1.39c.1-.06,.1-.16-.01-.22l-2.79-1.61c-.11-.06-.28-.07-.38,0l-2.41,1.39c-.1,.06-.1,.16,.01,.22l2.79,1.61Zm-7.05,4.07c.11,.06,.28,.07,.38,0l2.41-1.39c.1-.06,.1-.16-.01-.22l-2.79-1.61c-.11-.06-.28-.07-.38,0l-2.41,1.39c-.1,.06-.1,.16,.01,.22l2.79,1.61Zm.82,20.3c-.11-.06-.28-.07-.38,0l-3.71,2.14c-.1,.06-.1,.16,.01,.22l2.79,1.61c.11,.06,.28,.07,.38,0l3.71-2.14c.1-.06,.1-.16-.01-.22l-2.79-1.61Zm-5.88-17.38c.11,.06,.28,.07,.38,0l2.41-1.39c.1-.06,.1-.16-.01-.22l-2.79-1.61c-.11-.06-.28-.07-.38,0l-2.41,1.39c-.1,.06-.1,.16,.01,.22l2.79,1.61Zm-3.53,2.04c.11,.06,.28,.07,.38,0l2.41-1.39c.1-.06,.1-.16-.01-.22l-2.79-1.61c-.11-.06-.28-.07-.38,0l-2.41,1.39c-.1,.06-.1,.16,.01,.22l2.79,1.61Zm74.72-22.37c-.11-.06-.28-.07-.38,0l-5.94,3.43c-.1,.06-.1,.16,.01,.22l2.79,1.61c.11,.06,.28,.07,.38,0l5.94-3.43c.1-.06,.1-.16-.01-.22l-2.79-1.61Zm-7.79,4.5c-.11-.06-.28-.07-.38,0l-2.41,1.39c-.1,.06-.1,.16,.01,.22l2.79,1.61c.11,.06,.28,.07,.38,0l2.41-1.39c.1-.06,.1-.16-.01-.22l-2.79-1.61Zm-47.76,26.42l2.41-1.39c.1-.06,.1-.16-.01-.22l-2.79-1.61c-.11-.06-.28-.07-.38,0l-2.41,1.39c-.1,.06-.1,.16,.01,.22l2.79,1.61c.11,.06,.28,.07,.38,0Zm40.71-22.35c-.11-.06-.28-.07-.38,0l-2.41,1.39c-.1,.06-.1,.16,.01,.22l2.79,1.61c.11,.06,.28,.07,.38,0l2.41-1.39c.1-.06,.1-.16-.01-.22l-2.79-1.61Zm18.37-10.61c-.11-.06-.28-.07-.38,0l-2.41,1.39c-.1,.06-.1,.16,.01,.22l2.79,1.61c.11,.06,.28,.07,.38,0l2.41-1.39c.1-.06,.1-.16-.01-.22l-2.79-1.61Zm6.32-.42l-6.77-3.91c-.11-.06-.28-.07-.38,0l-2.41,1.39c-.1,.06-.1,.16,.01,.22l6.77,3.91c.11,.06,.28,.07,.38,0l2.41-1.39c.1-.06,.1-.16-.01-.22Zm-37.86,18.64c-.11-.06-.28-.07-.38,0l-2.97,1.71c-.1,.06-.1,.16,.01,.22l2.79,1.61c.11,.06,.28,.07,.38,0l2.97-1.71c.1-.06,.1-.16-.01-.22l-2.79-1.61Zm8.91-5.14c-.11-.06-.28-.07-.38,0l-3.71,2.14c-.1,.06-.1,.16,.01,.22l2.79,1.61c.11,.06,.28,.07,.38,0l3.71-2.14c.1-.06,.1-.16-.01-.22l-2.79-1.61Zm-17.07,9.86c-.11-.06-.28-.07-.38,0l-19.86,11.46c-.1,.06-.1,.16,.01,.22l2.79,1.61c.11,.06,.28,.07,.38,0l19.86-11.46c.1-.06,.1-.16-.01-.22l-2.79-1.61Zm-20.97,12.11c-.11-.06-.28-.07-.38,0l-2.97,1.71c-.1,.06-.1,.16,.01,.22l2.79,1.61c.11,.06,.28,.07,.38,0l2.97-1.71c.1-.06,.1-.16-.01-.22l-2.79-1.61Zm25.05-14.46c-.11-.06-.28-.07-.38,0l-2.97,1.71c-.1,.06-.1,.16,.01,.22l2.79,1.61c.11,.06,.28,.07,.38,0l2.97-1.71c.1-.06,.1-.16-.01-.22l-2.79-1.61Zm-29.13,16.82c-.11-.06-.28-.07-.38,0l-2.97,1.71c-.1,.06-.1,.16,.01,.22l2.79,1.61c.11,.06,.28,.07,.38,0l2.97-1.71c.1-.06,.1-.16-.01-.22l-2.79-1.61Zm37.3-21.53c-.11-.06-.28-.07-.38,0l-2.97,1.71c-.1,.06-.1,.16,.01,.22l2.79,1.61c.11,.06,.28,.07,.38,0l2.97-1.71c.1-.06,.1-.16-.01-.22l-2.79-1.61Zm12.62-7.29c-.11-.06-.28-.07-.39,0l-2.41,1.39c-.1,.06-.1,.16,.01,.22l2.79,1.61c.11,.06,.28,.07,.38,0l2.41-1.39c.1-.06,.1-.16-.01-.22l-2.79-1.61Zm7.73-5.61l2.41-1.39c.1-.06,.1-.16-.01-.22l-2.79-1.61c-.11-.06-.28-.07-.38,0l-2.41,1.39c-.1,.06-.1,.16,.01,.22l2.79,1.61c.11,.06,.28,.07,.38,0Zm-15.76-.1l2.41-1.39c.1-.06,.1-.16-.01-.22l-2.79-1.61c-.11-.06-.28-.07-.38,0l-2.41,1.39c-.1,.06-.1,.16,.01,.22l2.79,1.61c.11,.06,.28,.07,.38,0Zm-7.99,13.82l7.05-4.07c.1-.06,.1-.16-.01-.22l-2.79-1.61c-.11-.06-.28-.07-.38,0l-7.05,4.07c-.1,.06-.1,.16,.01,.22l2.79,1.61c.11,.06,.28,.07,.38,0Zm19.84-11.69c.11,.06,.28,.07,.38,0l2.41-1.39c.1-.06,.1-.16-.01-.22l-2.79-1.61c-.11-.06-.28-.07-.38,0l-2.41,1.39c-.1,.06-.1,.16,.01,.22l2.79,1.61Zm-3.6-2.29l2.41-1.39c.1-.06,.1-.16-.01-.22l-2.79-1.61c-.11-.06-.28-.07-.38,0l-2.41,1.39c-.1,.06-.1,.16,.01,.22l2.79,1.61c.11,.06,.28,.07,.38,0Zm-19.77,16.01l2.41-1.39c.1-.06,.1-.16-.01-.22l-2.79-1.61c-.11-.06-.28-.07-.38,0l-2.41,1.39c-.1,.06-.1,.16,.01,.22l2.79,1.61c.11,.06,.28,.07,.38,0Zm15.57-9.22c.11,.06,.28,.07,.38,0l2.41-1.39c.1-.06,.1-.16-.01-.22l-2.79-1.61c-.11-.06-.28-.07-.38,0l-2.41,1.39c-.1,.06-.1,.16,.01,.22l2.79,1.61Zm-33.2,19.4l2.41-1.39c.1-.06,.1-.16-.01-.22l-2.79-1.61c-.11-.06-.28-.07-.38,0l-2.41,1.39c-.1,.06-.1,.16,.01,.22l2.79,1.61c.11,.06,.28,.07,.38,0Zm3.53-2.04l2.41-1.39c.1-.06,.1-.16-.01-.22l-2.79-1.61c-.11-.06-.28-.07-.38,0l-2.41,1.39c-.1,.06-.1,.16,.01,.22l2.79,1.61c.11,.06,.28,.07,.38,0Zm-7.05,4.07l2.41-1.39c.1-.06,.1-.16-.01-.22l-2.79-1.61c-.11-.06-.28-.07-.38,0l-2.41,1.39c-.1,.06-.1,.16,.01,.22l2.79,1.61c.11,.06,.28,.07,.38,0Zm14.1-8.14l2.41-1.39c.1-.06,.1-.16-.01-.22l-2.79-1.61c-.11-.06-.28-.07-.38,0l-2.41,1.39c-.1,.06-.1,.16,.01,.22l2.79,1.61c.11,.06,.28,.07,.38,0Zm-3.53,2.04l2.41-1.39c.1-.06,.1-.16-.01-.22l-2.79-1.61c-.11-.06-.28-.07-.38,0l-2.41,1.39c-.1,.06-.1,.16,.01,.22l2.79,1.61c.11,.06,.28,.07,.38,0Zm7.05-4.07l2.41-1.39c.1-.06,.1-.16-.01-.22l-2.79-1.61c-.11-.06-.28-.07-.38,0l-2.41,1.39c-.1,.06-.1,.16,.01,.22l2.79,1.61c.11,.06,.28,.07,.38,0Zm16.13-30.11c.11,.06,.28,.07,.38,0l2.41-1.39c.1-.06,.1-.16-.01-.22l-.74-.43c-.11-.06-.28-.07-.39,0l-2.41,1.39c-.1,.06-.1,.16,.01,.22l.74,.43Zm-17.35,11.2c.11,.06,.28,.07,.38,0l2.41-1.39c.1-.06,.1-.16-.01-.22l-2.79-1.61c-.11-.06-.28-.07-.38,0l-2.41,1.39c-.1,.06-.1,.16,.01,.22l2.79,1.61Zm7.05-4.07c.11,.06,.28,.07,.38,0l2.41-1.39c.1-.06,.1-.16-.01-.22l-2.79-1.61c-.11-.06-.28-.07-.38,0l-2.41,1.39c-.1,.06-.1,.16,.01,.22l2.79,1.61Zm-11.36,6.56c.11,.06,.28,.07,.38,0l2.41-1.39c.1-.06,.1-.16-.01-.22l-2.79-1.61c-.11-.06-.28-.07-.38,0l-2.41,1.39c-.1,.06-.1,.16,.01,.22l2.79,1.61Zm7.83-4.52c.11,.06,.28,.07,.38,0l2.41-1.39c.1-.06,.1-.16-.01-.22l-2.79-1.61c-.11-.06-.28-.07-.38,0l-2.41,1.39c-.1,.06-.1,.16,.01,.22l2.79,1.61Zm-14.88,8.59c.11,.06,.28,.07,.38,0l2.41-1.39c.1-.06,.1-.16-.01-.22l-2.79-1.61c-.11-.06-.28-.07-.38,0l-2.41,1.39c-.1,.06-.1,.16,.01,.22l2.79,1.61Zm3.53-2.04c.11,.06,.28,.07,.38,0l2.41-1.39c.1-.06,.1-.16-.01-.22l-2.79-1.61c-.11-.06-.28-.07-.38,0l-2.41,1.39c-.1,.06-.1,.16,.01,.22l2.79,1.61Zm18.13-11.65c.11,.06,.28,.07,.38,0l2.41-1.39c.1-.06,.1-.16-.01-.22l-.74-.43c-.11-.06-.28-.07-.38,0l-2.41,1.39c-.1,.06-.1,.16,.01,.22l.74,.43Zm10.58-6.11c.11,.06,.28,.07,.38,0l2.41-1.39c.1-.06,.1-.16-.01-.22l-.74-.43c-.11-.06-.28-.07-.38,0l-2.41,1.39c-.1,.06-.1,.16,.01,.22l.74,.43Zm5.86,3.38c.11,.06,.28,.07,.38,0l2.41-1.39c.1-.06,.1-.16-.01-.22l-2.79-1.61c-.11-.06-.28-.07-.38,0l-2.41,1.39c-.1,.06-.1,.16,.01,.22l2.79,1.61Zm8.81,8.95l2.41-1.39c.1-.06,.1-.16-.01-.22l-2.79-1.61c-.11-.06-.28-.07-.38,0l-2.41,1.39c-.1,.06-.1,.16,.01,.22l2.79,1.61c.11,.06,.28,.07,.38,0Zm-21.73-8.26c.11,.06,.28,.07,.38,0l2.41-1.39c.1-.06,.1-.16-.01-.22l-.74-.43c-.11-.06-.28-.07-.38,0l-2.41,1.39c-.1,.06-.1,.16,.01,.22l.74,.43Zm-28.71,17.75c.11,.06,.28,.07,.38,0l2.41-1.39c.1-.06,.1-.16-.01-.22l-2.79-1.61c-.11-.06-.28-.07-.38,0l-2.41,1.39c-.1,.06-.1,.16,.01,.22l2.79,1.61Z"/>
          <path class="cls-16" d="M291.42,215.94l2.41-1.39c.1-.06,.1-.16-.01-.22l-2.79-1.61c-.11-.06-.28-.07-.38,0l-2.41,1.39c-.1,.06-.1,.16,.01,.22l2.79,1.61c.11,.06,.28,.07,.38,0Zm-4.76-5.53l-2.41,1.39c-.1,.06-.1,.16,.01,.22l2.79,1.61c.11,.06,.28,.07,.38,0l2.41-1.39c.1-.06,.1-.16-.01-.22l-2.79-1.61c-.11-.06-.28-.07-.38,0Zm-7.79,4.5l-4.08,2.36c-.1,.06-.1,.16,.01,.22l2.79,1.61c.11,.06,.28,.07,.38,0l4.08-2.36c.1-.06,.1-.16-.01-.22l-2.79-1.61c-.11-.06-.28-.07-.38,0Zm4.27-2.46l-2.41,1.39c-.1,.06-.1,.16,.01,.22l2.79,1.61c.11,.06,.28,.07,.38,0l2.41-1.39c.1-.06,.1-.16-.01-.22l-2.79-1.61c-.11-.06-.28-.07-.38,0Zm-9.46,5.46l-2.41,1.39c-.1,.06-.1,.16,.01,.22l2.79,1.61c.11,.06,.28,.07,.38,0l2.41-1.39c.1-.06,.1-.16-.01-.22l-2.79-1.61c-.11-.06-.28-.07-.38,0Zm-3.53,2.04l-2.41,1.39c-.1,.06-.1,.16,.01,.22l2.79,1.61c.11,.06,.28,.07,.38,0l2.41-1.39c.1-.06,.1-.16-.01-.22l-2.79-1.61c-.11-.06-.28-.07-.38,0Zm10.97,6.55l2.41-1.39c.1-.06,.1-.16-.01-.22l-2.79-1.61c-.11-.06-.28-.07-.38,0l-2.41,1.39c-.1,.06-.1,.16,.01,.22l2.79,1.61c.11,.06,.28,.07,.38,0Zm-3.53,2.04l2.41-1.39c.1-.06,.1-.16-.01-.22l-2.79-1.61c-.11-.06-.28-.07-.38,0l-2.41,1.39c-.1,.06-.1,.16,.01,.22l2.79,1.61c.11,.06,.28,.07,.38,0Zm-3.53,2.04l2.41-1.39c.1-.06,.1-.16-.01-.22l-2.79-1.61c-.11-.06-.28-.07-.38,0l-2.41,1.39c-.1,.06-.1,.16,.01,.22l2.79,1.61c.11,.06,.28,.07,.38,0Zm-3.53,2.04l2.41-1.39c.1-.06,.1-.16-.01-.22l-2.79-1.61c-.11-.06-.28-.07-.38,0l-2.41,1.39c-.1,.06-.1,.16,.01,.22l2.79,1.61c.11,.06,.28,.07,.38,0Zm17.36-14.62l2.41-1.39c.1-.06,.1-.16-.01-.22l-2.79-1.61c-.11-.06-.28-.07-.38,0l-2.41,1.39c-.1,.06-.1,.16,.01,.22l2.79,1.61c.11,.06,.28,.07,.39,0Zm-3.25,6.48l5.38-3.11c.1-.06,.1-.16-.01-.22l-6.77-3.91c-.11-.06-.28-.07-.38,0l-2.78,1.61c-.1,.06-.1,.16,.01,.22l3.59,2.07c.11,.06,.12,.16,.01,.22l-2.23,1.29c-.1,.06-.1,.16,.01,.22l2.79,1.61c.11,.06,.28,.07,.38,0Zm-18.02-2.48l-2.41,1.39c-.1,.06-.1,.16,.01,.22l2.79,1.61c.11,.06,.28,.07,.38,0l2.41-1.39c.1-.06,.1-.16-.01-.22l-2.79-1.61c-.11-.06-.28-.07-.38,0Zm-3.53,2.04l-2.41,1.39c-.1,.06-.1,.16,.01,.22l2.79,1.61c.11,.06,.28,.07,.38,0l2.41-1.39c.1-.06,.1-.16-.01-.22l-2.79-1.61c-.11-.06-.28-.07-.38,0Zm-17.62,22.83c.11,.06,.28,.07,.38,0l2.41-1.39c.1-.06,.1-.16-.01-.22l-2.79-1.61c-.11-.06-.28-.07-.38,0l-2.41,1.39c-.1,.06-.1,.16,.01,.22l2.79,1.61Zm-10.59-6.54l-2.41,1.39c-.1,.06-.1,.16,.01,.22l2.79,1.61c.11,.06,.28,.07,.38,0l2.41-1.39c.1-.06,.1-.16-.01-.22l-2.79-1.61c-.11-.06-.28-.07-.38,0Zm5.67,4.78c.11,.06,.28,.07,.38,0l2.41-1.39c.1-.06,.1-.16-.01-.22l-2.79-1.61c-.11-.06-.28-.07-.38,0l-2.41,1.39c-.1,.06-.1,.16,.01,.22l2.79,1.61Zm11.14,3l2.41-1.39c.1-.06,.1-.16-.01-.22l-2.79-1.61c-.11-.06-.28-.07-.39,0l-2.41,1.39c-.1,.06-.1,.16,.01,.22l2.79,1.61c.11,.06,.28,.07,.38,0Zm-3.91,2.03c.11,.06,.28,.07,.38,0l2.41-1.39c.1-.06,.1-.16-.01-.22l-2.79-1.61c-.11-.06-.28-.07-.38,0l-2.41,1.39c-.1,.06-.1,.16,.01,.22l2.79,1.61Zm-9.38-11.84l-2.41,1.39c-.1,.06-.1,.16,.01,.22l2.79,1.61c.11,.06,.28,.07,.38,0l2.41-1.39c.1-.06,.1-.16-.01-.22l-2.79-1.61c-.11-.06-.28-.07-.38,0Zm17.63-10.18l-2.41,1.39c-.1,.06-.1,.16,.01,.22l2.79,1.61c.11,.06,.28,.07,.38,0l2.41-1.39c.1-.06,.1-.16-.01-.22l-2.79-1.61c-.11-.06-.28-.07-.38,0Zm-14.1,8.14l-2.41,1.39c-.1,.06-.1,.16,.01,.22l2.79,1.61c.11,.06,.28,.07,.38,0l2.41-1.39c.1-.06,.1-.16-.01-.22l-2.79-1.61c-.11-.06-.28-.07-.38,0Zm17.63-10.18l-2.41,1.39c-.1,.06-.1,.16,.01,.22l2.79,1.61c.11,.06,.28,.07,.38,0l2.41-1.39c.1-.06,.1-.16-.01-.22l-2.79-1.61c-.11-.06-.28-.07-.38,0Zm-7.05,4.07l-2.41,1.39c-.1,.06-.1,.16,.01,.22l2.79,1.61c.11,.06,.28,.07,.38,0l2.41-1.39c.1-.06,.1-.16-.01-.22l-2.79-1.61c-.11-.06-.28-.07-.38,0Zm-3.53,2.04l-2.41,1.39c-.1,.06-.1,.16,.01,.22l2.79,1.61c.11,.06,.28,.07,.38,0l2.41-1.39c.1-.06,.1-.16-.01-.22l-2.79-1.61c-.11-.06-.28-.07-.38,0Zm-3.53,2.04l-2.41,1.39c-.1,.06-.1,.16,.01,.22l2.79,1.61c.11,.06,.28,.07,.38,0l2.41-1.39c.1-.06,.1-.16-.01-.22l-2.79-1.61c-.11-.06-.28-.07-.38,0Zm18.02,2.48l2.41-1.39c.1-.06,.1-.16-.01-.22l-2.79-1.61c-.11-.06-.28-.07-.38,0l-2.41,1.39c-.1,.06-.1,.16,.01,.22l2.79,1.61c.11,.06,.28,.07,.38,0Zm30.97-30.76l-2.41,1.39c-.1,.06-.1,.16,.01,.22l2.79,1.61c.11,.06,.28,.07,.38,0l2.41-1.39c.1-.06,.1-.16-.01-.22l-2.79-1.61c-.11-.06-.28-.07-.38,0Zm-4.27,2.46l-2.41,1.39c-.1,.06-.1,.16,.01,.22l2.79,1.61c.11,.06,.28,.07,.38,0l2.41-1.39c.1-.06,.1-.16-.01-.22l-2.79-1.61c-.11-.06-.28-.07-.38,0Zm7.79-4.5l-2.41,1.39c-.1,.06-.1,.16,.01,.22l2.79,1.61c.11,.06,.28,.07,.38,0l2.41-1.39c.1-.06,.1-.16-.01-.22l-2.79-1.61c-.11-.06-.28-.07-.39,0Zm-18.25,18.82l2.41-1.39c.1-.06,.1-.16-.01-.22l-2.79-1.61c-.11-.06-.28-.07-.38,0l-2.41,1.39c-.1,.06-.1,.16,.01,.22l2.79,1.61c.11,.06,.28,.07,.38,0Zm22.16-20.85c-.11-.06-.28-.07-.38,0l-2.41,1.39c-.1,.06-.1,.16,.01,.22l2.79,1.61c.11,.06,.28,.07,.38,0l2.41-1.39c.1-.06,.1-.16-.01-.22l-2.79-1.61Zm-34.88,32.79l2.41-1.39c.1-.06,.1-.16-.01-.22l-2.79-1.61c-.11-.06-.28-.07-.38,0l-2.41,1.39c-.1,.06-.1,.16,.01,.22l2.79,1.61c.11,.06,.28,.07,.38,0Zm43.24-24.96l2.41-1.39c.1-.06,.1-.16-.01-.22l-2.79-1.61c-.11-.06-.28-.07-.38,0l-2.41,1.39c-.1,.06-.1,.16,.01,.22l2.79,1.61c.11,.06,.28,.07,.38,0Zm-7.51-.26l2.41-1.39c.1-.06,.1-.16-.01-.22l-2.79-1.61c-.11-.06-.28-.07-.38,0l-2.41,1.39c-.1,.06-.1,.16,.01,.22l2.79,1.61c.11,.06,.28,.07,.38,0Zm3.13-5.26c-.11-.06-.28-.07-.38,0l-2.41,1.39c-.1,.06-.1,.16,.01,.22l2.79,1.61c.11,.06,.28,.07,.38,0l2.41-1.39c.1-.06,.1-.16-.01-.22l-2.79-1.61Zm.74-.43l6.77,3.91c.11,.06,.28,.07,.38,0l2.41-1.39c.1-.06,.1-.16-.01-.22l-6.77-3.91c-.11-.06-.28-.07-.39,0l-2.41,1.39c-.1,.06-.1,.16,.01,.22Zm-8.18,4.49l-2.41,1.39c-.1,.06-.1,.16,.01,.22l2.79,1.61c.11,.06,.28,.07,.38,0l2.41-1.39c.1-.06,.1-.16-.01-.22l-2.79-1.61c-.11-.06-.28-.07-.39,0Zm-26.54,15.32l-2.41,1.39c-.1,.06-.1,.16,.01,.22l2.79,1.61c.11,.06,.28,.07,.38,0l2.41-1.39c.1-.06,.1-.16-.01-.22l-2.79-1.61c-.11-.06-.28-.07-.38,0Zm34.44-11.83c.11,.06,.28,.07,.38,0l2.41-1.39c.1-.06,.1-.16-.01-.22l-2.79-1.61c-.11-.06-.28-.07-.38,0l-2.41,1.39c-.1,.06-.1,.16,.01,.22l2.79,1.61Zm-30.91,9.79l-2.41,1.39c-.1,.06-.1,.16,.01,.22l2.79,1.61c.11,.06,.28,.07,.38,0l2.41-1.39c.1-.06,.1-.16-.01-.22l-2.79-1.61c-.11-.06-.28-.07-.38,0Zm-26.43,23.31c.11,.06,.28,.07,.38,0l2.41-1.39c.1-.06,.1-.16-.01-.22l-2.79-1.61c-.11-.06-.28-.07-.38,0l-2.41,1.39c-.1,.06-.1,.16,.01,.22l2.79,1.61Zm-5.3-4.99l-2.41,1.39c-.1,.06-.1,.16,.01,.22l2.79,1.61c.11,.06,.28,.07,.38,0l2.41-1.39c.1-.06,.1-.16-.01-.22l-2.79-1.61c-.11-.06-.28-.07-.38,0Zm9.21,2.96l2.41-1.39c.1-.06,.1-.16-.01-.22l-2.79-1.61c-.11-.06-.28-.07-.38,0l-2.41,1.39c-.1,.06-.1,.16,.01,.22l2.79,1.61c.11,.06,.28,.07,.38,0Zm3.53-2.04l2.41-1.39c.1-.06,.1-.16-.01-.22l-2.79-1.61c-.11-.06-.28-.07-.38,0l-2.41,1.39c-.1,.06-.1,.16,.01,.22l2.79,1.61c.11,.06,.28,.07,.38,0Zm3.53-2.04l2.41-1.39c.1-.06,.1-.16-.01-.22l-2.79-1.61c-.11-.06-.28-.07-.38,0l-2.41,1.39c-.1,.06-.1,.16,.01,.22l2.79,1.61c.11,.06,.28,.07,.38,0Zm-12.74-.93l-2.41,1.39c-.1,.06-.1,.16,.01,.22l2.79,1.61c.11,.06,.28,.07,.38,0l2.41-1.39c.1-.06,.1-.16-.01-.22l-2.79-1.61c-.11-.06-.28-.07-.38,0Zm3.53-2.04l-2.41,1.39c-.1,.06-.1,.16,.01,.22l2.79,1.61c.11,.06,.28,.07,.38,0l2.41-1.39c.1-.06,.1-.16-.01-.22l-2.79-1.61c-.11-.06-.28-.07-.38,0Zm14.1-8.14l-2.41,1.39c-.1,.06-.1,.16,.01,.22l2.79,1.61c.11,.06,.28,.07,.38,0l2.41-1.39c.1-.06,.1-.16-.01-.22l-2.79-1.61c-.11-.06-.28-.07-.38,0Zm-3.53,2.04l-2.41,1.39c-.1,.06-.1,.16,.01,.22l2.79,1.61c.11,.06,.28,.07,.38,0l2.41-1.39c.1-.06,.1-.16-.01-.22l-2.79-1.61c-.11-.06-.28-.07-.38,0Zm7.05-4.07l-2.41,1.39c-.1,.06-.1,.16,.01,.22l2.79,1.61c.11,.06,.28,.07,.38,0l2.41-1.39c.1-.06,.1-.16-.01-.22l-2.79-1.61c-.11-.06-.28-.07-.38,0Zm-14.1,8.14l-2.41,1.39c-.1,.06-.1,.16,.01,.22l2.79,1.61c.11,.06,.28,.07,.38,0l2.41-1.39c.1-.06,.1-.16-.01-.22l-2.79-1.61c-.11-.06-.28-.07-.38,0Zm3.53-2.04l-2.41,1.39c-.1,.06-.1,.16,.01,.22l2.79,1.61c.11,.06,.28,.07,.38,0l2.41-1.39c.1-.06,.1-.16-.01-.22l-2.79-1.61c-.11-.06-.28-.07-.38,0Zm-2.57,14.37l2.41-1.39c.1-.06,.1-.16-.01-.22l-2.79-1.61c-.11-.06-.28-.07-.38,0l-2.41,1.39c-.1,.06-.1,.16,.01,.22l2.79,1.61c.11,.06,.28,.07,.38,0Zm-20.69-2.09l-2.79-1.61c-.11-.06-.28-.07-.38,0l-2.41,1.39c-.1,.06-.1,.16,.01,.22l2.79,1.61c.11,.06,.28,.07,.38,0l2.41-1.39c.1-.06,.1-.16-.01-.22Zm5.28,1.55l-2.79-1.61c-.11-.06-.28-.07-.38,0l-3.71,2.14c-.1,.06-.1,.16,.01,.22l2.79,1.61c.11,.06,.28,.07,.38,0l3.71-2.14c.1-.06,.1-.16-.01-.22Zm-9.56-4.66l-2.79-1.61c-.11-.06-.28-.07-.38,0l-2.97,1.71c-.1,.06-.1,.16,.01,.22l2.79,1.61c.11,.06,.28,.07,.38,0l2.97-1.71c.1-.06,.1-.16-.01-.22Zm2.28-1.31c.11,.06,.28,.07,.38,0l2.41-1.39c.1-.06,.1-.16-.01-.22l-2.79-1.61c-.11-.06-.28-.07-.38,0l-2.41,1.39c-.1,.06-.1,.16,.01,.22l2.79,1.61Zm12.2,7.74l-2.79-1.61c-.11-.06-.28-.07-.38,0l-4.64,2.68c-.1,.06-.1,.16,.01,.22l2.79,1.61c.11,.06,.28,.07,.38,0l4.64-2.68c.1-.06,.1-.16-.01-.22Zm2.32,3.27l-2.79-1.61c-.11-.06-.28-.07-.38,0l-2.97,1.71c-.1,.06-.1,.16,.01,.22l2.79,1.61c.11,.06,.28,.07,.38,0l2.97-1.71c.1-.06,.1-.16-.01-.22Zm11.7-26.14c.11,.06,.28,.07,.38,0l2.41-1.39c.1-.06,.1-.16-.01-.22l-2.79-1.61c-.11-.06-.28-.07-.39,0l-2.41,1.39c-.1,.06-.1,.16,.01,.22l2.79,1.61Zm-7.05,4.07c.11,.06,.28,.07,.38,0l2.41-1.39c.1-.06,.1-.16-.01-.22l-2.79-1.61c-.11-.06-.28-.07-.38,0l-2.41,1.39c-.1,.06-.1,.16,.01,.22l2.79,1.61Zm-15.64,9.03c.11,.06,.28,.07,.38,0l2.41-1.39c.1-.06,.1-.16-.01-.22l-2.79-1.61c-.11-.06-.28-.07-.38,0l-2.41,1.39c-.1,.06-.1,.16,.01,.22l2.79,1.61Zm19.16-11.06c.11,.06,.28,.07,.38,0l2.41-1.39c.1-.06,.1-.16-.01-.22l-2.79-1.61c-.11-.06-.28-.07-.38,0l-2.41,1.39c-.1,.06-.1,.16,.01,.22l2.79,1.61Zm-7.05,4.07c.11,.06,.28,.07,.38,0l2.41-1.39c.1-.06,.1-.16-.01-.22l-2.79-1.61c-.11-.06-.28-.07-.38,0l-2.41,1.39c-.1,.06-.1,.16,.01,.22l2.79,1.61Zm.82,20.3c-.11-.06-.28-.07-.38,0l-3.71,2.14c-.1,.06-.1,.16,.01,.22l2.79,1.61c.11,.06,.28,.07,.38,0l3.71-2.14c.1-.06,.1-.16-.01-.22l-2.79-1.61Zm-5.88-17.38c.11,.06,.28,.07,.38,0l2.41-1.39c.1-.06,.1-.16-.01-.22l-2.79-1.61c-.11-.06-.28-.07-.38,0l-2.41,1.39c-.1,.06-.1,.16,.01,.22l2.79,1.61Zm-3.53,2.04c.11,.06,.28,.07,.38,0l2.41-1.39c.1-.06,.1-.16-.01-.22l-2.79-1.61c-.11-.06-.28-.07-.38,0l-2.41,1.39c-.1,.06-.1,.16,.01,.22l2.79,1.61Zm74.72-22.37c-.11-.06-.28-.07-.38,0l-5.94,3.43c-.1,.06-.1,.16,.01,.22l2.79,1.61c.11,.06,.28,.07,.38,0l5.94-3.43c.1-.06,.1-.16-.01-.22l-2.79-1.61Zm-7.79,4.5c-.11-.06-.28-.07-.38,0l-2.41,1.39c-.1,.06-.1,.16,.01,.22l2.79,1.61c.11,.06,.28,.07,.38,0l2.41-1.39c.1-.06,.1-.16-.01-.22l-2.79-1.61Zm-47.76,26.42l2.41-1.39c.1-.06,.1-.16-.01-.22l-2.79-1.61c-.11-.06-.28-.07-.38,0l-2.41,1.39c-.1,.06-.1,.16,.01,.22l2.79,1.61c.11,.06,.28,.07,.38,0Zm40.71-22.35c-.11-.06-.28-.07-.38,0l-2.41,1.39c-.1,.06-.1,.16,.01,.22l2.79,1.61c.11,.06,.28,.07,.38,0l2.41-1.39c.1-.06,.1-.16-.01-.22l-2.79-1.61Zm18.37-10.61c-.11-.06-.28-.07-.38,0l-2.41,1.39c-.1,.06-.1,.16,.01,.22l2.79,1.61c.11,.06,.28,.07,.38,0l2.41-1.39c.1-.06,.1-.16-.01-.22l-2.79-1.61Zm6.32-.42l-6.77-3.91c-.11-.06-.28-.07-.38,0l-2.41,1.39c-.1,.06-.1,.16,.01,.22l6.77,3.91c.11,.06,.28,.07,.38,0l2.41-1.39c.1-.06,.1-.16-.01-.22Zm-37.86,18.64c-.11-.06-.28-.07-.38,0l-2.97,1.71c-.1,.06-.1,.16,.01,.22l2.79,1.61c.11,.06,.28,.07,.38,0l2.97-1.71c.1-.06,.1-.16-.01-.22l-2.79-1.61Zm8.91-5.14c-.11-.06-.28-.07-.38,0l-3.71,2.14c-.1,.06-.1,.16,.01,.22l2.79,1.61c.11,.06,.28,.07,.38,0l3.71-2.14c.1-.06,.1-.16-.01-.22l-2.79-1.61Zm-17.07,9.86c-.11-.06-.28-.07-.38,0l-19.86,11.46c-.1,.06-.1,.16,.01,.22l2.79,1.61c.11,.06,.28,.07,.38,0l19.86-11.46c.1-.06,.1-.16-.01-.22l-2.79-1.61Zm-20.97,12.11c-.11-.06-.28-.07-.38,0l-2.97,1.71c-.1,.06-.1,.16,.01,.22l2.79,1.61c.11,.06,.28,.07,.38,0l2.97-1.71c.1-.06,.1-.16-.01-.22l-2.79-1.61Zm25.05-14.46c-.11-.06-.28-.07-.38,0l-2.97,1.71c-.1,.06-.1,.16,.01,.22l2.79,1.61c.11,.06,.28,.07,.38,0l2.97-1.71c.1-.06,.1-.16-.01-.22l-2.79-1.61Zm-29.13,16.82c-.11-.06-.28-.07-.38,0l-2.97,1.71c-.1,.06-.1,.16,.01,.22l2.79,1.61c.11,.06,.28,.07,.38,0l2.97-1.71c.1-.06,.1-.16-.01-.22l-2.79-1.61Zm37.3-21.53c-.11-.06-.28-.07-.38,0l-2.97,1.71c-.1,.06-.1,.16,.01,.22l2.79,1.61c.11,.06,.28,.07,.38,0l2.97-1.71c.1-.06,.1-.16-.01-.22l-2.79-1.61Zm12.62-7.29c-.11-.06-.28-.07-.39,0l-2.41,1.39c-.1,.06-.1,.16,.01,.22l2.79,1.61c.11,.06,.28,.07,.38,0l2.41-1.39c.1-.06,.1-.16-.01-.22l-2.79-1.61Zm7.73-5.61l2.41-1.39c.1-.06,.1-.16-.01-.22l-2.79-1.61c-.11-.06-.28-.07-.38,0l-2.41,1.39c-.1,.06-.1,.16,.01,.22l2.79,1.61c.11,.06,.28,.07,.38,0Zm-15.76-.1l2.41-1.39c.1-.06,.1-.16-.01-.22l-2.79-1.61c-.11-.06-.28-.07-.38,0l-2.41,1.39c-.1,.06-.1,.16,.01,.22l2.79,1.61c.11,.06,.28,.07,.38,0Zm-7.99,13.82l7.05-4.07c.1-.06,.1-.16-.01-.22l-2.79-1.61c-.11-.06-.28-.07-.38,0l-7.05,4.07c-.1,.06-.1,.16,.01,.22l2.79,1.61c.11,.06,.28,.07,.38,0Zm19.84-11.69c.11,.06,.28,.07,.38,0l2.41-1.39c.1-.06,.1-.16-.01-.22l-2.79-1.61c-.11-.06-.28-.07-.38,0l-2.41,1.39c-.1,.06-.1,.16,.01,.22l2.79,1.61Zm-3.6-2.29l2.41-1.39c.1-.06,.1-.16-.01-.22l-2.79-1.61c-.11-.06-.28-.07-.38,0l-2.41,1.39c-.1,.06-.1,.16,.01,.22l2.79,1.61c.11,.06,.28,.07,.38,0Zm-19.77,16.01l2.41-1.39c.1-.06,.1-.16-.01-.22l-2.79-1.61c-.11-.06-.28-.07-.38,0l-2.41,1.39c-.1,.06-.1,.16,.01,.22l2.79,1.61c.11,.06,.28,.07,.38,0Zm15.57-9.22c.11,.06,.28,.07,.38,0l2.41-1.39c.1-.06,.1-.16-.01-.22l-2.79-1.61c-.11-.06-.28-.07-.38,0l-2.41,1.39c-.1,.06-.1,.16,.01,.22l2.79,1.61Zm-33.2,19.4l2.41-1.39c.1-.06,.1-.16-.01-.22l-2.79-1.61c-.11-.06-.28-.07-.38,0l-2.41,1.39c-.1,.06-.1,.16,.01,.22l2.79,1.61c.11,.06,.28,.07,.38,0Zm3.53-2.04l2.41-1.39c.1-.06,.1-.16-.01-.22l-2.79-1.61c-.11-.06-.28-.07-.38,0l-2.41,1.39c-.1,.06-.1,.16,.01,.22l2.79,1.61c.11,.06,.28,.07,.38,0Zm-7.05,4.07l2.41-1.39c.1-.06,.1-.16-.01-.22l-2.79-1.61c-.11-.06-.28-.07-.38,0l-2.41,1.39c-.1,.06-.1,.16,.01,.22l2.79,1.61c.11,.06,.28,.07,.38,0Zm14.1-8.14l2.41-1.39c.1-.06,.1-.16-.01-.22l-2.79-1.61c-.11-.06-.28-.07-.38,0l-2.41,1.39c-.1,.06-.1,.16,.01,.22l2.79,1.61c.11,.06,.28,.07,.38,0Zm-3.53,2.04l2.41-1.39c.1-.06,.1-.16-.01-.22l-2.79-1.61c-.11-.06-.28-.07-.38,0l-2.41,1.39c-.1,.06-.1,.16,.01,.22l2.79,1.61c.11,.06,.28,.07,.38,0Zm7.05-4.07l2.41-1.39c.1-.06,.1-.16-.01-.22l-2.79-1.61c-.11-.06-.28-.07-.38,0l-2.41,1.39c-.1,.06-.1,.16,.01,.22l2.79,1.61c.11,.06,.28,.07,.38,0Zm16.13-30.11c.11,.06,.28,.07,.38,0l2.41-1.39c.1-.06,.1-.16-.01-.22l-.74-.43c-.11-.06-.28-.07-.39,0l-2.41,1.39c-.1,.06-.1,.16,.01,.22l.74,.43Zm-17.35,11.2c.11,.06,.28,.07,.38,0l2.41-1.39c.1-.06,.1-.16-.01-.22l-2.79-1.61c-.11-.06-.28-.07-.38,0l-2.41,1.39c-.1,.06-.1,.16,.01,.22l2.79,1.61Zm7.05-4.07c.11,.06,.28,.07,.38,0l2.41-1.39c.1-.06,.1-.16-.01-.22l-2.79-1.61c-.11-.06-.28-.07-.38,0l-2.41,1.39c-.1,.06-.1,.16,.01,.22l2.79,1.61Zm-11.36,6.56c.11,.06,.28,.07,.38,0l2.41-1.39c.1-.06,.1-.16-.01-.22l-2.79-1.61c-.11-.06-.28-.07-.38,0l-2.41,1.39c-.1,.06-.1,.16,.01,.22l2.79,1.61Zm7.83-4.52c.11,.06,.28,.07,.38,0l2.41-1.39c.1-.06,.1-.16-.01-.22l-2.79-1.61c-.11-.06-.28-.07-.38,0l-2.41,1.39c-.1,.06-.1,.16,.01,.22l2.79,1.61Zm-14.88,8.59c.11,.06,.28,.07,.38,0l2.41-1.39c.1-.06,.1-.16-.01-.22l-2.79-1.61c-.11-.06-.28-.07-.38,0l-2.41,1.39c-.1,.06-.1,.16,.01,.22l2.79,1.61Zm3.53-2.04c.11,.06,.28,.07,.38,0l2.41-1.39c.1-.06,.1-.16-.01-.22l-2.79-1.61c-.11-.06-.28-.07-.38,0l-2.41,1.39c-.1,.06-.1,.16,.01,.22l2.79,1.61Zm18.13-11.65c.11,.06,.28,.07,.38,0l2.41-1.39c.1-.06,.1-.16-.01-.22l-.74-.43c-.11-.06-.28-.07-.38,0l-2.41,1.39c-.1,.06-.1,.16,.01,.22l.74,.43Zm10.58-6.11c.11,.06,.28,.07,.38,0l2.41-1.39c.1-.06,.1-.16-.01-.22l-.74-.43c-.11-.06-.28-.07-.38,0l-2.41,1.39c-.1,.06-.1,.16,.01,.22l.74,.43Zm5.86,3.38c.11,.06,.28,.07,.38,0l2.41-1.39c.1-.06,.1-.16-.01-.22l-2.79-1.61c-.11-.06-.28-.07-.38,0l-2.41,1.39c-.1,.06-.1,.16,.01,.22l2.79,1.61Zm8.81,8.95l2.41-1.39c.1-.06,.1-.16-.01-.22l-2.79-1.61c-.11-.06-.28-.07-.38,0l-2.41,1.39c-.1,.06-.1,.16,.01,.22l2.79,1.61c.11,.06,.28,.07,.38,0Zm-21.73-8.26c.11,.06,.28,.07,.38,0l2.41-1.39c.1-.06,.1-.16-.01-.22l-.74-.43c-.11-.06-.28-.07-.38,0l-2.41,1.39c-.1,.06-.1,.16,.01,.22l.74,.43Zm-28.71,17.75c.11,.06,.28,.07,.38,0l2.41-1.39c.1-.06,.1-.16-.01-.22l-2.79-1.61c-.11-.06-.28-.07-.38,0l-2.41,1.39c-.1,.06-.1,.16,.01,.22l2.79,1.61Z"/>
          <path class="cls-38" d="M279.44,242.64l23.81-13.74c.72-.41,1.88-.41,2.6,0l13.65,7.88c.72,.41,.72,1.09,0,1.5l-23.81,13.74c-.72,.41-1.88,.41-2.6,0l-13.65-7.88c-.72-.41-.72-1.09,0-1.5Z"/>
          <path class="cls-49" d="M279.44,242.64l23.81-13.74c.72-.41,1.88-.41,2.6,0l13.65,7.88c.72,.41,.72,1.09,0,1.5l-23.81,13.74c-.72,.41-1.88,.41-2.6,0l-13.65-7.88c-.72-.41-.72-1.09,0-1.5Z"/>
          <path class="cls-38" d="M200.96,234c.2,.11,.42,.21,.66,.29-.24-.07-.47-.16-.66-.28-.07-.04-.14-.09-.21-.14,.06,.04,.13,.09,.21,.13Z"/>
          <path class="cls-38" d="M204.75,234.2s.02-.02,.03-.03c0,.01-.02,.02-.02,.03t0,0Z"/>
        </g>
        <g id="Window">
          <path class="cls-38" d="M208.19,218.13c0,1.02,.72,1.44,1.6,.92l73.43-42.4c.88-.51,1.6-1.75,1.6-2.77v-49.43s-76.63,44.24-76.63,44.24v49.43Z"/>
          <path class="cls-21" d="M208.19,218.13c0,1.02,.72,1.44,1.6,.92l73.43-42.4c.88-.51,1.6-1.75,1.6-2.77v-49.43s-76.63,44.24-76.63,44.24v49.43Z"/>
          <g>
            <path class="cls-42" d="M208.19,165.34c0-1.02,.72-2.26,1.6-2.77l73.43-42.39c.88-.51,1.6-.1,1.6,.92v3.36l-76.63,44.24v-3.36Z"/>
            <g>
              <path class="cls-22" d="M275.81,126.18c-.41,.24-.75,.82-.75,1.3s.34,.67,.75,.43,.75-.82,.75-1.3-.34-.67-.75-.43Z"/>
              <path class="cls-22" d="M278.44,124.67c-.41,.24-.75,.82-.75,1.3s.34,.67,.75,.43c.41-.24,.75-.82,.75-1.3s-.34-.67-.75-.43Z"/>
              <path class="cls-22" d="M281.07,123.15c-.41,.24-.75,.82-.75,1.3s.34,.67,.75,.43c.41-.24,.75-.82,.75-1.3s-.34-.67-.75-.43Z"/>
            </g>
          </g>
        </g>
      </g>
      <g id="Server">
        <g>
          <polygon class="cls-38" points="152.66 271.83 98.23 303.25 43.79 271.83 98.23 240.4 152.66 271.83"/>
          <polygon class="cls-27" points="152.66 271.83 98.23 303.25 43.79 271.83 98.23 240.4 152.66 271.83"/>
          <polygon class="cls-44" points="98.23 303.25 98.23 299.33 47.2 269.86 43.79 271.83 98.23 303.25"/>
          <path class="cls-38" d="M98.23,303.25v14.49c1.31,0,2.62-.29,3.63-.86h0s23.58-13.62,23.58-13.62l25.04-14.46c1.21-.7,2.18-2.38,2.18-3.77v-13.2l-54.43,31.42Z"/>
          <path class="cls-3" d="M98.23,303.25v14.49c1.31,0,2.62-.29,3.63-.86h0s23.58-13.62,23.58-13.62l25.04-14.46c1.21-.7,2.18-2.38,2.18-3.77v-13.2l-54.43,31.42Z"/>
          <g>
            <path class="cls-21" d="M147.44,278.77l-26.99,15.58c-1,.58-1.81,1.98-1.81,3.14v3.67c0,1.16,.81,1.63,1.81,1.05l26.99-15.58c1-.58,1.81-1.98,1.81-3.14v-3.67c0-1.16-.81-1.63-1.81-1.05Z"/>
            <g>
              <path class="cls-43" d="M147.34,281.88v1.78c0,.23-.16,.51-.36,.63l-.41,.24c-.2,.12-.36,.02-.36-.21v-1.78c0-.23,.16-.51,.36-.63l.41-.24c.2-.12,.36-.02,.36,.21Z"/>
              <path class="cls-43" d="M145.51,282.94v1.78c0,.23-.16,.51-.36,.63l-.41,.24c-.2,.12-.36,.02-.36-.21v-1.78c0-.23,.16-.51,.36-.63l.41-.24c.2-.12,.36-.02,.36,.21Z"/>
              <path class="cls-43" d="M143.68,283.99v1.78c0,.23-.16,.51-.36,.63l-.41,.24c-.2,.12-.36,.02-.36-.21v-1.78c0-.23,.16-.51,.36-.63l.41-.24c.2-.12,.36-.02,.36,.21Z"/>
              <path class="cls-16" d="M141.85,285.05v1.78c0,.23-.16,.51-.36,.63l-.41,.24c-.2,.12-.36,.02-.36-.21v-1.78c0-.23,.16-.51,.36-.63l.41-.24c.2-.12,.36-.02,.36,.21Z"/>
              <path class="cls-16" d="M140.01,286.11v1.78c0,.23-.16,.51-.36,.63l-.41,.24c-.2,.12-.36,.02-.36-.21v-1.78c0-.23,.16-.51,.36-.63l.41-.24c.2-.12,.36-.02,.36,.21Z"/>
              <path class="cls-43" d="M138.18,287.16v1.78c0,.23-.16,.51-.36,.63l-.41,.24c-.2,.12-.36,.02-.36-.21v-1.78c0-.23,.16-.51,.36-.63l.41-.24c.2-.12,.36-.02,.36,.21Z"/>
              <path class="cls-43" d="M136.35,288.22v1.78c0,.23-.16,.51-.36,.63l-.41,.24c-.2,.12-.36,.02-.36-.21v-1.78c0-.23,.16-.51,.36-.63l.41-.24c.2-.12,.36-.02,.36,.21Z"/>
              <path class="cls-43" d="M134.51,289.28v1.78c0,.23-.16,.51-.36,.63l-.41,.24c-.2,.12-.36,.02-.36-.21v-1.78c0-.23,.16-.51,.36-.63l.41-.24c.2-.12,.36-.02,.36,.21Z"/>
              <path class="cls-43" d="M132.68,290.33v1.78c0,.23-.16,.51-.36,.63l-.41,.24c-.2,.12-.36,.02-.36-.21v-1.78c0-.23,.16-.51,.36-.63l.41-.24c.2-.12,.36-.02,.36,.21Z"/>
              <path class="cls-43" d="M130.85,291.39v1.78c0,.23-.16,.51-.36,.63l-.41,.24c-.2,.12-.36,.02-.36-.21v-1.78c0-.23,.16-.51,.36-.63l.41-.24c.2-.12,.36-.02,.36,.21Z"/>
              <path class="cls-43" d="M129.02,292.45v1.78c0,.23-.16,.51-.36,.63l-.41,.24c-.2,.12-.36,.02-.36-.21v-1.78c0-.23,.16-.51,.36-.63l.41-.24c.2-.12,.36-.02,.36,.21Z"/>
              <path class="cls-43" d="M127.18,293.5v1.78c0,.23-.16,.51-.36,.63l-.41,.24c-.2,.12-.36,.02-.36-.21v-1.78c0-.23,.16-.51,.36-.63l.41-.24c.2-.12,.36-.02,.36,.21Z"/>
              <path class="cls-16" d="M125.35,294.56v1.78c0,.23-.16,.51-.36,.63l-.41,.24c-.2,.12-.36,.02-.36-.21v-1.78c0-.23,.16-.51,.36-.63l.41-.24c.2-.12,.36-.02,.36,.21Z"/>
              <path class="cls-43" d="M123.52,295.62v1.78c0,.23-.16,.51-.36,.63l-.41,.24c-.2,.12-.36,.02-.36-.21v-1.78c0-.23,.16-.51,.36-.63l.41-.24c.2-.12,.36-.02,.36,.21Z"/>
              <path class="cls-43" d="M121.68,296.67v1.78c0,.23-.16,.51-.36,.63l-.41,.24c-.2,.12-.36,.02-.36-.21v-1.78c0-.23,.16-.51,.36-.63l.41-.24c.2-.12,.36-.02,.36,.21Z"/>
            </g>
          </g>
          <path class="cls-38" d="M43.79,271.83v13.2c0,1.39,.98,3.07,2.18,3.77l21.64,12.5,26.99,15.59c1.01,.58,2.31,.86,3.63,.86v-14.49l-54.44-31.42Z"/>
          <path class="cls-8" d="M43.79,271.83v13.2c0,1.39,.98,3.07,2.18,3.77l21.64,12.5,26.99,15.59c1.01,.58,2.31,.86,3.63,.86v-14.49l-54.44-31.42Z"/>
          <g>
            <g class="cls-36">
              <path class="cls-11" d="M52.41,280.75l13.38,7.73c1,.58,1.81,1.98,1.81,3.14v3.67c0,1.16-.81,1.63-1.81,1.05l-13.38-7.73c-1-.58-1.81-1.98-1.81-3.14v-3.67c0-1.16,.81-1.63,1.81-1.05Z"/>
            </g>
            <g>
              <g>
                <path class="cls-38" d="M54.13,284.89l.83-.48h0s0,0,0,0h0c.28-.16,.68-.14,1.11,.11,.87,.5,1.58,1.72,1.58,2.73,0,.5-.18,.85-.46,1.02h0s0,0,0,0h0s-.77,.44-.77,.44l-.14-.23c-.14-.03-.29-.08-.45-.18-.87-.5-1.58-1.72-1.58-2.73,0-.15,.02-.28,.05-.4l-.17-.28Z"/>
                <path class="cls-28" d="M54.13,284.89l.83-.48h0s0,0,0,0h0c.28-.16,.68-.14,1.11,.11,.87,.5,1.58,1.72,1.58,2.73,0,.5-.18,.85-.46,1.02h0s0,0,0,0h0s-.77,.44-.77,.44l-.14-.23c-.14-.03-.29-.08-.45-.18-.87-.5-1.58-1.72-1.58-2.73,0-.15,.02-.28,.05-.4l-.17-.28Z"/>
                <path class="cls-38" d="M55.28,284.98c.87,.5,1.58,1.72,1.58,2.73s-.71,1.41-1.58,.91c-.87-.5-1.58-1.72-1.58-2.73,0-1.01,.71-1.41,1.58-.91Z"/>
              </g>
              <g>
                <path class="cls-38" d="M60.97,288.84l.83-.48h0s0,0,0,0h0c.28-.16,.68-.14,1.11,.11,.87,.5,1.58,1.72,1.58,2.73,0,.5-.18,.85-.46,1.02h0s0,0,0,0h0s-.77,.44-.77,.44l-.14-.23c-.14-.03-.29-.08-.45-.18-.87-.5-1.58-1.72-1.58-2.73,0-.15,.02-.28,.05-.4l-.17-.28Z"/>
                <path class="cls-28" d="M60.97,288.84l.83-.48h0s0,0,0,0h0c.28-.16,.68-.14,1.11,.11,.87,.5,1.58,1.72,1.58,2.73,0,.5-.18,.85-.46,1.02h0s0,0,0,0h0s-.77,.44-.77,.44l-.14-.23c-.14-.03-.29-.08-.45-.18-.87-.5-1.58-1.72-1.58-2.73,0-.15,.02-.28,.05-.4l-.17-.28Z"/>
                <path class="cls-38" d="M62.12,288.93c.87,.5,1.58,1.72,1.58,2.73,0,1.01-.71,1.41-1.58,.91-.87-.5-1.58-1.72-1.58-2.73,0-1.01,.71-1.41,1.58-.91Z"/>
              </g>
            </g>
          </g>
          <g>
            <g class="cls-36">
              <path class="cls-11" d="M52.41,280.75l13.38,7.73c1,.58,1.81,1.98,1.81,3.14v3.67c0,1.16-.81,1.63-1.81,1.05l-13.38-7.73c-1-.58-1.81-1.98-1.81-3.14v-3.67c0-1.16,.81-1.63,1.81-1.05Z"/>
            </g>
            <g>
              <g>
                <path class="cls-38" d="M54.13,284.89l.83-.48h0s0,0,0,0h0c.28-.16,.68-.14,1.11,.11,.87,.5,1.58,1.72,1.58,2.73,0,.5-.18,.85-.46,1.02h0s0,0,0,0h0s-.77,.44-.77,.44l-.14-.23c-.14-.03-.29-.08-.45-.18-.87-.5-1.58-1.72-1.58-2.73,0-.15,.02-.28,.05-.4l-.17-.28Z"/>
                <path class="cls-28" d="M54.13,284.89l.83-.48h0s0,0,0,0h0c.28-.16,.68-.14,1.11,.11,.87,.5,1.58,1.72,1.58,2.73,0,.5-.18,.85-.46,1.02h0s0,0,0,0h0s-.77,.44-.77,.44l-.14-.23c-.14-.03-.29-.08-.45-.18-.87-.5-1.58-1.72-1.58-2.73,0-.15,.02-.28,.05-.4l-.17-.28Z"/>
                <path class="cls-38" d="M55.28,284.98c.87,.5,1.58,1.72,1.58,2.73s-.71,1.41-1.58,.91c-.87-.5-1.58-1.72-1.58-2.73,0-1.01,.71-1.41,1.58-.91Z"/>
              </g>
              <g>
                <path class="cls-38" d="M60.97,288.84l.83-.48h0s0,0,0,0h0c.28-.16,.68-.14,1.11,.11,.87,.5,1.58,1.72,1.58,2.73,0,.5-.18,.85-.46,1.02h0s0,0,0,0h0s-.77,.44-.77,.44l-.14-.23c-.14-.03-.29-.08-.45-.18-.87-.5-1.58-1.72-1.58-2.73,0-.15,.02-.28,.05-.4l-.17-.28Z"/>
                <path class="cls-28" d="M60.97,288.84l.83-.48h0s0,0,0,0h0c.28-.16,.68-.14,1.11,.11,.87,.5,1.58,1.72,1.58,2.73,0,.5-.18,.85-.46,1.02h0s0,0,0,0h0s-.77,.44-.77,.44l-.14-.23c-.14-.03-.29-.08-.45-.18-.87-.5-1.58-1.72-1.58-2.73,0-.15,.02-.28,.05-.4l-.17-.28Z"/>
                <path class="cls-38" d="M62.12,288.93c.87,.5,1.58,1.72,1.58,2.73,0,1.01-.71,1.41-1.58,.91-.87-.5-1.58-1.72-1.58-2.73,0-1.01,.71-1.41,1.58-.91Z"/>
              </g>
            </g>
          </g>
          <g>
            <path class="cls-38" d="M113.81,301.07l-.83-.48h0s0,0,0,0h0c-.28-.16-.68-.14-1.11,.11-.87,.5-1.58,1.72-1.58,2.73,0,.5,.18,.85,.46,1.02h0s0,0,0,0h0s.77,.44,.77,.44l.14-.23c.14-.03,.29-.08,.45-.18,.87-.5,1.58-1.72,1.58-2.73,0-.15-.02-.28-.05-.4l.17-.28Z"/>
            <path class="cls-34" d="M113.81,301.07l-.83-.48h0s0,0,0,0h0c-.28-.16-.68-.14-1.11,.11-.87,.5-1.58,1.72-1.58,2.73,0,.5,.18,.85,.46,1.02h0s0,0,0,0h0s.77,.44,.77,.44l.14-.23c.14-.03,.29-.08,.45-.18,.87-.5,1.58-1.72,1.58-2.73,0-.15-.02-.28-.05-.4l.17-.28Z"/>
            <path class="cls-38" d="M112.66,301.16c-.87,.5-1.58,1.72-1.58,2.73s.71,1.41,1.58,.91c.87-.5,1.58-1.72,1.58-2.73,0-1.01-.71-1.41-1.58-.91Z"/>
            <path class="cls-28" d="M112.66,301.16c-.87,.5-1.58,1.72-1.58,2.73s.71,1.41,1.58,.91c.87-.5,1.58-1.72,1.58-2.73,0-1.01-.71-1.41-1.58-.91Z"/>
          </g>
          <g>
            <path class="cls-38" d="M106.97,305.02l-.83-.48h0s0,0,0,0h0c-.28-.16-.68-.14-1.11,.11-.87,.5-1.58,1.72-1.58,2.73,0,.5,.18,.85,.46,1.02h0s0,0,0,0h0s.77,.44,.77,.44l.14-.23c.14-.03,.29-.08,.45-.18,.87-.5,1.58-1.72,1.58-2.73,0-.15-.02-.28-.05-.4l.17-.28Z"/>
            <path class="cls-34" d="M106.97,305.02l-.83-.48h0s0,0,0,0h0c-.28-.16-.68-.14-1.11,.11-.87,.5-1.58,1.72-1.58,2.73,0,.5,.18,.85,.46,1.02h0s0,0,0,0h0s.77,.44,.77,.44l.14-.23c.14-.03,.29-.08,.45-.18,.87-.5,1.58-1.72,1.58-2.73,0-.15-.02-.28-.05-.4l.17-.28Z"/>
            <path class="cls-38" d="M105.82,305.11c-.87,.5-1.58,1.72-1.58,2.73s.71,1.41,1.58,.91c.87-.5,1.58-1.72,1.58-2.73,0-1.01-.71-1.41-1.58-.91Z"/>
            <path class="cls-28" d="M105.82,305.11c-.87,.5-1.58,1.72-1.58,2.73s.71,1.41,1.58,.91c.87-.5,1.58-1.72,1.58-2.73,0-1.01-.71-1.41-1.58-.91Z"/>
          </g>
        </g>
        <g>
          <polygon class="cls-38" points="152.66 248.26 98.23 279.68 43.79 248.26 98.23 216.83 152.66 248.26"/>
          <polygon class="cls-32" points="152.66 248.26 98.23 279.68 43.79 248.26 98.23 216.83 152.66 248.26"/>
          <polygon class="cls-30" points="98.23 279.68 98.23 275.76 47.2 246.29 43.79 248.26 98.23 279.68"/>
          <polygon class="cls-38" points="152.66 263.97 98.23 295.4 98.23 279.68 152.66 248.26 152.66 263.97"/>
          <polygon class="cls-1" points="152.66 263.97 98.23 295.4 98.23 279.68 152.66 248.26 152.66 263.97"/>
          <g>
            <path class="cls-21" d="M147.44,255.21l-26.99,15.58c-1,.58-1.81,1.98-1.81,3.14v3.67c0,1.16,.81,1.63,1.81,1.05l26.99-15.58c1-.58,1.81-1.98,1.81-3.14v-3.67c0-1.16-.81-1.63-1.81-1.05Z"/>
            <g>
              <path class="cls-43" d="M147.34,258.32v1.78c0,.23-.16,.51-.36,.63l-.41,.24c-.2,.12-.36,.02-.36-.21v-1.78c0-.23,.16-.51,.36-.63l.41-.24c.2-.12,.36-.02,.36,.21Z"/>
              <path class="cls-16" d="M145.51,259.37v1.78c0,.23-.16,.51-.36,.63l-.41,.24c-.2,.12-.36,.02-.36-.21v-1.78c0-.23,.16-.51,.36-.63l.41-.24c.2-.12,.36-.02,.36,.21Z"/>
              <path class="cls-43" d="M143.68,260.43v1.78c0,.23-.16,.51-.36,.63l-.41,.24c-.2,.12-.36,.02-.36-.21v-1.78c0-.23,.16-.51,.36-.63l.41-.24c.2-.12,.36-.02,.36,.21Z"/>
              <path class="cls-16" d="M141.85,261.49v1.78c0,.23-.16,.51-.36,.63l-.41,.24c-.2,.12-.36,.02-.36-.21v-1.78c0-.23,.16-.51,.36-.63l.41-.24c.2-.12,.36-.02,.36,.21Z"/>
              <path class="cls-16" d="M140.01,262.54v1.78c0,.23-.16,.51-.36,.63l-.41,.24c-.2,.12-.36,.02-.36-.21v-1.78c0-.23,.16-.51,.36-.63l.41-.24c.2-.12,.36-.02,.36,.21Z"/>
              <path class="cls-43" d="M138.18,263.6v1.78c0,.23-.16,.51-.36,.63l-.41,.24c-.2,.12-.36,.02-.36-.21v-1.78c0-.23,.16-.51,.36-.63l.41-.24c.2-.12,.36-.02,.36,.21Z"/>
              <path class="cls-43" d="M136.35,264.65v1.78c0,.23-.16,.51-.36,.63l-.41,.24c-.2,.12-.36,.02-.36-.21v-1.78c0-.23,.16-.51,.36-.63l.41-.24c.2-.12,.36-.02,.36,.21Z"/>
              <path class="cls-43" d="M134.51,265.71v1.78c0,.23-.16,.51-.36,.63l-.41,.24c-.2,.12-.36,.02-.36-.21v-1.78c0-.23,.16-.51,.36-.63l.41-.24c.2-.12,.36-.02,.36,.21Z"/>
              <path class="cls-16" d="M132.68,266.77v1.78c0,.23-.16,.51-.36,.63l-.41,.24c-.2,.12-.36,.02-.36-.21v-1.78c0-.23,.16-.51,.36-.63l.41-.24c.2-.12,.36-.02,.36,.21Z"/>
              <path class="cls-43" d="M130.85,267.82v1.78c0,.23-.16,.51-.36,.63l-.41,.24c-.2,.12-.36,.02-.36-.21v-1.78c0-.23,.16-.51,.36-.63l.41-.24c.2-.12,.36-.02,.36,.21Z"/>
              <path class="cls-16" d="M129.02,268.88v1.78c0,.23-.16,.51-.36,.63l-.41,.24c-.2,.12-.36,.02-.36-.21v-1.78c0-.23,.16-.51,.36-.63l.41-.24c.2-.12,.36-.02,.36,.21Z"/>
              <path class="cls-43" d="M127.18,269.94v1.78c0,.23-.16,.51-.36,.63l-.41,.24c-.2,.12-.36,.02-.36-.21v-1.78c0-.23,.16-.51,.36-.63l.41-.24c.2-.12,.36-.02,.36,.21Z"/>
              <path class="cls-16" d="M125.35,270.99v1.78c0,.23-.16,.51-.36,.63l-.41,.24c-.2,.12-.36,.02-.36-.21v-1.78c0-.23,.16-.51,.36-.63l.41-.24c.2-.12,.36-.02,.36,.21Z"/>
              <path class="cls-43" d="M123.52,272.05v1.78c0,.23-.16,.51-.36,.63l-.41,.24c-.2,.12-.36,.02-.36-.21v-1.78c0-.23,.16-.51,.36-.63l.41-.24c.2-.12,.36-.02,.36,.21Z"/>
              <path class="cls-43" d="M121.68,273.11v1.78c0,.23-.16,.51-.36,.63l-.41,.24c-.2,.12-.36,.02-.36-.21v-1.78c0-.23,.16-.51,.36-.63l.41-.24c.2-.12,.36-.02,.36,.21Z"/>
            </g>
          </g>
          <polygon class="cls-38" points="98.23 295.4 43.79 263.97 43.79 248.26 98.23 279.68 98.23 295.4"/>
          <polygon class="cls-6" points="98.23 295.4 43.79 263.97 43.79 248.26 98.23 279.68 98.23 295.4"/>
          <g>
            <g class="cls-36">
              <path class="cls-11" d="M52.41,257.16l13.38,7.73c1,.58,1.81,1.98,1.81,3.14v3.67c0,1.16-.81,1.63-1.81,1.05l-13.38-7.73c-1-.58-1.81-1.98-1.81-3.14v-3.67c0-1.16,.81-1.63,1.81-1.05Z"/>
            </g>
            <g>
              <g>
                <path class="cls-38" d="M54.13,261.3l.83-.48h0s0,0,0,0h0c.28-.16,.68-.14,1.11,.11,.87,.5,1.58,1.72,1.58,2.73,0,.5-.18,.85-.46,1.02h0s0,0,0,0h0s-.77,.44-.77,.44l-.14-.23c-.14-.03-.29-.08-.45-.18-.87-.5-1.58-1.72-1.58-2.73,0-.15,.02-.28,.05-.4l-.17-.28Z"/>
                <path class="cls-28" d="M54.13,261.3l.83-.48h0s0,0,0,0h0c.28-.16,.68-.14,1.11,.11,.87,.5,1.58,1.72,1.58,2.73,0,.5-.18,.85-.46,1.02h0s0,0,0,0h0s-.77,.44-.77,.44l-.14-.23c-.14-.03-.29-.08-.45-.18-.87-.5-1.58-1.72-1.58-2.73,0-.15,.02-.28,.05-.4l-.17-.28Z"/>
                <path class="cls-38" d="M55.28,261.39c.87,.5,1.58,1.72,1.58,2.73s-.71,1.41-1.58,.91c-.87-.5-1.58-1.72-1.58-2.73,0-1.01,.71-1.41,1.58-.91Z"/>
              </g>
              <g>
                <path class="cls-38" d="M60.97,265.25l.83-.48h0s0,0,0,0h0c.28-.16,.68-.14,1.11,.11,.87,.5,1.58,1.72,1.58,2.73,0,.5-.18,.85-.46,1.02h0s0,0,0,0h0s-.77,.44-.77,.44l-.14-.23c-.14-.03-.29-.08-.45-.18-.87-.5-1.58-1.72-1.58-2.73,0-.15,.02-.28,.05-.4l-.17-.28Z"/>
                <path class="cls-28" d="M60.97,265.25l.83-.48h0s0,0,0,0h0c.28-.16,.68-.14,1.11,.11,.87,.5,1.58,1.72,1.58,2.73,0,.5-.18,.85-.46,1.02h0s0,0,0,0h0s-.77,.44-.77,.44l-.14-.23c-.14-.03-.29-.08-.45-.18-.87-.5-1.58-1.72-1.58-2.73,0-.15,.02-.28,.05-.4l-.17-.28Z"/>
                <path class="cls-38" d="M62.12,265.34c.87,.5,1.58,1.72,1.58,2.73,0,1.01-.71,1.41-1.58,.91-.87-.5-1.58-1.72-1.58-2.73,0-1.01,.71-1.41,1.58-.91Z"/>
              </g>
            </g>
          </g>
          <polygon class="cls-25" points="145.86 271.83 145.85 267.9 98.23 295.4 98.23 299.33 145.86 271.83"/>
          <g>
            <polygon class="cls-38" points="47.19 265.93 47.2 269.86 98.23 299.33 98.23 295.4 47.19 265.93"/>
            <polygon class="cls-23" points="47.19 265.93 47.2 269.86 98.23 299.33 98.23 295.4 47.19 265.93"/>
          </g>
          <g>
            <path class="cls-38" d="M113.81,277.5l-.83-.48h0s0,0,0,0h0c-.28-.16-.68-.14-1.11,.11-.87,.5-1.58,1.72-1.58,2.73,0,.5,.18,.85,.46,1.02h0s0,0,0,0h0s.77,.44,.77,.44l.14-.23c.14-.03,.29-.08,.45-.18,.87-.5,1.58-1.72,1.58-2.73,0-.15-.02-.28-.05-.4l.17-.28Z"/>
            <path class="cls-34" d="M113.81,277.5l-.83-.48h0s0,0,0,0h0c-.28-.16-.68-.14-1.11,.11-.87,.5-1.58,1.72-1.58,2.73,0,.5,.18,.85,.46,1.02h0s0,0,0,0h0s.77,.44,.77,.44l.14-.23c.14-.03,.29-.08,.45-.18,.87-.5,1.58-1.72,1.58-2.73,0-.15-.02-.28-.05-.4l.17-.28Z"/>
            <path class="cls-38" d="M112.66,277.59c-.87,.5-1.58,1.72-1.58,2.73s.71,1.41,1.58,.91c.87-.5,1.58-1.72,1.58-2.73,0-1.01-.71-1.41-1.58-.91Z"/>
            <path class="cls-28" d="M112.66,277.59c-.87,.5-1.58,1.72-1.58,2.73s.71,1.41,1.58,.91c.87-.5,1.58-1.72,1.58-2.73,0-1.01-.71-1.41-1.58-.91Z"/>
          </g>
          <g>
            <path class="cls-38" d="M106.97,281.45l-.83-.48h0s0,0,0,0h0c-.28-.16-.68-.14-1.11,.11-.87,.5-1.58,1.72-1.58,2.73,0,.5,.18,.85,.46,1.02h0s0,0,0,0h0s.77,.44,.77,.44l.14-.23c.14-.03,.29-.08,.45-.18,.87-.5,1.58-1.72,1.58-2.73,0-.15-.02-.28-.05-.4l.17-.28Z"/>
            <path class="cls-34" d="M106.97,281.45l-.83-.48h0s0,0,0,0h0c-.28-.16-.68-.14-1.11,.11-.87,.5-1.58,1.72-1.58,2.73,0,.5,.18,.85,.46,1.02h0s0,0,0,0h0s.77,.44,.77,.44l.14-.23c.14-.03,.29-.08,.45-.18,.87-.5,1.58-1.72,1.58-2.73,0-.15-.02-.28-.05-.4l.17-.28Z"/>
            <path class="cls-38" d="M105.82,281.54c-.87,.5-1.58,1.72-1.58,2.73s.71,1.41,1.58,.91c.87-.5,1.58-1.72,1.58-2.73,0-1.01-.71-1.41-1.58-.91Z"/>
            <path class="cls-28" d="M105.82,281.54c-.87,.5-1.58,1.72-1.58,2.73s.71,1.41,1.58,.91c.87-.5,1.58-1.72,1.58-2.73,0-1.01-.71-1.41-1.58-.91Z"/>
          </g>
        </g>
        <g>
          <polygon class="cls-38" points="152.66 224.69 98.23 256.11 43.79 224.69 98.23 193.26 152.66 224.69"/>
          <polygon class="cls-35" points="152.66 224.69 98.23 256.11 43.79 224.69 98.23 193.26 152.66 224.69"/>
          <polygon class="cls-15" points="98.23 256.11 98.23 252.19 47.2 222.72 43.79 224.69 98.23 256.11"/>
          <polygon class="cls-38" points="152.66 240.4 98.23 271.83 98.23 256.11 152.66 224.69 152.66 240.4"/>
          <polygon class="cls-2" points="152.66 240.4 98.23 271.83 98.23 256.11 152.66 224.69 152.66 240.4"/>
          <g>
            <path class="cls-21" d="M147.44,231.62l-26.99,15.58c-1,.58-1.81,1.98-1.81,3.14v3.67c0,1.16,.81,1.63,1.81,1.05l26.99-15.58c1-.58,1.81-1.98,1.81-3.14v-3.67c0-1.16-.81-1.63-1.81-1.05Z"/>
            <g>
              <path class="cls-43" d="M147.34,234.72v1.78c0,.23-.16,.51-.36,.63l-.41,.24c-.2,.12-.36,.02-.36-.21v-1.78c0-.23,.16-.51,.36-.63l.41-.24c.2-.12,.36-.02,.36,.21Z"/>
              <path class="cls-43" d="M145.51,235.78v1.78c0,.23-.16,.51-.36,.63l-.41,.24c-.2,.12-.36,.02-.36-.21v-1.78c0-.23,.16-.51,.36-.63l.41-.24c.2-.12,.36-.02,.36,.21Z"/>
              <path class="cls-43" d="M143.68,236.84v1.78c0,.23-.16,.51-.36,.63l-.41,.24c-.2,.12-.36,.02-.36-.21v-1.78c0-.23,.16-.51,.36-.63l.41-.24c.2-.12,.36-.02,.36,.21Z"/>
              <path class="cls-43" d="M141.85,237.89v1.78c0,.23-.16,.51-.36,.63l-.41,.24c-.2,.12-.36,.02-.36-.21v-1.78c0-.23,.16-.51,.36-.63l.41-.24c.2-.12,.36-.02,.36,.21Z"/>
              <path class="cls-16" d="M140.01,238.95v1.78c0,.23-.16,.51-.36,.63l-.41,.24c-.2,.12-.36,.02-.36-.21v-1.78c0-.23,.16-.51,.36-.63l.41-.24c.2-.12,.36-.02,.36,.21Z"/>
              <path class="cls-16" d="M138.18,240.01v1.78c0,.23-.16,.51-.36,.63l-.41,.24c-.2,.12-.36,.02-.36-.21v-1.78c0-.23,.16-.51,.36-.63l.41-.24c.2-.12,.36-.02,.36,.21Z"/>
              <path class="cls-43" d="M136.35,241.06v1.78c0,.23-.16,.51-.36,.63l-.41,.24c-.2,.12-.36,.02-.36-.21v-1.78c0-.23,.16-.51,.36-.63l.41-.24c.2-.12,.36-.02,.36,.21Z"/>
              <path class="cls-43" d="M134.51,242.12v1.78c0,.23-.16,.51-.36,.63l-.41,.24c-.2,.12-.36,.02-.36-.21v-1.78c0-.23,.16-.51,.36-.63l.41-.24c.2-.12,.36-.02,.36,.21Z"/>
              <path class="cls-43" d="M132.68,243.18v1.78c0,.23-.16,.51-.36,.63l-.41,.24c-.2,.12-.36,.02-.36-.21v-1.78c0-.23,.16-.51,.36-.63l.41-.24c.2-.12,.36-.02,.36,.21Z"/>
              <path class="cls-16" d="M130.85,244.23v1.78c0,.23-.16,.51-.36,.63l-.41,.24c-.2,.12-.36,.02-.36-.21v-1.78c0-.23,.16-.51,.36-.63l.41-.24c.2-.12,.36-.02,.36,.21Z"/>
              <path class="cls-43" d="M129.02,245.29v1.78c0,.23-.16,.51-.36,.63l-.41,.24c-.2,.12-.36,.02-.36-.21v-1.78c0-.23,.16-.51,.36-.63l.41-.24c.2-.12,.36-.02,.36,.21Z"/>
              <path class="cls-43" d="M127.18,246.35v1.78c0,.23-.16,.51-.36,.63l-.41,.24c-.2,.12-.36,.02-.36-.21v-1.78c0-.23,.16-.51,.36-.63l.41-.24c.2-.12,.36-.02,.36,.21Z"/>
              <path class="cls-16" d="M125.35,247.4v1.78c0,.23-.16,.51-.36,.63l-.41,.24c-.2,.12-.36,.02-.36-.21v-1.78c0-.23,.16-.51,.36-.63l.41-.24c.2-.12,.36-.02,.36,.21Z"/>
              <path class="cls-43" d="M123.52,248.46v1.78c0,.23-.16,.51-.36,.63l-.41,.24c-.2,.12-.36,.02-.36-.21v-1.78c0-.23,.16-.51,.36-.63l.41-.24c.2-.12,.36-.02,.36,.21Z"/>
              <path class="cls-16" d="M121.68,249.51v1.78c0,.23-.16,.51-.36,.63l-.41,.24c-.2,.12-.36,.02-.36-.21v-1.78c0-.23,.16-.51,.36-.63l.41-.24c.2-.12,.36-.02,.36,.21Z"/>
            </g>
          </g>
          <polygon class="cls-38" points="98.23 271.83 43.79 240.4 43.79 224.69 98.23 256.11 98.23 271.83"/>
          <polygon class="cls-4" points="98.23 271.83 43.79 240.4 43.79 224.69 98.23 256.11 98.23 271.83"/>
          <g>
            <g class="cls-36">
              <path class="cls-11" d="M52.41,233.59l13.38,7.73c1,.58,1.81,1.98,1.81,3.14v3.67c0,1.16-.81,1.63-1.81,1.05l-13.38-7.73c-1-.58-1.81-1.98-1.81-3.14v-3.67c0-1.16,.81-1.63,1.81-1.05Z"/>
            </g>
            <g>
              <g>
                <path class="cls-38" d="M54.13,237.73l.83-.48h0s0,0,0,0h0c.28-.16,.68-.14,1.11,.11,.87,.5,1.58,1.72,1.58,2.73,0,.5-.18,.85-.46,1.02h0s0,0,0,0h0s-.77,.44-.77,.44l-.14-.23c-.14-.03-.29-.08-.45-.18-.87-.5-1.58-1.72-1.58-2.73,0-.15,.02-.28,.05-.4l-.17-.28Z"/>
                <path class="cls-28" d="M54.13,237.73l.83-.48h0s0,0,0,0h0c.28-.16,.68-.14,1.11,.11,.87,.5,1.58,1.72,1.58,2.73,0,.5-.18,.85-.46,1.02h0s0,0,0,0h0s-.77,.44-.77,.44l-.14-.23c-.14-.03-.29-.08-.45-.18-.87-.5-1.58-1.72-1.58-2.73,0-.15,.02-.28,.05-.4l-.17-.28Z"/>
                <path class="cls-38" d="M55.28,237.82c.87,.5,1.58,1.72,1.58,2.73s-.71,1.41-1.58,.91c-.87-.5-1.58-1.72-1.58-2.73,0-1.01,.71-1.41,1.58-.91Z"/>
              </g>
              <g>
                <path class="cls-38" d="M60.97,241.68l.83-.48h0s0,0,0,0h0c.28-.16,.68-.14,1.11,.11,.87,.5,1.58,1.72,1.58,2.73,0,.5-.18,.85-.46,1.02h0s0,0,0,0h0s-.77,.44-.77,.44l-.14-.23c-.14-.03-.29-.08-.45-.18-.87-.5-1.58-1.72-1.58-2.73,0-.15,.02-.28,.05-.4l-.17-.28Z"/>
                <path class="cls-28" d="M60.97,241.68l.83-.48h0s0,0,0,0h0c.28-.16,.68-.14,1.11,.11,.87,.5,1.58,1.72,1.58,2.73,0,.5-.18,.85-.46,1.02h0s0,0,0,0h0s-.77,.44-.77,.44l-.14-.23c-.14-.03-.29-.08-.45-.18-.87-.5-1.58-1.72-1.58-2.73,0-.15,.02-.28,.05-.4l-.17-.28Z"/>
                <path class="cls-38" d="M62.12,241.77c.87,.5,1.58,1.72,1.58,2.73,0,1.01-.71,1.41-1.58,.91-.87-.5-1.58-1.72-1.58-2.73,0-1.01,.71-1.41,1.58-.91Z"/>
              </g>
            </g>
          </g>
          <polygon class="cls-26" points="145.86 248.26 145.85 244.33 98.23 271.83 98.23 275.76 145.86 248.26"/>
          <polygon class="cls-39" points="47.19 242.36 47.2 246.29 98.23 275.76 98.23 271.83 47.19 242.36"/>
          <g>
            <path class="cls-38" d="M113.81,253.93l-.83-.48h0s0,0,0,0h0c-.28-.16-.68-.14-1.11,.11-.87,.5-1.58,1.72-1.58,2.73,0,.5,.18,.85,.46,1.02h0s0,0,0,0h0s.77,.44,.77,.44l.14-.23c.14-.03,.29-.08,.45-.18,.87-.5,1.58-1.72,1.58-2.73,0-.15-.02-.28-.05-.4l.17-.28Z"/>
            <path class="cls-34" d="M113.81,253.93l-.83-.48h0s0,0,0,0h0c-.28-.16-.68-.14-1.11,.11-.87,.5-1.58,1.72-1.58,2.73,0,.5,.18,.85,.46,1.02h0s0,0,0,0h0s.77,.44,.77,.44l.14-.23c.14-.03,.29-.08,.45-.18,.87-.5,1.58-1.72,1.58-2.73,0-.15-.02-.28-.05-.4l.17-.28Z"/>
            <path class="cls-38" d="M112.66,254.02c-.87,.5-1.58,1.72-1.58,2.73s.71,1.41,1.58,.91c.87-.5,1.58-1.72,1.58-2.73,0-1.01-.71-1.41-1.58-.91Z"/>
            <path class="cls-28" d="M112.66,254.02c-.87,.5-1.58,1.72-1.58,2.73s.71,1.41,1.58,.91c.87-.5,1.58-1.72,1.58-2.73,0-1.01-.71-1.41-1.58-.91Z"/>
          </g>
          <g>
            <path class="cls-38" d="M106.97,257.88l-.83-.48h0s0,0,0,0h0c-.28-.16-.68-.14-1.11,.11-.87,.5-1.58,1.72-1.58,2.73,0,.5,.18,.85,.46,1.02h0s0,0,0,0h0s.77,.44,.77,.44l.14-.23c.14-.03,.29-.08,.45-.18,.87-.5,1.58-1.72,1.58-2.73,0-.15-.02-.28-.05-.4l.17-.28Z"/>
            <path class="cls-34" d="M106.97,257.88l-.83-.48h0s0,0,0,0h0c-.28-.16-.68-.14-1.11,.11-.87,.5-1.58,1.72-1.58,2.73,0,.5,.18,.85,.46,1.02h0s0,0,0,0h0s.77,.44,.77,.44l.14-.23c.14-.03,.29-.08,.45-.18,.87-.5,1.58-1.72,1.58-2.73,0-.15-.02-.28-.05-.4l.17-.28Z"/>
            <path class="cls-38" d="M105.82,257.97c-.87,.5-1.58,1.72-1.58,2.73s.71,1.41,1.58,.91c.87-.5,1.58-1.72,1.58-2.73,0-1.01-.71-1.41-1.58-.91Z"/>
            <path class="cls-28" d="M105.82,257.97c-.87,.5-1.58,1.72-1.58,2.73s.71,1.41,1.58,.91c.87-.5,1.58-1.72,1.58-2.73,0-1.01-.71-1.41-1.58-.91Z"/>
          </g>
        </g>
        <g>
          <polygon class="cls-38" points="152.66 201.12 98.23 232.54 43.79 201.12 98.23 169.69 152.66 201.12"/>
          <polygon class="cls-14" points="152.66 201.12 98.23 232.54 43.79 201.12 98.23 169.69 152.66 201.12"/>
          <polygon class="cls-45" points="152.66 201.12 98.23 232.54 43.79 201.12 98.23 169.69 152.66 201.12"/>
          <polygon class="cls-48" points="98.23 228.62 98.23 232.54 43.79 201.12 47.2 199.16 98.23 228.62"/>
          <polygon class="cls-38" points="152.66 216.83 98.23 248.26 98.23 232.54 152.66 201.12 152.66 216.83"/>
          <polygon class="cls-7" points="152.66 216.83 98.23 248.26 98.23 232.54 152.66 201.12 152.66 216.83"/>
          <g>
            <path class="cls-21" d="M147.44,208.06l-26.99,15.58c-1,.58-1.81,1.98-1.81,3.14v3.67c0,1.16,.81,1.63,1.81,1.05l26.99-15.58c1-.58,1.81-1.98,1.81-3.14v-3.67c0-1.16-.81-1.63-1.81-1.05Z"/>
            <g>
              <path class="cls-43" d="M147.34,211.17v1.78c0,.23-.16,.51-.36,.63l-.41,.24c-.2,.12-.36,.02-.36-.21v-1.78c0-.23,.16-.51,.36-.63l.41-.24c.2-.12,.36-.02,.36,.21Z"/>
              <path class="cls-16" d="M145.51,212.23v1.78c0,.23-.16,.51-.36,.63l-.41,.24c-.2,.12-.36,.02-.36-.21v-1.78c0-.23,.16-.51,.36-.63l.41-.24c.2-.12,.36-.02,.36,.21Z"/>
              <path class="cls-43" d="M143.68,213.28v1.78c0,.23-.16,.51-.36,.63l-.41,.24c-.2,.12-.36,.02-.36-.21v-1.78c0-.23,.16-.51,.36-.63l.41-.24c.2-.12,.36-.02,.36,.21Z"/>
              <path class="cls-43" d="M141.85,214.34v1.78c0,.23-.16,.51-.36,.63l-.41,.24c-.2,.12-.36,.02-.36-.21v-1.78c0-.23,.16-.51,.36-.63l.41-.24c.2-.12,.36-.02,.36,.21Z"/>
              <path class="cls-43" d="M140.01,215.4v1.78c0,.23-.16,.51-.36,.63l-.41,.24c-.2,.12-.36,.02-.36-.21v-1.78c0-.23,.16-.51,.36-.63l.41-.24c.2-.12,.36-.02,.36,.21Z"/>
              <path class="cls-16" d="M138.18,216.45v1.78c0,.23-.16,.51-.36,.63l-.41,.24c-.2,.12-.36,.02-.36-.21v-1.78c0-.23,.16-.51,.36-.63l.41-.24c.2-.12,.36-.02,.36,.21Z"/>
              <path class="cls-16" d="M136.35,217.51v1.78c0,.23-.16,.51-.36,.63l-.41,.24c-.2,.12-.36,.02-.36-.21v-1.78c0-.23,.16-.51,.36-.63l.41-.24c.2-.12,.36-.02,.36,.21Z"/>
              <path class="cls-43" d="M134.51,218.57v1.78c0,.23-.16,.51-.36,.63l-.41,.24c-.2,.12-.36,.02-.36-.21v-1.78c0-.23,.16-.51,.36-.63l.41-.24c.2-.12,.36-.02,.36,.21Z"/>
              <path class="cls-16" d="M132.68,219.62v1.78c0,.23-.16,.51-.36,.63l-.41,.24c-.2,.12-.36,.02-.36-.21v-1.78c0-.23,.16-.51,.36-.63l.41-.24c.2-.12,.36-.02,.36,.21Z"/>
              <path class="cls-43" d="M130.85,220.68v1.78c0,.23-.16,.51-.36,.63l-.41,.24c-.2,.12-.36,.02-.36-.21v-1.78c0-.23,.16-.51,.36-.63l.41-.24c.2-.12,.36-.02,.36,.21Z"/>
              <path class="cls-43" d="M129.02,221.74v1.78c0,.23-.16,.51-.36,.63l-.41,.24c-.2,.12-.36,.02-.36-.21v-1.78c0-.23,.16-.51,.36-.63l.41-.24c.2-.12,.36-.02,.36,.21Z"/>
              <path class="cls-43" d="M127.18,222.79v1.78c0,.23-.16,.51-.36,.63l-.41,.24c-.2,.12-.36,.02-.36-.21v-1.78c0-.23,.16-.51,.36-.63l.41-.24c.2-.12,.36-.02,.36,.21Z"/>
              <path class="cls-16" d="M125.35,223.85v1.78c0,.23-.16,.51-.36,.63l-.41,.24c-.2,.12-.36,.02-.36-.21v-1.78c0-.23,.16-.51,.36-.63l.41-.24c.2-.12,.36-.02,.36,.21Z"/>
              <path class="cls-43" d="M123.52,224.91v1.78c0,.23-.16,.51-.36,.63l-.41,.24c-.2,.12-.36,.02-.36-.21v-1.78c0-.23,.16-.51,.36-.63l.41-.24c.2-.12,.36-.02,.36,.21Z"/>
              <path class="cls-43" d="M121.68,225.96v1.78c0,.23-.16,.51-.36,.63l-.41,.24c-.2,.12-.36,.02-.36-.21v-1.78c0-.23,.16-.51,.36-.63l.41-.24c.2-.12,.36-.02,.36,.21Z"/>
            </g>
          </g>
          <polygon class="cls-38" points="98.23 248.26 43.79 216.83 43.79 201.12 98.23 232.54 98.23 248.26"/>
          <polygon class="cls-5" points="98.23 248.26 43.79 216.83 43.79 201.12 98.23 232.54 98.23 248.26"/>
          <g>
            <g class="cls-36">
              <path class="cls-11" d="M52.41,210.05l13.38,7.73c1,.58,1.81,1.98,1.81,3.14v3.67c0,1.16-.81,1.63-1.81,1.05l-13.38-7.73c-1-.58-1.81-1.98-1.81-3.14v-3.67c0-1.16,.81-1.63,1.81-1.05Z"/>
            </g>
            <g>
              <g>
                <path class="cls-38" d="M54.13,214.18l.83-.48h0s0,0,0,0h0c.28-.16,.68-.14,1.11,.11,.87,.5,1.58,1.72,1.58,2.73,0,.5-.18,.85-.46,1.02h0s0,0,0,0h0s-.77,.44-.77,.44l-.14-.23c-.14-.03-.29-.08-.45-.18-.87-.5-1.58-1.72-1.58-2.73,0-.15,.02-.28,.05-.4l-.17-.28Z"/>
                <path class="cls-28" d="M54.13,214.18l.83-.48h0s0,0,0,0h0c.28-.16,.68-.14,1.11,.11,.87,.5,1.58,1.72,1.58,2.73,0,.5-.18,.85-.46,1.02h0s0,0,0,0h0s-.77,.44-.77,.44l-.14-.23c-.14-.03-.29-.08-.45-.18-.87-.5-1.58-1.72-1.58-2.73,0-.15,.02-.28,.05-.4l-.17-.28Z"/>
                <path class="cls-38" d="M55.28,214.27c.87,.5,1.58,1.72,1.58,2.73s-.71,1.41-1.58,.91c-.87-.5-1.58-1.72-1.58-2.73,0-1.01,.71-1.41,1.58-.91Z"/>
              </g>
              <g>
                <path class="cls-38" d="M60.97,218.13l.83-.48h0s0,0,0,0h0c.28-.16,.68-.14,1.11,.11,.87,.5,1.58,1.72,1.58,2.73,0,.5-.18,.85-.46,1.02h0s0,0,0,0h0s-.77,.44-.77,.44l-.14-.23c-.14-.03-.29-.08-.45-.18-.87-.5-1.58-1.72-1.58-2.73,0-.15,.02-.28,.05-.4l-.17-.28Z"/>
                <path class="cls-28" d="M60.97,218.13l.83-.48h0s0,0,0,0h0c.28-.16,.68-.14,1.11,.11,.87,.5,1.58,1.72,1.58,2.73,0,.5-.18,.85-.46,1.02h0s0,0,0,0h0s-.77,.44-.77,.44l-.14-.23c-.14-.03-.29-.08-.45-.18-.87-.5-1.58-1.72-1.58-2.73,0-.15,.02-.28,.05-.4l-.17-.28Z"/>
                <path class="cls-38" d="M62.12,218.22c.87,.5,1.58,1.72,1.58,2.73,0,1.01-.71,1.41-1.58,.91-.87-.5-1.58-1.72-1.58-2.73,0-1.01,.71-1.41,1.58-.91Z"/>
              </g>
            </g>
          </g>
          <polygon class="cls-50" points="145.86 224.69 145.85 220.76 98.23 248.26 98.23 252.19 145.86 224.69"/>
          <polygon class="cls-46" points="47.19 218.79 47.2 222.72 98.23 252.19 98.23 248.26 47.19 218.79"/>
          <g>
            <path class="cls-38" d="M113.81,230.36l-.83-.48h0s0,0,0,0h0c-.28-.16-.68-.14-1.11,.11-.87,.5-1.58,1.72-1.58,2.73,0,.5,.18,.85,.46,1.02h0s0,0,0,0h0s.77,.44,.77,.44l.14-.23c.14-.03,.29-.08,.45-.18,.87-.5,1.58-1.72,1.58-2.73,0-.15-.02-.28-.05-.4l.17-.28Z"/>
            <path class="cls-34" d="M113.81,230.36l-.83-.48h0s0,0,0,0h0c-.28-.16-.68-.14-1.11,.11-.87,.5-1.58,1.72-1.58,2.73,0,.5,.18,.85,.46,1.02h0s0,0,0,0h0s.77,.44,.77,.44l.14-.23c.14-.03,.29-.08,.45-.18,.87-.5,1.58-1.72,1.58-2.73,0-.15-.02-.28-.05-.4l.17-.28Z"/>
            <path class="cls-38" d="M112.66,230.45c-.87,.5-1.58,1.72-1.58,2.73s.71,1.41,1.58,.91c.87-.5,1.58-1.72,1.58-2.73,0-1.01-.71-1.41-1.58-.91Z"/>
            <path class="cls-28" d="M112.66,230.45c-.87,.5-1.58,1.72-1.58,2.73s.71,1.41,1.58,.91c.87-.5,1.58-1.72,1.58-2.73,0-1.01-.71-1.41-1.58-.91Z"/>
          </g>
          <g>
            <path class="cls-38" d="M106.97,234.31l-.83-.48h0s0,0,0,0h0c-.28-.16-.68-.14-1.11,.11-.87,.5-1.58,1.72-1.58,2.73,0,.5,.18,.85,.46,1.02h0s0,0,0,0h0s.77,.44,.77,.44l.14-.23c.14-.03,.29-.08,.45-.18,.87-.5,1.58-1.72,1.58-2.73,0-.15-.02-.28-.05-.4l.17-.28Z"/>
            <path class="cls-34" d="M106.97,234.31l-.83-.48h0s0,0,0,0h0c-.28-.16-.68-.14-1.11,.11-.87,.5-1.58,1.72-1.58,2.73,0,.5,.18,.85,.46,1.02h0s0,0,0,0h0s.77,.44,.77,.44l.14-.23c.14-.03,.29-.08,.45-.18,.87-.5,1.58-1.72,1.58-2.73,0-.15-.02-.28-.05-.4l.17-.28Z"/>
            <path class="cls-38" d="M105.82,234.4c-.87,.5-1.58,1.72-1.58,2.73s.71,1.41,1.58,.91c.87-.5,1.58-1.72,1.58-2.73,0-1.01-.71-1.41-1.58-.91Z"/>
            <path class="cls-28" d="M105.82,234.4c-.87,.5-1.58,1.72-1.58,2.73s.71,1.41,1.58,.91c.87-.5,1.58-1.72,1.58-2.73,0-1.01-.71-1.41-1.58-.91Z"/>
          </g>
        </g>
        <g>
          <path class="cls-38" d="M45.97,176.3l50.11-28.91c1.2-.69,3.16-.69,4.35,0l50.05,28.91c1.2,.69,2.18,2.39,2.18,3.77v13.2l-54.47,31.43h0l-54.4-31.43v-13.2c0-1.38,.98-3.08,2.18-3.77Z"/>
          <path class="cls-9" d="M45.97,176.3l50.11-28.91c1.2-.69,3.16-.69,4.35,0l50.05,28.91c1.2,.69,2.18,2.39,2.18,3.77v13.2l-54.47,31.43h0l-54.4-31.43v-13.2c0-1.38,.98-3.08,2.18-3.77Z"/>
          <g>
            <g class="cls-36">
              <path class="cls-11" d="M52.41,186.46l13.38,7.73c1,.58,1.81,1.98,1.81,3.14v3.67c0,1.16-.81,1.63-1.81,1.05l-13.38-7.73c-1-.58-1.81-1.98-1.81-3.14v-3.67c0-1.16,.81-1.63,1.81-1.05Z"/>
            </g>
            <g>
              <g>
                <path class="cls-38" d="M54.13,190.59l.83-.48h0s0,0,0,0h0c.28-.16,.68-.14,1.11,.11,.87,.5,1.58,1.72,1.58,2.73,0,.5-.18,.85-.46,1.02h0s0,0,0,0h0s-.77,.44-.77,.44l-.14-.23c-.14-.03-.29-.08-.45-.18-.87-.5-1.58-1.72-1.58-2.73,0-.15,.02-.28,.05-.4l-.17-.28Z"/>
                <path class="cls-28" d="M54.13,190.59l.83-.48h0s0,0,0,0h0c.28-.16,.68-.14,1.11,.11,.87,.5,1.58,1.72,1.58,2.73,0,.5-.18,.85-.46,1.02h0s0,0,0,0h0s-.77,.44-.77,.44l-.14-.23c-.14-.03-.29-.08-.45-.18-.87-.5-1.58-1.72-1.58-2.73,0-.15,.02-.28,.05-.4l-.17-.28Z"/>
                <path class="cls-38" d="M55.28,190.68c.87,.5,1.58,1.72,1.58,2.73s-.71,1.41-1.58,.91c-.87-.5-1.58-1.72-1.58-2.73,0-1.01,.71-1.41,1.58-.91Z"/>
              </g>
              <g>
                <path class="cls-38" d="M60.97,194.54l.83-.48h0s0,0,0,0h0c.28-.16,.68-.14,1.11,.11,.87,.5,1.58,1.72,1.58,2.73,0,.5-.18,.85-.46,1.02h0s0,0,0,0h0s-.77,.44-.77,.44l-.14-.23c-.14-.03-.29-.08-.45-.18-.87-.5-1.58-1.72-1.58-2.73,0-.15,.02-.28,.05-.4l-.17-.28Z"/>
                <path class="cls-28" d="M60.97,194.54l.83-.48h0s0,0,0,0h0c.28-.16,.68-.14,1.11,.11,.87,.5,1.58,1.72,1.58,2.73,0,.5-.18,.85-.46,1.02h0s0,0,0,0h0s-.77,.44-.77,.44l-.14-.23c-.14-.03-.29-.08-.45-.18-.87-.5-1.58-1.72-1.58-2.73,0-.15,.02-.28,.05-.4l-.17-.28Z"/>
                <path class="cls-38" d="M62.12,194.63c.87,.5,1.58,1.72,1.58,2.73,0,1.01-.71,1.41-1.58,.91-.87-.5-1.58-1.72-1.58-2.73,0-1.01,.71-1.41,1.58-.91Z"/>
              </g>
            </g>
          </g>
          <path class="cls-38" d="M98.2,208.24v16.45l54.46-31.43v-13.2c0-1.22-.77-2.71-1.78-3.49,.8,.7,.66,1.62-.39,2.24l-50.11,28.91c-.59,.34-1.38,.52-2.17,.52Z"/>
          <path class="cls-10" d="M98.2,208.24v16.45l54.46-31.43v-13.2c0-1.22-.77-2.71-1.78-3.49,.8,.7,.66,1.62-.39,2.24l-50.11,28.91c-.59,.34-1.38,.52-2.17,.52Z"/>
          <g>
            <path class="cls-21" d="M147.44,184.49l-26.99,15.58c-1,.58-1.81,1.98-1.81,3.14v3.67c0,1.16,.81,1.63,1.81,1.05l26.99-15.58c1-.58,1.81-1.98,1.81-3.14v-3.67c0-1.16-.81-1.63-1.81-1.05Z"/>
            <g>
              <path class="cls-16" d="M147.34,187.6v1.78c0,.23-.16,.51-.36,.63l-.41,.24c-.2,.12-.36,.02-.36-.21v-1.78c0-.23,.16-.51,.36-.63l.41-.24c.2-.12,.36-.02,.36,.21Z"/>
              <path class="cls-43" d="M145.51,188.66v1.78c0,.23-.16,.51-.36,.63l-.41,.24c-.2,.12-.36,.02-.36-.21v-1.78c0-.23,.16-.51,.36-.63l.41-.24c.2-.12,.36-.02,.36,.21Z"/>
              <path class="cls-16" d="M143.68,189.71v1.78c0,.23-.16,.51-.36,.63l-.41,.24c-.2,.12-.36,.02-.36-.21v-1.78c0-.23,.16-.51,.36-.63l.41-.24c.2-.12,.36-.02,.36,.21Z"/>
              <path class="cls-16" d="M141.85,190.77v1.78c0,.23-.16,.51-.36,.63l-.41,.24c-.2,.12-.36,.02-.36-.21v-1.78c0-.23,.16-.51,.36-.63l.41-.24c.2-.12,.36-.02,.36,.21Z"/>
              <path class="cls-16" d="M140.01,191.83v1.78c0,.23-.16,.51-.36,.63l-.41,.24c-.2,.12-.36,.02-.36-.21v-1.78c0-.23,.16-.51,.36-.63l.41-.24c.2-.12,.36-.02,.36,.21Z"/>
              <path class="cls-43" d="M138.18,192.88v1.78c0,.23-.16,.51-.36,.63l-.41,.24c-.2,.12-.36,.02-.36-.21v-1.78c0-.23,.16-.51,.36-.63l.41-.24c.2-.12,.36-.02,.36,.21Z"/>
              <path class="cls-43" d="M136.35,193.94v1.78c0,.23-.16,.51-.36,.63l-.41,.24c-.2,.12-.36,.02-.36-.21v-1.78c0-.23,.16-.51,.36-.63l.41-.24c.2-.12,.36-.02,.36,.21Z"/>
              <path class="cls-16" d="M134.51,194.99v1.78c0,.23-.16,.51-.36,.63l-.41,.24c-.2,.12-.36,.02-.36-.21v-1.78c0-.23,.16-.51,.36-.63l.41-.24c.2-.12,.36-.02,.36,.21Z"/>
              <path class="cls-43" d="M132.68,196.05v1.78c0,.23-.16,.51-.36,.63l-.41,.24c-.2,.12-.36,.02-.36-.21v-1.78c0-.23,.16-.51,.36-.63l.41-.24c.2-.12,.36-.02,.36,.21Z"/>
              <path class="cls-16" d="M130.85,197.11v1.78c0,.23-.16,.51-.36,.63l-.41,.24c-.2,.12-.36,.02-.36-.21v-1.78c0-.23,.16-.51,.36-.63l.41-.24c.2-.12,.36-.02,.36,.21Z"/>
              <path class="cls-16" d="M129.02,198.16v1.78c0,.23-.16,.51-.36,.63l-.41,.24c-.2,.12-.36,.02-.36-.21v-1.78c0-.23,.16-.51,.36-.63l.41-.24c.2-.12,.36-.02,.36,.21Z"/>
              <path class="cls-16" d="M127.18,199.22v1.78c0,.23-.16,.51-.36,.63l-.41,.24c-.2,.12-.36,.02-.36-.21v-1.78c0-.23,.16-.51,.36-.63l.41-.24c.2-.12,.36-.02,.36,.21Z"/>
              <path class="cls-43" d="M125.35,200.28v1.78c0,.23-.16,.51-.36,.63l-.41,.24c-.2,.12-.36,.02-.36-.21v-1.78c0-.23,.16-.51,.36-.63l.41-.24c.2-.12,.36-.02,.36,.21Z"/>
              <path class="cls-16" d="M123.52,201.33v1.78c0,.23-.16,.51-.36,.63l-.41,.24c-.2,.12-.36,.02-.36-.21v-1.78c0-.23,.16-.51,.36-.63l.41-.24c.2-.12,.36-.02,.36,.21Z"/>
              <path class="cls-16" d="M121.68,202.39v1.78c0,.23-.16,.51-.36,.63l-.41,.24c-.2,.12-.36,.02-.36-.21v-1.78c0-.23,.16-.51,.36-.63l.41-.24c.2-.12,.36-.02,.36,.21Z"/>
            </g>
          </g>
          <path class="cls-38" d="M150.48,178.81l-50.12,28.92c-1.2,.69-3.15,.69-4.35,0l-50.05-28.91c-1.2-.69-1.2-1.82,0-2.51l50.11-28.91c1.2-.69,3.15-.69,4.35,0l50.05,28.91c1.2,.69,1.2,1.82,0,2.51Z"/>
          <path class="cls-47" d="M150.48,178.81l-50.12,28.92c-1.2,.69-3.15,.69-4.35,0l-50.05-28.91c-1.2-.69-1.2-1.82,0-2.51l50.11-28.91c1.2-.69,3.15-.69,4.35,0l50.05,28.91c1.2,.69,1.2,1.82,0,2.51Z"/>
          <polygon class="cls-37" points="145.86 201.12 145.85 197.2 98.23 224.69 98.23 228.62 145.86 201.12"/>
          <polygon class="cls-29" points="47.19 195.23 47.2 199.16 98.23 228.62 98.23 224.69 47.19 195.23"/>
          <g>
            <path class="cls-38" d="M113.81,206.8l-.83-.48h0s0,0,0,0h0c-.28-.16-.68-.14-1.11,.11-.87,.5-1.58,1.72-1.58,2.73,0,.5,.18,.85,.46,1.02h0s0,0,0,0h0s.77,.44,.77,.44l.14-.23c.14-.03,.29-.08,.45-.18,.87-.5,1.58-1.72,1.58-2.73,0-.15-.02-.28-.05-.4l.17-.28Z"/>
            <path class="cls-34" d="M113.81,206.8l-.83-.48h0s0,0,0,0h0c-.28-.16-.68-.14-1.11,.11-.87,.5-1.58,1.72-1.58,2.73,0,.5,.18,.85,.46,1.02h0s0,0,0,0h0s.77,.44,.77,.44l.14-.23c.14-.03,.29-.08,.45-.18,.87-.5,1.58-1.72,1.58-2.73,0-.15-.02-.28-.05-.4l.17-.28Z"/>
            <path class="cls-38" d="M112.66,206.89c-.87,.5-1.58,1.72-1.58,2.73s.71,1.41,1.58,.91c.87-.5,1.58-1.72,1.58-2.73,0-1.01-.71-1.41-1.58-.91Z"/>
            <path class="cls-28" d="M112.66,206.89c-.87,.5-1.58,1.72-1.58,2.73s.71,1.41,1.58,.91c.87-.5,1.58-1.72,1.58-2.73,0-1.01-.71-1.41-1.58-.91Z"/>
          </g>
          <g>
            <path class="cls-38" d="M106.97,210.75l-.83-.48h0s0,0,0,0h0c-.28-.16-.68-.14-1.11,.11-.87,.5-1.58,1.72-1.58,2.73,0,.5,.18,.85,.46,1.02h0s0,0,0,0h0s.77,.44,.77,.44l.14-.23c.14-.03,.29-.08,.45-.18,.87-.5,1.58-1.72,1.58-2.73,0-.15-.02-.28-.05-.4l.17-.28Z"/>
            <path class="cls-34" d="M106.97,210.75l-.83-.48h0s0,0,0,0h0c-.28-.16-.68-.14-1.11,.11-.87,.5-1.58,1.72-1.58,2.73,0,.5,.18,.85,.46,1.02h0s0,0,0,0h0s.77,.44,.77,.44l.14-.23c.14-.03,.29-.08,.45-.18,.87-.5,1.58-1.72,1.58-2.73,0-.15-.02-.28-.05-.4l.17-.28Z"/>
            <path class="cls-38" d="M105.82,210.84c-.87,.5-1.58,1.72-1.58,2.73s.71,1.41,1.58,.91c.87-.5,1.58-1.72,1.58-2.73,0-1.01-.71-1.41-1.58-.91Z"/>
            <path class="cls-28" d="M105.82,210.84c-.87,.5-1.58,1.72-1.58,2.73s.71,1.41,1.58,.91c.87-.5,1.58-1.72,1.58-2.73,0-1.01-.71-1.41-1.58-.91Z"/>
          </g>
        </g>
      </g>
      <g>
        <g>
          <path class="cls-38" d="M98.69,119.93c0-.07-.05-.14-.14-.19-.18-.11-.48-.11-.66,0-.09,.05-.14,.12-.14,.19h0v5.62h0c0,.07,.05,.14,.14,.19,.18,.11,.48,.11,.66,0,.09-.05,.14-.12,.14-.19h0v-5.62h0Z"/>
          <path class="cls-38" d="M98.69,127.31c0-.07-.05-.14-.14-.19-.18-.11-.48-.11-.66,0-.09,.05-.14,.12-.14,.19h0v2.68h0c0,.07,.05,.14,.14,.19,.18,.11,.48,.11,.66,0,.09-.05,.14-.12,.14-.19h0v-2.68h0Z"/>
          <path class="cls-38" d="M98.69,131.75c0-.07-.05-.14-.14-.19-.18-.11-.48-.11-.66,0-.09,.05-.14,.12-.14,.19h0v2.68h0c0,.07,.05,.14,.14,.19,.18,.11,.48,.11,.66,0,.09-.05,.14-.12,.14-.19h0v-2.68h0Z"/>
          <path class="cls-38" d="M98.69,136.19c0-.07-.05-.14-.14-.19-.18-.11-.48-.11-.66,0-.09,.05-.14,.12-.14,.19h0v2.68h0c0,.07,.05,.14,.14,.19,.18,.11,.48,.11,.66,0,.09-.05,.14-.12,.14-.19h0v-2.68h0Z"/>
          <path class="cls-38" d="M98.69,140.63c0-.07-.05-.14-.14-.19-.18-.11-.48-.11-.66,0-.09,.05-.14,.12-.14,.19h0v2.68h0c0,.07,.05,.14,.14,.19,.18,.11,.48,.11,.66,0,.09-.05,.14-.12,.14-.19h0v-2.68h0Z"/>
          <path class="cls-38" d="M98.69,145.06c0-.07-.05-.14-.14-.19-.18-.11-.48-.11-.66,0-.09,.05-.14,.12-.14,.19h0v2.68h0c0,.07,.05,.14,.14,.19,.18,.11,.48,.11,.66,0,.09-.05,.14-.12,.14-.19h0v-2.68h0Z"/>
          <path class="cls-38" d="M98.69,149.5c0-.07-.05-.14-.14-.19-.18-.11-.48-.11-.66,0-.09,.05-.14,.12-.14,.19h0v2.68h0c0,.07,.05,.14,.14,.19,.18,.11,.48,.11,.66,0,.09-.05,.14-.12,.14-.19h0v-2.68h0Z"/>
          <path class="cls-38" d="M98.69,153.94c0-.07-.05-.14-.14-.19-.18-.11-.48-.11-.66,0-.09,.05-.14,.12-.14,.19h0v2.68h0c0,.07,.05,.14,.14,.19,.18,.11,.48,.11,.66,0,.09-.05,.14-.12,.14-.19h0v-2.68h0Z"/>
          <path class="cls-38" d="M98.69,158.37c0-.07-.05-.14-.14-.19-.18-.11-.48-.11-.66,0-.09,.05-.14,.12-.14,.19h0v2.68h0c0,.07,.05,.14,.14,.19,.18,.11,.48,.11,.66,0,.09-.05,.14-.12,.14-.19h0v-2.68h0Z"/>
          <path class="cls-38" d="M98.69,162.81c0-.07-.05-.14-.14-.19-.18-.11-.48-.11-.66,0-.09,.05-.14,.12-.14,.19h0v2.68h0c0,.07,.05,.14,.14,.19,.18,.11,.48,.11,.66,0,.09-.05,.14-.12,.14-.19h0v-2.68h0Z"/>
          <path class="cls-38" d="M98.69,167.25c0-.07-.05-.14-.14-.19-.18-.11-.48-.11-.66,0-.09,.05-.14,.12-.14,.19h0v2.68h0c0,.07,.05,.14,.14,.19,.18,.11,.48,.11,.66,0,.09-.05,.14-.12,.14-.19h0v-2.68h0Z"/>
          <path class="cls-38" d="M98.69,171.68c0-.07-.05-.14-.14-.19-.18-.11-.48-.11-.66,0-.09,.05-.14,.12-.14,.19h0v2.68h0c0,.07,.05,.14,.14,.19,.18,.11,.48,.11,.66,0,.09-.05,.14-.12,.14-.19h0v-2.68h0Z"/>
          <path class="cls-38" d="M98.69,176.12c0-.07-.05-.14-.14-.19-.18-.11-.48-.11-.66,0-.09,.05-.14,.12-.14,.19h0v2.68h0c0,.07,.05,.14,.14,.19,.18,.11,.48,.11,.66,0,.09-.05,.14-.12,.14-.19h0v-2.68h0Z"/>
          <path class="cls-16" d="M101.21,113.9c0-.44-.29-.88-.87-1.22-1.17-.67-3.06-.67-4.22,0-.58,.34-.87,.78-.87,1.22h0v7.86h0c0,.44,.29,.88,.87,1.22,1.17,.67,3.06,.67,4.22,0,.58-.34,.87-.78,.87-1.22h0v-7.86h0Z"/>
          <path class="cls-22" d="M103.04,106.05c0-.71-.47-1.42-1.41-1.96-1.88-1.08-4.93-1.08-6.8,0-.94,.54-1.41,1.25-1.41,1.96h0v7.72h.02c-.06,.76,.39,1.52,1.39,2.1,1.88,1.08,4.93,1.08,6.8,0,1-.58,1.45-1.34,1.39-2.1h.02v-7.72h0Z"/>
        </g>
        <g>
          <path class="cls-38" d="M115.7,110.04c0-.07-.05-.14-.14-.19-.18-.11-.48-.11-.66,0-.09,.05-.14,.12-.14,.19h0v5.62h0c0,.07,.05,.14,.14,.19,.18,.11,.48,.11,.66,0,.09-.05,.14-.12,.14-.19h0v-5.62h0Z"/>
          <path class="cls-38" d="M115.7,117.43c0-.07-.05-.14-.14-.19-.18-.11-.48-.11-.66,0-.09,.05-.14,.12-.14,.19h0v2.68h0c0,.07,.05,.14,.14,.19,.18,.11,.48,.11,.66,0,.09-.05,.14-.12,.14-.19h0v-2.68h0Z"/>
          <path class="cls-38" d="M115.7,121.86c0-.07-.05-.14-.14-.19-.18-.11-.48-.11-.66,0-.09,.05-.14,.12-.14,.19h0v2.68h0c0,.07,.05,.14,.14,.19,.18,.11,.48,.11,.66,0,.09-.05,.14-.12,.14-.19h0v-2.68h0Z"/>
          <path class="cls-38" d="M115.7,126.3c0-.07-.05-.14-.14-.19-.18-.11-.48-.11-.66,0-.09,.05-.14,.12-.14,.19h0v2.68h0c0,.07,.05,.14,.14,.19,.18,.11,.48,.11,.66,0,.09-.05,.14-.12,.14-.19h0v-2.68h0Z"/>
          <path class="cls-38" d="M115.7,130.74c0-.07-.05-.14-.14-.19-.18-.11-.48-.11-.66,0-.09,.05-.14,.12-.14,.19h0v2.68h0c0,.07,.05,.14,.14,.19,.18,.11,.48,.11,.66,0,.09-.05,.14-.12,.14-.19h0v-2.68h0Z"/>
          <path class="cls-38" d="M115.7,135.17c0-.07-.05-.14-.14-.19-.18-.11-.48-.11-.66,0-.09,.05-.14,.12-.14,.19h0v2.68h0c0,.07,.05,.14,.14,.19,.18,.11,.48,.11,.66,0,.09-.05,.14-.12,.14-.19h0v-2.68h0Z"/>
          <path class="cls-38" d="M115.7,139.61c0-.07-.05-.14-.14-.19-.18-.11-.48-.11-.66,0-.09,.05-.14,.12-.14,.19h0v2.68h0c0,.07,.05,.14,.14,.19,.18,.11,.48,.11,.66,0,.09-.05,.14-.12,.14-.19h0v-2.68h0Z"/>
          <path class="cls-38" d="M115.7,144.05c0-.07-.05-.14-.14-.19-.18-.11-.48-.11-.66,0-.09,.05-.14,.12-.14,.19h0v2.68h0c0,.07,.05,.14,.14,.19,.18,.11,.48,.11,.66,0,.09-.05,.14-.12,.14-.19h0v-2.68h0Z"/>
          <path class="cls-38" d="M115.7,148.48c0-.07-.05-.14-.14-.19-.18-.11-.48-.11-.66,0-.09,.05-.14,.12-.14,.19h0v2.68h0c0,.07,.05,.14,.14,.19,.18,.11,.48,.11,.66,0,.09-.05,.14-.12,.14-.19h0v-2.68h0Z"/>
          <path class="cls-38" d="M115.7,152.92c0-.07-.05-.14-.14-.19-.18-.11-.48-.11-.66,0-.09,.05-.14,.12-.14,.19h0v2.68h0c0,.07,.05,.14,.14,.19,.18,.11,.48,.11,.66,0,.09-.05,.14-.12,.14-.19h0v-2.68h0Z"/>
          <path class="cls-38" d="M115.7,157.36c0-.07-.05-.14-.14-.19-.18-.11-.48-.11-.66,0-.09,.05-.14,.12-.14,.19h0v2.68h0c0,.07,.05,.14,.14,.19,.18,.11,.48,.11,.66,0,.09-.05,.14-.12,.14-.19h0v-2.68h0Z"/>
          <path class="cls-38" d="M115.7,161.79c0-.07-.05-.14-.14-.19-.18-.11-.48-.11-.66,0-.09,.05-.14,.12-.14,.19h0v2.68h0c0,.07,.05,.14,.14,.19,.18,.11,.48,.11,.66,0,.09-.05,.14-.12,.14-.19h0v-2.68h0Z"/>
          <path class="cls-38" d="M115.7,166.23c0-.07-.05-.14-.14-.19-.18-.11-.48-.11-.66,0-.09,.05-.14,.12-.14,.19h0v2.68h0c0,.07,.05,.14,.14,.19,.18,.11,.48,.11,.66,0,.09-.05,.14-.12,.14-.19h0v-2.68h0Z"/>
          <path class="cls-16" d="M118.22,104.01c0-.44-.29-.88-.87-1.22-1.17-.67-3.06-.67-4.22,0-.58,.34-.87,.78-.87,1.22h0v7.86h0c0,.44,.29,.88,.87,1.22,1.17,.67,3.06,.67,4.22,0,.58-.34,.87-.78,.87-1.22h0v-7.86h0Z"/>
          <path class="cls-22" d="M120.04,96.16c0-.71-.47-1.42-1.41-1.96-1.88-1.08-4.93-1.08-6.8,0-.94,.54-1.41,1.25-1.41,1.96h0v7.72h.02c-.06,.76,.39,1.52,1.39,2.1,1.88,1.08,4.93,1.08,6.8,0,1-.58,1.45-1.34,1.39-2.1h.02v-7.72h0Z"/>
        </g>
        <g>
          <path class="cls-38" d="M81.68,129.6c0-.07-.05-.14-.14-.19-.18-.11-.48-.11-.66,0-.09,.05-.14,.12-.14,.19h0v5.62h0c0,.07,.05,.14,.14,.19,.18,.11,.48,.11,.66,0,.09-.05,.14-.12,.14-.19h0v-5.62h0Z"/>
          <path class="cls-38" d="M80.74,139.66h0c0,.07,.05,.14,.14,.19,.18,.11,.48,.11,.66,0,.09-.05,.14-.12,.14-.19h0v-2.68h0c0-.07-.05-.14-.14-.19-.18-.11-.48-.11-.66,0-.09,.05-.14,.12-.14,.19h0"/>
          <path class="cls-38" d="M81.68,141.42c0-.07-.05-.14-.14-.19-.18-.11-.48-.11-.66,0-.09,.05-.14,.12-.14,.19h0v2.68h0c0,.07,.05,.14,.14,.19,.18,.11,.48,.11,.66,0,.09-.05,.14-.12,.14-.19h0v-2.68h0Z"/>
          <path class="cls-38" d="M81.68,145.86h0c0-.07-.05-.14-.14-.19-.18-.11-.48-.11-.66,0-.09,.05-.14,.12-.14,.19h0v2.68h0c0,.07,.05,.14,.14,.19,.18,.11,.48,.11,.66,0,.09-.05,.14-.12,.14-.19h0"/>
          <path class="cls-38" d="M81.68,150.29c0-.07-.05-.14-.14-.19-.18-.11-.48-.11-.66,0-.09,.05-.14,.12-.14,.19h0v2.68h0c0,.07,.05,.14,.14,.19,.18,.11,.48,.11,.66,0,.09-.05,.14-.12,.14-.19h0v-2.68h0Z"/>
          <path class="cls-38" d="M81.68,154.73h0c0-.07-.05-.14-.14-.19-.18-.11-.48-.11-.66,0-.09,.05-.14,.12-.14,.19h0v2.68h0c0,.07,.05,.14,.14,.19,.18,.11,.48,.11,.66,0,.09-.05,.14-.12,.14-.19h0"/>
          <path class="cls-38" d="M81.68,159.17c0-.07-.05-.14-.14-.19-.18-.11-.48-.11-.66,0-.09,.05-.14,.12-.14,.19h0v2.68h0c0,.07,.05,.14,.14,.19,.18,.11,.48,.11,.66,0,.09-.05,.14-.12,.14-.19h0v-2.68h0Z"/>
          <path class="cls-38" d="M81.68,163.6h0c0-.07-.05-.14-.14-.19-.18-.11-.48-.11-.66,0-.09,.05-.14,.12-.14,.19h0v2.68h0c0,.07,.05,.14,.14,.19,.18,.11,.48,.11,.66,0,.09-.05,.14-.12,.14-.19h0"/>
          <path class="cls-38" d="M81.68,168.04c0-.07-.05-.14-.14-.19-.18-.11-.48-.11-.66,0-.09,.05-.14,.12-.14,.19h0v2.68h0c0,.07,.05,.14,.14,.19,.18,.11,.48,.11,.66,0,.09-.05,.14-.12,.14-.19h0v-2.68h0Z"/>
          <path class="cls-38" d="M81.68,172.48h0c0-.07-.05-.14-.14-.19-.18-.11-.48-.11-.66,0-.09,.05-.14,.12-.14,.19h0v2.68h0c0,.07,.05,.14,.14,.19,.18,.11,.48,.11,.66,0,.09-.05,.14-.12,.14-.19h0"/>
          <path class="cls-38" d="M81.68,176.91c0-.07-.05-.14-.14-.19-.18-.11-.48-.11-.66,0-.09,.05-.14,.12-.14,.19h0v2.68h0c0,.07,.05,.14,.14,.19,.18,.11,.48,.11,.66,0,.09-.05,.14-.12,.14-.19h0v-2.68h0Z"/>
          <path class="cls-38" d="M81.68,181.35h0c0-.07-.05-.14-.14-.19-.18-.11-.48-.11-.66,0-.09,.05-.14,.12-.14,.19h0v2.68h0c0,.07,.05,.14,.14,.19,.18,.11,.48,.11,.66,0,.09-.05,.14-.12,.14-.19h0"/>
          <path class="cls-38" d="M81.68,185.79c0-.07-.05-.14-.14-.19-.18-.11-.48-.11-.66,0-.09,.05-.14,.12-.14,.19h0v2.68h0c0,.07,.05,.14,.14,.19,.18,.11,.48,.11,.66,0,.09-.05,.14-.12,.14-.19h0v-2.68h0Z"/>
          <path class="cls-16" d="M84.2,123.57c0-.44-.29-.88-.87-1.22-1.17-.67-3.06-.67-4.22,0-.58,.34-.87,.78-.87,1.22h0v7.86h0c0,.44,.29,.88,.87,1.22,1.17,.67,3.06,.67,4.22,0,.58-.34,.87-.78,.87-1.22h0v-7.86h0Z"/>
          <path class="cls-22" d="M86.02,115.72c0-.71-.47-1.42-1.41-1.96-1.88-1.08-4.93-1.08-6.8,0-.94,.54-1.41,1.25-1.41,1.96h0v7.72h.02c-.06,.76,.39,1.52,1.39,2.1,1.88,1.08,4.93,1.08,6.8,0,1-.58,1.45-1.34,1.39-2.1h.02v-7.72h0Z"/>
        </g>
      </g>
      <g id="Cloud">
        <path class="cls-31" d="M163.8,42.62v-.02s-.37-.22-.37-.22c-.08-.04-.15-.09-.23-.13l-8.43-4.87c0-.2,.01-.4,.01-.59,0-10.36-3.49-17.61-8.97-20.66h.01s-16.21-9.37-16.21-9.37v.02c-4.45-2.57-10.26-2.33-16.61,1.34-2.8,1.62-5.5,3.78-8.02,6.36-1.07-1.1-2.24-2.03-3.5-2.78h0s-15.67-9.02-15.67-9.02v.02c-5.73-3.8-13.41-3.72-21.86,1.15C46.19,14.09,31.8,41.58,31.8,65.24c0,2.8,.21,5.41,.59,7.83l-2.21,1.28c-11.29,6.52-20.44,24-20.44,39.06h0c0,8.31,2.79,14.24,7.19,16.78h-.01s16.41,9.48,16.41,9.48h0c3.56,2.04,8.17,1.87,13.21-1.03l29.73-17.16,79.19-45.72c6.77-3.91,12.26-14.4,12.26-23.43h0c0-4.73-1.51-8.1-3.92-9.7Z"/>
        <path class="cls-21" d="M163.8,42.62v-.02s-.37-.22-.37-.22c-.08-.04-.15-.09-.23-.13l-8.43-4.87c0-.2,.01-.4,.01-.59,0-10.36-3.49-17.61-8.97-20.66h.01s-16.21-9.37-16.21-9.37v.02c-4.45-2.57-10.26-2.33-16.61,1.34-2.8,1.62-5.5,3.78-8.02,6.36-1.07-1.1-2.24-2.03-3.5-2.78h0s-15.67-9.02-15.67-9.02v.02c-5.73-3.8-13.41-3.72-21.86,1.15C46.19,14.09,31.8,41.58,31.8,65.24c0,2.8,.21,5.41,.59,7.83l-2.21,1.28c-11.29,6.52-20.44,24-20.44,39.06h0c0,8.31,2.79,14.24,7.19,16.78h-.01s16.41,9.48,16.41,9.48h0c3.56,2.04,8.17,1.87,13.21-1.03l29.73-17.16,79.19-45.72c6.77-3.91,12.26-14.4,12.26-23.43h0c0-4.73-1.51-8.1-3.92-9.7Z"/>
        <path class="cls-13" d="M145.81,16.12h-.02c-4.43-2.47-10.18-2.19-16.46,1.44-2.95,1.71-5.78,4.01-8.41,6.76l-14.87-8.63-1.46-.85c.12-.13,.24-.25,.36-.37,2.52-2.57,5.22-4.73,8.02-6.36,6.36-3.67,12.17-3.9,16.62-1.34v-.02s16.21,9.36,16.21,9.36Z"/>
        <path class="cls-12" d="M104.97,14.47c.39,.39,.75,.79,1.1,1.21l-1.46-.85c.12-.13,.24-.25,.36-.37Z"/>
        <path class="cls-13" d="M101.06,11.47h0c-5.59-3.11-12.85-2.75-20.77,1.83-8.05,4.65-15.41,12.85-21.05,22.63l-16.35-9.44c5.64-9.78,12.99-17.98,21.04-22.64,8.45-4.87,16.13-4.95,21.87-1.15v-.02s15.27,8.79,15.27,8.79Z"/>
        <path class="cls-13" d="M48.75,82.52l-2.22,1.27c-7.65,4.41-14.32,13.88-17.81,24.2l-16.36-9.45c2.79-8.23,7.6-15.9,13.31-20.92l6.73-4.56,16.36,9.45Z"/>
        <path class="cls-38" d="M155.45,43.04l-1.17,.68c.32-2.34,.49-4.66,.49-6.93,0-18.73-11.39-27.33-25.43-19.23-6.51,3.76-12.46,10.46-16.95,18.43-.63-22.55-14.76-32.71-32.1-22.7-17.74,10.24-32.13,37.73-32.13,61.39,0,2.8,.21,5.41,.59,7.83l-2.21,1.28c-11.29,6.52-20.44,24-20.44,39.06h0c0,15.05,9.15,22.3,20.44,15.78l29.73-17.16h0l79.19-45.72c6.77-3.91,12.26-14.4,12.26-23.43h0c0-9.03-5.49-13.18-12.26-9.27Z"/>
        <path class="cls-41" d="M155.45,43.04l-1.17,.68c.32-2.34,.49-4.66,.49-6.93,0-18.73-11.39-27.33-25.43-19.23-6.51,3.76-12.46,10.46-16.95,18.43-.63-22.55-14.76-32.71-32.1-22.7-17.74,10.24-32.13,37.73-32.13,61.39,0,2.8,.21,5.41,.59,7.83l-2.21,1.28c-11.29,6.52-20.44,24-20.44,39.06h0c0,15.05,9.15,22.3,20.44,15.78l29.73-17.16h0l79.19-45.72c6.77-3.91,12.26-14.4,12.26-23.43h0c0-9.03-5.49-13.18-12.26-9.27Z"/>
        <path class="cls-40" d="M38.57,136.85c-5.03,0-8.29-5.49-8.29-14,0-13.46,8.4-29.69,18.35-35.43l2.21-1.28c1.5-.87,2.31-2.57,2.04-4.28h0c-.36-2.26-.54-4.68-.54-7.18,0-22.29,13.47-48.2,30.03-57.76,3.79-2.19,7.37-3.29,10.66-3.29,8.96,0,14.77,8.62,15.16,22.48h0c.12,4.24,5.75,5.64,7.83,1.94h0c4.31-7.63,9.78-13.62,15.4-16.86,2.86-1.65,5.55-2.49,8-2.49,6.77,0,11.15,7.1,11.15,18.09,0,2.03-.15,4.18-.45,6.36h0c-.47,3.45,3.23,5.94,6.24,4.2l1.17-.68c1.03-.6,1.99-.91,2.78-.91,2.22,0,3.21,3.29,3.21,6.56,0,7.55-4.66,16.62-10.17,19.81l-108.92,62.88c-2.11,1.22-4.09,1.84-5.87,1.84h0Z"/>
      </g>
    </g>
  </g>
</svg>