<?xml version="1.0" encoding="UTF-8"?>
<svg xmlns="http://www.w3.org/2000/svg" xmlns:xlink="http://www.w3.org/1999/xlink" viewBox="0 0 50 50">
  <defs>
    <style>
      .cls-1 {
        fill: url(#linear-gradient-2);
      }

      .cls-2, .cls-3, .cls-4, .cls-5 {
        fill: #fff;
      }

      .cls-6 {
        fill: url(#linear-gradient-17);
      }

      .cls-7 {
        fill: #75b3e2;
      }

      .cls-8 {
        fill: url(#linear-gradient-15);
      }

      .cls-9 {
        fill: url(#linear-gradient-18);
      }

      .cls-10 {
        fill: url(#linear-gradient-14);
      }

      .cls-11 {
        fill: url(#linear-gradient-20);
      }

      .cls-12 {
        fill: url(#linear-gradient-6);
      }

      .cls-13 {
        isolation: isolate;
      }

      .cls-3 {
        opacity: .5;
      }

      .cls-14 {
        fill: url(#linear-gradient-11);
      }

      .cls-15 {
        fill: #2375a8;
      }

      .cls-16 {
        fill: url(#linear-gradient-10);
      }

      .cls-4 {
        mix-blend-mode: soft-light;
      }

      .cls-17 {
        fill: url(#linear-gradient-16);
      }

      .cls-18 {
        fill: url(#linear-gradient-21);
      }

      .cls-19 {
        fill: url(#linear-gradient-5);
      }

      .cls-20 {
        fill: url(#linear-gradient);
        opacity: .57;
      }

      .cls-21 {
        fill: url(#linear-gradient-7);
      }

      .cls-22 {
        fill: url(#linear-gradient-9);
      }

      .cls-23 {
        fill: url(#linear-gradient-22);
      }

      .cls-24 {
        fill: url(#linear-gradient-3);
      }

      .cls-25 {
        fill: url(#linear-gradient-19);
      }

      .cls-26 {
        fill: url(#linear-gradient-4);
      }

      .cls-27 {
        fill: url(#linear-gradient-8);
      }

      .cls-5 {
        opacity: .65;
      }

      .cls-28 {
        fill: url(#linear-gradient-12);
      }

      .cls-29 {
        fill: url(#linear-gradient-13);
      }
    </style>
    <linearGradient id="linear-gradient" x1="55.48" y1="63.6" x2="12.52" y2="10.24" gradientUnits="userSpaceOnUse">
      <stop offset="0" stop-color="#486ab3"/>
      <stop offset="1" stop-color="#292b74"/>
    </linearGradient>
    <linearGradient id="linear-gradient-2" x1="27.4" y1="48.89" x2="26.93" y2="39.58" gradientUnits="userSpaceOnUse">
      <stop offset="0" stop-color="#293882"/>
      <stop offset="1" stop-color="#171042"/>
    </linearGradient>
    <linearGradient id="linear-gradient-3" x1="26.3" y1="11.38" x2="25.8" y2="40.69" xlink:href="#linear-gradient"/>
    <linearGradient id="linear-gradient-4" x1="27.49" y1="45.33" x2="21.96" y2="57.46" xlink:href="#linear-gradient-2"/>
    <linearGradient id="linear-gradient-5" x1="32.9" y1="15.67" x2="11.75" y2="41.42" gradientTransform="translate(41.23 61.24) rotate(-180)" xlink:href="#linear-gradient"/>
    <linearGradient id="linear-gradient-6" x1="24.79" y1="25.9" x2="14.96" y2="40.55" gradientTransform="translate(43.22 61.28) rotate(-180)" xlink:href="#linear-gradient"/>
    <linearGradient id="linear-gradient-7" x1="-635.06" y1="395.24" x2="-657.05" y2="414.14" gradientTransform="translate(659.63 -378.43)" xlink:href="#linear-gradient"/>
    <linearGradient id="linear-gradient-8" x1="-656.35" y1="416.39" x2="-643.39" y2="401.12" gradientTransform="translate(659.63 -378.6)" xlink:href="#linear-gradient"/>
    <linearGradient id="linear-gradient-9" x1="38.78" y1="2.07" x2="16.63" y2="29.03" gradientTransform="translate(51.83 35.45) rotate(-180)" xlink:href="#linear-gradient"/>
    <linearGradient id="linear-gradient-10" x1="21.67" y1="24.6" x2="33.73" y2="8.96" gradientTransform="translate(53.91 35.49) rotate(-180)" xlink:href="#linear-gradient"/>
    <linearGradient id="linear-gradient-11" x1="47.65" y1="13.1" x2="26.91" y2="38.35" gradientTransform="translate(67.83 59.64) rotate(-180)" xlink:href="#linear-gradient"/>
    <linearGradient id="linear-gradient-12" x1="38.27" y1="25.34" x2="28.92" y2="39.27" gradientTransform="translate(70.49 59.68) rotate(-180)" xlink:href="#linear-gradient"/>
    <linearGradient id="linear-gradient-13" x1="-2842.62" y1="-199.92" x2="-2844.66" y2="-193.67" gradientTransform="translate(2367 -1621.12) rotate(-39.31)" gradientUnits="userSpaceOnUse">
      <stop offset="0" stop-color="#f7b777"/>
      <stop offset="1" stop-color="#f47960"/>
    </linearGradient>
    <linearGradient id="linear-gradient-14" x1="-2362.16" y1="44.61" x2="-2358.4" y2="44.61" gradientTransform="translate(2406.26)" xlink:href="#linear-gradient-13"/>
    <linearGradient id="linear-gradient-15" x1="-2356.99" y1="36.2" x2="-2358.86" y2="48.3" gradientTransform="translate(2406.26)" gradientUnits="userSpaceOnUse">
      <stop offset="0" stop-color="#66cdf3"/>
      <stop offset="1" stop-color="#4a5aa8"/>
    </linearGradient>
    <linearGradient id="linear-gradient-16" x1="-2360.93" y1="35.59" x2="-2362.8" y2="47.7" xlink:href="#linear-gradient-15"/>
    <linearGradient id="linear-gradient-17" x1="-2364.45" y1="44.89" x2="-2362.27" y2="44.89" gradientTransform="translate(2406.26)" xlink:href="#linear-gradient-13"/>
    <linearGradient id="linear-gradient-18" x1="-2369.14" y1="28.55" x2="-2364.87" y2="28.55" gradientTransform="translate(2406.26)" xlink:href="#linear-gradient-13"/>
    <linearGradient id="linear-gradient-19" x1="40.57" y1="33.29" x2="44.53" y2="33.29" xlink:href="#linear-gradient"/>
    <linearGradient id="linear-gradient-20" x1="-2363.78" y1="30.64" x2="-2362.45" y2="30.64" gradientTransform="translate(2406.26)" xlink:href="#linear-gradient-13"/>
    <linearGradient id="linear-gradient-21" x1="-2361.67" y1="28.92" x2="-2351.97" y2="29.58" gradientTransform="translate(2406.26)" xlink:href="#linear-gradient-13"/>
    <linearGradient id="linear-gradient-22" x1="-2360.07" y1="28.33" x2="-2363.49" y2="35.16" gradientTransform="translate(2406.26)" xlink:href="#linear-gradient-2"/>
  </defs>
  <g class="cls-13">
    <g id="Layer_2" data-name="Layer 2">
      <g id="Layer_1-2" data-name="Layer 1">
        <g>
          <rect class="cls-2" width="50" height="50"/>
          <g>
            <path class="cls-20" d="M43.64,42.58c-.99,1.04-1.92,1.71-2.65,2.24-8.66,6.23-18.91,4.41-21.08,3.97-3.22-.65-9.43-1.92-13.92-7.22C-.82,33.55,.24,20.93,5.51,12.59c.96-1.52,6.06-9.99,16.42-11.34,6.27-.82,13.57,.84,18.86,5.28,11.11,9.33,10.32,28.17,2.85,36.05Z"/>
            <path class="cls-7" d="M21.08,32.72S19.05,12.91,11.43,1.16c-.51-.79-1.63-.68-1.98,.2-2.28,5.88-7.46,23.98,11.63,31.36Z"/>
            <path class="cls-3" d="M19.43,31.23c.04,.05-.03,.12-.07,.07-1.65-1.7-7.86-9.81-8.81-24.3,0-.05,.06-.05,.07,0,.5,3.4,2.7,15.99,8.81,24.24Z"/>
            <path class="cls-7" d="M1.33,4.4c-.08-.25,.28-.45,.51-.28,2.37,1.7,8.11,6.86,7.32,16.52-.99,12.12,2.17,16.33,5.94,18.79,0,0-5.03-.97-8.41-5.23C-1.6,23.72,2.68,8.92,1.33,4.4Z"/>
            <path class="cls-4" d="M3.27,8.05c.36,1.32,.69,2.65,.97,3.98,.28,1.33,.52,2.68,.7,4.02,.18,1.35,.33,2.7,.41,4.06,.09,1.36,.11,2.71,.13,4.08,.03,1.36,.04,2.74,.23,4.11,.18,1.37,.55,2.74,1.2,4.01,.16,.32,.33,.63,.52,.93,.18,.31,.38,.6,.59,.9,.41,.59,.88,1.15,1.38,1.69,1.02,1.06,2.23,1.99,3.55,2.75,.14,.08,.33,.05,.42-.07,.09-.12,.06-.28-.07-.36h0c-.31-.19-.63-.39-.92-.6-.15-.1-.3-.21-.45-.32-.14-.11-.29-.22-.43-.33-.57-.45-1.09-.93-1.58-1.44-.97-1.02-1.77-2.18-2.4-3.39-.3-.61-.56-1.24-.75-1.88-.19-.64-.33-1.3-.42-1.97-.19-1.33-.22-2.69-.26-4.05-.04-1.36-.09-2.73-.21-4.1-.06-.68-.13-1.36-.21-2.04-.04-.34-.09-.68-.13-1.02-.05-.34-.1-.68-.16-1.01-.23-1.35-.5-2.69-.82-4.03-.33-1.33-.7-2.66-1.13-3.96-.01-.04-.06-.06-.1-.05-.04,.01-.07,.05-.06,.09Z"/>
            <polygon class="cls-1" points="22.43 38.37 21.43 45.26 33.01 45.26 31.5 38.37 22.43 38.37"/>
            <path class="cls-24" d="M2.98,16.33v20.49c0,1.69,1.34,3.06,3.03,3.11,7.49,.19,33.66,.66,40.79,.56,1.22-.02,2.22-1,2.25-2.22,.14-4.76,.36-16.21-.47-21.52-.17-1.12-1.12-1.96-2.25-1.99-6.27-.2-34.02-.84-41.15-.68-1.23,.03-2.21,1.03-2.21,2.26Z"/>
            <path class="cls-7" d="M4.27,16.23v19.47c0,.98,.79,1.79,1.77,1.8l39.73,.49c.98,.01,1.78-.77,1.78-1.75l.07-19.3c0-.7-.55-1.27-1.25-1.29l-40.68-.82c-.78-.02-1.42,.61-1.42,1.39Z"/>
            <path class="cls-5" d="M47.86,38.79h0l-43.59-.74s-.05-.03-.05-.06c0-.03,.03-.05,.06-.05l43.59,.74s.05,.03,.05,.06c0,.03-.03,.05-.06,.05Z"/>
            <path class="cls-5" d="M26.49,39.69c-.28,0-.51-.23-.51-.51s.23-.51,.51-.51,.51,.23,.51,.51-.23,.51-.51,.51Zm0-.91c-.22,0-.4,.18-.4,.4s.18,.4,.4,.4,.4-.18,.4-.4-.18-.4-.4-.4Z"/>
            <path class="cls-26" d="M35.5,47.09H18.56c-.46,0-.81-.33-.72-.68l.22-.86c.07-.26,.35-.45,.69-.46l16.33-.51c.35-.01,.67,.18,.74,.45l.39,1.37c.1,.36-.25,.69-.71,.69Z"/>
            <path class="cls-2" d="M27.68,45.32s-.05-.02-.06-.05c0-.03,.02-.06,.05-.06h.7s.06,.01,.06,.04c0,.03-.02,.06-.05,.06h-.7s0,.01,0,.01Z"/>
            <path class="cls-2" d="M18.47,46.62s0,0,0,0c-.03,0-.05-.03-.05-.06l.1-.63c.05-.34,.34-.58,.68-.59l7.42-.11h0s.05,.02,.06,.05c0,.03-.02,.06-.05,.06l-7.42,.11c-.29,0-.53,.21-.57,.5l-.1,.63s-.03,.05-.05,.05Z"/>
            <rect class="cls-19" x="14.75" y="24.76" width="11.72" height="11.72" rx=".16" ry=".16" transform="translate(41.23 61.24) rotate(180)"/>
            <rect class="cls-12" x="15.96" y="24.78" width="11.29" height="11.72" rx=".16" ry=".16" transform="translate(43.22 61.28) rotate(180)"/>
            <g>
              <path class="cls-2" d="M17.44,32.67c0-.11,.03-.2,.09-.25,.06-.06,.15-.09,.26-.09s.2,.03,.26,.09c.06,.06,.09,.14,.09,.25s-.03,.19-.09,.25c-.06,.06-.15,.09-.25,.09s-.2-.03-.26-.09c-.06-.06-.09-.14-.09-.25Z"/>
              <path class="cls-2" d="M20.81,31.84c0,.36-.1,.65-.29,.85-.19,.2-.46,.31-.8,.31-.21,0-.4-.05-.57-.14-.16-.09-.29-.23-.38-.4s-.13-.38-.13-.61c0-.36,.09-.65,.28-.85,.19-.2,.46-.3,.8-.3,.21,0,.4,.05,.57,.14,.16,.09,.29,.23,.38,.4,.09,.17,.13,.38,.13,.61Zm-1.54,0c0,.22,.04,.39,.11,.5,.07,.11,.19,.17,.35,.17s.28-.06,.35-.17c.07-.11,.11-.28,.11-.5s-.04-.39-.11-.5c-.07-.11-.19-.17-.35-.17s-.28,.05-.35,.16c-.07,.11-.11,.27-.11,.5Z"/>
              <path class="cls-2" d="M22.66,30.69c.08,0,.15,0,.21,.02l-.05,.57s-.11-.02-.18-.02c-.19,0-.34,.05-.45,.15-.11,.1-.16,.24-.16,.42v1.13h-.61v-2.23h.46l.09,.37h.03c.07-.12,.16-.23,.28-.3,.12-.08,.25-.11,.38-.11Z"/>
              <path class="cls-2" d="M25.31,30.73v.31l-.35,.09c.06,.1,.1,.21,.1,.33,0,.24-.08,.42-.25,.56-.17,.13-.4,.2-.69,.2h-.11s-.09-.02-.09-.02c-.06,.05-.09,.1-.09,.16,0,.09,.11,.13,.33,.13h.38c.24,0,.43,.05,.56,.16,.13,.1,.19,.26,.19,.46,0,.26-.11,.46-.33,.61-.22,.14-.53,.21-.93,.21-.31,0-.55-.05-.71-.16-.16-.11-.25-.26-.25-.45,0-.13,.04-.25,.13-.34,.08-.09,.21-.15,.37-.19-.06-.03-.12-.07-.16-.13-.05-.06-.07-.12-.07-.19,0-.08,.02-.16,.07-.21,.05-.06,.12-.11,.21-.17-.12-.05-.21-.13-.28-.24-.07-.11-.1-.24-.1-.39,0-.24,.08-.43,.24-.56,.16-.13,.38-.2,.68-.2,.06,0,.14,0,.22,.02,.09,.01,.14,.02,.16,.02h.78Zm-1.72,2.54c0,.08,.04,.15,.12,.2,.08,.05,.19,.07,.34,.07,.22,0,.39-.03,.51-.09,.12-.06,.19-.14,.19-.24,0-.08-.04-.14-.11-.17-.07-.03-.19-.05-.34-.05h-.31c-.11,0-.2,.03-.28,.08-.08,.05-.11,.12-.11,.21Zm.22-1.81c0,.12,.03,.22,.08,.29,.06,.07,.14,.11,.25,.11s.2-.04,.25-.11c.05-.07,.08-.17,.08-.29,0-.27-.11-.4-.33-.4s-.33,.13-.33,.4Z"/>
            </g>
            <rect class="cls-21" x="1.77" y="24.54" width="13.56" height="12.04" rx=".16" ry=".16" transform="translate(-5.52 2.12) rotate(-10.7)"/>
            <rect class="cls-27" x="3.61" y="24.61" width="11.73" height="11.73" rx=".16" ry=".16" transform="translate(-5.49 2.29) rotate(-10.7)"/>
            <g>
              <path class="cls-2" d="M5.28,33.34c-.02-.1-.01-.18,.03-.25,.04-.06,.12-.11,.22-.13,.1-.02,.18-.01,.25,.03,.07,.04,.11,.11,.13,.21,.02,.1,0,.18-.03,.24-.04,.07-.12,.11-.21,.13-.1,.02-.19,.01-.25-.03-.07-.04-.11-.11-.13-.21Z"/>
              <path class="cls-2" d="M8.45,32.92l-.55,.12-.26-1.19c-.03-.15-.08-.25-.15-.31-.07-.06-.16-.08-.27-.06-.16,.03-.26,.11-.3,.23-.05,.12-.04,.3,0,.54l.21,.96-.55,.12-.44-2.03,.42-.09,.13,.24h.03c.04-.12,.11-.21,.21-.29,.1-.07,.22-.13,.35-.16,.24-.05,.43-.03,.58,.07,.15,.1,.25,.27,.3,.51l.29,1.32Z"/>
              <path class="cls-2" d="M10.04,32.61c-.33,.07-.6,.04-.83-.1-.22-.14-.37-.38-.44-.71-.07-.34-.05-.62,.08-.85,.13-.22,.34-.37,.65-.43,.29-.06,.53-.03,.72,.1,.2,.13,.33,.34,.39,.63l.06,.27-1.31,.29c.04,.16,.11,.27,.22,.34,.11,.07,.24,.09,.4,.05,.12-.03,.24-.06,.34-.11,.1-.05,.21-.11,.32-.2l.09,.43c-.09,.07-.18,.13-.29,.18-.11,.05-.24,.09-.4,.12Zm-.45-1.69c-.12,.03-.2,.08-.25,.17-.05,.09-.07,.2-.05,.34l.78-.17c-.03-.14-.09-.23-.18-.29-.09-.06-.19-.08-.3-.05Z"/>
              <path class="cls-2" d="M12.17,31.68c.1-.02,.21-.07,.34-.14l.09,.41c-.12,.09-.29,.16-.49,.2-.22,.05-.4,.03-.52-.06-.13-.09-.21-.25-.26-.47l-.21-.98-.27,.06-.05-.23,.26-.25,.07-.46,.35-.08,.09,.43,.57-.12,.09,.42-.57,.12,.21,.98c.02,.08,.05,.13,.1,.16,.05,.03,.11,.03,.19,.02Z"/>
            </g>
            <rect class="cls-22" x="19.78" y="11.59" width="12.27" height="12.27" rx=".16" ry=".16" transform="translate(51.83 35.45) rotate(180)"/>
            <rect class="cls-16" x="21.04" y="11.61" width="11.82" height="12.27" rx=".16" ry=".16" transform="translate(53.91 35.49) rotate(180)"/>
            <g>
              <path class="cls-2" d="M21.38,18.92c0-.12,.03-.21,.09-.27,.06-.06,.16-.09,.28-.09s.21,.03,.27,.09c.06,.06,.1,.15,.1,.27s-.03,.2-.1,.26c-.06,.06-.15,.1-.27,.1s-.21-.03-.27-.09c-.06-.06-.1-.15-.1-.26Z"/>
              <path class="cls-2" d="M23.77,19.26c-.73,0-1.1-.4-1.1-1.21,0-.4,.1-.71,.3-.92,.2-.21,.49-.32,.86-.32,.27,0,.52,.05,.73,.16l-.19,.5c-.1-.04-.2-.07-.28-.1-.09-.03-.17-.04-.26-.04-.33,0-.5,.24-.5,.71s.17,.69,.5,.69c.12,0,.24-.02,.34-.05,.11-.03,.21-.08,.32-.15v.55c-.1,.07-.21,.11-.31,.14-.11,.03-.24,.04-.4,.04Z"/>
              <path class="cls-2" d="M27.28,18.04c0,.38-.1,.68-.3,.9-.2,.22-.48,.32-.84,.32-.23,0-.43-.05-.6-.15s-.31-.24-.4-.43c-.09-.19-.14-.4-.14-.65,0-.38,.1-.68,.3-.9,.2-.21,.48-.32,.85-.32,.23,0,.43,.05,.6,.15,.17,.1,.31,.24,.4,.42,.09,.18,.14,.4,.14,.65Zm-1.63,0c0,.23,.04,.41,.11,.53,.08,.12,.2,.18,.37,.18s.29-.06,.37-.18c.08-.12,.11-.3,.11-.53s-.04-.41-.11-.52c-.08-.12-.2-.17-.37-.17s-.29,.06-.37,.17c-.08,.12-.11,.29-.11,.53Z"/>
              <path class="cls-2" d="M30.02,19.22h-.64v-1.38c0-.17-.03-.3-.09-.38-.06-.08-.15-.13-.27-.13-.16,0-.28,.06-.36,.18-.07,.12-.11,.32-.11,.6v1.11h-.64v-2.36h.49l.09,.3h.04c.06-.11,.15-.19,.27-.25,.12-.06,.26-.09,.41-.09,.35,0,.59,.12,.72,.35h.06c.06-.11,.16-.19,.28-.25,.12-.06,.26-.09,.42-.09,.27,0,.47,.07,.61,.21,.14,.14,.21,.36,.21,.66v1.54h-.64v-1.38c0-.17-.03-.3-.09-.38-.06-.08-.15-.13-.27-.13-.16,0-.27,.06-.35,.17-.08,.11-.12,.29-.12,.54v1.18Z"/>
            </g>
            <rect class="cls-14" x="27.96" y="24.25" width="11.91" height="11.15" rx=".16" ry=".16" transform="translate(67.83 59.64) rotate(180)"/>
            <rect class="cls-28" x="29.87" y="24.26" width="10.74" height="11.15" rx=".16" ry=".16" transform="translate(70.49 59.68) rotate(180)"/>
            <g>
              <path class="cls-2" d="M30.59,31.66c0-.1,.03-.18,.08-.23,.05-.05,.13-.08,.24-.08s.18,.03,.23,.08c.06,.05,.08,.13,.08,.23s-.03,.17-.08,.23c-.06,.06-.13,.08-.23,.08s-.18-.03-.24-.08c-.06-.05-.08-.13-.08-.23Z"/>
              <path class="cls-2" d="M31.8,29.36c0-.18,.1-.27,.3-.27s.3,.09,.3,.27c0,.09-.03,.15-.08,.2-.05,.05-.13,.07-.23,.07-.2,0-.3-.09-.3-.27Zm.58,2.56h-.56v-2.03h.56v2.03Z"/>
              <path class="cls-2" d="M34.93,31.92h-.56v-1.19c0-.15-.03-.26-.08-.33-.05-.07-.14-.11-.25-.11-.16,0-.27,.05-.34,.16-.07,.1-.1,.28-.1,.52v.96h-.56v-2.03h.42l.07,.26h.03c.06-.1,.15-.17,.26-.22,.11-.05,.23-.08,.37-.08,.24,0,.42,.06,.54,.19,.12,.13,.18,.31,.18,.55v1.33Z"/>
              <path class="cls-2" d="M36.72,30.3h-.48v1.62h-.56v-1.62h-.31v-.27l.31-.15v-.15c0-.23,.06-.4,.17-.51,.11-.11,.3-.16,.55-.16,.19,0,.36,.03,.51,.09l-.14,.41c-.11-.04-.21-.05-.31-.05-.08,0-.14,.02-.17,.07-.04,.05-.05,.11-.05,.18v.13h.48v.42Z"/>
              <path class="cls-2" d="M38.98,30.9c0,.33-.09,.59-.26,.78-.17,.19-.42,.28-.73,.28-.2,0-.37-.04-.52-.13-.15-.09-.26-.21-.34-.37s-.12-.35-.12-.56c0-.33,.09-.59,.26-.78,.17-.18,.42-.28,.73-.28,.2,0,.37,.04,.52,.13,.15,.08,.26,.21,.34,.37,.08,.16,.12,.35,.12,.56Zm-1.41,0c0,.2,.03,.35,.1,.46,.07,.1,.17,.15,.32,.15s.25-.05,.32-.15c.06-.1,.1-.26,.1-.46s-.03-.35-.1-.45c-.07-.1-.17-.15-.32-.15s-.25,.05-.32,.15c-.07,.1-.1,.25-.1,.45Z"/>
            </g>
            <path class="cls-29" d="M40,27.32s.09,4.03,4.33,4.74l.76-.75s-3.67-1.25-4.63-3.86l.2-1.38-.14-.92-.53,2.17Z"/>
            <path class="cls-10" d="M44.1,41.14s2.01,4.38,3.07,6.2c0,0,.21,1.14,0,1.5l-.18,.08,.83-.02s.07-1.54,.02-1.62c-.06-.09-.17-.08-.17-.08,0,0-.36-2.83-1.39-3.44l-1-3.46-1.17,.84Z"/>
            <path class="cls-8" d="M46.63,49.13s.65,.01,1.01,0c.13,0,.24-.09,.27-.22l.27-1.41c.03-.13-.06-.26-.19-.29l-.15-.03s-.21,.29-.15,.57c.07,.28,.13,.99-.04,1.07s-.66,.1-.66,.1c0,0-.34,.03-.36,.22Z"/>
            <path class="cls-17" d="M42.19,49.16c-.07,.04-.04,.14,.04,.14,.59,0,1.92-.02,2.04-.07,.15-.06-.06-.61-.27-.8l-1.21,.39-.59,.34Z"/>
            <path class="cls-6" d="M41.82,40.86s1.3,6.29,1.67,7.52l-.87,.55s.44-.07,.76-.1c.32-.02,.62-.39,.62-.39l-.1-.17s-.33-6.25-.25-6.96l-1.83-.44Z"/>
            <path class="cls-9" d="M38.59,26.19s-.18,3.27,2.8,4.94l-.72,1.64s-2.7-1.63-2.6-6.08c0-.13-.04-.25-.13-.35l-.57-.66c-.22-.25-.3-.6-.22-.92l.08-.3c.03-.1,.14-.15,.23-.1l.06,.03c.19,.11,.34,.28,.43,.48l.28,.63c.11,.23,.35,.38,.6,.36l.17-.02-.42,.35Z"/>
            <path class="cls-25" d="M41.29,30.89c.5,.14,2.19,.58,3.24,.56l-.65,3.65,.05,.6h-2.11s-.59-1.39-1.06-2.08c-.14-.2-.03-.44,.04-.66l-.11-.07c-.11-.07-.15-.21-.11-.33l.51-1.57c.03-.08,.11-.12,.19-.1Z"/>
            <path class="cls-15" d="M41.65,35.38l.04,.36s-.6,1.79,.3,5.96c0,0,1.94,.55,3.53-.76,0,0-.45-3.94-.57-4.12-.61-.91-1.02-1.11-1.02-1.11l-.02-.39s-1.7,.31-2.26,.07Z"/>
            <path class="cls-11" d="M42.48,31.18s.44-1.35,.44-1.35l.64,.06,.25,1.52s-1.01,.2-1.33-.23Z"/>
            <path class="cls-18" d="M43.41,27.71s-1.37,.58-1.09,1.95c.02,.08,.07,.15,.15,.18,.19,.09,.61,.24,1.12,.18,.7-.07,1.15-1.28,1.13-1.64-.02-.35-.89-.95-1.31-.69Z"/>
            <path class="cls-23" d="M43.81,27.17s-.77,.26-.4,.79c.36,.53,.5,.84,.33,1.08-.16,.21-.5,.09-.47,.53,0,.09-.03,.17-.11,.22-.33,.22-1.12,.9-.33,1.87,.06,.08,.08,.19,.03,.28-.23,.41-.72,1.63,1.04,2.3,1.74,.67,2.37-.47,2.54-.92,.04-.1,.13-.16,.24-.15,.19,0,.46-.02,.45-.28,0-.16-.1-.29-.22-.41-.11-.11-.09-.3,.05-.38,.1-.06,.2-.15,.23-.29,.11-.39-.1-1.56-1.22-1.76-.09-.02-.19-.1-.2-.2,0,0,0,0,0,0-.01-.09,.02-.18,.09-.24,.18-.13,.41-.39,.22-.82-.17-.38-.48-.5-.72-.54-.14-.02-.23-.15-.2-.29,.08-.37,.01-.97-1.34-.79Z"/>
          </g>
        </g>
      </g>
    </g>
  </g>
</svg>