<?xml version="1.0" encoding="UTF-8"?>
<svg id="Layer_2" data-name="Layer 2" xmlns="http://www.w3.org/2000/svg" xmlns:xlink="http://www.w3.org/1999/xlink" viewBox="0 0 43.54 49.02">
  <defs>
    <style>
      .cls-1 {
        fill: url(#linear-gradient-2);
      }

      .cls-2 {
        fill: #fff;
      }

      .cls-3 {
        fill: #75b3e2;
      }

      .cls-4 {
        fill: #3b6dab;
      }

      .cls-5 {
        fill: url(#linear-gradient-6);
      }

      .cls-6 {
        fill: #fafdff;
      }

      .cls-7 {
        fill: #b4d3e9;
      }

      .cls-8 {
        fill: url(#linear-gradient-5);
      }

      .cls-9 {
        fill: url(#linear-gradient-7);
      }

      .cls-10 {
        opacity: .4;
      }

      .cls-10, .cls-11 {
        fill: #d4eaf9;
      }

      .cls-12 {
        fill: #1f3f7a;
      }

      .cls-13 {
        fill: #285089;
      }

      .cls-14 {
        fill: url(#linear-gradient-9);
      }

      .cls-15 {
        fill: url(#linear-gradient-3);
      }

      .cls-16 {
        fill: url(#linear-gradient);
      }

      .cls-17 {
        fill: url(#linear-gradient-4);
      }

      .cls-18 {
        fill: #5793ce;
      }

      .cls-19 {
        fill: url(#linear-gradient-8);
      }
    </style>
    <linearGradient id="linear-gradient" x1="20.82" y1="22.11" x2="41" y2="22.11" gradientUnits="userSpaceOnUse">
      <stop offset="0" stop-color="#486ab3"/>
      <stop offset="1" stop-color="#292b74"/>
    </linearGradient>
    <linearGradient id="linear-gradient-2" x1="21.76" y1="17.46" x2="40.88" y2="17.46" xlink:href="#linear-gradient"/>
    <linearGradient id="linear-gradient-3" x1="38.54" y1="20.56" x2="41" y2="20.56" xlink:href="#linear-gradient"/>
    <linearGradient id="linear-gradient-4" x1="29.41" y1="3.59" x2="33.54" y2="3.59" xlink:href="#linear-gradient"/>
    <linearGradient id="linear-gradient-5" x1="31.81" y1="8.29" x2="43.54" y2="8.29" xlink:href="#linear-gradient"/>
    <linearGradient id="linear-gradient-6" x1="32.39" y1="2.36" x2="36.84" y2="2.36" xlink:href="#linear-gradient"/>
    <linearGradient id="linear-gradient-7" x1="35.64" y1="8.42" x2="41.53" y2="8.42" xlink:href="#linear-gradient"/>
    <linearGradient id="linear-gradient-8" x1="28.33" y1="8.93" x2="41.48" y2="8.93" xlink:href="#linear-gradient"/>
    <linearGradient id="linear-gradient-9" x1="0" y1="42.27" x2="19.62" y2="42.27" xlink:href="#linear-gradient"/>
  </defs>
  <g id="Layer_1-2" data-name="Layer 1">
    <g>
      <g>
        <g>
          <g>
            <path class="cls-7" d="M11.65,26.76l-7.4-4.22c-.27-.16-.24-.43,.08-.61l4.26-2.46c.31-.18,.79-.2,1.06-.04l7.4,4.22c.27,.16,.24,.43-.08,.61l-4.26,2.46c-.31,.18-.79,.2-1.06,.04Z"/>
            <path class="cls-4" d="M17.7,22.22h0V4.94l-6.87-1.8-1.27-.73c-.29-.17-.8-.15-1.13,.05l-1.18,.68H3.59s1.08,16.68,1.08,16.68c0,.11,.06,.22,.19,.3l6.86,5.17c.29,.17,.8,.15,1.13-.05l4.57-2.64c.19-.11,.29-.26,.28-.39Z"/>
            <path class="cls-11" d="M9.04,2.3c-.21,0-.43,.06-.61,.16l-1.18,.68H3.59s0,17.32,0,17.32c0,.11,.06,.22,.19,.3l7.94,4.53c.14,.08,.33,.12,.53,.11l.08-17.43-3.29-5.67Z"/>
            <path class="cls-18" d="M11.8,25.34c.25,.11,.61,.1,.91-.01V7.77h-.91V25.34Z"/>
            <path class="cls-11" d="M11.72,7.98L3.78,3.45c-.29-.17-.25-.46,.08-.65L8.43,.16c.34-.19,.84-.21,1.13-.05l7.94,4.53c.29,.17,.25,.46-.08,.65l-4.57,2.64c-.34,.19-.84,.21-1.13,.05Z"/>
            <path class="cls-6" d="M17.43,4.97l-4.57,2.64c-.34,.19-.84,.21-1.13,.05L3.78,3.13c-.06-.04-.11-.08-.14-.13-.1,.16-.05,.33,.14,.45l7.94,4.53c.29,.17,.8,.15,1.13-.05l4.57-2.64c.26-.15,.34-.36,.23-.53-.05,.07-.12,.14-.23,.2Z"/>
            <g>
              <path class="cls-12" d="M11.95,6.14L6.66,3.08c-.14-.08-.12-.22,.04-.31l2.14-1.23c.16-.09,.39-.1,.53-.02l5.29,3.06c.14,.08,.12,.22-.04,.31l-2.14,1.23c-.16,.09-.39,.1-.53,.02Z"/>
              <g>
                <path class="cls-11" d="M9.09,3.22l-.31-.18s-.02-.03,0-.04l.3-.17s.05-.01,.07,0l.31,.18s.02,.03,0,.04l-.3,.17s-.05,.01-.07,0Z"/>
                <path class="cls-11" d="M10.12,3.81l-.31-.18s-.02-.03,0-.04l.3-.17s.05-.01,.07,0l.31,.18s.02,.03,0,.04l-.3,.17s-.05,.01-.07,0Z"/>
                <path class="cls-11" d="M11.14,4.39l-.31-.18s-.02-.03,0-.04l.3-.17s.05-.01,.07,0l.31,.18s.02,.03,0,.04l-.3,.17s-.05,.01-.07,0Z"/>
                <path class="cls-11" d="M12.17,4.98l-.31-.18s-.02-.03,0-.04l.3-.17s.05-.01,.07,0l.31,.18s.02,.03,0,.04l-.3,.17s-.05,.01-.07,0Z"/>
              </g>
              <path class="cls-18" d="M6.66,3.08h0s.02-.01,.03-.02l2.14-1.23c.16-.09,.39-.1,.53-.02l5.28,3.06c.13-.09,.13-.21,0-.28L9.37,1.52c-.14-.08-.37-.07-.53,.02l-2.14,1.23c-.16,.09-.17,.23-.04,.31Z"/>
            </g>
          </g>
          <g>
            <path class="cls-12" d="M13.75,11.4l3.01-1.72c.17-.1,.31-.36,.31-.59v-1.07c0-.23-.14-.33-.31-.23l-3.01,1.72c-.17,.1-.31,.36-.31,.59v1.07c0,.23,.14,.33,.31,.23Z"/>
            <path class="cls-2" d="M16.9,7.76s.08,.12,.08,.22v1.07c0,.23-.14,.49-.31,.59l-3.01,1.72c-.05,.03-.1,.04-.15,.03,.06,.05,.14,.06,.23,0l3.01-1.72c.17-.1,.31-.36,.31-.59v-1.07c0-.15-.06-.25-.16-.26Z"/>
            <g>
              <path class="cls-4" d="M14.65,10.24l.28-.16s.07-.08,.07-.13v-.29s-.03-.07-.07-.05l-.28,.16s-.07,.08-.07,.13v.29s.03,.07,.07,.05Z"/>
              <path class="cls-2" d="M15.58,9.7l.28-.16s.07-.08,.07-.13v-.29s-.03-.07-.07-.05l-.28,.16s-.07,.08-.07,.13v.29s.03,.07,.07,.05Z"/>
            </g>
          </g>
          <g>
            <path class="cls-12" d="M13.75,19.17l3.01-1.72c.17-.1,.31-.36,.31-.59v-1.07c0-.23-.14-.33-.31-.23l-3.01,1.72c-.17,.1-.31,.36-.31,.59v1.07c0,.23,.14,.33,.31,.23Z"/>
            <path class="cls-2" d="M16.9,15.53s.08,.12,.08,.22v1.07c0,.23-.14,.49-.31,.59l-3.01,1.72c-.05,.03-.1,.04-.15,.03,.06,.05,.14,.06,.23,0l3.01-1.72c.17-.1,.31-.36,.31-.59v-1.07c0-.15-.06-.25-.16-.26Z"/>
            <g>
              <path class="cls-4" d="M14.65,18l.28-.16s.07-.08,.07-.13v-.29s-.03-.07-.07-.05l-.28,.16s-.07,.08-.07,.13v.29s.03,.07,.07,.05Z"/>
              <path class="cls-2" d="M15.58,17.47l.28-.16s.07-.08,.07-.13v-.29s-.03-.07-.07-.05l-.28,.16s-.07,.08-.07,.13v.29s.03,.07,.07,.05Z"/>
            </g>
          </g>
          <g>
            <path class="cls-12" d="M13.75,23.05l3.01-1.72c.17-.1,.31-.36,.31-.59v-1.07c0-.23-.14-.33-.31-.23l-3.01,1.72c-.17,.1-.31,.36-.31,.59v1.07c0,.23,.14,.33,.31,.23Z"/>
            <path class="cls-2" d="M16.9,19.41s.08,.12,.08,.22v1.07c0,.23-.14,.49-.31,.59l-3.01,1.72c-.05,.03-.1,.04-.15,.03,.06,.05,.14,.06,.23,0l3.01-1.72c.17-.1,.31-.36,.31-.59v-1.07c0-.15-.06-.25-.16-.26Z"/>
            <g>
              <path class="cls-4" d="M14.65,21.89l.28-.16s.07-.08,.07-.13v-.29s-.03-.07-.07-.05l-.28,.16s-.07,.08-.07,.13v.29s.03,.07,.07,.05Z"/>
              <path class="cls-2" d="M15.58,21.35l.28-.16s.07-.08,.07-.13v-.29s-.03-.07-.07-.05l-.28,.16s-.07,.08-.07,.13v.29s.03,.07,.07,.05Z"/>
            </g>
          </g>
          <g>
            <path class="cls-12" d="M13.75,15.29l3.01-1.72c.17-.1,.31-.36,.31-.59v-1.07c0-.23-.14-.33-.31-.23l-3.01,1.72c-.17,.1-.31,.36-.31,.59v1.07c0,.23,.14,.33,.31,.23Z"/>
            <path class="cls-2" d="M16.9,11.64s.08,.12,.08,.22v1.07c0,.23-.14,.49-.31,.59l-3.01,1.72c-.05,.03-.1,.04-.15,.03,.06,.05,.14,.06,.23,0l3.01-1.72c.17-.1,.31-.36,.31-.59v-1.07c0-.15-.06-.25-.16-.26Z"/>
            <g>
              <path class="cls-4" d="M14.65,14.12l.28-.16s.07-.08,.07-.13v-.29s-.03-.07-.07-.05l-.28,.16s-.07,.08-.07,.13v.29s.03,.07,.07,.05Z"/>
              <path class="cls-2" d="M15.58,13.59l.28-.16s.07-.08,.07-.13v-.29s-.03-.07-.07-.05l-.28,.16s-.07,.08-.07,.13v.29s.03,.07,.07,.05Z"/>
            </g>
          </g>
        </g>
        <g>
          <path class="cls-18" d="M11.15,10.3L4.21,6.3c-.16-.09-.28-.33-.28-.54v-1.32c0-.21,.13-.3,.28-.21l6.93,4c.16,.09,.28,.33,.28,.54v1.32c0,.21-.13,.3-.28,.21Z"/>
          <path class="cls-10" d="M10.95,9.84l-6.54-3.77c-.08-.05-.14-.17-.14-.27v-.99c0-.1,.06-.15,.14-.11l6.54,3.77c.08,.05,.14,.17,.14,.27v.99c0,.1-.06,.15-.14,.11Z"/>
          <path class="cls-11" d="M5.77,6.35l-.98-.56c-.08-.04-.14-.16-.14-.26h0c0-.1,.06-.15,.14-.1l.98,.56c.08,.04,.14,.16,.14,.26h0c0,.1-.06,.15-.14,.1Z"/>
          <path class="cls-12" d="M6.6,6.64c0,.1-.07,.14-.16,.09-.09-.05-.16-.17-.16-.28s.07-.14,.16-.09c.09,.05,.16,.17,.16,.28Z"/>
          <path class="cls-12" d="M7.17,6.97c0,.1-.07,.14-.16,.09-.09-.05-.16-.17-.16-.28s.07-.14,.16-.09c.09,.05,.16,.17,.16,.28Z"/>
          <path class="cls-11" d="M7.73,7.3c0,.1-.07,.14-.16,.09-.09-.05-.16-.17-.16-.28s.07-.14,.16-.09,.16,.17,.16,.28Z"/>
          <path class="cls-12" d="M8.3,7.62c0,.1-.07,.14-.16,.09-.09-.05-.16-.17-.16-.28s.07-.14,.16-.09c.09,.05,.16,.17,.16,.28Z"/>
          <path class="cls-12" d="M10.67,9.29l-.33-.19s-.09-.1-.09-.17v-.35c0-.07,.04-.1,.09-.07l.33,.19s.09,.1,.09,.17v.35c0,.07-.04,.1-.09,.07Z"/>
        </g>
        <g>
          <path class="cls-18" d="M11.15,12.63l-6.93-4c-.16-.09-.28-.33-.28-.54v-1.32c0-.21,.13-.3,.28-.21l6.93,4c.16,.09,.28,.33,.28,.54v1.32c0,.21-.13,.3-.28,.21Z"/>
          <path class="cls-10" d="M10.95,12.17l-6.54-3.77c-.08-.05-.14-.17-.14-.27v-.99c0-.1,.06-.15,.14-.11l6.54,3.77c.08,.05,.14,.17,.14,.27v.99c0,.1-.06,.15-.14,.11Z"/>
          <path class="cls-11" d="M5.77,8.68l-.98-.56c-.08-.04-.14-.16-.14-.26h0c0-.1,.06-.15,.14-.1l.98,.56c.08,.04,.14,.16,.14,.26h0c0,.1-.06,.15-.14,.1Z"/>
          <path class="cls-2" d="M6.6,8.98c0,.1-.07,.14-.16,.09-.09-.05-.16-.17-.16-.28s.07-.14,.16-.09c.09,.05,.16,.17,.16,.28Z"/>
          <path class="cls-12" d="M7.17,9.3c0,.1-.07,.14-.16,.09-.09-.05-.16-.17-.16-.28s.07-.14,.16-.09c.09,.05,.16,.17,.16,.28Z"/>
          <path class="cls-11" d="M7.73,9.63c0,.1-.07,.14-.16,.09-.09-.05-.16-.17-.16-.28s.07-.14,.16-.09,.16,.17,.16,.28Z"/>
          <path class="cls-12" d="M8.3,9.95c0,.1-.07,.14-.16,.09-.09-.05-.16-.17-.16-.28s.07-.14,.16-.09c.09,.05,.16,.17,.16,.28Z"/>
          <path class="cls-12" d="M10.67,11.62l-.33-.19s-.09-.1-.09-.17v-.35c0-.07,.04-.1,.09-.07l.33,.19s.09,.1,.09,.17v.35c0,.07-.04,.1-.09,.07Z"/>
        </g>
        <g>
          <path class="cls-18" d="M11.15,14.97l-6.93-4c-.16-.09-.28-.33-.28-.54v-1.32c0-.21,.13-.3,.28-.21l6.93,4c.16,.09,.28,.33,.28,.54v1.32c0,.21-.13,.3-.28,.21Z"/>
          <path class="cls-10" d="M10.95,14.5l-6.54-3.77c-.08-.05-.14-.17-.14-.27v-.99c0-.1,.06-.15,.14-.11l6.54,3.77c.08,.05,.14,.17,.14,.27v.99c0,.1-.06,.15-.14,.11Z"/>
          <path class="cls-11" d="M5.77,11.01l-.98-.56c-.08-.04-.14-.16-.14-.26h0c0-.1,.06-.15,.14-.1l.98,.56c.08,.04,.14,.16,.14,.26h0c0,.1-.06,.15-.14,.1Z"/>
          <path class="cls-2" d="M6.6,11.31c0,.1-.07,.14-.16,.09-.09-.05-.16-.17-.16-.28s.07-.14,.16-.09c.09,.05,.16,.17,.16,.28Z"/>
          <path class="cls-12" d="M7.17,11.63c0,.1-.07,.14-.16,.09-.09-.05-.16-.17-.16-.28s.07-.14,.16-.09c.09,.05,.16,.17,.16,.28Z"/>
          <path class="cls-11" d="M7.73,11.96c0,.1-.07,.14-.16,.09-.09-.05-.16-.17-.16-.28s.07-.14,.16-.09c.09,.05,.16,.17,.16,.28Z"/>
          <path class="cls-12" d="M8.3,12.28c0,.1-.07,.14-.16,.09-.09-.05-.16-.17-.16-.28s.07-.14,.16-.09c.09,.05,.16,.17,.16,.28Z"/>
          <path class="cls-12" d="M10.67,13.95l-.33-.19s-.09-.1-.09-.17v-.35c0-.07,.04-.1,.09-.07l.33,.19s.09,.1,.09,.17v.35c0,.07-.04,.1-.09,.07Z"/>
        </g>
        <g>
          <path class="cls-18" d="M11.15,17.3l-6.93-4c-.16-.09-.28-.33-.28-.54v-1.32c0-.21,.13-.3,.28-.21l6.93,4c.16,.09,.28,.33,.28,.54v1.32c0,.21-.13,.3-.28,.21Z"/>
          <path class="cls-10" d="M10.95,16.83l-6.54-3.77c-.08-.05-.14-.17-.14-.27v-.99c0-.1,.06-.15,.14-.11l6.54,3.77c.08,.05,.14,.17,.14,.27v.99c0,.1-.06,.15-.14,.11Z"/>
          <path class="cls-11" d="M5.77,13.34l-.98-.56c-.08-.04-.14-.16-.14-.26h0c0-.1,.06-.15,.14-.1l.98,.56c.08,.04,.14,.16,.14,.26h0c0,.1-.06,.15-.14,.1Z"/>
          <path class="cls-12" d="M6.6,13.64c0,.1-.07,.14-.16,.09-.09-.05-.16-.17-.16-.28s.07-.14,.16-.09c.09,.05,.16,.17,.16,.28Z"/>
          <path class="cls-12" d="M7.17,13.97c0,.1-.07,.14-.16,.09-.09-.05-.16-.17-.16-.28s.07-.14,.16-.09c.09,.05,.16,.17,.16,.28Z"/>
          <path class="cls-11" d="M7.73,14.29c0,.1-.07,.14-.16,.09s-.16-.17-.16-.28,.07-.14,.16-.09c.09,.05,.16,.17,.16,.28Z"/>
          <path class="cls-12" d="M8.3,14.62c0,.1-.07,.14-.16,.09-.09-.05-.16-.17-.16-.28s.07-.14,.16-.09c.09,.05,.16,.17,.16,.28Z"/>
          <path class="cls-11" d="M10.67,16.28l-.33-.19s-.09-.1-.09-.17v-.35c0-.07,.04-.1,.09-.07l.33,.19s.09,.1,.09,.17v.35c0,.07-.04,.1-.09,.07Z"/>
        </g>
        <g>
          <path class="cls-18" d="M11.15,19.63l-6.93-4c-.16-.09-.28-.33-.28-.54v-1.32c0-.21,.13-.3,.28-.21l6.93,4c.16,.09,.28,.33,.28,.54v1.32c0,.21-.13,.3-.28,.21Z"/>
          <path class="cls-10" d="M10.95,19.17l-6.54-3.77c-.08-.05-.14-.17-.14-.27v-.99c0-.1,.06-.15,.14-.11l6.54,3.77c.08,.05,.14,.17,.14,.27v.99c0,.1-.06,.15-.14,.11Z"/>
          <path class="cls-11" d="M5.77,15.68l-.98-.56c-.08-.04-.14-.16-.14-.26h0c0-.1,.06-.15,.14-.1l.98,.56c.08,.04,.14,.16,.14,.26h0c0,.1-.06,.15-.14,.1Z"/>
          <path class="cls-12" d="M6.6,15.97c0,.1-.07,.14-.16,.09-.09-.05-.16-.17-.16-.28s.07-.14,.16-.09c.09,.05,.16,.17,.16,.28Z"/>
          <path class="cls-2" d="M7.17,16.3c0,.1-.07,.14-.16,.09-.09-.05-.16-.17-.16-.28s.07-.14,.16-.09c.09,.05,.16,.17,.16,.28Z"/>
          <path class="cls-11" d="M7.73,16.62c0,.1-.07,.14-.16,.09s-.16-.17-.16-.28,.07-.14,.16-.09c.09,.05,.16,.17,.16,.28Z"/>
          <path class="cls-2" d="M8.3,16.95c0,.1-.07,.14-.16,.09-.09-.05-.16-.17-.16-.28s.07-.14,.16-.09c.09,.05,.16,.17,.16,.28Z"/>
          <path class="cls-11" d="M10.67,18.61l-.33-.19s-.09-.1-.09-.17v-.35c0-.07,.04-.1,.09-.07l.33,.19s.09,.1,.09,.17v.35c0,.07-.04,.1-.09,.07Z"/>
        </g>
        <g>
          <path class="cls-18" d="M11.15,21.96l-6.93-4c-.16-.09-.28-.33-.28-.54v-1.32c0-.21,.13-.3,.28-.21l6.93,4c.16,.09,.28,.33,.28,.54v1.32c0,.21-.13,.3-.28,.21Z"/>
          <path class="cls-10" d="M10.95,21.5l-6.54-3.77c-.08-.05-.14-.17-.14-.27v-.99c0-.1,.06-.15,.14-.11l6.54,3.77c.08,.05,.14,.17,.14,.27v.99c0,.1-.06,.15-.14,.11Z"/>
          <path class="cls-11" d="M5.77,18.01l-.98-.56c-.08-.04-.14-.16-.14-.26h0c0-.1,.06-.15,.14-.1l.98,.56c.08,.04,.14,.16,.14,.26h0c0,.1-.06,.15-.14,.1Z"/>
          <path class="cls-12" d="M6.6,18.3c0,.1-.07,.14-.16,.09-.09-.05-.16-.17-.16-.28s.07-.14,.16-.09c.09,.05,.16,.17,.16,.28Z"/>
          <path class="cls-12" d="M7.17,18.63c0,.1-.07,.14-.16,.09-.09-.05-.16-.17-.16-.28s.07-.14,.16-.09c.09,.05,.16,.17,.16,.28Z"/>
          <path class="cls-11" d="M7.73,18.95c0,.1-.07,.14-.16,.09-.09-.05-.16-.17-.16-.28s.07-.14,.16-.09,.16,.17,.16,.28Z"/>
          <path class="cls-12" d="M8.3,19.28c0,.1-.07,.14-.16,.09-.09-.05-.16-.17-.16-.28s.07-.14,.16-.09c.09,.05,.16,.17,.16,.28Z"/>
          <path class="cls-12" d="M10.67,20.94l-.33-.19s-.09-.1-.09-.17v-.35c0-.07,.04-.1,.09-.07l.33,.19s.09,.1,.09,.17v.35c0,.07-.04,.1-.09,.07Z"/>
        </g>
        <g>
          <path class="cls-18" d="M11.15,24.29l-6.93-4c-.16-.09-.28-.33-.28-.54v-1.32c0-.21,.13-.3,.28-.21l6.93,4c.16,.09,.28,.33,.28,.54v1.32c0,.21-.13,.3-.28,.21Z"/>
          <path class="cls-10" d="M10.95,23.83l-6.54-3.77c-.08-.05-.14-.17-.14-.27v-.99c0-.1,.06-.15,.14-.11l6.54,3.77c.08,.05,.14,.17,.14,.27v.99c0,.1-.06,.15-.14,.11Z"/>
          <path class="cls-11" d="M5.77,20.34l-.98-.56c-.08-.04-.14-.16-.14-.26h0c0-.1,.06-.15,.14-.1l.98,.56c.08,.04,.14,.16,.14,.26h0c0,.1-.06,.15-.14,.1Z"/>
          <path class="cls-2" d="M6.78,20.76c0,.19-.14,.27-.3,.17-.17-.1-.3-.33-.3-.52s.14-.27,.3-.17c.17,.1,.3,.33,.3,.52Z"/>
          <path class="cls-12" d="M7.95,21.44c0,.1-.07,.14-.16,.09-.09-.05-.16-.17-.16-.28s.07-.14,.16-.09c.09,.05,.16,.17,.16,.28Z"/>
          <path class="cls-11" d="M8.51,21.77c0,.1-.07,.14-.16,.09s-.16-.17-.16-.28,.07-.14,.16-.09c.09,.05,.16,.17,.16,.28Z"/>
          <path class="cls-12" d="M9.08,22.1c0,.1-.07,.14-.16,.09-.09-.05-.16-.17-.16-.28s.07-.14,.16-.09c.09,.05,.16,.17,.16,.28Z"/>
          <path class="cls-11" d="M10.67,23.28l-.33-.19s-.09-.1-.09-.17v-.35c0-.07,.04-.1,.09-.07l.33,.19s.09,.1,.09,.17v.35c0,.07-.04,.1-.09,.07Z"/>
        </g>
      </g>
      <path class="cls-18" d="M10.69,30.15s-.05,0-.07-.02l-7.88-4.48c-.1-.05-.15-.15-.15-.26,0-.11,.06-.21,.15-.27l3.38-2c.12-.07,.19-.2,.19-.34v-2.2c0-.08,.06-.14,.14-.14s.14,.06,.14,.14v2.2c0,.24-.13,.46-.33,.58l-3.38,2s-.01,.01-.01,.02c0,0,0,.02,.01,.02l7.88,4.48c.07,.04,.09,.12,.05,.19-.03,.05-.07,.07-.12,.07Z"/>
      <g>
        <g>
          <g>
            <rect class="cls-18" x="8.29" y="28.07" width=".75" height="1.62" transform="translate(38.03 35.72) rotate(119.83)"/>
            <path class="cls-18" d="M7.7,28.63c0-.17,.12-.37,.26-.46,.15-.08,.26-.02,.27,.15,0,.17-.12,.37-.26,.46-.15,.08-.26,.02-.27-.15Z"/>
          </g>
          <g>
            <rect class="cls-18" x="9.62" y="28.5" width="1.21" height="2.53" transform="translate(41.13 35.71) rotate(119.83)"/>
            <path class="cls-4" d="M9.33,28.82l-.47-.27c-.2,.14-.35,.41-.37,.65l.47,.27c.2-.14,.35-.41,.37-.65Z"/>
            <path class="cls-18" d="M8.7,29.39c0-.27,.19-.61,.43-.74,.24-.14,.43-.03,.43,.25,0,.27-.19,.61-.43,.74-.24,.14-.43,.03-.43-.25Z"/>
          </g>
        </g>
        <path class="cls-11" d="M8.15,28.45c-.07-.04-.07-.1,0-.14,.07-.04,.18-.04,.25,0,.07,.04,.07,.1,0,.14-.07,.04-.18,.04-.25,0Z"/>
      </g>
      <g>
        <g>
          <g>
            <rect class="cls-18" x="6.59" y="29.1" width=".75" height="1.62" transform="translate(36.37 38.74) rotate(119.83)"/>
            <path class="cls-18" d="M6,29.66c0-.17,.12-.37,.26-.46,.15-.08,.26-.02,.27,.15,0,.17-.12,.37-.26,.46-.15,.08-.26,.02-.27-.15Z"/>
          </g>
          <g>
            <rect class="cls-18" x="7.91" y="29.53" width="1.21" height="2.53" transform="translate(39.48 38.73) rotate(119.83)"/>
            <path class="cls-4" d="M7.62,29.85l-.47-.27c-.2,.14-.35,.41-.37,.65l.47,.27c.2-.14,.35-.41,.37-.65Z"/>
            <path class="cls-18" d="M6.99,30.42c0-.27,.19-.61,.43-.74,.24-.14,.43-.03,.43,.25s-.19,.61-.43,.74c-.24,.14-.43,.03-.43-.25Z"/>
          </g>
        </g>
        <path class="cls-11" d="M6.44,29.48c-.07-.04-.07-.1,0-.14,.07-.04,.18-.04,.25,0s.07,.1,0,.14c-.07,.04-.18,.04-.25,0Z"/>
      </g>
      <g>
        <path class="cls-18" d="M34.72,17.6s-.02,0-.03,0c-.08-.02-.12-.09-.1-.17l1.36-5.91c.02-.08,.09-.12,.17-.1,.08,.02,.12,.09,.1,.17l-1.36,5.91c-.01,.06-.07,.11-.14,.11Z"/>
        <path class="cls-18" d="M32.91,17.18s-.02,0-.03,0c-.08-.02-.12-.09-.1-.17l1.36-5.91c.02-.08,.09-.12,.17-.1,.08,.02,.12,.09,.1,.17l-1.36,5.91c-.01,.06-.07,.11-.14,.11Z"/>
        <path class="cls-18" d="M31.1,16.77s-.02,0-.03,0c-.08-.02-.12-.09-.1-.17l1.36-5.91c.02-.08,.09-.12,.17-.1,.08,.02,.12,.09,.1,.17l-1.36,5.91c-.01,.06-.07,.11-.14,.11Z"/>
        <g>
          <g>
            <g>
              <rect class="cls-18" x="31.58" y="12.16" width=".75" height="1.62" transform="translate(3.8 -6.95) rotate(13.19)"/>
              <path class="cls-18" d="M31.99,13.96c-.16,.05-.39,0-.52-.12-.12-.12-.09-.25,.07-.3,.16-.05,.39,0,.52,.12,.12,.12,.09,.25-.07,.3Z"/>
            </g>
            <g>
              <rect class="cls-18" x="31.76" y="9.96" width="1.21" height="2.53" transform="translate(3.42 -7.09) rotate(13.19)"/>
              <path class="cls-4" d="M31.71,12.36l-.12,.53c.19,.15,.49,.22,.73,.17l.12-.53c-.19-.15-.49-.22-.73-.17Z"/>
              <path class="cls-18" d="M32.44,12.8c-.26,.08-.64,0-.84-.2-.2-.19-.15-.4,.11-.48,.26-.08,.64,0,.84,.2,.2,.19,.15,.4-.11,.48Z"/>
            </g>
          </g>
          <path class="cls-11" d="M31.7,13.59c-.02,.08-.08,.1-.14,.04s-.09-.16-.07-.24,.08-.1,.14-.04c.06,.05,.09,.16,.07,.24Z"/>
        </g>
        <g>
          <g>
            <g>
              <rect class="cls-18" x="33.26" y="13.16" width=".75" height="1.62" transform="translate(4.08 -7.31) rotate(13.19)"/>
              <path class="cls-18" d="M33.67,14.96c-.16,.05-.39,0-.52-.12-.12-.12-.09-.25,.07-.3s.39,0,.52,.12c.12,.12,.09,.25-.07,.3Z"/>
            </g>
            <g>
              <rect class="cls-18" x="33.44" y="10.96" width="1.21" height="2.53" transform="translate(3.69 -7.45) rotate(13.19)"/>
              <path class="cls-4" d="M33.39,13.36l-.12,.53c.19,.15,.49,.22,.73,.17l.12-.53c-.19-.15-.49-.22-.73-.17Z"/>
              <path class="cls-18" d="M34.12,13.8c-.26,.08-.64,0-.84-.2-.2-.19-.15-.4,.11-.48,.26-.08,.64,0,.84,.2,.2,.19,.15,.4-.11,.48Z"/>
            </g>
          </g>
          <path class="cls-11" d="M33.38,14.59c-.02,.08-.08,.1-.14,.04-.06-.05-.09-.16-.07-.24,.02-.08,.08-.1,.14-.04s.09,.16,.07,.24Z"/>
        </g>
        <g>
          <g>
            <g>
              <rect class="cls-18" x="34.96" y="14.15" width=".75" height="1.62" transform="translate(4.35 -7.67) rotate(13.19)"/>
              <path class="cls-18" d="M35.37,15.96c-.16,.05-.39,0-.52-.12-.12-.12-.09-.25,.07-.3s.39,0,.52,.12c.12,.12,.09,.25-.07,.3Z"/>
            </g>
            <g>
              <rect class="cls-18" x="35.13" y="11.95" width="1.21" height="2.53" transform="translate(3.96 -7.81) rotate(13.19)"/>
              <path class="cls-4" d="M35.09,14.35l-.12,.53c.19,.15,.49,.22,.73,.17l.12-.53c-.19-.15-.49-.22-.73-.17Z"/>
              <path class="cls-18" d="M35.81,14.79c-.26,.08-.64,0-.84-.2-.2-.19-.15-.4,.11-.48,.26-.08,.64,0,.84,.2,.2,.19,.15,.4-.11,.48Z"/>
            </g>
          </g>
          <path class="cls-11" d="M35.08,15.58c-.02,.08-.08,.1-.14,.04-.06-.05-.09-.16-.07-.24,.02-.08,.08-.1,.14-.04,.06,.05,.09,.16,.07,.24Z"/>
        </g>
      </g>
      <g>
        <path class="cls-7" d="M23.61,43.67L7.38,34.3c-.46-.26-.4-.73,.13-1.03l11.05-6.38c.53-.31,1.33-.34,1.79-.07l16.22,9.37c.46,.26,.4,.73-.13,1.03l-11.05,6.38c-.53,.31-1.33,.34-1.79,.07Z"/>
        <path class="cls-16" d="M40.37,19.59L24.15,10.23c-.19-.11-.38-.13-.55-.07h0s-.03,0-.03,0c0,0,0,0,0,0l-.59,.22,.53,.26s0,.02,0,.03l-2.64,12.03c-.13,.6,.13,1.3,.59,1.57l15.83,9.14-.06,.67,.64-.25c.22-.1,.39-.33,.46-.65l2.64-12.03c.13-.6-.13-1.3-.59-1.57Z"/>
        <path class="cls-1" d="M40.37,19.59L24.15,10.23c-.19-.11-.38-.13-.55-.07h0s-.03,0-.03,0c0,0,0,0,0,0l-.59,.22,.53,.26s0,.02,0,.03l-1.74,7.93,7.94,6.18,11.19-4.55c-.11-.28-.29-.52-.51-.65Z"/>
        <path class="cls-15" d="M39.76,21.44l1.23-.53c.02-.48-.18-.97-.5-1.24l-1.95,.82,1.22,.94Z"/>
        <path class="cls-3" d="M36.66,34.03l-16.22-9.37c-.46-.26-.72-.97-.59-1.57l2.64-12.03c.13-.6,.61-.88,1.07-.61l16.22,9.37c.46,.26,.72,.97,.59,1.57l-2.64,12.03c-.13,.6-.61,.88-1.07,.61Z"/>
        <path class="cls-2" d="M36.31,33.13l-15.26-8.8c-.42-.24-.66-.89-.54-1.44l2.42-11.01c.12-.55,.56-.8,.98-.56l15.26,8.8c.42,.24,.66,.89,.54,1.44l-2.42,11.01c-.12,.55-.56,.8-.98,.56Z"/>
        <path class="cls-2" d="M36.31,33.13l-15.26-8.8c-.42-.24-.66-.89-.54-1.44l2.42-11.01c.12-.55,.56-.8,.98-.56l15.26,8.8c.42,.24,.66,.89,.54,1.44l-2.42,11.01c-.12,.55-.56,.8-.98,.56Z"/>
        <path class="cls-12" d="M36.88,34.44l-2.22-.29-14.31-8.26c-.46-.26-1.26-.23-1.79,.07l-10.14,5.85-1.34-.18v.76h0c0,.18,.09,.35,.31,.47l16.22,9.37c.46,.26,1.26,.23,1.79-.07l11.05-6.38c.3-.17,.45-.39,.44-.6h0v-.74Z"/>
        <path class="cls-4" d="M26.13,29.22l-1.02-.59H13.93l-5.51,3.18-1.34-.18v.76h0c0,.18,.09,.35,.31,.47l16.22,9.37c.24,.14,.58,.2,.92,.17l1.6-13.19Z"/>
        <path class="cls-18" d="M7.67,31.71l-.6-.08v.76h0c0,.18,.09,.35,.31,.47l.29,.17v-1.32Z"/>
        <path class="cls-13" d="M23.77,42.3c.43,.16,1.06,.13,1.52-.09v-1.7h-1.52v1.79Z"/>
        <path class="cls-3" d="M23.61,41.47L7.38,32.1c-.46-.26-.4-.73,.13-1.03l11.05-6.38c.53-.31,1.33-.34,1.79-.07l16.22,9.37c.46,.26,.4,.73-.13,1.03l-11.05,6.38c-.53,.31-1.33,.34-1.79,.07Z"/>
        <path class="cls-2" d="M36.44,34.74l-11.05,6.38c-.53,.31-1.33,.34-1.79,.07L7.38,31.82c-.15-.09-.24-.2-.29-.31-.07,.22,.02,.44,.29,.59l16.22,9.37c.46,.26,1.26,.23,1.79-.07l11.05-6.38c.36-.21,.5-.48,.41-.72-.05,.16-.19,.31-.41,.44Z"/>
        <g>
          <path class="cls-12" d="M14.28,29l-.73-.42c-.06-.03-.05-.09,.02-.13l.87-.5c.07-.04,.17-.04,.23,0l.73,.42c.06,.03,.05,.09-.02,.13l-.87,.5c-.07,.04-.17,.04-.23,0Z"/>
          <path class="cls-12" d="M15.42,29.66l-.73-.42c-.06-.03-.05-.09,.02-.13l.87-.5c.07-.04,.17-.04,.23,0l.73,.42c.06,.03,.05,.09-.02,.13l-.87,.5c-.07,.04-.17,.04-.23,0Z"/>
          <path class="cls-12" d="M16.55,30.31l-.73-.42c-.06-.03-.05-.09,.02-.13l.87-.5c.07-.04,.17-.04,.23,0l.73,.42c.06,.03,.05,.09-.02,.13l-.87,.5c-.07,.04-.17,.04-.23,0Z"/>
          <path class="cls-12" d="M18.12,29.77l-.73-.42c-.06-.03-.05-.09,.02-.13l.73-.42c.07-.04,.17-.04,.23,0l.73,.42c.06,.03,.05,.09-.02,.13l-.73,.42c-.07,.04-.17,.04-.23,0Z"/>
          <path class="cls-12" d="M19.25,30.42l-.73-.42c-.06-.03-.05-.09,.02-.13l.73-.42c.07-.04,.17-.04,.23,0l.73,.42c.06,.03,.05,.09-.02,.13l-.73,.42c-.07,.04-.17,.04-.23,0Z"/>
          <path class="cls-12" d="M20.39,31.08l-.73-.42c-.06-.03-.05-.09,.02-.13l.73-.42c.07-.04,.17-.04,.23,0l.73,.42c.06,.03,.05,.09-.02,.13l-.73,.42c-.07,.04-.17,.04-.23,0Z"/>
          <path class="cls-12" d="M21.52,31.73l-.73-.42c-.06-.03-.05-.09,.02-.13l.73-.42c.07-.04,.17-.04,.23,0l.73,.42c.06,.03,.05,.09-.02,.13l-.73,.42c-.07,.04-.17,.04-.23,0Z"/>
          <path class="cls-12" d="M22.65,32.39l-.73-.42c-.06-.03-.05-.09,.02-.13l.73-.42c.07-.04,.17-.04,.23,0l.73,.42c.06,.03,.05,.09-.02,.13l-.73,.42c-.07,.04-.17,.04-.23,0Z"/>
          <path class="cls-12" d="M23.79,33.04l-.73-.42c-.06-.03-.05-.09,.02-.13l.73-.42c.07-.04,.17-.04,.23,0l.73,.42c.06,.03,.05,.09-.02,.13l-.73,.42c-.07,.04-.17,.04-.23,0Z"/>
          <path class="cls-12" d="M24.92,33.7l-.73-.42c-.06-.03-.05-.09,.02-.13l.73-.42c.07-.04,.17-.04,.23,0l.73,.42c.06,.03,.05,.09-.02,.13l-.73,.42c-.07,.04-.17,.04-.23,0Z"/>
          <path class="cls-12" d="M26.05,34.35l-.73-.42c-.06-.03-.05-.09,.02-.13l.73-.42c.07-.04,.17-.04,.23,0l.73,.42c.06,.03,.05,.09-.02,.13l-.73,.42c-.07,.04-.17,.04-.23,0Z"/>
          <path class="cls-12" d="M27.19,35.01l-.73-.42c-.06-.03-.05-.09,.02-.13l.73-.42c.07-.04,.17-.04,.23,0l.73,.42c.06,.03,.05,.09-.02,.13l-.73,.42c-.07,.04-.17,.04-.23,0Z"/>
          <path class="cls-12" d="M28.32,35.66l-.73-.42c-.06-.03-.05-.09,.02-.13l.73-.42c.07-.04,.17-.04,.23,0l.73,.42c.06,.03,.05,.09-.02,.13l-.73,.42c-.07,.04-.17,.04-.23,0Z"/>
          <path class="cls-4" d="M19.79,29.46l-.73-.42c-.06-.03-.05-.09,.02-.13l.73-.42c.07-.04,.17-.04,.23,0l.73,.42c.06,.03,.05,.09-.02,.13l-.73,.42c-.07,.04-.17,.04-.23,0Z"/>
          <path class="cls-4" d="M18.64,28.8l-.73-.42c-.06-.03-.05-.09,.02-.13l.73-.42c.07-.04,.17-.04,.23,0l.73,.42c.06,.03,.05,.09-.02,.13l-.73,.42c-.07,.04-.17,.04-.23,0Z"/>
          <path class="cls-12" d="M17.49,28.13l-1.58-.91c-.06-.03-.05-.09,.02-.13l.73-.42c.07-.04,.17-.04,.23,0l1.58,.91c.06,.03,.05,.09-.02,.13l-.73,.42c-.07,.04-.17,.04-.23,0Z"/>
          <path class="cls-12" d="M18.29,27.32l-1.28-.74c-.06-.03-.05-.09,.02-.13l.73-.42c.07-.04,.17-.04,.23,0l1.28,.74c.06,.03,.05,.09-.02,.13l-.73,.42c-.07,.04-.17,.04-.23,0Z"/>
          <path class="cls-4" d="M20.92,30.11l-.73-.42c-.06-.03-.05-.09,.02-.13l.73-.42c.07-.04,.17-.04,.23,0l.73,.42c.06,.03,.05,.09-.02,.13l-.73,.42c-.07,.04-.17,.04-.23,0Z"/>
          <path class="cls-12" d="M22.06,30.77l-.73-.42c-.06-.03-.05-.09,.02-.13l.73-.42c.07-.04,.17-.04,.23,0l.73,.42c.06,.03,.05,.09-.02,.13l-.73,.42c-.07,.04-.17,.04-.23,0Z"/>
          <path class="cls-12" d="M23.19,31.42l-.73-.42c-.06-.03-.05-.09,.02-.13l.73-.42c.07-.04,.17-.04,.23,0l.73,.42c.06,.03,.05,.09-.02,.13l-.73,.42c-.07,.04-.17,.04-.23,0Z"/>
          <path class="cls-12" d="M24.32,32.08l-.73-.42c-.06-.03-.05-.09,.02-.13l.73-.42c.07-.04,.17-.04,.23,0l.73,.42c.06,.03,.05,.09-.02,.13l-.73,.42c-.07,.04-.17,.04-.23,0Z"/>
          <path class="cls-12" d="M25.46,32.73l-.73-.42c-.06-.03-.05-.09,.02-.13l.73-.42c.07-.04,.17-.04,.23,0l.73,.42c.06,.03,.05,.09-.02,.13l-.73,.42c-.07,.04-.17,.04-.23,0Z"/>
          <path class="cls-12" d="M26.59,33.39l-.73-.42c-.06-.03-.05-.09,.02-.13l.73-.42c.07-.04,.17-.04,.23,0l.73,.42c.06,.03,.05,.09-.02,.13l-.73,.42c-.07,.04-.17,.04-.23,0Z"/>
          <path class="cls-12" d="M27.72,34.04l-.73-.42c-.06-.03-.05-.09,.02-.13l.73-.42c.07-.04,.17-.04,.23,0l.73,.42c.06,.03,.05,.09-.02,.13l-.73,.42c-.07,.04-.17,.04-.23,0Z"/>
          <path class="cls-12" d="M28.86,34.7l-.73-.42c-.06-.03-.05-.09,.02-.13l.73-.42c.07-.04,.17-.04,.23,0l.73,.42c.06,.03,.05,.09-.02,.13l-.73,.42c-.07,.04-.17,.04-.23,0Z"/>
          <path class="cls-12" d="M29.99,35.35l-.73-.42c-.06-.03-.05-.09,.02-.13l.73-.42c.07-.04,.17-.04,.23,0l.73,.42c.06,.03,.05,.09-.02,.13l-.73,.42c-.07,.04-.17,.04-.23,0Z"/>
          <path class="cls-12" d="M32.01,36.51l-1.6-.92c-.06-.03-.05-.09,.02-.13l.73-.42c.07-.04,.17-.04,.23,0l1.6,.92c.06,.03,.05,.09-.02,.13l-.73,.42c-.07,.04-.17,.04-.23,0Z"/>
          <path class="cls-12" d="M34.21,35.24l-1.35-.78c-.06-.03-.05-.09,.02-.13l.73-.42c.07-.04,.17-.04,.23,0l1.35,.78c.06,.03,.05,.09-.02,.13l-.73,.42c-.07,.04-.17,.04-.23,0Z"/>
          <path class="cls-12" d="M22.91,29.99l-.73-.42c-.06-.03-.05-.09,.02-.13l.73-.42c.07-.04,.17-.04,.23,0l.73,.42c.06,.03,.05,.09-.02,.13l-.73,.42c-.07,.04-.17,.04-.23,0Z"/>
          <path class="cls-12" d="M21.75,29.32l-.73-.42c-.06-.03-.05-.09,.02-.13l.73-.42c.07-.04,.17-.04,.23,0l.73,.42c.06,.03,.05,.09-.02,.13l-.73,.42c-.07,.04-.17,.04-.23,0Z"/>
          <path class="cls-4" d="M20.58,28.65l-.73-.42c-.06-.03-.05-.09,.02-.13l.73-.42c.07-.04,.17-.04,.23,0l.73,.42c.06,.03,.05,.09-.02,.13l-.73,.42c-.07,.04-.17,.04-.23,0Z"/>
          <path class="cls-12" d="M19.42,27.97l-.73-.42c-.06-.03-.05-.09,.02-.13l.73-.42c.07-.04,.17-.04,.23,0l.73,.42c.06,.03,.05,.09-.02,.13l-.73,.42c-.07,.04-.17,.04-.23,0Z"/>
          <path class="cls-12" d="M24.04,30.64l-.73-.42c-.06-.03-.05-.09,.02-.13l.73-.42c.07-.04,.17-.04,.23,0l.73,.42c.06,.03,.05,.09-.02,.13l-.73,.42c-.07,.04-.17,.04-.23,0Z"/>
          <path class="cls-12" d="M25.18,31.3l-.73-.42c-.06-.03-.05-.09,.02-.13l.73-.42c.07-.04,.17-.04,.23,0l.73,.42c.06,.03,.05,.09-.02,.13l-.73,.42c-.07,.04-.17,.04-.23,0Z"/>
          <path class="cls-12" d="M26.31,31.95l-.73-.42c-.06-.03-.05-.09,.02-.13l.73-.42c.07-.04,.17-.04,.23,0l.73,.42c.06,.03,.05,.09-.02,.13l-.73,.42c-.07,.04-.17,.04-.23,0Z"/>
          <path class="cls-12" d="M27.44,32.6l-.73-.42c-.06-.03-.05-.09,.02-.13l.73-.42c.07-.04,.17-.04,.23,0l.73,.42c.06,.03,.05,.09-.02,.13l-.73,.42c-.07,.04-.17,.04-.23,0Z"/>
          <path class="cls-12" d="M28.58,33.26l-.73-.42c-.06-.03-.05-.09,.02-.13l.73-.42c.07-.04,.17-.04,.23,0l.73,.42c.06,.03,.05,.09-.02,.13l-.73,.42c-.07,.04-.17,.04-.23,0Z"/>
          <path class="cls-12" d="M29.71,33.91l-.73-.42c-.06-.03-.05-.09,.02-.13l.73-.42c.07-.04,.17-.04,.23,0l.73,.42c.06,.03,.05,.09-.02,.13l-.73,.42c-.07,.04-.17,.04-.23,0Z"/>
          <path class="cls-12" d="M30.84,34.57l-.73-.42c-.06-.03-.05-.09,.02-.13l.73-.42c.07-.04,.17-.04,.23,0l.73,.42c.06,.03,.05,.09-.02,.13l-.73,.42c-.07,.04-.17,.04-.23,0Z"/>
          <path class="cls-12" d="M31.98,35.22l-.73-.42c-.06-.03-.05-.09,.02-.13l.73-.42c.07-.04,.17-.04,.23,0l.73,.42c.06,.03,.05,.09-.02,.13l-.73,.42c-.07,.04-.17,.04-.23,0Z"/>
          <path class="cls-12" d="M33.11,35.88l-.73-.42c-.06-.03-.05-.09,.02-.13l.73-.42c.07-.04,.17-.04,.23,0l.73,.42c.06,.03,.05,.09-.02,.13l-.73,.42c-.07,.04-.17,.04-.23,0Z"/>
          <path class="cls-12" d="M22.31,28.37l-.73-.42c-.06-.03-.05-.09,.02-.13l.73-.42c.07-.04,.17-.04,.23,0l.73,.42c.06,.03,.05,.09-.02,.13l-.73,.42c-.07,.04-.17,.04-.23,0Z"/>
          <path class="cls-12" d="M21.18,27.72l-.73-.42c-.06-.03-.05-.09,.02-.13l.73-.42c.07-.04,.17-.04,.23,0l.73,.42c.06,.03,.05,.09-.02,.13l-.73,.42c-.07,.04-.17,.04-.23,0Z"/>
          <path class="cls-12" d="M20.06,27.07l-.73-.42c-.06-.03-.05-.09,.02-.13l.73-.42c.07-.04,.17-.04,.23,0l.73,.42c.06,.03,.05,.09-.02,.13l-.73,.42c-.07,.04-.17,.04-.23,0Z"/>
          <path class="cls-12" d="M18.93,26.41l-.73-.42c-.06-.03-.05-.09,.02-.13l.73-.42c.07-.04,.17-.04,.23,0l.73,.42c.06,.03,.05,.09-.02,.13l-.73,.42c-.07,.04-.17,.04-.23,0Z"/>
          <path class="cls-12" d="M20.09,25.74l-.73-.42c-.06-.03-.05-.09,.02-.13l.24-.14c.07-.04,.17-.04,.23,0l.73,.42c.06,.03,.05,.09-.02,.13l-.24,.14c-.07,.04-.17,.04-.23,0Z"/>
          <path class="cls-12" d="M21.56,26.59l-.73-.42c-.06-.03-.05-.09,.02-.13l.24-.14c.07-.04,.17-.04,.23,0l.73,.42c.06,.03,.05,.09-.02,.13l-.24,.14c-.07,.04-.17,.04-.23,0Z"/>
          <path class="cls-12" d="M22.68,27.24l-.73-.42c-.06-.03-.05-.09,.02-.13l.24-.14c.07-.04,.17-.04,.23,0l.73,.42c.06,.03,.05,.09-.02,.13l-.24,.14c-.07,.04-.17,.04-.23,0Z"/>
          <path class="cls-12" d="M23.81,27.89l-.73-.42c-.06-.03-.05-.09,.02-.13l.24-.14c.07-.04,.17-.04,.23,0l.73,.42c.06,.03,.05,.09-.02,.13l-.24,.14c-.07,.04-.17,.04-.23,0Z"/>
          <path class="cls-12" d="M24.93,28.54l-.73-.42c-.06-.03-.05-.09,.02-.13l.24-.14c.07-.04,.17-.04,.23,0l.73,.42c.06,.03,.05,.09-.02,.13l-.24,.14c-.07,.04-.17,.04-.23,0Z"/>
          <path class="cls-12" d="M31.2,32.16l-.73-.42c-.06-.03-.05-.09,.02-.13l.24-.14c.07-.04,.17-.04,.23,0l.73,.42c.06,.03,.05,.09-.02,.13l-.24,.14c-.07,.04-.17,.04-.23,0Z"/>
          <path class="cls-12" d="M32.32,32.81l-.73-.42c-.06-.03-.05-.09,.02-.13l.24-.14c.07-.04,.17-.04,.23,0l.73,.42c.06,.03,.05,.09-.02,.13l-.24,.14c-.07,.04-.17,.04-.23,0Z"/>
          <path class="cls-12" d="M33.45,33.46l-.73-.42c-.06-.03-.05-.09,.02-.13l.24-.14c.07-.04,.17-.04,.23,0l.73,.42c.06,.03,.05,.09-.02,.13l-.24,.14c-.07,.04-.17,.04-.23,0Z"/>
          <path class="cls-12" d="M34.57,34.11l-.73-.42c-.06-.03-.05-.09,.02-.13l.24-.14c.07-.04,.17-.04,.23,0l.73,.42c.06,.03,.05,.09-.02,.13l-.24,.14c-.07,.04-.17,.04-.23,0Z"/>
          <path class="cls-12" d="M23.44,29.02l-.73-.42c-.06-.03-.05-.09,.02-.13l.73-.42c.07-.04,.17-.04,.23,0l.73,.42c.06,.03,.05,.09-.02,.13l-.73,.42c-.07,.04-.17,.04-.23,0Z"/>
          <path class="cls-12" d="M24.58,29.68l-.73-.42c-.06-.03-.05-.09,.02-.13l.73-.42c.07-.04,.17-.04,.23,0l.73,.42c.06,.03,.05,.09-.02,.13l-.73,.42c-.07,.04-.17,.04-.23,0Z"/>
          <path class="cls-12" d="M25.71,30.33l-.73-.42c-.06-.03-.05-.09,.02-.13l.73-.42c.07-.04,.17-.04,.23,0l.73,.42c.06,.03,.05,.09-.02,.13l-.73,.42c-.07,.04-.17,.04-.23,0Z"/>
          <path class="cls-12" d="M26.85,30.99l-.73-.42c-.06-.03-.05-.09,.02-.13l.73-.42c.07-.04,.17-.04,.23,0l.73,.42c.06,.03,.05,.09-.02,.13l-.73,.42c-.07,.04-.17,.04-.23,0Z"/>
          <path class="cls-12" d="M27.98,31.64l-.73-.42c-.06-.03-.05-.09,.02-.13l.73-.42c.07-.04,.17-.04,.23,0l.73,.42c.06,.03,.05,.09-.02,.13l-.73,.42c-.07,.04-.17,.04-.23,0Z"/>
          <path class="cls-12" d="M29.11,32.29l-.73-.42c-.06-.03-.05-.09,.02-.13l.73-.42c.07-.04,.17-.04,.23,0l.73,.42c.06,.03,.05,.09-.02,.13l-.73,.42c-.07,.04-.17,.04-.23,0Z"/>
          <path class="cls-12" d="M30.25,32.95l-.73-.42c-.06-.03-.05-.09,.02-.13l.73-.42c.07-.04,.17-.04,.23,0l.73,.42c.06,.03,.05,.09-.02,.13l-.73,.42c-.07,.04-.17,.04-.23,0Z"/>
          <path class="cls-12" d="M31.38,33.6l-.73-.42c-.06-.03-.05-.09,.02-.13l.73-.42c.07-.04,.17-.04,.23,0l.73,.42c.06,.03,.05,.09-.02,.13l-.73,.42c-.07,.04-.17,.04-.23,0Z"/>
          <path class="cls-12" d="M32.51,34.26l-.73-.42c-.06-.03-.05-.09,.02-.13l.73-.42c.07-.04,.17-.04,.23,0l.73,.42c.06,.03,.05,.09-.02,.13l-.73,.42c-.07,.04-.17,.04-.23,0Z"/>
          <path class="cls-12" d="M16.96,29.1l-2.16-1.25c-.06-.03-.05-.09,.02-.13l.73-.42c.07-.04,.17-.04,.23,0l2.16,1.25c.06,.03,.05,.09-.02,.13l-.73,.42c-.07,.04-.17,.04-.23,0Z"/>
          <path class="cls-12" d="M30.89,37.14l-2.16-1.25c-.06-.03-.05-.09,.02-.13l.73-.42c.07-.04,.17-.04,.23,0l2.16,1.25c.06,.03,.05,.09-.02,.13l-.73,.42c-.07,.04-.17,.04-.23,0Z"/>
          <path class="cls-12" d="M26.36,35.97l-.73-.42c-.06-.03-.05-.09,.02-.13l.87-.5c.07-.04,.17-.04,.23,0l.73,.42c.06,.03,.05,.09-.02,.13l-.87,.5c-.07,.04-.17,.04-.23,0Z"/>
          <path class="cls-12" d="M18.12,31.22l-1.17-.68c-.06-.03-.05-.09,.02-.13l.87-.5c.07-.04,.17-.04,.23,0l1.17,.68c.06,.03,.05,.09-.02,.13l-.87,.5c-.07,.04-.17,.04-.23,0Z"/>
          <path class="cls-12" d="M25.26,35.34l-1.17-.68c-.06-.03-.05-.09,.02-.13l.87-.5c.07-.04,.17-.04,.23,0l1.17,.68c.06,.03,.05,.09-.02,.13l-.87,.5c-.07,.04-.17,.04-.23,0Z"/>
          <path class="cls-12" d="M19.76,32.16l-1.17-.68c-.06-.03-.05-.09,.02-.13l.87-.5c.07-.04,.17-.04,.23,0l1.17,.68c.06,.03,.05,.09-.02,.13l-.87,.5c-.07,.04-.17,.04-.23,0Z"/>
          <path class="cls-12" d="M19.71,30.85l5.1,2.95c.06,.04,.06,.1,0,.13l-.88,.51c-.06,.04-.17,.04-.23,0l-5.1-2.95,1.11-.64Z"/>
          <path class="cls-12" d="M29.52,37.16l.82,.47s.04,.08-.01,.11l-.35,.2c-.06,.03-.14,.04-.19,0l-.82-.47s-.04-.08,.01-.11l.35-.2c.06-.03,.14-.04,.19,0Z"/>
          <path class="cls-12" d="M28.38,36.5l.82,.47s.04,.08-.01,.11l-.35,.2c-.06,.03-.14,.04-.19,0l-.82-.47s-.04-.08,.01-.11l.35-.2c.06-.03,.14-.04,.19,0Z"/>
          <path class="cls-12" d="M27.25,35.84l.82,.47s.04,.08-.01,.11l-.35,.2c-.06,.03-.14,.04-.19,0l-.82-.47s-.04-.08,.01-.11l.35-.2c.06-.03,.14-.04,.19,0Z"/>
          <path class="cls-12" d="M29.01,36.14l.82,.47s.04,.08-.01,.11l-.35,.2c-.06,.03-.14,.04-.19,0l-.82-.47s-.04-.08,.01-.11l.35-.2c.06-.03,.14-.04,.19,0Z"/>
        </g>
      </g>
      <g>
        <g>
          <path class="cls-11" d="M27.51,16.08l-1.08-.63c-.1-.06-.16-.2-.13-.32h0c.03-.12,.13-.17,.23-.11l1.08,.63c.1,.06,.16,.2,.13,.32h0c-.03,.12-.13,.17-.23,.11Z"/>
          <path class="cls-11" d="M30.09,17.57l-1.6-.92c-.1-.06-.16-.2-.13-.32h0c.03-.12,.13-.17,.23-.11l1.6,.92c.1,.06,.16,.2,.13,.32h0c-.03,.12-.13,.17-.23,.11Z"/>
          <path class="cls-11" d="M25.62,21.14l-1.08-.63c-.1-.06-.16-.2-.13-.32h0c.03-.12,.13-.17,.23-.11l1.08,.63c.1,.06,.16,.2,.13,.32h0c-.03,.12-.13,.17-.23,.11Z"/>
          <path class="cls-11" d="M27.92,22.47l-1.6-.92c-.1-.06-.16-.2-.13-.32h0c.03-.12,.13-.17,.23-.11l1.6,.92c.1,.06,.16,.2,.13,.32h0c-.03,.12-.13,.17-.23,.11Z"/>
          <path class="cls-11" d="M24.31,15.25l-.68-.39c-.1-.06-.16-.2-.13-.32h0c.03-.12,.13-.17,.23-.11l.68,.39c.1,.06,.16,.2,.13,.32h0c-.03,.12-.13,.17-.23,.11Z"/>
          <path class="cls-11" d="M26.39,17.49l-2.07-1.2c-.1-.06-.16-.2-.13-.32h0c.03-.12,.13-.17,.23-.11l2.07,1.2c.1,.06,.16,.2,.13,.32h0c-.03,.12-.13,.17-.23,.11Z"/>
          <path class="cls-11" d="M24.58,18.49l-.68-.39c-.1-.06-.16-.2-.13-.32h0c.03-.12,.13-.17,.23-.11l.68,.39c.1,.06,.16,.2,.13,.32h0c-.03,.12-.13,.17-.23,.11Z"/>
          <path class="cls-11" d="M28.27,24.72l-1.81-1.04c-.1-.06-.16-.2-.13-.32h0c.03-.12,.13-.17,.23-.11l1.81,1.04c.1,.06,.16,.2,.13,.32h0c-.03,.12-.13,.17-.23,.11Z"/>
          <path class="cls-11" d="M23.92,20.16l-.43-.25c-.1-.06-.16-.2-.13-.32h0c.03-.12,.13-.17,.23-.11l.43,.25c.1,.06,.16,.2,.13,.32h0c-.03,.12-.13,.17-.23,.11Z"/>
          <path class="cls-11" d="M23.61,22.03l-.54-.31c-.1-.06-.16-.2-.13-.32h0c.03-.12,.13-.17,.23-.11l.54,.31c.1,.06,.16,.2,.13,.32h0c-.03,.12-.13,.17-.23,.11Z"/>
          <path class="cls-11" d="M25.71,23.25l-1.42-.82c-.1-.06-.16-.2-.13-.32h0c.03-.12,.13-.17,.23-.11l1.42,.82c.1,.06,.16,.2,.13,.32h0c-.03,.12-.13,.17-.23,.11Z"/>
          <path class="cls-11" d="M23.89,23.22l-1.02-.59c-.1-.06-.16-.2-.13-.32h0c.03-.12,.13-.17,.23-.11l1.02,.59c.1,.06,.16,.2,.13,.32h0c-.03,.12-.13,.17-.23,.11Z"/>
          <path class="cls-11" d="M29.82,25.62l-.66-.38c-.1-.06-.16-.2-.13-.32h0c.03-.12,.13-.17,.23-.11l.66,.38c.1,.06,.16,.2,.13,.32h0c-.03,.12-.13,.17-.23,.11Z"/>
          <path class="cls-11" d="M27.1,19.95l-1.81-1.04c-.1-.06-.16-.2-.13-.32h0c.03-.12,.13-.17,.23-.11l1.81,1.04c.1,.06,.16,.2,.13,.32h0c-.03,.12-.13,.17-.23,.11Z"/>
          <path class="cls-11" d="M27.27,19.02l-3.15-1.82c-.1-.06-.16-.2-.13-.32h0c.03-.12,.13-.17,.23-.11l3.15,1.82c.1,.06,.16,.2,.13,.32h0c-.03,.12-.13,.17-.23,.11Z"/>
          <path class="cls-11" d="M25.51,20.05l-1.81-1.04c-.1-.06-.16-.2-.13-.32h0c.03-.12,.13-.17,.23-.11l1.81,1.04c.1,.06,.16,.2,.13,.32h0c-.03,.12-.13,.17-.23,.11Z"/>
          <path class="cls-11" d="M28.48,20.74l-.66-.38c-.1-.06-.16-.2-.13-.32h0c.03-.12,.13-.17,.23-.11l.66,.38c.1,.06,.16,.2,.13,.32h0c-.03,.12-.13,.17-.23,.11Z"/>
          <path class="cls-11" d="M34.97,20.38l-3.89-2.25c-.1-.06-.16-.2-.13-.32h0c.03-.12,.13-.17,.23-.11l3.89,2.25c.1,.06,.16,.2,.13,.32h0c-.03,.12-.13,.17-.23,.11Z"/>
          <path class="cls-11" d="M25.45,22.07l-2.18-1.26c-.1-.06-.16-.2-.13-.32h0c.03-.12,.13-.17,.23-.11l2.18,1.26c.1,.06,.16,.2,.13,.32h0c-.03,.12-.13,.17-.23,.11Z"/>
          <path class="cls-11" d="M25.44,14.88l-1.6-.92c-.1-.06-.16-.2-.13-.32h0c.03-.12,.13-.17,.23-.11l1.6,.92c.1,.06,.16,.2,.13,.32h0c-.03,.12-.13,.17-.23,.11Z"/>
          <path class="cls-11" d="M23.6,24.08l-1.85-1.07c-.1-.06-.16-.2-.13-.32h0c.03-.12,.13-.17,.23-.11l1.85,1.07c.1,.06,.16,.2,.13,.32h0c-.03,.12-.13,.17-.23,.11Z"/>
        </g>
        <g>
          <path class="cls-11" d="M36.14,27.98l-1.08-.63c-.1-.06-.16-.2-.13-.32h0c.03-.12,.13-.17,.23-.11l1.08,.63c.1,.06,.16,.2,.13,.32h0c-.03,.12-.13,.17-.23,.11Z"/>
          <path class="cls-11" d="M36.92,24.33l-2.07-1.2c-.1-.06-.16-.2-.13-.32h0c.03-.12,.13-.17,.23-.11l2.07,1.2c.1,.06,.16,.2,.13,.32h0c-.03,.12-.13,.17-.23,.11Z"/>
          <path class="cls-11" d="M35.11,25.34l-.68-.39c-.1-.06-.16-.2-.13-.32h0c.03-.12,.13-.17,.23-.11l.68,.39c.1,.06,.16,.2,.13,.32h0c-.03,.12-.13,.17-.23,.11Z"/>
          <path class="cls-11" d="M34.45,27.01l-.43-.25c-.1-.06-.16-.2-.13-.32h0c.03-.12,.13-.17,.23-.11l.43,.25c.1,.06,.16,.2,.13,.32h0c-.03,.12-.13,.17-.23,.11Z"/>
          <path class="cls-11" d="M37.63,26.79l-1.81-1.04c-.1-.06-.16-.2-.13-.32h0c.03-.12,.13-.17,.23-.11l1.81,1.04c.1,.06,.16,.2,.13,.32h0c-.03,.12-.13,.17-.23,.11Z"/>
          <path class="cls-11" d="M37.79,25.86l-3.15-1.82c-.1-.06-.16-.2-.13-.32h0c.03-.12,.13-.17,.23-.11l3.15,1.82c.1,.06,.16,.2,.13,.32h0c-.03,.12-.13,.17-.23,.11Z"/>
          <path class="cls-11" d="M36.03,26.9l-1.81-1.04c-.1-.06-.16-.2-.13-.32h0c.03-.12,.13-.17,.23-.11l1.81,1.04c.1,.06,.16,.2,.13,.32h0c-.03,.12-.13,.17-.23,.11Z"/>
          <path class="cls-11" d="M35.98,28.92l-2.18-1.26c-.1-.06-.16-.2-.13-.32h0c.03-.12,.13-.17,.23-.11l2.18,1.26c.1,.06,.16,.2,.13,.32h0c-.03,.12-.13,.17-.23,.11Z"/>
        </g>
      </g>
      <g>
        <g>
          <polygon class="cls-18" points="40.85 15.88 42.56 15.2 42.17 12.69 41.34 13.42 40.85 15.88"/>
          <polygon class="cls-17" points="29.41 4.16 33.54 2.51 32.77 4.16 30.57 4.67 29.41 4.16"/>
          <path class="cls-8" d="M42.36,11c-.22-.13-.44-.2-.67-.23,.23-1.52-.43-3.12-1.69-3.85-.38-.22-.79-.35-1.18-.37,.49-1.84-.27-3.94-1.82-4.83-.81-.47-1.69-.52-2.46-.24h0s-.04,.01-.04,.01c-.02,0-.04,.02-.06,.02l-1.29,.51,.52,.44c-.7,.22-1.3,.79-1.62,1.62-.59,1.54,.02,3.42,1.35,4.19l7.94,6.69c1,.58,1.61,.34,2.05-.82,.44-1.16-.01-2.57-1.01-3.15Z"/>
          <path class="cls-5" d="M32.39,3.41l4.45-1.78c-.77-.39-1.59-.43-2.31-.16h0s-.04,.01-.04,.01c-.02,0-.04,.02-.06,.02l-1.29,.51,.52,.44c-.49,.15-.93,.48-1.26,.94Z"/>
          <path class="cls-9" d="M38.59,10.08l2.94-1.17c-.27-.84-.81-1.57-1.55-2-.1-.06-.2-.11-.3-.15l-4.05,1.62,2.95,1.71Z"/>
          <path class="cls-11" d="M34.04,2.21l1.26,.73,2.19-.87c-.16-.13-.32-.25-.5-.35-.28-.16-.57-.27-.86-.34l-2.1,.83Z"/>
          <path class="cls-11" d="M41.33,8.42l-2.12,.84,.62,.88,1.82-.72c-.07-.35-.17-.68-.32-1Z"/>
          <path class="cls-3" d="M40.94,11.56c-.22-.13-.44-.2-.67-.23,.23-1.52-.45-3.13-1.71-3.86-.38-.22-.77-.34-1.16-.36,.49-1.84-.27-3.94-1.82-4.83-1.67-.97-3.63-.18-4.36,1.75-.03,.07-.05,.13-.07,.2-1.28-.57-2.69,.07-3.24,1.52-.59,1.54,.02,3.42,1.35,4.19l10.08,5.82c1,.58,2.17,.11,2.62-1.05s-.01-2.57-1.01-3.15Z"/>
          <g>
            <path class="cls-2" d="M41.15,11.44c-.22-.13-.44-.2-.67-.23,.23-1.52-.45-3.13-1.71-3.86-.38-.22-.77-.34-1.16-.36,.49-1.84-.27-3.94-1.82-4.83-1-.58-2.1-.53-2.98,.01,.84-.43,1.85-.43,2.77,.1,1.55,.9,2.32,2.99,1.82,4.83,.39,.03,.78,.14,1.16,.36,1.26,.73,1.93,2.34,1.71,3.86,.22,.03,.45,.1,.67,.23,1,.58,1.46,1.99,1.01,3.15-.17,.45-.45,.79-.79,1.01,.43-.21,.79-.59,1-1.13,.44-1.16-.01-2.57-1.01-3.15Z"/>
            <path class="cls-2" d="M31.15,4.22c.02-.06,.04-.12,.06-.17-.69-.26-1.41-.17-2,.2,.59-.29,1.28-.32,1.94-.03Z"/>
          </g>
          <path class="cls-19" d="M30.01,4.52c-.19,0-.37,.04-.53,.11-.4,.17-.75,.58-.95,1.11-.52,1.36,.04,3.07,1.21,3.75l10.08,5.82c.32,.18,.64,.23,.9,.13,.25-.1,.48-.37,.62-.74,.37-.98-.03-2.22-.87-2.71-.16-.09-.32-.15-.48-.17l-.41-.06,.05-.35c.21-1.4-.44-2.88-1.54-3.52-.3-.18-.62-.27-.93-.29l-.51-.03,.11-.43c.45-1.69-.28-3.64-1.67-4.44-.65-.37-1.32-.45-1.91-.21-.59,.24-1.07,.78-1.35,1.52-.02,.06-.04,.12-.06,.17l-.27,.84-.79-.35c-.24-.11-.48-.16-.7-.16Z"/>
        </g>
        <g>
          <polygon class="cls-18" points="34.95 11 35.3 10.86 35.02 10.65 34.95 11"/>
          <polygon class="cls-18" points="34.77 7.24 35.11 7.1 35.09 7.24 34.77 7.24"/>
          <polygon class="cls-18" points="36.04 10.12 36.39 9.98 35.88 9.46 36.04 10.12"/>
          <g>
            <path class="cls-18" d="M35.2,10.85l-1.35-.78c-.07-.04-.11-.14-.09-.22l.32-1.53,1.59,.92-.32,1.53c-.02,.08-.09,.12-.16,.08Z"/>
            <path class="cls-18" d="M35.11,7.1l-1.82,.92c-.08,.04-.05,.18,.04,.24l1.48,.86,1.48,.86c.09,.05,.17-.03,.12-.14l-1.08-2.59c-.05-.11-.16-.18-.24-.14Z"/>
          </g>
          <g>
            <path class="cls-3" d="M34.85,10.99l-1.35-.78c-.07-.04-.11-.14-.09-.22l.32-1.53,1.59,.92-.32,1.53c-.02,.08-.09,.12-.16,.08Z"/>
            <path class="cls-3" d="M34.76,7.24l-1.82,.92c-.08,.04-.05,.18,.04,.24l1.48,.86,1.48,.86c.09,.05,.17-.03,.12-.14l-1.08-2.59c-.05-.11-.16-.18-.24-.14Z"/>
          </g>
        </g>
      </g>
      <g>
        <path class="cls-7" d="M.72,41.43l5.38-3.09c.42-.24,1.16-.21,1.65,.07l11.03,6.4c.49,.28,.54,.71,.12,.95l-5.38,3.09c-.42,.24-1.16,.21-1.65-.07L.84,42.39c-.49-.28-.54-.71-.12-.95Z"/>
        <path class="cls-14" d="M13.74,47.84l5.51-3.16c.24-.14,.36-.32,.37-.52h0s0-.95,0-.95l-.18,.31c-.08-.1-.2-.19-.35-.28l-11.09-6.44c-.63-.36-1.58-.41-2.13-.09L.37,39.87c-.06,.03-.11,.07-.15,.11l-.21-.27v.89s0,0,0,0c0,.25,.17,.51,.52,.71l11.09,6.44c.63,.36,1.58,.41,2.13,.09Z"/>
        <path class="cls-11" d="M.37,39.17l5.51-3.16c.55-.31,1.5-.27,2.13,.09l11.09,6.44c.63,.36,.7,.91,.15,1.23l-5.51,3.16c-.55,.31-1.5,.27-2.13-.09L.52,40.39c-.63-.36-.7-.91-.15-1.23Z"/>
        <path class="cls-2" d="M19.25,43.76l-5.51,3.16c-.55,.31-1.5,.27-2.13-.09L.52,40.39c-.3-.18-.48-.4-.51-.61-.04,.26,.13,.55,.51,.77l11.09,6.44c.63,.36,1.58,.41,2.13,.09l5.51-3.16c.28-.16,.4-.39,.36-.62-.03,.17-.15,.33-.36,.45Z"/>
        <path class="cls-3" d="M.72,39.29l5.38-3.09c.42-.24,1.16-.21,1.65,.07l11.03,6.4c.49,.28,.54,.71,.12,.95l-5.38,3.09c-.42,.24-1.16,.21-1.65-.07L.84,40.25c-.49-.28-.54-.71-.12-.95Z"/>
      </g>
      <g>
        <path class="cls-7" d="M9.39,40.42l-1.99-1.15c-.07-.04-.06-.12,.02-.17h0c.09-.05,.21-.05,.29-.01l1.99,1.15c.07,.04,.06,.12-.02,.17h0c-.09,.05-.21,.05-.29,.01Z"/>
        <path class="cls-7" d="M7.5,40.03l-.71-.41c-.07-.04-.06-.12,.02-.17h0c.09-.05,.21-.05,.29-.01l.71,.41c.07,.04,.06,.12-.02,.17h0c-.09,.05-.21,.05-.29,.01Z"/>
        <path class="cls-4" d="M8.69,40.72l-.71-.41c-.07-.04-.06-.12,.02-.17h0c.09-.05,.21-.05,.29-.01l.71,.41c.07,.04,.06,.12-.02,.17h0c-.09,.05-.21,.05-.29,.01Z"/>
        <path class="cls-7" d="M11.1,42.11l-1.93-1.11c-.07-.04-.06-.12,.02-.17h0c.09-.05,.21-.05,.29-.01l1.93,1.11c.07,.04,.06,.12-.02,.17h0c-.09,.05-.21,.05-.29,.01Z"/>
        <path class="cls-7" d="M8.67,41.41l-2.49-1.44c-.07-.04-.06-.12,.02-.17h0c.09-.05,.21-.05,.29-.01l2.49,1.44c.07,.04,.06,.12-.02,.17h0c-.09,.05-.21,.05-.29,.01Z"/>
        <path class="cls-4" d="M11.66,43.83l-6.09-3.51c-.07-.04-.06-.12,.02-.17h0c.09-.05,.21-.05,.29-.01l6.09,3.51c.07,.04,.06,.12-.02,.17h0c-.09,.05-.21,.05-.29,.01Z"/>
        <path class="cls-7" d="M13.44,42.76l-3.5-2.02c-.07-.04-.06-.12,.02-.17h0c.09-.05,.21-.05,.29-.01l3.5,2.02c.07,.04,.06,.12-.02,.17h0c-.09,.05-.21,.05-.29,.01Z"/>
      </g>
    </g>
  </g>
</svg>