<?xml version="1.0" encoding="UTF-8"?>
<svg xmlns="http://www.w3.org/2000/svg" xmlns:xlink="http://www.w3.org/1999/xlink" viewBox="0 0 48.94 49.29">
  <defs>
    <style>
      .cls-1 {
        fill: url(#linear-gradient-2);
      }

      .cls-2, .cls-3, .cls-4, .cls-5 {
        fill: #fff;
      }

      .cls-6 {
        fill: url(#linear-gradient-17);
      }

      .cls-7 {
        fill: #75b3e2;
      }

      .cls-8 {
        fill: url(#linear-gradient-15);
      }

      .cls-9 {
        fill: url(#linear-gradient-18);
      }

      .cls-10 {
        fill: url(#linear-gradient-14);
      }

      .cls-11 {
        fill: url(#linear-gradient-20);
      }

      .cls-12 {
        fill: url(#linear-gradient-6);
      }

      .cls-13 {
        isolation: isolate;
      }

      .cls-3 {
        opacity: .5;
      }

      .cls-14 {
        fill: url(#linear-gradient-11);
      }

      .cls-15 {
        fill: #2375a8;
      }

      .cls-16 {
        fill: url(#linear-gradient-10);
      }

      .cls-4 {
        mix-blend-mode: soft-light;
      }

      .cls-17 {
        fill: url(#linear-gradient-16);
      }

      .cls-18 {
        fill: url(#linear-gradient-21);
      }

      .cls-19 {
        fill: url(#linear-gradient-5);
      }

      .cls-20 {
        fill: url(#linear-gradient);
        opacity: .57;
      }

      .cls-21 {
        fill: url(#linear-gradient-7);
      }

      .cls-22 {
        fill: url(#linear-gradient-9);
      }

      .cls-23 {
        fill: url(#linear-gradient-22);
      }

      .cls-24 {
        fill: url(#linear-gradient-3);
      }

      .cls-25 {
        fill: url(#linear-gradient-19);
      }

      .cls-26 {
        fill: url(#linear-gradient-4);
      }

      .cls-27 {
        fill: url(#linear-gradient-8);
      }

      .cls-5 {
        opacity: .65;
      }

      .cls-28 {
        fill: url(#linear-gradient-12);
      }

      .cls-29 {
        fill: url(#linear-gradient-13);
      }
    </style>
    <linearGradient id="linear-gradient" x1="55.29" y1="63.68" x2="11.85" y2="9.72" gradientUnits="userSpaceOnUse">
      <stop offset="0" stop-color="#486ab3"/>
      <stop offset="1" stop-color="#292b74"/>
    </linearGradient>
    <linearGradient id="linear-gradient-2" x1="26.9" y1="48.8" x2="26.42" y2="39.39" gradientUnits="userSpaceOnUse">
      <stop offset="0" stop-color="#293882"/>
      <stop offset="1" stop-color="#171042"/>
    </linearGradient>
    <linearGradient id="linear-gradient-3" x1="25.79" y1="10.88" x2="25.28" y2="40.51" xlink:href="#linear-gradient"/>
    <linearGradient id="linear-gradient-4" x1="26.98" y1="45.2" x2="21.4" y2="57.47" xlink:href="#linear-gradient-2"/>
    <linearGradient id="linear-gradient-5" x1="32.46" y1="15.21" x2="11.07" y2="41.25" gradientTransform="translate(40.07 60.66) rotate(-180)" xlink:href="#linear-gradient"/>
    <linearGradient id="linear-gradient-6" x1="24.26" y1="25.56" x2="14.31" y2="40.37" gradientTransform="translate(42.08 60.7) rotate(-180)" xlink:href="#linear-gradient"/>
    <linearGradient id="linear-gradient-7" x1="-635.6" y1="394.76" x2="-657.84" y2="413.87" gradientTransform="translate(659.64 -378.4)" xlink:href="#linear-gradient"/>
    <linearGradient id="linear-gradient-8" x1="-657.13" y1="416.15" x2="-644.03" y2="400.7" gradientTransform="translate(659.64 -378.57)" xlink:href="#linear-gradient"/>
    <linearGradient id="linear-gradient-9" x1="38.4" y1="1.46" x2="16" y2="28.72" gradientTransform="translate(50.79 34.58) rotate(-180)" xlink:href="#linear-gradient"/>
    <linearGradient id="linear-gradient-10" x1="21.1" y1="24.24" x2="33.29" y2="8.43" gradientTransform="translate(52.89 34.62) rotate(-180)" xlink:href="#linear-gradient"/>
    <linearGradient id="linear-gradient-11" x1="47.37" y1="12.62" x2="26.4" y2="38.15" gradientTransform="translate(66.97 59.04) rotate(-180)" xlink:href="#linear-gradient"/>
    <linearGradient id="linear-gradient-12" x1="37.88" y1="24.99" x2="28.43" y2="39.07" gradientTransform="translate(69.66 59.08) rotate(-180)" xlink:href="#linear-gradient"/>
    <linearGradient id="linear-gradient-13" x1="-2843.01" y1="-200.17" x2="-2845.07" y2="-193.84" gradientTransform="translate(2367.1 -1621.53) rotate(-39.31)" gradientUnits="userSpaceOnUse">
      <stop offset="0" stop-color="#f7b777"/>
      <stop offset="1" stop-color="#f47960"/>
    </linearGradient>
    <linearGradient id="linear-gradient-14" x1="-2362.48" y1="44.47" x2="-2358.68" y2="44.47" gradientTransform="translate(2406.26)" xlink:href="#linear-gradient-13"/>
    <linearGradient id="linear-gradient-15" x1="-2357.25" y1="35.97" x2="-2359.14" y2="48.21" gradientTransform="translate(2406.26)" gradientUnits="userSpaceOnUse">
      <stop offset="0" stop-color="#66cdf3"/>
      <stop offset="1" stop-color="#4a5aa8"/>
    </linearGradient>
    <linearGradient id="linear-gradient-16" x1="-2361.24" y1="35.36" x2="-2363.12" y2="47.6" xlink:href="#linear-gradient-15"/>
    <linearGradient id="linear-gradient-17" x1="-2364.79" y1="44.75" x2="-2362.59" y2="44.75" gradientTransform="translate(2406.26)" xlink:href="#linear-gradient-13"/>
    <linearGradient id="linear-gradient-18" x1="-2369.53" y1="28.23" x2="-2365.22" y2="28.23" gradientTransform="translate(2406.26)" xlink:href="#linear-gradient-13"/>
    <linearGradient id="linear-gradient-19" x1="40.21" y1="33.03" x2="44.21" y2="33.03" xlink:href="#linear-gradient"/>
    <linearGradient id="linear-gradient-20" x1="-2364.12" y1="30.35" x2="-2362.77" y2="30.35" gradientTransform="translate(2406.26)" xlink:href="#linear-gradient-13"/>
    <linearGradient id="linear-gradient-21" x1="-2361.98" y1="28.61" x2="-2352.17" y2="29.28" gradientTransform="translate(2406.26)" xlink:href="#linear-gradient-13"/>
    <linearGradient id="linear-gradient-22" x1="-2360.37" y1="28.02" x2="-2363.82" y2="34.92" gradientTransform="translate(2406.26)" xlink:href="#linear-gradient-2"/>
  </defs>
  <g class="cls-13">
    <g id="Layer_2" data-name="Layer 2">
      <g id="Layer_1-2" data-name="Layer 1">
        <g>
          <path class="cls-20" d="M43.32,42.42c-1,1.05-1.94,1.73-2.68,2.27-8.76,6.3-19.12,4.46-21.32,4.01-3.25-.66-9.54-1.94-14.08-7.3C-1.64,33.29-.57,20.53,4.76,12.1c.98-1.54,6.13-10.1,16.6-11.47,6.34-.83,13.72,.84,19.07,5.34,11.23,9.43,10.43,28.48,2.88,36.45Z"/>
          <path class="cls-7" d="M20.51,32.46S18.46,12.42,10.75,.54c-.52-.8-1.65-.68-2,.21-2.31,5.95-7.54,24.24,11.76,31.71Z"/>
          <path class="cls-3" d="M18.84,30.94c.04,.05-.03,.12-.07,.07-1.67-1.72-7.95-9.92-8.91-24.57,0-.05,.06-.06,.07,0,.51,3.44,2.73,16.17,8.91,24.51Z"/>
          <path class="cls-7" d="M.54,3.81c-.08-.26,.28-.45,.52-.28,2.39,1.72,8.2,6.94,7.41,16.7-1,12.25,2.19,16.51,6,19,0,0-5.09-.98-8.5-5.29C-2.43,23.36,1.9,8.39,.54,3.81Z"/>
          <path class="cls-4" d="M2.5,7.51c.37,1.34,.7,2.68,.98,4.03,.29,1.35,.52,2.71,.71,4.07,.18,1.36,.33,2.73,.42,4.1,.09,1.37,.12,2.74,.13,4.12,.03,1.38,.05,2.77,.23,4.16,.18,1.39,.56,2.77,1.22,4.05,.16,.32,.34,.64,.53,.94,.19,.31,.39,.61,.6,.91,.42,.6,.89,1.17,1.4,1.7,1.03,1.07,2.25,2.01,3.58,2.78,.14,.08,.33,.05,.43-.07,.09-.12,.06-.28-.07-.36h0c-.32-.2-.63-.4-.93-.61-.15-.1-.3-.21-.45-.32-.15-.11-.3-.22-.44-.33-.57-.45-1.11-.94-1.6-1.46-.98-1.03-1.79-2.2-2.42-3.43-.31-.62-.56-1.25-.76-1.9-.2-.65-.34-1.32-.43-1.99-.19-1.35-.22-2.72-.26-4.1-.04-1.38-.09-2.76-.21-4.14-.06-.69-.13-1.38-.21-2.06-.04-.34-.09-.69-.14-1.03-.05-.34-.1-.68-.16-1.03-.23-1.37-.51-2.72-.83-4.07-.33-1.35-.71-2.68-1.15-4.01-.01-.04-.06-.06-.1-.05-.04,.01-.07,.05-.06,.09Z"/>
          <polygon class="cls-1" points="21.87 38.17 20.86 45.13 32.57 45.13 31.04 38.17 21.87 38.17"/>
          <path class="cls-24" d="M2.21,15.88v20.72c0,1.7,1.36,3.1,3.06,3.14,7.57,.2,34.04,.67,41.25,.56,1.24-.02,2.24-1.01,2.28-2.25,.14-4.81,.36-16.39-.47-21.76-.18-1.13-1.13-1.98-2.28-2.01-6.34-.2-34.4-.85-41.6-.69-1.24,.03-2.23,1.04-2.23,2.28Z"/>
          <path class="cls-7" d="M3.51,15.78v19.69c0,1,.8,1.81,1.79,1.82l40.18,.5c.99,.01,1.8-.78,1.8-1.77l.07-19.51c0-.71-.56-1.28-1.26-1.3l-41.13-.83c-.79-.02-1.44,.62-1.44,1.4Z"/>
          <path class="cls-5" d="M47.58,38.59h0l-44.07-.75s-.06-.03-.05-.06c0-.03,.03-.05,.06-.05l44.07,.75s.06,.03,.05,.06c0,.03-.03,.05-.06,.05Z"/>
          <path class="cls-5" d="M25.98,39.5c-.28,0-.51-.23-.51-.51s.23-.51,.51-.51,.51,.23,.51,.51-.23,.51-.51,.51Zm0-.92c-.22,0-.4,.18-.4,.4s.18,.4,.4,.4,.4-.18,.4-.4-.18-.4-.4-.4Z"/>
          <path class="cls-26" d="M35.09,46.98H17.96c-.47,0-.81-.33-.72-.69l.22-.87c.07-.26,.35-.45,.7-.46l16.51-.52c.36-.01,.67,.18,.75,.45l.4,1.38c.1,.36-.25,.7-.72,.7Z"/>
          <path class="cls-2" d="M27.18,45.2s-.06-.02-.06-.05c0-.03,.02-.06,.05-.06h.71s.06,.01,.06,.04c0,.03-.02,.06-.05,.06h-.71s0,.01,0,.01Z"/>
          <path class="cls-2" d="M17.87,46.5s0,0,0,0c-.03,0-.05-.03-.05-.06l.1-.63c.05-.34,.34-.59,.69-.59l7.51-.11h0s.06,.02,.06,.05c0,.03-.02,.06-.05,.06l-7.51,.11c-.29,0-.53,.21-.58,.5l-.1,.63s-.03,.05-.05,.05Z"/>
          <rect class="cls-19" x="14.11" y="24.4" width="11.85" height="11.85" rx=".16" ry=".16" transform="translate(40.07 60.66) rotate(180)"/>
          <rect class="cls-12" x="15.33" y="24.42" width="11.42" height="11.85" rx=".16" ry=".16" transform="translate(42.08 60.7) rotate(180)"/>
          <g>
            <path class="cls-2" d="M16.83,32.4c0-.11,.03-.2,.09-.26,.06-.06,.15-.09,.26-.09s.2,.03,.26,.09c.06,.06,.09,.14,.09,.25s-.03,.19-.09,.25c-.06,.06-.15,.09-.26,.09s-.2-.03-.26-.09c-.06-.06-.09-.14-.09-.25Z"/>
            <path class="cls-2" d="M20.24,31.56c0,.37-.1,.65-.29,.86-.19,.21-.46,.31-.81,.31-.22,0-.41-.05-.57-.14-.17-.09-.29-.23-.38-.41s-.13-.38-.13-.62c0-.37,.1-.65,.29-.86,.19-.2,.46-.31,.81-.31,.22,0,.41,.05,.57,.14,.16,.09,.29,.23,.38,.4,.09,.18,.13,.38,.13,.62Zm-1.56,0c0,.22,.04,.39,.11,.51,.07,.11,.19,.17,.36,.17s.28-.06,.35-.17c.07-.11,.11-.28,.11-.51s-.04-.39-.11-.5c-.07-.11-.19-.17-.36-.17s-.28,.06-.35,.17c-.07,.11-.11,.28-.11,.5Z"/>
            <path class="cls-2" d="M22.1,30.4c.08,0,.15,0,.21,.02l-.05,.58s-.11-.02-.18-.02c-.2,0-.35,.05-.46,.15-.11,.1-.16,.24-.16,.42v1.15h-.61v-2.25h.46l.09,.38h.03c.07-.13,.16-.23,.28-.3,.12-.08,.25-.12,.39-.12Z"/>
            <path class="cls-2" d="M24.78,30.44v.31l-.35,.09c.06,.1,.1,.21,.1,.34,0,.24-.08,.43-.25,.56-.17,.13-.4,.2-.7,.2h-.11s-.09-.02-.09-.02c-.06,.05-.09,.1-.09,.16,0,.09,.11,.13,.34,.13h.38c.25,0,.44,.05,.56,.16,.13,.11,.19,.26,.19,.47,0,.26-.11,.47-.33,.61-.22,.14-.53,.22-.94,.22-.31,0-.55-.05-.72-.16-.17-.11-.25-.26-.25-.46,0-.14,.04-.25,.13-.34,.08-.09,.21-.16,.37-.2-.06-.03-.12-.07-.17-.13-.05-.06-.07-.13-.07-.19,0-.09,.02-.16,.07-.21,.05-.06,.12-.11,.22-.17-.12-.05-.21-.13-.28-.25-.07-.11-.1-.25-.1-.4,0-.25,.08-.44,.24-.57,.16-.13,.39-.2,.68-.2,.06,0,.14,0,.22,.02,.09,.01,.14,.02,.17,.03h.78Zm-1.74,2.57c0,.08,.04,.15,.12,.2,.08,.05,.19,.07,.34,.07,.22,0,.39-.03,.52-.09,.12-.06,.19-.14,.19-.25,0-.08-.04-.14-.11-.18-.07-.03-.19-.05-.34-.05h-.32c-.11,0-.21,.03-.28,.08-.08,.05-.11,.12-.11,.21Zm.22-1.83c0,.12,.03,.22,.08,.29,.06,.07,.14,.11,.25,.11s.2-.04,.25-.11c.05-.07,.08-.17,.08-.29,0-.27-.11-.41-.33-.41s-.34,.14-.34,.41Z"/>
          </g>
          <rect class="cls-21" x=".98" y="24.18" width="13.71" height="12.17" rx=".16" ry=".16" transform="translate(-5.48 1.98) rotate(-10.7)"/>
          <rect class="cls-27" x="2.84" y="24.26" width="11.86" height="11.86" rx=".16" ry=".16" transform="translate(-5.45 2.15) rotate(-10.7)"/>
          <g>
            <path class="cls-2" d="M4.53,33.08c-.02-.1-.01-.19,.03-.25,.04-.06,.12-.11,.22-.13,.1-.02,.19-.01,.25,.03,.07,.04,.11,.11,.13,.21,.02,.1,0,.18-.03,.25-.04,.07-.12,.11-.22,.14-.1,.02-.19,.01-.26-.03-.07-.04-.11-.11-.13-.21Z"/>
            <path class="cls-2" d="M7.73,32.65l-.56,.12-.26-1.2c-.03-.15-.08-.25-.15-.32-.07-.06-.16-.08-.28-.06-.16,.03-.26,.11-.31,.23-.05,.12-.04,.3,0,.54l.21,.97-.56,.12-.45-2.05,.43-.09,.13,.25h.03c.04-.12,.11-.21,.21-.29,.1-.07,.22-.13,.36-.16,.24-.05,.43-.03,.59,.07,.15,.1,.25,.28,.31,.52l.29,1.34Z"/>
            <path class="cls-2" d="M9.34,32.34c-.33,.07-.61,.04-.84-.1-.23-.14-.38-.38-.45-.71-.08-.34-.05-.63,.08-.85,.13-.23,.35-.37,.65-.44,.29-.06,.53-.03,.73,.1,.2,.13,.33,.34,.39,.63l.06,.27-1.32,.29c.04,.16,.12,.27,.22,.34,.11,.07,.24,.09,.4,.05,.12-.03,.24-.07,.34-.12,.1-.05,.21-.12,.32-.2l.09,.43c-.09,.07-.18,.13-.29,.18-.11,.05-.24,.09-.4,.13Zm-.46-1.71c-.12,.03-.2,.08-.25,.17-.05,.09-.07,.21-.05,.35l.79-.17c-.03-.14-.09-.24-.18-.3-.09-.06-.19-.08-.31-.05Z"/>
            <path class="cls-2" d="M11.5,31.4c.1-.02,.21-.07,.34-.14l.09,.42c-.13,.09-.29,.16-.49,.21-.22,.05-.4,.03-.53-.06-.13-.09-.22-.25-.26-.48l-.22-.99-.27,.06-.05-.24,.27-.25,.07-.47,.36-.08,.1,.44,.58-.13,.09,.42-.58,.13,.22,.99c.02,.08,.05,.13,.11,.16,.05,.03,.12,.03,.19,.02Z"/>
          </g>
          <rect class="cls-22" x="19.19" y="11.09" width="12.41" height="12.41" rx=".16" ry=".16" transform="translate(50.79 34.58) rotate(180)"/>
          <rect class="cls-16" x="20.47" y="11.1" width="11.95" height="12.41" rx=".16" ry=".16" transform="translate(52.89 34.62) rotate(180)"/>
          <g>
            <path class="cls-2" d="M20.81,18.5c0-.12,.03-.21,.1-.27,.06-.06,.16-.09,.28-.09s.21,.03,.27,.09c.06,.06,.1,.15,.1,.27s-.03,.2-.1,.27c-.07,.06-.16,.1-.27,.1s-.21-.03-.28-.09c-.07-.06-.1-.15-.1-.27Z"/>
            <path class="cls-2" d="M23.22,18.85c-.74,0-1.11-.41-1.11-1.22,0-.4,.1-.71,.3-.93,.2-.21,.49-.32,.87-.32,.28,0,.52,.05,.74,.16l-.19,.5c-.1-.04-.2-.07-.29-.1-.09-.03-.18-.04-.26-.04-.34,0-.51,.24-.51,.72s.17,.7,.51,.7c.12,0,.24-.02,.35-.05,.11-.03,.21-.09,.32-.16v.56c-.11,.07-.21,.11-.32,.14-.11,.03-.24,.04-.41,.04Z"/>
            <path class="cls-2" d="M26.77,17.61c0,.39-.1,.69-.31,.91-.2,.22-.49,.33-.85,.33-.23,0-.43-.05-.6-.15s-.31-.24-.4-.43c-.09-.19-.14-.41-.14-.66,0-.39,.1-.69,.3-.91,.2-.22,.49-.32,.86-.32,.23,0,.43,.05,.6,.15,.17,.1,.31,.24,.4,.43,.09,.19,.14,.4,.14,.65Zm-1.65,0c0,.24,.04,.41,.12,.53,.08,.12,.2,.18,.38,.18s.3-.06,.37-.18c.08-.12,.11-.3,.11-.54s-.04-.41-.12-.53c-.08-.12-.2-.18-.38-.18s-.3,.06-.37,.18c-.08,.12-.12,.29-.12,.53Z"/>
            <path class="cls-2" d="M29.55,18.8h-.65v-1.39c0-.17-.03-.3-.09-.39-.06-.09-.15-.13-.27-.13-.17,0-.29,.06-.36,.18-.08,.12-.11,.32-.11,.6v1.12h-.65v-2.38h.5l.09,.3h.04c.06-.11,.16-.19,.28-.26,.12-.06,.26-.09,.42-.09,.36,0,.6,.12,.72,.35h.06c.06-.11,.16-.2,.28-.26,.12-.06,.26-.09,.42-.09,.27,0,.47,.07,.61,.21,.14,.14,.21,.36,.21,.67v1.55h-.65v-1.39c0-.17-.03-.3-.09-.39-.06-.09-.15-.13-.27-.13-.16,0-.28,.06-.36,.17-.08,.11-.12,.29-.12,.54v1.2Z"/>
          </g>
          <rect class="cls-14" x="27.46" y="23.88" width="12.05" height="11.28" rx=".16" ry=".16" transform="translate(66.97 59.04) rotate(180)"/>
          <rect class="cls-28" x="29.4" y="23.9" width="10.86" height="11.28" rx=".16" ry=".16" transform="translate(69.66 59.08) rotate(180)"/>
          <g>
            <path class="cls-2" d="M30.12,31.38c0-.1,.03-.18,.08-.23,.06-.05,.14-.08,.24-.08s.18,.03,.24,.08c.06,.05,.08,.13,.08,.23s-.03,.17-.08,.23c-.06,.06-.13,.08-.24,.08s-.18-.03-.24-.08c-.06-.05-.08-.13-.08-.23Z"/>
            <path class="cls-2" d="M31.34,29.05c0-.18,.1-.27,.31-.27s.31,.09,.31,.27c0,.09-.03,.15-.08,.2-.05,.05-.13,.07-.23,.07-.2,0-.31-.09-.31-.28Zm.59,2.59h-.56v-2.06h.56v2.06Z"/>
            <path class="cls-2" d="M34.51,31.64h-.56v-1.2c0-.15-.03-.26-.08-.33-.05-.07-.14-.11-.25-.11-.16,0-.27,.05-.34,.16-.07,.1-.1,.28-.1,.52v.97h-.56v-2.06h.43l.08,.26h.03c.06-.1,.15-.17,.26-.23,.11-.05,.23-.08,.37-.08,.24,0,.42,.06,.54,.19,.12,.13,.19,.32,.19,.56v1.34Z"/>
            <path class="cls-2" d="M36.32,30h-.49v1.64h-.56v-1.64h-.31v-.27l.31-.15v-.15c0-.23,.06-.41,.17-.51,.12-.11,.3-.16,.55-.16,.19,0,.37,.03,.52,.09l-.14,.41c-.11-.04-.22-.05-.31-.05-.08,0-.14,.02-.17,.07-.04,.05-.05,.11-.05,.18v.13h.49v.42Z"/>
            <path class="cls-2" d="M38.61,30.61c0,.33-.09,.6-.26,.79-.18,.19-.42,.28-.74,.28-.2,0-.37-.04-.52-.13-.15-.09-.27-.21-.35-.37s-.12-.35-.12-.57c0-.34,.09-.6,.26-.78,.18-.19,.42-.28,.74-.28,.2,0,.37,.04,.52,.13,.15,.09,.27,.21,.35,.37,.08,.16,.12,.35,.12,.57Zm-1.42,0c0,.2,.03,.36,.1,.46,.07,.1,.18,.16,.33,.16s.26-.05,.32-.16c.07-.1,.1-.26,.1-.46s-.03-.36-.1-.46c-.07-.1-.17-.15-.33-.15s-.26,.05-.32,.15c-.07,.1-.1,.25-.1,.46Z"/>
          </g>
          <path class="cls-29" d="M39.64,26.99s.09,4.08,4.38,4.79l.77-.76s-3.71-1.26-4.68-3.9l.21-1.4-.15-.93-.53,2.19Z"/>
          <path class="cls-10" d="M43.78,40.96s2.03,4.43,3.1,6.27c0,0,.21,1.16,0,1.52l-.18,.08,.84-.03s.07-1.55,.02-1.64c-.06-.09-.18-.08-.18-.08,0,0-.36-2.86-1.41-3.48l-1.01-3.49-1.18,.85Z"/>
          <path class="cls-8" d="M46.34,49.05s.66,.01,1.02,0c.13,0,.25-.1,.27-.22l.27-1.42c.03-.14-.06-.27-.19-.3l-.15-.03s-.22,.3-.15,.57c.07,.28,.13,1-.04,1.08s-.66,.1-.66,.1c0,0-.35,.03-.36,.22Z"/>
          <path class="cls-17" d="M41.85,49.07c-.07,.04-.04,.14,.04,.14,.6,0,1.94-.02,2.06-.07,.15-.06-.06-.62-.28-.81l-1.22,.4-.6,.34Z"/>
          <path class="cls-6" d="M41.47,40.68s1.31,6.36,1.69,7.6l-.88,.55s.44-.07,.77-.1c.33-.02,.63-.4,.63-.4l-.11-.17s-.33-6.32-.25-7.04l-1.85-.44Z"/>
          <path class="cls-9" d="M38.21,25.85s-.18,3.31,2.83,5l-.73,1.65s-2.73-1.65-2.63-6.15c0-.13-.04-.25-.13-.35l-.58-.67c-.22-.26-.3-.6-.22-.93l.08-.3c.03-.1,.14-.15,.23-.1l.06,.04c.19,.11,.35,.28,.44,.49l.28,.64c.11,.24,.35,.38,.61,.36l.18-.02-.43,.35Z"/>
          <path class="cls-25" d="M40.94,30.6c.5,.14,2.21,.59,3.28,.57l-.65,3.69,.05,.6h-2.13s-.6-1.4-1.07-2.1c-.14-.2-.03-.44,.04-.67l-.11-.07c-.11-.07-.16-.21-.11-.33l.52-1.59c.03-.08,.11-.13,.19-.1Z"/>
          <path class="cls-15" d="M41.31,35.14l.04,.36s-.6,1.81,.3,6.02c0,0,1.96,.55,3.57-.77,0,0-.45-3.98-.58-4.17-.62-.92-1.03-1.12-1.03-1.12l-.02-.4s-1.72,.31-2.29,.07Z"/>
          <path class="cls-11" d="M42.14,30.89s.45-1.37,.45-1.37l.65,.06,.25,1.54s-1.02,.21-1.35-.23Z"/>
          <path class="cls-18" d="M43.08,27.39s-1.39,.58-1.1,1.98c.02,.08,.07,.15,.15,.19,.2,.09,.62,.24,1.13,.19,.7-.07,1.16-1.3,1.14-1.66-.02-.36-.9-.96-1.32-.69Z"/>
          <path class="cls-23" d="M43.49,26.84s-.78,.26-.41,.8c.37,.54,.51,.85,.33,1.09-.16,.21-.51,.09-.48,.54,0,.09-.03,.18-.11,.23-.33,.22-1.14,.91-.34,1.89,.06,.08,.08,.19,.03,.28-.23,.42-.73,1.65,1.05,2.33,1.76,.67,2.39-.48,2.57-.93,.04-.1,.14-.16,.24-.16,.19,0,.47-.02,.45-.28,0-.16-.11-.3-.22-.41-.11-.11-.09-.31,.05-.39,.1-.06,.2-.15,.24-.3,.11-.39-.11-1.58-1.24-1.78-.09-.02-.19-.11-.21-.2,0,0,0,0,0,0-.02-.09,.02-.19,.09-.24,.18-.13,.41-.4,.22-.83-.17-.38-.49-.51-.72-.55-.14-.02-.23-.16-.2-.29,.08-.38,.01-.98-1.35-.8Z"/>
        </g>
      </g>
    </g>
  </g>
</svg>