<?xml version="1.0" encoding="UTF-8"?>
<svg id="Layer_2" data-name="Layer 2" xmlns="http://www.w3.org/2000/svg" xmlns:xlink="http://www.w3.org/1999/xlink" viewBox="0 0 48.76 40.43">
  <defs>
    <style>
      .cls-1 {
        fill: url(#linear-gradient-2);
      }

      .cls-2 {
        font-size: 2.99px;
      }

      .cls-2, .cls-3, .cls-4, .cls-5, .cls-6, .cls-7, .cls-8 {
        fill: #fff;
      }

      .cls-2, .cls-4, .cls-6, .cls-7, .cls-8 {
        font-family: Montserrat-Bold, 'Montserrat Bold';
        font-weight: 700;
      }

      .cls-9 {
        fill: url(#linear-gradient-17);
      }

      .cls-10 {
        fill: #75b3e2;
      }

      .cls-11 {
        fill: url(#linear-gradient-15);
      }

      .cls-12 {
        fill: url(#linear-gradient-18);
      }

      .cls-13 {
        fill: url(#linear-gradient-14);
      }

      .cls-14 {
        fill: url(#linear-gradient-6);
      }

      .cls-4 {
        font-size: 2.15px;
      }

      .cls-5 {
        opacity: .5;
      }

      .cls-6 {
        font-size: 2.91px;
      }

      .cls-15 {
        fill: url(#linear-gradient-11);
      }

      .cls-7 {
        font-size: 2.31px;
      }

      .cls-16 {
        fill: url(#linear-gradient-10);
      }

      .cls-17 {
        letter-spacing: -.05em;
      }

      .cls-18 {
        fill: url(#linear-gradient-16);
      }

      .cls-19 {
        fill: url(#linear-gradient-5);
      }

      .cls-20 {
        fill: url(#linear-gradient-7);
      }

      .cls-8 {
        font-size: 2.18px;
      }

      .cls-21 {
        fill: url(#linear-gradient-9);
      }

      .cls-22 {
        fill: url(#linear-gradient-3);
      }

      .cls-23 {
        fill: #21265f;
      }

      .cls-24 {
        fill: url(#linear-gradient);
      }

      .cls-25 {
        fill: url(#linear-gradient-4);
      }

      .cls-26 {
        fill: url(#linear-gradient-8);
      }

      .cls-27 {
        letter-spacing: -.06em;
      }

      .cls-28 {
        fill: url(#linear-gradient-12);
      }

      .cls-29 {
        fill: url(#linear-gradient-13);
      }
    </style>
    <linearGradient id="linear-gradient" x1="17.11" y1="37.22" x2="28.11" y2="37.22" gradientUnits="userSpaceOnUse">
      <stop offset="0" stop-color="#486ab3"/>
      <stop offset="1" stop-color="#292b74"/>
    </linearGradient>
    <linearGradient id="linear-gradient-2" x1="4.34" y1="21.7" x2="40.89" y2="21.7" xlink:href="#linear-gradient"/>
    <linearGradient id="linear-gradient-3" x1="14.95" y1="39.86" x2="30.28" y2="39.86" xlink:href="#linear-gradient"/>
    <linearGradient id="linear-gradient-4" x1="10.09" y1="3.63" x2="21.4" y2="3.63" xlink:href="#linear-gradient"/>
    <linearGradient id="linear-gradient-5" x1="24.93" y1="7.88" x2="33.59" y2="7.88" xlink:href="#linear-gradient"/>
    <linearGradient id="linear-gradient-6" x1="0" y1="31.27" x2="8.66" y2="31.27" xlink:href="#linear-gradient"/>
    <linearGradient id="linear-gradient-7" x1="3.84" y1="20.72" x2="12.5" y2="20.72" xlink:href="#linear-gradient"/>
    <linearGradient id="linear-gradient-8" x1="33.87" y1="36.66" x2="34.36" y2="36.66" xlink:href="#linear-gradient"/>
    <linearGradient id="linear-gradient-9" x1="34.8" y1="31.21" x2="44.35" y2="31.21" xlink:href="#linear-gradient"/>
    <linearGradient id="linear-gradient-10" x1="43.99" y1="24.99" x2="44.35" y2="24.99" xlink:href="#linear-gradient"/>
    <linearGradient id="linear-gradient-11" x1="32.39" y1="24.79" x2="42.26" y2="24.79" xlink:href="#linear-gradient"/>
    <linearGradient id="linear-gradient-12" x1="26.78" y1="36.26" x2="35.44" y2="36.26" xlink:href="#linear-gradient"/>
    <linearGradient id="linear-gradient-13" x1="43.78" y1="31.24" x2="44.59" y2="31.24" xlink:href="#linear-gradient"/>
    <linearGradient id="linear-gradient-14" x1="43.43" y1="31.24" x2="44.94" y2="31.24" xlink:href="#linear-gradient"/>
    <linearGradient id="linear-gradient-15" x1="40.1" y1="23.15" x2="48.76" y2="23.15" xlink:href="#linear-gradient"/>
    <linearGradient id="linear-gradient-16" x1="23.33" y1="20.05" x2="31.3" y2="20.05" xlink:href="#linear-gradient"/>
    <linearGradient id="linear-gradient-17" x1="22.57" y1="20.84" x2="32.05" y2="19.25" xlink:href="#linear-gradient"/>
    <linearGradient id="linear-gradient-18" x1="21.35" y1="17.07" x2="32.28" y2="15.23" xlink:href="#linear-gradient"/>
  </defs>
  <g id="Layer_1-2" data-name="Layer 1">
    <g>
      <rect class="cls-24" x="17.11" y="34.59" width="11" height="5.27"/>
      <path class="cls-1" d="M5.74,8.29H39.49c.77,0,1.4,.63,1.4,1.4v24.02c0,.77-.63,1.4-1.4,1.4H5.74c-.77,0-1.4-.63-1.4-1.4V9.69c0-.77,.63-1.4,1.4-1.4Z"/>
      <path class="cls-5" d="M23.27,33.42c0,.4-.32,.72-.72,.72s-.72-.32-.72-.72,.32-.72,.72-.72,.72,.32,.72,.72Z"/>
      <path class="cls-10" d="M40.45,31.84V9.96c0-.66-.52-1.2-1.16-1.2H5.94c-.64,0-1.16,.54-1.16,1.2V31.84H40.45Z"/>
      <path class="cls-22" d="M16.05,39.29h13.13c.61,0,1.1,.49,1.1,1.1v.04H14.95v-.04c0-.61,.49-1.1,1.1-1.1Z"/>
      <path class="cls-25" d="M21.4,5.2c0-1.06-.8-1.93-1.83-2.05,0-.07,.01-.14,.01-.21,0-1.02-.82-1.84-1.84-1.84-.27,0-.53,.06-.76,.17-.49-.76-1.34-1.27-2.32-1.27-1.52,0-2.75,1.23-2.75,2.75,0,.13,.01,.27,.03,.39-1.04,.11-1.85,.98-1.85,2.05,0,1.14,.92,2.06,2.06,2.06h7.28c1.09-.06,1.96-.96,1.96-2.06Z"/>
      <polygon class="cls-3" points="17.06 8.84 17.06 5.63 14.42 5.63 14.42 8.84 13.6 8.84 15.74 10.85 17.89 8.84 17.06 8.84"/>
      <rect class="cls-19" x="24.93" y="5.72" width="8.66" height="4.33" rx="1.09" ry="1.09"/>
      <rect class="cls-14" y="29.1" width="8.66" height="4.33" rx="1.09" ry="1.09"/>
      <rect class="cls-20" x="3.84" y="18.56" width="8.66" height="4.33" rx="1.09" ry="1.09"/>
      <g>
        <path class="cls-26" d="M34.27,36.75h-.31c-.05,0-.09-.04-.09-.09s.04-.09,.09-.09h.31c.05,0,.09,.04,.09,.09s-.04,.09-.09,.09Z"/>
        <path class="cls-21" d="M41.69,36.75h-.62c-.05,0-.09-.04-.09-.09s.04-.09,.09-.09h.62c.05,0,.09,.04,.09,.09s-.04,.09-.09,.09Zm-1.24,0h-.62c-.05,0-.09-.04-.09-.09s.04-.09,.09-.09h.62c.05,0,.09,.04,.09,.09s-.04,.09-.09,.09Zm-1.24,0h-.62c-.05,0-.09-.04-.09-.09s.04-.09,.09-.09h.62c.05,0,.09,.04,.09,.09s-.04,.09-.09,.09Zm-1.24,0h-.62c-.05,0-.09-.04-.09-.09s.04-.09,.09-.09h.62c.05,0,.09,.04,.09,.09s-.04,.09-.09,.09Zm-1.24,0h-.62c-.05,0-.09-.04-.09-.09s.04-.09,.09-.09h.62c.05,0,.09,.04,.09,.09s-.04,.09-.09,.09Zm-1.24,0h-.62c-.05,0-.09-.04-.09-.09s.04-.09,.09-.09h.62c.05,0,.09,.04,.09,.09s-.04,.09-.09,.09Zm6.79-.07s-.08-.03-.09-.07c-.01-.05,.02-.1,.07-.11,.19-.05,.38-.12,.56-.21,.05-.02,.1,0,.13,.04,.02,.05,0,.1-.04,.13-.19,.1-.39,.17-.6,.22,0,0-.01,0-.02,0Zm1.09-.57s-.05-.01-.07-.03c-.03-.04-.03-.1,0-.13,.15-.13,.28-.28,.4-.44,.03-.04,.09-.05,.13-.02,.04,.03,.05,.09,.02,.13-.12,.17-.27,.33-.43,.48-.02,.02-.04,.02-.06,.02Zm.7-1s-.02,0-.03,0c-.05-.02-.07-.07-.05-.12,.07-.19,.12-.38,.15-.58,0-.05,.05-.09,.1-.08,.05,0,.09,.05,.08,.1-.03,.21-.08,.42-.16,.62-.01,.04-.05,.06-.09,.06Zm.17-1.21c-.05,0-.09-.04-.09-.09v-.62c0-.05,.04-.09,.09-.09s.09,.04,.09,.09v.62c0,.05-.04,.09-.09,.09Zm0-1.24c-.05,0-.09-.04-.09-.09v-.62c0-.05,.04-.09,.09-.09s.09,.04,.09,.09v.62c0,.05-.04,.09-.09,.09Zm0-1.24c-.05,0-.09-.04-.09-.09v-.62c0-.05,.04-.09,.09-.09s.09,.04,.09,.09v.62c0,.05-.04,.09-.09,.09Zm0-1.24c-.05,0-.09-.04-.09-.09v-.62c0-.05,.04-.09,.09-.09s.09,.04,.09,.09v.62c0,.05-.04,.09-.09,.09Zm0-1.24c-.05,0-.09-.04-.09-.09v-.62c0-.05,.04-.09,.09-.09s.09,.04,.09,.09v.62c0,.05-.04,.09-.09,.09Zm0-1.24c-.05,0-.09-.04-.09-.09v-.62c0-.05,.04-.09,.09-.09s.09,.04,.09,.09v.62c0,.05-.04,.09-.09,.09Zm0-1.24c-.05,0-.09-.04-.09-.09v-.62c0-.05,.04-.09,.09-.09s.09,.04,.09,.09v.62c0,.05-.04,.09-.09,.09Z"/>
        <path class="cls-16" d="M44.26,25.24c-.05,0-.09-.04-.09-.09v-.22h-.08c-.05,0-.09-.04-.09-.09s.04-.09,.09-.09h.17c.05,0,.09,.04,.09,.09v.31c0,.05-.04,.09-.09,.09Z"/>
      </g>
      <rect class="cls-15" x="32.39" y="15.48" width="9.88" height="18.62" rx=".88" ry=".88"/>
      <g>
        <rect class="cls-23" x="34.54" y="16.15" width="4.74" height=".3" rx=".14" ry=".14"/>
        <path class="cls-23" d="M40.11,16.3c0,.08-.07,.15-.15,.15s-.15-.07-.15-.15,.07-.15,.15-.15,.15,.07,.15,.15Z"/>
      </g>
      <rect class="cls-3" x="32.93" y="17.17" width="8.79" height="5.4"/>
      <polygon class="cls-10" points="38.99 19.42 38.35 20.19 36.68 18.2 33.89 21.53 37.23 21.53 39.47 21.53 40.76 21.53 38.99 19.42"/>
      <rect class="cls-3" x="32.93" y="29.72" width="4.15" height="2.43"/>
      <polygon class="cls-10" points="35.79 30.67 35.49 31.03 34.7 30.09 33.39 31.66 34.96 31.66 36.02 31.66 36.63 31.66 35.79 30.67"/>
      <g>
        <rect class="cls-10" x="32.93" y="23.96" width="4.15" height=".23"/>
        <rect class="cls-10" x="32.93" y="23.47" width="4.15" height=".23"/>
        <rect class="cls-10" x="32.93" y="24.43" width="2.62" height=".23"/>
        <rect class="cls-10" x="35.74" y="24.43" width="1.34" height=".23"/>
        <rect class="cls-10" x="32.93" y="24.91" width="3.67" height=".23"/>
        <rect class="cls-10" x="32.93" y="25.4" width="1.27" height=".23"/>
        <rect class="cls-10" x="34.43" y="25.4" width=".92" height=".23"/>
      </g>
      <g>
        <rect class="cls-10" x="37.57" y="27.22" width="4.15" height=".23"/>
        <rect class="cls-10" x="37.57" y="26.73" width="4.15" height=".23"/>
        <rect class="cls-10" x="37.57" y="27.7" width="2.62" height=".23"/>
        <rect class="cls-10" x="40.38" y="27.7" width="1.34" height=".23"/>
        <rect class="cls-10" x="37.57" y="28.17" width="3.67" height=".23"/>
        <rect class="cls-10" x="37.57" y="28.66" width="1.27" height=".23"/>
        <rect class="cls-10" x="39.07" y="28.66" width=".92" height=".23"/>
      </g>
      <g>
        <rect class="cls-10" x="37.57" y="23.96" width="4.15" height=".23"/>
        <rect class="cls-10" x="37.57" y="23.47" width="4.15" height=".23"/>
        <rect class="cls-10" x="37.57" y="24.43" width="2.62" height=".23"/>
        <rect class="cls-10" x="40.38" y="24.43" width="1.34" height=".23"/>
        <rect class="cls-10" x="37.57" y="24.91" width="4.15" height=".23"/>
        <rect class="cls-10" x="37.57" y="25.4" width="1.27" height=".23"/>
        <rect class="cls-10" x="39.07" y="25.4" width="2.65" height=".23"/>
      </g>
      <g>
        <rect class="cls-10" x="32.93" y="27.22" width="4.15" height=".23"/>
        <rect class="cls-10" x="32.93" y="26.73" width="4.15" height=".23"/>
        <rect class="cls-10" x="32.93" y="27.7" width="4.15" height=".23"/>
        <rect class="cls-10" x="32.93" y="28.17" width="4.15" height=".23"/>
        <rect class="cls-10" x="32.93" y="28.66" width="4.15" height=".23"/>
      </g>
      <g>
        <rect class="cls-10" x="37.57" y="30.29" width="4.15" height=".23"/>
        <rect class="cls-10" x="37.57" y="29.8" width="4.15" height=".23"/>
        <rect class="cls-10" x="39.1" y="30.77" width="2.62" height=".23"/>
        <rect class="cls-10" x="37.57" y="30.77" width="1.34" height=".23"/>
        <rect class="cls-10" x="37.57" y="31.24" width="3.19" height=".23"/>
        <rect class="cls-10" x="40.98" y="31.24" width=".74" height=".23"/>
        <rect class="cls-10" x="38.66" y="31.73" width="3.06" height=".23"/>
        <rect class="cls-10" x="37.57" y="31.73" width=".92" height=".23"/>
      </g>
      <rect class="cls-28" x="26.78" y="34.1" width="8.66" height="4.33" rx="1.09" ry="1.09"/>
      <g>
        <path class="cls-29" d="M44.59,31.24c0,.22-.18,.4-.4,.4s-.4-.18-.4-.4,.18-.4,.4-.4,.4,.18,.4,.4Z"/>
        <path class="cls-13" d="M44.19,32c-.42,0-.76-.34-.76-.76s.34-.76,.76-.76,.76,.34,.76,.76-.34,.76-.76,.76Zm0-1.42c-.37,0-.66,.3-.66,.66s.3,.66,.66,.66,.66-.3,.66-.66-.3-.66-.66-.66Z"/>
      </g>
      <rect class="cls-11" x="40.1" y="20.99" width="8.66" height="4.33" rx="1.09" ry="1.09"/>
      <g>
        <rect class="cls-23" x="21.66" y="26.11" width="2.72" height=".25"/>
        <rect class="cls-23" x="25.08" y="26.11" width="6.31" height=".25"/>
        <path class="cls-23" d="M28.16,28.24c-1.08,0-2.17,0-3.25,0v-.25c2.16,0,4.34,0,6.48,0v.25c-1.07,0-2.15,0-3.23,0Z"/>
        <rect class="cls-23" x="23.92" y="27.05" width="7.48" height=".25"/>
        <rect class="cls-23" x="23.51" y="28.93" width="7.88" height=".25"/>
        <rect class="cls-23" x="22.42" y="29.87" width="8.98" height=".25"/>
      </g>
      <g>
        <rect class="cls-3" x="6.93" y="11.97" width="4.22" height=".25"/>
        <rect class="cls-3" x="16.61" y="11.97" width="4.36" height=".25"/>
        <rect class="cls-3" x="17.94" y="12.91" width="3.02" height=".25"/>
        <rect class="cls-3" x="16.7" y="14.79" width="4.26" height=".25"/>
        <rect class="cls-3" x="15.86" y="15.73" width="5.1" height=".25"/>
        <rect class="cls-3" x="14.4" y="16.83" width="6.56" height=".25"/>
        <rect class="cls-3" x="11.84" y="11.97" width="4.22" height=".25"/>
        <path class="cls-3" d="M17.55,14.1c-.64,0-1.29,0-2.59,0h-.84s0-.25,0-.25h.84q2.59,0,5.16,0h.84s0,.25,0,.25h-.84c-1.28,0-1.93,0-2.57,0Z"/>
        <path class="cls-3" d="M10.17,14.1c-1.08,0-2.16,0-3.23,0v-.25c2.14,0,4.32,0,6.48,0v.25c-1.08,0-2.17,0-3.25,0Z"/>
        <rect class="cls-3" x="6.93" y="12.91" width="10.41" height=".25"/>
        <rect class="cls-3" x="6.93" y="16.83" width="6.89" height=".25"/>
        <rect class="cls-3" x="6.93" y="14.79" width="9.23" height=".25"/>
        <rect class="cls-3" x="6.93" y="15.73" width="8.36" height=".25"/>
        <g>
          <circle class="cls-3" cx="6.05" cy="12.1" r=".17"/>
          <path class="cls-3" d="M6.22,13.04c0,.09-.08,.17-.17,.17s-.17-.08-.17-.17,.08-.17,.17-.17,.17,.08,.17,.17Z"/>
          <circle class="cls-3" cx="6.05" cy="13.97" r=".17"/>
          <path class="cls-3" d="M6.22,14.91c0,.09-.08,.17-.17,.17s-.17-.08-.17-.17,.08-.17,.17-.17,.17,.08,.17,.17Z"/>
          <circle class="cls-3" cx="6.05" cy="15.85" r=".17"/>
          <path class="cls-3" d="M6.22,16.95c0,.09-.08,.17-.17,.17s-.17-.08-.17-.17,.08-.17,.17-.17,.17,.08,.17,.17Z"/>
        </g>
        <path class="cls-3" d="M22.09,17.51s-.06-.03-.06-.06v-5.49s.03-.06,.06-.06,.06,.03,.06,.06v5.49s-.03,.06-.06,.06Z"/>
      </g>
      <g>
        <path class="cls-3" d="M11.56,29.35h-.38s-.06-.03-.06-.06,.03-.06,.06-.06h.38s.06,.03,.06,.06-.03,.06-.06,.06Zm-.76,0h-.38s-.06-.03-.06-.06,.03-.06,.06-.06h.38s.06,.03,.06,.06-.03,.06-.06,.06Zm-.76,0h-.15c-.09,0-.17-.02-.25-.06-.03-.02-.04-.06-.02-.09,.02-.03,.06-.04,.09-.02,.06,.03,.12,.05,.19,.05h.15s.06,.03,.06,.06-.03,.06-.06,.06Zm-.59-.35s-.06-.02-.06-.05c0-.04-.01-.07-.01-.11v-.28s.03-.06,.06-.06,.06,.03,.06,.06v.28s0,.06,0,.08c0,.03-.01,.07-.05,.08,0,0,0,0-.01,0Zm-.01-.76s-.06-.03-.06-.06v-.38s.03-.06,.06-.06,.06,.03,.06,.06v.38s-.03,.06-.06,.06Zm0-.76s-.06-.03-.06-.06v-.38s.03-.06,.06-.06,.06,.03,.06,.06v.38s-.03,.06-.06,.06Zm0-.76s-.06-.03-.06-.06v-.38s.03-.06,.06-.06,.06,.03,.06,.06v.38s-.03,.06-.06,.06Zm0-.76s-.06-.03-.06-.06v-.05c0-.13,.05-.25,.14-.35,.02-.03,.06-.03,.09,0,.03,.02,.03,.06,0,.09-.07,.07-.1,.16-.1,.26v.05s-.03,.06-.06,.06Zm2.36-.49h-.38s-.06-.03-.06-.06,.03-.06,.06-.06h.38s.06,.03,.06,.06-.03,.06-.06,.06Zm-.76,0h-.38s-.06-.03-.06-.06,.03-.06,.06-.06h.38s.06,.03,.06,.06-.03,.06-.06,.06Zm-.76,0h-.38s-.06-.03-.06-.06,.03-.06,.06-.06h.38s.06,.03,.06,.06-.03,.06-.06,.06Z"/>
        <rect class="cls-3" x="10.91" y="27.71" width="2.03" height=".25"/>
        <rect class="cls-3" x="13.47" y="27.71" width="3.29" height=".25"/>
        <rect class="cls-3" x="14.73" y="29.86" width="2.03" height=".25"/>
        <rect class="cls-3" x="10.91" y="29.86" width="3.29" height=".25"/>
        <rect class="cls-3" x="10.91" y="28.44" width="3.58" height=".25"/>
        <rect class="cls-3" x="15.02" y="28.44" width="1.74" height=".25"/>
        <rect class="cls-3" x="10.91" y="29.16" width="2.94" height=".25"/>
        <rect class="cls-3" x="14.76" y="29.16" width="2" height=".25"/>
        <g>
          <rect class="cls-3" x="10.91" y="24.64" width="1.06" height="1.98"/>
          <rect class="cls-3" x="12.58" y="23.89" width="1.06" height="2.74"/>
          <rect class="cls-3" x="14.19" y="22.33" width="1.06" height="4.3"/>
        </g>
        <rect class="cls-3" x="14.13" y="29.16" width=".38" height=".25"/>
      </g>
      <rect class="cls-18" x="23.33" y="15.6" width="7.97" height="8.89"/>
      <g>
        <rect class="cls-3" x="23.97" y="17.18" width="5.56" height=".19"/>
        <path class="cls-3" d="M26.74,18.72c-.95,0-1.91,0-2.77,0v-.19c1.73,0,3.81,0,5.56,0v.19c-.87,0-1.83,0-2.78,0Z"/>
        <rect class="cls-3" x="23.97" y="17.86" width="5.56" height=".19"/>
        <rect class="cls-3" x="23.97" y="19.21" width="4.05" height=".19"/>
        <rect class="cls-3" x="23.97" y="23.74" width="5.56" height=".19"/>
        <path class="cls-3" d="M29.53,22.58c-1.75,0-3.83,0-5.56,0v-.19c1.73,0,3.81,0,5.56,0v.19Z"/>
        <rect class="cls-3" x="23.97" y="23.06" width="5.56" height=".19"/>
        <rect class="cls-3" x="23.97" y="21.71" width="4.05" height=".19"/>
      </g>
      <path class="cls-9" d="M31.42,24.62h-8.22V15.48h8.22v9.14Zm-8.09-.12h7.97V15.6h-7.97v8.9Z"/>
      <rect class="cls-12" x="23.26" y="15.54" width="8.09" height="1.07"/>
      <g>
        <path class="cls-3" d="M29.05,21.24s-.04,0-.06-.02l-.62-.55s-.03-.04-.03-.07,.01-.05,.03-.07l.62-.55s.1-.03,.13,0c.03,.04,.03,.1,0,.13l-.54,.48,.54,.48s.04,.09,0,.13c-.02,.02-.04,.03-.07,.03Z"/>
        <path class="cls-3" d="M30.01,21.24s-.05-.01-.07-.03c-.03-.04-.03-.1,0-.13l.54-.48-.54-.48s-.04-.09,0-.13c.03-.04,.09-.04,.13,0l.62,.55s.03,.04,.03,.07-.01,.05-.03,.07l-.62,.55s-.04,.02-.06,.02Z"/>
      </g>
      <g>
        <path class="cls-3" d="M24.03,16.07l.22-.22s.02-.05,0-.07-.05-.02-.07,0l-.22,.22-.22-.22s-.05-.02-.07,0c-.02,.02-.02,.05,0,.07l.22,.22-.22,.22s-.02,.05,0,.07c.01,.01,.02,.02,.04,.02s.03,0,.04-.02l.22-.22,.22,.22s.02,.02,.04,.02,.03,0,.04-.02c.02-.02,.02-.05,0-.07l-.22-.22Z"/>
        <path class="cls-3" d="M24.96,16.38c-.17,0-.31-.14-.31-.31s.14-.31,.31-.31,.31,.14,.31,.31-.14,.31-.31,.31Zm0-.51c-.11,0-.21,.09-.21,.21s.09,.21,.21,.21,.21-.09,.21-.21-.09-.21-.21-.21Z"/>
        <path class="cls-3" d="M26.14,16.38h-.5s-.05-.02-.05-.05,.02-.05,.05-.05h.5s.05,.02,.05,.05-.02,.05-.05,.05Z"/>
      </g>
      <text class="cls-2" transform="translate(26.77 8.85)"><tspan x="0" y="0">&lt;/&gt;</tspan></text>
      <text class="cls-4" transform="translate(1.16 31.89)"><tspan x="0" y="0">HTML</tspan></text>
      <text class="cls-7" transform="translate(6.93 21.45)"><tspan x="0" y="0">JS</tspan></text>
      <text class="cls-6" transform="translate(28.56 37.1)"><tspan x="0" y="0">C++</tspan></text>
      <text class="cls-8" transform="translate(41.52 23.88)"><tspan x="0" y="0">J</tspan><tspan class="cls-17" x=".81" y="0">A</tspan><tspan class="cls-27" x="2.03" y="0">V</tspan><tspan x="3.12" y="0">A</tspan></text>
    </g>
  </g>
</svg>