<?xml version="1.0" encoding="UTF-8"?>
<svg id="Layer_2" data-name="Layer 2" xmlns="http://www.w3.org/2000/svg" xmlns:xlink="http://www.w3.org/1999/xlink" viewBox="0 0 48.18 41.66">
  <defs>
    <style>
      .cls-1 {
        fill: url(#linear-gradient-51);
      }

      .cls-2 {
        fill: #fff;
      }

      .cls-3 {
        stroke: url(#linear-gradient-29);
      }

      .cls-3, .cls-4, .cls-5, .cls-6, .cls-7, .cls-8, .cls-9, .cls-10, .cls-11, .cls-12, .cls-13, .cls-14, .cls-15, .cls-16, .cls-17, .cls-18, .cls-19 {
        fill: none;
      }

      .cls-3, .cls-4, .cls-5, .cls-6, .cls-8, .cls-10, .cls-11, .cls-12, .cls-13, .cls-14, .cls-15, .cls-16, .cls-17, .cls-18 {
        stroke-linecap: round;
      }

      .cls-3, .cls-4, .cls-6, .cls-8, .cls-10, .cls-11, .cls-12, .cls-13, .cls-14, .cls-15, .cls-16, .cls-17 {
        stroke-linejoin: round;
        stroke-width: .81px;
      }

      .cls-20 {
        fill: #75b3e2;
      }

      .cls-21 {
        fill: url(#linear-gradient-43);
      }

      .cls-4 {
        stroke: url(#linear-gradient-38);
      }

      .cls-22 {
        fill: url(#linear-gradient-18);
      }

      .cls-23 {
        fill: url(#linear-gradient-56);
      }

      .cls-24 {
        fill: url(#linear-gradient-40);
      }

      .cls-25 {
        fill: url(#linear-gradient-52);
      }

      .cls-26 {
        fill: url(#linear-gradient-28);
      }

      .cls-27 {
        fill: url(#linear-gradient-14);
      }

      .cls-5, .cls-7, .cls-9, .cls-18, .cls-19 {
        stroke-miterlimit: 10;
      }

      .cls-5, .cls-18 {
        stroke-width: .12px;
      }

      .cls-5, .cls-19 {
        stroke: #fff;
      }

      .cls-28 {
        fill: url(#linear-gradient-20);
      }

      .cls-6 {
        stroke: url(#linear-gradient-24);
      }

      .cls-29 {
        fill: url(#linear-gradient-6);
      }

      .cls-7 {
        stroke: url(#linear-gradient-3);
      }

      .cls-7, .cls-9 {
        stroke-width: .16px;
      }

      .cls-30 {
        fill: url(#linear-gradient-53);
      }

      .cls-8 {
        stroke: url(#linear-gradient-16);
      }

      .cls-31 {
        fill: url(#linear-gradient-35);
      }

      .cls-32 {
        fill: url(#linear-gradient-48);
      }

      .cls-33 {
        fill: url(#linear-gradient-32);
      }

      .cls-34 {
        fill: url(#linear-gradient-11);
      }

      .cls-35 {
        fill: url(#linear-gradient-50);
      }

      .cls-36 {
        fill: url(#linear-gradient-39);
      }

      .cls-9 {
        stroke: url(#linear-gradient-2);
      }

      .cls-37 {
        fill: url(#linear-gradient-10);
      }

      .cls-38 {
        fill: url(#linear-gradient-49);
      }

      .cls-39 {
        fill: url(#linear-gradient-41);
      }

      .cls-10 {
        stroke: url(#linear-gradient-30);
      }

      .cls-11 {
        stroke: url(#linear-gradient-31);
      }

      .cls-40 {
        fill: url(#linear-gradient-21);
      }

      .cls-41 {
        fill: url(#linear-gradient-25);
      }

      .cls-42 {
        fill: url(#linear-gradient-5);
      }

      .cls-43 {
        fill: url(#linear-gradient-54);
      }

      .cls-44 {
        fill: url(#linear-gradient-45);
      }

      .cls-12 {
        stroke: url(#linear-gradient-17);
      }

      .cls-13 {
        stroke: url(#linear-gradient-15);
      }

      .cls-45 {
        fill: url(#linear-gradient-34);
      }

      .cls-14 {
        stroke: url(#linear-gradient-36);
      }

      .cls-46 {
        fill: url(#linear-gradient-7);
      }

      .cls-15 {
        stroke: url(#linear-gradient-22);
      }

      .cls-16 {
        stroke: url(#linear-gradient-23);
      }

      .cls-47 {
        fill: url(#linear-gradient-9);
      }

      .cls-17 {
        stroke: url(#linear-gradient-37);
      }

      .cls-48 {
        fill: url(#linear-gradient-42);
      }

      .cls-49 {
        fill: url(#linear-gradient);
      }

      .cls-50 {
        fill: #80bedf;
      }

      .cls-18 {
        stroke: url(#linear-gradient-55);
      }

      .cls-51 {
        fill: url(#linear-gradient-27);
      }

      .cls-52 {
        fill: url(#linear-gradient-33);
      }

      .cls-19 {
        stroke-width: .21px;
      }

      .cls-53 {
        fill: url(#linear-gradient-19);
      }

      .cls-54 {
        fill: url(#linear-gradient-4);
      }

      .cls-55 {
        fill: url(#linear-gradient-8);
      }

      .cls-56 {
        fill: url(#linear-gradient-44);
      }

      .cls-57 {
        fill: url(#linear-gradient-47);
      }

      .cls-58 {
        fill: url(#linear-gradient-46);
      }

      .cls-59 {
        fill: url(#linear-gradient-12);
      }

      .cls-60 {
        fill: url(#linear-gradient-13);
      }

      .cls-61 {
        fill: url(#linear-gradient-26);
      }
    </style>
    <linearGradient id="linear-gradient" x1="3.38" y1="20.33" x2="45.12" y2="20.33" gradientTransform="translate(4.1 -3.33) rotate(8.45)" gradientUnits="userSpaceOnUse">
      <stop offset="0" stop-color="#f0f4fb"/>
      <stop offset="1" stop-color="#f0f4fb"/>
    </linearGradient>
    <linearGradient id="linear-gradient-2" x1="13.96" y1="12.26" x2="26.99" y2="12.26" gradientUnits="userSpaceOnUse">
      <stop offset="0" stop-color="#486ab3"/>
      <stop offset="1" stop-color="#292b74"/>
    </linearGradient>
    <linearGradient id="linear-gradient-3" x1="33.86" y1="17.61" x2="34.02" y2="17.61" xlink:href="#linear-gradient-2"/>
    <linearGradient id="linear-gradient-4" x1="35.56" y1="24.05" x2="43.51" y2="24.05" xlink:href="#linear-gradient-2"/>
    <linearGradient id="linear-gradient-5" x1="54.47" y1="-16.23" x2="59.05" y2="-18.36" gradientTransform="translate(-6.01 56.48) rotate(-17.99)" xlink:href="#linear-gradient-2"/>
    <linearGradient id="linear-gradient-6" x1="40.65" y1="30.74" x2="46.21" y2="26.17" xlink:href="#linear-gradient-2"/>
    <linearGradient id="linear-gradient-7" x1="40.79" y1="31.66" x2="45.36" y2="29.53" xlink:href="#linear-gradient-2"/>
    <linearGradient id="linear-gradient-8" x1="2.71" y1="23.87" x2="10.59" y2="31.59" xlink:href="#linear-gradient-2"/>
    <linearGradient id="linear-gradient-9" x1="3.65" y1="31.92" x2="7.26" y2="37.57" xlink:href="#linear-gradient-2"/>
    <linearGradient id="linear-gradient-10" x1="3.65" y1="34.68" x2="9.49" y2="37.53" xlink:href="#linear-gradient-2"/>
    <linearGradient id="linear-gradient-11" x1="6.16" y1="28.69" x2="20.89" y2="28.69" xlink:href="#linear-gradient-2"/>
    <linearGradient id="linear-gradient-12" x1="7.64" y1="19.78" x2="8.46" y2="19.78" gradientUnits="userSpaceOnUse">
      <stop offset=".06" stop-color="#fff"/>
      <stop offset="1" stop-color="#dfe9ed"/>
    </linearGradient>
    <linearGradient id="linear-gradient-13" x1="8.81" x2="9.62" xlink:href="#linear-gradient-12"/>
    <linearGradient id="linear-gradient-14" x1="9.97" x2="10.79" xlink:href="#linear-gradient-12"/>
    <linearGradient id="linear-gradient-15" x1="17.99" y1="19.78" x2="18.81" y2="19.78" xlink:href="#linear-gradient-12"/>
    <linearGradient id="linear-gradient-16" x1="16.61" y1="19.78" x2="17.42" y2="19.78" xlink:href="#linear-gradient-12"/>
    <linearGradient id="linear-gradient-17" x1="15.24" y1="19.78" x2="16.06" y2="19.78" xlink:href="#linear-gradient-12"/>
    <linearGradient id="linear-gradient-18" x1="11.11" y1="19.76" x2="11.93" y2="19.76" xlink:href="#linear-gradient-12"/>
    <linearGradient id="linear-gradient-19" y1="25.71" y2="25.71" xlink:href="#linear-gradient-12"/>
    <linearGradient id="linear-gradient-20" x1="8.81" y1="25.71" x2="9.62" y2="25.71" xlink:href="#linear-gradient-12"/>
    <linearGradient id="linear-gradient-21" x1="9.97" y1="25.71" x2="10.79" y2="25.71" xlink:href="#linear-gradient-12"/>
    <linearGradient id="linear-gradient-22" x1="17.99" y1="25.71" x2="18.81" y2="25.71" xlink:href="#linear-gradient-12"/>
    <linearGradient id="linear-gradient-23" x1="16.61" y1="25.71" x2="17.42" y2="25.71" xlink:href="#linear-gradient-12"/>
    <linearGradient id="linear-gradient-24" x1="15.24" y1="25.71" x2="16.06" y2="25.71" xlink:href="#linear-gradient-12"/>
    <linearGradient id="linear-gradient-25" x1="11.11" y1="25.69" x2="11.93" y2="25.69" xlink:href="#linear-gradient-12"/>
    <linearGradient id="linear-gradient-26" y1="31.62" y2="31.62" xlink:href="#linear-gradient-12"/>
    <linearGradient id="linear-gradient-27" x1="8.81" y1="31.62" x2="9.62" y2="31.62" xlink:href="#linear-gradient-12"/>
    <linearGradient id="linear-gradient-28" x1="9.97" y1="31.62" x2="10.79" y2="31.62" xlink:href="#linear-gradient-12"/>
    <linearGradient id="linear-gradient-29" x1="17.99" y1="31.62" x2="18.81" y2="31.62" xlink:href="#linear-gradient-12"/>
    <linearGradient id="linear-gradient-30" x1="16.61" y1="31.62" x2="17.42" y2="31.62" xlink:href="#linear-gradient-12"/>
    <linearGradient id="linear-gradient-31" x1="15.24" y1="31.62" x2="16.06" y2="31.62" xlink:href="#linear-gradient-12"/>
    <linearGradient id="linear-gradient-32" x1="11.11" y1="31.6" x2="11.93" y2="31.6" xlink:href="#linear-gradient-12"/>
    <linearGradient id="linear-gradient-33" y1="37.53" y2="37.53" xlink:href="#linear-gradient-12"/>
    <linearGradient id="linear-gradient-34" x1="8.81" y1="37.53" x2="9.62" y2="37.53" xlink:href="#linear-gradient-12"/>
    <linearGradient id="linear-gradient-35" x1="9.97" y1="37.53" x2="10.79" y2="37.53" xlink:href="#linear-gradient-12"/>
    <linearGradient id="linear-gradient-36" x1="17.99" y1="37.53" x2="18.81" y2="37.53" xlink:href="#linear-gradient-12"/>
    <linearGradient id="linear-gradient-37" x1="16.61" y1="37.53" x2="17.42" y2="37.53" xlink:href="#linear-gradient-12"/>
    <linearGradient id="linear-gradient-38" x1="15.24" y1="37.53" x2="16.06" y2="37.53" xlink:href="#linear-gradient-12"/>
    <linearGradient id="linear-gradient-39" x1="11.11" y1="37.52" x2="11.93" y2="37.52" xlink:href="#linear-gradient-12"/>
    <linearGradient id="linear-gradient-40" x1="22.43" y1="31.1" x2="42.39" y2="31.1" xlink:href="#linear-gradient-2"/>
    <linearGradient id="linear-gradient-41" x1="22.43" y1="37.6" x2="42.39" y2="37.6" xlink:href="#linear-gradient-2"/>
    <linearGradient id="linear-gradient-42" x1="29.53" y1="39.93" x2="35.22" y2="39.93" xlink:href="#linear-gradient-2"/>
    <linearGradient id="linear-gradient-43" x1="25.06" y1="6.79" x2="38.41" y2="6.79" xlink:href="#linear-gradient-2"/>
    <linearGradient id="linear-gradient-44" x1="24.21" y1="17.9" x2="30.63" y2="17.9" xlink:href="#linear-gradient-2"/>
    <linearGradient id="linear-gradient-45" x1="24.48" y1="18.26" x2="30.34" y2="18.26" xlink:href="#linear-gradient-12"/>
    <linearGradient id="linear-gradient-46" x1="24.21" y1="18.42" x2="30.63" y2="18.42" xlink:href="#linear-gradient-2"/>
    <linearGradient id="linear-gradient-47" x1="37.49" y1="25.22" x2="44.58" y2="25.22" gradientUnits="userSpaceOnUse">
      <stop offset="0" stop-color="#fafdff"/>
      <stop offset="1" stop-color="#cbeaee"/>
    </linearGradient>
    <linearGradient id="linear-gradient-48" x1="40.02" y1="25.22" x2="40.76" y2="25.22" gradientUnits="userSpaceOnUse">
      <stop offset="0" stop-color="#438ac9"/>
      <stop offset=".75" stop-color="#084e8a"/>
    </linearGradient>
    <linearGradient id="linear-gradient-49" x1="38.75" y1="25.25" x2="39.82" y2="25.25" xlink:href="#linear-gradient-48"/>
    <linearGradient id="linear-gradient-50" x1="302.84" y1="25.25" x2="303.91" y2="25.25" gradientTransform="translate(344.82) rotate(-180) scale(1 -1)" xlink:href="#linear-gradient-48"/>
    <linearGradient id="linear-gradient-51" x1="34.5" y1="34.88" x2="43.55" y2="34.88" xlink:href="#linear-gradient-47"/>
    <linearGradient id="linear-gradient-52" x1="36.29" y1="35.2" x2="40.91" y2="35.2" xlink:href="#linear-gradient-48"/>
    <linearGradient id="linear-gradient-53" x1="38.94" y1="33.83" x2="39.88" y2="33.83" xlink:href="#linear-gradient-48"/>
    <linearGradient id="linear-gradient-54" x1="19.88" y1="28.13" x2="28.93" y2="28.13" xlink:href="#linear-gradient-47"/>
    <linearGradient id="linear-gradient-55" x1="21.82" y1="28.13" x2="25.41" y2="28.13" xlink:href="#linear-gradient-48"/>
    <linearGradient id="linear-gradient-56" x1="23.27" y1="28.16" x2="24.39" y2="28.16" xlink:href="#linear-gradient-48"/>
  </defs>
  <g id="Layer_1-2" data-name="Layer 1">
    <g>
      <path id="Background" class="cls-49" d="M30.49,3.94c1.47,4.5,.13,3.68,6.9,3.67,7.3-.01,11.01,6.49,8.52,12.55-2.31,5.62-9.07,6.17-7.38,12.26,2.81,10.12-1.79,10.49-13.88,7.85-10.6-2.32-17.59-1.74-20.32-6.52-2.73-4.78,2.75-8.79,1-18.51C3.82,6.83,11.52,7.07,17.02,2.51c5.49-4.56,12.29-2.2,13.48,1.43Z"/>
      <g id="Line">
        <polyline id="Line-2" data-name="Line" class="cls-9" points="26.99 7.46 14.04 7.46 14.04 17.14"/>
        <line id="Line-3" data-name="Line" class="cls-7" x1="33.94" y1="10" x2="33.94" y2="25.22"/>
      </g>
      <path id="Leaf_Part" data-name="Leaf Part" class="cls-54" d="M35.67,27.51s-.91-4.9,2.48-6.77c3.38-1.86,4.66-1.36,5.22-1.3,.56,.06-.7,.7-1.52,2.11-.82,1.41-.44,2.78-2.85,3.93-2.42,1.15-2.85,3.28-2.85,3.28l-.47-1.26Z"/>
      <path id="Leaf_Part-2" data-name="Leaf Part" class="cls-19" d="M37.25,27.37s-.42-5.5,4.39-7.04"/>
      <g id="Leaf">
        <path id="Leaf_Part-3" data-name="Leaf Part" class="cls-42" d="M40.84,23.47s.48-2.63,2.14-2.53c1.66,.09,2.14,.67,2.34,.8,.21,.13-.4,.15-.98,.55-.58,.4-.68,1.01-1.83,1.01-1.15,0-1.71,.76-1.71,.76l.05-.58Z"/>
        <path id="Leaf_Part-4" data-name="Leaf Part" class="cls-19" d="M40.79,24.05s.99-2.61,3.53-2.28"/>
      </g>
      <g id="Leaf-2" data-name="Leaf">
        <path id="Leaf_Part-5" data-name="Leaf Part" class="cls-29" d="M41.57,30.16s.25-4.1,2.8-4.26c2.55-.16,3.39,.64,3.73,.8,.34,.16-.59,.3-1.4,1.01-.81,.72-.86,1.66-2.62,1.88-1.76,.22-2.48,1.47-2.48,1.47l-.03-.89Z"/>
        <path id="Leaf_Part-6" data-name="Leaf Part" class="cls-19" d="M41.61,31.06s1.04-4.17,4.98-4.13"/>
      </g>
      <g id="Leaf-3" data-name="Leaf">
        <path id="Leaf_Part-7" data-name="Leaf Part" class="cls-46" d="M41.07,30.97s1.27-2.35,2.82-1.75c1.55,.6,1.82,1.3,1.98,1.49,.16,.19-.43,.02-1.1,.22-.68,.2-.96,.75-2.06,.39-1.1-.35-1.86,.19-1.86,.19l.22-.54Z"/>
        <path id="Leaf_Part-8" data-name="Leaf Part" class="cls-19" d="M40.84,31.5s1.75-2.18,4.06-1.08"/>
      </g>
      <g id="Leaf-4" data-name="Leaf">
        <path id="Leaf_Part-9" data-name="Leaf Part" class="cls-55" d="M6.83,29.66s1.33-5.19-1.77-6.41c-3.1-1.22-4.46-.56-4.94-.5-.48,.06,.61,.6,1.33,1.81,.72,1.21,.4,2.4,2.49,3.37,2.1,.97,2.49,2.81,2.49,2.81l.4-1.09Z"/>
        <path id="Leaf_Part-10" data-name="Leaf Part" class="cls-5" d="M6.43,30.75s.38-5.58-4.52-7.11"/>
      </g>
      <g id="Leaf-5" data-name="Leaf">
        <path id="Leaf_Part-11" data-name="Leaf Part" class="cls-47" d="M7.6,35.4s-.25-4.17-2.85-4.33c-2.59-.16-3.44,.65-3.78,.81-.35,.16,.59,.3,1.42,1.03s.87,1.69,2.66,1.9c1.79,.22,2.52,1.49,2.52,1.49l.03-.91Z"/>
        <path id="Leaf_Part-12" data-name="Leaf Part" class="cls-5" d="M7.57,36.31s-1.05-4.23-5.06-4.19"/>
      </g>
      <g id="Leaf-6" data-name="Leaf">
        <path id="Leaf_Part-13" data-name="Leaf Part" class="cls-37" d="M8.12,36.22s-1.29-2.39-2.86-1.78c-1.57,.61-1.85,1.32-2.01,1.51-.16,.19,.43,.02,1.12,.22,.69,.2,.97,.76,2.09,.4,1.11-.36,1.89,.19,1.89,.19l-.23-.54Z"/>
        <path id="Leaf_Part-14" data-name="Leaf Part" class="cls-5" d="M8.35,36.76s-1.77-2.21-4.13-1.09"/>
      </g>
      <rect id="Server_Part" data-name="Server Part" class="cls-34" x="6.16" y="16.25" width="14.73" height="24.89" rx=".64" ry=".64"/>
      <rect id="Server_Part-2" data-name="Server Part" class="cls-20" x="7.08" y="23.05" width="12.88" height="5.29" rx=".21" ry=".21"/>
      <rect id="Server_Part-3" data-name="Server Part" class="cls-20" x="7.08" y="17.14" width="12.88" height="5.29" rx=".21" ry=".21"/>
      <rect id="Server_Part-4" data-name="Server Part" class="cls-20" x="7.08" y="34.88" width="12.88" height="5.29" rx=".21" ry=".21"/>
      <rect id="Server_Part-5" data-name="Server Part" class="cls-20" x="7.08" y="28.97" width="12.88" height="5.29" rx=".21" ry=".21"/>
      <rect id="Server_Part-6" data-name="Server Part" class="cls-59" x="7.64" y="17.62" width=".81" height="4.33" rx=".18" ry=".18"/>
      <rect id="Server_Part-7" data-name="Server Part" class="cls-60" x="8.81" y="17.62" width=".81" height="4.33" rx=".18" ry=".18"/>
      <rect id="Server_Part-8" data-name="Server Part" class="cls-27" x="9.97" y="17.62" width=".81" height="4.33" rx=".18" ry=".18"/>
      <line id="Server_Part-9" data-name="Server Part" class="cls-13" x1="18.4" y1="19.78" x2="18.4" y2="19.78"/>
      <line id="Server_Part-10" data-name="Server Part" class="cls-8" x1="17.02" y1="19.78" x2="17.02" y2="19.78"/>
      <line id="Server_Part-11" data-name="Server Part" class="cls-12" x1="15.65" y1="19.78" x2="15.65" y2="19.78"/>
      <rect id="Server_Part-12" data-name="Server Part" class="cls-22" x="11.11" y="17.6" width=".81" height="4.33" rx=".18" ry=".18"/>
      <rect id="Server_Part-13" data-name="Server Part" class="cls-53" x="7.64" y="23.54" width=".81" height="4.33" rx=".18" ry=".18"/>
      <rect id="Server_Part-14" data-name="Server Part" class="cls-28" x="8.81" y="23.54" width=".81" height="4.33" rx=".18" ry=".18"/>
      <rect id="Server_Part-15" data-name="Server Part" class="cls-40" x="9.97" y="23.54" width=".81" height="4.33" rx=".18" ry=".18"/>
      <line id="Server_Part-16" data-name="Server Part" class="cls-15" x1="18.4" y1="25.71" x2="18.4" y2="25.71"/>
      <line id="Server_Part-17" data-name="Server Part" class="cls-16" x1="17.02" y1="25.71" x2="17.02" y2="25.71"/>
      <line id="Server_Part-18" data-name="Server Part" class="cls-6" x1="15.65" y1="25.71" x2="15.65" y2="25.71"/>
      <rect id="Server_Part-19" data-name="Server Part" class="cls-41" x="11.11" y="23.52" width=".81" height="4.33" rx=".18" ry=".18"/>
      <rect id="Server_Part-20" data-name="Server Part" class="cls-61" x="7.64" y="29.45" width=".81" height="4.33" rx=".18" ry=".18"/>
      <rect id="Server_Part-21" data-name="Server Part" class="cls-51" x="8.81" y="29.45" width=".81" height="4.33" rx=".18" ry=".18"/>
      <rect id="Server_Part-22" data-name="Server Part" class="cls-26" x="9.97" y="29.45" width=".81" height="4.33" rx=".18" ry=".18"/>
      <line id="Server_Part-23" data-name="Server Part" class="cls-3" x1="18.4" y1="31.62" x2="18.4" y2="31.62"/>
      <line id="Server_Part-24" data-name="Server Part" class="cls-10" x1="17.02" y1="31.62" x2="17.02" y2="31.62"/>
      <line id="Server_Part-25" data-name="Server Part" class="cls-11" x1="15.65" y1="31.62" x2="15.65" y2="31.62"/>
      <rect id="Server_Part-26" data-name="Server Part" class="cls-33" x="11.11" y="29.43" width=".81" height="4.33" rx=".18" ry=".18"/>
      <rect id="Server_Part-27" data-name="Server Part" class="cls-52" x="7.64" y="35.37" width=".81" height="4.33" rx=".18" ry=".18"/>
      <rect id="Server_Part-28" data-name="Server Part" class="cls-45" x="8.81" y="35.37" width=".81" height="4.33" rx=".18" ry=".18"/>
      <rect id="Server_Part-29" data-name="Server Part" class="cls-31" x="9.97" y="35.37" width=".81" height="4.33" rx=".18" ry=".18"/>
      <line id="Server_Part-30" data-name="Server Part" class="cls-14" x1="18.4" y1="37.53" x2="18.4" y2="37.53"/>
      <line id="Server_Part-31" data-name="Server Part" class="cls-17" x1="17.02" y1="37.53" x2="17.02" y2="37.53"/>
      <line id="Server_Part-32" data-name="Server Part" class="cls-4" x1="15.65" y1="37.53" x2="15.65" y2="37.53"/>
      <rect id="Server_Part-33" data-name="Server Part" class="cls-36" x="11.11" y="35.35" width=".81" height="4.33" rx=".18" ry=".18"/>
      <rect id="PC_Part" data-name="PC Part" class="cls-24" x="22.43" y="23.54" width="19.96" height="15.12" rx=".64" ry=".64"/>
      <path id="PC_Part-2" data-name="PC Part" class="cls-39" d="M22.43,36.54h19.96v1.48c0,.35-.29,.64-.64,.64H23.07c-.35,0-.64-.29-.64-.64v-1.48h0Z"/>
      <path id="PC_Part-3" data-name="PC Part" class="cls-48" d="M34.43,39.71v-1.05h-4.1v1.05c0,.49-.27,.94-.7,1.16h0c-.16,.08-.1,.32,.08,.32h5.35c.18,0,.24-.24,.08-.32h0c-.43-.23-.7-.68-.7-1.16Z"/>
      <path id="Cloud_Part" data-name="Cloud Part" class="cls-21" d="M36.69,6.56c-.27,0-.53,.07-.76,.19-.07-.94-.8-1.68-1.7-1.68-.09,0-.19,.01-.28,.03-.31-1.01-1.19-1.75-2.24-1.75s-1.94,.74-2.24,1.75c-.11-.02-.21-.03-.32-.03-.88,0-1.61,.72-1.7,1.63-.21-.1-.44-.15-.68-.15-.95,0-1.72,.82-1.72,1.84s.77,1.84,1.72,1.84h9.92c.95,0,1.72-.82,1.72-1.84s-.77-1.84-1.72-1.84Z"/>
      <path id="Cloud_Part-2" data-name="Cloud Part" class="cls-2" d="M31.47,6.89l-.72-.84c-.07-.09-.21-.09-.28,0l-.72,.84c-.1,.12-.02,.31,.14,.31h.14s.06,.03,.06,.06v1.67c0,.1,.08,.19,.19,.19h.67c.1,0,.19-.08,.19-.19v-1.67s.03-.06,.06-.06h.14c.16,0,.24-.19,.14-.31Z"/>
      <path id="Cloud_Part-3" data-name="Cloud Part" class="cls-2" d="M32,8.12l.72,.84c.07,.09,.21,.09,.28,0l.72-.84c.1-.12,.02-.31-.14-.31h-.12s-.09-.04-.09-.09v-1.65c0-.1-.08-.19-.19-.19h-.67c-.1,0-.19,.08-.19,.19v1.67s-.03,.06-.06,.06h-.14c-.16,0-.24,.19-.14,.31Z"/>
      <path id="File_Part" data-name="File Part" class="cls-56" d="M27.31,15.37h0c0-.1-.08-.19-.19-.19h-2.72c-.1,0-.19,.08-.19,.19v5.07c0,.1,.08,.19,.19,.19h6.04c.1,0,.19-.08,.19-.19v-4.69c0-.1-.08-.19-.19-.19h-2.94c-.1,0-.19-.08-.19-.19Z"/>
      <rect id="File_Part-2" data-name="File Part" class="cls-44" x="24.48" y="15.91" width="5.85" height="4.71"/>
      <path id="File_Part-3" data-name="File Part" class="cls-58" d="M27.24,16.52h0c0,.16-.13,.29-.29,.29h-2.45c-.16,0-.29,.13-.29,.29v3.24c0,.16,.13,.29,.29,.29h5.84c.16,0,.29-.13,.29-.29v-3.81c0-.16-.13-.29-.29-.29h-2.8c-.16,0-.29,.13-.29,.29Z"/>
      <rect class="cls-20" x="23.79" y="25.22" width="17.06" height="9.66"/>
      <g id="Board_1" data-name="Board 1">
        <path id="Board_1_Part" data-name="Board 1 Part" class="cls-50" d="M43.1,22.93h-.37c.28,0,.51,.19,.51,.43v3.71c0,.24-.23,.43-.51,.43h.37c.28,0,.51-.19,.51-.43v-3.71c0-.24-.23-.43-.51-.43Z"/>
        <rect id="Board_1_Part-2" data-name="Board 1 Part" class="cls-57" x="37.49" y="22.93" width="5.85" height="4.58" rx=".55" ry=".55"/>
        <g id="Board_1_Part-3" data-name="Board 1 Part">
          <g id="Board_1_Part-4" data-name="Board 1 Part">
            <path id="Board_1_Part-5" data-name="Board 1 Part" class="cls-32" d="M40.07,26.12s-.01,0-.02,0c-.03-.01-.04-.04-.03-.07l.63-1.69s.04-.04,.07-.03c.03,.01,.04,.04,.03,.07l-.63,1.69s-.03,.04-.05,.04Z"/>
          </g>
        </g>
        <g id="Board_1_Part-6" data-name="Board 1 Part">
          <path id="Board_1_Part-7" data-name="Board 1 Part" class="cls-38" d="M39.76,25.69s-.01,0-.02,0l-.97-.4s-.03-.05,0-.06l.96-.42s.06,0,.07,.03c.01,.03,0,.06-.03,.07l-.72,.31s-.03,.05,0,.06l.73,.3s.04,.05,.03,.07c0,.02-.03,.03-.05,.03Z"/>
        </g>
        <g id="Board_1_Part-8" data-name="Board 1 Part">
          <path id="Board_1_Part-9" data-name="Board 1 Part" class="cls-35" d="M40.96,25.69s.01,0,.02,0l.97-.4s.03-.05,0-.06l-.96-.42s-.06,0-.07,.03c-.01,.03,0,.06,.03,.07l.72,.31s.03,.05,0,.06l-.73,.3s-.04,.05-.03,.07c0,.02,.03,.03,.05,.03Z"/>
        </g>
      </g>
      <path id="Board_2_Part" data-name="Board 2 Part" class="cls-50" d="M41.66,31.66h-.47c.36,0,.65,.27,.65,.61v5.22c0,.34-.29,.61-.65,.61h.47c.36,0,.65-.27,.65-.61v-5.22c0-.34-.29-.61-.65-.61Z"/>
      <rect id="Board_2_Part-2" data-name="Board 2 Part" class="cls-1" x="34.5" y="31.66" width="7.47" height="6.44" rx=".55" ry=".55"/>
      <path id="Board_2_Part-3" data-name="Board 2 Part" class="cls-25" d="M36.31,35.97l1.44-1.72s.12-.05,.16,0l.82,.98c.04,.05,.12,.05,.16,0l.27-.37c.04-.06,.13-.06,.17,0l.76,1.16c.04,.07,0,.16-.09,.16l-3.61-.04c-.09,0-.13-.1-.08-.17Z"/>
      <circle id="Board_2_Part-4" data-name="Board 2 Part" class="cls-30" cx="39.33" cy="33.83" r=".39"/>
      <path id="Board_3_Part" data-name="Board 3 Part" class="cls-50" d="M27.04,24.7h-.47c.36,0,.65,.29,.65,.65v5.56c0,.36-.29,.65-.65,.65,.47,.05,1.13-.04,1.12-.65,0,0,0-5.56,0-5.56,0-.36-.29-.65-.65-.65Z"/>
      <rect id="Board_3_Part-2" data-name="Board 3 Part" class="cls-43" x="19.88" y="24.7" width="7.47" height="6.86" rx=".55" ry=".55"/>
      <path id="Board_3_Part-3" data-name="Board 3 Part" class="cls-18" d="M25.35,28.13c.03,2.26-3.51,2.26-3.48,0-.03-2.26,3.51-2.26,3.48,0Z"/>
      <path id="Board_3_Part-4" data-name="Board 3 Part" class="cls-23" d="M23.27,27.74c0,1.11-.16,1.2,.87,.53,.28-.19-.63-.52-.69-.62-.08-.05-.18,0-.18,.1Z"/>
    </g>
  </g>
</svg>