<?xml version="1.0" encoding="UTF-8"?>
<svg id="Layer_2" data-name="Layer 2" xmlns="http://www.w3.org/2000/svg" xmlns:xlink="http://www.w3.org/1999/xlink" viewBox="0 0 47.35 44.53">
  <defs>
    <style>
      .cls-1 {
        fill: #101e36;
      }

      .cls-2 {
        fill: url(#linear-gradient-2);
      }

      .cls-3, .cls-4, .cls-5, .cls-6, .cls-7 {
        fill: #fff;
      }

      .cls-8 {
        fill: #605ca9;
      }

      .cls-9 {
        stroke: #101e36;
        stroke-width: .16px;
      }

      .cls-9, .cls-10, .cls-11, .cls-12, .cls-13 {
        fill: none;
      }

      .cls-9, .cls-11 {
        stroke-miterlimit: 10;
      }

      .cls-4 {
        opacity: .54;
      }

      .cls-5 {
        font-size: 4.05px;
      }

      .cls-5, .cls-7 {
        font-family: MontserratThin-SemiBold, 'Montserrat Thin';
        font-variation-settings: 'wght' 600;
        font-weight: 600;
      }

      .cls-14 {
        fill: url(#linear-gradient-14);
      }

      .cls-10, .cls-6, .cls-12, .cls-13 {
        stroke-linecap: round;
        stroke-linejoin: round;
      }

      .cls-10, .cls-13 {
        stroke: #605ca9;
        stroke-width: .11px;
      }

      .cls-15 {
        fill: url(#linear-gradient-6);
      }

      .cls-16 {
        fill: #bdc4e4;
      }

      .cls-17 {
        fill: #d0def2;
      }

      .cls-18 {
        fill: url(#linear-gradient-11);
      }

      .cls-11 {
        stroke: #dddef0;
        stroke-width: .11px;
      }

      .cls-19 {
        fill: url(#linear-gradient-10);
      }

      .cls-6 {
        font-family: Montserrat-Light, 'Montserrat Light';
        font-size: 1.87px;
        font-weight: 300;
        stroke-width: .11px;
      }

      .cls-6, .cls-12 {
        stroke: #fff;
      }

      .cls-12 {
        stroke-width: .96px;
      }

      .cls-20 {
        fill: url(#linear-gradient-5);
      }

      .cls-21 {
        fill: url(#linear-gradient-7);
      }

      .cls-7 {
        font-size: 5.26px;
      }

      .cls-22 {
        fill: #fab7a6;
      }

      .cls-23 {
        fill: url(#linear-gradient-9);
      }

      .cls-24 {
        fill: #dddef0;
      }

      .cls-25 {
        fill: url(#linear-gradient-3);
      }

      .cls-26 {
        fill: url(#linear-gradient);
      }

      .cls-13 {
        stroke-dasharray: 0 0 .32 .64;
      }

      .cls-27 {
        fill: url(#linear-gradient-4);
      }

      .cls-28 {
        fill: #e9f3fb;
      }

      .cls-29 {
        fill: url(#linear-gradient-8);
      }

      .cls-30 {
        fill: url(#linear-gradient-12);
      }

      .cls-31 {
        fill: url(#linear-gradient-13);
      }
    </style>
    <linearGradient id="linear-gradient" x1="40.88" y1="2.7" x2="47.35" y2="2.7" gradientUnits="userSpaceOnUse">
      <stop offset="0" stop-color="#486ab3"/>
      <stop offset="1" stop-color="#292b74"/>
    </linearGradient>
    <linearGradient id="linear-gradient-2" x1="9.31" y1="2.89" x2="26.22" y2="2.89" gradientTransform="translate(35.53 5.78) rotate(-180)" xlink:href="#linear-gradient"/>
    <linearGradient id="linear-gradient-3" x1="11.36" y1="29.49" x2="43.6" y2="29.49" xlink:href="#linear-gradient"/>
    <linearGradient id="linear-gradient-4" x1="11.36" y1="39.02" x2="43.52" y2="39.02" xlink:href="#linear-gradient"/>
    <linearGradient id="linear-gradient-5" x1="21.71" y1="29.11" x2="40.08" y2="29.11" xlink:href="#linear-gradient"/>
    <linearGradient id="linear-gradient-6" x1="15.4" y1="29.11" x2="20.74" y2="29.11" xlink:href="#linear-gradient"/>
    <linearGradient id="linear-gradient-7" x1="15.4" y1="22.07" x2="40.08" y2="22.07" xlink:href="#linear-gradient"/>
    <linearGradient id="linear-gradient-8" x1="12.46" y1="13.83" x2="32.31" y2="13.83" xlink:href="#linear-gradient"/>
    <linearGradient id="linear-gradient-9" x1="30.56" y1="12.95" x2="42.77" y2="12.95" xlink:href="#linear-gradient"/>
    <linearGradient id="linear-gradient-10" x1=".65" y1="23.42" x2="4.79" y2="23.42" xlink:href="#linear-gradient"/>
    <linearGradient id="linear-gradient-11" x1="3.16" y1="23.21" x2="8.96" y2="23.21" xlink:href="#linear-gradient"/>
    <linearGradient id="linear-gradient-12" x1="7.59" y1="17.52" x2="14.8" y2="17.52" xlink:href="#linear-gradient"/>
    <linearGradient id="linear-gradient-13" x1="42.04" y1="34.81" x2="47.21" y2="34.81" xlink:href="#linear-gradient"/>
    <linearGradient id="linear-gradient-14" x1="40.85" y1="35.89" x2="45.43" y2="35.89" xlink:href="#linear-gradient"/>
  </defs>
  <g id="Layer_1-2" data-name="Layer 1">
    <g>
      <g>
        <path class="cls-24" d="M6.28,6.69v-.9c0-.1-.08-.19-.19-.19h-.2c-.08,0-.15-.05-.18-.13-.04-.12-.09-.24-.15-.36-.04-.07-.02-.16,.03-.22l.14-.14c.07-.07,.07-.19,0-.26l-.64-.64c-.07-.07-.19-.07-.26,0l-.14,.14c-.06,.06-.14,.07-.22,.03-.12-.06-.23-.11-.36-.15-.08-.02-.13-.1-.13-.18v-.2c0-.1-.08-.19-.19-.19h-.9c-.1,0-.19,.08-.19,.19v.2c0,.08-.05,.15-.13,.18-.12,.04-.24,.09-.36,.15-.07,.04-.16,.02-.22-.03l-.14-.14c-.07-.07-.19-.07-.26,0l-.64,.64c-.07,.07-.07,.19,0,.26l.14,.14c.06,.06,.07,.14,.03,.22-.06,.12-.11,.23-.15,.36-.02,.08-.1,.13-.18,.13h-.2c-.1,0-.19,.08-.19,.19v.9c0,.1,.08,.19,.19,.19h.2c.08,0,.15,.05,.18,.13,.04,.12,.09,.24,.15,.36,.04,.07,.02,.16-.03,.22l-.14,.14c-.07,.07-.07,.19,0,.26l.64,.64c.07,.07,.19,.07,.26,0l.14-.14c.06-.06,.14-.07,.22-.03,.11,.06,.23,.11,.36,.15,.08,.02,.13,.1,.13,.18v.2c0,.1,.08,.19,.19,.19h.9c.1,0,.19-.08,.19-.19v-.2c0-.08,.05-.15,.13-.18,.12-.04,.24-.09,.36-.15,.07-.04,.16-.02,.22,.03l.14,.14c.07,.07,.19,.07,.26,0l.64-.64c.07-.07,.07-.19,0-.26l-.14-.14c-.06-.06-.07-.14-.03-.22,.06-.12,.11-.23,.15-.36,.02-.08,.1-.13,.18-.13h.2c.1,0,.19-.08,.19-.19Zm-2.09,.38h0c-.22,.22-.51,.34-.82,.34h0c-.31,0-.6-.12-.82-.34h0c-.22-.22-.34-.51-.34-.82h0c0-.31,.12-.6,.34-.82h0c.22-.22,.51-.34,.82-.34h0c.31,0,.6,.12,.82,.34h0c.22,.22,.34,.51,.34,.82h0c0,.31-.12,.6-.34,.82Z"/>
        <path class="cls-11" d="M7.88,1.84v-.37c0-.09-.07-.16-.16-.16h0c-.07,0-.13-.04-.15-.11-.02-.04-.03-.08-.05-.13-.03-.06-.02-.14,.03-.18h0c.06-.07,.06-.17,0-.24l-.26-.26c-.06-.06-.17-.06-.23,0h0c-.05,.05-.12,.07-.19,.04-.04-.02-.08-.04-.13-.05-.06-.02-.11-.09-.11-.15h0c0-.1-.07-.17-.16-.17h-.37c-.09,0-.16,.07-.16,.16h0c0,.07-.04,.14-.11,.16-.04,.02-.08,.03-.13,.05-.06,.03-.14,.02-.18-.03h0c-.06-.07-.17-.07-.23,0l-.26,.26c-.06,.06-.06,.17,0,.23h0c.05,.05,.06,.13,.03,.19-.02,.04-.04,.08-.05,.13-.02,.06-.09,.11-.15,.11h0c-.09,0-.17,.07-.17,.16v.37c0,.09,.07,.16,.16,.16h0c.07,0,.13,.04,.15,.11,.02,.04,.03,.08,.05,.13,.03,.06,.02,.14-.03,.18h0c-.06,.07-.06,.17,0,.24l.26,.26c.06,.06,.17,.06,.23,0h0c.05-.05,.12-.07,.19-.04,.04,.02,.08,.04,.13,.05,.06,.02,.11,.09,.11,.15h0c0,.1,.07,.17,.16,.17h.37c.09,0,.16-.07,.16-.16h0c0-.07,.04-.14,.11-.16,.04-.02,.08-.03,.13-.05,.06-.03,.14-.02,.18,.03h0c.06,.07,.17,.07,.23,0l.26-.26c.06-.06,.06-.17,0-.23h0c-.05-.05-.06-.13-.03-.19,.02-.04,.04-.08,.05-.13,.02-.06,.09-.11,.15-.11h0c.09,0,.17-.07,.17-.16Zm-1.15,.27h0c-.12,.12-.28,.19-.45,.19h0c-.17,0-.33-.07-.45-.19h0c-.12-.12-.19-.28-.19-.45h0c0-.17,.07-.33,.19-.45h0c.12-.12,.28-.19,.45-.19h0c.17,0,.33,.07,.45,.19h0c.12,.12,.19,.28,.19,.45h0c0,.17-.07,.33-.19,.45Z"/>
      </g>
      <path class="cls-26" d="M46.53,5.35h-4.82c-.65,0-1.04-.72-.68-1.27l2.41-3.67c.32-.49,1.05-.49,1.37,0l2.41,3.67c.36,.54-.03,1.27-.68,1.27Z"/>
      <text class="cls-5" transform="translate(43.55 4.54)"><tspan x="0" y="0">!</tspan></text>
      <g>
        <line class="cls-10" x1="8.38" y1="10.69" x2="8.22" y2="10.69"/>
        <path class="cls-13" d="M7.57,10.69H1.12c-.26,0-.47,.21-.47,.47v9.89"/>
        <line class="cls-10" x1=".65" y1="21.37" x2=".65" y2="21.53"/>
      </g>
      <g>
        <rect class="cls-24" x="9.31" y="1.84" width="16.91" height="11.96" rx=".77" ry=".77" transform="translate(35.53 15.64) rotate(180)"/>
        <rect class="cls-4" x="10.82" y="5.18" width="13.89" height="5.31" rx=".46" ry=".46" transform="translate(35.53 15.68) rotate(180)"/>
        <path class="cls-2" d="M9.31,1.84H26.22v1.33c0,.42-.34,.77-.77,.77H10.08c-.42,0-.77-.34-.77-.77V1.84h0Z" transform="translate(35.53 5.78) rotate(180)"/>
        <g>
          <path class="cls-3" d="M13.6,2.96c0,.27,.22,.48,.48,.48s.48-.22,.48-.48-.22-.48-.48-.48-.48,.22-.48,.48Z"/>
          <path class="cls-28" d="M11.95,2.96c0,.27,.22,.48,.48,.48s.48-.22,.48-.48-.22-.48-.48-.48-.48,.22-.48,.48Z"/>
          <path class="cls-17" d="M10.29,2.96c0,.27,.22,.48,.48,.48s.48-.22,.48-.48-.22-.48-.48-.48-.48,.22-.48,.48Z"/>
        </g>
      </g>
      <polygon class="cls-1" points="14.44 8.96 13.75 11.03 13.3 10.58 12.42 11.46 11.95 10.98 12.82 10.1 12.37 9.65 14.44 8.96"/>
      <path class="cls-8" d="M33.52,40.75h-7.76c-.2,1.89-2.22,2.93-3.53,3.4-.17,.06-.18,.3,0,.3h8.43s.02,0,.03,0c.27-.06,3.66-.93,2.83-3.7Z"/>
      <path class="cls-16" d="M32.73,40.75h-9.59c-.46,1.89-2.62,2.93-4,3.4-.18,.06-.22,.3-.05,.3h9.75s.02,0,.03,0c.28-.05,4.58-.91,3.85-3.7Z"/>
      <path class="cls-8" d="M43.07,41.38H12.82c-.47,0-1.42-.38-1.42-.85l.67-21.94c0-.47,.39-.85,.86-.85h29.95c.47,0,1.15,.51,1.15,.98l-.09,21.81c0,.47-.39,.85-.86,.85Z"/>
      <path class="cls-25" d="M42.65,41.25H12.21c-.47,0-.85-.38-.85-.85l.09-21.81c0-.47,.39-.85,.86-.85h30.44c.47,0,.85,.38,.85,.85l-.09,21.81c0,.47-.39,.85-.86,.85Z"/>
      <path class="cls-27" d="M42.65,41.25H12.21c-.47,0-.85-.38-.85-.85l.02-3.59H43.52l-.02,3.59c0,.47-.39,.85-.86,.85Z"/>
      <polygon class="cls-3" points="12.5 35.77 12.57 18.85 42.48 18.85 42.41 35.77 12.5 35.77"/>
      <rect class="cls-20" x="21.71" y="23.8" width="18.37" height="10.62" rx=".89" ry=".89"/>
      <rect class="cls-15" x="15.4" y="23.8" width="5.34" height="10.62" rx=".48" ry=".48"/>
      <path class="cls-21" d="M39.22,21.21H16.26c-.47,0-.86,.38-.86,.86h0c0,.47,.38,.86,.86,.86h22.96c.47,0,.86-.38,.86-.86h0c0-.47-.38-.86-.86-.86Z"/>
      <g>
        <path class="cls-29" d="M14.18,11.99h18.13v3.67H14.18c-.94,0-1.71-.77-1.71-1.71v-.25c0-.94,.77-1.71,1.71-1.71Z"/>
        <text class="cls-6" transform="translate(18.48 14.53)"><tspan x="0" y="0">https://</tspan></text>
      </g>
      <g>
        <path class="cls-16" d="M36.66,21.46c-2.17-.24-4.16-1.31-5.55-3.02-1.22-1.5-1.85-3.39-1.85-5.33V6.89s0-.01,.01-.02c2.62-.32,5.16-1.24,7.37-2.69,0,0,.01,0,.02,0,2.22,1.45,4.75,2.37,7.37,2.69,0,0,.01,0,.01,.02v6.23c0,1.93-.63,3.83-1.85,5.33-1.39,1.71-3.38,2.79-5.55,3.02,0,0,0,0,0,0Z"/>
        <path class="cls-23" d="M36.67,20.21s0,0,0,0c-1.63-.22-3.14-1-4.25-2.22-1.19-1.3-1.85-2.99-1.85-4.75v-5.24s0-.01,.01-.01c2.14-.42,4.21-1.19,6.09-2.29,0,0,.01,0,.02,0,1.88,1.09,3.95,1.87,6.09,2.29,0,0,.01,0,.01,.01v5.24c0,1.76-.66,3.45-1.85,4.75-1.12,1.22-2.62,2-4.26,2.22Z"/>
      </g>
      <polyline class="cls-12" points="34.34 16.02 36.21 17.55 39.6 14.59"/>
      <text class="cls-7" transform="translate(31.87 13)"><tspan x="0" y="0">SSL</tspan></text>
      <g>
        <path class="cls-22" d="M2.85,27.26l.57,.26s.19,.44,.28,.54c.09,.1,.24,.33,.14,.64-.1,.3-.33,.87-.33,.87,0,0-.39-.6-.43-.87-.04-.27-.04-.48-.13-.69s-.1-.75-.1-.75Z"/>
        <path class="cls-19" d="M3.4,18.6c-.52,.37-2.06,3.62-2.65,5.01-.12,.27-.15,1.04,.04,1.45,.58,1.22,1.87,3.17,1.87,3.17,0,0,.51-.22,.77-.72l-1.08-2.96s1.89-2.08,2.31-3.03c.66-1.49-1.26-2.93-1.26-2.93Z"/>
        <path class="cls-22" d="M13.98,15.23s.28-.67,.34-.8c.06-.13,.41-.57,.52-.64,.12-.07,.38-.13,.4-.09,.01,.03,.15,.1,.19,.2,.05,.11,.04,.2,.16,.44,.07,.16-.1,.4-.24,.57-.14,.17-.2,.26-.4,.36-.2,.1-.4,.33-.42,.36l-.55-.4Z"/>
        <path class="cls-1" d="M3.28,43.55v.88h1.23s-.02-.35-.4-.47v-.42h-.83Z"/>
        <path class="cls-1" d="M7.52,43.55v.88h1.13s-.1-.35-.42-.44v-.44h-.71Z"/>
        <path class="cls-1" d="M3.89,26.64s-.62,2.81-.64,5.83c-.01,3.02-.04,11.08-.04,11.08h1.09s1.22-7.76,1.68-9.7c.46-1.94,1.12-7.62,1.12-7.62l-3.21,.41Z"/>
        <path class="cls-1" d="M5.95,29.72s.49,4.6,.54,5.51c.05,.91,.88,8.31,.88,8.31,0,0,1.01,.03,1.01,0s.35-7.86,.49-10.09c.14-2.23-.17-4.44-.17-4.8,0-.71-.63-2.45-.63-2.45l-1.36,.43-.76,3.09Z"/>
        <path class="cls-22" d="M6.36,13.48c.26,.07,.45,.41,.45,.41,0,0,.21,.39,.35,.69,.15,.3,.49,.47,.48,.56,0,.09-.19,.15-.15,.27,.04,.12,.09,.47,.16,.7,.07,.23-.15,.34-.36,.42-.21,.08-.48,.22-.5,.33-.02,.11,.22,1.16,.22,1.16l-2.76,.28s.99-.48,.99-.56c0-.19-.03-.56-.13-.87-.15-.44-.33-.97-.33-.97,0,0-.19-.99,.29-1.56,.48-.56,1.28-.85,1.28-.85Z"/>
        <path class="cls-1" d="M6.08,14.11s.5-.18,.73-.35c.23-.17,.21-.36,.13-.42-.17-.13-.59-.09-1.14-.16-.55-.07-1.46,.21-1.57,.99,0,0-.54,.44-.42,.93,.11,.49,.27,.65,.6,.91,.33,.26,.71,.85,.71,.85,0,0,.29-.07,.57-.17,.28-.1,.42-.6,.47-.83,0,0-.51-.19-.5-.54,0-.35,.42-.26,.57-.19,.12,.06,.31,.3,.31,.3l.19-.04s-.19-.24-.25-.48c-.03-.09-.01-.38-.04-.46-.1-.28-.35-.34-.35-.34Z"/>
        <path class="cls-18" d="M4.82,17.97s.27,.11,.8,.04c.92-.12,1.21-.28,1.21-.28l1.94,.03s-.04,2.7,0,3.82c.04,1.11,.16,6,.2,6.37,0,0-.48,.81-2.94,.74-1.43-.04-2.46-.45-2.46-.45,0,0-.3-4.25-.35-5.22-.05-.97-.14-3.96,.19-4.41,.17-.23,1.42-.63,1.42-.63Z"/>
        <path class="cls-30" d="M8.12,17.76s-1.36,2.15,.29,2.21c1.55,.06,3.75-.51,3.75-.51l2.65-3.46s-.48-.91-.82-.92l-2.54,2.57s-1.18,.15-3.32,.11Z"/>
        <path class="cls-22" d="M14.88,13.9s-.04-.11-.04-.11c0,0,.27-.21,.48-.38,.21-.17,.38-.39,.5-.44s.15,.04,.12,.11-.53,.57-.58,.7,0,.39,0,.39l-.39-.13-.08-.15Z"/>
      </g>
      <path class="cls-3" d="M33.18,28.18h-.35v-.94c0-1.05-.85-1.9-1.9-1.9s-1.9,.85-1.9,1.9v.94h-.41c-.26,0-.47,.21-.47,.47v1.47c0,1.52,1.23,2.76,2.76,2.76h0c1.52,0,2.76-1.23,2.76-2.76v-1.47c0-.26-.21-.47-.47-.47Zm-3.55-.94c0-.71,.58-1.3,1.3-1.3s1.3,.58,1.3,1.3v.94h-2.59v-.94Zm1.57,3.19v.88c0,.15-.12,.26-.26,.26h-.07c-.15,0-.26-.12-.26-.26v-.88c-.24-.12-.39-.38-.37-.67,.03-.31,.28-.56,.59-.6,.4-.04,.75,.27,.75,.67,0,.26-.15,.49-.37,.6Z"/>
      <g>
        <path class="cls-31" d="M44.16,39.7s-2.25-2.26-2.12-3.6,1.07-.56,1.07-.56c0,0-.74-.92-.33-1.97,.41-1.05,1.54-.4,1.54-.4,0,0-.22-2.26,1.18-3.06,1.36-.77,1.75,.99,1.29,2.31-.36,1.01-.65,1.34-.65,1.34,0,0,1.04-.13,1.07,.78,.04,1.22-1.58,1.66-1.58,1.66,0,0,1.33-.17,1.35,.76,.02,.93-2.82,2.74-2.82,2.74Z"/>
        <path class="cls-9" d="M45.39,32.41s-.87,3.72-1.29,8.58"/>
        <path class="cls-14" d="M44.16,39.7s1.49-1.84,1.23-2.93c-.25-1.09-.92-.35-.92-.35,0,0,.5-.84,.05-1.67-.45-.83-1.29-.17-1.29-.17,0,0-.08-1.9-1.3-2.41-1.18-.49-1.3,1.01-.78,2.05,.4,.8,.68,1.04,.68,1.04,0,0-.86,0-.78,.76,.1,1.02,1.46,1.21,1.46,1.21,0,0-1.09,0-1.01,.77s2.66,1.69,2.66,1.69Z"/>
        <path class="cls-9" d="M42.28,34.07s1.12,2.99,2.01,6.97"/>
        <rect class="cls-16" x="41.9" y="39.02" width="3.59" height="5.43"/>
      </g>
      <line class="cls-9" x1="47.14" y1="44.45" y2="44.45"/>
      <g>
        <rect class="cls-16" x="19.51" y=".76" width="9.3" height="5.17" rx=".77" ry=".77"/>
        <path class="cls-3" d="M24.04,2.56h-2.97c-.12,0-.23-.1-.23-.23h0c0-.12,.1-.23,.23-.23h2.97c.12,0,.23,.1,.23,.23h0c0,.12-.1,.23-.23,.23Z"/>
        <path class="cls-3" d="M27.05,3.33h-6.12s-.08-.04-.08-.08h0s.04-.08,.08-.08h6.12s.08,.04,.08,.08h0s-.04,.08-.08,.08Z"/>
        <path class="cls-3" d="M27.05,3.87h-6.12s-.08-.04-.08-.08h0s.04-.08,.08-.08h6.12s.08,.04,.08,.08h0s-.04,.08-.08,.08Z"/>
        <rect class="cls-3" x="20.85" y="4.25" width="3.71" height=".16" rx=".06" ry=".06"/>
      </g>
    </g>
  </g>
</svg>