<?xml version="1.0" encoding="UTF-8"?>
<svg id="Layer_2" data-name="Layer 2" xmlns="http://www.w3.org/2000/svg" xmlns:xlink="http://www.w3.org/1999/xlink" viewBox="0 0 96 90.61">
  <defs>
    <style>
      .cls-1 {
        fill: url(#linear-gradient-12);
      }

      .cls-1, .cls-2, .cls-3, .cls-4, .cls-5, .cls-6, .cls-7, .cls-8, .cls-9, .cls-10 {
        opacity: .5;
      }

      .cls-11, .cls-12, .cls-13, .cls-14 {
        fill: #fff;
      }

      .cls-15 {
        fill: url(#linear-gradient-17);
      }

      .cls-16 {
        fill: #455b64;
      }

      .cls-2 {
        fill: url(#linear-gradient-18);
      }

      .cls-17 {
        fill: #74b2e0;
      }

      .cls-18 {
        stroke: url(#linear-gradient-4);
      }

      .cls-18, .cls-19, .cls-20, .cls-21 {
        fill: none;
        stroke-linecap: round;
        stroke-linejoin: round;
        stroke-width: .21px;
      }

      .cls-3 {
        fill: url(#linear-gradient-8);
      }

      .cls-22 {
        fill: #37474f;
      }

      .cls-23 {
        fill: url(#linear-gradient-15);
      }

      .cls-4 {
        fill: url(#linear-gradient-19);
      }

      .cls-19 {
        stroke: url(#linear-gradient);
      }

      .cls-24 {
        fill: #f5f5f5;
      }

      .cls-20 {
        stroke: url(#linear-gradient-3);
      }

      .cls-5 {
        fill: url(#linear-gradient-25);
      }

      .cls-25 {
        fill: url(#linear-gradient-14);
      }

      .cls-26 {
        fill: url(#linear-gradient-20);
      }

      .cls-27 {
        fill: url(#linear-gradient-6);
      }

      .cls-6 {
        fill: url(#linear-gradient-13);
      }

      .cls-28 {
        opacity: .2;
      }

      .cls-29 {
        fill: url(#linear-gradient-32);
      }

      .cls-30 {
        fill: url(#linear-gradient-11);
      }

      .cls-12, .cls-31 {
        opacity: .8;
      }

      .cls-7 {
        fill: url(#linear-gradient-24);
      }

      .cls-32 {
        fill: url(#linear-gradient-10);
      }

      .cls-33 {
        fill: #e6e6e6;
      }

      .cls-8 {
        fill: url(#linear-gradient-9);
      }

      .cls-34 {
        opacity: .4;
      }

      .cls-35 {
        fill: url(#linear-gradient-16);
      }

      .cls-36 {
        opacity: .75;
      }

      .cls-37 {
        fill: url(#linear-gradient-31);
      }

      .cls-9 {
        fill: url(#linear-gradient-28);
      }

      .cls-31, .cls-38 {
        fill: #58c2b1;
      }

      .cls-39 {
        fill: url(#linear-gradient-21);
      }

      .cls-40 {
        fill: url(#linear-gradient-34);
      }

      .cls-40, .cls-41 {
        opacity: .7;
      }

      .cls-42 {
        fill: url(#linear-gradient-5);
      }

      .cls-13 {
        opacity: .35;
      }

      .cls-14 {
        opacity: .15;
      }

      .cls-43 {
        fill: #fafbfb;
      }

      .cls-44 {
        fill: url(#linear-gradient-7);
      }

      .cls-10 {
        fill: url(#linear-gradient-29);
      }

      .cls-21 {
        stroke: url(#linear-gradient-2);
      }

      .cls-45 {
        fill: url(#linear-gradient-22);
      }

      .cls-46 {
        fill: url(#linear-gradient-27);
      }

      .cls-47 {
        fill: url(#linear-gradient-30);
      }

      .cls-41 {
        fill: url(#linear-gradient-33);
      }

      .cls-48 {
        fill: url(#linear-gradient-23);
      }

      .cls-49 {
        fill: #263238;
      }

      .cls-50 {
        fill: url(#linear-gradient-26);
      }
    </style>
    <linearGradient id="linear-gradient" x1="36.36" y1="67.64" x2="60.38" y2="67.64" gradientUnits="userSpaceOnUse">
      <stop offset="0" stop-color="#486ab2"/>
      <stop offset="1" stop-color="#292b74"/>
    </linearGradient>
    <linearGradient id="linear-gradient-2" x1="34.66" y1="66.48" x2="58.68" y2="66.48" xlink:href="#linear-gradient"/>
    <linearGradient id="linear-gradient-3" x1="32.96" y1="65.09" x2="57.05" y2="65.09" xlink:href="#linear-gradient"/>
    <linearGradient id="linear-gradient-4" x1="31.26" y1="63.61" x2="55.28" y2="63.61" xlink:href="#linear-gradient"/>
    <linearGradient id="linear-gradient-5" x1="52.05" y1="36.08" x2="71.21" y2="36.08" xlink:href="#linear-gradient"/>
    <linearGradient id="linear-gradient-6" x1="10.95" y1="67.96" x2="38.16" y2="67.96" xlink:href="#linear-gradient"/>
    <linearGradient id="linear-gradient-7" x1="10.95" y1="71.64" x2="24.56" y2="71.64" xlink:href="#linear-gradient"/>
    <linearGradient id="linear-gradient-8" x1="24.56" y1="73.7" x2="38.17" y2="73.7" xlink:href="#linear-gradient"/>
    <linearGradient id="linear-gradient-9" x1="10.95" y1="73.7" x2="24.56" y2="73.7" xlink:href="#linear-gradient"/>
    <linearGradient id="linear-gradient-10" x1="10.95" y1="62.06" x2="38.16" y2="62.06" xlink:href="#linear-gradient"/>
    <linearGradient id="linear-gradient-11" x1="10.95" y1="65.75" x2="24.56" y2="65.75" xlink:href="#linear-gradient"/>
    <linearGradient id="linear-gradient-12" x1="24.56" y1="67.96" x2="38.16" y2="67.96" xlink:href="#linear-gradient"/>
    <linearGradient id="linear-gradient-13" x1="10.95" y1="67.96" x2="24.56" y2="67.96" xlink:href="#linear-gradient"/>
    <linearGradient id="linear-gradient-14" x1="24.56" y1="70.9" x2="36.46" y2="70.9" xlink:href="#linear-gradient"/>
    <linearGradient id="linear-gradient-15" x1="11.8" y1="70.66" x2="24.56" y2="70.66" xlink:href="#linear-gradient"/>
    <linearGradient id="linear-gradient-16" x1="10.95" y1="56.17" x2="38.16" y2="56.17" xlink:href="#linear-gradient"/>
    <linearGradient id="linear-gradient-17" x1="10.95" y1="59.85" x2="24.56" y2="59.85" xlink:href="#linear-gradient"/>
    <linearGradient id="linear-gradient-18" x1="24.56" y1="62.06" x2="38.16" y2="62.06" xlink:href="#linear-gradient"/>
    <linearGradient id="linear-gradient-19" x1="10.95" y1="62.06" x2="24.56" y2="62.06" xlink:href="#linear-gradient"/>
    <linearGradient id="linear-gradient-20" x1="24.56" y1="65.01" x2="36.46" y2="65.01" xlink:href="#linear-gradient"/>
    <linearGradient id="linear-gradient-21" x1="11.8" y1="64.77" x2="24.56" y2="64.77" xlink:href="#linear-gradient"/>
    <linearGradient id="linear-gradient-22" x1="10.95" y1="50.28" x2="38.16" y2="50.28" xlink:href="#linear-gradient"/>
    <linearGradient id="linear-gradient-23" x1="10.95" y1="53.96" x2="24.56" y2="53.96" xlink:href="#linear-gradient"/>
    <linearGradient id="linear-gradient-24" x1="24.56" y1="56.17" x2="38.16" y2="56.17" xlink:href="#linear-gradient"/>
    <linearGradient id="linear-gradient-25" x1="10.95" y1="56.17" x2="24.56" y2="56.17" xlink:href="#linear-gradient"/>
    <linearGradient id="linear-gradient-26" x1="24.56" y1="59.12" x2="36.46" y2="59.12" xlink:href="#linear-gradient"/>
    <linearGradient id="linear-gradient-27" x1="11.8" y1="58.87" x2="24.56" y2="58.87" xlink:href="#linear-gradient"/>
    <linearGradient id="linear-gradient-28" x1="10.95" y1="46.44" x2="38.17" y2="46.44" xlink:href="#linear-gradient"/>
    <linearGradient id="linear-gradient-29" x1="24.55" y1="50.16" x2="38.16" y2="50.16" xlink:href="#linear-gradient"/>
    <linearGradient id="linear-gradient-30" x1="11.27" y1="44.39" x2="37.85" y2="44.39" xlink:href="#linear-gradient"/>
    <linearGradient id="linear-gradient-31" x1="24.56" y1="53.23" x2="36.46" y2="53.23" xlink:href="#linear-gradient"/>
    <linearGradient id="linear-gradient-32" x1="11.8" y1="52.98" x2="24.56" y2="52.98" xlink:href="#linear-gradient"/>
    <linearGradient id="linear-gradient-33" x1="6.52" y1="18.81" x2="41.93" y2="18.81" xlink:href="#linear-gradient"/>
    <linearGradient id="linear-gradient-34" x1="7.57" y1="18.81" x2="40.88" y2="18.81" xlink:href="#linear-gradient"/>
  </defs>
  <g id="Layer_1-2" data-name="Layer 1">
    <g>
      <ellipse id="Floor" class="cls-24" cx="48" cy="64.6" rx="48" ry="26.02"/>
      <path id="Shadow" class="cls-33" d="M39.61,72.39l-14.43,8.33c-.35,.2-.91,.2-1.25,0l-14.41-8.33c-.35-.2-.35-.52,0-.72l14.43-8.33c.35-.2,.91-.2,1.25,0l14.41,8.33c.35,.2,.35,.52,0,.72Z"/>
      <path class="cls-33" d="M67.08,70.18c-.38,0-.74-.09-1.03-.26l-14.73-8.5c-.45-.26-.73-.71-.73-1.18s.27-.92,.73-1.18l20.15-11.63c.3-.17,.65-.26,1.03-.26s.74,.09,1.03,.26l14.73,8.5c.45,.26,.73,.71,.73,1.18s-.27,.92-.73,1.18l-20.15,11.63c-.3,.17-.65,.26-1.03,.26Z"/>
      <g>
        <path class="cls-19" d="M36.46,69.91l6.35-3.67c.25-.14,.66-.14,.91,0l6.75,3.91c.25,.14,.66,.14,.91,0l8.9-5.14"/>
        <path class="cls-21" d="M34.76,68.94l8.05-4.65c.25-.14,.66-.14,.91,0l6.75,3.9c.25,.14,.66,.14,.91,0l7.2-4.16"/>
        <path class="cls-20" d="M56.95,63.01l-5.57,3.22c-.25,.14-.66,.14-.91,0l-6.75-3.9c-.25-.14-.66-.14-.91,0l-9.75,5.63"/>
        <path class="cls-18" d="M55.17,62.07l-3.8,2.19c-.25,.14-.66,.14-.91,0l-6.75-3.9c-.25-.14-.66-.14-.91,0l-11.45,6.61"/>
      </g>
      <g id="Laptop">
        <g id="Laptop-2" data-name="Laptop">
          <path class="cls-22" d="M50.75,59.38c0,.32,.24,.73,.54,.9l15.17,8.76c.3,.17,.78,.17,1.08,0l20.75-11.98c.3-.17,.54-.58,.54-.9,0-.32-.24-.73-.54-.9l-15.17-8.76c-.3-.17-.78-.17-1.08,0l-20.75,11.98c-.3,.17-.54,.58-.54,.9Z"/>
          <path class="cls-49" d="M67,67.99v1.17c-.2,0-.39-.04-.54-.13l-15.17-8.76c-.3-.17-.54-.58-.54-.9,0-.3,.21-.68,.49-.86-.24,.17-.22,.43,.06,.59l15.17,8.76c.15,.09,.35,.13,.54,.13Z"/>
          <path class="cls-16" d="M50.24,58.5c-.28-.16-.51-.57-.51-.92v-18.1c0-.35,.24-.76,.54-.94l20.75-11.98c.3-.17,.77-.18,1.05-.02,.28,.16,.51,.57,.51,.92v18.1c0,.35-.24,.76-.54,.94l-20.75,11.98c-.3,.17-.77,.18-1.05,.02Z"/>
          <path class="cls-49" d="M51.22,58.51c-.3,.14-.72,.14-.99-.01-.28-.16-.51-.57-.51-.92v-18.1c0-.17,.06-.36,.16-.53l1.02,.59h0c-.1,.17-.16,.36-.16,.53v18.1c0,.32,.21,.46,.48,.35Z"/>
          <path class="cls-22" d="M50.75,40.07v18.1c0,.35,.24,.49,.54,.31l20.75-11.98c.3-.17,.54-.59,.54-.94V27.46c0-.35-.24-.49-.54-.31l-20.75,11.98c-.3,.17-.54,.59-.54,.94Z"/>
          <path class="cls-16" d="M51.29,59.11l15.17,8.76c.3,.17,.78,.17,1.08,0l20.75-11.98c.3-.17,.3-.45,0-.63l-15.17-8.76c-.3-.17-.78-.17-1.08,0l-20.75,11.98c-.3,.17-.3,.45,0,.63Z"/>
          <path class="cls-43" d="M51.58,40.14l20.01-11.55c.18-.1,.32-.02,.32,.19v15.67c0,.21-.15,.46-.32,.56l-20.01,11.55c-.18,.1-.32,.02-.32-.19v-15.67c0-.21,.15-.46,.32-.56Z"/>
          <path class="cls-38" d="M53.05,58.64l19.26-11.12c.15-.09,.39-.09,.54,0l.99,.57c.15,.09,.15,.23,0,.31l-19.27,11.12c-.15,.09-.39,.09-.54,0l-.98-.57c-.15-.09-.15-.23,0-.31Z"/>
          <path class="cls-49" d="M53.05,58.64l19.26-11.12c.15-.09,.39-.09,.54,0l.99,.57c.15,.09,.15,.23,0,.31l-19.27,11.12c-.15,.09-.39,.09-.54,0l-.98-.57c-.15-.09-.15-.23,0-.31Z"/>
          <path class="cls-49" d="M55.59,60.1l19.26-11.12c.15-.09,.39-.09,.54,0l6.06,3.5c.15,.09,.15,.23,0,.31l-19.24,11.11c-.15,.09-.39,.09-.54,0l-6.08-3.49c-.15-.09-.15-.23,0-.31Z"/>
          <path class="cls-38" d="M72.85,53.99l.6-.35s.02-.04,0-.06l-.7-.4s-.07-.02-.1,0l-.6,.35s-.02,.04,0,.06l.7,.4s.07,.02,.1,0Zm-1.19-1.38l-.6,.35s-.02,.04,0,.06l.7,.4s.07,.02,.1,0l.6-.35s.02-.04,0-.06l-.7-.4s-.07-.02-.1,0Zm-1.95,1.12l-1.02,.59s-.02,.04,0,.06l.7,.4s.07,.02,.1,0l1.02-.59s.02-.04,0-.06l-.7-.4s-.07-.02-.1,0Zm1.07-.62l-.6,.35s-.02,.04,0,.06l.7,.4s.07,.02,.1,0l.6-.35s.02-.04,0-.06l-.7-.4s-.07-.02-.1,0Zm-2.37,1.37l-.6,.35s-.02,.04,0,.06l.7,.4s.07,.02,.1,0l.6-.35s.02-.04,0-.06l-.7-.4s-.07-.02-.1,0Zm-.88,.51l-.6,.35s-.02,.04,0,.06l.7,.4s.07,.02,.1,0l.6-.35s.02-.04,0-.06l-.7-.4s-.07-.02-.1,0Zm2.74,1.64l.6-.35s.02-.04,0-.06l-.7-.4s-.07-.02-.1,0l-.6,.35s-.02,.04,0,.06l.7,.4s.07,.02,.1,0Zm-.88,.51l.6-.35s.02-.04,0-.06l-.7-.4s-.07-.02-.1,0l-.6,.35s-.02,.04,0,.06l.7,.4s.07,.02,.1,0Zm-.88,.51l.6-.35s.02-.04,0-.06l-.7-.4s-.07-.02-.1,0l-.6,.35s-.02,.04,0,.06l.7,.4s.07,.02,.1,0Zm-.88,.51l.6-.35s.02-.04,0-.06l-.7-.4s-.07-.02-.1,0l-.6,.35s-.02,.04,0,.06l.7,.4s.07,.02,.1,0Zm4.34-3.66l.6-.35s.02-.04,0-.06l-.7-.4s-.07-.02-.1,0l-.6,.35s-.02,.04,0,.06l.7,.4s.07,.02,.1,0Zm-.81,1.62l1.35-.78s.02-.04,0-.06l-1.69-.98s-.07-.02-.1,0l-.7,.4s-.02,.04,0,.06l.9,.52s.03,.04,0,.06l-.56,.32s-.02,.04,0,.06l.7,.4s.07,.02,.1,0Zm-4.51-.62l-.6,.35s-.02,.04,0,.06l.7,.4s.07,.02,.1,0l.6-.35s.02-.04,0-.06l-.7-.4s-.07-.02-.1,0Zm-.88,.51l-.6,.35s-.02,.04,0,.06l.7,.4s.07,.02,.1,0l.6-.35s.02-.04,0-.06l-.7-.4s-.07-.02-.1,0Zm-4.4,5.71s.07,.02,.1,0l.6-.35s.02-.04,0-.06l-.7-.4s-.07-.02-.1,0l-.6,.35s-.02,.04,0,.06l.7,.4Zm-2.65-1.64l-.6,.35s-.02,.04,0,.06l.7,.4s.07,.02,.1,0l.6-.35s.02-.04,0-.06l-.7-.4s-.07-.02-.1,0Zm1.42,1.19s.07,.02,.1,0l.6-.35s.02-.04,0-.06l-.7-.4s-.07-.02-.1,0l-.6,.35s-.02,.04,0,.06l.7,.4Zm2.78,.75l.6-.35s.02-.04,0-.06l-.7-.4s-.07-.02-.1,0l-.6,.35s-.02,.04,0,.06l.7,.4s.07,.02,.1,0Zm-.98,.51s.07,.02,.1,0l.6-.35s.02-.04,0-.06l-.7-.4s-.07-.02-.1,0l-.6,.35s-.02,.04,0,.06l.7,.4Zm-2.34-2.96l-.6,.35s-.02,.04,0,.06l.7,.4s.07,.02,.1,0l.6-.35s.02-.04,0-.06l-.7-.4s-.07-.02-.1,0Zm4.41-2.54l-.6,.35s-.02,.04,0,.06l.7,.4s.07,.02,.1,0l.6-.35s.02-.04,0-.06l-.7-.4s-.07-.02-.1,0Zm-3.53,2.04l-.6,.35s-.02,.04,0,.06l.7,.4s.07,.02,.1,0l.6-.35s.02-.04,0-.06l-.7-.4s-.07-.02-.1,0Zm4.41-2.54l-.6,.35s-.02,.04,0,.06l.7,.4s.07,.02,.1,0l.6-.35s.02-.04,0-.06l-.7-.4s-.07-.02-.1,0Zm-1.76,1.02l-.6,.35s-.02,.04,0,.06l.7,.4s.07,.02,.1,0l.6-.35s.02-.04,0-.06l-.7-.4s-.07-.02-.1,0Zm-.88,.51l-.6,.35s-.02,.04,0,.06l.7,.4s.07,.02,.1,0l.6-.35s.02-.04,0-.06l-.7-.4s-.07-.02-.1,0Zm-.88,.51l-.6,.35s-.02,.04,0,.06l.7,.4s.07,.02,.1,0l.6-.35s.02-.04,0-.06l-.7-.4s-.07-.02-.1,0Zm4.51,.62l.6-.35s.02-.04,0-.06l-.7-.4s-.07-.02-.1,0l-.6,.35s-.02,.04,0,.06l.7,.4s.07,.02,.1,0Zm7.74-7.69l-.6,.35s-.02,.04,0,.06l.7,.4s.07,.02,.1,0l.6-.35s.02-.04,0-.06l-.7-.4s-.07-.02-.1,0Zm-1.07,.62l-.6,.35s-.02,.04,0,.06l.7,.4s.07,.02,.1,0l.6-.35s.02-.04,0-.06l-.7-.4s-.07-.02-.1,0Zm1.95-1.12l-.6,.35s-.02,.04,0,.06l.7,.4s.07,.02,.1,0l.6-.35s.02-.04,0-.06l-.7-.4s-.07-.02-.1,0Zm-4.56,4.7l.6-.35s.02-.04,0-.06l-.7-.4s-.07-.02-.1,0l-.6,.35s-.02,.04,0,.06l.7,.4s.07,.02,.1,0Zm5.54-5.21s-.07-.02-.1,0l-.6,.35s-.02,.04,0,.06l.7,.4s.07,.02,.1,0l.6-.35s.02-.04,0-.06l-.7-.4Zm-8.72,8.2l.6-.35s.02-.04,0-.06l-.7-.4s-.07-.02-.1,0l-.6,.35s-.02,.04,0,.06l.7,.4s.07,.02,.1,0Zm10.81-6.24l.6-.35s.02-.04,0-.06l-.7-.4s-.07-.02-.1,0l-.6,.35s-.02,.04,0,.06l.7,.4s.07,.02,.1,0Zm-1.88-.07l.6-.35s.02-.04,0-.06l-.7-.4s-.07-.02-.1,0l-.6,.35s-.02,.04,0,.06l.7,.4s.07,.02,.1,0Zm.78-1.32s-.07-.02-.1,0l-.6,.35s-.02,.04,0,.06l.7,.4s.07,.02,.1,0l.6-.35s.02-.04,0-.06l-.7-.4Zm.19-.11l1.69,.98s.07,.02,.1,0l.6-.35s.02-.04,0-.06l-1.69-.98s-.07-.02-.1,0l-.6,.35s-.02,.04,0,.06Zm-2.04,1.12l-.6,.35s-.02,.04,0,.06l.7,.4s.07,.02,.1,0l.6-.35s.02-.04,0-.06l-.7-.4s-.07-.02-.1,0Zm-6.63,3.83l-.6,.35s-.02,.04,0,.06l.7,.4s.07,.02,.1,0l.6-.35s.02-.04,0-.06l-.7-.4s-.07-.02-.1,0Zm8.61-2.96s.07,.02,.1,0l.6-.35s.02-.04,0-.06l-.7-.4s-.07-.02-.1,0l-.6,.35s-.02,.04,0,.06l.7,.4Zm-7.73,2.45l-.6,.35s-.02,.04,0,.06l.7,.4s.07,.02,.1,0l.6-.35s.02-.04,0-.06l-.7-.4s-.07-.02-.1,0Zm-6.61,5.83s.07,.02,.1,0l.6-.35s.02-.04,0-.06l-.7-.4s-.07-.02-.1,0l-.6,.35s-.02,.04,0,.06l.7,.4Zm-1.33-1.25l-.6,.35s-.02,.04,0,.06l.7,.4s.07,.02,.1,0l.6-.35s.02-.04,0-.06l-.7-.4s-.07-.02-.1,0Zm2.3,.74l.6-.35s.02-.04,0-.06l-.7-.4s-.07-.02-.1,0l-.6,.35s-.02,.04,0,.06l.7,.4s.07,.02,.1,0Zm.88-.51l.6-.35s.02-.04,0-.06l-.7-.4s-.07-.02-.1,0l-.6,.35s-.02,.04,0,.06l.7,.4s.07,.02,.1,0Zm.88-.51l.6-.35s.02-.04,0-.06l-.7-.4s-.07-.02-.1,0l-.6,.35s-.02,.04,0,.06l.7,.4s.07,.02,.1,0Zm-3.19-.23l-.6,.35s-.02,.04,0,.06l.7,.4s.07,.02,.1,0l.6-.35s.02-.04,0-.06l-.7-.4s-.07-.02-.1,0Zm.88-.51l-.6,.35s-.02,.04,0,.06l.7,.4s.07,.02,.1,0l.6-.35s.02-.04,0-.06l-.7-.4s-.07-.02-.1,0Zm3.53-2.04l-.6,.35s-.02,.04,0,.06l.7,.4s.07,.02,.1,0l.6-.35s.02-.04,0-.06l-.7-.4s-.07-.02-.1,0Zm-.88,.51l-.6,.35s-.02,.04,0,.06l.7,.4s.07,.02,.1,0l.6-.35s.02-.04,0-.06l-.7-.4s-.07-.02-.1,0Zm1.76-1.02l-.6,.35s-.02,.04,0,.06l.7,.4s.07,.02,.1,0l.6-.35s.02-.04,0-.06l-.7-.4s-.07-.02-.1,0Zm-3.53,2.04l-.6,.35s-.02,.04,0,.06l.7,.4s.07,.02,.1,0l.6-.35s.02-.04,0-.06l-.7-.4s-.07-.02-.1,0Zm.88-.51l-.6,.35s-.02,.04,0,.06l.7,.4s.07,.02,.1,0l.6-.35s.02-.04,0-.06l-.7-.4s-.07-.02-.1,0Zm-.64,3.59l.6-.35s.02-.04,0-.06l-.7-.4s-.07-.02-.1,0l-.6,.35s-.02,.04,0,.06l.7,.4s.07,.02,.1,0Zm-5.17-.52l-.7-.4s-.07-.02-.1,0l-.6,.35s-.02,.04,0,.06l.7,.4s.07,.02,.1,0l.6-.35s.02-.04,0-.06Zm1.32,.39l-.7-.4s-.07-.02-.1,0l-.93,.54s-.02,.04,0,.06l.7,.4s.07,.02,.1,0l.93-.54s.02-.04,0-.06Zm-2.39-1.17l-.7-.4s-.07-.02-.1,0l-.74,.43s-.02,.04,0,.06l.7,.4s.07,.02,.1,0l.74-.43s.02-.04,0-.06Zm.57-.33s.07,.02,.1,0l.6-.35s.02-.04,0-.06l-.7-.4s-.07-.02-.1,0l-.6,.35s-.02,.04,0,.06l.7,.4Zm3.05,1.94l-.7-.4s-.07-.02-.1,0l-1.16,.67s-.02,.04,0,.06l.7,.4s.07,.02,.1,0l1.16-.67s.02-.04,0-.06Zm.58,.82l-.7-.4s-.07-.02-.1,0l-.74,.43s-.02,.04,0,.06l.7,.4s.07,.02,.1,0l.74-.43s.02-.04,0-.06Zm2.92-6.54s.07,.02,.1,0l.6-.35s.02-.04,0-.06l-.7-.4s-.07-.02-.1,0l-.6,.35s-.02,.04,0,.06l.7,.4Zm-1.76,1.02s.07,.02,.1,0l.6-.35s.02-.04,0-.06l-.7-.4s-.07-.02-.1,0l-.6,.35s-.02,.04,0,.06l.7,.4Zm-3.91,2.26s.07,.02,.1,0l.6-.35s.02-.04,0-.06l-.7-.4s-.07-.02-.1,0l-.6,.35s-.02,.04,0,.06l.7,.4Zm4.79-2.77s.07,.02,.1,0l.6-.35s.02-.04,0-.06l-.7-.4s-.07-.02-.1,0l-.6,.35s-.02,.04,0,.06l.7,.4Zm-1.76,1.02s.07,.02,.1,0l.6-.35s.02-.04,0-.06l-.7-.4s-.07-.02-.1,0l-.6,.35s-.02,.04,0,.06l.7,.4Zm.2,5.07s-.07-.02-.1,0l-.93,.54s-.02,.04,0,.06l.7,.4s.07,.02,.1,0l.93-.54s.02-.04,0-.06l-.7-.4Zm-1.47-4.34s.07,.02,.1,0l.6-.35s.02-.04,0-.06l-.7-.4s-.07-.02-.1,0l-.6,.35s-.02,.04,0,.06l.7,.4Zm-.88,.51s.07,.02,.1,0l.6-.35s.02-.04,0-.06l-.7-.4s-.07-.02-.1,0l-.6,.35s-.02,.04,0,.06l.7,.4Zm18.68-5.59s-.07-.02-.1,0l-1.48,.86s-.02,.04,0,.06l.7,.4s.07,.02,.1,0l1.48-.86s.02-.04,0-.06l-.7-.4Zm-1.95,1.12s-.07-.02-.1,0l-.6,.35s-.02,.04,0,.06l.7,.4s.07,.02,.1,0l.6-.35s.02-.04,0-.06l-.7-.4Zm-11.94,6.61l.6-.35s.02-.04,0-.06l-.7-.4s-.07-.02-.1,0l-.6,.35s-.02,.04,0,.06l.7,.4s.07,.02,.1,0Zm10.18-5.59s-.07-.02-.1,0l-.6,.35s-.02,.04,0,.06l.7,.4s.07,.02,.1,0l.6-.35s.02-.04,0-.06l-.7-.4Zm4.59-2.65s-.07-.02-.1,0l-.6,.35s-.02,.04,0,.06l.7,.4s.07,.02,.1,0l.6-.35s.02-.04,0-.06l-.7-.4Zm1.58-.11l-1.69-.98s-.07-.02-.1,0l-.6,.35s-.02,.04,0,.06l1.69,.98s.07,.02,.1,0l.6-.35s.02-.04,0-.06Zm-9.47,4.66s-.07-.02-.1,0l-.74,.43s-.02,.04,0,.06l.7,.4s.07,.02,.1,0l.74-.43s.02-.04,0-.06l-.7-.4Zm2.23-1.29s-.07-.02-.1,0l-.93,.54s-.02,.04,0,.06l.7,.4s.07,.02,.1,0l.93-.54s.02-.04,0-.06l-.7-.4Zm-4.27,2.46s-.07-.02-.1,0l-4.96,2.87s-.02,.04,0,.06l.7,.4s.07,.02,.1,0l4.96-2.87s.02-.04,0-.06l-.7-.4Zm-5.24,3.03s-.07-.02-.1,0l-.74,.43s-.02,.04,0,.06l.7,.4s.07,.02,.1,0l.74-.43s.02-.04,0-.06l-.7-.4Zm6.26-3.62s-.07-.02-.1,0l-.74,.43s-.02,.04,0,.06l.7,.4s.07,.02,.1,0l.74-.43s.02-.04,0-.06l-.7-.4Zm-7.28,4.21s-.07-.02-.1,0l-.74,.43s-.02,.04,0,.06l.7,.4s.07,.02,.1,0l.74-.43s.02-.04,0-.06l-.7-.4Zm9.33-5.38s-.07-.02-.1,0l-.74,.43s-.02,.04,0,.06l.7,.4s.07,.02,.1,0l.74-.43s.02-.04,0-.06l-.7-.4Zm3.15-1.82s-.07-.02-.1,0l-.6,.35s-.02,.04,0,.06l.7,.4s.07,.02,.1,0l.6-.35s.02-.04,0-.06l-.7-.4Zm1.93-1.4l.6-.35s.02-.04,0-.06l-.7-.4s-.07-.02-.1,0l-.6,.35s-.02,.04,0,.06l.7,.4s.07,.02,.1,0Zm-3.94-.03l.6-.35s.02-.04,0-.06l-.7-.4s-.07-.02-.1,0l-.6,.35s-.02,.04,0,.06l.7,.4s.07,.02,.1,0Zm-2,3.45l1.76-1.02s.02-.04,0-.06l-.7-.4s-.07-.02-.1,0l-1.76,1.02s-.02,.04,0,.06l.7,.4s.07,.02,.1,0Zm4.96-2.92s.07,.02,.1,0l.6-.35s.02-.04,0-.06l-.7-.4s-.07-.02-.1,0l-.6,.35s-.02,.04,0,.06l.7,.4Zm-.9-.57l.6-.35s.02-.04,0-.06l-.7-.4s-.07-.02-.1,0l-.6,.35s-.02,.04,0,.06l.7,.4s.07,.02,.1,0Zm-4.94,4l.6-.35s.02-.04,0-.06l-.7-.4s-.07-.02-.1,0l-.6,.35s-.02,.04,0,.06l.7,.4s.07,.02,.1,0Zm3.89-2.31s.07,.02,.1,0l.6-.35s.02-.04,0-.06l-.7-.4s-.07-.02-.1,0l-.6,.35s-.02,.04,0,.06l.7,.4Zm-8.3,4.85l.6-.35s.02-.04,0-.06l-.7-.4s-.07-.02-.1,0l-.6,.35s-.02,.04,0,.06l.7,.4s.07,.02,.1,0Zm.88-.51l.6-.35s.02-.04,0-.06l-.7-.4s-.07-.02-.1,0l-.6,.35s-.02,.04,0,.06l.7,.4s.07,.02,.1,0Zm-1.76,1.02l.6-.35s.02-.04,0-.06l-.7-.4s-.07-.02-.1,0l-.6,.35s-.02,.04,0,.06l.7,.4s.07,.02,.1,0Zm3.53-2.04l.6-.35s.02-.04,0-.06l-.7-.4s-.07-.02-.1,0l-.6,.35s-.02,.04,0,.06l.7,.4s.07,.02,.1,0Zm-.88,.51l.6-.35s.02-.04,0-.06l-.7-.4s-.07-.02-.1,0l-.6,.35s-.02,.04,0,.06l.7,.4s.07,.02,.1,0Zm1.76-1.02l.6-.35s.02-.04,0-.06l-.7-.4s-.07-.02-.1,0l-.6,.35s-.02,.04,0,.06l.7,.4s.07,.02,.1,0Zm4.03-7.53s.07,.02,.1,0l.6-.35s.02-.04,0-.06l-.19-.11s-.07-.02-.1,0l-.6,.35s-.02,.04,0,.06l.19,.11Zm-4.34,2.8s.07,.02,.1,0l.6-.35s.02-.04,0-.06l-.7-.4s-.07-.02-.1,0l-.6,.35s-.02,.04,0,.06l.7,.4Zm1.76-1.02s.07,.02,.1,0l.6-.35s.02-.04,0-.06l-.7-.4s-.07-.02-.1,0l-.6,.35s-.02,.04,0,.06l.7,.4Zm-2.84,1.64s.07,.02,.1,0l.6-.35s.02-.04,0-.06l-.7-.4s-.07-.02-.1,0l-.6,.35s-.02,.04,0,.06l.7,.4Zm1.96-1.13s.07,.02,.1,0l.6-.35s.02-.04,0-.06l-.7-.4s-.07-.02-.1,0l-.6,.35s-.02,.04,0,.06l.7,.4Zm-3.72,2.15s.07,.02,.1,0l.6-.35s.02-.04,0-.06l-.7-.4s-.07-.02-.1,0l-.6,.35s-.02,.04,0,.06l.7,.4Zm.88-.51s.07,.02,.1,0l.6-.35s.02-.04,0-.06l-.7-.4s-.07-.02-.1,0l-.6,.35s-.02,.04,0,.06l.7,.4Zm4.53-2.91s.07,.02,.1,0l.6-.35s.02-.04,0-.06l-.19-.11s-.07-.02-.1,0l-.6,.35s-.02,.04,0,.06l.19,.11Zm2.64-1.53s.07,.02,.1,0l.6-.35s.02-.04,0-.06l-.19-.11s-.07-.02-.1,0l-.6,.35s-.02,.04,0,.06l.19,.11Zm1.46,.85s.07,.02,.1,0l.6-.35s.02-.04,0-.06l-.7-.4s-.07-.02-.1,0l-.6,.35s-.02,.04,0,.06l.7,.4Zm2.2,2.24l.6-.35s.02-.04,0-.06l-.7-.4s-.07-.02-.1,0l-.6,.35s-.02,.04,0,.06l.7,.4s.07,.02,.1,0Zm-5.43-2.06s.07,.02,.1,0l.6-.35s.02-.04,0-.06l-.19-.11s-.07-.02-.1,0l-.6,.35s-.02,.04,0,.06l.19,.11Zm-7.18,4.44s.07,.02,.1,0l.6-.35s.02-.04,0-.06l-.7-.4s-.07-.02-.1,0l-.6,.35s-.02,.04,0,.06l.7,.4Z"/>
          <path class="cls-16" d="M72.85,53.99l.6-.35s.02-.04,0-.06l-.7-.4s-.07-.02-.1,0l-.6,.35s-.02,.04,0,.06l.7,.4s.07,.02,.1,0Zm-1.19-1.38l-.6,.35s-.02,.04,0,.06l.7,.4s.07,.02,.1,0l.6-.35s.02-.04,0-.06l-.7-.4s-.07-.02-.1,0Zm-1.95,1.12l-1.02,.59s-.02,.04,0,.06l.7,.4s.07,.02,.1,0l1.02-.59s.02-.04,0-.06l-.7-.4s-.07-.02-.1,0Zm1.07-.62l-.6,.35s-.02,.04,0,.06l.7,.4s.07,.02,.1,0l.6-.35s.02-.04,0-.06l-.7-.4s-.07-.02-.1,0Zm-2.37,1.37l-.6,.35s-.02,.04,0,.06l.7,.4s.07,.02,.1,0l.6-.35s.02-.04,0-.06l-.7-.4s-.07-.02-.1,0Zm-.88,.51l-.6,.35s-.02,.04,0,.06l.7,.4s.07,.02,.1,0l.6-.35s.02-.04,0-.06l-.7-.4s-.07-.02-.1,0Zm2.74,1.64l.6-.35s.02-.04,0-.06l-.7-.4s-.07-.02-.1,0l-.6,.35s-.02,.04,0,.06l.7,.4s.07,.02,.1,0Zm-.88,.51l.6-.35s.02-.04,0-.06l-.7-.4s-.07-.02-.1,0l-.6,.35s-.02,.04,0,.06l.7,.4s.07,.02,.1,0Zm-.88,.51l.6-.35s.02-.04,0-.06l-.7-.4s-.07-.02-.1,0l-.6,.35s-.02,.04,0,.06l.7,.4s.07,.02,.1,0Zm-.88,.51l.6-.35s.02-.04,0-.06l-.7-.4s-.07-.02-.1,0l-.6,.35s-.02,.04,0,.06l.7,.4s.07,.02,.1,0Zm4.34-3.66l.6-.35s.02-.04,0-.06l-.7-.4s-.07-.02-.1,0l-.6,.35s-.02,.04,0,.06l.7,.4s.07,.02,.1,0Zm-.81,1.62l1.35-.78s.02-.04,0-.06l-1.69-.98s-.07-.02-.1,0l-.7,.4s-.02,.04,0,.06l.9,.52s.03,.04,0,.06l-.56,.32s-.02,.04,0,.06l.7,.4s.07,.02,.1,0Zm-4.51-.62l-.6,.35s-.02,.04,0,.06l.7,.4s.07,.02,.1,0l.6-.35s.02-.04,0-.06l-.7-.4s-.07-.02-.1,0Zm-.88,.51l-.6,.35s-.02,.04,0,.06l.7,.4s.07,.02,.1,0l.6-.35s.02-.04,0-.06l-.7-.4s-.07-.02-.1,0Zm-4.4,5.71s.07,.02,.1,0l.6-.35s.02-.04,0-.06l-.7-.4s-.07-.02-.1,0l-.6,.35s-.02,.04,0,.06l.7,.4Zm-2.65-1.64l-.6,.35s-.02,.04,0,.06l.7,.4s.07,.02,.1,0l.6-.35s.02-.04,0-.06l-.7-.4s-.07-.02-.1,0Zm1.42,1.19s.07,.02,.1,0l.6-.35s.02-.04,0-.06l-.7-.4s-.07-.02-.1,0l-.6,.35s-.02,.04,0,.06l.7,.4Zm2.78,.75l.6-.35s.02-.04,0-.06l-.7-.4s-.07-.02-.1,0l-.6,.35s-.02,.04,0,.06l.7,.4s.07,.02,.1,0Zm-.98,.51s.07,.02,.1,0l.6-.35s.02-.04,0-.06l-.7-.4s-.07-.02-.1,0l-.6,.35s-.02,.04,0,.06l.7,.4Zm-2.34-2.96l-.6,.35s-.02,.04,0,.06l.7,.4s.07,.02,.1,0l.6-.35s.02-.04,0-.06l-.7-.4s-.07-.02-.1,0Zm4.41-2.54l-.6,.35s-.02,.04,0,.06l.7,.4s.07,.02,.1,0l.6-.35s.02-.04,0-.06l-.7-.4s-.07-.02-.1,0Zm-3.53,2.04l-.6,.35s-.02,.04,0,.06l.7,.4s.07,.02,.1,0l.6-.35s.02-.04,0-.06l-.7-.4s-.07-.02-.1,0Zm4.41-2.54l-.6,.35s-.02,.04,0,.06l.7,.4s.07,.02,.1,0l.6-.35s.02-.04,0-.06l-.7-.4s-.07-.02-.1,0Zm-1.76,1.02l-.6,.35s-.02,.04,0,.06l.7,.4s.07,.02,.1,0l.6-.35s.02-.04,0-.06l-.7-.4s-.07-.02-.1,0Zm-.88,.51l-.6,.35s-.02,.04,0,.06l.7,.4s.07,.02,.1,0l.6-.35s.02-.04,0-.06l-.7-.4s-.07-.02-.1,0Zm-.88,.51l-.6,.35s-.02,.04,0,.06l.7,.4s.07,.02,.1,0l.6-.35s.02-.04,0-.06l-.7-.4s-.07-.02-.1,0Zm4.51,.62l.6-.35s.02-.04,0-.06l-.7-.4s-.07-.02-.1,0l-.6,.35s-.02,.04,0,.06l.7,.4s.07,.02,.1,0Zm7.74-7.69l-.6,.35s-.02,.04,0,.06l.7,.4s.07,.02,.1,0l.6-.35s.02-.04,0-.06l-.7-.4s-.07-.02-.1,0Zm-1.07,.62l-.6,.35s-.02,.04,0,.06l.7,.4s.07,.02,.1,0l.6-.35s.02-.04,0-.06l-.7-.4s-.07-.02-.1,0Zm1.95-1.12l-.6,.35s-.02,.04,0,.06l.7,.4s.07,.02,.1,0l.6-.35s.02-.04,0-.06l-.7-.4s-.07-.02-.1,0Zm-4.56,4.7l.6-.35s.02-.04,0-.06l-.7-.4s-.07-.02-.1,0l-.6,.35s-.02,.04,0,.06l.7,.4s.07,.02,.1,0Zm5.54-5.21s-.07-.02-.1,0l-.6,.35s-.02,.04,0,.06l.7,.4s.07,.02,.1,0l.6-.35s.02-.04,0-.06l-.7-.4Zm-8.72,8.2l.6-.35s.02-.04,0-.06l-.7-.4s-.07-.02-.1,0l-.6,.35s-.02,.04,0,.06l.7,.4s.07,.02,.1,0Zm10.81-6.24l.6-.35s.02-.04,0-.06l-.7-.4s-.07-.02-.1,0l-.6,.35s-.02,.04,0,.06l.7,.4s.07,.02,.1,0Zm-1.88-.07l.6-.35s.02-.04,0-.06l-.7-.4s-.07-.02-.1,0l-.6,.35s-.02,.04,0,.06l.7,.4s.07,.02,.1,0Zm.78-1.32s-.07-.02-.1,0l-.6,.35s-.02,.04,0,.06l.7,.4s.07,.02,.1,0l.6-.35s.02-.04,0-.06l-.7-.4Zm.19-.11l1.69,.98s.07,.02,.1,0l.6-.35s.02-.04,0-.06l-1.69-.98s-.07-.02-.1,0l-.6,.35s-.02,.04,0,.06Zm-2.04,1.12l-.6,.35s-.02,.04,0,.06l.7,.4s.07,.02,.1,0l.6-.35s.02-.04,0-.06l-.7-.4s-.07-.02-.1,0Zm-6.63,3.83l-.6,.35s-.02,.04,0,.06l.7,.4s.07,.02,.1,0l.6-.35s.02-.04,0-.06l-.7-.4s-.07-.02-.1,0Zm8.61-2.96s.07,.02,.1,0l.6-.35s.02-.04,0-.06l-.7-.4s-.07-.02-.1,0l-.6,.35s-.02,.04,0,.06l.7,.4Zm-7.73,2.45l-.6,.35s-.02,.04,0,.06l.7,.4s.07,.02,.1,0l.6-.35s.02-.04,0-.06l-.7-.4s-.07-.02-.1,0Zm-6.61,5.83s.07,.02,.1,0l.6-.35s.02-.04,0-.06l-.7-.4s-.07-.02-.1,0l-.6,.35s-.02,.04,0,.06l.7,.4Zm-1.33-1.25l-.6,.35s-.02,.04,0,.06l.7,.4s.07,.02,.1,0l.6-.35s.02-.04,0-.06l-.7-.4s-.07-.02-.1,0Zm2.3,.74l.6-.35s.02-.04,0-.06l-.7-.4s-.07-.02-.1,0l-.6,.35s-.02,.04,0,.06l.7,.4s.07,.02,.1,0Zm.88-.51l.6-.35s.02-.04,0-.06l-.7-.4s-.07-.02-.1,0l-.6,.35s-.02,.04,0,.06l.7,.4s.07,.02,.1,0Zm.88-.51l.6-.35s.02-.04,0-.06l-.7-.4s-.07-.02-.1,0l-.6,.35s-.02,.04,0,.06l.7,.4s.07,.02,.1,0Zm-3.19-.23l-.6,.35s-.02,.04,0,.06l.7,.4s.07,.02,.1,0l.6-.35s.02-.04,0-.06l-.7-.4s-.07-.02-.1,0Zm.88-.51l-.6,.35s-.02,.04,0,.06l.7,.4s.07,.02,.1,0l.6-.35s.02-.04,0-.06l-.7-.4s-.07-.02-.1,0Zm3.53-2.04l-.6,.35s-.02,.04,0,.06l.7,.4s.07,.02,.1,0l.6-.35s.02-.04,0-.06l-.7-.4s-.07-.02-.1,0Zm-.88,.51l-.6,.35s-.02,.04,0,.06l.7,.4s.07,.02,.1,0l.6-.35s.02-.04,0-.06l-.7-.4s-.07-.02-.1,0Zm1.76-1.02l-.6,.35s-.02,.04,0,.06l.7,.4s.07,.02,.1,0l.6-.35s.02-.04,0-.06l-.7-.4s-.07-.02-.1,0Zm-3.53,2.04l-.6,.35s-.02,.04,0,.06l.7,.4s.07,.02,.1,0l.6-.35s.02-.04,0-.06l-.7-.4s-.07-.02-.1,0Zm.88-.51l-.6,.35s-.02,.04,0,.06l.7,.4s.07,.02,.1,0l.6-.35s.02-.04,0-.06l-.7-.4s-.07-.02-.1,0Zm-.64,3.59l.6-.35s.02-.04,0-.06l-.7-.4s-.07-.02-.1,0l-.6,.35s-.02,.04,0,.06l.7,.4s.07,.02,.1,0Zm-5.17-.52l-.7-.4s-.07-.02-.1,0l-.6,.35s-.02,.04,0,.06l.7,.4s.07,.02,.1,0l.6-.35s.02-.04,0-.06Zm1.32,.39l-.7-.4s-.07-.02-.1,0l-.93,.54s-.02,.04,0,.06l.7,.4s.07,.02,.1,0l.93-.54s.02-.04,0-.06Zm-2.39-1.17l-.7-.4s-.07-.02-.1,0l-.74,.43s-.02,.04,0,.06l.7,.4s.07,.02,.1,0l.74-.43s.02-.04,0-.06Zm.57-.33s.07,.02,.1,0l.6-.35s.02-.04,0-.06l-.7-.4s-.07-.02-.1,0l-.6,.35s-.02,.04,0,.06l.7,.4Zm3.05,1.94l-.7-.4s-.07-.02-.1,0l-1.16,.67s-.02,.04,0,.06l.7,.4s.07,.02,.1,0l1.16-.67s.02-.04,0-.06Zm.58,.82l-.7-.4s-.07-.02-.1,0l-.74,.43s-.02,.04,0,.06l.7,.4s.07,.02,.1,0l.74-.43s.02-.04,0-.06Zm2.92-6.54s.07,.02,.1,0l.6-.35s.02-.04,0-.06l-.7-.4s-.07-.02-.1,0l-.6,.35s-.02,.04,0,.06l.7,.4Zm-1.76,1.02s.07,.02,.1,0l.6-.35s.02-.04,0-.06l-.7-.4s-.07-.02-.1,0l-.6,.35s-.02,.04,0,.06l.7,.4Zm-3.91,2.26s.07,.02,.1,0l.6-.35s.02-.04,0-.06l-.7-.4s-.07-.02-.1,0l-.6,.35s-.02,.04,0,.06l.7,.4Zm4.79-2.77s.07,.02,.1,0l.6-.35s.02-.04,0-.06l-.7-.4s-.07-.02-.1,0l-.6,.35s-.02,.04,0,.06l.7,.4Zm-1.76,1.02s.07,.02,.1,0l.6-.35s.02-.04,0-.06l-.7-.4s-.07-.02-.1,0l-.6,.35s-.02,.04,0,.06l.7,.4Zm.2,5.07s-.07-.02-.1,0l-.93,.54s-.02,.04,0,.06l.7,.4s.07,.02,.1,0l.93-.54s.02-.04,0-.06l-.7-.4Zm-1.47-4.34s.07,.02,.1,0l.6-.35s.02-.04,0-.06l-.7-.4s-.07-.02-.1,0l-.6,.35s-.02,.04,0,.06l.7,.4Zm-.88,.51s.07,.02,.1,0l.6-.35s.02-.04,0-.06l-.7-.4s-.07-.02-.1,0l-.6,.35s-.02,.04,0,.06l.7,.4Zm18.68-5.59s-.07-.02-.1,0l-1.48,.86s-.02,.04,0,.06l.7,.4s.07,.02,.1,0l1.48-.86s.02-.04,0-.06l-.7-.4Zm-1.95,1.12s-.07-.02-.1,0l-.6,.35s-.02,.04,0,.06l.7,.4s.07,.02,.1,0l.6-.35s.02-.04,0-.06l-.7-.4Zm-11.94,6.61l.6-.35s.02-.04,0-.06l-.7-.4s-.07-.02-.1,0l-.6,.35s-.02,.04,0,.06l.7,.4s.07,.02,.1,0Zm10.18-5.59s-.07-.02-.1,0l-.6,.35s-.02,.04,0,.06l.7,.4s.07,.02,.1,0l.6-.35s.02-.04,0-.06l-.7-.4Zm4.59-2.65s-.07-.02-.1,0l-.6,.35s-.02,.04,0,.06l.7,.4s.07,.02,.1,0l.6-.35s.02-.04,0-.06l-.7-.4Zm1.58-.11l-1.69-.98s-.07-.02-.1,0l-.6,.35s-.02,.04,0,.06l1.69,.98s.07,.02,.1,0l.6-.35s.02-.04,0-.06Zm-9.47,4.66s-.07-.02-.1,0l-.74,.43s-.02,.04,0,.06l.7,.4s.07,.02,.1,0l.74-.43s.02-.04,0-.06l-.7-.4Zm2.23-1.29s-.07-.02-.1,0l-.93,.54s-.02,.04,0,.06l.7,.4s.07,.02,.1,0l.93-.54s.02-.04,0-.06l-.7-.4Zm-4.27,2.46s-.07-.02-.1,0l-4.96,2.87s-.02,.04,0,.06l.7,.4s.07,.02,.1,0l4.96-2.87s.02-.04,0-.06l-.7-.4Zm-5.24,3.03s-.07-.02-.1,0l-.74,.43s-.02,.04,0,.06l.7,.4s.07,.02,.1,0l.74-.43s.02-.04,0-.06l-.7-.4Zm6.26-3.62s-.07-.02-.1,0l-.74,.43s-.02,.04,0,.06l.7,.4s.07,.02,.1,0l.74-.43s.02-.04,0-.06l-.7-.4Zm-7.28,4.21s-.07-.02-.1,0l-.74,.43s-.02,.04,0,.06l.7,.4s.07,.02,.1,0l.74-.43s.02-.04,0-.06l-.7-.4Zm9.33-5.38s-.07-.02-.1,0l-.74,.43s-.02,.04,0,.06l.7,.4s.07,.02,.1,0l.74-.43s.02-.04,0-.06l-.7-.4Zm3.15-1.82s-.07-.02-.1,0l-.6,.35s-.02,.04,0,.06l.7,.4s.07,.02,.1,0l.6-.35s.02-.04,0-.06l-.7-.4Zm1.93-1.4l.6-.35s.02-.04,0-.06l-.7-.4s-.07-.02-.1,0l-.6,.35s-.02,.04,0,.06l.7,.4s.07,.02,.1,0Zm-3.94-.03l.6-.35s.02-.04,0-.06l-.7-.4s-.07-.02-.1,0l-.6,.35s-.02,.04,0,.06l.7,.4s.07,.02,.1,0Zm-2,3.45l1.76-1.02s.02-.04,0-.06l-.7-.4s-.07-.02-.1,0l-1.76,1.02s-.02,.04,0,.06l.7,.4s.07,.02,.1,0Zm4.96-2.92s.07,.02,.1,0l.6-.35s.02-.04,0-.06l-.7-.4s-.07-.02-.1,0l-.6,.35s-.02,.04,0,.06l.7,.4Zm-.9-.57l.6-.35s.02-.04,0-.06l-.7-.4s-.07-.02-.1,0l-.6,.35s-.02,.04,0,.06l.7,.4s.07,.02,.1,0Zm-4.94,4l.6-.35s.02-.04,0-.06l-.7-.4s-.07-.02-.1,0l-.6,.35s-.02,.04,0,.06l.7,.4s.07,.02,.1,0Zm3.89-2.31s.07,.02,.1,0l.6-.35s.02-.04,0-.06l-.7-.4s-.07-.02-.1,0l-.6,.35s-.02,.04,0,.06l.7,.4Zm-8.3,4.85l.6-.35s.02-.04,0-.06l-.7-.4s-.07-.02-.1,0l-.6,.35s-.02,.04,0,.06l.7,.4s.07,.02,.1,0Zm.88-.51l.6-.35s.02-.04,0-.06l-.7-.4s-.07-.02-.1,0l-.6,.35s-.02,.04,0,.06l.7,.4s.07,.02,.1,0Zm-1.76,1.02l.6-.35s.02-.04,0-.06l-.7-.4s-.07-.02-.1,0l-.6,.35s-.02,.04,0,.06l.7,.4s.07,.02,.1,0Zm3.53-2.04l.6-.35s.02-.04,0-.06l-.7-.4s-.07-.02-.1,0l-.6,.35s-.02,.04,0,.06l.7,.4s.07,.02,.1,0Zm-.88,.51l.6-.35s.02-.04,0-.06l-.7-.4s-.07-.02-.1,0l-.6,.35s-.02,.04,0,.06l.7,.4s.07,.02,.1,0Zm1.76-1.02l.6-.35s.02-.04,0-.06l-.7-.4s-.07-.02-.1,0l-.6,.35s-.02,.04,0,.06l.7,.4s.07,.02,.1,0Zm4.03-7.53s.07,.02,.1,0l.6-.35s.02-.04,0-.06l-.19-.11s-.07-.02-.1,0l-.6,.35s-.02,.04,0,.06l.19,.11Zm-4.34,2.8s.07,.02,.1,0l.6-.35s.02-.04,0-.06l-.7-.4s-.07-.02-.1,0l-.6,.35s-.02,.04,0,.06l.7,.4Zm1.76-1.02s.07,.02,.1,0l.6-.35s.02-.04,0-.06l-.7-.4s-.07-.02-.1,0l-.6,.35s-.02,.04,0,.06l.7,.4Zm-2.84,1.64s.07,.02,.1,0l.6-.35s.02-.04,0-.06l-.7-.4s-.07-.02-.1,0l-.6,.35s-.02,.04,0,.06l.7,.4Zm1.96-1.13s.07,.02,.1,0l.6-.35s.02-.04,0-.06l-.7-.4s-.07-.02-.1,0l-.6,.35s-.02,.04,0,.06l.7,.4Zm-3.72,2.15s.07,.02,.1,0l.6-.35s.02-.04,0-.06l-.7-.4s-.07-.02-.1,0l-.6,.35s-.02,.04,0,.06l.7,.4Zm.88-.51s.07,.02,.1,0l.6-.35s.02-.04,0-.06l-.7-.4s-.07-.02-.1,0l-.6,.35s-.02,.04,0,.06l.7,.4Zm4.53-2.91s.07,.02,.1,0l.6-.35s.02-.04,0-.06l-.19-.11s-.07-.02-.1,0l-.6,.35s-.02,.04,0,.06l.19,.11Zm2.64-1.53s.07,.02,.1,0l.6-.35s.02-.04,0-.06l-.19-.11s-.07-.02-.1,0l-.6,.35s-.02,.04,0,.06l.19,.11Zm1.46,.85s.07,.02,.1,0l.6-.35s.02-.04,0-.06l-.7-.4s-.07-.02-.1,0l-.6,.35s-.02,.04,0,.06l.7,.4Zm2.2,2.24l.6-.35s.02-.04,0-.06l-.7-.4s-.07-.02-.1,0l-.6,.35s-.02,.04,0,.06l.7,.4s.07,.02,.1,0Zm-5.43-2.06s.07,.02,.1,0l.6-.35s.02-.04,0-.06l-.19-.11s-.07-.02-.1,0l-.6,.35s-.02,.04,0,.06l.19,.11Zm-7.18,4.44s.07,.02,.1,0l.6-.35s.02-.04,0-.06l-.7-.4s-.07-.02-.1,0l-.6,.35s-.02,.04,0,.06l.7,.4Z"/>
          <path class="cls-38" d="M69.86,60.66l5.95-3.44c.18-.1,.47-.1,.65,0l3.41,1.97c.18,.1,.18,.27,0,.38l-5.95,3.44c-.18,.1-.47,.1-.65,0l-3.41-1.97c-.18-.1-.18-.27,0-.38Z"/>
          <path class="cls-49" d="M69.86,60.66l5.95-3.44c.18-.1,.47-.1,.65,0l3.41,1.97c.18,.1,.18,.27,0,.38l-5.95,3.44c-.18,.1-.47,.1-.65,0l-3.41-1.97c-.18-.1-.18-.27,0-.38Z"/>
          <path class="cls-38" d="M50.24,58.5s.11,.05,.17,.07c-.06-.02-.12-.04-.17-.07-.02-.01-.04-.02-.05-.03,.02,.01,.03,.02,.05,.03Z"/>
          <polygon class="cls-38" points="51.19 58.55 51.2 58.54 51.19 58.55 51.19 58.55"/>
        </g>
        <g id="Window">
          <path class="cls-38" d="M52.05,54.53c0,.26,.18,.36,.4,.23l18.36-10.6c.22-.13,.4-.44,.4-.69v-12.36s-19.16,11.06-19.16,11.06v12.36Z"/>
          <path class="cls-17" d="M52.05,54.53c0,.26,.18,.36,.4,.23l18.36-10.6c.22-.13,.4-.44,.4-.69v-12.36s-19.16,11.06-19.16,11.06v12.36Z"/>
          <g>
            <path class="cls-42" d="M52.05,41.33c0-.26,.18-.57,.4-.69l18.36-10.6c.22-.13,.4-.02,.4,.23v.84l-19.16,11.06v-.84Z"/>
            <g>
              <path class="cls-22" d="M68.95,31.55c-.1,.06-.19,.21-.19,.33s.08,.17,.19,.11,.19-.21,.19-.33-.08-.17-.19-.11Z"/>
              <path class="cls-22" d="M69.61,31.17c-.1,.06-.19,.21-.19,.33s.08,.17,.19,.11c.1-.06,.19-.21,.19-.33s-.08-.17-.19-.11Z"/>
              <path class="cls-22" d="M70.27,30.79c-.1,.06-.19,.21-.19,.33s.08,.17,.19,.11c.1-.06,.19-.21,.19-.33s-.08-.17-.19-.11Z"/>
            </g>
          </g>
        </g>
      </g>
      <g id="Server">
        <g>
          <polygon class="cls-38" points="38.16 67.96 24.56 75.81 10.95 67.96 24.56 60.1 38.16 67.96"/>
          <polygon class="cls-27" points="38.16 67.96 24.56 75.81 10.95 67.96 24.56 60.1 38.16 67.96"/>
          <polygon class="cls-44" points="24.56 75.81 24.56 74.83 11.8 67.47 10.95 67.96 24.56 75.81"/>
          <path class="cls-38" d="M24.56,75.81v3.62c.33,0,.66-.07,.91-.22h0s5.9-3.4,5.9-3.4l6.26-3.62c.3-.17,.54-.59,.54-.94v-3.3l-13.61,7.86Z"/>
          <path class="cls-3" d="M24.56,75.81v3.62c.33,0,.66-.07,.91-.22h0s5.9-3.4,5.9-3.4l6.26-3.62c.3-.17,.54-.59,.54-.94v-3.3l-13.61,7.86Z"/>
          <g>
            <path class="cls-17" d="M36.86,69.69l-6.75,3.9c-.25,.14-.45,.5-.45,.79v.92c0,.29,.2,.41,.45,.26l6.75-3.9c.25-.14,.45-.5,.45-.79v-.92c0-.29-.2-.41-.45-.26Z"/>
            <g>
              <path class="cls-43" d="M36.84,70.47v.44c0,.06-.04,.13-.09,.16l-.1,.06c-.05,.03-.09,0-.09-.05v-.44c0-.06,.04-.13,.09-.16l.1-.06c.05-.03,.09,0,.09,.05Z"/>
              <path class="cls-43" d="M36.38,70.73v.44c0,.06-.04,.13-.09,.16l-.1,.06c-.05,.03-.09,0-.09-.05v-.44c0-.06,.04-.13,.09-.16l.1-.06c.05-.03,.09,0,.09,.05Z"/>
              <path class="cls-43" d="M35.92,71v.44c0,.06-.04,.13-.09,.16l-.1,.06c-.05,.03-.09,0-.09-.05v-.44c0-.06,.04-.13,.09-.16l.1-.06c.05-.03,.09,0,.09,.05Z"/>
              <path class="cls-16" d="M35.46,71.26v.44c0,.06-.04,.13-.09,.16l-.1,.06c-.05,.03-.09,0-.09-.05v-.44c0-.06,.04-.13,.09-.16l.1-.06c.05-.03,.09,0,.09,.05Z"/>
              <path class="cls-16" d="M35,71.53v.44c0,.06-.04,.13-.09,.16l-.1,.06c-.05,.03-.09,0-.09-.05v-.44c0-.06,.04-.13,.09-.16l.1-.06c.05-.03,.09,0,.09,.05Z"/>
              <path class="cls-43" d="M34.54,71.79v.44c0,.06-.04,.13-.09,.16l-.1,.06c-.05,.03-.09,0-.09-.05v-.44c0-.06,.04-.13,.09-.16l.1-.06c.05-.03,.09,0,.09,.05Z"/>
              <path class="cls-43" d="M34.09,72.06v.44c0,.06-.04,.13-.09,.16l-.1,.06c-.05,.03-.09,0-.09-.05v-.44c0-.06,.04-.13,.09-.16l.1-.06c.05-.03,.09,0,.09,.05Z"/>
              <path class="cls-43" d="M33.63,72.32v.44c0,.06-.04,.13-.09,.16l-.1,.06c-.05,.03-.09,0-.09-.05v-.44c0-.06,.04-.13,.09-.16l.1-.06c.05-.03,.09,0,.09,.05Z"/>
              <path class="cls-43" d="M33.17,72.58v.44c0,.06-.04,.13-.09,.16l-.1,.06c-.05,.03-.09,0-.09-.05v-.44c0-.06,.04-.13,.09-.16l.1-.06c.05-.03,.09,0,.09,.05Z"/>
              <path class="cls-43" d="M32.71,72.85v.44c0,.06-.04,.13-.09,.16l-.1,.06c-.05,.03-.09,0-.09-.05v-.44c0-.06,.04-.13,.09-.16l.1-.06c.05-.03,.09,0,.09,.05Z"/>
              <path class="cls-43" d="M32.25,73.11v.44c0,.06-.04,.13-.09,.16l-.1,.06c-.05,.03-.09,0-.09-.05v-.44c0-.06,.04-.13,.09-.16l.1-.06c.05-.03,.09,0,.09,.05Z"/>
              <path class="cls-43" d="M31.8,73.38v.44c0,.06-.04,.13-.09,.16l-.1,.06c-.05,.03-.09,0-.09-.05v-.44c0-.06,.04-.13,.09-.16l.1-.06c.05-.03,.09,0,.09,.05Z"/>
              <path class="cls-16" d="M31.34,73.64v.44c0,.06-.04,.13-.09,.16l-.1,.06c-.05,.03-.09,0-.09-.05v-.44c0-.06,.04-.13,.09-.16l.1-.06c.05-.03,.09,0,.09,.05Z"/>
              <path class="cls-43" d="M30.88,73.9v.44c0,.06-.04,.13-.09,.16l-.1,.06c-.05,.03-.09,0-.09-.05v-.44c0-.06,.04-.13,.09-.16l.1-.06c.05-.03,.09,0,.09,.05Z"/>
              <path class="cls-43" d="M30.42,74.17v.44c0,.06-.04,.13-.09,.16l-.1,.06c-.05,.03-.09,0-.09-.05v-.44c0-.06,.04-.13,.09-.16l.1-.06c.05-.03,.09,0,.09,.05Z"/>
            </g>
          </g>
          <path class="cls-38" d="M10.95,67.96v3.3c0,.35,.24,.77,.54,.94l5.41,3.12,6.75,3.9c.25,.14,.58,.22,.91,.22v-3.62l-13.61-7.86Z"/>
          <path class="cls-8" d="M10.95,67.96v3.3c0,.35,.24,.77,.54,.94l5.41,3.12,6.75,3.9c.25,.14,.58,.22,.91,.22v-3.62l-13.61-7.86Z"/>
          <g>
            <g class="cls-36">
              <path class="cls-11" d="M13.1,70.19l3.35,1.93c.25,.14,.45,.5,.45,.79v.92c0,.29-.2,.41-.45,.26l-3.35-1.93c-.25-.14-.45-.5-.45-.79v-.92c0-.29,.2-.41,.45-.26Z"/>
            </g>
            <g>
              <g>
                <path class="cls-38" d="M13.53,71.22l.21-.12h0s0,0,0,0h0c.07-.04,.17-.03,.28,.03,.22,.13,.39,.43,.39,.68,0,.13-.04,.21-.12,.25h0s0,0,0,0h0s-.19,.11-.19,.11l-.03-.06s-.07-.02-.11-.04c-.22-.13-.39-.43-.39-.68,0-.04,0-.07,.01-.1l-.04-.07Z"/>
                <path class="cls-28" d="M13.53,71.22l.21-.12h0s0,0,0,0h0c.07-.04,.17-.03,.28,.03,.22,.13,.39,.43,.39,.68,0,.13-.04,.21-.12,.25h0s0,0,0,0h0s-.19,.11-.19,.11l-.03-.06s-.07-.02-.11-.04c-.22-.13-.39-.43-.39-.68,0-.04,0-.07,.01-.1l-.04-.07Z"/>
                <path class="cls-38" d="M13.82,71.24c.22,.13,.39,.43,.39,.68s-.18,.35-.39,.23c-.22-.13-.39-.43-.39-.68,0-.25,.18-.35,.39-.23Z"/>
              </g>
              <g>
                <path class="cls-38" d="M15.24,72.21l.21-.12h0s0,0,0,0h0c.07-.04,.17-.03,.28,.03,.22,.13,.39,.43,.39,.68,0,.13-.04,.21-.12,.25h0s0,0,0,0h0s-.19,.11-.19,.11l-.03-.06s-.07-.02-.11-.04c-.22-.13-.39-.43-.39-.68,0-.04,0-.07,.01-.1l-.04-.07Z"/>
                <path class="cls-28" d="M15.24,72.21l.21-.12h0s0,0,0,0h0c.07-.04,.17-.03,.28,.03,.22,.13,.39,.43,.39,.68,0,.13-.04,.21-.12,.25h0s0,0,0,0h0s-.19,.11-.19,.11l-.03-.06s-.07-.02-.11-.04c-.22-.13-.39-.43-.39-.68,0-.04,0-.07,.01-.1l-.04-.07Z"/>
                <path class="cls-38" d="M15.53,72.23c.22,.13,.39,.43,.39,.68,0,.25-.18,.35-.39,.23-.22-.13-.39-.43-.39-.68,0-.25,.18-.35,.39-.23Z"/>
              </g>
            </g>
          </g>
          <g>
            <g class="cls-36">
              <path class="cls-11" d="M13.1,70.19l3.35,1.93c.25,.14,.45,.5,.45,.79v.92c0,.29-.2,.41-.45,.26l-3.35-1.93c-.25-.14-.45-.5-.45-.79v-.92c0-.29,.2-.41,.45-.26Z"/>
            </g>
            <g>
              <g>
                <path class="cls-38" d="M13.53,71.22l.21-.12h0s0,0,0,0h0c.07-.04,.17-.03,.28,.03,.22,.13,.39,.43,.39,.68,0,.13-.04,.21-.12,.25h0s0,0,0,0h0s-.19,.11-.19,.11l-.03-.06s-.07-.02-.11-.04c-.22-.13-.39-.43-.39-.68,0-.04,0-.07,.01-.1l-.04-.07Z"/>
                <path class="cls-28" d="M13.53,71.22l.21-.12h0s0,0,0,0h0c.07-.04,.17-.03,.28,.03,.22,.13,.39,.43,.39,.68,0,.13-.04,.21-.12,.25h0s0,0,0,0h0s-.19,.11-.19,.11l-.03-.06s-.07-.02-.11-.04c-.22-.13-.39-.43-.39-.68,0-.04,0-.07,.01-.1l-.04-.07Z"/>
                <path class="cls-38" d="M13.82,71.24c.22,.13,.39,.43,.39,.68s-.18,.35-.39,.23c-.22-.13-.39-.43-.39-.68,0-.25,.18-.35,.39-.23Z"/>
              </g>
              <g>
                <path class="cls-38" d="M15.24,72.21l.21-.12h0s0,0,0,0h0c.07-.04,.17-.03,.28,.03,.22,.13,.39,.43,.39,.68,0,.13-.04,.21-.12,.25h0s0,0,0,0h0s-.19,.11-.19,.11l-.03-.06s-.07-.02-.11-.04c-.22-.13-.39-.43-.39-.68,0-.04,0-.07,.01-.1l-.04-.07Z"/>
                <path class="cls-28" d="M15.24,72.21l.21-.12h0s0,0,0,0h0c.07-.04,.17-.03,.28,.03,.22,.13,.39,.43,.39,.68,0,.13-.04,.21-.12,.25h0s0,0,0,0h0s-.19,.11-.19,.11l-.03-.06s-.07-.02-.11-.04c-.22-.13-.39-.43-.39-.68,0-.04,0-.07,.01-.1l-.04-.07Z"/>
                <path class="cls-38" d="M15.53,72.23c.22,.13,.39,.43,.39,.68,0,.25-.18,.35-.39,.23-.22-.13-.39-.43-.39-.68,0-.25,.18-.35,.39-.23Z"/>
              </g>
            </g>
          </g>
          <g>
            <path class="cls-38" d="M28.45,75.27l-.21-.12h0s0,0,0,0h0c-.07-.04-.17-.03-.28,.03-.22,.13-.39,.43-.39,.68,0,.13,.04,.21,.12,.25h0s0,0,0,0h0s.19,.11,.19,.11l.03-.06s.07-.02,.11-.04c.22-.13,.39-.43,.39-.68,0-.04,0-.07-.01-.1l.04-.07Z"/>
            <path class="cls-34" d="M28.45,75.27l-.21-.12h0s0,0,0,0h0c-.07-.04-.17-.03-.28,.03-.22,.13-.39,.43-.39,.68,0,.13,.04,.21,.12,.25h0s0,0,0,0h0s.19,.11,.19,.11l.03-.06s.07-.02,.11-.04c.22-.13,.39-.43,.39-.68,0-.04,0-.07-.01-.1l.04-.07Z"/>
            <path class="cls-38" d="M28.17,75.29c-.22,.13-.39,.43-.39,.68s.18,.35,.39,.23c.22-.13,.39-.43,.39-.68,0-.25-.18-.35-.39-.23Z"/>
            <path class="cls-28" d="M28.17,75.29c-.22,.13-.39,.43-.39,.68s.18,.35,.39,.23c.22-.13,.39-.43,.39-.68,0-.25-.18-.35-.39-.23Z"/>
          </g>
          <g>
            <path class="cls-38" d="M26.74,76.25l-.21-.12h0s0,0,0,0h0c-.07-.04-.17-.03-.28,.03-.22,.13-.39,.43-.39,.68,0,.13,.04,.21,.12,.25h0s0,0,0,0h0s.19,.11,.19,.11l.03-.06s.07-.02,.11-.04c.22-.13,.39-.43,.39-.68,0-.04,0-.07-.01-.1l.04-.07Z"/>
            <path class="cls-34" d="M26.74,76.25l-.21-.12h0s0,0,0,0h0c-.07-.04-.17-.03-.28,.03-.22,.13-.39,.43-.39,.68,0,.13,.04,.21,.12,.25h0s0,0,0,0h0s.19,.11,.19,.11l.03-.06s.07-.02,.11-.04c.22-.13,.39-.43,.39-.68,0-.04,0-.07-.01-.1l.04-.07Z"/>
            <path class="cls-38" d="M26.46,76.28c-.22,.13-.39,.43-.39,.68s.18,.35,.39,.23c.22-.13,.39-.43,.39-.68,0-.25-.18-.35-.39-.23Z"/>
            <path class="cls-28" d="M26.46,76.28c-.22,.13-.39,.43-.39,.68s.18,.35,.39,.23c.22-.13,.39-.43,.39-.68,0-.25-.18-.35-.39-.23Z"/>
          </g>
        </g>
        <g>
          <polygon class="cls-38" points="38.16 62.06 24.56 69.92 10.95 62.06 24.56 54.21 38.16 62.06"/>
          <polygon class="cls-32" points="38.16 62.06 24.56 69.92 10.95 62.06 24.56 54.21 38.16 62.06"/>
          <polygon class="cls-30" points="24.56 69.92 24.56 68.94 11.8 61.57 10.95 62.06 24.56 69.92"/>
          <polygon class="cls-38" points="38.16 65.99 24.56 73.85 24.56 69.92 38.16 62.06 38.16 65.99"/>
          <polygon class="cls-1" points="38.16 65.99 24.56 73.85 24.56 69.92 38.16 62.06 38.16 65.99"/>
          <g>
            <path class="cls-17" d="M36.86,63.8l-6.75,3.9c-.25,.14-.45,.5-.45,.79v.92c0,.29,.2,.41,.45,.26l6.75-3.9c.25-.14,.45-.5,.45-.79v-.92c0-.29-.2-.41-.45-.26Z"/>
            <g>
              <path class="cls-43" d="M36.84,64.58v.44c0,.06-.04,.13-.09,.16l-.1,.06c-.05,.03-.09,0-.09-.05v-.44c0-.06,.04-.13,.09-.16l.1-.06c.05-.03,.09,0,.09,.05Z"/>
              <path class="cls-16" d="M36.38,64.84v.44c0,.06-.04,.13-.09,.16l-.1,.06c-.05,.03-.09,0-.09-.05v-.44c0-.06,.04-.13,.09-.16l.1-.06c.05-.03,.09,0,.09,.05Z"/>
              <path class="cls-43" d="M35.92,65.11v.44c0,.06-.04,.13-.09,.16l-.1,.06c-.05,.03-.09,0-.09-.05v-.44c0-.06,.04-.13,.09-.16l.1-.06c.05-.03,.09,0,.09,.05Z"/>
              <path class="cls-16" d="M35.46,65.37v.44c0,.06-.04,.13-.09,.16l-.1,.06c-.05,.03-.09,0-.09-.05v-.44c0-.06,.04-.13,.09-.16l.1-.06c.05-.03,.09,0,.09,.05Z"/>
              <path class="cls-16" d="M35,65.64v.44c0,.06-.04,.13-.09,.16l-.1,.06c-.05,.03-.09,0-.09-.05v-.44c0-.06,.04-.13,.09-.16l.1-.06c.05-.03,.09,0,.09,.05Z"/>
              <path class="cls-43" d="M34.54,65.9v.44c0,.06-.04,.13-.09,.16l-.1,.06c-.05,.03-.09,0-.09-.05v-.44c0-.06,.04-.13,.09-.16l.1-.06c.05-.03,.09,0,.09,.05Z"/>
              <path class="cls-43" d="M34.09,66.16v.44c0,.06-.04,.13-.09,.16l-.1,.06c-.05,.03-.09,0-.09-.05v-.44c0-.06,.04-.13,.09-.16l.1-.06c.05-.03,.09,0,.09,.05Z"/>
              <path class="cls-43" d="M33.63,66.43v.44c0,.06-.04,.13-.09,.16l-.1,.06c-.05,.03-.09,0-.09-.05v-.44c0-.06,.04-.13,.09-.16l.1-.06c.05-.03,.09,0,.09,.05Z"/>
              <path class="cls-16" d="M33.17,66.69v.44c0,.06-.04,.13-.09,.16l-.1,.06c-.05,.03-.09,0-.09-.05v-.44c0-.06,.04-.13,.09-.16l.1-.06c.05-.03,.09,0,.09,.05Z"/>
              <path class="cls-43" d="M32.71,66.96v.44c0,.06-.04,.13-.09,.16l-.1,.06c-.05,.03-.09,0-.09-.05v-.44c0-.06,.04-.13,.09-.16l.1-.06c.05-.03,.09,0,.09,.05Z"/>
              <path class="cls-16" d="M32.25,67.22v.44c0,.06-.04,.13-.09,.16l-.1,.06c-.05,.03-.09,0-.09-.05v-.44c0-.06,.04-.13,.09-.16l.1-.06c.05-.03,.09,0,.09,.05Z"/>
              <path class="cls-43" d="M31.8,67.48v.44c0,.06-.04,.13-.09,.16l-.1,.06c-.05,.03-.09,0-.09-.05v-.44c0-.06,.04-.13,.09-.16l.1-.06c.05-.03,.09,0,.09,.05Z"/>
              <path class="cls-16" d="M31.34,67.75v.44c0,.06-.04,.13-.09,.16l-.1,.06c-.05,.03-.09,0-.09-.05v-.44c0-.06,.04-.13,.09-.16l.1-.06c.05-.03,.09,0,.09,.05Z"/>
              <path class="cls-43" d="M30.88,68.01v.44c0,.06-.04,.13-.09,.16l-.1,.06c-.05,.03-.09,0-.09-.05v-.44c0-.06,.04-.13,.09-.16l.1-.06c.05-.03,.09,0,.09,.05Z"/>
              <path class="cls-43" d="M30.42,68.28v.44c0,.06-.04,.13-.09,.16l-.1,.06c-.05,.03-.09,0-.09-.05v-.44c0-.06,.04-.13,.09-.16l.1-.06c.05-.03,.09,0,.09,.05Z"/>
            </g>
          </g>
          <polygon class="cls-38" points="24.56 73.85 10.95 65.99 10.95 62.06 24.56 69.92 24.56 73.85"/>
          <polygon class="cls-6" points="24.56 73.85 10.95 65.99 10.95 62.06 24.56 69.92 24.56 73.85"/>
          <g>
            <g class="cls-36">
              <path class="cls-11" d="M13.1,64.29l3.35,1.93c.25,.14,.45,.5,.45,.79v.92c0,.29-.2,.41-.45,.26l-3.35-1.93c-.25-.14-.45-.5-.45-.79v-.92c0-.29,.2-.41,.45-.26Z"/>
            </g>
            <g>
              <g>
                <path class="cls-38" d="M13.53,65.33l.21-.12h0s0,0,0,0h0c.07-.04,.17-.03,.28,.03,.22,.13,.39,.43,.39,.68,0,.13-.04,.21-.12,.25h0s0,0,0,0h0s-.19,.11-.19,.11l-.03-.06s-.07-.02-.11-.04c-.22-.13-.39-.43-.39-.68,0-.04,0-.07,.01-.1l-.04-.07Z"/>
                <path class="cls-28" d="M13.53,65.33l.21-.12h0s0,0,0,0h0c.07-.04,.17-.03,.28,.03,.22,.13,.39,.43,.39,.68,0,.13-.04,.21-.12,.25h0s0,0,0,0h0s-.19,.11-.19,.11l-.03-.06s-.07-.02-.11-.04c-.22-.13-.39-.43-.39-.68,0-.04,0-.07,.01-.1l-.04-.07Z"/>
                <path class="cls-38" d="M13.82,65.35c.22,.13,.39,.43,.39,.68s-.18,.35-.39,.23c-.22-.13-.39-.43-.39-.68,0-.25,.18-.35,.39-.23Z"/>
              </g>
              <g>
                <path class="cls-38" d="M15.24,66.31l.21-.12h0s0,0,0,0h0c.07-.04,.17-.03,.28,.03,.22,.13,.39,.43,.39,.68,0,.13-.04,.21-.12,.25h0s0,0,0,0h0s-.19,.11-.19,.11l-.03-.06s-.07-.02-.11-.04c-.22-.13-.39-.43-.39-.68,0-.04,0-.07,.01-.1l-.04-.07Z"/>
                <path class="cls-28" d="M15.24,66.31l.21-.12h0s0,0,0,0h0c.07-.04,.17-.03,.28,.03,.22,.13,.39,.43,.39,.68,0,.13-.04,.21-.12,.25h0s0,0,0,0h0s-.19,.11-.19,.11l-.03-.06s-.07-.02-.11-.04c-.22-.13-.39-.43-.39-.68,0-.04,0-.07,.01-.1l-.04-.07Z"/>
                <path class="cls-38" d="M15.53,66.34c.22,.13,.39,.43,.39,.68,0,.25-.18,.35-.39,.23-.22-.13-.39-.43-.39-.68,0-.25,.18-.35,.39-.23Z"/>
              </g>
            </g>
          </g>
          <polygon class="cls-25" points="36.46 67.96 36.46 66.97 24.56 73.85 24.56 74.83 36.46 67.96"/>
          <g>
            <polygon class="cls-38" points="11.8 66.48 11.8 67.47 24.56 74.83 24.56 73.85 11.8 66.48"/>
            <polygon class="cls-23" points="11.8 66.48 11.8 67.47 24.56 74.83 24.56 73.85 11.8 66.48"/>
          </g>
          <g>
            <path class="cls-38" d="M28.45,69.38l-.21-.12h0s0,0,0,0h0c-.07-.04-.17-.03-.28,.03-.22,.13-.39,.43-.39,.68,0,.13,.04,.21,.12,.25h0s0,0,0,0h0s.19,.11,.19,.11l.03-.06s.07-.02,.11-.04c.22-.13,.39-.43,.39-.68,0-.04,0-.07-.01-.1l.04-.07Z"/>
            <path class="cls-34" d="M28.45,69.38l-.21-.12h0s0,0,0,0h0c-.07-.04-.17-.03-.28,.03-.22,.13-.39,.43-.39,.68,0,.13,.04,.21,.12,.25h0s0,0,0,0h0s.19,.11,.19,.11l.03-.06s.07-.02,.11-.04c.22-.13,.39-.43,.39-.68,0-.04,0-.07-.01-.1l.04-.07Z"/>
            <path class="cls-38" d="M28.17,69.4c-.22,.13-.39,.43-.39,.68s.18,.35,.39,.23c.22-.13,.39-.43,.39-.68,0-.25-.18-.35-.39-.23Z"/>
            <path class="cls-28" d="M28.17,69.4c-.22,.13-.39,.43-.39,.68s.18,.35,.39,.23c.22-.13,.39-.43,.39-.68,0-.25-.18-.35-.39-.23Z"/>
          </g>
          <g>
            <path class="cls-38" d="M26.74,70.36l-.21-.12h0s0,0,0,0h0c-.07-.04-.17-.03-.28,.03-.22,.13-.39,.43-.39,.68,0,.13,.04,.21,.12,.25h0s0,0,0,0h0s.19,.11,.19,.11l.03-.06s.07-.02,.11-.04c.22-.13,.39-.43,.39-.68,0-.04,0-.07-.01-.1l.04-.07Z"/>
            <path class="cls-34" d="M26.74,70.36l-.21-.12h0s0,0,0,0h0c-.07-.04-.17-.03-.28,.03-.22,.13-.39,.43-.39,.68,0,.13,.04,.21,.12,.25h0s0,0,0,0h0s.19,.11,.19,.11l.03-.06s.07-.02,.11-.04c.22-.13,.39-.43,.39-.68,0-.04,0-.07-.01-.1l.04-.07Z"/>
            <path class="cls-38" d="M26.46,70.39c-.22,.13-.39,.43-.39,.68s.18,.35,.39,.23c.22-.13,.39-.43,.39-.68,0-.25-.18-.35-.39-.23Z"/>
            <path class="cls-28" d="M26.46,70.39c-.22,.13-.39,.43-.39,.68s.18,.35,.39,.23c.22-.13,.39-.43,.39-.68,0-.25-.18-.35-.39-.23Z"/>
          </g>
        </g>
        <g>
          <polygon class="cls-38" points="38.16 56.17 24.56 64.03 10.95 56.17 24.56 48.32 38.16 56.17"/>
          <polygon class="cls-35" points="38.16 56.17 24.56 64.03 10.95 56.17 24.56 48.32 38.16 56.17"/>
          <polygon class="cls-15" points="24.56 64.03 24.56 63.05 11.8 55.68 10.95 56.17 24.56 64.03"/>
          <polygon class="cls-38" points="38.16 60.1 24.56 67.96 24.56 64.03 38.16 56.17 38.16 60.1"/>
          <polygon class="cls-2" points="38.16 60.1 24.56 67.96 24.56 64.03 38.16 56.17 38.16 60.1"/>
          <g>
            <path class="cls-17" d="M36.86,57.9l-6.75,3.9c-.25,.14-.45,.5-.45,.79v.92c0,.29,.2,.41,.45,.26l6.75-3.9c.25-.14,.45-.5,.45-.79v-.92c0-.29-.2-.41-.45-.26Z"/>
            <g>
              <path class="cls-43" d="M36.84,58.68v.44c0,.06-.04,.13-.09,.16l-.1,.06c-.05,.03-.09,0-.09-.05v-.44c0-.06,.04-.13,.09-.16l.1-.06c.05-.03,.09,0,.09,.05Z"/>
              <path class="cls-43" d="M36.38,58.94v.44c0,.06-.04,.13-.09,.16l-.1,.06c-.05,.03-.09,0-.09-.05v-.44c0-.06,.04-.13,.09-.16l.1-.06c.05-.03,.09,0,.09,.05Z"/>
              <path class="cls-43" d="M35.92,59.21v.44c0,.06-.04,.13-.09,.16l-.1,.06c-.05,.03-.09,0-.09-.05v-.44c0-.06,.04-.13,.09-.16l.1-.06c.05-.03,.09,0,.09,.05Z"/>
              <path class="cls-43" d="M35.46,59.47v.44c0,.06-.04,.13-.09,.16l-.1,.06c-.05,.03-.09,0-.09-.05v-.44c0-.06,.04-.13,.09-.16l.1-.06c.05-.03,.09,0,.09,.05Z"/>
              <path class="cls-16" d="M35,59.74v.44c0,.06-.04,.13-.09,.16l-.1,.06c-.05,.03-.09,0-.09-.05v-.44c0-.06,.04-.13,.09-.16l.1-.06c.05-.03,.09,0,.09,.05Z"/>
              <path class="cls-16" d="M34.54,60v.44c0,.06-.04,.13-.09,.16l-.1,.06c-.05,.03-.09,0-.09-.05v-.44c0-.06,.04-.13,.09-.16l.1-.06c.05-.03,.09,0,.09,.05Z"/>
              <path class="cls-43" d="M34.09,60.27v.44c0,.06-.04,.13-.09,.16l-.1,.06c-.05,.03-.09,0-.09-.05v-.44c0-.06,.04-.13,.09-.16l.1-.06c.05-.03,.09,0,.09,.05Z"/>
              <path class="cls-43" d="M33.63,60.53v.44c0,.06-.04,.13-.09,.16l-.1,.06c-.05,.03-.09,0-.09-.05v-.44c0-.06,.04-.13,.09-.16l.1-.06c.05-.03,.09,0,.09,.05Z"/>
              <path class="cls-43" d="M33.17,60.79v.44c0,.06-.04,.13-.09,.16l-.1,.06c-.05,.03-.09,0-.09-.05v-.44c0-.06,.04-.13,.09-.16l.1-.06c.05-.03,.09,0,.09,.05Z"/>
              <path class="cls-16" d="M32.71,61.06v.44c0,.06-.04,.13-.09,.16l-.1,.06c-.05,.03-.09,0-.09-.05v-.44c0-.06,.04-.13,.09-.16l.1-.06c.05-.03,.09,0,.09,.05Z"/>
              <path class="cls-43" d="M32.25,61.32v.44c0,.06-.04,.13-.09,.16l-.1,.06c-.05,.03-.09,0-.09-.05v-.44c0-.06,.04-.13,.09-.16l.1-.06c.05-.03,.09,0,.09,.05Z"/>
              <path class="cls-43" d="M31.8,61.59v.44c0,.06-.04,.13-.09,.16l-.1,.06c-.05,.03-.09,0-.09-.05v-.44c0-.06,.04-.13,.09-.16l.1-.06c.05-.03,.09,0,.09,.05Z"/>
              <path class="cls-16" d="M31.34,61.85v.44c0,.06-.04,.13-.09,.16l-.1,.06c-.05,.03-.09,0-.09-.05v-.44c0-.06,.04-.13,.09-.16l.1-.06c.05-.03,.09,0,.09,.05Z"/>
              <path class="cls-43" d="M30.88,62.11v.44c0,.06-.04,.13-.09,.16l-.1,.06c-.05,.03-.09,0-.09-.05v-.44c0-.06,.04-.13,.09-.16l.1-.06c.05-.03,.09,0,.09,.05Z"/>
              <path class="cls-16" d="M30.42,62.38v.44c0,.06-.04,.13-.09,.16l-.1,.06c-.05,.03-.09,0-.09-.05v-.44c0-.06,.04-.13,.09-.16l.1-.06c.05-.03,.09,0,.09,.05Z"/>
            </g>
          </g>
          <polygon class="cls-38" points="24.56 67.96 10.95 60.1 10.95 56.17 24.56 64.03 24.56 67.96"/>
          <polygon class="cls-4" points="24.56 67.96 10.95 60.1 10.95 56.17 24.56 64.03 24.56 67.96"/>
          <g>
            <g class="cls-36">
              <path class="cls-11" d="M13.1,58.4l3.35,1.93c.25,.14,.45,.5,.45,.79v.92c0,.29-.2,.41-.45,.26l-3.35-1.93c-.25-.14-.45-.5-.45-.79v-.92c0-.29,.2-.41,.45-.26Z"/>
            </g>
            <g>
              <g>
                <path class="cls-38" d="M13.53,59.43l.21-.12h0s0,0,0,0h0c.07-.04,.17-.03,.28,.03,.22,.13,.39,.43,.39,.68,0,.13-.04,.21-.12,.25h0s0,0,0,0h0s-.19,.11-.19,.11l-.03-.06s-.07-.02-.11-.04c-.22-.13-.39-.43-.39-.68,0-.04,0-.07,.01-.1l-.04-.07Z"/>
                <path class="cls-28" d="M13.53,59.43l.21-.12h0s0,0,0,0h0c.07-.04,.17-.03,.28,.03,.22,.13,.39,.43,.39,.68,0,.13-.04,.21-.12,.25h0s0,0,0,0h0s-.19,.11-.19,.11l-.03-.06s-.07-.02-.11-.04c-.22-.13-.39-.43-.39-.68,0-.04,0-.07,.01-.1l-.04-.07Z"/>
                <path class="cls-38" d="M13.82,59.45c.22,.13,.39,.43,.39,.68s-.18,.35-.39,.23c-.22-.13-.39-.43-.39-.68,0-.25,.18-.35,.39-.23Z"/>
              </g>
              <g>
                <path class="cls-38" d="M15.24,60.42l.21-.12h0s0,0,0,0h0c.07-.04,.17-.03,.28,.03,.22,.13,.39,.43,.39,.68,0,.13-.04,.21-.12,.25h0s0,0,0,0h0s-.19,.11-.19,.11l-.03-.06s-.07-.02-.11-.04c-.22-.13-.39-.43-.39-.68,0-.04,0-.07,.01-.1l-.04-.07Z"/>
                <path class="cls-28" d="M15.24,60.42l.21-.12h0s0,0,0,0h0c.07-.04,.17-.03,.28,.03,.22,.13,.39,.43,.39,.68,0,.13-.04,.21-.12,.25h0s0,0,0,0h0s-.19,.11-.19,.11l-.03-.06s-.07-.02-.11-.04c-.22-.13-.39-.43-.39-.68,0-.04,0-.07,.01-.1l-.04-.07Z"/>
                <path class="cls-38" d="M15.53,60.44c.22,.13,.39,.43,.39,.68,0,.25-.18,.35-.39,.23-.22-.13-.39-.43-.39-.68,0-.25,.18-.35,.39-.23Z"/>
              </g>
            </g>
          </g>
          <polygon class="cls-26" points="36.46 62.06 36.46 61.08 24.56 67.96 24.56 68.94 36.46 62.06"/>
          <polygon class="cls-39" points="11.8 60.59 11.8 61.57 24.56 68.94 24.56 67.96 11.8 60.59"/>
          <g>
            <path class="cls-38" d="M28.45,63.48l-.21-.12h0s0,0,0,0h0c-.07-.04-.17-.03-.28,.03-.22,.13-.39,.43-.39,.68,0,.13,.04,.21,.12,.25h0s0,0,0,0h0s.19,.11,.19,.11l.03-.06s.07-.02,.11-.04c.22-.13,.39-.43,.39-.68,0-.04,0-.07-.01-.1l.04-.07Z"/>
            <path class="cls-34" d="M28.45,63.48l-.21-.12h0s0,0,0,0h0c-.07-.04-.17-.03-.28,.03-.22,.13-.39,.43-.39,.68,0,.13,.04,.21,.12,.25h0s0,0,0,0h0s.19,.11,.19,.11l.03-.06s.07-.02,.11-.04c.22-.13,.39-.43,.39-.68,0-.04,0-.07-.01-.1l.04-.07Z"/>
            <path class="cls-38" d="M28.17,63.51c-.22,.13-.39,.43-.39,.68s.18,.35,.39,.23c.22-.13,.39-.43,.39-.68,0-.25-.18-.35-.39-.23Z"/>
            <path class="cls-28" d="M28.17,63.51c-.22,.13-.39,.43-.39,.68s.18,.35,.39,.23c.22-.13,.39-.43,.39-.68,0-.25-.18-.35-.39-.23Z"/>
          </g>
          <g>
            <path class="cls-38" d="M26.74,64.47l-.21-.12h0s0,0,0,0h0c-.07-.04-.17-.03-.28,.03-.22,.13-.39,.43-.39,.68,0,.13,.04,.21,.12,.25h0s0,0,0,0h0s.19,.11,.19,.11l.03-.06s.07-.02,.11-.04c.22-.13,.39-.43,.39-.68,0-.04,0-.07-.01-.1l.04-.07Z"/>
            <path class="cls-34" d="M26.74,64.47l-.21-.12h0s0,0,0,0h0c-.07-.04-.17-.03-.28,.03-.22,.13-.39,.43-.39,.68,0,.13,.04,.21,.12,.25h0s0,0,0,0h0s.19,.11,.19,.11l.03-.06s.07-.02,.11-.04c.22-.13,.39-.43,.39-.68,0-.04,0-.07-.01-.1l.04-.07Z"/>
            <path class="cls-38" d="M26.46,64.49c-.22,.13-.39,.43-.39,.68s.18,.35,.39,.23c.22-.13,.39-.43,.39-.68,0-.25-.18-.35-.39-.23Z"/>
            <path class="cls-28" d="M26.46,64.49c-.22,.13-.39,.43-.39,.68s.18,.35,.39,.23c.22-.13,.39-.43,.39-.68,0-.25-.18-.35-.39-.23Z"/>
          </g>
        </g>
        <g>
          <polygon class="cls-38" points="38.16 50.28 24.56 58.14 10.95 50.28 24.56 42.42 38.16 50.28"/>
          <polygon class="cls-14" points="38.16 50.28 24.56 58.14 10.95 50.28 24.56 42.42 38.16 50.28"/>
          <polygon class="cls-45" points="38.16 50.28 24.56 58.14 10.95 50.28 24.56 42.42 38.16 50.28"/>
          <polygon class="cls-48" points="24.56 57.16 24.56 58.14 10.95 50.28 11.8 49.79 24.56 57.16"/>
          <polygon class="cls-38" points="38.16 54.21 24.56 62.06 24.56 58.14 38.16 50.28 38.16 54.21"/>
          <polygon class="cls-7" points="38.16 54.21 24.56 62.06 24.56 58.14 38.16 50.28 38.16 54.21"/>
          <g>
            <path class="cls-17" d="M36.86,52.02l-6.75,3.9c-.25,.14-.45,.5-.45,.79v.92c0,.29,.2,.41,.45,.26l6.75-3.9c.25-.14,.45-.5,.45-.79v-.92c0-.29-.2-.41-.45-.26Z"/>
            <g>
              <path class="cls-43" d="M36.84,52.79v.44c0,.06-.04,.13-.09,.16l-.1,.06c-.05,.03-.09,0-.09-.05v-.44c0-.06,.04-.13,.09-.16l.1-.06c.05-.03,.09,0,.09,.05Z"/>
              <path class="cls-16" d="M36.38,53.06v.44c0,.06-.04,.13-.09,.16l-.1,.06c-.05,.03-.09,0-.09-.05v-.44c0-.06,.04-.13,.09-.16l.1-.06c.05-.03,.09,0,.09,.05Z"/>
              <path class="cls-43" d="M35.92,53.32v.44c0,.06-.04,.13-.09,.16l-.1,.06c-.05,.03-.09,0-.09-.05v-.44c0-.06,.04-.13,.09-.16l.1-.06c.05-.03,.09,0,.09,.05Z"/>
              <path class="cls-43" d="M35.46,53.59v.44c0,.06-.04,.13-.09,.16l-.1,.06c-.05,.03-.09,0-.09-.05v-.44c0-.06,.04-.13,.09-.16l.1-.06c.05-.03,.09,0,.09,.05Z"/>
              <path class="cls-43" d="M35,53.85v.44c0,.06-.04,.13-.09,.16l-.1,.06c-.05,.03-.09,0-.09-.05v-.44c0-.06,.04-.13,.09-.16l.1-.06c.05-.03,.09,0,.09,.05Z"/>
              <path class="cls-16" d="M34.54,54.11v.44c0,.06-.04,.13-.09,.16l-.1,.06c-.05,.03-.09,0-.09-.05v-.44c0-.06,.04-.13,.09-.16l.1-.06c.05-.03,.09,0,.09,.05Z"/>
              <path class="cls-16" d="M34.09,54.38v.44c0,.06-.04,.13-.09,.16l-.1,.06c-.05,.03-.09,0-.09-.05v-.44c0-.06,.04-.13,.09-.16l.1-.06c.05-.03,.09,0,.09,.05Z"/>
              <path class="cls-43" d="M33.63,54.64v.44c0,.06-.04,.13-.09,.16l-.1,.06c-.05,.03-.09,0-.09-.05v-.44c0-.06,.04-.13,.09-.16l.1-.06c.05-.03,.09,0,.09,.05Z"/>
              <path class="cls-16" d="M33.17,54.91v.44c0,.06-.04,.13-.09,.16l-.1,.06c-.05,.03-.09,0-.09-.05v-.44c0-.06,.04-.13,.09-.16l.1-.06c.05-.03,.09,0,.09,.05Z"/>
              <path class="cls-43" d="M32.71,55.17v.44c0,.06-.04,.13-.09,.16l-.1,.06c-.05,.03-.09,0-.09-.05v-.44c0-.06,.04-.13,.09-.16l.1-.06c.05-.03,.09,0,.09,.05Z"/>
              <path class="cls-43" d="M32.25,55.43v.44c0,.06-.04,.13-.09,.16l-.1,.06c-.05,.03-.09,0-.09-.05v-.44c0-.06,.04-.13,.09-.16l.1-.06c.05-.03,.09,0,.09,.05Z"/>
              <path class="cls-43" d="M31.8,55.7v.44c0,.06-.04,.13-.09,.16l-.1,.06c-.05,.03-.09,0-.09-.05v-.44c0-.06,.04-.13,.09-.16l.1-.06c.05-.03,.09,0,.09,.05Z"/>
              <path class="cls-16" d="M31.34,55.96v.44c0,.06-.04,.13-.09,.16l-.1,.06c-.05,.03-.09,0-.09-.05v-.44c0-.06,.04-.13,.09-.16l.1-.06c.05-.03,.09,0,.09,.05Z"/>
              <path class="cls-43" d="M30.88,56.23v.44c0,.06-.04,.13-.09,.16l-.1,.06c-.05,.03-.09,0-.09-.05v-.44c0-.06,.04-.13,.09-.16l.1-.06c.05-.03,.09,0,.09,.05Z"/>
              <path class="cls-43" d="M30.42,56.49v.44c0,.06-.04,.13-.09,.16l-.1,.06c-.05,.03-.09,0-.09-.05v-.44c0-.06,.04-.13,.09-.16l.1-.06c.05-.03,.09,0,.09,.05Z"/>
            </g>
          </g>
          <polygon class="cls-38" points="24.56 62.06 10.95 54.21 10.95 50.28 24.56 58.14 24.56 62.06"/>
          <polygon class="cls-5" points="24.56 62.06 10.95 54.21 10.95 50.28 24.56 58.14 24.56 62.06"/>
          <g>
            <g class="cls-36">
              <path class="cls-11" d="M13.1,52.51l3.35,1.93c.25,.14,.45,.5,.45,.79v.92c0,.29-.2,.41-.45,.26l-3.35-1.93c-.25-.14-.45-.5-.45-.79v-.92c0-.29,.2-.41,.45-.26Z"/>
            </g>
            <g>
              <g>
                <path class="cls-38" d="M13.53,53.55l.21-.12h0s0,0,0,0h0c.07-.04,.17-.03,.28,.03,.22,.13,.39,.43,.39,.68,0,.13-.04,.21-.12,.25h0s0,0,0,0h0s-.19,.11-.19,.11l-.03-.06s-.07-.02-.11-.04c-.22-.13-.39-.43-.39-.68,0-.04,0-.07,.01-.1l-.04-.07Z"/>
                <path class="cls-28" d="M13.53,53.55l.21-.12h0s0,0,0,0h0c.07-.04,.17-.03,.28,.03,.22,.13,.39,.43,.39,.68,0,.13-.04,.21-.12,.25h0s0,0,0,0h0s-.19,.11-.19,.11l-.03-.06s-.07-.02-.11-.04c-.22-.13-.39-.43-.39-.68,0-.04,0-.07,.01-.1l-.04-.07Z"/>
                <path class="cls-38" d="M13.82,53.57c.22,.13,.39,.43,.39,.68s-.18,.35-.39,.23c-.22-.13-.39-.43-.39-.68,0-.25,.18-.35,.39-.23Z"/>
              </g>
              <g>
                <path class="cls-38" d="M15.24,54.53l.21-.12h0s0,0,0,0h0c.07-.04,.17-.03,.28,.03,.22,.13,.39,.43,.39,.68,0,.13-.04,.21-.12,.25h0s0,0,0,0h0s-.19,.11-.19,.11l-.03-.06s-.07-.02-.11-.04c-.22-.13-.39-.43-.39-.68,0-.04,0-.07,.01-.1l-.04-.07Z"/>
                <path class="cls-28" d="M15.24,54.53l.21-.12h0s0,0,0,0h0c.07-.04,.17-.03,.28,.03,.22,.13,.39,.43,.39,.68,0,.13-.04,.21-.12,.25h0s0,0,0,0h0s-.19,.11-.19,.11l-.03-.06s-.07-.02-.11-.04c-.22-.13-.39-.43-.39-.68,0-.04,0-.07,.01-.1l-.04-.07Z"/>
                <path class="cls-38" d="M15.53,54.56c.22,.13,.39,.43,.39,.68,0,.25-.18,.35-.39,.23-.22-.13-.39-.43-.39-.68,0-.25,.18-.35,.39-.23Z"/>
              </g>
            </g>
          </g>
          <polygon class="cls-50" points="36.46 56.17 36.46 55.19 24.56 62.06 24.56 63.05 36.46 56.17"/>
          <polygon class="cls-46" points="11.8 54.7 11.8 55.68 24.56 63.05 24.56 62.06 11.8 54.7"/>
          <g>
            <path class="cls-38" d="M28.45,57.59l-.21-.12h0s0,0,0,0h0c-.07-.04-.17-.03-.28,.03-.22,.13-.39,.43-.39,.68,0,.13,.04,.21,.12,.25h0s0,0,0,0h0s.19,.11,.19,.11l.03-.06s.07-.02,.11-.04c.22-.13,.39-.43,.39-.68,0-.04,0-.07-.01-.1l.04-.07Z"/>
            <path class="cls-34" d="M28.45,57.59l-.21-.12h0s0,0,0,0h0c-.07-.04-.17-.03-.28,.03-.22,.13-.39,.43-.39,.68,0,.13,.04,.21,.12,.25h0s0,0,0,0h0s.19,.11,.19,.11l.03-.06s.07-.02,.11-.04c.22-.13,.39-.43,.39-.68,0-.04,0-.07-.01-.1l.04-.07Z"/>
            <path class="cls-38" d="M28.17,57.61c-.22,.13-.39,.43-.39,.68s.18,.35,.39,.23c.22-.13,.39-.43,.39-.68,0-.25-.18-.35-.39-.23Z"/>
            <path class="cls-28" d="M28.17,57.61c-.22,.13-.39,.43-.39,.68s.18,.35,.39,.23c.22-.13,.39-.43,.39-.68,0-.25-.18-.35-.39-.23Z"/>
          </g>
          <g>
            <path class="cls-38" d="M26.74,58.58l-.21-.12h0s0,0,0,0h0c-.07-.04-.17-.03-.28,.03-.22,.13-.39,.43-.39,.68,0,.13,.04,.21,.12,.25h0s0,0,0,0h0s.19,.11,.19,.11l.03-.06s.07-.02,.11-.04c.22-.13,.39-.43,.39-.68,0-.04,0-.07-.01-.1l.04-.07Z"/>
            <path class="cls-34" d="M26.74,58.58l-.21-.12h0s0,0,0,0h0c-.07-.04-.17-.03-.28,.03-.22,.13-.39,.43-.39,.68,0,.13,.04,.21,.12,.25h0s0,0,0,0h0s.19,.11,.19,.11l.03-.06s.07-.02,.11-.04c.22-.13,.39-.43,.39-.68,0-.04,0-.07-.01-.1l.04-.07Z"/>
            <path class="cls-38" d="M26.46,58.6c-.22,.13-.39,.43-.39,.68s.18,.35,.39,.23c.22-.13,.39-.43,.39-.68,0-.25-.18-.35-.39-.23Z"/>
            <path class="cls-28" d="M26.46,58.6c-.22,.13-.39,.43-.39,.68s.18,.35,.39,.23c.22-.13,.39-.43,.39-.68,0-.25-.18-.35-.39-.23Z"/>
          </g>
        </g>
        <g>
          <path class="cls-38" d="M11.49,44.07l12.53-7.23c.3-.17,.79-.17,1.09,0l12.51,7.23c.3,.17,.54,.6,.54,.94v3.3l-13.62,7.86h0l-13.6-7.86v-3.3c0-.35,.24-.77,.54-.94Z"/>
          <path class="cls-9" d="M11.49,44.07l12.53-7.23c.3-.17,.79-.17,1.09,0l12.51,7.23c.3,.17,.54,.6,.54,.94v3.3l-13.62,7.86h0l-13.6-7.86v-3.3c0-.35,.24-.77,.54-.94Z"/>
          <g>
            <g class="cls-36">
              <path class="cls-11" d="M13.1,46.61l3.35,1.93c.25,.14,.45,.5,.45,.79v.92c0,.29-.2,.41-.45,.26l-3.35-1.93c-.25-.14-.45-.5-.45-.79v-.92c0-.29,.2-.41,.45-.26Z"/>
            </g>
            <g>
              <g>
                <path class="cls-38" d="M13.53,47.65l.21-.12h0s0,0,0,0h0c.07-.04,.17-.03,.28,.03,.22,.13,.39,.43,.39,.68,0,.13-.04,.21-.12,.25h0s0,0,0,0h0s-.19,.11-.19,.11l-.03-.06s-.07-.02-.11-.04c-.22-.13-.39-.43-.39-.68,0-.04,0-.07,.01-.1l-.04-.07Z"/>
                <path class="cls-28" d="M13.53,47.65l.21-.12h0s0,0,0,0h0c.07-.04,.17-.03,.28,.03,.22,.13,.39,.43,.39,.68,0,.13-.04,.21-.12,.25h0s0,0,0,0h0s-.19,.11-.19,.11l-.03-.06s-.07-.02-.11-.04c-.22-.13-.39-.43-.39-.68,0-.04,0-.07,.01-.1l-.04-.07Z"/>
                <path class="cls-38" d="M13.82,47.67c.22,.13,.39,.43,.39,.68s-.18,.35-.39,.23c-.22-.13-.39-.43-.39-.68,0-.25,.18-.35,.39-.23Z"/>
              </g>
              <g>
                <path class="cls-38" d="M15.24,48.64l.21-.12h0s0,0,0,0h0c.07-.04,.17-.03,.28,.03,.22,.13,.39,.43,.39,.68,0,.13-.04,.21-.12,.25h0s0,0,0,0h0s-.19,.11-.19,.11l-.03-.06s-.07-.02-.11-.04c-.22-.13-.39-.43-.39-.68,0-.04,0-.07,.01-.1l-.04-.07Z"/>
                <path class="cls-28" d="M15.24,48.64l.21-.12h0s0,0,0,0h0c.07-.04,.17-.03,.28,.03,.22,.13,.39,.43,.39,.68,0,.13-.04,.21-.12,.25h0s0,0,0,0h0s-.19,.11-.19,.11l-.03-.06s-.07-.02-.11-.04c-.22-.13-.39-.43-.39-.68,0-.04,0-.07,.01-.1l-.04-.07Z"/>
                <path class="cls-38" d="M15.53,48.66c.22,.13,.39,.43,.39,.68,0,.25-.18,.35-.39,.23-.22-.13-.39-.43-.39-.68,0-.25,.18-.35,.39-.23Z"/>
              </g>
            </g>
          </g>
          <path class="cls-38" d="M24.55,52.06v4.11l13.62-7.86v-3.3c0-.31-.19-.68-.45-.87,.2,.17,.17,.41-.1,.56l-12.53,7.23c-.15,.09-.35,.13-.54,.13Z"/>
          <path class="cls-10" d="M24.55,52.06v4.11l13.62-7.86v-3.3c0-.31-.19-.68-.45-.87,.2,.17,.17,.41-.1,.56l-12.53,7.23c-.15,.09-.35,.13-.54,.13Z"/>
          <g>
            <path class="cls-17" d="M36.86,46.12l-6.75,3.9c-.25,.14-.45,.5-.45,.79v.92c0,.29,.2,.41,.45,.26l6.75-3.9c.25-.14,.45-.5,.45-.79v-.92c0-.29-.2-.41-.45-.26Z"/>
            <g>
              <path class="cls-16" d="M36.84,46.9v.44c0,.06-.04,.13-.09,.16l-.1,.06c-.05,.03-.09,0-.09-.05v-.44c0-.06,.04-.13,.09-.16l.1-.06c.05-.03,.09,0,.09,.05Z"/>
              <path class="cls-43" d="M36.38,47.16v.44c0,.06-.04,.13-.09,.16l-.1,.06c-.05,.03-.09,0-.09-.05v-.44c0-.06,.04-.13,.09-.16l.1-.06c.05-.03,.09,0,.09,.05Z"/>
              <path class="cls-16" d="M35.92,47.43v.44c0,.06-.04,.13-.09,.16l-.1,.06c-.05,.03-.09,0-.09-.05v-.44c0-.06,.04-.13,.09-.16l.1-.06c.05-.03,.09,0,.09,.05Z"/>
              <path class="cls-16" d="M35.46,47.69v.44c0,.06-.04,.13-.09,.16l-.1,.06c-.05,.03-.09,0-.09-.05v-.44c0-.06,.04-.13,.09-.16l.1-.06c.05-.03,.09,0,.09,.05Z"/>
              <path class="cls-16" d="M35,47.96v.44c0,.06-.04,.13-.09,.16l-.1,.06c-.05,.03-.09,0-.09-.05v-.44c0-.06,.04-.13,.09-.16l.1-.06c.05-.03,.09,0,.09,.05Z"/>
              <path class="cls-43" d="M34.54,48.22v.44c0,.06-.04,.13-.09,.16l-.1,.06c-.05,.03-.09,0-.09-.05v-.44c0-.06,.04-.13,.09-.16l.1-.06c.05-.03,.09,0,.09,.05Z"/>
              <path class="cls-43" d="M34.09,48.48v.44c0,.06-.04,.13-.09,.16l-.1,.06c-.05,.03-.09,0-.09-.05v-.44c0-.06,.04-.13,.09-.16l.1-.06c.05-.03,.09,0,.09,.05Z"/>
              <path class="cls-16" d="M33.63,48.75v.44c0,.06-.04,.13-.09,.16l-.1,.06c-.05,.03-.09,0-.09-.05v-.44c0-.06,.04-.13,.09-.16l.1-.06c.05-.03,.09,0,.09,.05Z"/>
              <path class="cls-43" d="M33.17,49.01v.44c0,.06-.04,.13-.09,.16l-.1,.06c-.05,.03-.09,0-.09-.05v-.44c0-.06,.04-.13,.09-.16l.1-.06c.05-.03,.09,0,.09,.05Z"/>
              <path class="cls-16" d="M32.71,49.28v.44c0,.06-.04,.13-.09,.16l-.1,.06c-.05,.03-.09,0-.09-.05v-.44c0-.06,.04-.13,.09-.16l.1-.06c.05-.03,.09,0,.09,.05Z"/>
              <path class="cls-16" d="M32.25,49.54v.44c0,.06-.04,.13-.09,.16l-.1,.06c-.05,.03-.09,0-.09-.05v-.44c0-.06,.04-.13,.09-.16l.1-.06c.05-.03,.09,0,.09,.05Z"/>
              <path class="cls-16" d="M31.8,49.81v.44c0,.06-.04,.13-.09,.16l-.1,.06c-.05,.03-.09,0-.09-.05v-.44c0-.06,.04-.13,.09-.16l.1-.06c.05-.03,.09,0,.09,.05Z"/>
              <path class="cls-43" d="M31.34,50.07v.44c0,.06-.04,.13-.09,.16l-.1,.06c-.05,.03-.09,0-.09-.05v-.44c0-.06,.04-.13,.09-.16l.1-.06c.05-.03,.09,0,.09,.05Z"/>
              <path class="cls-16" d="M30.88,50.33v.44c0,.06-.04,.13-.09,.16l-.1,.06c-.05,.03-.09,0-.09-.05v-.44c0-.06,.04-.13,.09-.16l.1-.06c.05-.03,.09,0,.09,.05Z"/>
              <path class="cls-16" d="M30.42,50.6v.44c0,.06-.04,.13-.09,.16l-.1,.06c-.05,.03-.09,0-.09-.05v-.44c0-.06,.04-.13,.09-.16l.1-.06c.05-.03,.09,0,.09,.05Z"/>
            </g>
          </g>
          <path class="cls-38" d="M37.62,44.7l-12.53,7.23c-.3,.17-.79,.17-1.09,0l-12.51-7.23c-.3-.17-.3-.45,0-.63l12.53-7.23c.3-.17,.79-.17,1.09,0l12.51,7.23c.3,.17,.3,.45,0,.63Z"/>
          <path class="cls-47" d="M37.62,44.7l-12.53,7.23c-.3,.17-.79,.17-1.09,0l-12.51-7.23c-.3-.17-.3-.45,0-.63l12.53-7.23c.3-.17,.79-.17,1.09,0l12.51,7.23c.3,.17,.3,.45,0,.63Z"/>
          <polygon class="cls-37" points="36.46 50.28 36.46 49.3 24.56 56.17 24.56 57.16 36.46 50.28"/>
          <polygon class="cls-29" points="11.8 48.81 11.8 49.79 24.56 57.16 24.56 56.17 11.8 48.81"/>
          <g>
            <path class="cls-38" d="M28.45,51.7l-.21-.12h0s0,0,0,0h0c-.07-.04-.17-.03-.28,.03-.22,.13-.39,.43-.39,.68,0,.13,.04,.21,.12,.25h0s0,0,0,0h0s.19,.11,.19,.11l.03-.06s.07-.02,.11-.04c.22-.13,.39-.43,.39-.68,0-.04,0-.07-.01-.1l.04-.07Z"/>
            <path class="cls-34" d="M28.45,51.7l-.21-.12h0s0,0,0,0h0c-.07-.04-.17-.03-.28,.03-.22,.13-.39,.43-.39,.68,0,.13,.04,.21,.12,.25h0s0,0,0,0h0s.19,.11,.19,.11l.03-.06s.07-.02,.11-.04c.22-.13,.39-.43,.39-.68,0-.04,0-.07-.01-.1l.04-.07Z"/>
            <path class="cls-38" d="M28.17,51.72c-.22,.13-.39,.43-.39,.68s.18,.35,.39,.23c.22-.13,.39-.43,.39-.68,0-.25-.18-.35-.39-.23Z"/>
            <path class="cls-28" d="M28.17,51.72c-.22,.13-.39,.43-.39,.68s.18,.35,.39,.23c.22-.13,.39-.43,.39-.68,0-.25-.18-.35-.39-.23Z"/>
          </g>
          <g>
            <path class="cls-38" d="M26.74,52.69l-.21-.12h0s0,0,0,0h0c-.07-.04-.17-.03-.28,.03-.22,.13-.39,.43-.39,.68,0,.13,.04,.21,.12,.25h0s0,0,0,0h0s.19,.11,.19,.11l.03-.06s.07-.02,.11-.04c.22-.13,.39-.43,.39-.68,0-.04,0-.07-.01-.1l.04-.07Z"/>
            <path class="cls-34" d="M26.74,52.69l-.21-.12h0s0,0,0,0h0c-.07-.04-.17-.03-.28,.03-.22,.13-.39,.43-.39,.68,0,.13,.04,.21,.12,.25h0s0,0,0,0h0s.19,.11,.19,.11l.03-.06s.07-.02,.11-.04c.22-.13,.39-.43,.39-.68,0-.04,0-.07-.01-.1l.04-.07Z"/>
            <path class="cls-38" d="M26.46,52.71c-.22,.13-.39,.43-.39,.68s.18,.35,.39,.23c.22-.13,.39-.43,.39-.68,0-.25-.18-.35-.39-.23Z"/>
            <path class="cls-28" d="M26.46,52.71c-.22,.13-.39,.43-.39,.68s.18,.35,.39,.23c.22-.13,.39-.43,.39-.68,0-.25-.18-.35-.39-.23Z"/>
          </g>
        </g>
      </g>
      <g>
        <g>
          <path class="cls-38" d="M24.67,29.98s-.01-.03-.03-.05c-.05-.03-.12-.03-.17,0-.02,.01-.03,.03-.03,.05h0v1.41h0s.01,.03,.03,.05c.05,.03,.12,.03,.17,0,.02-.01,.03-.03,.03-.05h0v-1.41h0Z"/>
          <path class="cls-38" d="M24.67,31.83s-.01-.03-.03-.05c-.05-.03-.12-.03-.17,0-.02,.01-.03,.03-.03,.05h0v.67h0s.01,.03,.03,.05c.05,.03,.12,.03,.17,0,.02-.01,.03-.03,.03-.05h0v-.67h0Z"/>
          <path class="cls-38" d="M24.67,32.94s-.01-.03-.03-.05c-.05-.03-.12-.03-.17,0-.02,.01-.03,.03-.03,.05h0v.67h0s.01,.03,.03,.05c.05,.03,.12,.03,.17,0,.02-.01,.03-.03,.03-.05h0v-.67h0Z"/>
          <path class="cls-38" d="M24.67,34.05s-.01-.03-.03-.05c-.05-.03-.12-.03-.17,0-.02,.01-.03,.03-.03,.05h0v.67h0s.01,.03,.03,.05c.05,.03,.12,.03,.17,0,.02-.01,.03-.03,.03-.05h0v-.67h0Z"/>
          <path class="cls-38" d="M24.67,35.16s-.01-.03-.03-.05c-.05-.03-.12-.03-.17,0-.02,.01-.03,.03-.03,.05h0v.67h0s.01,.03,.03,.05c.05,.03,.12,.03,.17,0,.02-.01,.03-.03,.03-.05h0v-.67h0Z"/>
          <path class="cls-38" d="M24.67,36.27s-.01-.03-.03-.05c-.05-.03-.12-.03-.17,0-.02,.01-.03,.03-.03,.05h0v.67h0s.01,.03,.03,.05c.05,.03,.12,.03,.17,0,.02-.01,.03-.03,.03-.05h0v-.67h0Z"/>
          <path class="cls-38" d="M24.67,37.37s-.01-.03-.03-.05c-.05-.03-.12-.03-.17,0-.02,.01-.03,.03-.03,.05h0v.67h0s.01,.03,.03,.05c.05,.03,.12,.03,.17,0,.02-.01,.03-.03,.03-.05h0v-.67h0Z"/>
          <path class="cls-38" d="M24.67,38.48s-.01-.03-.03-.05c-.05-.03-.12-.03-.17,0-.02,.01-.03,.03-.03,.05h0v.67h0s.01,.03,.03,.05c.05,.03,.12,.03,.17,0,.02-.01,.03-.03,.03-.05h0v-.67h0Z"/>
          <path class="cls-38" d="M24.67,39.59s-.01-.03-.03-.05c-.05-.03-.12-.03-.17,0-.02,.01-.03,.03-.03,.05h0v.67h0s.01,.03,.03,.05c.05,.03,.12,.03,.17,0,.02-.01,.03-.03,.03-.05h0v-.67h0Z"/>
          <path class="cls-38" d="M24.67,40.7s-.01-.03-.03-.05c-.05-.03-.12-.03-.17,0-.02,.01-.03,.03-.03,.05h0v.67h0s.01,.03,.03,.05c.05,.03,.12,.03,.17,0,.02-.01,.03-.03,.03-.05h0v-.67h0Z"/>
          <path class="cls-38" d="M24.67,41.81s-.01-.03-.03-.05c-.05-.03-.12-.03-.17,0-.02,.01-.03,.03-.03,.05h0v.67h0s.01,.03,.03,.05c.05,.03,.12,.03,.17,0,.02-.01,.03-.03,.03-.05h0v-.67h0Z"/>
          <path class="cls-38" d="M24.67,42.92s-.01-.03-.03-.05c-.05-.03-.12-.03-.17,0-.02,.01-.03,.03-.03,.05h0v.67h0s.01,.03,.03,.05c.05,.03,.12,.03,.17,0,.02-.01,.03-.03,.03-.05h0v-.67h0Z"/>
          <path class="cls-38" d="M24.67,44.03s-.01-.03-.03-.05c-.05-.03-.12-.03-.17,0-.02,.01-.03,.03-.03,.05h0v.67h0s.01,.03,.03,.05c.05,.03,.12,.03,.17,0,.02-.01,.03-.03,.03-.05h0v-.67h0Z"/>
          <path class="cls-16" d="M25.3,28.48c0-.11-.07-.22-.22-.3-.29-.17-.76-.17-1.06,0-.15,.08-.22,.19-.22,.3h0v1.96h0c0,.11,.07,.22,.22,.3,.29,.17,.76,.17,1.06,0,.15-.08,.22-.19,.22-.3h0v-1.96h0Z"/>
          <path class="cls-22" d="M25.76,26.51c0-.18-.12-.36-.35-.49-.47-.27-1.23-.27-1.7,0-.23,.14-.35,.31-.35,.49h0v1.93h0c-.02,.19,.1,.38,.35,.52,.47,.27,1.23,.27,1.7,0,.25-.14,.36-.34,.35-.52h0v-1.93h0Z"/>
        </g>
        <g>
          <path class="cls-38" d="M28.93,27.51s-.01-.03-.03-.05c-.05-.03-.12-.03-.17,0-.02,.01-.03,.03-.03,.05h0v1.41h0s.01,.03,.03,.05c.05,.03,.12,.03,.17,0,.02-.01,.03-.03,.03-.05h0v-1.41h0Z"/>
          <path class="cls-38" d="M28.93,29.36s-.01-.03-.03-.05c-.05-.03-.12-.03-.17,0-.02,.01-.03,.03-.03,.05h0v.67h0s.01,.03,.03,.05c.05,.03,.12,.03,.17,0,.02-.01,.03-.03,.03-.05h0v-.67h0Z"/>
          <path class="cls-38" d="M28.93,30.47s-.01-.03-.03-.05c-.05-.03-.12-.03-.17,0-.02,.01-.03,.03-.03,.05h0v.67h0s.01,.03,.03,.05c.05,.03,.12,.03,.17,0,.02-.01,.03-.03,.03-.05h0v-.67h0Z"/>
          <path class="cls-38" d="M28.93,31.57s-.01-.03-.03-.05c-.05-.03-.12-.03-.17,0-.02,.01-.03,.03-.03,.05h0v.67h0s.01,.03,.03,.05c.05,.03,.12,.03,.17,0,.02-.01,.03-.03,.03-.05h0v-.67h0Z"/>
          <path class="cls-38" d="M28.93,32.68s-.01-.03-.03-.05c-.05-.03-.12-.03-.17,0-.02,.01-.03,.03-.03,.05h0v.67h0s.01,.03,.03,.05c.05,.03,.12,.03,.17,0,.02-.01,.03-.03,.03-.05h0v-.67h0Z"/>
          <path class="cls-38" d="M28.93,33.79s-.01-.03-.03-.05c-.05-.03-.12-.03-.17,0-.02,.01-.03,.03-.03,.05h0v.67h0s.01,.03,.03,.05c.05,.03,.12,.03,.17,0,.02-.01,.03-.03,.03-.05h0v-.67h0Z"/>
          <path class="cls-38" d="M28.93,34.9s-.01-.03-.03-.05c-.05-.03-.12-.03-.17,0-.02,.01-.03,.03-.03,.05h0v.67h0s.01,.03,.03,.05c.05,.03,.12,.03,.17,0,.02-.01,.03-.03,.03-.05h0v-.67h0Z"/>
          <path class="cls-38" d="M28.93,36.01s-.01-.03-.03-.05c-.05-.03-.12-.03-.17,0-.02,.01-.03,.03-.03,.05h0v.67h0s.01,.03,.03,.05c.05,.03,.12,.03,.17,0,.02-.01,.03-.03,.03-.05h0v-.67h0Z"/>
          <path class="cls-38" d="M28.93,37.12s-.01-.03-.03-.05c-.05-.03-.12-.03-.17,0-.02,.01-.03,.03-.03,.05h0v.67h0s.01,.03,.03,.05c.05,.03,.12,.03,.17,0,.02-.01,.03-.03,.03-.05h0v-.67h0Z"/>
          <path class="cls-38" d="M28.93,38.23s-.01-.03-.03-.05c-.05-.03-.12-.03-.17,0-.02,.01-.03,.03-.03,.05h0v.67h0s.01,.03,.03,.05c.05,.03,.12,.03,.17,0,.02-.01,.03-.03,.03-.05h0v-.67h0Z"/>
          <path class="cls-38" d="M28.93,39.34s-.01-.03-.03-.05c-.05-.03-.12-.03-.17,0-.02,.01-.03,.03-.03,.05h0v.67h0s.01,.03,.03,.05c.05,.03,.12,.03,.17,0,.02-.01,.03-.03,.03-.05h0v-.67h0Z"/>
          <path class="cls-38" d="M28.93,40.45s-.01-.03-.03-.05c-.05-.03-.12-.03-.17,0-.02,.01-.03,.03-.03,.05h0v.67h0s.01,.03,.03,.05c.05,.03,.12,.03,.17,0,.02-.01,.03-.03,.03-.05h0v-.67h0Z"/>
          <path class="cls-38" d="M28.93,41.56s-.01-.03-.03-.05c-.05-.03-.12-.03-.17,0-.02,.01-.03,.03-.03,.05h0v.67h0s.01,.03,.03,.05c.05,.03,.12,.03,.17,0,.02-.01,.03-.03,.03-.05h0v-.67h0Z"/>
          <path class="cls-16" d="M29.55,26c0-.11-.07-.22-.22-.3-.29-.17-.76-.17-1.06,0-.15,.08-.22,.19-.22,.3h0v1.96h0c0,.11,.07,.22,.22,.3,.29,.17,.76,.17,1.06,0,.15-.08,.22-.19,.22-.3h0v-1.96h0Z"/>
          <path class="cls-22" d="M30.01,24.04c0-.18-.12-.36-.35-.49-.47-.27-1.23-.27-1.7,0-.23,.14-.35,.31-.35,.49h0v1.93h0c-.02,.19,.1,.38,.35,.52,.47,.27,1.23,.27,1.7,0,.25-.14,.36-.34,.35-.52h0v-1.93h0Z"/>
        </g>
        <g>
          <path class="cls-38" d="M20.42,32.4s-.01-.03-.03-.05c-.05-.03-.12-.03-.17,0-.02,.01-.03,.03-.03,.05h0v1.41h0s.01,.03,.03,.05c.05,.03,.12,.03,.17,0,.02-.01,.03-.03,.03-.05h0v-1.41h0Z"/>
          <path class="cls-38" d="M20.19,34.91h0s.01,.03,.03,.05c.05,.03,.12,.03,.17,0,.02-.01,.03-.03,.03-.05h0v-.67h0s-.01-.03-.03-.05c-.05-.03-.12-.03-.17,0-.02,.01-.03,.03-.03,.05h0"/>
          <path class="cls-38" d="M20.42,35.36s-.01-.03-.03-.05c-.05-.03-.12-.03-.17,0-.02,.01-.03,.03-.03,.05h0v.67h0s.01,.03,.03,.05c.05,.03,.12,.03,.17,0,.02-.01,.03-.03,.03-.05h0v-.67h0Z"/>
          <path class="cls-38" d="M20.42,36.46h0s-.01-.03-.03-.05c-.05-.03-.12-.03-.17,0-.02,.01-.03,.03-.03,.05h0v.67h0s.01,.03,.03,.05c.05,.03,.12,.03,.17,0,.02-.01,.03-.03,.03-.05h0"/>
          <path class="cls-38" d="M20.42,37.57s-.01-.03-.03-.05c-.05-.03-.12-.03-.17,0-.02,.01-.03,.03-.03,.05h0v.67h0s.01,.03,.03,.05c.05,.03,.12,.03,.17,0,.02-.01,.03-.03,.03-.05h0v-.67h0Z"/>
          <path class="cls-38" d="M20.42,38.68h0s-.01-.03-.03-.05c-.05-.03-.12-.03-.17,0-.02,.01-.03,.03-.03,.05h0v.67h0s.01,.03,.03,.05c.05,.03,.12,.03,.17,0,.02-.01,.03-.03,.03-.05h0"/>
          <path class="cls-38" d="M20.42,39.79s-.01-.03-.03-.05c-.05-.03-.12-.03-.17,0-.02,.01-.03,.03-.03,.05h0v.67h0s.01,.03,.03,.05c.05,.03,.12,.03,.17,0,.02-.01,.03-.03,.03-.05h0v-.67h0Z"/>
          <path class="cls-38" d="M20.42,40.9h0s-.01-.03-.03-.05c-.05-.03-.12-.03-.17,0-.02,.01-.03,.03-.03,.05h0v.67h0s.01,.03,.03,.05c.05,.03,.12,.03,.17,0,.02-.01,.03-.03,.03-.05h0"/>
          <path class="cls-38" d="M20.42,42.01s-.01-.03-.03-.05c-.05-.03-.12-.03-.17,0-.02,.01-.03,.03-.03,.05h0v.67h0s.01,.03,.03,.05c.05,.03,.12,.03,.17,0,.02-.01,.03-.03,.03-.05h0v-.67h0Z"/>
          <path class="cls-38" d="M20.42,43.12h0s-.01-.03-.03-.05c-.05-.03-.12-.03-.17,0-.02,.01-.03,.03-.03,.05h0v.67h0s.01,.03,.03,.05c.05,.03,.12,.03,.17,0,.02-.01,.03-.03,.03-.05h0"/>
          <path class="cls-38" d="M20.42,44.23s-.01-.03-.03-.05c-.05-.03-.12-.03-.17,0-.02,.01-.03,.03-.03,.05h0v.67h0s.01,.03,.03,.05c.05,.03,.12,.03,.17,0,.02-.01,.03-.03,.03-.05h0v-.67h0Z"/>
          <path class="cls-38" d="M20.42,45.34h0s-.01-.03-.03-.05c-.05-.03-.12-.03-.17,0-.02,.01-.03,.03-.03,.05h0v.67h0s.01,.03,.03,.05c.05,.03,.12,.03,.17,0,.02-.01,.03-.03,.03-.05h0"/>
          <path class="cls-38" d="M20.42,46.45s-.01-.03-.03-.05c-.05-.03-.12-.03-.17,0-.02,.01-.03,.03-.03,.05h0v.67h0s.01,.03,.03,.05c.05,.03,.12,.03,.17,0,.02-.01,.03-.03,.03-.05h0v-.67h0Z"/>
          <path class="cls-16" d="M21.05,30.89c0-.11-.07-.22-.22-.3-.29-.17-.76-.17-1.06,0-.15,.08-.22,.19-.22,.3h0v1.96h0c0,.11,.07,.22,.22,.3,.29,.17,.76,.17,1.06,0,.15-.08,.22-.19,.22-.3h0v-1.96h0Z"/>
          <path class="cls-22" d="M21.51,28.93c0-.18-.12-.36-.35-.49-.47-.27-1.23-.27-1.7,0-.23,.14-.35,.31-.35,.49h0v1.93h0c-.02,.19,.1,.38,.35,.52,.47,.27,1.23,.27,1.7,0,.25-.14,.36-.34,.35-.52h0v-1.93h0Z"/>
        </g>
      </g>
      <g id="Cloud">
        <path class="cls-31" d="M40.95,10.66h0s-.1-.06-.1-.06c-.02-.01-.04-.02-.06-.03l-2.11-1.22s0-.1,0-.15c0-2.59-.87-4.4-2.24-5.17h0s-4.05-2.34-4.05-2.34h0c-1.11-.64-2.57-.58-4.15,.34-.7,.4-1.37,.95-2.01,1.59-.27-.27-.56-.51-.88-.7h0s-3.92-2.25-3.92-2.25h0c-1.43-.95-3.35-.93-5.47,.29C11.55,3.52,7.95,10.39,7.95,16.31c0,.7,.05,1.35,.15,1.96l-.55,.32c-2.82,1.63-5.11,6-5.11,9.76h0c0,2.08,.7,3.56,1.8,4.2h0s4.1,2.37,4.1,2.37h0c.89,.51,2.04,.47,3.3-.26l7.43-4.29,19.8-11.43c1.69-.98,3.07-3.6,3.07-5.86h0c0-1.18-.38-2.02-.98-2.42Z"/>
        <path class="cls-17" d="M40.95,10.66h0s-.1-.06-.1-.06c-.02-.01-.04-.02-.06-.03l-2.11-1.22s0-.1,0-.15c0-2.59-.87-4.4-2.24-5.17h0s-4.05-2.34-4.05-2.34h0c-1.11-.64-2.57-.58-4.15,.34-.7,.4-1.37,.95-2.01,1.59-.27-.27-.56-.51-.88-.7h0s-3.92-2.25-3.92-2.25h0c-1.43-.95-3.35-.93-5.47,.29C11.55,3.52,7.95,10.39,7.95,16.31c0,.7,.05,1.35,.15,1.96l-.55,.32c-2.82,1.63-5.11,6-5.11,9.76h0c0,2.08,.7,3.56,1.8,4.2h0s4.1,2.37,4.1,2.37h0c.89,.51,2.04,.47,3.3-.26l7.43-4.29,19.8-11.43c1.69-.98,3.07-3.6,3.07-5.86h0c0-1.18-.38-2.02-.98-2.42Z"/>
        <path class="cls-13" d="M36.45,4.03h0c-1.11-.62-2.55-.55-4.11,.36-.74,.43-1.44,1-2.1,1.69l-3.72-2.16-.36-.21s.06-.06,.09-.09c.63-.64,1.3-1.18,2-1.59,1.59-.92,3.04-.98,4.16-.33h0s4.05,2.34,4.05,2.34Z"/>
        <path class="cls-12" d="M26.24,3.62c.1,.1,.19,.2,.27,.3l-.36-.21s.06-.06,.09-.09Z"/>
        <path class="cls-13" d="M25.27,2.87h0c-1.4-.78-3.21-.69-5.19,.46-2.01,1.16-3.85,3.21-5.26,5.66l-4.09-2.36c1.41-2.45,3.25-4.5,5.26-5.66,2.11-1.22,4.03-1.24,5.47-.29h0s3.82,2.19,3.82,2.19Z"/>
        <path class="cls-13" d="M12.19,20.63l-.55,.32c-1.91,1.1-3.58,3.47-4.45,6.05l-4.09-2.36c.7-2.06,1.9-3.98,3.33-5.23l1.68-1.14,4.09,2.36Z"/>
        <path class="cls-38" d="M38.86,10.76l-.29,.17c.08-.58,.12-1.16,.12-1.73,0-4.68-2.85-6.83-6.36-4.81-1.63,.94-3.11,2.62-4.24,4.61-.16-5.64-3.69-8.18-8.02-5.68-4.44,2.56-8.03,9.43-8.03,15.35,0,.7,.05,1.35,.15,1.96l-.55,.32c-2.82,1.63-5.11,6-5.11,9.76h0c0,3.76,2.29,5.57,5.11,3.95l7.43-4.29h0l19.8-11.43c1.69-.98,3.07-3.6,3.07-5.86h0c0-2.26-1.37-3.3-3.07-2.32Z"/>
        <path class="cls-41" d="M38.86,10.76l-.29,.17c.08-.58,.12-1.16,.12-1.73,0-4.68-2.85-6.83-6.36-4.81-1.63,.94-3.11,2.62-4.24,4.61-.16-5.64-3.69-8.18-8.02-5.68-4.44,2.56-8.03,9.43-8.03,15.35,0,.7,.05,1.35,.15,1.96l-.55,.32c-2.82,1.63-5.11,6-5.11,9.76h0c0,3.76,2.29,5.57,5.11,3.95l7.43-4.29h0l19.8-11.43c1.69-.98,3.07-3.6,3.07-5.86h0c0-2.26-1.37-3.3-3.07-2.32Z"/>
        <path class="cls-40" d="M9.64,34.21c-1.26,0-2.07-1.37-2.07-3.5,0-3.37,2.1-7.42,4.59-8.86l.55-.32c.38-.22,.58-.64,.51-1.07h0c-.09-.57-.13-1.17-.13-1.79,0-5.57,3.37-12.05,7.51-14.44,.95-.55,1.84-.82,2.66-.82,2.24,0,3.69,2.15,3.79,5.62h0c.03,1.06,1.44,1.41,1.96,.49h0c1.08-1.91,2.44-3.4,3.85-4.22,.72-.41,1.39-.62,2-.62,1.69,0,2.79,1.78,2.79,4.52,0,.51-.04,1.04-.11,1.59h0c-.12,.86,.81,1.48,1.56,1.05l.29-.17c.26-.15,.5-.23,.69-.23,.55,0,.8,.82,.8,1.64,0,1.89-1.16,4.16-2.54,4.95l-27.23,15.72c-.53,.31-1.02,.46-1.47,.46h0Z"/>
      </g>
    </g>
  </g>
</svg>