<?xml version="1.0" encoding="UTF-8"?>
<!DOCTYPE svg PUBLIC "-//W3C//DTD SVG 1.1//EN" "http://www.w3.org/Graphics/SVG/1.1/DTD/svg11.dtd">
<!-- Creator: CorelDRAW 2021.5 (Evaluation Version) -->
<svg xmlns="http://www.w3.org/2000/svg" xml:space="preserve" width="5.55in" height="2.35in" version="1.1" style="shape-rendering:geometricPrecision; text-rendering:geometricPrecision; image-rendering:optimizeQuality; fill-rule:evenodd; clip-rule:evenodd"
viewBox="0 0 5550 2350"
 xmlns:xlink="http://www.w3.org/1999/xlink"
 xmlns:xodm="http://www.corel.com/coreldraw/odm/2003">
 <defs>
  <style type="text/css">
   <![CDATA[
    .fil0 {fill:#FEFEFE}
   ]]>
  </style>
   <clipPath id="id0">
    <rect x="16.16" y="-55.13" width="5446.02" height="1863.45"/>
   </clipPath>
 </defs>
 <g id="Layer_x0020_1">
  <metadata id="CorelCorpID_0Corel-Layer"/>
  <g style="clip-path:url(#id0)">
   <image id="techhostlogo.jpeg" x="16.16" y="-55.13" width="5446.02" height="1863.45" xlink:href="logo_Images\logo_ImgID1.png"/>
  </g>
  <g id="_2536624178512">
   <polygon class="fil0" points="16.16,1808.32 5462.18,1808.32 5462.18,-55.13 16.16,-55.13 "/>
   <path class="fil0" d="M649.54 772.31l964.92 -0.1c-11.09,-25.33 -194.52,-300.14 -201.22,-302.19l-933.57 0.04c7.5,22.68 157.55,281.88 169.88,302.25z"/>
   <path class="fil0" d="M584.5 1503.91l332.44 -3.28 243.37 -339.02c39.99,-56.31 81.85,-112.7 122.2,-169.39 21,-29.49 39.3,-55.03 61,-84.86 17.03,-23.42 50.45,-65.39 62.09,-89.2l-338.48 -0.26c-15.09,25.83 -40.33,59.76 -59.42,85.46l-181.63 256.04c-24.83,35.65 -229.48,316.59 -241.59,344.5z"/>
   <polygon class="fil0" points="2762.24,1276.1 2895.25,1275.89 2896.67,1040.16 3102.55,1039.85 3104.3,1275.46 3235.98,1275.97 3237.35,702.85 3105.46,702.65 3104.08,927.72 2896.6,927.98 2896.28,703.14 2764.13,702.54 "/>
   <path class="fil0" d="M4137.98 825.22c-274.17,53.02 -207,516.84 88.04,453.23 109.44,-23.59 195.38,-125.59 170.06,-274.7 -19.78,-116.5 -120.52,-205.14 -258.1,-178.53z"/>
   <path class="fil0" d="M2677.27 1079.86l-143.62 0.13c-16.28,27.67 -29.88,46.44 -60.44,61.44 -28.36,13.92 -74.74,14.55 -105.15,2.92 -120.16,-45.95 -119.56,-271.86 6.25,-313.2 32.34,-10.63 67.53,-9.98 99.76,5.05 39.81,18.56 44.15,48.91 64.59,60.35l139.26 -0.06c-20.17,-135.31 -161.65,-217.74 -307.67,-195.83 -130.1,19.52 -226.13,131.37 -227.69,283.89 -1.5,146.96 84.18,266.33 222.06,289.98 75.83,13 156.94,-2.3 208.71,-37.7 35.7,-24.41 99.72,-89.24 103.93,-156.97z"/>
   <polygon class="fil0" points="1743.48,1274.26 2079.57,1275.98 2080.48,1165.7 1878.14,1164.2 1876.78,1038.46 2056.43,1038.43 2056.54,931.49 1877.56,931.43 1876.98,814.14 2080.4,813.84 2080.2,703.5 1743.98,702.68 "/>
   <path class="fil0" d="M3450.12 1274.76l69.94 1.1 1.89 -257.69 206.82 -0.5c11.57,-0.02 23.13,-0.1 34.69,-0.24 15.85,-0.18 23.35,-2.56 33.31,4.67 12.83,24.19 -2.76,205.06 5.3,253.99l67.22 -0.25 1.79 -566.89 -70.86 -0.96 -0.35 246.89 -277.17 2.48 -1.27 -249.58 -70.11 -0.29 -1.19 567.27z"/>
   <path class="fil0" d="M4151.84 889.36c-81.67,23.02 -124.91,85.64 -110.79,197.19 25.47,201.18 313.17,169 281.84,-69.26 -10.9,-82.89 -84.43,-152.34 -171.05,-127.92z"/>
   <path class="fil0" d="M4539.42 1145.87l-69.78 -0.82c8.91,154.48 241.09,180.48 312.3,74.73 28.59,-42.45 23.06,-101.22 -5.73,-135.59 -51.98,-62.02 -202.24,-59.24 -223.51,-117.84 -26.96,-74.26 86.81,-107.5 145.11,-61.59 22.43,17.67 16.54,34.39 31.34,56.89l68 0.19c-9.79,-175.48 -245.37,-173.13 -303.04,-73.76 -24.11,41.54 -20.81,102.57 9.68,133.68 70.61,72.03 210.41,57.3 225.04,116.75 20.44,83.01 -103.11,100.7 -154.21,61.25 -25.18,-19.44 -19.07,-26.93 -35.19,-53.89z"/>
   <path class="fil0" d="M1198.93 1185.3l153.96 -2.45 260.06 -364.61 -160.85 0.21c-27.68,52.38 -244.59,335.89 -253.17,366.84z"/>
   <path class="fil0" d="M4915.56 828.72l-53.55 0.84 -0.69 57.44 53.63 3.8c5.26,88.71 -7.57,200.69 2.23,285.28 12.19,105.16 87.29,103.04 181.66,99.72l1.57 -61.7c-101.23,-5.94 -113.43,13.25 -113.11,-103.45 0.2,-71.27 -3.06,-149.57 0.53,-219.87l111.85 -0.77 -0.15 -60.83 -111.89 -0.47 -0.72 -112.42 -70.12 -0.65 -1.25 113.08z"/>
   <polygon class="fil0" points="977.24,738.15 1413.57,738.83 1413.61,636.16 977.42,635.72 "/>
   <polygon class="fil0" points="977.25,534.51 977.94,605.5 1412.63,605.94 1413.53,502.94 977.41,503.07 "/>
   <polygon class="fil0" points="1208.21,702.73 1337.37,703.65 1339.14,670.85 1207.44,669.47 "/>
   <polygon class="fil0" points="1207.52,569.19 1338.84,570.82 1338.83,539.68 1207.35,537.91 "/>
  </g>
 </g>
</svg>
