<?xml version="1.0" standalone="no"?>
<!DOCTYPE svg PUBLIC "-//W3C//DTD SVG 20010904//EN"
 "http://www.w3.org/TR/2001/REC-SVG-20010904/DTD/svg10.dtd">
<svg version="1.0" xmlns="http://www.w3.org/2000/svg"
height="512" width="512" viewBox="0 0 500.000000 500.000000"
 preserveAspectRatio="xMidYMid meet">

<g transform="translate(0.000000,500.000000) scale(0.100000,-0.100000)"
fill="#000000" stroke="none">
<path d="M1681 4299 c-17 -10 -33 -30 -37 -46 -4 -15 -16 -36 -28 -45 -29 -24
-16 -30 30 -15 31 11 40 20 45 46 7 36 37 73 53 68 7 -2 13 -50 16 -118 3 -63
9 -112 14 -111 5 2 12 0 15 -5 3 -5 26 -15 51 -22 70 -20 138 -69 176 -125 43
-65 69 -167 59 -232 l-7 -47 -221 7 c-122 3 -262 9 -311 13 l-89 6 6 -42 c3
-24 8 -45 11 -48 3 -4 131 -10 283 -16 153 -5 280 -11 282 -13 8 -7 -53 -86
-90 -115 -47 -37 -118 -69 -178 -79 -44 -7 -45 -8 -10 -9 29 -1 36 -5 35 -18
0 -10 5 -17 12 -16 19 4 14 -12 -13 -37 -23 -21 -25 -31 -25 -102 0 -43 -4
-78 -9 -78 -14 0 -41 41 -41 61 0 10 -10 19 -25 21 -21 4 -25 1 -25 -18 0 -40
40 -75 93 -81 33 -4 47 -2 47 6 0 7 5 9 10 6 19 -12 59 24 71 65 13 44 33 53
68 31 31 -20 114 -18 146 3 36 24 49 62 38 108 -9 33 -7 40 16 62 20 18 36 24
68 23 32 -1 48 4 67 22 30 29 42 80 26 111 -6 12 -10 23 -8 26 7 7 2004 -62
2016 -70 9 -5 12 -251 12 -1015 0 -861 -2 -1010 -14 -1020 -8 -7 -34 -11 -58
-9 l-43 3 -17 210 c-10 116 -21 244 -25 285 l-8 75 -347 0 c-293 -1 -350 -3
-363 -15 -13 -13 -13 -39 0 -215 8 -110 19 -238 25 -285 5 -46 6 -87 2 -91 -4
-3 -433 -27 -954 -52 l-948 -46 -145 -131 c-80 -73 -145 -134 -145 -137 0 -2
42 -2 93 2 50 3 205 12 342 20 138 8 285 17 328 20 42 3 77 1 77 -3 0 -5 -11
-64 -25 -132 -14 -68 -25 -136 -25 -152 0 -41 24 -83 62 -106 52 -32 359 -150
408 -157 49 -7 710 50 721 63 16 16 20 69 6 80 -7 6 -67 29 -132 52 -118 40
-155 62 -180 110 -18 34 -67 282 -58 290 5 4 109 12 233 19 124 6 257 14 297
18 l71 6 6 -64 c3 -35 13 -153 22 -263 17 -213 18 -222 40 -230 25 -10 678 54
692 68 10 10 10 42 -2 172 -8 87 -18 202 -21 255 -7 95 -7 96 16 102 13 4 35
7 49 7 29 0 63 25 79 57 8 16 11 333 11 1128 l0 1107 -29 28 c-16 16 -39 31
-52 34 -13 2 -226 12 -474 21 -247 9 -544 20 -660 25 -115 5 -325 12 -465 15
-140 3 -298 8 -350 12 -90 6 -93 6 -64 19 96 40 98 163 4 183 -30 6 -36 12
-43 44 -8 32 -6 42 11 60 31 33 36 70 17 111 -29 61 -84 83 -136 55 -32 -17
-52 6 -44 51 9 56 -8 88 -61 111 -60 27 -104 19 -137 -23 -29 -36 -57 -33 -57
6 0 59 -110 87 -179 45z m2149 -2329 c0 -5 -4 -10 -10 -10 -5 0 -10 5 -10 10
0 6 5 10 10 10 6 0 10 -4 10 -10z m315 -42 c7 -18 18 -125 71 -711 39 -425 45
-520 34 -527 -14 -9 -121 -21 -430 -49 -107 -10 -200 -16 -207 -14 -18 7 -21
23 -38 218 -51 599 -83 1061 -73 1072 7 9 68 13 222 16 116 1 257 3 314 5 75
1 104 -1 107 -10z"/>
<path d="M1463 4232 c-12 -2 -34 -17 -49 -35 -22 -26 -25 -38 -21 -76 4 -35 0
-52 -14 -72 -17 -25 -17 -27 -2 -33 10 -4 26 3 44 20 25 24 27 31 22 75 -6 54
12 94 49 108 26 9 5 19 -29 13z"/>
<path d="M1264 4014 c-57 -28 -71 -102 -30 -151 34 -41 26 -89 -20 -108 -19
-8 -42 -28 -52 -45 l-17 -32 -211 7 c-317 11 -304 25 -304 -344 l0 -261 -24
-10 c-47 -17 -59 -71 -27 -111 26 -34 17 -74 -19 -89 -16 -6 -34 -25 -41 -41
-10 -26 -9 -34 8 -57 11 -15 29 -29 39 -31 18 -3 18 -2 1 16 -9 11 -17 32 -17
46 0 29 31 67 55 67 8 0 18 14 23 33 7 26 5 34 -10 45 -11 8 -18 26 -18 48 0
44 31 76 70 72 44 -4 69 24 63 72 -5 32 -1 43 20 64 14 14 22 26 17 26 -16 0
-13 345 3 359 16 12 405 3 413 -11 3 -4 17 -8 32 -8 23 0 24 1 9 13 -56 43
-35 131 39 163 25 10 32 21 37 50 5 31 2 41 -18 60 -37 34 -35 96 5 136 17 16
30 31 30 34 0 8 -26 3 -56 -12z"/>
<path d="M1251 3551 c0 -9 4 -25 9 -36 6 -15 1 -27 -17 -47 -19 -20 -26 -38
-26 -67 0 -55 22 -80 85 -95 l26 -6 -29 29 c-38 38 -39 87 -4 129 22 26 23 33
13 65 -8 25 -18 37 -34 40 -17 3 -24 0 -23 -12z"/>
<path d="M1394 3319 c-3 -6 0 -18 9 -26 12 -12 13 -22 5 -45 -13 -38 6 -84 43
-103 43 -23 52 -18 28 14 -17 24 -21 39 -17 75 5 39 2 48 -21 70 -30 29 -37
31 -47 15z"/>
<path d="M903 3275 c-12 -8 -24 -26 -27 -40 -4 -14 -14 -25 -23 -25 -12 0 -14
-3 -7 -10 17 -17 56 4 73 40 27 57 36 46 33 -40 -4 -68 -2 -80 12 -80 9 0 16
-4 16 -10 0 -5 10 -10 23 -10 12 0 45 -14 74 -30 122 -70 155 -234 73 -364
-34 -53 -107 -104 -162 -113 -40 -6 -50 -18 -20 -26 15 -4 15 -5 0 -6 -22 -1
-24 -81 -1 -81 12 0 12 -3 0 -21 -8 -11 -12 -30 -9 -41 7 -29 -16 -14 -28 18
-11 29 -40 32 -40 5 0 -26 46 -61 79 -61 21 0 23 2 11 10 -11 8 -8 9 11 5 21
-5 31 -1 48 21 11 15 21 32 21 39 0 20 24 24 45 9 54 -40 142 6 132 69 -7 48
17 77 63 77 23 0 43 7 53 18 21 23 22 76 2 96 -28 28 -16 69 26 90 54 27 47
111 -10 122 -38 8 -46 45 -18 91 19 33 19 36 4 69 -21 43 -57 62 -91 46 -29
-13 -51 5 -40 32 11 28 -5 65 -36 81 -42 22 -77 19 -106 -10 -30 -30 -44 -32
-44 -7 0 11 -8 26 -17 34 -23 19 -95 21 -120 3z"/>
<path d="M744 2898 c-9 -46 -7 -128 5 -158 7 -19 10 0 10 83 1 59 -1 107 -3
107 -3 0 -8 -15 -12 -32z"/>
<path d="M597 2708 c3 -24 0 -38 -11 -47 -22 -19 -20 -67 4 -91 11 -11 25 -20
30 -20 7 0 10 -250 10 -730 0 -806 -3 -773 62 -806 28 -14 53 -16 182 -9 l149
7 153 136 c84 75 152 138 150 139 -1 1 -123 -4 -272 -11 -185 -10 -273 -11
-281 -4 -17 13 -19 1148 -3 1148 6 0 1 9 -11 21 -16 16 -20 28 -15 52 9 43
-17 69 -60 61 -67 -12 -104 44 -64 98 17 23 19 35 12 56 -5 15 -16 28 -25 30
-13 3 -15 -3 -10 -30z"/>
<path d="M1964 1702 c2 -20 -2 -44 -7 -52 -6 -8 4 -1 21 17 18 18 32 34 32 36
0 3 -11 12 -24 20 -24 16 -24 16 -22 -21z"/>
</g>
</svg>
