<?xml version="1.0" encoding="UTF-8"?>
<svg xmlns="http://www.w3.org/2000/svg" xmlns:xlink="http://www.w3.org/1999/xlink" viewBox="0 0 216.6 183.91">
  <defs>
    <style>
      .cls-1 {
        fill: #fff;
      }

      .cls-2 {
        fill: #75b3e2;
      }

      .cls-3 {
        fill: #9f9e9f;
      }

      .cls-4 {
        fill: #e3eef4;
      }

      .cls-5 {
        fill: #9ca6c7;
      }

      .cls-6 {
        mix-blend-mode: screen;
        opacity: .3;
      }

      .cls-6, .cls-7 {
        fill: #6c759c;
      }

      .cls-8 {
        fill: #f48472;
      }

      .cls-9 {
        isolation: isolate;
      }

      .cls-10 {
        fill: #52567d;
      }

      .cls-11, .cls-12 {
        fill: #252b3d;
      }

      .cls-13 {
        fill: #f04e69;
      }

      .cls-14 {
        fill: #aed9ea;
      }

      .cls-15 {
        fill: #e5e5e5;
      }

      .cls-16 {
        clip-path: url(#clippath);
      }

      .cls-17 {
        fill: none;
      }

      .cls-18 {
        fill: #fab38f;
      }

      .cls-19 {
        fill: #3b415a;
      }

      .cls-20 {
        fill: #d7615e;
      }

      .cls-12 {
        opacity: .15;
      }
    </style>
    <clipPath id="clippath">
      <polygon class="cls-17" points="134.3 155.79 143.31 161 158.39 152.29 158.06 139.52 150.02 136.67 133.88 145.16 134.3 155.79"/>
    </clipPath>
  </defs>
  <g class="cls-9">
    <g id="Layer_2" data-name="Layer 2">
      <g id="Layer_1-2" data-name="Layer 1">
        <g>
          <g>
            <path class="cls-15" d="M82.11,18.6c-.01,.92-.34,1.94-.86,2.84s-1.22,1.69-2,2.14l-20.26,11.8c-1.55,.9-2.79,.13-2.77-1.71,0-.39,.07-.8,.18-1.21,.15-.56,.38-1.11,.68-1.63,.38-.67,.87-1.28,1.42-1.73,.22-5.39,3.94-11.77,8.44-14.39,2.94-1.71,5.5-1.4,6.94,.48,.42-.4,.86-.74,1.31-1,.14-.08,.28-.16,.42-.22,2.19-1.03,3.88,.17,3.85,2.85t0,0c1.49-.8,2.67-.02,2.65,1.77Z"/>
            <path class="cls-15" d="M101.25,3.35c0,.61-.23,1.3-.57,1.9-.35,.6-.82,1.13-1.34,1.43l-13.55,7.89c-1.03,.6-1.87,.09-1.85-1.14,0-.26,.05-.53,.12-.81,.1-.37,.26-.75,.45-1.09,.26-.45,.58-.85,.95-1.16,.15-3.6,2.63-7.87,5.64-9.62,1.97-1.15,3.68-.94,4.64,.32,.28-.27,.57-.49,.88-.67,.09-.06,.19-.1,.28-.15,1.47-.69,2.6,.11,2.57,1.91t0,0c1-.53,1.79-.01,1.77,1.18Z"/>
          </g>
          <g>
            <path class="cls-15" d="M176.62,21.86c.01,.92,.34,1.94,.86,2.84s1.22,1.69,2,2.14l20.26,11.8c1.55,.9,2.79,.13,2.77-1.71,0-.39-.07-.8-.18-1.21-.15-.56-.38-1.11-.68-1.63-.38-.67-.87-1.28-1.42-1.73-.22-5.39-3.94-11.77-8.44-14.39-2.94-1.71-5.5-1.4-6.94,.48-.42-.4-.86-.74-1.31-1-.14-.08-.28-.16-.42-.22-2.19-1.03-3.88,.17-3.85,2.85t0,0c-1.49-.8-2.67-.02-2.65,1.77Z"/>
            <path class="cls-15" d="M159.39,4.78c0,.61,.23,1.3,.57,1.9,.35,.6,.82,1.13,1.34,1.43l13.55,7.89c1.03,.6,1.87,.09,1.85-1.14,0-.26-.05-.53-.12-.81-.1-.37-.26-.75-.45-1.09-.26-.45-.58-.85-.95-1.16-.15-3.61-2.63-7.87-5.64-9.62-1.97-1.15-3.68-.94-4.64,.32-.28-.27-.57-.49-.88-.67-.09-.06-.19-.1-.28-.15-1.47-.69-2.6,.11-2.57,1.91t0,0c-1-.53-1.79-.01-1.77,1.18Z"/>
          </g>
          <path class="cls-14" d="M197.62,72.59c.26,0,.55-.03,.84-.16,0,0,0,0,0,0l.37-.22s0,0,0,0l.15-.09,17.11-9.95c.31-.18,.5-.51,.5-.87v-1.9c0-.19-.1-.38-.3-.49l-1.8-1.04-16.78,9.69-.06,2.81-.05,2.21Z"/>
          <path class="cls-14" d="M158.91,48v1.82c0,.47,.25,.9,.65,1.13l36.91,21.31,.08,.05s0,0,0,0c.17,.09,.57,.27,1.06,.28l.05-2.21,.06-2.81-36.7-21.04h0l-1.84,1.05c-.16,.09-.26,.25-.29,.41Z"/>
          <polygon class="cls-1" points="209.6 58.46 193.29 67.94 161.59 49.63 178 40.22 209.6 58.46"/>
          <polygon class="cls-1" points="209.6 58.46 193.29 67.94 161.59 49.63 178 40.22 209.6 58.46"/>
          <g>
            <path class="cls-7" d="M210.32,64.32v.48s-.02,.07-.05,.09l-4.66,2.69c-.07,.04-.16-.01-.16-.09v-.48s.02-.07,.05-.09l4.66-2.69c.07-.04,.16,.01,.16,.09Z"/>
            <path class="cls-10" d="M210.32,64.32v.28s-.02,.07-.05,.09l-4.66,2.69c-.07,.04-.16-.01-.16-.09v-.28s.02-.07,.05-.09l4.66-2.69c.07-.04,.16,.01,.16,.09Z"/>
          </g>
          <g>
            <path class="cls-7" d="M203.97,68.25c-.01,.29-.14,.51-.29,.5-.02,0-.03,0-.05-.01-.12-.05-.2-.27-.19-.52,.01-.24,.11-.44,.23-.49,.02,0,.04-.01,.06-.01,.15,0,.25,.24,.24,.53Z"/>
            <path class="cls-10" d="M203.86,68.25c-.01,.24-.11,.44-.23,.49-.12-.05-.2-.27-.19-.52,.01-.24,.11-.44,.23-.49,.12,.05,.2,.27,.19,.52Z"/>
          </g>
          <path class="cls-2" d="M158.91,48.2c.03,.16,.12,.32,.29,.41l37.1,21.42c.42,.24,.9,.36,1.37,.35,.44,0,.87-.13,1.26-.35l17.37-10.09c.19-.11,.29-.3,.29-.49v-.04c0-.19-.1-.38-.3-.49l-1.8-1.04-6.96-4.02-18.63-10.76-10.62-6.13c-.18-.1-.41-.11-.59,0l-16.68,9.56h0l-1.84,1.05c-.16,.09-.26,.25-.29,.41-.01,.07-.01,.14,0,.2Z"/>
          <path class="cls-19" d="M207.14,62.9c.04,.87-.99,1.32-2.21,1.32-1.22,0-2.27-.39-2.21-1.34,.04-.63,.99-.93,2.21-.93s2.18,.33,2.21,.95Z"/>
          <path class="cls-7" d="M207.14,62.87c0,.63-.99,1.14-2.21,1.14-1.22,0-2.21-.51-2.21-1.14,0-.63,.99-1.14,2.21-1.14,1.22,0,2.21,.51,2.21,1.14Z"/>
          <path class="cls-6" d="M206.66,62.8c0,.49-.78,.89-1.73,.89-.96,0-1.73-.4-1.73-.89,0-.49,.78-.89,1.73-.89s1.73,.4,1.73,.89Z"/>
          <path class="cls-1" d="M162.87,48.41l.88,.51,2.92,1.69,6.54,3.78,7.1,4.1,2.85,1.65,5.19,3,4.53,2.61c.44,.26,.99,.26,1.43,0l.58-.34,5.87-3.41,2.85-1.65,5.53-3.21c.34-.2,.34-.69,0-.89l-5.53-3.19-2.85-1.65-5.87-3.39-6.54-3.78-5.19-3-2.85-1.65-.21-.12-1.08-.62c-.44-.26-.99-.26-1.43,0l-4.38,2.51-6.54,3.75-3.8,2.17c-.43,.25-.44,.88,0,1.13Z"/>
          <path class="cls-14" d="M162.87,48.41l.88,.51,16.35-9.45-1.08-.62c-.44-.26-.99-.26-1.43,0l-4.38,2.51-6.54,3.75-3.8,2.17c-.43,.25-.44,.88,0,1.13Z"/>
          <path class="cls-7" d="M168.88,44.94c.06,0,.11-.03,.15-.05l5.99-3.43c.13-.08,.14-.2,.02-.28-.12-.08-.33-.08-.47,0l-5.99,3.43c-.13,.08-.14,.2-.02,.28,.08,.05,.2,.07,.32,.05Z"/>
          <path class="cls-14" d="M88.02,70.48v17.84c-.63,.44-1.27,.44-1.9,0v-17.84h1.9Z"/>
          <path class="cls-14" d="M53.42,68.02v19.18c-.63,.44-1.27,.44-1.9,0v-19.18h1.9Z"/>
          <path class="cls-14" d="M65.81,85.33c.63,.44,1.27,.44,1.9,0v-25.04h-1.9v25.04Z"/>
          <path class="cls-14" d="M71.45,96.48c.63,.44,1.27,.44,1.9,0v-25.04h-1.9v25.04Z"/>
          <path class="cls-2" d="M76.51,64.68l-9.2-5.31c-.19-.11-.42-.11-.61,0l-9.15,5.31h-6.03v3.6h.05c-.12,.27-.03,.61,.26,.78l19.19,10.93c.92,.52,2.04,.52,2.96,0l13.73-7.78c.24-.14,.34-.39,.3-.63h0v-3.6h-5.81l-2.62-1.51-3.08-1.78Z"/>
          <path class="cls-2" d="M87.71,68.5l-13.73,7.78c-.92,.52-2.04,.52-2.96,0l-19.19-10.93c-.41-.23-.41-.82,0-1.06l14.88-8.63c.19-.11,.42-.11,.61,0l20.4,11.78c.41,.24,.41,.83,0,1.06Z"/>
          <g>
            <path class="cls-14" d="M65.13,43.07s-.01,.09-.02,.13c-.01,.07-.02,.15-.04,.23-.83,4.09-6.81,10.92-6.81,10.92l-3.07-1.79c2.91-3.91,6.14-12.02,6.14-12.02l2.02,1.34,1.78,1.18Z"/>
            <path class="cls-14" d="M67.49,38.18c-.37,1.87-1.31,3.54-2.24,4.82-.05,.07-.1,.14-.15,.2-.04,.05-.08,.11-.12,.16-.27,.35-.53,.67-.77,.94-.42-.53-.89-1.02-1.32-1.53-.35-.42-.62-.89-.92-1.33-.2-.3-.41-.61-.65-.89,1.96-4.31,3.66-13.33,3.66-13.33,0,0,3.35,6.78,2.51,10.98Z"/>
            <path class="cls-14" d="M65.26,43c-.05,.07-.1,.14-.15,.2-.01,.07-.02,.15-.04,.23-.03-.02-.05-.05-.08-.07-.39-.36-.96-.79-1.67-1.05-.08-.03-.14-.11-.15-.19,0-.03,0-.06,.01-.09,.03-.07,.09-.12,.16-.14,.04,0,.08,0,.13,0,.75,.28,1.36,.73,1.78,1.11Z"/>
          </g>
          <path class="cls-2" d="M49.27,92.11c.45,.15,.77,.55,.84,1.02,.06,.41,.11,1.01,.09,1.79-.05,1.75-.08,2.49-.08,2.49,0,0-.53,.9-2.05,1.15l-.58,.09s-3.3,2.04-4.91,2.19c-2.09,.21-4.24-.76-2.5-2.79,1.64-1.92,4.04-2.7,4.75-4.24,.08-.18,.62-.56,.76-.7,1.16-1.2,2.05-1.54,3.68-1Z"/>
          <g>
            <path class="cls-1" d="M45.68,95.85c-.08,0-.15-.04-.18-.12,0,0-.27-.61-.76-.77-.47-.16-.98,.25-.99,.26-.08,.07-.21,.06-.27-.03-.07-.08-.06-.21,.03-.27,.03-.02,.68-.56,1.36-.33,.66,.22,.98,.96,1,.99,.04,.1,0,.21-.1,.26-.03,.01-.05,.02-.08,.02Z"/>
            <path class="cls-1" d="M45,96.34c-.08,0-.15-.04-.18-.12,0,0-.27-.61-.76-.77-.47-.16-.98,.25-.99,.26-.08,.07-.21,.06-.27-.03-.07-.08-.06-.21,.03-.27,.03-.02,.68-.56,1.36-.33,.66,.22,.98,.96,1,.99,.04,.1,0,.21-.1,.26-.03,.01-.05,.02-.08,.02Z"/>
            <path class="cls-1" d="M44.22,96.78c-.08,0-.15-.04-.18-.12,0,0-.27-.61-.76-.77-.47-.16-.98,.25-.99,.26-.08,.07-.21,.06-.27-.03-.07-.08-.06-.21,.03-.27,.03-.02,.68-.56,1.36-.33,.66,.22,.98,.96,1,.99,.04,.1,0,.21-.1,.26-.03,.01-.05,.02-.08,.02Z"/>
          </g>
          <path class="cls-18" d="M49.89,88.76l-.91,4.24s-1.39,1.09-2.94,.36l.75-4.58s2.03-.64,3.1-.02Z"/>
          <path class="cls-11" d="M63.48,55.98s-14.98,6.29-15.73,9.41c-.76,3.12-2.07,24.84-2.07,24.84,0,0,2.02,1.14,4.26,.7,0,0,1.35-7.27,1.98-9.22,.63-1.95,2.06-9,2.29-11.6,0,0,12.26-4.8,13.96-7.7,3.74-6.38-4.69-6.43-4.69-6.43Z"/>
          <path class="cls-11" d="M79.58,55.38s1.27,5.37,.15,10.17c-.91,3.89-16.37,.21-16.7-3.39-.33-3.6,1.52-8.62,1.52-8.62l15.03,1.84Z"/>
          <path class="cls-2" d="M63.48,55.98c5.73,1.95,11.98,4.58,16.71,1.44-.84-4.69-1.88-12.17-1.41-14.93,.79-4.61,5.25-12.4,1.5-14.06-.89-.39-2.29-.78-3.88-1.13-2.12-.47-4.6-.88-6.79-1.19-1.03-.15-2.2-.11-2.89-.02-1.55,.22-2.09,.9-1.66,2.44,.53,1.88,.61,3.9-.29,5.96-1.51,3.45,.83,5.33,1.17,8.4,.27,2.47-1.56,9.29-2.47,13.09Z"/>
          <path class="cls-1" d="M71.69,31.94c-.41,0-.8-.12-1.16-.35-2.31-1.49-1.02-5.49-.97-5.66l.41,.14s-1.24,3.85,.79,5.15c.59,.38,1.26,.37,1.98-.02,1.54-.84,2.8-3.14,2.8-4.2h.43c0,1.29-1.42,3.71-3.02,4.58-.43,.24-.86,.35-1.26,.35Z"/>
          <path class="cls-2" d="M72.26,43.07c-3.98,0-6.12-1.14-6.23-1.2-.11-.06-.15-.19-.09-.3,.06-.11,.19-.15,.3-.09h0s3.04,1.62,8.51,1c.12-.01,.23,.07,.25,.2,.01,.12-.07,.23-.2,.25-.92,.1-1.77,.15-2.55,.15Z"/>
          <path class="cls-2" d="M71.32,35.01s-.04,0-.06,0c-2.49-.76-3.05-2.47-3.08-2.54-.04-.12,.03-.24,.15-.28,.12-.04,.24,.03,.28,.14,.02,.06,.53,1.56,2.78,2.25,.12,.04,.18,.16,.15,.28-.03,.1-.12,.16-.21,.16Z"/>
          <path class="cls-2" d="M74.47,54.97c-5.47,0-8.57-3.01-8.7-3.14-.09-.09-.09-.23,0-.31,.09-.09,.23-.09,.31,0,.03,.03,3.1,3.01,8.39,3.01,.12,0,.22,.1,.22,.22s-.1,.22-.22,.22h0Z"/>
          <path class="cls-2" d="M73.84,53.95s0,0,0,0c-2.04-.05-4.61-1.7-4.72-1.77-.1-.07-.13-.2-.07-.31,.07-.1,.2-.13,.31-.07,.03,.02,2.57,1.65,4.49,1.7,.12,0,.22,.1,.22,.23,0,.12-.1,.22-.22,.22Z"/>
          <path class="cls-11" d="M79.9,62.42s-25.36-2.5-29.88-1.71c-4.52,.79-12.62,18.93-12.62,18.93,0,0,2.02,2.22,3.05,2.14,1.03-.08,4.43-5.67,5.97-7.13,1.53-1.46,5.79-6.02,6.55-7.72,0,0,14.49,7.17,22.89,3.5,4.87-2.13,4.04-8,4.04-8Z"/>
          <path class="cls-2" d="M39.56,82.57c.32,.34,.42,.85,.25,1.3-.14,.39-.38,.94-.77,1.62-.88,1.52-1.25,2.15-1.25,2.15,0,0-.89,.54-2.35,.04l-.56-.19s-3.87,.23-5.36-.39c-1.94-.81-3.37-2.67-.88-3.65,2.35-.92,4.84-.46,6.19-1.48,.16-.12,.81-.2,1-.26,1.59-.51,2.54-.38,3.72,.86Z"/>
          <g>
            <path class="cls-1" d="M34.63,84.16c-.07-.04-.11-.11-.1-.19,0,0,.05-.66-.31-1.04-.34-.36-.98-.24-.99-.24-.11,.02-.21-.05-.23-.15-.02-.11,.05-.21,.15-.23,.03,0,.86-.17,1.35,.35,.48,.51,.41,1.31,.41,1.34,0,.11-.1,.19-.21,.18-.03,0-.05-.01-.08-.02Z"/>
            <path class="cls-1" d="M33.8,84.27c-.07-.04-.11-.11-.1-.19,0,0,.05-.66-.31-1.04-.34-.36-.98-.24-.99-.24-.11,.02-.21-.05-.23-.15-.02-.11,.05-.21,.15-.23,.03,0,.86-.17,1.35,.35,.48,.51,.41,1.31,.41,1.34,0,.11-.1,.19-.21,.18-.03,0-.05-.01-.08-.02Z"/>
            <path class="cls-1" d="M32.9,84.28c-.07-.04-.11-.11-.1-.19,0,0,.05-.66-.31-1.04-.34-.36-.98-.24-.99-.24-.11,.02-.21-.05-.23-.15-.02-.11,.05-.21,.15-.23,.03,0,.86-.17,1.35,.35,.48,.51,.41,1.31,.41,1.34,0,.11-.1,.19-.21,.18-.03,0-.05-.01-.08-.02Z"/>
          </g>
          <path class="cls-18" d="M39.83,82.08l-.94,1.13s-1.74,.3-2.76-1.07l1.31-1.56s1.74,.46,2.39,1.5Z"/>
          <path class="cls-10" d="M37.59,78.36l-1.04,1.88s1.63,1.93,4.17,2.63l1.01-1.63s-2.68-1.37-4.13-2.87Z"/>
          <g>
            <path class="cls-11" d="M74.7,23.25s2.93-1.08,3.52-4.09c.59-3.01,.41-7.43-3.69-8.73-4.11-1.3-7.9-.05-8.82,3.74,0,0,3.15,7.55,8.99,9.08Z"/>
            <g>
              <g>
                <path class="cls-18" d="M70.1,24.69l.22,2.08,.12,1.22c2.37,1.02,4.81-.51,4.78-.72-.26-.92-.46-2.51-.52-4.01-.04-.03-.09-.05-.13-.07-1.25-.54-4.47,1.51-4.47,1.51Z"/>
                <path class="cls-8" d="M70.1,24.69l.22,2.08c2.37-.84,3.67-2.59,4.25-3.59-1.25-.54-4.47,1.51-4.47,1.51Z"/>
              </g>
              <g>
                <path class="cls-8" d="M66.43,18.11s-.93-1.1-1.51-.11c-.59,.98,.48,3.73,2,2.96l-.49-2.85Z"/>
                <path class="cls-1" d="M65.98,20.5c-.02,.11-.12,.18-.23,.16-.11-.02-.18-.12-.16-.23,.02-.11,.12-.18,.23-.16,.11,.02,.18,.12,.16,.23Z"/>
                <path class="cls-20" d="M66.53,20.11c-.06,0-.11-.03-.13-.09-.29-.85-1.21-1.15-1.22-1.15-.07-.02-.11-.1-.09-.17,.02-.07,.1-.11,.17-.09,.04,.01,1.05,.34,1.39,1.32,.02,.07-.01,.14-.08,.17-.01,0-.02,0-.04,0Z"/>
                <path class="cls-20" d="M65.6,19.72s-.05,0-.07-.02c-.06-.04-.09-.12-.05-.18,0-.01,.15-.26,.47-.43,.06-.03,.14,0,.18,.06,.03,.07,0,.14-.06,.18-.25,.13-.36,.32-.37,.32-.02,.04-.06,.06-.11,.07Z"/>
              </g>
              <path class="cls-18" d="M65.68,19.48c.02,.31,.05,.6,.1,.86,.39,2.36,2.46,7.15,6.61,4.71,1-.59,1.74-1.16,2.31-1.8,.44-.48,.78-.98,1.07-1.54,.11-.22,.17-.46,.24-.69,.01-.04,.03-.08,.04-.12,0-.02,.01-.05,.02-.07,.21-.68,.36-1.36,.48-2.01,.15-.81,.25-1.57,.31-2.19,.11-1.15-.4-2.26-1.33-2.94-2.52-1.84-5.43-1.59-7.39-1.09-1.36,.35-2.34,1.53-2.43,2.93-.04,.66-.08,1.42-.09,2.17,0,.62,0,1.24,.05,1.79Z"/>
              <path class="cls-11" d="M67.43,17.22c0-.12-.11-.22-.23-.21-.32,.01-.73,.05-1.1,.18-.77,.26-.88,.48-.88,.48,0,0,.1,.09,1.11-.11,.26-.05,.6-.07,.9-.1,.12-.01,.2-.11,.2-.23h0Z"/>
              <path class="cls-11" d="M70.1,17.06c-.02-.14,.08-.28,.22-.3,.38-.06,.87-.1,1.34-.04,.97,.13,1.14,.37,1.14,.37,0,0-.09,.13-1.33,.12-.32,0-.73,.05-1.08,.09-.14,.01-.26-.09-.29-.22,0,0,0,0,0,0Z"/>
              <path class="cls-8" d="M69.35,21.3s-.02,0-.04,0l-.87-.34,.35-2.11c.02-.1,.11-.16,.2-.15,.1,.02,.16,.11,.15,.2l-.3,1.82,.6,.23c.09,.04,.14,.14,.1,.23-.03,.08-.11,.12-.19,.11Z"/>
              <path class="cls-8" d="M74.37,20.83s.43,.83,1.41,.88c.09-.23,.17-.46,.24-.69-.47,.08-1.2,.14-1.65-.19Z"/>
              <path class="cls-11" d="M74.7,23.25c.44-.48,.78-.98,1.07-1.54,.11-.22,.17-.46,.24-.69,.01-.04,.03-.08,.04-.12-.1,0-.26,.04-.53,.12,0,0-1.11,1.27-.82,2.23Z"/>
              <path class="cls-1" d="M67.88,22.22c.2,.6,.76,1.68,2.13,1.49,1.37-.18,1.62-1.27,1.65-2l-3.78,.51Z"/>
              <path class="cls-11" d="M70.82,18.89c.02,.33,.21,.59,.42,.58,.21-.01,.37-.29,.35-.62-.02-.33-.21-.59-.42-.58-.21,.01-.37,.29-.35,.62Z"/>
              <path class="cls-11" d="M66.47,19.14c.02,.33,.21,.59,.42,.58,.21-.01,.37-.29,.35-.62-.02-.33-.21-.59-.42-.58-.21,.01-.37,.29-.35,.62Z"/>
              <g>
                <path class="cls-18" d="M75.6,18.35s.95-.97,1.43,0c.48,.97-.48,3.37-2.16,2.67l.73-2.67Z"/>
                <path class="cls-1" d="M75.96,20.84c-.02,.11-.12,.18-.23,.16-.11-.02-.18-.12-.16-.23,.02-.11,.12-.18,.23-.16,.11,.02,.18,.12,.16,.23Z"/>
                <path class="cls-8" d="M75.37,20.23c.05,0,.11-.02,.13-.08,.33-.78,1.22-1,1.23-1,.07-.02,.11-.08,.09-.15-.02-.07-.08-.11-.15-.09-.04,0-1.01,.25-1.4,1.15-.03,.06,0,.14,.07,.16,.01,0,.02,0,.03,0Z"/>
                <path class="cls-8" d="M76.27,19.93s.05,0,.07-.01c.06-.03,.09-.1,.06-.17,0-.01-.12-.26-.42-.44-.06-.04-.14-.02-.17,.04-.04,.06-.02,.14,.04,.17,.23,.14,.32,.33,.32,.33,.02,.04,.06,.07,.1,.07Z"/>
              </g>
            </g>
            <path class="cls-11" d="M76.71,17.95c-.41-.07-.7-.04-.93,.06-.16,.07-.29,.18-.4,.32-.02,.03-.05,.06-.07,.09-.05-.02-.1-.05-.15-.08-.1-.08-.2-.19-.28-.32-.22-.35-.47-.6-.55-.92-.12-.49-.66-.94-.66-.94-4.18,1.3-7.49-2.3-7.49-2.3,1.29-3.98,8.33-2.09,10.14-1.12,1.81,.96,2.45,5.56,.39,5.22Z"/>
            <path class="cls-11" d="M84.69,18.9s-1.54,3.46-4.94,2.24-3.33-6.88-3.33-6.88c0,0-1.41-3.93-4.99-4.27-.19-.02-.39-.03-.6-.03,0,0,0-.13,0-.35,.08-1.01,.69-3.88,5.23-3.98,5.5-.12,3.73,5.95,4.5,9.29,.77,3.33,2.1,5.43,4.13,3.97Z"/>
            <path class="cls-13" d="M77.49,13.93c.16,0-.06,0,.1,0,0-1.39-.75-2.84-1.91-3.59-1.82-1.17-3.97-.91-4.86-.73-.02,.22,0,.35,0,.35,.21,0,.41,0,.6,.03,.99-.13,2.63-.15,4.01,.74,1.02,.66,1.71,1.91,2.06,3.19Z"/>
            <path class="cls-11" d="M67.12,14.14s.36,2.77-1.55,3.74c0,0-.82-5.62,1.55-3.74Z"/>
          </g>
          <g>
            <g>
              <path class="cls-10" d="M67.3,68.84l9.57-5.46c.5-.29,.5-1.01,0-1.29l-11.24-6.31c-.22-.12-.49-.13-.71,0l-9.6,5.08c-.51,.27-.53,1-.03,1.29l11.28,6.69c.23,.14,.51,.14,.75,0Z"/>
              <path class="cls-19" d="M67.3,67.71l9.57-5.46c.5-.29,.5-1.01,0-1.29l-11.24-6.31c-.22-.12-.49-.13-.71,0l-9.6,5.08c-.51,.27-.53,1-.03,1.29l11.28,6.69c.23,.14,.51,.14,.75,0Z"/>
              <path class="cls-10" d="M77.23,62.7v-1.06l-9.9,5.45v1.75l9.48-5.43c.25-.15,.41-.42,.41-.71Z"/>
            </g>
            <path class="cls-10" d="M67.34,56v12.21c0,.64-.53,1.09-1.09,1.08h-2.11v-1.06l-15.37-8.87c-.33-.2-.54-.55-.54-.94v-11.55h-.99v-1.74h2.09c.18,0,.36,.04,.53,.14l16.94,9.78c.33,.19,.54,.55,.54,.94Z"/>
            <path class="cls-7" d="M47.78,45.28l16.94,9.78c.34,.19,.54,.55,.54,.94v12.21c0,.83-.9,1.36-1.63,.94l-16.94-9.78c-.34-.19-.54-.55-.54-.94v-12.21c0-.83,.9-1.36,1.63-.94Z"/>
            <path class="cls-5" d="M56.17,57.7c0,.96-.56,1.73-1.25,1.74-.7,0-1.26-.77-1.27-1.73,0-.96,.56-1.73,1.25-1.74,.7,0,1.26,.77,1.27,1.73Z"/>
          </g>
          <path class="cls-14" d="M81.73,46.23c-1.29-.18-2.74-.71-4.02-.99,.03-.16,.06-.32,.09-.5,.01-.06,.02-.13,.03-.19,.01-.08,.03-.16,.04-.25,.75-5.02,1.11-16.33,1.11-16.33,0,0,3.84,.06,4.37,4.31,.35,2.83-1,10.79-1.62,13.96Z"/>
          <path class="cls-14" d="M81.73,46.23c-1.27,3.86-10.05,13.04-10.05,13.04l-2.26-2.75c5.87-7.81,7.87-11.06,8.31-11.8,.07-.12,.1-.18,.1-.18l1.85,.8,2.04,.88Z"/>
          <path class="cls-14" d="M79.71,45.31s-.02,.02-.03,.03c-.01,.01-.03,.02-.04,.03-.07,.04-.16,.05-.24,0-.54-.35-1.12-.54-1.6-.64-.02,0-.05-.01-.07-.02,.07-.12,.1-.18,.1-.18,.01-.08,.03-.16,.04-.25,.53,.11,1.17,.32,1.77,.71,.1,.07,.13,.2,.07,.31Z"/>
          <path class="cls-18" d="M69.42,56.52s-1.95,.22-2.09,.95v4.17s2.74-.22,4.34-2.37l-2.26-2.75Z"/>
          <path class="cls-14" d="M96.27,162.16c-.76,.02-1.6-.1-2.44-.48,0,0,0,0,0,0l-1.07-.62s0,0,0,0l-.44-.26-49.46-28.75c-.89-.52-1.44-1.47-1.44-2.5v-5.48c.02-.56,.3-1.11,.85-1.43l5.19-3,48.49,28,.19,8.13,.15,6.38Z"/>
          <path class="cls-14" d="M208.14,91.07v5.25c0,1.35-.72,2.6-1.89,3.27l-106.67,61.59-.24,.14s-.01,0-.02,.01c-.5,.26-1.65,.78-3.05,.82l-.15-6.38-.19-8.13,106.06-60.81h0l5.31,3.04c.47,.27,.75,.71,.83,1.19Z"/>
          <polygon class="cls-1" points="61.64 121.32 108.77 148.7 200.41 95.78 152.96 68.59 61.64 121.32"/>
          <polygon class="cls-1" points="61.64 121.32 108.77 148.7 200.41 95.78 152.96 68.59 61.64 121.32"/>
          <g>
            <path class="cls-7" d="M59.56,138.25v1.4c0,.11,.06,.21,.16,.27l13.47,7.77c.21,.12,.47-.03,.47-.27v-1.4c0-.11-.06-.21-.16-.27l-13.47-7.77c-.21-.12-.47,.03-.47,.27Z"/>
            <path class="cls-10" d="M59.56,138.25v.8c0,.11,.06,.21,.16,.27l13.47,7.77c.21,.12,.47-.03,.47-.27v-.8c0-.11-.06-.21-.16-.27l-13.47-7.77c-.21-.12-.47,.03-.47,.27Z"/>
          </g>
          <g>
            <path class="cls-7" d="M77.9,149.6c.04,.82,.42,1.48,.84,1.46,.05,0,.1-.01,.15-.04,.35-.15,.58-.77,.55-1.5-.03-.7-.31-1.28-.65-1.42-.06-.03-.12-.04-.19-.04-.42,.02-.73,.71-.69,1.53Z"/>
            <path class="cls-10" d="M78.24,149.6c.03,.7,.31,1.27,.65,1.42,.35-.15,.58-.77,.55-1.5-.03-.7-.31-1.28-.65-1.42-.35,.15-.58,.77-.55,1.5Z"/>
          </g>
          <path class="cls-2" d="M208.14,91.66c-.08,.47-.35,.91-.83,1.18l-107.24,61.92c-1.22,.71-2.59,1.04-3.95,1.01-1.26-.02-2.52-.37-3.65-1.02l-50.21-29.16c-.55-.32-.83-.87-.85-1.42v-.11c.02-.56,.3-1.11,.85-1.43l5.19-3,20.12-11.62,53.83-31.08,30.69-17.72c.53-.3,1.17-.3,1.7,0l48.2,27.62h0l5.31,3.04c.47,.27,.75,.71,.83,1.19,.04,.2,.04,.4,0,.59Z"/>
          <path class="cls-19" d="M68.76,134.14c-.13,2.52,2.86,3.81,6.39,3.81s6.55-1.13,6.39-3.88c-.1-1.81-2.86-2.69-6.39-2.69-3.53,0-6.3,.95-6.39,2.76Z"/>
          <path class="cls-7" d="M68.76,134.07c0,1.81,2.86,3.28,6.39,3.28,3.53,0,6.39-1.47,6.39-3.28,0-1.81-2.86-3.28-6.39-3.28-3.53,0-6.39,1.47-6.39,3.28Z"/>
          <path class="cls-2" d="M70.14,133.85c0,1.42,2.24,2.57,5.01,2.57,2.77,0,5.01-1.15,5.01-2.57,0-1.42-2.24-2.57-5.01-2.57-2.77,0-5.01,1.15-5.01,2.57Z"/>
          <path class="cls-1" d="M196.71,92.26l-2.54,1.47-8.43,4.87-18.91,10.92-20.53,11.85-8.24,4.76-15,8.67-13.08,7.55c-1.28,.74-2.86,.74-4.14,0l-1.68-.97-16.96-9.86-8.24-4.77-15.98-9.29c-.98-.57-.98-1.99,0-2.56l15.97-9.22,8.24-4.76,16.95-9.79,18.91-10.92,15-8.67,8.24-4.76,.61-.35,3.12-1.8c1.28-.74,2.85-.74,4.13,0l12.67,7.26,18.91,10.84,10.97,6.29c1.26,.72,1.26,2.53,0,3.26Z"/>
          <path class="cls-14" d="M196.71,92.26l-2.54,1.47-47.27-27.31,3.12-1.8c1.28-.74,2.85-.74,4.13,0l12.67,7.26,18.91,10.84,10.97,6.29c1.26,.72,1.26,2.53,0,3.26Z"/>
          <path class="cls-7" d="M179.32,82.23c-.16-.03-.31-.07-.44-.15l-17.32-9.91c-.39-.22-.41-.58-.05-.8,.36-.22,.97-.22,1.35,0l17.32,9.91c.39,.22,.41,.58,.05,.8-.24,.15-.59,.2-.91,.15Z"/>
          <polygon class="cls-12" points="152.3 94.69 97.45 125.37 67.68 107.99 121.51 76.91 152.3 94.69"/>
          <path class="cls-2" d="M153.81,51.92l.13,41.14c0,.41-.22,.79-.57,.99l-47.61,27.49-2.67,1.54,.69,4.68-5.86-2.09-.15-.05c-.4-.17-.7-.56-.69-1.05l.05-45.14c0-.18,.04-.35,.12-.51,.1-.2,.25-.37,.45-.48l54.39-31.47c.3-.18,.64-.19,.93-.1,.02,0,.05,.02,.07,.03l6.12,2.2-5.4,2.83Z"/>
          <path class="cls-14" d="M103.09,123.08l.69,4.68-5.86-2.09-.15-.05c-.4-.17-.7-.56-.69-1.05l.05-45.14c0-.18,.04-.35,.12-.51l7.78,2.66,.73,39.96-2.67,1.54Z"/>
          <path class="cls-2" d="M159.94,95.2c0,.41-.22,.79-.57,1l-54.57,31.51c-.76,.44-1.72-.11-1.72-.99v-3.22s0-2.59,0-2.59l.04-39.15v-.17c0-.41,.22-.79,.57-.99l.08-.05,54.31-31.43c.37-.21,.78-.19,1.11-.02,.35,.19,.6,.55,.61,1v.59s.11,34.99,.11,34.99v1.42s.03,8.1,.03,8.1Z"/>
          <polygon class="cls-4" points="103.13 81.74 135.42 94.26 159.81 50.68 134.22 90.91 103.13 81.74"/>
          <g>
            <path class="cls-4" d="M124.74,88.14l-21.66,35.35v-2.59s20.51-33.47,20.51-33.47c.19-.32,.61-.42,.93-.22,.32,.19,.42,.61,.22,.93Z"/>
            <path class="cls-4" d="M159.92,87.1l-19.08-6.16c-.35-.11-.55-.5-.43-.85,.11-.36,.5-.55,.85-.44l18.66,6.03v1.42Z"/>
            <path class="cls-4" d="M159.81,50.68l-25.21,41.16-31.46-10.09v-.17c0-.41,.22-.79,.57-.99l.08-.05,30.22,9.69,25.2-41.14c.35,.19,.6,.55,.61,1v.59Z"/>
          </g>
          <g>
            <path class="cls-2" d="M27.38,134.54v16.95c0,2.83-4.3,5.12-9.61,5.12s-9.6-2.29-9.6-5.12v-16.95H27.38Z"/>
            <ellipse class="cls-14" cx="17.77" cy="134.54" rx="9.61" ry="5.12"/>
            <path class="cls-3" d="M26.17,134.54c0,.18-.06,.37-.18,.57-.74,1.26-3.73,2.95-8.22,2.95s-7.48-1.69-8.22-2.95c-.12-.21-.18-.4-.18-.57,0-1.24,3.19-3.53,8.4-3.53s8.4,2.29,8.4,3.53Z"/>
            <path class="cls-2" d="M17.58,135s-.02,0-.03,0c-.26-.02-.45-.24-.43-.5,.01-.17,1.17-17.1-3.04-27.18-.1-.24,.01-.51,.25-.61,.24-.1,.51,.01,.61,.25,4.29,10.28,3.12,27.43,3.11,27.61-.02,.24-.22,.43-.46,.43Z"/>
            <path class="cls-2" d="M17.58,125.02c-.22,0-.41-.15-.45-.37-1.21-6.13-7.12-7.89-7.18-7.91-.25-.07-.39-.33-.32-.57,.07-.25,.33-.39,.57-.32,.27,.08,6.51,1.94,7.83,8.62,.05,.25-.11,.5-.36,.54-.03,0-.06,0-.09,0Z"/>
            <path class="cls-2" d="M17.02,117.69c-.25,0-.45-.19-.46-.44-.28-6.27,2.8-10.91,2.93-11.1,.14-.21,.43-.27,.64-.12,.21,.14,.27,.43,.12,.64-.04,.06-3.04,4.6-2.78,10.54,.01,.26-.19,.47-.44,.48,0,0-.01,0-.02,0Z"/>
            <path class="cls-2" d="M17.42,121.3s-.06,0-.09,0c-.25-.05-.42-.29-.37-.54,.42-2.27,1.97-3.97,4.48-4.91,1.85-.69,3.55-.73,3.62-.73,0,0,0,0,0,0,.25,0,.46,.2,.46,.46,0,.26-.2,.47-.46,.47h0c-.06,0-6.32,.17-7.2,4.88-.04,.22-.24,.38-.46,.38Z"/>
            <path class="cls-2" d="M6.99,123.89c-5.56,.9-6.99-1.55-6.99-1.55,0,0,2.69-8.12,6.51-8.9,3.01-.61,3.5,1.52,3.58,2.45,.02,.25,0,.41,0,.41,0,0,.36-.06,.83-.02,.67,.06,1.56,.33,1.98,1.27,.68,1.52-.23,5.42-5.91,6.33Z"/>
            <path class="cls-1" d="M10.92,116.28c-3.1,.94-6.99,5.43-7.03,5.48-.07,.08-.16,.12-.25,.12-.08,0-.15-.03-.22-.08-.14-.12-.15-.33-.03-.47,.17-.19,3.57-4.11,6.7-5.44,.02,.25,0,.41,0,.41,0,0,.36-.06,.83-.02Z"/>
            <path class="cls-2" d="M14.77,107.17c-.08,0-.17-.02-.26-.03-.1,.12-.21,.23-.33,.34-1.46,1.34-3.73,1.47-5.28,.17-.68-.57-1.5-1.79-1.95-2.94-1.89-4.83-.26-9.17,3-11.38,0,0,3.94-1.01,6.91,4.07,2.9,4.95,1.14,10.03-2.09,9.77Z"/>
            <path class="cls-1" d="M14.77,107.17c-.08,0-.17-.02-.26-.03-.1,.12-.21,.23-.33,.34-1.65-3.08-3.58-11.74-3.67-12.13-.04-.18,.07-.36,.25-.39,.18-.04,.36,.07,.4,.25,.02,.1,2.01,9.01,3.61,11.97Z"/>
            <path class="cls-2" d="M31.53,102.91s-5.33,8.53-9.2,8.04c-3.23-.4-2.77-3.3-2.53-4.25,.05-.19,.09-.3,.09-.3,0,0-.24-.04-.57-.16-.48-.17-1.14-.52-1.47-1.18-.11-.21-.19-.46-.21-.74-.05-.49,.2-1.18,.71-1.87,1.23-1.68,3.99-3.38,7.93-2.36,3.1,.8,5.27,2.83,5.27,2.83Z"/>
            <path class="cls-1" d="M28.39,102.77c.02,.18-.12,.34-.3,.36-4.34,.4-7.25,2.63-8.3,3.58,.05-.19,.09-.3,.09-.3,0,0-.24-.04-.57-.16,1.08-.99,4.11-3.35,8.73-3.78,.18-.02,.34,.12,.36,.3Z"/>
            <path class="cls-2" d="M32.16,125.28s-9.87-1.96-10.79-5.75c-.7-2.89,1.63-3.64,2.78-3.83,.36-.06,.6-.07,.6-.07,0,0-.03-.15-.05-.38-.05-.63,.03-1.91,1.19-2.48,1.49-.73,6.4,.85,7.03,6.57,.35,3.18-.77,5.93-.77,5.93Z"/>
            <path class="cls-1" d="M30.48,122.47s-.08,.02-.12,.02c-.13,0-.26-.08-.31-.21-1.64-4.07-5.43-6.32-5.9-6.58,.36-.06,.6-.07,.6-.07,0,0-.03-.15-.05-.38,1.01,.61,4.37,2.86,5.95,6.77,.07,.17-.01,.36-.18,.43Z"/>
          </g>
          <path class="cls-2" d="M212.66,181.19s-.9,.94-2.07,.67l-.5-.13-.41-.13s-4.86-1.07-6.62-1.65c-1.88-.61-2.91-2.15-1.07-3.33,1.83-1.17,5.17-.83,6.13-1.52,0,0,3.27-.54,3.53,1.22,.51,1.82,.84,2.63,1.02,4.86Z"/>
          <g>
            <path class="cls-1" d="M204.65,177.26c.06-.05,.09-.13,.07-.21,0,0-.17-.65,.12-1.08,.28-.42,.93-.41,.94-.41,.11,0,.2-.08,.2-.19,0-.11-.08-.2-.19-.2-.04,0-.88-.02-1.28,.59-.39,.59-.18,1.37-.17,1.4,.03,.1,.14,.17,.24,.14,.03,0,.05-.02,.07-.04Z"/>
            <path class="cls-1" d="M205.31,177.24c.06-.05,.09-.13,.07-.21,0,0-.17-.65,.12-1.08,.28-.42,.93-.41,.94-.41,.11,0,.2-.08,.2-.19,0-.11-.08-.2-.19-.2-.04,0-.88-.02-1.28,.59-.39,.59-.18,1.37-.17,1.4,.03,.1,.14,.17,.24,.14,.03,0,.05-.02,.07-.04Z"/>
            <path class="cls-1" d="M206.04,177.19c.06-.05,.09-.13,.07-.21,0,0-.17-.65,.12-1.08,.28-.42,.93-.41,.94-.41,.11,0,.2-.08,.2-.19,0-.11-.08-.2-.19-.2-.04,0-.88-.02-1.28,.59-.39,.59-.18,1.37-.17,1.4,.03,.1,.14,.17,.24,.14,.03,0,.05-.02,.07-.04Z"/>
          </g>
          <path class="cls-18" d="M209.94,171.01l1.09,5.11s-.82,.74-2.76,.49l-1.89-4.56s2.16-1.33,3.56-1.05Z"/>
          <path class="cls-10" d="M205.52,123.61l-8.41,2.21s1.72,19.5,2.51,24.01c.79,4.51,6.85,23.52,6.85,23.52,2.47,.65,4.26-.9,4.26-.9,0,0-2.44-12.04-2.58-14.52-.14-2.49-1.2-7.22-1.78-8.18,0,0-.09-13.88,.11-17.2s-.97-8.94-.97-8.94Z"/>
          <path class="cls-11" d="M207.25,173.09c-.1,0-.2-.07-.23-.17-.06-.2-5.52-20.14-6.5-22.42-1-2.34-1.66-16.46-1.69-17.06,0-.13,.09-.24,.22-.24,.13,0,.24,.09,.24,.22,0,.15,.69,14.64,1.65,16.9,.99,2.31,6.3,21.66,6.52,22.48,.03,.12-.04,.25-.16,.29-.02,0-.04,0-.06,0Z"/>
          <path class="cls-7" d="M210.59,171.06s-2.69,1.09-4.94,1.16c.07,.85,.4,1.67,.73,2.07,0,0,2.69-.09,4.56-1.15,.06-.67,.03-1.42-.35-2.07Z"/>
          <path class="cls-14" d="M202.11,87.58s8.71,8.87,8.34,18.71c-.17,4.47-4.58,15.45-4.58,15.45l-1.98-3.67s1.23-6.97,2.42-11.78l-2.82-9.24s-2.87-8.11-1.38-9.47Z"/>
          <path class="cls-2" d="M190.63,181.52s-1.07,.68-2.12,.17l-.44-.23-.36-.21s-4.37-2.12-5.9-3.06c-1.64-1-2.27-2.7-.26-3.4,2.01-.7,5.09,.39,6.16-.05,0,0,3.23,.23,3.07,1.96,.07,1.84,.2,2.68-.14,4.84Z"/>
          <g>
            <path class="cls-1" d="M183.92,175.97c.07-.03,.11-.1,.11-.18,0,0-.01-.65,.36-1,.36-.34,.98-.18,.98-.18,.1,.03,.21-.03,.23-.14,.03-.1-.03-.21-.14-.23-.03,0-.83-.22-1.35,.27-.5,.47-.48,1.26-.48,1.29,0,.11,.09,.19,.2,.19,.03,0,.05,0,.08-.02Z"/>
            <path class="cls-1" d="M184.55,176.1c.07-.03,.11-.1,.11-.18,0,0-.01-.65,.36-1,.36-.34,.98-.18,.98-.18,.1,.03,.21-.03,.23-.14,.03-.1-.03-.21-.14-.23-.03,0-.83-.22-1.35,.27-.5,.47-.48,1.26-.48,1.29,0,.11,.09,.19,.2,.19,.03,0,.05,0,.07-.02Z"/>
            <path class="cls-1" d="M185.26,176.22c.07-.03,.11-.1,.11-.18,0,0-.01-.65,.36-1,.36-.34,.98-.18,.98-.18,.1,.03,.21-.03,.23-.14,.03-.1-.03-.21-.14-.23-.03,0-.83-.22-1.35,.27-.5,.47-.48,1.26-.48,1.29,0,.11,.09,.19,.2,.19,.03,0,.05,0,.08-.02Z"/>
          </g>
          <path class="cls-18" d="M190.36,171.25l-.12,5.1s-.95,.51-2.73-.16l-.76-4.75s2.35-.77,3.61-.19Z"/>
          <path class="cls-10" d="M196.92,125.3l-8.47,.19s-2.79,18.88-3.07,23.34c-.27,4.45,1.16,23.86,1.16,23.86,2.19,1.18,4.24,.11,4.24,.11,0,0,.42-11.97,.85-14.36,.43-2.39,.5-7.12,.17-8.16,0,0,5.63-15.02,6.57-18.12,.94-3.1-1.45-6.86-1.45-6.86Z"/>
          <path class="cls-11" d="M187.39,172.62c-.13,0-.23-.1-.23-.23,0-.2-.67-20.35-1.08-22.74-.42-2.44,2.16-15.99,2.27-16.57,.02-.13,.15-.21,.27-.19,.13,.02,.21,.15,.19,.27-.03,.14-2.67,14.04-2.27,16.4,.41,2.42,1.06,21.97,1.08,22.8,0,.13-.1,.24-.23,.24,0,0,0,0,0,0Z"/>
          <path class="cls-7" d="M190.97,171.45s-2.8,.42-4.95-.02c-.13,.82,0,1.67,.22,2.13,0,0,2.57,.52,4.59-.06,.21-.62,.35-1.34,.14-2.05Z"/>
          <path class="cls-2" d="M206.11,127.96c-5,5.19-20.15,.43-20.15,.43,0,0,1.31-9.54,1.51-17.35,.07-2.73-.45-6.26-.91-9.55-.03-.19-.05-.39-.08-.58-.57-4.12-.98-7.75,.09-8.75,1.5-1.41,7.02-3.02,11.59-4.36,0,0,3.15-1.48,4.25,.08,1.1,1.56,2.41,13.03,2.48,16.39,.07,3.36,2.03,20.21,1.22,23.67Z"/>
          <path class="cls-2" d="M194.91,121.74s.02,0,.03,0c5.6-.85,9.17-6.39,9.2-6.44,.06-.1,.03-.23-.07-.29s-.23-.03-.29,.07c-.03,.05-3.5,5.43-8.91,6.25-.12,.02-.19,.13-.18,.24,.02,.1,.11,.18,.21,.18Z"/>
          <path class="cls-2" d="M186.48,100.92c.03,.19,.05,.38,.08,.58,1.25-1.49,2.05-3.25,2.1-3.34,.05-.11,0-.23-.1-.28-.11-.05-.23,0-.28,.1,0,.02-.71,1.55-1.79,2.94Z"/>
          <path class="cls-2" d="M197.23,112.15c.05,0,.11-.02,.15-.06,3.47-3.4,4.67-11.28,4.72-11.61,.02-.12-.06-.22-.18-.24-.12-.02-.22,.06-.24,.18-.01,.08-1.23,8.07-4.6,11.37-.08,.08-.08,.22,0,.3,.04,.04,.1,.06,.15,.06Z"/>
          <path class="cls-18" d="M186.7,81.58s-.14,1.49-.14,1.96c0,.47,.8,.65,.8,.65,0,0-.32-2.17-.66-2.6Z"/>
          <path class="cls-18" d="M196.67,88.5c-.06,.38-.84,.83-2,1.26-.57,.21-1.69,.39-2.78,.21l-.12-.83-.03-.21-.06-.37-.21-1.35-.02-.12v-.1s3.21-2.28,4.54-1.78c.05,.02,.1,.04,.14,.07,.09,1.02,.37,2.35,.55,3.22Z"/>
          <path class="cls-8" d="M193.61,86.82s-.83,1.01-1.94,1.74l-.21-1.35-.02-.12,2.17-.27Z"/>
          <path class="cls-18" d="M186.59,79.96c.02,.64,.07,1.28,.14,1.85,.04,.32,.08,.62,.14,.88,.06,.27,.14,.57,.24,.88,0,0,0,0,0,0,0,.05,.1,.5,.25,1.08,0,.01,0,.03,.01,.04,.13,.5,.3,1.08,.51,1.59,.01,.03,.03,.07,.04,.1,.2,.47,.43,.85,.68,1.03,1.28,.89,5.6-.55,5.6-.55l.42-.17c.5-.13,.57-.35,.81-.59,.3-.27,.57-.55,.81-.83,.43-.51,.76-1.05,1.04-1.65,.11-.23,.15-.48,.21-.73,.01-.04,.02-.09,.03-.13,0-.02,.01-.05,.02-.07,.18-.71,.31-1.43,.4-2.11,.12-.85,.18-1.64,.21-2.29,.06-1.19-.52-2.32-1.52-2.98-2.7-1.78-5.7-1.38-7.69-.77-1.39,.43-2.34,1.7-2.37,3.15-.01,.69-.01,1.47,.01,2.25Z"/>
          <path class="cls-11" d="M187.24,84.18s-.16,.27,.11,.47l1.42-.26s.1,1.6-.9,1.89c0,0-.33,1.8,.47,2.35s2.5-.49,2.49-1.68c-.01-1.19,.31-4.77,.18-5.45l-.88,.18s0,1.64-.51,1.89c-.5,.25-1.43-.18-2.38,.6Z"/>
          <path class="cls-11" d="M186.99,81.22c.03,.33,.17,.58,.31,.57,.14-.01,.22-.29,.18-.62-.03-.33-.17-.58-.31-.57-.14,.01-.22,.29-.18,.62Z"/>
          <path class="cls-11" d="M186.55,79.1c.52-.07,1.15-.08,1.72,.14,.05,.02,.08,.08,.07,.13l-.07,.38c-.01,.06-.07,.11-.14,.1-.24-.04-.85-.12-1.56-.03-.07,0-.13-.04-.14-.12,0-.16,0-.32,0-.48,0-.06,.05-.1,.1-.11Z"/>
          <path class="cls-11" d="M198.16,81.97c.45-2.13,0-4.95,0-4.95-.27-1.45-1.33-2.68-1.33-2.68-.51-.51-1.44-.89-2.41-1.17-.62-.11-1.13-.09-1.69,0-.81,.13-1.69,.21-2.48,.44-1.58,.46-3.73,.89-3.48,2.96,.64,.84,.57,1.9,1.59,1.9,1.31,0,1.25,1.13,1.31,2.27,.05,1.14,1.38,1.52,1.35,.77,0,0-.11-1.55,.74-1.96,.63-.3,1.85-.36,2.03,1.56,.17,1.82-1.22,2.06-1.22,2.06,0,0,.26,.11,1.48,.11,.74,0,.76,2.46,1.96,2.45s1.86-2.18,2.15-3.76Z"/>
          <path class="cls-8" d="M191.98,82.38c.05-.03,.08-.08,.07-.14-.18-.86,.44-1.57,.44-1.58,.05-.05,.04-.14-.01-.18-.05-.05-.14-.04-.18,.01-.03,.03-.71,.81-.5,1.81,.01,.07,.08,.11,.15,.1,.01,0,.02,0,.03-.01Z"/>
          <path class="cls-8" d="M192.57,81.59s.04-.03,.05-.05c.04-.06,.01-.14-.05-.18-.01,0-.26-.14-.61-.12-.07,0-.13,.07-.12,.14,0,.07,.07,.13,.14,.12,.27-.02,.47,.09,.47,.09,.04,.02,.09,.02,.12,0Z"/>
          <path class="cls-1" d="M187.35,84.66s0,.03,.01,.04c.13,.5,.3,1.08,.51,1.59,.74-.43,.89-1.23,.9-1.83v-.06l-.1,.02-1.33,.24Z"/>
          <path class="cls-2" d="M187.35,74.42s1.02-2.5,4.4-3c4.29-.63,6.56,1.91,7.22,3.49,.67,1.58,0,4.21,0,4.21,0,0-8.13-1.39-11.63-4.7Z"/>
          <path class="cls-2" d="M186.56,75.68s3.38,3.18,12.28,5.51c0,0,.74-1.19,.42-2.21,0,0-5.78-1.51-11.85-5.23,0,0-.64,.46-.86,1.93Z"/>
          <path class="cls-14" d="M186.57,92.17s-8.77,9.66-11.19,9.79l1.39,4.13s7.53-1.96,10.04-5.61c2.44-3.55-.24-8.31-.24-8.31Z"/>
          <path class="cls-14" d="M169.27,94.53s2.09,9.33,4.3,10.97c2.21,1.64,3.87,.22,3.87,.22,0,0,.38-2.09-.98-4.03-.08-.11-.17-.23-.26-.34-.14-.18-.31-.35-.49-.52-2.23-2.12-3.4-6.34-3.4-6.34-.89,.2-2.07,.35-3.03,.05Z"/>
          <g>
            <g>
              <polygon class="cls-11" points="172.35 82.83 171.99 83.14 171.95 83.18 171.77 82.68 171.77 82.68 171.77 82.68 172.35 82.83"/>
              <path class="cls-11" d="M171.91,82.84l2.04,8.19c.02,.08,0,.16-.06,.22l-3.19,3.06c-.12,.12-.33,.06-.37-.11l-2.02-8.09c-.02-.09,0-.18,.04-.25,.01-.02,.03-.05,.05-.07l3.14-3.06c.07-.06,.15-.08,.23-.05,0,0,0,0,0,0,.07,.02,.13,.08,.15,.16Z"/>
              <polygon class="cls-11" points="170.54 94.36 171.16 94.38 171.03 93.85 170.54 94.36"/>
              <path class="cls-19" d="M172.35,82.83l-.36,.32,.06,.24-2.81,2.72-.89-.24s.03-.05,.05-.07l3.14-3.06c.07-.06,.15-.08,.23-.05,0,0,0,0,0,0l.58,.15Z"/>
            </g>
            <path class="cls-10" d="M172.56,83.04l2,8.02c.03,.1,0,.21-.08,.29l-3.07,2.95c-.16,.16-.44,.08-.49-.14l-1.99-7.98c-.03-.1,0-.21,.08-.28l3.06-2.99c.16-.16,.44-.08,.5,.14Z"/>
            <path class="cls-1" d="M172.25,83.7l1.82,7.3c.01,.05,0,.11-.04,.15l-2.54,2.44s-.07,.04-.11,.04c-.07,0-.13-.05-.15-.12l-1.81-7.27c-.01-.05,0-.11,.04-.15l1.34-1.31,1.19-1.16s.02-.01,.02-.02c.09-.06,.21-.01,.24,.09Z"/>
            <path class="cls-10" d="M170.04,85.52l.1,.39c.01,.06,.09,.08,.13,.04l1.33-1.29s.03-.05,.02-.07l-.12-.48-1.46,1.42Z"/>
          </g>
          <path class="cls-18" d="M172.31,94.48s.71-1.3,.64-2.2c-.07-.9,.06-2.59-.52-2.68-.58-.09-.23,1.33-.78,1.9-.55,.56-2.28-.86-2.41-1.66-.11-.66-.43-1.71-.43-1.71,0,0-1.56,.85-1.52,2.76,.04,1.9,2.17,3.92,2.17,3.92,0,0,2.08,.36,2.84-.33Z"/>
          <path class="cls-14" d="M175.39,102.64s.08,.04,.13,.04c.06,0,.13-.03,.17-.08,.25-.33,.52-.64,.77-.92-.08-.11-.17-.23-.26-.34-.28,.3-.57,.63-.85,1-.07,.09-.05,.23,.04,.3Z"/>
          <polygon class="cls-7" points="161.56 152.29 143.31 162.83 131.13 155.8 149.28 145.2 161.56 152.29"/>
          <g class="cls-16">
            <polygon class="cls-11" points="158.39 152.29 149.29 147.03 134.3 155.79 143.31 161 158.39 152.29"/>
            <g>
              <path class="cls-2" d="M154.43,141.13l.04,12.06c0,.12-.06,.23-.17,.29l-13.95,8.06-.78,.45,.2,1.37-1.72-.61-.04-.02c-.12-.05-.2-.16-.2-.31v-13.23c.01-.05,.03-.1,.05-.15,.03-.06,.07-.11,.13-.14l15.94-9.22c.09-.05,.19-.06,.27-.03,0,0,.01,0,.02,0l1.79,.64-1.58,.83Z"/>
              <path class="cls-14" d="M139.56,161.99l.2,1.37-1.72-.61-.04-.02c-.12-.05-.2-.16-.2-.31v-13.23c.01-.05,.03-.1,.05-.15l2.28,.78,.21,11.71-.78,.45Z"/>
              <path class="cls-2" d="M156.23,153.81c0,.12-.06,.23-.17,.29l-15.99,9.23c-.22,.13-.5-.03-.5-.29v-.94s0-.76,0-.76v-11.47s.01-.05,.01-.05c0-.12,.06-.23,.17-.29h.02s15.92-9.22,15.92-9.22c.11-.06,.23-.06,.33,0,.1,.05,.18,.16,.18,.29v.17s.03,10.26,.03,10.26v.42s0,2.37,0,2.37Z"/>
              <path class="cls-2" d="M145.91,151.74l-6.35,10.36v-.76s6.01-9.81,6.01-9.81c.06-.09,.18-.12,.27-.07,.09,.06,.12,.18,.07,.27Z"/>
              <path class="cls-2" d="M156.22,151.44l-5.59-1.81c-.1-.03-.16-.15-.13-.25,.03-.1,.15-.16,.25-.13l5.47,1.77v.42Z"/>
              <polygon class="cls-15" points="139.58 149.87 149.04 153.54 156.19 140.77 148.69 152.56 139.58 149.87"/>
              <path class="cls-14" d="M156.19,140.77l-7.39,12.06-9.22-2.96v-.05c0-.12,.06-.23,.17-.29h.02s8.86,2.83,8.86,2.83l7.39-12.06c.1,.05,.18,.16,.18,.29v.17Z"/>
            </g>
          </g>
          <polygon class="cls-10" points="161.56 152.29 161.56 173.37 143.31 183.91 143.31 162.83 161.56 152.29"/>
          <polygon class="cls-19" points="143.31 183.91 131.13 176.74 131.13 155.8 143.31 162.83 143.31 183.91"/>
          <path class="cls-7" d="M156.82,163.32l-2.15-1.32h0l-1.71-1.05-.2,.35-1.03,1.79-.53,.93-2.22,3.86c-.49,.85-.5,1.77-.03,2.06,.47,.29,1.25-.16,1.73-1.01l.97-1.69-.09,7.1c-.01,.81,.53,1.14,1.21,.74,.68-.39,1.24-1.37,1.25-2.17l.09-7.1,.94,.58c.24,.14,.55,.1,.86-.08,.31-.18,.63-.51,.87-.93,.49-.85,.5-1.77,.03-2.06Z"/>
          <g>
            <g>
              <polygon class="cls-2" points="153.27 42.67 151.55 46.44 151.55 43.67 153.27 42.67"/>
              <polygon class="cls-2" points="151.55 46.44 150.7 45.95 150.7 44.16 151.55 43.67 151.55 46.44"/>
            </g>
            <polygon class="cls-2" points="143.55 33.28 143.55 45.81 145.71 47.06 145.53 34.43 143.55 33.28"/>
            <polygon class="cls-2" points="156.74 27.95 156.74 40.69 145.71 47.06 145.53 34.43 156.74 27.95"/>
            <path class="cls-1" d="M153.71,37.52l.04,1.73-4.26,2.38-.03-1.37,1.87-3.28c.36-.63,.4-.91,.4-1.14,0-.32-.19-.42-.53-.23-.32,.18-.62,.56-.77,1.05l-1.37-.09c.37-1.12,1.12-2.18,2.27-2.81,1.26-.7,2.17-.39,2.19,.87,.01,.65-.11,1.31-.87,2.62l-.74,1.28,1.79-1Z"/>
            <polygon class="cls-2" points="143.55 33.28 154.77 26.8 156.74 27.95 145.53 34.43 143.55 33.28"/>
          </g>
          <g>
            <g>
              <polygon class="cls-2" points="172.42 75.8 171.22 78.45 171.22 76.5 172.42 75.8"/>
              <polygon class="cls-2" points="171.22 78.45 170.62 78.1 170.62 76.85 171.22 76.5 171.22 78.45"/>
            </g>
            <polygon class="cls-2" points="168.31 67.64 168.31 76.43 169.83 77.31 169.7 68.45 168.31 67.64"/>
            <polygon class="cls-2" points="180.84 62.02 180.84 70.96 169.83 77.31 169.7 68.45 180.84 62.02"/>
            <g>
              <path class="cls-1" d="M173.66,69.42c.41,0,.67,.54,.58,1.2s-.5,1.18-.91,1.17c-.41,0-.67-.54-.58-1.2,.09-.65,.5-1.18,.91-1.17Z"/>
              <path class="cls-1" d="M175.81,68.27c.41,0,.67,.54,.58,1.2s-.5,1.18-.91,1.17c-.41,0-.67-.54-.58-1.2,.09-.65,.5-1.18,.91-1.17Z"/>
              <path class="cls-1" d="M177.98,67.12c.41,0,.67,.54,.58,1.2-.09,.65-.5,1.18-.91,1.17-.41,0-.67-.54-.58-1.2,.09-.65,.5-1.18,.91-1.17Z"/>
            </g>
            <polygon class="cls-2" points="168.31 67.64 179.44 61.21 180.83 62.02 169.7 68.45 168.31 67.64"/>
          </g>
          <g>
            <g>
              <g>
                <polygon class="cls-2" points="183.06 48.3 184.77 52.04 184.77 49.29 183.06 48.3"/>
                <polygon class="cls-2" points="184.76 52.04 185.61 51.55 185.61 49.77 184.77 49.29 184.76 52.04"/>
              </g>
              <polygon class="cls-2" points="192.7 38.98 192.7 51.41 190.55 52.65 190.74 40.12 192.7 38.98"/>
              <polygon class="cls-2" points="179.61 33.7 179.61 46.33 190.55 52.65 190.74 40.12 179.61 33.7"/>
              <polygon class="cls-2" points="192.7 38.98 181.57 32.56 179.61 33.7 190.74 40.12 192.7 38.98"/>
            </g>
            <path class="cls-2" d="M185.55,44.59l-1.71-.98-.25-5.79,2.57,1.48-.61,5.3Zm-.97,3.07c-.74-.43-1.23-1.41-1.21-2.26,.03-.86,.56-1.22,1.3-.79,.74,.43,1.23,1.38,1.21,2.24-.03,.85-.56,1.24-1.31,.82Z"/>
          </g>
          <g>
            <polygon class="cls-14" points="50.83 41.73 52.04 44.37 52.04 42.42 50.83 41.73"/>
            <polygon class="cls-14" points="52.04 44.37 52.64 44.03 52.64 42.77 52.04 42.42 52.04 44.37"/>
          </g>
          <polygon class="cls-14" points="54.95 33.56 54.95 42.36 53.43 43.24 53.56 34.37 54.95 33.56"/>
          <polygon class="cls-2" points="42.42 27.94 42.42 36.88 53.43 43.24 53.56 34.37 42.42 27.94"/>
          <g>
            <path class="cls-1" d="M49.6,35.34c-.41,0-.67,.54-.58,1.2,.09,.65,.5,1.18,.91,1.17,.41,0,.67-.54,.58-1.2-.09-.65-.5-1.18-.91-1.17Z"/>
            <path class="cls-1" d="M47.44,34.19c-.41,0-.67,.54-.58,1.2,.09,.65,.5,1.18,.91,1.17,.41,0,.67-.54,.58-1.2-.09-.65-.5-1.18-.91-1.17Z"/>
            <path class="cls-1" d="M45.27,33.04c-.41,0-.67,.54-.58,1.2,.09,.65,.5,1.18,.91,1.17,.41,0,.67-.54,.58-1.2-.09-.65-.5-1.18-.91-1.17Z"/>
          </g>
          <polygon class="cls-14" points="54.95 33.56 43.81 27.14 42.43 27.94 53.56 34.37 54.95 33.56"/>
          <path class="cls-2" d="M121.18,43.75v12.81c0,2.14-3.25,3.87-7.26,3.87s-7.25-1.73-7.25-3.87v-12.81h14.51Z"/>
          <ellipse class="cls-14" cx="113.92" cy="43.75" rx="7.26" ry="3.87"/>
          <path class="cls-3" d="M120.27,43.75c0,.13-.05,.28-.14,.43-.56,.95-2.82,2.23-6.21,2.23s-5.65-1.28-6.21-2.23c-.09-.16-.14-.3-.14-.43,0-.94,2.41-2.67,6.35-2.67s6.35,1.73,6.35,2.67Z"/>
          <path class="cls-2" d="M113.87,43.02l-.52-.42-.28-.22-.79-.63s1.88-18.27,9.65-18.97c2.39-.21,4.14,2.71-.75,8.18-4.53,5.07-7.3,12.06-7.3,12.06Z"/>
          <path class="cls-1" d="M113.35,42.6l-.28-.22c.96-4.05,2.75-7.86,4.13-10.43,1.65-3.05,3.11-5.07,3.12-5.09,.05-.07,.15-.09,.22-.04,.07,.05,.09,.15,.04,.22-.01,.02-1.47,2.03-3.1,5.06-1.39,2.58-3.19,6.42-4.14,10.49Z"/>
          <path class="cls-2" d="M110.02,37.23l.4-.54,.21-.29,.6-.81s-6.53-17.17-14.21-15.84c-2.36,.41-3.3,3.69,2.84,7.71,5.69,3.73,10.17,9.77,10.17,9.77Z"/>
          <path class="cls-1" d="M110.42,36.69l.21-.29c-1.98-3.67-4.68-6.88-6.68-9.01-2.38-2.52-4.31-4.1-4.33-4.11-.07-.06-.17-.05-.23,.02-.06,.07-.05,.17,.02,.23,.02,.02,1.94,1.58,4.3,4.09,2.01,2.14,4.74,5.38,6.7,9.07Z"/>
          <path class="cls-2" d="M115.77,44.16c-.48-2.17-2.35-11.32-1.39-19.88,1.18-10.56-3.34-12.54-5.98-10.28-7.99,6.83,2.84,27.38,4.36,30.16h3.01Z"/>
          <path class="cls-1" d="M114.74,44.16c-2.18-5.48-3.24-11.32-3.76-15.43-.62-4.95-.59-8.54-.59-8.57,0-.13-.1-.23-.23-.23-.13,0-.23,.1-.24,.23,0,.04-.03,3.65,.59,8.63,.51,4.1,1.56,9.9,3.72,15.38h.5Z"/>
        </g>
      </g>
    </g>
  </g>
</svg>