<?xml version="1.0" encoding="UTF-8"?>
<svg xmlns="http://www.w3.org/2000/svg" xmlns:xlink="http://www.w3.org/1999/xlink" viewBox="0 0 161.91 184.62">
  <defs>
    <style>
      .cls-1 {
        fill: url(#linear-gradient-2);
      }

      .cls-2, .cls-3 {
        fill: #fff;
      }

      .cls-4 {
        fill: #75b3e2;
      }

      .cls-5 {
        fill: #939598;
      }

      .cls-6 {
        fill: #e3eef4;
      }

      .cls-7 {
        stroke: url(#linear-gradient);
        stroke-width: 1.45px;
      }

      .cls-7, .cls-8 {
        fill: none;
        stroke-miterlimit: 10;
      }

      .cls-9 {
        fill: url(#linear-gradient-6);
      }

      .cls-10 {
        isolation: isolate;
      }

      .cls-3, .cls-11 {
        mix-blend-mode: soft-light;
      }

      .cls-12 {
        fill: #91c5e4;
      }

      .cls-13 {
        fill: #aed9ea;
      }

      .cls-14 {
        fill: #606161;
      }

      .cls-8 {
        stroke: #131f44;
        stroke-width: 1.22px;
      }

      .cls-15 {
        fill: url(#linear-gradient-5);
      }

      .cls-16 {
        fill: url(#linear-gradient-3);
      }

      .cls-11 {
        fill: #d5d7d8;
      }

      .cls-17 {
        fill: url(#linear-gradient-4);
      }
    </style>
    <linearGradient id="linear-gradient" x1="79.35" y1="111.98" x2="153.13" y2="111.98" gradientUnits="userSpaceOnUse">
      <stop offset="0" stop-color="#486ab3"/>
      <stop offset="1" stop-color="#292b74"/>
    </linearGradient>
    <linearGradient id="linear-gradient-2" x1="88.05" y1="112.04" x2="100.12" y2="112.04" xlink:href="#linear-gradient"/>
    <linearGradient id="linear-gradient-3" x1="100.84" y1="112.04" x2="112.91" y2="112.04" xlink:href="#linear-gradient"/>
    <linearGradient id="linear-gradient-4" x1="113.63" y1="112.04" x2="125.7" y2="112.04" xlink:href="#linear-gradient"/>
    <linearGradient id="linear-gradient-5" x1="59.4" y1="69.36" x2="84.01" y2="69.36" xlink:href="#linear-gradient"/>
    <linearGradient id="linear-gradient-6" x1="84.34" y1="36.09" x2="112.46" y2="36.09" xlink:href="#linear-gradient"/>
  </defs>
  <g class="cls-10">
    <g id="Layer_2" data-name="Layer 2">
      <g id="Layer_1-2" data-name="Layer 1">
        <g>
          <path class="cls-5" d="M.97,178.84v2.86c0,1.61,1.53,2.92,3.41,2.92H157.36c1.88,0,3.41-1.31,3.41-2.92v-2.86H.97Z"/>
          <polygon class="cls-4" points="0 176.89 161.91 176.89 140.72 158.3 25.15 158.3 0 176.89"/>
          <polygon class="cls-11" points="146.26 169.1 137.65 161.55 27.33 161.55 17.12 169.1 146.26 169.1"/>
          <polygon class="cls-11" points="101.62 175.75 98.96 171.25 64.91 171.25 61.76 175.75 101.62 175.75"/>
          <path class="cls-6" d="M26.77,81.94h112.32c1.61,0,2.92,1.31,2.92,2.92v71.74c0,1.61-1.31,2.92-2.92,2.92H26.78c-1.61,0-2.92-1.31-2.92-2.92V84.86c0-1.61,1.31-2.92,2.92-2.92Z"/>
          <path class="cls-14" d="M140.72,155.4c0,1.56-1.28,2.82-2.86,2.82H28.01c-1.58,0-2.86-1.26-2.86-2.82V86.06c0-1.56,1.28-2.82,2.86-2.82h109.85c1.58,0,2.86,1.26,2.86,2.82v69.34Z"/>
          <rect class="cls-4" x="31.32" y="89.4" width="102.26" height="61.36"/>
          <path class="cls-3" d="M60.95,155.27c5.14-3.89,10.09-8.05,14.75-12.51,9.62-9.21,18.24-19.48,25.73-30.5,6.26-9.2,11.86-18.92,16.6-29.03H28.01c-1.58,0-2.86,1.26-2.86,2.82v69.34c0,1.56,1.28,2.82,2.86,2.82h28.83c1.4-.95,2.76-1.94,4.1-2.95Z"/>
          <path class="cls-5" d="M85.61,86.44c0,.87-.71,1.58-1.58,1.58s-1.58-.71-1.58-1.58,.71-1.58,1.58-1.58,1.58,.71,1.58,1.58Z"/>
          <rect class="cls-14" y="176.89" width="161.91" height="3.89"/>
          <g>
            <rect class="cls-2" x="80.08" y="103.55" width="72.33" height="16.86" rx="4.08" ry="4.08"/>
            <rect class="cls-7" x="80.08" y="103.55" width="72.33" height="16.86" rx="4.08" ry="4.08"/>
          </g>
          <g>
            <path class="cls-1" d="M90.08,109.09l1.37,4.68,1.24-4.35c.13-.46,.23-.77,.3-.93,.06-.17,.18-.33,.36-.48,.18-.15,.42-.23,.73-.23s.56,.08,.73,.23c.18,.15,.3,.31,.37,.49,.07,.18,.17,.48,.3,.92l1.24,4.35,1.38-4.68c.09-.34,.17-.58,.22-.73,.06-.15,.15-.28,.28-.4,.13-.12,.33-.17,.58-.17s.47,.09,.65,.26c.18,.17,.28,.38,.28,.61,0,.21-.08,.54-.24,.98l-1.71,5.02c-.15,.42-.26,.73-.35,.92-.08,.19-.21,.36-.39,.51-.18,.15-.42,.22-.73,.22s-.57-.08-.75-.24c-.18-.16-.32-.35-.4-.58-.09-.23-.18-.53-.28-.9l-1.2-4.09-1.16,4.09c-.15,.57-.32,1-.5,1.29-.18,.29-.49,.43-.94,.43-.23,0-.43-.04-.59-.13-.16-.09-.3-.22-.4-.38-.11-.17-.2-.36-.28-.59-.08-.23-.15-.41-.19-.54l-1.7-5.02c-.17-.47-.25-.8-.25-.98,0-.23,.09-.43,.27-.61,.18-.18,.4-.27,.66-.27,.35,0,.58,.1,.71,.3,.12,.2,.25,.53,.39,1.01Z"/>
            <path class="cls-16" d="M102.87,109.09l1.37,4.68,1.24-4.35c.13-.46,.23-.77,.3-.93,.06-.17,.18-.33,.36-.48,.18-.15,.42-.23,.73-.23s.56,.08,.73,.23c.18,.15,.3,.31,.37,.49,.07,.18,.17,.48,.3,.92l1.24,4.35,1.38-4.68c.09-.34,.17-.58,.22-.73,.06-.15,.15-.28,.28-.4,.13-.12,.33-.17,.58-.17s.47,.09,.65,.26c.18,.17,.28,.38,.28,.61,0,.21-.08,.54-.24,.98l-1.71,5.02c-.15,.42-.26,.73-.35,.92-.08,.19-.21,.36-.39,.51-.18,.15-.42,.22-.73,.22s-.57-.08-.75-.24c-.18-.16-.32-.35-.4-.58-.09-.23-.18-.53-.28-.9l-1.2-4.09-1.16,4.09c-.15,.57-.32,1-.5,1.29-.18,.29-.49,.43-.94,.43-.23,0-.43-.04-.59-.13-.16-.09-.3-.22-.4-.38-.11-.17-.2-.36-.28-.59-.08-.23-.15-.41-.19-.54l-1.7-5.02c-.17-.47-.25-.8-.25-.98,0-.23,.09-.43,.27-.61s.4-.27,.66-.27c.35,0,.58,.1,.71,.3s.25,.53,.39,1.01Z"/>
            <path class="cls-17" d="M115.66,109.09l1.37,4.68,1.24-4.35c.13-.46,.23-.77,.3-.93,.06-.17,.18-.33,.36-.48,.18-.15,.42-.23,.73-.23s.56,.08,.73,.23c.18,.15,.3,.31,.37,.49,.07,.18,.17,.48,.3,.92l1.24,4.35,1.38-4.68c.09-.34,.17-.58,.22-.73,.06-.15,.15-.28,.28-.4,.13-.12,.33-.17,.58-.17s.47,.09,.65,.26c.18,.17,.28,.38,.28,.61,0,.21-.08,.54-.24,.98l-1.71,5.02c-.15,.42-.26,.73-.35,.92-.08,.19-.21,.36-.39,.51-.18,.15-.42,.22-.73,.22s-.57-.08-.75-.24c-.18-.16-.32-.35-.4-.58-.09-.23-.18-.53-.28-.9l-1.2-4.09-1.16,4.09c-.15,.57-.32,1-.5,1.29-.18,.29-.49,.43-.94,.43-.23,0-.43-.04-.59-.13-.16-.09-.3-.22-.4-.38-.11-.17-.2-.36-.28-.59-.08-.23-.15-.41-.19-.54l-1.7-5.02c-.17-.47-.25-.8-.25-.98,0-.23,.09-.43,.27-.61,.18-.18,.4-.27,.66-.27,.35,0,.58,.1,.71,.3,.12,.2,.25,.53,.39,1.01Z"/>
          </g>
          <line class="cls-8" x1="127.94" y1="106.48" x2="127.94" y2="117.9"/>
          <path class="cls-4" d="M154.21,121.43c1.12-.25,1.23-.94,.25-1.53l-20.06-12.15c-.98-.59-1.53-.18-1.22,.93l6.28,22.6c.31,1.1,1,1.18,1.54,.17l2-3.71c.54-1.01,1.55-1.08,2.24-.17l6.23,8.22c.69,.91,2,1.09,2.91,.4l.78-.59c.91-.69,1.09-2,.4-2.91l-6.23-8.22c-.69-.91-.34-1.86,.77-2.11l4.11-.92Z"/>
          <path class="cls-6" d="M133.58,143.3c-3.2-6.15-11.47-5.91-14.1-1.16-.32-5.74-10.3-8.94-13.44-1.47,1.06-8.7-10.02-11.9-14.39-6.48-1.64-6.77-11.87-9.35-17.21-.5,2.13-8.61-8.94-15.5-16.24-8.94-11.16-11.73,.19-33.28,1.35-37.88-1.65-.23-2.6-1.53-3.64-2.7-2.98,2.47-12.05,19.95-13.55,23.6-3.45,8.43-7.24,5.89-7.24,5.89-4.82-2.6-15.9,5.27-8.43,14.84-5.01-1.2-6.98,7.42-1.54,10.87-7.9,1.72-4.21,12.8,6.17,11.4h102.26v-7.46Z"/>
          <path class="cls-13" d="M73.99,85.18c-7.37,9.31-23.65,13.07-23.65,13.07,0,0-.47-20.01,5.44-27.48,5.91-7.47,19.71-6.2,19.71-6.2,0,0,5.87,11.3-1.5,20.61Z"/>
          <path class="cls-6" d="M72.93,80.79c-5.13,6.49-16.45,9.12-16.45,9.12,0,0-.3-13.92,3.81-19.12,4.12-5.2,13.71-4.34,13.71-4.34,0,0,4.06,7.85-1.07,14.34Z"/>
          <path class="cls-4" d="M88.19,93.5c-5.06-4-4.68-17.85-4.68-17.85,0,0,20.47-18.77,22.49-17.16,6.49,5.13-15.79,36.62-17.82,35.02Z"/>
          <path class="cls-4" d="M107.02,60.13c-1.97,5.54-4.74,10.81-8.05,15.67-2.38,3.49-4.78,7.21-7.56,10.41-1.58,1.82-3.33,3.41-5.42,4.38,.59,1.19,1.31,2.2,2.2,2.91,1.87,1.48,20.97-25.19,18.83-33.37Z"/>
          <path class="cls-4" d="M44.66,59.05c5.06,4,18.45,.44,18.45,.44,0,0,13.56-24.24,11.53-25.84-6.49-5.13-32,23.79-29.98,25.4Z"/>
          <path class="cls-4" d="M72.8,33.05c-4.94,3.19-9.43,7.09-13.4,11.44-2.85,3.12-5.92,6.31-8.39,9.75-1.41,1.95-2.55,4.02-3.02,6.29-1.29-.3-2.44-.76-3.34-1.47-1.87-1.48,19.69-26.2,28.14-26Z"/>
          <path class="cls-15" d="M82.81,78.46c-1.18,1.5-3.1,1.95-4.29,1.01l-18.23-14.42c-1.18-.94-1.19-2.91,0-4.41l.3-.38c1.18-1.5,3.1-1.95,4.29-1.01l18.23,14.43c1.18,.94,1.19,2.91,0,4.41l-.3,.38Z"/>
          <path class="cls-12" d="M126.32,.19s-24.66-4.25-49.77,27.49c-12.29,15.53-16.73,32.82-16.73,32.82l11.55,9.14,11.55,9.14s15.81-8.3,28.09-23.83C136.13,23.21,126.32,.19,126.32,.19Z"/>
          <path class="cls-6" d="M127.46,20.79c2.18-12.79-1.14-20.6-1.14-20.6,0,0-8.37-1.44-20.31,3.63l21.46,16.98Z"/>
          <path class="cls-9" d="M109.43,44.82c-4.82,6.09-13.66,7.12-19.75,2.3-6.09-4.82-7.12-13.66-2.3-19.75,4.82-6.09,13.66-7.12,19.75-2.3,6.09,4.82,7.12,13.66,2.3,19.75Z"/>
          <path class="cls-4" d="M106.85,42.77c-3.69,4.67-10.46,5.46-15.13,1.76-2.46-1.95-3.85-4.76-4.06-7.66-.05-.76-.03-1.52,.08-2.28,.05-.38,.12-.75,.21-1.11,.25-1.01,.65-1.99,1.21-2.92,.23-.4,.5-.78,.79-1.16,3.69-4.67,10.47-5.45,15.13-1.76,2.31,1.83,3.67,4.42,4.01,7.14,.13,1.04,.1,2.11-.08,3.16-.06,.37-.15,.74-.25,1.1-.21,.72-.49,1.44-.86,2.12-.29,.56-.65,1.1-1.05,1.61Z"/>
          <path class="cls-3" d="M109.01,37.94l-21.06-4.46c.25-1.01,.65-1.99,1.21-2.92l19.93,4.22c.13,1.04,.1,2.11-.08,3.16Z"/>
          <path class="cls-3" d="M107.9,41.16l-20.24-4.29c-.05-.76-.03-1.52,.08-2.28l21.03,4.45c-.21,.72-.49,1.44-.86,2.12Z"/>
          <path class="cls-4" d="M108.86,33.52c.2,2.61-.54,5.3-2.29,7.51-3.69,4.66-10.46,5.45-15.13,1.76-1.95-1.54-3.22-3.63-3.77-5.87,.22,2.89,1.6,5.68,4.05,7.62,4.67,3.69,11.44,2.9,15.13-1.76,2.15-2.71,2.77-6.14,2.01-9.26Z"/>
        </g>
      </g>
    </g>
  </g>
</svg>