<?xml version="1.0" encoding="UTF-8"?>
<svg xmlns="http://www.w3.org/2000/svg" xmlns:xlink="http://www.w3.org/1999/xlink" viewBox="0 0 50 50">
  <defs>
    <style>
      .cls-1 {
        fill: url(#linear-gradient-2);
      }

      .cls-2 {
        stroke: url(#linear-gradient-22);
      }

      .cls-2, .cls-3, .cls-4, .cls-5, .cls-6, .cls-7, .cls-8, .cls-9, .cls-10, .cls-11, .cls-12, .cls-13, .cls-14, .cls-15, .cls-16, .cls-17, .cls-18 {
        fill: none;
      }

      .cls-2, .cls-3, .cls-4, .cls-5, .cls-6, .cls-7, .cls-8, .cls-9, .cls-10, .cls-11, .cls-12, .cls-14, .cls-15, .cls-16, .cls-17, .cls-18 {
        stroke-miterlimit: 10;
        stroke-width: .1px;
      }

      .cls-2, .cls-3, .cls-4, .cls-5, .cls-6, .cls-7, .cls-8, .cls-9, .cls-10, .cls-11, .cls-12, .cls-15, .cls-16, .cls-17, .cls-18 {
        stroke-linecap: round;
      }

      .cls-19 {
        fill: #fff;
      }

      .cls-3 {
        stroke: url(#linear-gradient-18);
      }

      .cls-20, .cls-21 {
        fill: #75b3e2;
      }

      .cls-4 {
        stroke: url(#linear-gradient-16);
      }

      .cls-22 {
        fill: #bcd;
      }

      .cls-5 {
        stroke: url(#linear-gradient-17);
      }

      .cls-6 {
        stroke: #718799;
      }

      .cls-23 {
        fill: url(#linear-gradient-14);
      }

      .cls-7 {
        stroke: #b1c6e4;
      }

      .cls-24 {
        fill: url(#linear-gradient-6);
      }

      .cls-25 {
        fill: #cc8e75;
      }

      .cls-26 {
        isolation: isolate;
      }

      .cls-8 {
        stroke: url(#linear-gradient-15);
      }

      .cls-27 {
        fill: url(#linear-gradient-11);
      }

      .cls-9 {
        stroke: #af7e63;
      }

      .cls-10 {
        stroke: url(#linear-gradient-20);
      }

      .cls-28 {
        fill: #dfab95;
      }

      .cls-29 {
        fill: #a6bacc;
      }

      .cls-30 {
        fill: #9bb1c5;
      }

      .cls-31 {
        fill: #7492bf;
      }

      .cls-32 {
        fill: #607c93;
      }

      .cls-11 {
        stroke: url(#linear-gradient-19);
      }

      .cls-33, .cls-34, .cls-35 {
        fill: #f8a596;
      }

      .cls-34 {
        opacity: .39;
      }

      .cls-34, .cls-35 {
        mix-blend-mode: multiply;
      }

      .cls-21 {
        opacity: .54;
      }

      .cls-36 {
        fill: url(#linear-gradient-5);
      }

      .cls-37 {
        fill: #e2eaf1;
      }

      .cls-38 {
        fill: #ea7b68;
      }

      .cls-39 {
        clip-path: url(#clippath);
      }

      .cls-12 {
        stroke: #546d7f;
      }

      .cls-40 {
        fill: url(#linear-gradient-7);
      }

      .cls-14 {
        stroke: #a9c5e2;
      }

      .cls-35 {
        opacity: .57;
      }

      .cls-41 {
        fill: url(#linear-gradient-9);
      }

      .cls-15 {
        stroke: url(#linear-gradient-21);
      }

      .cls-42 {
        fill: url(#linear-gradient-3);
      }

      .cls-43 {
        fill: #59280e;
      }

      .cls-16 {
        stroke: #85271f;
      }

      .cls-44 {
        fill: url(#linear-gradient);
      }

      .cls-45 {
        fill: #87a1ce;
      }

      .cls-46 {
        fill: url(#linear-gradient-23);
      }

      .cls-47 {
        fill: url(#linear-gradient-4);
      }

      .cls-17 {
        stroke: #b6584c;
      }

      .cls-18 {
        stroke: url(#linear-gradient-10);
      }

      .cls-48 {
        fill: url(#linear-gradient-8);
      }

      .cls-49 {
        fill: url(#linear-gradient-12);
      }

      .cls-50 {
        fill: url(#linear-gradient-13);
      }
    </style>
    <clipPath id="clippath">
      <rect class="cls-13" width="50" height="50"/>
    </clipPath>
    <linearGradient id="linear-gradient" x1="5.37" y1="19.46" x2="18.2" y2="19.46" gradientUnits="userSpaceOnUse">
      <stop offset="0" stop-color="#486ab3"/>
      <stop offset="1" stop-color="#292b74"/>
    </linearGradient>
    <linearGradient id="linear-gradient-2" x1="22.09" y1="7.39" x2="30.35" y2="7.39" xlink:href="#linear-gradient"/>
    <linearGradient id="linear-gradient-3" x1="4.2" y1="34.35" x2="18.81" y2="34.35" xlink:href="#linear-gradient"/>
    <linearGradient id="linear-gradient-4" x1="4.2" y1="37.98" x2="18.81" y2="37.98" xlink:href="#linear-gradient"/>
    <linearGradient id="linear-gradient-5" x1="4.2" y1="41.62" x2="18.81" y2="41.62" xlink:href="#linear-gradient"/>
    <linearGradient id="linear-gradient-6" x1="4.2" y1="45.25" x2="18.81" y2="45.25" xlink:href="#linear-gradient"/>
    <linearGradient id="linear-gradient-7" x1="4.2" y1="48.88" x2="18.81" y2="48.88" xlink:href="#linear-gradient"/>
    <linearGradient id="linear-gradient-8" x1="18.77" y1="21.75" x2="39.64" y2="21.75" xlink:href="#linear-gradient"/>
    <linearGradient id="linear-gradient-9" x1="28.95" y1="40.74" x2="45.88" y2="40.74" xlink:href="#linear-gradient"/>
    <linearGradient id="linear-gradient-10" x1="41.85" y1="43.27" x2="44.93" y2="43.27" xlink:href="#linear-gradient"/>
    <linearGradient id="linear-gradient-11" x1="31.58" y1="26.01" x2="43.35" y2="26.01" xlink:href="#linear-gradient"/>
    <linearGradient id="linear-gradient-12" x1="37.59" y1="25.44" x2="48.58" y2="25.44" xlink:href="#linear-gradient"/>
    <linearGradient id="linear-gradient-13" x1="37.47" y1="33.95" x2="40.99" y2="33.95" gradientTransform="translate(14.22 -11.5) rotate(20.31)" xlink:href="#linear-gradient"/>
    <linearGradient id="linear-gradient-14" x1="17.96" y1="19.37" x2="22.79" y2="19.37" gradientTransform="translate(-7 25.75) rotate(-56.67)" xlink:href="#linear-gradient"/>
    <linearGradient id="linear-gradient-15" x1="41.07" y1="24.44" x2="45.32" y2="24.44" xlink:href="#linear-gradient"/>
    <linearGradient id="linear-gradient-16" x1="39.55" y1="30.05" x2="43.55" y2="30.05" xlink:href="#linear-gradient"/>
    <linearGradient id="linear-gradient-17" x1="41.08" y1="31.63" x2="48.69" y2="31.63" xlink:href="#linear-gradient"/>
    <linearGradient id="linear-gradient-18" x1="31.53" y1="22.66" x2="32.43" y2="22.66" xlink:href="#linear-gradient"/>
    <linearGradient id="linear-gradient-19" x1="24.43" y1="22.56" x2="24.85" y2="22.56" xlink:href="#linear-gradient"/>
    <linearGradient id="linear-gradient-20" x1="23.96" y1="22.26" x2="24.51" y2="22.26" xlink:href="#linear-gradient"/>
    <linearGradient id="linear-gradient-21" x1="28.97" y1="24.26" x2="31.63" y2="24.26" xlink:href="#linear-gradient"/>
    <linearGradient id="linear-gradient-22" x1="33.51" y1="46.28" x2="36.25" y2="46.28" xlink:href="#linear-gradient"/>
    <linearGradient id="linear-gradient-23" x1="22.06" y1="32.62" x2="36.56" y2="32.62" xlink:href="#linear-gradient"/>
  </defs>
  <g class="cls-26">
    <g id="Layer_2" data-name="Layer 2">
      <g id="Layer_1-2" data-name="Layer 1">
        <g class="cls-39">
          <circle class="cls-21" cx="30.62" cy="25.57" r="16.75"/>
          <rect class="cls-37" x="-.74" y="46.02" width="52.74" height="9.1"/>
          <g>
            <g>
              <rect class="cls-44" x="5.37" y="12.95" width="12.83" height="13.01"/>
              <polyline class="cls-12" points="8.24 12.95 5.37 12.95 5.37 21.08"/>
              <polyline class="cls-12" points="15.59 25.96 18.2 25.96 18.2 21.93"/>
              <rect class="cls-1" x="22.09" y="5.03" width="8.27" height="4.73"/>
              <g>
                <circle class="cls-20" cx="7.69" cy="6.59" r="2.04"/>
                <circle class="cls-20" cx="16.51" cy="7.21" r="1.41"/>
                <circle class="cls-20" cx="12.41" cy="5.59" r="3.04"/>
                <polygon class="cls-20" points="16.51 8.63 7.69 8.63 7.97 5.8 16.09 7.21 16.51 8.63"/>
                <path class="cls-12" d="M8.99,5.03c.94,.63,.85,2.18,.85,2.18"/>
                <path class="cls-12" d="M14.54,3.42c1.11,1.36,1.15,2.67,.72,3.24"/>
                <line class="cls-12" x1="16.01" y1="8.69" x2="13.88" y2="8.69"/>
              </g>
              <line class="cls-14" x1="11.5" y1="26.22" x2="11.5" y2="32.57"/>
              <rect class="cls-32" x="11.24" y="25.52" width=".52" height="1.4" transform="translate(37.73 14.72) rotate(90)"/>
              <rect class="cls-32" x="11.24" y="31.87" width=".52" height="1.4" transform="translate(44.07 21.07) rotate(90)"/>
              <g>
                <line class="cls-14" x1="11.5" y1="8.77" x2="11.5" y2="12.76"/>
                <rect class="cls-32" x="11.24" y="8.15" width=".52" height="1.4" transform="translate(20.35 -2.65) rotate(90)"/>
                <rect class="cls-32" x="11.24" y="11.98" width=".52" height="1.4" transform="translate(24.18 1.18) rotate(90)"/>
              </g>
              <g>
                <line class="cls-14" x1="21.95" y1="7.21" x2="17.87" y2="7.21"/>
                <rect class="cls-32" x="21.56" y="6.51" width=".52" height="1.4" transform="translate(43.65 14.43) rotate(180)"/>
                <rect class="cls-32" x="17.74" y="6.51" width=".52" height="1.4" transform="translate(36 14.43) rotate(180)"/>
              </g>
              <g>
                <g>
                  <rect class="cls-22" x="7.04" y="15.71" width="9.47" height="2.2"/>
                  <rect class="cls-19" x="7.84" y="16.21" width="2.77" height="1.05"/>
                  <path class="cls-19" d="M12.45,16.81c0,.18-.15,.33-.33,.33s-.33-.15-.33-.33,.15-.33,.33-.33,.33,.15,.33,.33Z"/>
                  <path class="cls-32" d="M13.5,16.81c0,.18-.15,.33-.33,.33s-.33-.15-.33-.33,.15-.33,.33-.33,.33,.15,.33,.33Z"/>
                  <path class="cls-19" d="M14.54,16.81c0,.18-.15,.33-.33,.33s-.33-.15-.33-.33,.15-.33,.33-.33,.33,.15,.33,.33Z"/>
                  <path class="cls-19" d="M15.59,16.81c0,.18-.15,.33-.33,.33s-.33-.15-.33-.33,.15-.33,.33-.33,.33,.15,.33,.33Z"/>
                </g>
                <g>
                  <line class="cls-6" x1="11.79" y1="17.91" x2="11.79" y2="21.25"/>
                  <polyline class="cls-6" points="16.2 21.25 16.2 19.52 7.56 19.52 7.56 21.25"/>
                </g>
                <g>
                  <rect class="cls-29" x="6.89" y="21.25" width="1.35" height="1.35"/>
                  <rect class="cls-29" x="11.11" y="21.25" width="1.35" height="1.35"/>
                  <rect class="cls-29" x="15.34" y="21.25" width="1.35" height="1.35"/>
                </g>
              </g>
              <g>
                <g>
                  <g>
                    <rect class="cls-30" x="4.77" y="35.87" width="13.46" height=".59"/>
                    <g>
                      <rect class="cls-42" x="4.2" y="32.83" width="14.61" height="3.04" rx=".35" ry=".35"/>
                      <g>
                        <rect class="cls-32" x="5.14" y="33.75" width="4.33" height="1.36"/>
                        <rect class="cls-30" x="5.6" y="34.1" width="1.79" height=".33"/>
                        <rect class="cls-30" x="7.89" y="34.1" width=".72" height=".33"/>
                        <rect class="cls-30" x="10.06" y="33.75" width=".75" height="1.36"/>
                      </g>
                      <g>
                        <path class="cls-30" d="M13.01,34.35c0,.21-.17,.38-.38,.38s-.38-.17-.38-.38,.17-.38,.38-.38,.38,.17,.38,.38Z"/>
                        <path class="cls-30" d="M14.59,34.35c0,.21-.17,.38-.38,.38s-.38-.17-.38-.38,.17-.38,.38-.38,.38,.17,.38,.38Z"/>
                        <path class="cls-30" d="M16.16,34.35c0,.21-.17,.38-.38,.38s-.38-.17-.38-.38,.17-.38,.38-.38,.38,.17,.38,.38Z"/>
                        <path class="cls-30" d="M17.73,34.35c0,.21-.17,.38-.38,.38s-.38-.17-.38-.38,.17-.38,.38-.38,.38,.17,.38,.38Z"/>
                      </g>
                    </g>
                    <rect class="cls-32" x="3.67" y="33.65" width=".52" height="1.4"/>
                    <rect class="cls-32" x="18.81" y="33.65" width=".52" height="1.4"/>
                  </g>
                  <path class="cls-12" d="M4.77,35.87h13.54c.27,0,.5-.22,.5-.5v-1.28"/>
                </g>
                <g>
                  <g>
                    <rect class="cls-30" x="4.77" y="39.5" width="13.46" height=".59"/>
                    <g>
                      <rect class="cls-47" x="4.2" y="36.46" width="14.61" height="3.04" rx=".35" ry=".35"/>
                      <g>
                        <rect class="cls-32" x="5.14" y="37.38" width="4.33" height="1.36"/>
                        <rect class="cls-30" x="5.6" y="37.73" width="1.79" height=".33"/>
                        <rect class="cls-30" x="7.89" y="37.73" width=".72" height=".33"/>
                        <rect class="cls-30" x="10.06" y="37.38" width=".75" height="1.36"/>
                      </g>
                      <g>
                        <path class="cls-30" d="M13.01,37.98c0,.21-.17,.38-.38,.38s-.38-.17-.38-.38,.17-.38,.38-.38,.38,.17,.38,.38Z"/>
                        <path class="cls-30" d="M14.59,37.98c0,.21-.17,.38-.38,.38s-.38-.17-.38-.38,.17-.38,.38-.38,.38,.17,.38,.38Z"/>
                        <path class="cls-30" d="M16.16,37.98c0,.21-.17,.38-.38,.38s-.38-.17-.38-.38,.17-.38,.38-.38,.38,.17,.38,.38Z"/>
                        <path class="cls-30" d="M17.73,37.98c0,.21-.17,.38-.38,.38s-.38-.17-.38-.38,.17-.38,.38-.38,.38,.17,.38,.38Z"/>
                      </g>
                    </g>
                    <rect class="cls-32" x="3.67" y="37.28" width=".52" height="1.4"/>
                    <rect class="cls-32" x="18.81" y="37.28" width=".52" height="1.4"/>
                  </g>
                  <path class="cls-12" d="M4.77,39.5h13.54c.27,0,.5-.22,.5-.5v-1.28"/>
                </g>
                <g>
                  <g>
                    <rect class="cls-30" x="4.77" y="43.14" width="13.46" height=".59"/>
                    <g>
                      <rect class="cls-36" x="4.2" y="40.1" width="14.61" height="3.04" rx=".35" ry=".35"/>
                      <g>
                        <rect class="cls-32" x="5.14" y="41.01" width="4.33" height="1.36"/>
                        <rect class="cls-30" x="5.6" y="41.36" width="1.79" height=".33"/>
                        <rect class="cls-30" x="7.89" y="41.36" width=".72" height=".33"/>
                        <rect class="cls-30" x="10.06" y="41.01" width=".75" height="1.36"/>
                      </g>
                      <g>
                        <path class="cls-30" d="M13.01,41.62c0,.21-.17,.38-.38,.38s-.38-.17-.38-.38,.17-.38,.38-.38,.38,.17,.38,.38Z"/>
                        <path class="cls-30" d="M14.59,41.62c0,.21-.17,.38-.38,.38s-.38-.17-.38-.38,.17-.38,.38-.38,.38,.17,.38,.38Z"/>
                        <path class="cls-30" d="M16.16,41.62c0,.21-.17,.38-.38,.38s-.38-.17-.38-.38,.17-.38,.38-.38,.38,.17,.38,.38Z"/>
                        <path class="cls-30" d="M17.73,41.62c0,.21-.17,.38-.38,.38s-.38-.17-.38-.38,.17-.38,.38-.38,.38,.17,.38,.38Z"/>
                      </g>
                    </g>
                    <rect class="cls-32" x="3.67" y="40.92" width=".52" height="1.4"/>
                    <rect class="cls-32" x="18.81" y="40.92" width=".52" height="1.4"/>
                  </g>
                  <path class="cls-12" d="M4.77,43.14h13.54c.27,0,.5-.22,.5-.5v-1.28"/>
                </g>
                <g>
                  <g>
                    <rect class="cls-30" x="4.77" y="46.77" width="13.46" height=".59"/>
                    <g>
                      <rect class="cls-24" x="4.2" y="43.73" width="14.61" height="3.04" rx=".35" ry=".35"/>
                      <g>
                        <rect class="cls-32" x="5.14" y="44.64" width="4.33" height="1.36"/>
                        <rect class="cls-30" x="5.6" y="44.99" width="1.79" height=".33"/>
                        <rect class="cls-30" x="7.89" y="44.99" width=".72" height=".33"/>
                        <rect class="cls-30" x="10.06" y="44.64" width=".75" height="1.36"/>
                      </g>
                      <g>
                        <path class="cls-30" d="M13.01,45.25c0,.21-.17,.38-.38,.38s-.38-.17-.38-.38,.17-.38,.38-.38,.38,.17,.38,.38Z"/>
                        <path class="cls-30" d="M14.59,45.25c0,.21-.17,.38-.38,.38s-.38-.17-.38-.38,.17-.38,.38-.38,.38,.17,.38,.38Z"/>
                        <path class="cls-30" d="M16.16,45.25c0,.21-.17,.38-.38,.38s-.38-.17-.38-.38,.17-.38,.38-.38,.38,.17,.38,.38Z"/>
                        <path class="cls-30" d="M17.73,45.25c0,.21-.17,.38-.38,.38s-.38-.17-.38-.38,.17-.38,.38-.38,.38,.17,.38,.38Z"/>
                      </g>
                    </g>
                    <rect class="cls-32" x="3.67" y="44.55" width=".52" height="1.4"/>
                    <rect class="cls-32" x="18.81" y="44.55" width=".52" height="1.4"/>
                  </g>
                  <path class="cls-12" d="M4.77,46.77h13.54c.27,0,.5-.22,.5-.5v-1.28"/>
                </g>
                <g>
                  <g>
                    <g>
                      <rect class="cls-40" x="4.2" y="47.36" width="14.61" height="3.04" rx=".35" ry=".35"/>
                      <g>
                        <rect class="cls-32" x="5.14" y="48.27" width="4.33" height="1.36"/>
                        <rect class="cls-30" x="5.6" y="48.62" width="1.79" height=".33"/>
                        <rect class="cls-30" x="7.89" y="48.62" width=".72" height=".33"/>
                        <rect class="cls-30" x="10.06" y="48.27" width=".75" height="1.36"/>
                      </g>
                      <g>
                        <path class="cls-30" d="M13.01,48.88c0,.21-.17,.38-.38,.38s-.38-.17-.38-.38,.17-.38,.38-.38,.38,.17,.38,.38Z"/>
                        <path class="cls-30" d="M14.59,48.88c0,.21-.17,.38-.38,.38s-.38-.17-.38-.38,.17-.38,.38-.38,.38,.17,.38,.38Z"/>
                        <path class="cls-30" d="M16.16,48.88c0,.21-.17,.38-.38,.38s-.38-.17-.38-.38,.17-.38,.38-.38,.38,.17,.38,.38Z"/>
                        <path class="cls-30" d="M17.73,48.88c0,.21-.17,.38-.38,.38s-.38-.17-.38-.38,.17-.38,.38-.38,.38,.17,.38,.38Z"/>
                      </g>
                    </g>
                    <rect class="cls-32" x="3.67" y="48.18" width=".52" height="1.4"/>
                    <rect class="cls-32" x="18.81" y="48.18" width=".52" height="1.4"/>
                  </g>
                  <path class="cls-12" d="M4.77,50.4h13.54c.27,0,.5-.22,.5-.5v-1.28"/>
                </g>
              </g>
              <polyline class="cls-17" points="13.77 16.48 14.99 15.47 16.87 15.75 15.77 16.48"/>
              <g>
                <g>
                  <path class="cls-22" d="M25.71,13.24c-.83,0-1.51,.67-1.51,1.51s.67,1.51,1.51,1.51,1.51-.67,1.51-1.51-.67-1.51-1.51-1.51Zm0,2.27c-.42,0-.76-.34-.76-.76s.34-.76,.76-.76,.76,.34,.76,.76-.34,.76-.76,.76Z"/>
                  <g>
                    <rect class="cls-22" x="25.33" y="12.59" width=".81" height="1.05"/>
                    <rect class="cls-22" x="24.17" y="13.05" width=".81" height="1.05" transform="translate(-2.4 21.35) rotate(-45)"/>
                    <rect class="cls-22" x="23.67" y="14.2" width=".81" height="1.05" transform="translate(9.36 38.8) rotate(-90)"/>
                    <rect class="cls-22" x="24.13" y="15.36" width=".81" height="1.05" transform="translate(30.66 44.47) rotate(-135)"/>
                    <rect class="cls-22" x="25.28" y="15.86" width=".81" height="1.05" transform="translate(51.38 32.77) rotate(180)"/>
                    <rect class="cls-22" x="26.45" y="15.4" width=".81" height="1.05" transform="translate(57.1 8.2) rotate(135)"/>
                    <rect class="cls-22" x="26.94" y="14.25" width=".81" height="1.05" transform="translate(42.12 -12.57) rotate(90)"/>
                    <rect class="cls-22" x="26.48" y="13.09" width=".81" height="1.05" transform="translate(17.5 -15.03) rotate(45)"/>
                  </g>
                </g>
                <g>
                  <path class="cls-22" d="M28.91,11.83c-.42,0-.76,.34-.76,.76s.34,.76,.76,.76,.76-.34,.76-.76-.34-.76-.76-.76Zm0,1.14c-.21,0-.38-.17-.38-.38s.17-.38,.38-.38,.38,.17,.38,.38-.17,.38-.38,.38Z"/>
                  <g>
                    <rect class="cls-22" x="28.71" y="11.5" width=".41" height=".53"/>
                    <rect class="cls-22" x="28.13" y="11.73" width=".41" height=".53" transform="translate(-.18 23.55) rotate(-45)"/>
                    <rect class="cls-22" x="27.88" y="12.31" width=".41" height=".53" transform="translate(15.51 40.66) rotate(-90)"/>
                    <rect class="cls-22" x="28.11" y="12.9" width=".41" height=".53" transform="translate(39.03 42.49) rotate(-135)"/>
                    <rect class="cls-22" x="28.69" y="13.15" width=".41" height=".53" transform="translate(57.79 26.83) rotate(180)"/>
                    <rect class="cls-22" x="29.27" y="12.92" width=".41" height=".53" transform="translate(59.65 1.66) rotate(135)"/>
                    <rect class="cls-22" x="29.53" y="12.34" width=".41" height=".53" transform="translate(42.33 -17.13) rotate(90)"/>
                    <rect class="cls-22" x="29.29" y="11.75" width=".41" height=".53" transform="translate(17.13 -17.34) rotate(45)"/>
                  </g>
                </g>
              </g>
            </g>
            <g>
              <g>
                <g>
                  <path class="cls-25" d="M14.7,15.34s-.06,1.04,.05,1.26c.12,.23,1.19,.32,1.19,.32l2.06-1.13-1.57-1.1-1.33,.15-.4,.49Z"/>
                  <path class="cls-17" d="M15.24,15.73c0,.12,.04,.21,.09,.3,.13,.22,.36,.36,.62,.38l.47,.04"/>
                  <path class="cls-17" d="M15.93,15.57c.03,.46,.44,.47,.44,.47l.7,.06"/>
                  <polygon class="cls-28" points="21.44 18.21 18.97 15.53 17.12 16.85 19.26 20.67 21.44 18.21"/>
                  <path class="cls-28" d="M18.97,15.53s-1.08-1.13-1.39-1.25c-.3-.12-2.23,0-2.53,.18-.3,.19-2.01,1.86-1.97,2.05,.05,.19,.57,.36,1.44-.28s1.01-.7,1.01-.7l1.8,.43s-1.83,.87-1.77,1.26c.06,.39,1.52,.1,1.52,.1l1.46,1.27,.43-3.05Z"/>
                </g>
                <path class="cls-48" d="M38.98,15.57s-4.37-.13-5.61,.23c-1.24,.36-8.21,5.41-8.89,5.5l-3.29-3.51-2.42,2.38s4.12,7.21,5.52,7.76c1.41,.55,8.86-5.74,8.86-5.74l4.78-.98,1.71-3.72-.66-1.93Z"/>
                <path class="cls-41" d="M42.17,32.62s3.49,11.11,3.72,18.75h-7.46l-1.35-12.04-2.19,12.62h-5.93s.43-12.6,3.26-19.42c2.83-6.82,9.95,.08,9.95,.08Z"/>
                <path class="cls-18" d="M41.9,34.89c1.79,5.28,2.99,16.76,2.99,16.76"/>
                <path class="cls-27" d="M31.58,18.71s6.67-1.76,11.77-.18l-1.07,15.62h-10.7v-15.44Z"/>
                <path class="cls-35" d="M42.62,26.01c-1.94,4.76-11.04,6.07-11.04,6.07v2.06l11.24,.43-.2-8.56Z"/>
                <path class="cls-49" d="M39.77,15.04c1.94,.82,5.04,1.67,5.75,2.79,.71,1.12,4.16,12.92,2.7,14.15-1.46,1.23-8.85,3.86-8.85,3.86l-.98-2.88,5.11-4.51-2.68-8.38-3.22-.15v-4.02l2.18-.84Z"/>
                <path class="cls-19" d="M35.15,15.04c-.34,2.21,.04,3.67,2.04,3.95,1.88,.26,3.68-1.81,3.93-3.43,0,0-1.81-1.17-5.97-.52Z"/>
                <g>
                  <g>
                    <path class="cls-28" d="M36.2,15.38v1.15c0,1.03,1.07,1.74,2.52,1,1.24-.63,1.38-1.4,1.38-2.03v-3.24l-3.9,2.58v.55Z"/>
                    <path class="cls-34" d="M38.98,13c-.22,1.77-1.39,2.88-2.77,2.88,0-.02,0-.03,0-.05v-3.23l2.78,.39Z"/>
                    <path class="cls-28" d="M34.84,6.97c-2.19,1.45-2.12,3.43-1.8,5.07,.35,1.76,1.58,3.01,3.16,3.01,2.13,0,3.87-1.32,4.05-3.37,.18-2.05-.31-4.46-1.89-4.7-1.58-.24-3.52,0-3.52,0Z"/>
                    <path class="cls-43" d="M34.66,10.29c0,.19-.1,.35-.22,.35s-.22-.16-.22-.35,.1-.35,.22-.35,.22,.16,.22,.35Z"/>
                    <path class="cls-43" d="M37.17,10.29c0,.19-.1,.35-.22,.35s-.22-.16-.22-.35,.1-.35,.22-.35,.22,.16,.22,.35Z"/>
                    <path class="cls-43" d="M36.58,8.7c.52-.22,1.33,.04,1.4,.37,.08,.34-.06,.51-.21,.51s-.52-.43-1.22-.25c-.25,.06-.43-.43,.03-.63Z"/>
                    <path class="cls-43" d="M34.92,8.7c-.43-.22-1.1,.04-1.17,.37-.06,.34,.05,.51,.17,.51s.43-.43,1.02-.25c.21,.06,.36-.43-.02-.63Z"/>
                    <path class="cls-17" d="M35.56,10.03c-.07,.36-.26,1.16-.36,1.54-.03,.11,.05,.21,.16,.22,.23,.02,.59,.04,.73-.02"/>
                    <path class="cls-19" d="M36.12,12.24c.29-.04,.7-.17,.91-.27,.06-.03,.13,.02,.12,.09-.02,.16-.11,.39-.42,.5-.33,.12-.55-.05-.66-.18-.05-.05-.02-.13,.05-.14Z"/>
                    <g>
                      <path class="cls-28" d="M39.57,10.82c.5-.98,1.32-1.01,1.57-.39,.25,.62-.27,1.88-1.2,1.98"/>
                      <path class="cls-34" d="M40.69,10.66c.18,.11,.35,.48-.07,.83s-.84,.31-.84,.31c0,0-.07-.49,.19-.77,.27-.28,.59-.46,.72-.38Z"/>
                      <path class="cls-17" d="M39.86,11.21c.43-.74,.87-.62,.95-.43"/>
                      <path class="cls-17" d="M40.11,10.93c.33-.1,.35,.34,.23,.45"/>
                    </g>
                    <path class="cls-17" d="M36.2,15.04c1.95,0,3.31-1.2,3.66-2.04"/>
                    <path class="cls-34" d="M36.58,12.99c.15,0,.55-.3,.6-.2,.05,.1-.1,.31-.25,.41-.15,.1-.51-.21-.36-.21Z"/>
                    <ellipse class="cls-34" cx="37.97" cy="11.02" rx=".45" ry=".35"/>
                    <path class="cls-34" d="M34.44,11.02c0,.2-.2,.35-.45,.35s-.45-.16-.45-.35,.2-.35,.45-.35,.45,.16,.45,.35Z"/>
                  </g>
                  <path class="cls-43" d="M40.44,10.03c-.76,.26-1.06,1.35-1.06,1.35,0,0-.12-.98,.05-2.05-.49-.27-.45-1.31-.45-1.45,0,0-2.12,.68-3.44,.49-1.32-.19-1.61-.53-1.61-.53,0,0-.57,.5-.95,1.61,0,0-.11-2.14,1-2.58,0,0-.68-.87,.85-1.48,1.86-.75,5.98-.58,6.22,1.64,.61,.5,.79,2.36-.18,3.08,0,0-.18-.17-.44-.07Z"/>
                </g>
                <polygon class="cls-28" points="38.16 32.95 36.2 33.95 35.78 36.84 39.23 36.3 38.16 32.95"/>
                <line class="cls-17" x1="37.59" y1="33.24" x2="36.56" y2="33.77"/>
                <rect class="cls-50" x="38.09" y="31.94" width="2.27" height="4.02" transform="translate(-9.34 15.72) rotate(-20.31)"/>
                <rect class="cls-23" x="19.24" y="17.22" width="2.27" height="4.29" transform="translate(25.36 -8.3) rotate(56.67)"/>
                <path class="cls-8" d="M43.35,18.53c-1.16,.38-2.15,1.64-2.23,2.47-.08,.83,2.38,7.43,2.38,7.43,0,0,1.8,1.05,1.77,1.91"/>
                <line class="cls-4" x1="43.5" y1="28.44" x2="39.6" y2="31.67"/>
                <path class="cls-5" d="M41.13,35.18s6.03-2.11,6.7-2.93c.67-.83,1.14-1.09,.51-4.18"/>
                <path class="cls-3" d="M32.38,17.44c-.91,.78-.8,10.44-.8,10.44"/>
                <path class="cls-11" d="M24.8,23.82s.08-1.29-.31-2.52"/>
                <path class="cls-10" d="M24.46,21.57c-.07,.64-.45,1.38-.45,1.38"/>
                <line class="cls-15" x1="29.02" y1="25.44" x2="31.58" y2="23.09"/>
                <polyline class="cls-9" points="36.2 35.83 36.2 39.08 37.42 39.08 37.42 36.58"/>
                <line class="cls-2" x1="36.2" y1="39.08" x2="33.56" y2="53.49"/>
              </g>
              <g>
                <rect class="cls-33" x="21.13" y="37.2" width="27.51" height="1.51"/>
                <g>
                  <rect class="cls-33" x="22.55" y="38.71" width="1.35" height="12.59"/>
                  <rect class="cls-38" x="22.55" y="38.71" width="1.35" height="2.03"/>
                  <rect class="cls-33" x="45.62" y="38.71" width="1.35" height="12.59"/>
                  <rect class="cls-38" x="45.62" y="38.71" width="1.35" height="2.03"/>
                </g>
              </g>
              <g>
                <path class="cls-31" d="M26.31,36.12h13.44c.16,0,.29,.13,.29,.29v.55c0,.16-.13,.29-.29,.29h-13.44c-.16,0-.29-.13-.29-.29v-.55c0-.16,.13-.29,.29-.29Z"/>
                <path class="cls-31" d="M37.07,36.73h-12.93l-1.55-6.99c-.14-.63,.34-1.23,.98-1.23h10.64c.6,0,1.12,.42,1.25,1l1.6,7.22Z"/>
                <path class="cls-46" d="M36.56,36.73h-12.93l-1.55-6.99c-.14-.63,.34-1.23,.98-1.23h10.64c.6,0,1.12,.42,1.25,1l1.6,7.22Z"/>
                <path class="cls-45" d="M23.34,36.12h13.44c.16,0,.29,.13,.29,.29v.55c0,.16-.13,.29-.29,.29h-13.44c-.16,0-.29-.13-.29-.29v-.55c0-.16,.13-.29,.29-.29Z"/>
                <line class="cls-7" x1="23.41" y1="36.12" x2="33.56" y2="36.12"/>
                <path class="cls-19" d="M29.29,32.41c.12,.67-.12,1.28-.53,1.35-.42,.08-.85-.41-.97-1.08-.12-.67,.12-1.28,.53-1.35,.42-.08,.85,.41,.97,1.08Z"/>
              </g>
              <line class="cls-16" x1="21.13" y1="38.71" x2="48.64" y2="38.71"/>
            </g>
          </g>
        </g>
      </g>
    </g>
  </g>
</svg>