<?xml version="1.0" encoding="UTF-8"?>
<svg id="Layer_2" data-name="Layer 2" xmlns="http://www.w3.org/2000/svg" xmlns:xlink="http://www.w3.org/1999/xlink" viewBox="0 0 48.76 36.18">
  <defs>
    <style>
      .cls-1 {
        fill: #f6893f;
      }

      .cls-2 {
        fill: url(#linear-gradient-2);
      }

      .cls-3, .cls-4 {
        opacity: .7;
      }

      .cls-5, .cls-6, .cls-7, .cls-8, .cls-9, .cls-10, .cls-4, .cls-11, .cls-12 {
        fill: #fff;
      }

      .cls-13 {
        fill: #75b3e2;
      }

      .cls-6, .cls-14 {
        opacity: .4;
      }

      .cls-7, .cls-15 {
        opacity: .3;
      }

      .cls-16 {
        fill: url(#linear-gradient-6);
      }

      .cls-17, .cls-11 {
        opacity: .2;
      }

      .cls-8, .cls-18 {
        opacity: .1;
      }

      .cls-9 {
        opacity: .5;
      }

      .cls-10 {
        opacity: .8;
      }

      .cls-19 {
        stroke-width: .38px;
      }

      .cls-19, .cls-20, .cls-21 {
        fill: none;
        stroke: #263238;
        stroke-miterlimit: 10;
      }

      .cls-22 {
        fill: #5274b8;
      }

      .cls-23 {
        fill: url(#linear-gradient-5);
      }

      .cls-20 {
        stroke-width: .25px;
      }

      .cls-21 {
        stroke-width: .24px;
      }

      .cls-24 {
        fill: url(#linear-gradient-3);
      }

      .cls-12, .cls-25 {
        opacity: .6;
      }

      .cls-25 {
        fill: url(#linear-gradient);
      }

      .cls-26 {
        fill: #d2d5d8;
      }

      .cls-27 {
        fill: url(#linear-gradient-4);
      }

      .cls-28 {
        fill: #263238;
      }

      .cls-29 {
        fill: #faae7d;
      }
    </style>
    <linearGradient id="linear-gradient" x1="9.29" y1="26.66" x2="36.23" y2="26.66" gradientUnits="userSpaceOnUse">
      <stop offset="0" stop-color="#486ab3"/>
      <stop offset="1" stop-color="#292b74"/>
    </linearGradient>
    <linearGradient id="linear-gradient-2" x1="9.73" y1="16.68" x2="35.79" y2="16.68" xlink:href="#linear-gradient"/>
    <linearGradient id="linear-gradient-3" x1="8.74" y1="18.12" x2="10.21" y2="18.12" xlink:href="#linear-gradient"/>
    <linearGradient id="linear-gradient-4" x1="5.09" y1="4.28" x2="8.85" y2="4.28" xlink:href="#linear-gradient"/>
    <linearGradient id="linear-gradient-5" x1="9" y1="4.28" x2="10.67" y2="4.28" xlink:href="#linear-gradient"/>
    <linearGradient id="linear-gradient-6" x1="1.11" y1="20.59" x2="7.31" y2="20.59" xlink:href="#linear-gradient"/>
  </defs>
  <g id="Layer_1-2" data-name="Layer 1">
    <g>
      <g>
        <path class="cls-19" d="M26.18,17.49c0,.3-.24,.54-.54,.54s-.54-.24-.54-.54,.24-.54,.54-.54,.54,.24,.54,.54Z"/>
        <line class="cls-19" x1="26.01" y1="17.88" x2="26.88" y2="18.75"/>
      </g>
      <ellipse id="_Path_" data-name="&amp;lt;Path&amp;gt;" class="cls-26" cx="24.38" cy="34.76" rx="24.38" ry="1.42"/>
      <g>
        <path class="cls-28" d="M16.14,33.51l-.03,.29s0,.07,.01,.11h0s.01,.03,.02,.05,.02,.03,.03,.04c0,.01,.02,.02,.04,.03,.04,.03,.09,.05,.15,.05h10.36s.05,0,.07-.01c.02,0,.03-.01,.05-.02,.04-.02,.07-.05,.09-.08,0-.01,.02-.03,.03-.04,.02-.03,.03-.06,.03-.1l.02-.28s0-.07-.01-.1c0-.02-.01-.03-.02-.04-.02-.03-.05-.06-.08-.08-.01,0-.03-.01-.04-.02-.02,0-.05-.01-.07-.01h-2.58s-.07,0-.1,0h0s-.03,0-.04,0c0,0,0,0,0,0,0,0,0,0,0,0-.01,0-.03,0-.04-.02-.01,0-.03-.01-.04-.02-.02,0-.04-.02-.05-.03-.02-.02-.04-.03-.05-.05,0-.01-.02-.02-.03-.03,0,0-.01-.02-.02-.03,0,0,0,0,0,0,0,0,0,0,0,0,0-.01-.01-.02-.02-.04,0-.01-.01-.02-.01-.03,0,0,0,0,0,0,0,0,0,0,0,0,0,0,0,0,0,0,0,0,0-.02,0-.03,0-.01,0-.03,0-.04,0,0,0,0,0,0,0-.01,0-.03,0-.04,0-.01,0-.03,0-.04h0s0-.04,0-.05c0-.01,0-.03,0-.04h0s1.01-3.89,1.01-3.89l.19-.75,.15-.59h-5.88l-.32,.59-.4,.75-2.29,4.24s-.02,.03-.02,.04c0,0,0,0,0,0,0,.02-.01,.03-.02,.05,0,.02-.01,.03-.02,.05,0,.01,0,.02-.01,.03-.02,.07-.04,.15-.05,.23Z"/>
        <path class="cls-11" d="M27.01,33.54l-.02,.28c-.01,.14-.13,.25-.27,.25h-10.36c-.15,0-.26-.12-.25-.27l.03-.29c0-.08,.02-.15,.05-.23,.02-.06,.05-.13,.08-.19l3.01-5.57h5.88l-1.36,5.22s-.01,.06-.02,.09c-.01,.22,.13,.41,.33,.45,.03,0,.06,.01,.1,.01h2.58c.14,0,.24,.11,.23,.25Z"/>
        <path class="cls-28" d="M15.93,33.09l3.01-5.57h.33l-3.01,5.57c-.07,.13-.11,.27-.13,.42l-.03,.29c-.01,.15,.1,.27,.25,.27h-.33c-.15,0-.26-.12-.25-.27l.03-.29c.01-.14,.06-.28,.13-.42Z"/>
        <polygon class="cls-15" points="19.27 27.52 25.16 27.52 24.81 28.85 18.55 28.85 19.27 27.52"/>
      </g>
      <path class="cls-28" d="M9.29,9.05V25.22s0,1.96,0,1.96c0,.51,.41,.92,.92,.92h25.1c.51,0,.92-.41,.92-.92v-1.96s0-16.18,0-16.18c0-.51-.41-.92-.92-.92H10.21c-.21,0-.4,.07-.56,.19-.02,.02-.04,.03-.06,.05-.06,.06-.12,.12-.16,.19-.03,.05-.06,.1-.07,.15-.04,.1-.06,.21-.06,.33Z"/>
      <path class="cls-22" d="M36.23,25.22v1.96c0,.51-.41,.92-.92,.92H10.21c-.51,0-.92-.41-.92-.92v-1.96h26.94Z"/>
      <path class="cls-25" d="M36.23,25.22v1.96c0,.51-.41,.92-.92,.92H10.21c-.51,0-.92-.41-.92-.92v-1.96h26.94Z"/>
      <rect class="cls-2" x="9.73" y="8.68" width="26.06" height="15.99" rx=".5" ry=".5"/>
      <path class="cls-28" d="M9.65,8.13h.56c-.51,0-.92,.41-.92,.92V27.18c0,.51,.41,.92,.92,.92h-.55c-.51,0-.92-.41-.92-.92V9.05c0-.51,.41-.92,.92-.92Z"/>
      <g class="cls-17">
        <path class="cls-24" d="M9.65,8.13h.56c-.51,0-.92,.41-.92,.92V27.18c0,.51,.41,.92,.92,.92h-.55c-.51,0-.92-.41-.92-.92V9.05c0-.51,.41-.92,.92-.92Z"/>
      </g>
      <path class="cls-13" d="M35.94,18.23c-.65-.12-1.67,.29-1.86,.92,.05-.38-.15-.78-.48-.98s-.77-.33-1.08-.1c.31-1.23-.16-2.61-1.14-3.41-.98-.8-2.42-.88-3.55-.33,.34-.64,.37-1.43,.07-2.1-.29-.66-.82-1.11-1.5-1.35-1.57-.55-3.28-.71-4.92-.47-.96,.14-1.93,.44-2.63,1.11s-.88,1.88-.41,2.73c-1.07-.36-2.34-.06-3.13,.74-.79,.8-1.06,2.05-.68,3.12-.29-.18-.68-.19-.99-.04-.31,.16-.52,.47-.55,.81-.4-.53-1.06-.84-1.73-.82-.66,.02-1.3,.38-1.67,.94v5.64h26.09l.15-6.44Z"/>
      <rect class="cls-10" x="15.45" y="15.75" width="15.92" height="2.48" rx="1.24" ry="1.24"/>
      <g>
        <path class="cls-21" d="M17.08,16.86c0,.19-.15,.35-.35,.35s-.35-.15-.35-.35,.15-.35,.35-.35,.35,.15,.35,.35Z"/>
        <line class="cls-21" x1="16.97" y1="17.11" x2="17.53" y2="17.66"/>
      </g>
      <g class="cls-18">
        <polygon class="cls-5" points="27.3 8.68 28.27 8.68 30.27 24.67 29.3 24.67 27.3 8.68"/>
        <polygon class="cls-5" points="31.24 24.67 29.24 8.68 32.87 8.68 34.87 24.67 31.24 24.67"/>
      </g>
      <path class="cls-11" d="M17.93,33.54l-.02,.27c-.01,.14,.09,.26,.24,.26h8.58c.14,0,.26-.11,.27-.25l.02-.28c.01-.14-.09-.25-.23-.25h-2.58s-.07,0-.1-.01h-5.91c-.14,0-.27,.12-.28,.26Z"/>
      <path class="cls-17" d="M16.19,33.28h7.93c-.21-.04-.35-.23-.34-.45h-7.35l-.24,.45Z"/>
      <g>
        <path class="cls-28" d="M20.24,14.27l.17-.39c.19,.14,.46,.23,.73,.23,.3,0,.43-.1,.43-.24,0-.41-1.29-.13-1.29-.95,0-.38,.3-.69,.93-.69,.28,0,.56,.07,.77,.2l-.16,.39c-.21-.12-.42-.17-.61-.17-.3,0-.42,.11-.42,.25,0,.41,1.29,.13,1.29,.94,0,.37-.31,.69-.94,.69-.35,0-.7-.1-.9-.26Z"/>
        <path class="cls-28" d="M24.14,14.07v.41h-1.71v-2.21h1.67v.41h-1.16v.48h1.03v.4h-1.03v.51h1.2Z"/>
        <path class="cls-28" d="M24.4,13.38c0-.66,.51-1.14,1.21-1.14s1.21,.48,1.21,1.14-.51,1.14-1.21,1.14-1.21-.49-1.21-1.14Zm1.9,0c0-.42-.3-.71-.69-.71s-.69,.29-.69,.71,.3,.71,.69,.71,.69-.29,.69-.71Z"/>
      </g>
      <g>
        <rect class="cls-10" x="16.96" y="19.85" width="6.27" height="2.09" rx=".48" ry=".48"/>
        <rect class="cls-10" x="24.65" y="19.85" width="6.27" height="2.09" rx=".48" ry=".48"/>
      </g>
      <g>
        <g>
          <path class="cls-22" d="M19.94,9.4l3.12-5.54c.05-.09,.17-.09,.22,0l3.12,5.54c.05,.08-.01,.19-.11,.19h-6.23c-.1,0-.16-.1-.11-.19Z"/>
          <path class="cls-15" d="M19.94,9.4l3.12-5.54c.05-.09,.17-.09,.22,0l3.12,5.54c.05,.08-.01,.19-.11,.19h-6.23c-.1,0-.16-.1-.11-.19Z"/>
        </g>
        <g>
          <g>
            <g>
              <path class="cls-28" d="M21.69,10.41l-.15-.62h-.55l-.15,.62c.26,.11,.57,.12,.85,0Z"/>
              <path class="cls-11" d="M20.99,9.79s-.02,.09-.04,.15c.2,.06,.41,.06,.62,0l-.04-.15h-.55Z"/>
              <path class="cls-6" d="M20.92,10.09s-.02,.08-.03,.12c.24,.07,.5,.08,.75,0l-.03-.12c-.23,.05-.47,.04-.69,0Z"/>
            </g>
            <g>
              <path class="cls-22" d="M21.84,9.74c-.38,.16-.8,.15-1.15,0V5.13c0-.54,.22-1.03,.58-1.39,.36,.36,.58,.85,.58,1.39v4.61Z"/>
              <g>
                <path class="cls-22" d="M20.69,5.13v4.35c.36,.13,.77,.13,1.15,0V5.13c0-.54-.22-1.03-.58-1.39-.36,.36-.58,.85-.58,1.39Z"/>
                <path class="cls-6" d="M20.69,5.13v4.35c.36,.13,.77,.13,1.15,0V5.13c0-.54-.22-1.03-.58-1.39-.36,.36-.58,.85-.58,1.39Z"/>
              </g>
              <g>
                <path class="cls-22" d="M20.69,5.13v3.27c.37,.1,.77,.11,1.15,0v-3.27c0-.54-.22-1.03-.58-1.39-.36,.36-.58,.85-.58,1.39Z"/>
                <path class="cls-12" d="M20.69,5.13v3.27c.37,.1,.77,.11,1.15,0v-3.27c0-.54-.22-1.03-.58-1.39-.36,.36-.58,.85-.58,1.39Z"/>
              </g>
              <g>
                <path class="cls-22" d="M20.69,5.13v1.71c.37,.1,.77,.11,1.15,0v-1.71c0-.54-.22-1.03-.58-1.39-.36,.36-.58,.85-.58,1.39Z"/>
                <path class="cls-10" d="M20.69,5.13v1.71c.37,.1,.77,.11,1.15,0v-1.71c0-.54-.22-1.03-.58-1.39-.36,.36-.58,.85-.58,1.39Z"/>
              </g>
              <g>
                <path class="cls-22" d="M20.69,5.13v.2c.37,.1,.77,.11,1.15,0v-.2c0-.54-.22-1.03-.58-1.39-.36,.36-.58,.85-.58,1.39Z"/>
                <path class="cls-6" d="M20.69,5.13v.2c.37,.1,.77,.11,1.15,0v-.2c0-.54-.22-1.03-.58-1.39-.36,.36-.58,.85-.58,1.39Z"/>
              </g>
            </g>
          </g>
          <g>
            <g>
              <path class="cls-28" d="M25.39,10.41l-.15-.62h-.55l-.15,.62c.26,.11,.57,.12,.85,0Z"/>
              <path class="cls-11" d="M24.7,9.79s-.02,.09-.04,.15c.2,.06,.41,.06,.62,0l-.04-.15h-.55Z"/>
              <path class="cls-6" d="M24.62,10.09s-.02,.08-.03,.12c.24,.07,.5,.08,.75,0l-.03-.12c-.23,.05-.47,.04-.69,0Z"/>
            </g>
            <g>
              <path class="cls-22" d="M25.55,9.74c-.38,.16-.8,.15-1.15,0V5.13c0-.54,.22-1.03,.58-1.39,.36,.36,.58,.85,.58,1.39v4.61Z"/>
              <g>
                <path class="cls-22" d="M24.39,5.13v4.35c.36,.13,.77,.13,1.15,0V5.13c0-.54-.22-1.03-.58-1.39-.36,.36-.58,.85-.58,1.39Z"/>
                <path class="cls-6" d="M24.39,5.13v4.35c.36,.13,.77,.13,1.15,0V5.13c0-.54-.22-1.03-.58-1.39-.36,.36-.58,.85-.58,1.39Z"/>
              </g>
              <g>
                <path class="cls-22" d="M24.39,5.13v3.27c.37,.1,.77,.11,1.15,0v-3.27c0-.54-.22-1.03-.58-1.39-.36,.36-.58,.85-.58,1.39Z"/>
                <path class="cls-12" d="M24.39,5.13v3.27c.37,.1,.77,.11,1.15,0v-3.27c0-.54-.22-1.03-.58-1.39-.36,.36-.58,.85-.58,1.39Z"/>
              </g>
              <g>
                <path class="cls-22" d="M24.39,5.13v1.71c.37,.1,.77,.11,1.15,0v-1.71c0-.54-.22-1.03-.58-1.39-.36,.36-.58,.85-.58,1.39Z"/>
                <path class="cls-10" d="M24.39,5.13v1.71c.37,.1,.77,.11,1.15,0v-1.71c0-.54-.22-1.03-.58-1.39-.36,.36-.58,.85-.58,1.39Z"/>
              </g>
              <g>
                <path class="cls-22" d="M24.39,5.13v.2c.37,.1,.77,.11,1.15,0v-.2c0-.54-.22-1.03-.58-1.39-.36,.36-.58,.85-.58,1.39Z"/>
                <path class="cls-6" d="M24.39,5.13v.2c.37,.1,.77,.11,1.15,0v-.2c0-.54-.22-1.03-.58-1.39-.36,.36-.58,.85-.58,1.39Z"/>
              </g>
            </g>
          </g>
        </g>
        <g>
          <g>
            <path class="cls-28" d="M23.8,10.77l-.24-1h-.88l-.24,1c.42,.18,.91,.19,1.37,0Z"/>
            <path class="cls-11" d="M22.68,9.76s-.04,.15-.06,.23c.32,.09,.66,.1,1,0l-.06-.23h-.88Z"/>
            <path class="cls-6" d="M22.56,10.25c-.02,.06-.03,.13-.05,.19,.38,.12,.8,.13,1.21,0l-.05-.19c-.38,.07-.75,.07-1.12,0Z"/>
          </g>
          <g>
            <path class="cls-22" d="M24.05,9.69c-.62,.26-1.29,.24-1.86,0V2.25c0-.88,.36-1.67,.93-2.25,.57,.57,.93,1.37,.93,2.25v7.45Z"/>
            <g>
              <path class="cls-22" d="M22.19,2.25v7.02c.58,.2,1.24,.22,1.86,0V2.25c0-.88-.36-1.67-.93-2.25-.57,.57-.93,1.37-.93,2.25Z"/>
              <path class="cls-6" d="M22.19,2.25v7.02c.58,.2,1.24,.22,1.86,0V2.25c0-.88-.36-1.67-.93-2.25-.57,.57-.93,1.37-.93,2.25Z"/>
            </g>
            <g>
              <path class="cls-22" d="M22.19,2.25V7.52c.59,.17,1.24,.18,1.86,0V2.25c0-.88-.36-1.67-.93-2.25-.57,.57-.93,1.37-.93,2.25Z"/>
              <path class="cls-12" d="M22.19,2.25V7.52c.59,.17,1.24,.18,1.86,0V2.25c0-.88-.36-1.67-.93-2.25-.57,.57-.93,1.37-.93,2.25Z"/>
            </g>
            <g>
              <path class="cls-22" d="M22.19,2.25v2.76c.59,.17,1.24,.18,1.86,0V2.25c0-.88-.36-1.67-.93-2.25-.57,.57-.93,1.37-.93,2.25Z"/>
              <path class="cls-10" d="M22.19,2.25v2.76c.59,.17,1.24,.18,1.86,0V2.25c0-.88-.36-1.67-.93-2.25-.57,.57-.93,1.37-.93,2.25Z"/>
            </g>
            <g>
              <path class="cls-22" d="M22.19,2.25v.32c.59,.17,1.24,.18,1.86,0v-.32c0-.88-.36-1.67-.93-2.25-.57,.57-.93,1.37-.93,2.25Z"/>
              <path class="cls-8" d="M22.19,2.25v.32c.59,.17,1.24,.18,1.86,0v-.32c0-.88-.36-1.67-.93-2.25-.57,.57-.93,1.37-.93,2.25Z"/>
            </g>
          </g>
          <g>
            <path class="cls-22" d="M23.66,3.74c0,.3-.24,.54-.54,.54s-.54-.24-.54-.54,.24-.54,.54-.54,.54,.24,.54,.54Z"/>
            <g>
              <path class="cls-22" d="M23.12,4.28c-.29,0-.52-.22-.54-.5,0,.01,0,.03,0,.04,0,.3,.24,.54,.54,.54s.54-.24,.54-.54c0-.01,0-.03,0-.04-.02,.28-.25,.5-.54,.5Z"/>
              <path class="cls-15" d="M23.12,4.28c-.29,0-.52-.22-.54-.5,0,.01,0,.03,0,.04,0,.3,.24,.54,.54,.54s.54-.24,.54-.54c0-.01,0-.03,0-.04-.02,.28-.25,.5-.54,.5Z"/>
            </g>
            <circle class="cls-5" cx="23.12" cy="3.74" r=".38"/>
            <g>
              <g>
                <path class="cls-22" d="M23.1,4.12l.16-.74s-.08-.02-.13-.03l-.16,.74s.08,.03,.13,.03Z"/>
                <path class="cls-22" d="M23.24,4.1l.14-.64s-.04-.03-.06-.04l-.15,.7s.05,0,.07-.02Z"/>
              </g>
              <g class="cls-3">
                <path class="cls-5" d="M23.1,4.12l.16-.74s-.08-.02-.13-.03l-.16,.74s.08,.03,.13,.03Z"/>
                <path class="cls-5" d="M23.24,4.1l.14-.64s-.04-.03-.06-.04l-.15,.7s.05,0,.07-.02Z"/>
              </g>
            </g>
          </g>
        </g>
      </g>
      <g>
        <g>
          <g>
            <path class="cls-29" d="M37,18.27l-.14,.03c-.13,.03-.23,.14-.25,.27v.1c-.03,.1,.01,.21,.09,.28,.24,.21,.8,.59,1.48,.34l.54-.41-.09-.73-1.13-.16c-.07,0-.13,.03-.19,.07l-.31,.21Z"/>
            <polygon class="cls-29" points="38.72 18.89 40.22 18.81 39.99 17.99 38.63 18.15 38.72 18.89"/>
          </g>
          <path class="cls-22" d="M39.61,18c-.05,.1-.09,.23-.06,.38,.02,.14,.09,.4,.24,.57h0c-.25,0-.5,.06-.73,.18h-.01c-.78-.53-.33-1.16-.33-1.16h.05c.28,.04,.56,.05,.84,.03Z"/>
          <path class="cls-22" d="M42.69,18.67c-1.4,.32-3.14,.29-3.14,.29-.06-.1-.08-.21-.07-.32,.01-.23,.04-.53,.13-.65,.09-.13,.69-.18,.69-.18,0,0,1.17-.54,1.39-.72,.22-.18,.21-1,.17-1.55-.22-2.93,.29-3.15,.76-3.28,.97-.27,1.31,6.12,.08,6.4Z"/>
        </g>
        <g>
          <g>
            <path class="cls-22" d="M33.12,19.3h3.91c.13,0,.18-.1,.13-.23l-.98-2.2c-.06-.13-.21-.23-.33-.23h-3.91c-.13,0-.18,.1-.13,.23l.98,2.2c.06,.13,.21,.23,.33,.23Z"/>
            <path class="cls-17" d="M33.12,19.3h3.91c.13,0,.18-.1,.13-.23l-.98-2.2c-.06-.13-.21-.23-.33-.23h-3.91c-.13,0-.18,.1-.13,.23l.98,2.2c.06,.13,.21,.23,.33,.23Z"/>
            <path class="cls-22" d="M31.76,16.64h.17c-.13,0-.18,.1-.13,.23l.98,2.2c.06,.13,.21,.23,.33,.23h-.17c-.13,0-.28-.1-.33-.23l-.98-2.2c-.06-.13,0-.23,.13-.23Z"/>
            <path class="cls-14" d="M31.76,16.64h.17c-.13,0-.18,.1-.13,.23l.98,2.2c.06,.13,.21,.23,.33,.23h-.17c-.13,0-.28-.1-.33-.23l-.98-2.2c-.06-.13,0-.23,.13-.23Z"/>
          </g>
          <g>
            <polygon class="cls-28" points="33.19 19.05 36.72 19.05 35.76 16.89 32.23 16.89 33.19 19.05"/>
            <polygon class="cls-10" points="33.19 19.05 36.72 19.05 35.76 16.89 32.23 16.89 33.19 19.05"/>
          </g>
        </g>
        <g>
          <path class="cls-28" d="M44.82,19.13s.1,1.29,.11,1.74c.09,3.02-2.37,3.25-4.19,2.92l-6.57-1.84c-.26,.87-3.3,5.69-3.3,5.69l-1.6-.92s1.66-3.97,2.73-6.74c.61-1.58,5.58-.49,7.41-.16,.56,.15,.45-.72,.45-.72l4.97,.02Z"/>
          <polygon class="cls-29" points="30.46 27.55 29.85 28.57 28.71 28 29.31 26.84 30.46 27.55"/>
          <g>
            <path class="cls-22" d="M28.11,27.79c-.15-.07-.29-.17-.31-.25,0-.05,.02-.1,.06-.12,.04-.02,.08-.03,.12-.03,.23,.04,.54,.47,.55,.49,0,.01,0,.03,0,.04,0,.01-.02,.02-.03,.01-.13-.03-.26-.08-.39-.13Zm-.08-.32s-.04-.01-.06-.02c-.03,0-.05,0-.07,.01-.04,.03-.04,.05-.03,.06,.02,.1,.32,.25,.56,.32-.11-.15-.24-.28-.39-.38Z"/>
            <path class="cls-22" d="M28.49,27.92s0,0-.01,0c-.12-.13-.29-.52-.2-.65,.02-.03,.06-.06,.14-.03,.06,.02,.11,.06,.14,.12,.1,.2-.02,.54-.03,.55,0,.01-.01,.02-.02,.02,0,0-.01,0-.02,0Zm-.07-.62h-.02c-.05-.03-.07,0-.07,0-.04,.08,.05,.37,.16,.53,.05-.14,.05-.3,0-.44-.02-.04-.05-.07-.08-.08h0Z"/>
            <path class="cls-28" d="M28.69,27.81l1.32,.6s.08,.08,.07,.13l-.25,1.18c-.02,.11-.12,.17-.23,.15-.01,0-.03,0-.04-.01-.47-.23-.88-.45-1.47-.72-.7-.32-.56-.15-1.39-.52-.5-.22-.33-.82-.11-.76,1.02,.32,1.25,.07,1.78-.1,.11-.03,.23-.02,.33,.04Z"/>
          </g>
          <polygon class="cls-17" points="30.15 28.07 30.46 27.55 29.31 26.84 29.02 27.4 30.15 28.07"/>
          <path class="cls-22" d="M31.12,27.54l-1.98-1.24s-.32,.18-.25,.52l1.9,1.22s.26-.01,.33-.5Z"/>
        </g>
        <g>
          <polygon class="cls-29" points="33.83 32.61 33.6 33.74 32.37 33.58 32.55 32.32 33.83 32.61"/>
          <g>
            <path class="cls-22" d="M31.75,33.57c-.16-.02-.32-.06-.37-.13-.02-.04-.02-.1,.02-.13,.02-.03,.06-.06,.1-.06,.22-.04,.64,.26,.66,.28,.01,0,.02,.02,.01,.03,0,.01-.01,.02-.03,.02-.13,.01-.26,.01-.4,0Zm-.18-.27s-.04,0-.06,0c-.03,0-.05,.02-.06,.04-.03,.04-.02,.05-.01,.07,.05,.09,.38,.12,.62,.12-.15-.1-.31-.18-.48-.22Z"/>
            <path class="cls-22" d="M32.14,33.58s0,0-.01,0c-.15-.08-.43-.39-.39-.53,0-.03,.04-.07,.12-.07,.06,0,.12,.02,.16,.07,.15,.15,.15,.5,.15,.52,0,.01,0,.02-.02,.03,0,0-.01,0-.02,0Zm-.26-.55h-.02c-.06,0-.06,.02-.06,.03-.02,.09,.16,.32,.31,.43,0-.15-.05-.29-.13-.41-.03-.03-.06-.05-.1-.05h0Z"/>
            <path class="cls-28" d="M32.29,33.41l1.4,.14c.05,0,.1,.05,.1,.1l.14,1.17c.01,.1-.06,.2-.16,.21-.01,0-.03,0-.04,0-.5-.06-.95-.13-1.58-.19-.74-.07-.56,.03-1.44-.04-.53-.04-.56-.65-.34-.66,1.03-.03,1.17-.33,1.6-.65,.09-.06,.2-.09,.31-.07Z"/>
          </g>
          <polygon class="cls-17" points="32.45 32.98 33.73 33.08 33.83 32.61 32.55 32.32 32.45 32.98"/>
          <polygon class="cls-28" points="34.2 32.16 34.16 32.3 32.29 32.16 32.3 32.01 34.2 32.16"/>
          <path class="cls-22" d="M34.27,32.75l-.46-.04-1.3-.12-.42-.04c-.21-.27-.02-.56-.02-.56l.23,.02,1.89,.15h.14c.16,.46-.06,.59-.06,.59Z"/>
          <path class="cls-28" d="M41.9,24.91c-1.7,.15-5.62,.21-6.15,.14l-1.55,7.11-1.89-.15s.2-6.15,1.03-8.69c.67-2.04,11.41-1.62,11.41-1.62l.04,.58c.07,1.98-.95,2.47-2.89,2.64Z"/>
          <path class="cls-18" d="M41.9,24.91c-1.7,.15-5.62,.21-6.15,.14l-1.55,7.11-1.89-.15s.2-6.15,1.03-8.69c.67-2.04,11.41-1.62,11.41-1.62l.04,.58c.07,1.98-.95,2.47-2.89,2.64Z"/>
          <path class="cls-28" d="M33.31,24.06s0-.01,0-.03v.03h0Z"/>
          <path class="cls-28" d="M33.44,23.14l-.02,.14s0-.05,.02-.14Z"/>
        </g>
        <g>
          <g>
            <polygon class="cls-29" points="39.45 12.03 39.97 12.79 41.14 11.79 40.41 10.89 39.45 12.03"/>
            <path class="cls-17" d="M39.71,12.39c.23-.33,.12-.85,.12-.85l-.21,.26-.18,.23,.26,.36Z"/>
            <path class="cls-28" d="M37.44,10.35c.03,.07,.09,.12,.13,.1,.05-.02,.07-.1,.04-.17-.03-.07-.09-.12-.13-.1-.05,.02-.07,.09-.04,.17Z"/>
            <path class="cls-1" d="M37.71,10.37l-.17,.71s.24,.07,.48-.13l-.31-.58Z"/>
            <path class="cls-28" d="M37.37,9.83s.03-.01,.04,0c.1,.04,.2,.03,.29-.02,.02-.01,.04,0,.06,0,.01,.02,0,.04-.01,.06-.11,.07-.25,.09-.37,.03-.02,0-.03-.03-.02-.05h0s0-.01,.01-.02Z"/>
            <path class="cls-29" d="M40.23,9.06c.38,.97,.56,1.38,.31,2.09-.51,.85-1.68,1.36-2.35,.53-.6-.75-1.12-2.21-.36-3.04,.54-.59,1.46-.65,2.04-.12,.16,.15,.29,.33,.37,.54Z"/>
            <path class="cls-28" d="M41.15,9.35c-.06,.33-.08,.66-.1,.99,0,.2-.05,.4-.14,.58-.16,.37-.49,.65-.86,.81,0,0,0,.07,0,0,0,0-1.37-.02-1.95-1.74-.32,.03-.65-.11-.86-.36-.2-.25-.27-.6-.18-.91,.11-.37,.58-.6,.96-.61,.24-.34,.66-.5,1.08-.49,.41,.02,.81,.18,1.17,.39,.31,.18,.61,.39,.78,.7,.1,.18,.14,.42,.1,.64Z"/>
            <path class="cls-29" d="M38.39,10.2c-.09,.2-.09,.42-.02,.62,.11,.26,.39,.22,.55,0,.15-.2,.27-.57,.07-.77-.2-.19-.49-.09-.6,.15Z"/>
            <g>
              <path class="cls-22" d="M41.15,11.22c-.37,.02-.93,.27-1.68,.78-.08,.06-.11,.18-.1,.28,0,.1,.11,.19,.2,.16,.05,.12,.08,.26,.13,.38,.22-.13,.49-.2,.72-.3,.37-.16,.76-.27,1.15-.38-.1-.16-.24-.31-.29-.5,.09-.02,.13-.14,.12-.24-.02-.09-.17-.2-.26-.19Z"/>
              <path class="cls-22" d="M41.15,11.22c-.37,.02-.93,.27-1.68,.78-.08,.06-.11,.18-.1,.28,0,.1,.11,.19,.2,.16,.05,.12,.08,.26,.13,.38,.22-.13,.49-.2,.72-.3,.37-.16,.76-.27,1.15-.38-.1-.16-.24-.31-.29-.5,.09-.02,.13-.14,.12-.24-.02-.09-.17-.2-.26-.19Z"/>
            </g>
          </g>
          <path class="cls-22" d="M40.05,20.85s-1.24-2.91-2.03-5.86c-.58-2.18,1.08-2.21,3.09-2.76,1.59-.43,2.28-.04,2.73,.76,.46,.81,1.19,7.65,1.19,7.65l-4.98,.2Z"/>
          <path class="cls-22" d="M40.05,20.85s-1.24-2.91-2.03-5.86c-.58-2.18,1.08-2.21,3.09-2.76,1.59-.43,2.28-.04,2.73,.76,.46,.81,1.19,7.65,1.19,7.65l-4.98,.2Z"/>
          <path class="cls-15" d="M40.05,20.85s-1.24-2.91-2.03-5.86c-.58-2.18,1.08-2.21,3.09-2.76,1.59-.43,2.28-.04,2.73,.76,.46,.81,1.19,7.65,1.19,7.65l-4.98,.2Z"/>
          <g>
            <g>
              <path class="cls-29" d="M32.78,17.71h-.14c-.13,0-.24,.1-.28,.22l-.03,.09c-.03,.09-.01,.2,.05,.28,.19,.24,.65,.69,1.33,.57l.58-.29,.04-.7-1.03-.34c-.06,0-.13,0-.19,.04l-.33,.15Z"/>
              <polygon class="cls-29" points="34.29 18.58 35.72 18.75 35.64 17.95 34.33 17.87 34.29 18.58"/>
            </g>
            <path class="cls-22" d="M35.29,17.89c-.06,.08-.12,.2-.12,.35,0,.14,.01,.39,.13,.58h0c-.24-.04-.48-.02-.72,.05h-.01c-.65-.63-.12-1.15-.12-1.15l.05,.02c.26,.08,.52,.14,.79,.16Z"/>
            <path class="cls-22" d="M38.07,19.04c-1.37,.07-3-.25-3-.25-.04-.11-.04-.21-.02-.31,.05-.22,.13-.49,.23-.59,.11-.1,.68-.06,.68-.06,0,0,1.19-.32,1.43-.45,.24-.13,.37-.91,.42-1.43,.28-2.79,.8-2.91,1.26-2.96,.96-.1,.22,5.98-.99,6.04Z"/>
          </g>
        </g>
      </g>
      <g>
        <path class="cls-20" d="M33.94,34.81l1.28-7.9c.14-.83,.86-1.45,1.7-1.45h3.14c.87,0,1.61,.65,1.71,1.52l.95,7.93"/>
        <path class="cls-20" d="M38.33,34.81l1.28-7.9c.14-.83,.86-1.45,1.7-1.45h3.14c.87,0,1.61,.65,1.71,1.52l.95,7.93"/>
        <line class="cls-20" x1="34.27" y1="32.75" x2="38.59" y2="32.75"/>
        <line class="cls-20" x1="41.77" y1="26.99" x2="46.23" y2="26.99"/>
      </g>
      <g>
        <path class="cls-22" d="M42.58,25.65h3.29c1.27,0,2.32-.97,2.42-2.24l.47-5.9c.08-.96-.68-1.77-1.64-1.77h-1.81c-2.12,0-3.98,1.39-4.59,3.42l-1.26,4.21c-.21,.71-.86,1.19-1.6,1.19h-2.3c-.6,0-1.09,.49-1.09,1.09h8.11Z"/>
        <path class="cls-4" d="M42.58,25.65h3.29c1.27,0,2.32-.97,2.42-2.24l.47-5.9c.08-.96-.68-1.77-1.64-1.77h-1.81c-2.12,0-3.98,1.39-4.59,3.42l-1.26,4.21c-.21,.71-.86,1.19-1.6,1.19h-2.3c-.6,0-1.09,.49-1.09,1.09h8.11Z"/>
      </g>
      <g>
        <g>
          <g>
            <path class="cls-22" d="M39.33,5.28h0s0,0,0,0Z"/>
            <g>
              <path class="cls-22" d="M33.41,3.69c-.42,.39-.75,.9-.91,1.46h-.23c.08-.64,.32-1.24,.69-1.75l.45,.28Z"/>
              <path class="cls-12" d="M33.41,3.69c-.42,.39-.75,.9-.91,1.46h-.23c.08-.64,.32-1.24,.69-1.75l.45,.28Z"/>
            </g>
            <g>
              <path class="cls-22" d="M34.74,2.94c-.5,.14-.96,.4-1.33,.75l-.45-.28c.37-.52,.86-.94,1.42-1.24l.36,.77Z"/>
              <path class="cls-9" d="M34.74,2.94c-.5,.14-.96,.4-1.33,.75l-.45-.28c.37-.52,.86-.94,1.42-1.24l.36,.77Z"/>
            </g>
            <g>
              <path class="cls-22" d="M36.15,1.74l-.11,1.12c-.16-.03-.32-.04-.49-.04-.28,0-.55,.04-.81,.11l-.36-.77c.52-.27,1.11-.43,1.72-.43,.02,0,.04,0,.05,0Z"/>
              <path class="cls-6" d="M36.15,1.74l-.11,1.12c-.16-.03-.32-.04-.49-.04-.28,0-.55,.04-.81,.11l-.36-.77c.52-.27,1.11-.43,1.72-.43,.02,0,.04,0,.05,0Z"/>
            </g>
            <g>
              <path class="cls-22" d="M37.83,2.22l-.73,1.07c-.31-.21-.67-.36-1.06-.43l.11-1.12c.63,0,1.2,.18,1.68,.48Z"/>
              <path class="cls-7" d="M37.83,2.22l-.73,1.07c-.31-.21-.67-.36-1.06-.43l.11-1.12c.63,0,1.2,.18,1.68,.48Z"/>
            </g>
            <g>
              <path class="cls-22" d="M39,3.49l-1.14,.61c-.19-.32-.45-.59-.75-.8l.73-1.07c.5,.31,.9,.74,1.16,1.27Z"/>
              <path class="cls-11" d="M39,3.49l-1.14,.61c-.19-.32-.45-.59-.75-.8l.73-1.07c.5,.31,.9,.74,1.16,1.27Z"/>
            </g>
            <g>
              <path class="cls-22" d="M39.33,5.24h-1.12c-.04-.42-.16-.8-.36-1.14l1.14-.61c.26,.51,.38,1.11,.33,1.75Z"/>
              <path class="cls-8" d="M39.33,5.24h-1.12c-.04-.42-.16-.8-.36-1.14l1.14-.61c.26,.51,.38,1.11,.33,1.75Z"/>
            </g>
            <path class="cls-22" d="M39.33,5.27s0,0,0,.01c-.03,.32-.16,.84-.3,1.14l-.91-.2,.07-.35s.01-.09,.02-.14h0v-.03s0,0,0,0c.01-.17,.01-.33,0-.49h1.12s0,.03,0,.03c0,0,0,0,0,.01Z"/>
          </g>
          <g>
            <path class="cls-22" d="M32.4,6.35h-.07c-.02-.07-.04-.16-.05-.25-.04-.26-.05-.54-.03-.82h0s0-.02,0-.03c0-.04,0-.07,.01-.1h.23c-.05,.18-.09,.37-.11,.56,0,0,0,0,0,.01s0,0,0,.01c0,.11-.01,.23,0,.34,0,.09,.01,.19,.02,.28Z"/>
            <path class="cls-4" d="M32.4,6.35h-.07c-.02-.07-.04-.16-.05-.25-.04-.26-.05-.54-.03-.82h0s0-.02,0-.03c0-.04,0-.07,.01-.1h.23c-.05,.18-.09,.37-.11,.56,0,0,0,0,0,.01s0,0,0,.01c0,.11-.01,.23,0,.34,0,.09,.01,.19,.02,.28Z"/>
          </g>
        </g>
        <g>
          <path class="cls-28" d="M39.25,6.17l-.09,.24-.19-.04-1.8-.41-.78-.18c.06-.07,.1-.15,.13-.23,.04-.1,.06-.2,.07-.3l1.72,.59h0s.94,.32,.94,.32Z"/>
          <path class="cls-28" d="M36.59,5.26c-.01,.19-.08,.37-.2,.52l-.7-.16,.22-.6,.68,.23Z"/>
        </g>
        <path class="cls-22" d="M36.59,5.26c-.01,.19-.08,.37-.2,.52-.08,.11-.19,.2-.32,.27-.45,.24-.98,.09-1.18-.34-.2-.43,0-.97,.45-1.21,.45-.24,.98-.09,1.18,.34,.06,.13,.09,.28,.08,.42Z"/>
      </g>
      <g>
        <path class="cls-27" d="M7.95,4.72h.72v.6h-.79l-.11,.89h-.63l.11-.89h-.81l-.11,.89h-.62l.11-.89h-.73v-.6h.8l.12-.9h-.73v-.6h.8l.11-.89h.62l-.11,.89h.81l.11-.89h.62l-.11,.89h.72v.6s-.79,0-.79,0l-.11,.9Zm-.63,0l.12-.9h-.81l-.12,.9h.81Z"/>
        <path class="cls-23" d="M10.67,2.34v3.87h-.9V3.06h-.77v-.72h1.67Z"/>
      </g>
      <g>
        <g>
          <rect class="cls-16" x="1.11" y="18.45" width="6.2" height="4.27"/>
          <rect class="cls-22" x="1.11" y="18.45" width="6.2" height=".39"/>
        </g>
        <g>
          <path class="cls-5" d="M2.25,20.81l1.01,.56c.05,.03,.08,.05,.1,.08,.02,.02,.03,.05,.03,.09,0,.04-.02,.08-.05,.11-.03,.03-.07,.05-.11,.05-.03,0-.07-.02-.12-.05l-1.31-.73c-.09-.05-.09-.18,0-.22l1.31-.73c.05-.03,.1-.04,.12-.04,.04,0,.08,.02,.11,.05,.03,.03,.05,.07,.05,.11,0,.03,0,.06-.03,.09-.02,.02-.05,.05-.1,.08l-1.01,.56Z"/>
          <path class="cls-5" d="M4.86,19.77l-1,2.16c-.03,.05-.05,.09-.07,.11-.03,.02-.06,.03-.1,.03-.04,0-.08-.02-.11-.05-.03-.03-.05-.07-.05-.1,0-.03,.01-.07,.04-.12l1.01-2.16c.03-.05,.05-.09,.07-.11,.03-.02,.06-.03,.1-.03,.04,0,.08,.02,.11,.05,.03,.03,.05,.06,.05,.1,0,.03-.01,.07-.04,.12Z"/>
          <path class="cls-5" d="M6.12,20.81l-1.01-.56c-.05-.03-.08-.05-.1-.08-.02-.02-.03-.05-.03-.09,0-.04,.02-.08,.05-.11,.03-.03,.07-.05,.11-.05,.03,0,.07,.01,.12,.04l1.31,.73c.09,.05,.09,.18,0,.22l-1.31,.73c-.05,.03-.1,.05-.12,.05-.04,0-.08-.02-.11-.05-.03-.03-.05-.07-.05-.11,0-.03,0-.06,.03-.09,.02-.02,.05-.05,.1-.08l1.01-.56Z"/>
        </g>
      </g>
    </g>
  </g>
</svg>