<?xml version="1.0" encoding="UTF-8"?>
<svg xmlns="http://www.w3.org/2000/svg" xmlns:xlink="http://www.w3.org/1999/xlink" viewBox="0 0 48.76 46.37">
  <defs>
    <style>
      .cls-1 {
        fill: url(#linear-gradient-37);
      }

      .cls-1, .cls-2, .cls-3, .cls-4, .cls-5, .cls-6, .cls-7, .cls-8, .cls-9, .cls-10 {
        mix-blend-mode: multiply;
      }

      .cls-1, .cls-11, .cls-3, .cls-4, .cls-5, .cls-6, .cls-7, .cls-8, .cls-9 {
        opacity: .3;
      }

      .cls-12 {
        fill: url(#linear-gradient-2);
      }

      .cls-13 {
        fill: url(#linear-gradient-51);
      }

      .cls-2 {
        fill: url(#linear-gradient-22);
      }

      .cls-14, .cls-15 {
        fill: #fff;
      }

      .cls-16 {
        fill: url(#linear-gradient-17);
      }

      .cls-17 {
        fill: #75b3e2;
      }

      .cls-18 {
        fill: url(#linear-gradient-43);
      }

      .cls-19 {
        fill: url(#linear-gradient-6);
      }

      .cls-19, .cls-20, .cls-21 {
        opacity: .5;
      }

      .cls-22 {
        fill: url(#linear-gradient-15);
      }

      .cls-23 {
        opacity: .9;
      }

      .cls-24 {
        fill: url(#linear-gradient-18);
      }

      .cls-25 {
        fill: #26274f;
      }

      .cls-26 {
        fill: url(#linear-gradient-40);
      }

      .cls-27 {
        fill: url(#linear-gradient-52);
      }

      .cls-28 {
        fill: url(#linear-gradient-14);
      }

      .cls-11 {
        mix-blend-mode: color-burn;
      }

      .cls-29 {
        fill: url(#linear-gradient-36);
      }

      .cls-30 {
        fill: url(#linear-gradient-20);
      }

      .cls-31 {
        fill: url(#linear-gradient-53);
      }

      .cls-32 {
        isolation: isolate;
      }

      .cls-33 {
        fill: url(#linear-gradient-35);
      }

      .cls-34 {
        fill: url(#linear-gradient-48);
      }

      .cls-3 {
        fill: url(#linear-gradient-7);
      }

      .cls-35 {
        fill: url(#linear-gradient-32);
      }

      .cls-36 {
        fill: url(#linear-gradient-11);
      }

      .cls-37 {
        fill: url(#linear-gradient-50);
      }

      .cls-20 {
        fill: url(#linear-gradient-24);
      }

      .cls-38 {
        fill: url(#linear-gradient-39);
      }

      .cls-39 {
        fill: url(#linear-gradient-10);
      }

      .cls-4 {
        fill: #d8dee8;
      }

      .cls-5 {
        fill: url(#linear-gradient-46);
      }

      .cls-40 {
        fill: url(#linear-gradient-49);
      }

      .cls-41 {
        fill: url(#linear-gradient-16);
      }

      .cls-42 {
        fill: url(#linear-gradient-31);
      }

      .cls-21 {
        fill: url(#linear-gradient-28);
      }

      .cls-43 {
        fill: url(#linear-gradient-41);
      }

      .cls-7 {
        fill: url(#linear-gradient-25);
      }

      .cls-44 {
        fill: url(#linear-gradient-5);
      }

      .cls-45 {
        fill: url(#linear-gradient-45);
      }

      .cls-46 {
        fill: #96a6b7;
      }

      .cls-47 {
        fill: url(#linear-gradient-34);
      }

      .cls-8 {
        fill: url(#linear-gradient-42);
      }

      .cls-48 {
        fill: #f4f7fa;
      }

      .cls-9 {
        fill: url(#linear-gradient-21);
      }

      .cls-49 {
        fill: url(#linear-gradient-9);
      }

      .cls-50 {
        fill: url(#linear-gradient-3);
      }

      .cls-10 {
        fill: url(#linear-gradient-29);
        opacity: .4;
      }

      .cls-51 {
        fill: url(#linear-gradient);
      }

      .cls-52 {
        fill: url(#linear-gradient-27);
      }

      .cls-53 {
        fill: url(#linear-gradient-33);
      }

      .cls-54 {
        fill: url(#linear-gradient-38);
      }

      .cls-55 {
        fill: url(#linear-gradient-30);
      }

      .cls-56 {
        fill: url(#linear-gradient-23);
      }

      .cls-57 {
        fill: url(#linear-gradient-19);
      }

      .cls-58 {
        fill: url(#linear-gradient-4);
      }

      .cls-15 {
        mix-blend-mode: soft-light;
        opacity: .6;
      }

      .cls-59 {
        fill: url(#linear-gradient-8);
      }

      .cls-60 {
        fill: url(#linear-gradient-44);
      }

      .cls-61 {
        fill: url(#linear-gradient-47);
      }

      .cls-62 {
        fill: url(#linear-gradient-12);
      }

      .cls-63 {
        fill: url(#linear-gradient-13);
      }

      .cls-64 {
        fill: url(#linear-gradient-26);
      }
    </style>
    <linearGradient id="linear-gradient" x1="12.24" y1="20.34" x2="39.25" y2="20.34" gradientUnits="userSpaceOnUse">
      <stop offset="0" stop-color="#486ab3"/>
      <stop offset="1" stop-color="#292b74"/>
    </linearGradient>
    <linearGradient id="linear-gradient-2" x1="12.24" y1="6.9" x2="39.25" y2="6.9" gradientUnits="userSpaceOnUse">
      <stop offset="0" stop-color="#454c8d"/>
      <stop offset="1" stop-color="#26274f"/>
    </linearGradient>
    <linearGradient id="linear-gradient-3" x1="9.66" y1="24.14" x2="9.84" y2="16.38" xlink:href="#linear-gradient"/>
    <linearGradient id="linear-gradient-4" x1="4.25" y1="14.71" x2="8.5" y2="14.49" xlink:href="#linear-gradient"/>
    <linearGradient id="linear-gradient-5" x1="6.1" y1="14.3" x2="20.01" y2="14.3" xlink:href="#linear-gradient"/>
    <linearGradient id="linear-gradient-6" x1="6.59" y1="14.3" x2="19.52" y2="14.3" xlink:href="#linear-gradient"/>
    <linearGradient id="linear-gradient-7" x1="6.53" y1="14.3" x2="15.67" y2="14.3" xlink:href="#linear-gradient"/>
    <linearGradient id="linear-gradient-8" x1="-345.24" y1="403.35" x2="-344.44" y2="403.35" gradientTransform="translate(282.36 -414.52) rotate(-9.66)" gradientUnits="userSpaceOnUse">
      <stop offset="0" stop-color="#f36f56"/>
      <stop offset="1" stop-color="#ffc546"/>
    </linearGradient>
    <linearGradient id="linear-gradient-9" x1="-343.7" y1="400.08" x2="-345.78" y2="407.39" gradientTransform="translate(282.36 -414.52) rotate(-9.66)" xlink:href="#linear-gradient-2"/>
    <linearGradient id="linear-gradient-10" x1="12.22" y1="34.18" x2="5.48" y2="39.71" xlink:href="#linear-gradient"/>
    <linearGradient id="linear-gradient-11" x1="144.82" y1="-210.33" x2="142.97" y2="-203.86" gradientTransform="translate(-159.67 232.53) rotate(5.38)" xlink:href="#linear-gradient-2"/>
    <linearGradient id="linear-gradient-12" x1="141.97" y1="-202.9" x2="142.91" y2="-202.9" gradientTransform="translate(-159.67 232.53) rotate(5.38)" xlink:href="#linear-gradient-8"/>
    <linearGradient id="linear-gradient-13" x1="-339.36" y1="402.19" x2="-347.1" y2="398.03" gradientTransform="translate(282.36 -414.52) rotate(-9.66)" gradientUnits="userSpaceOnUse">
      <stop offset="0" stop-color="#ac316e"/>
      <stop offset="1" stop-color="#7a2e3e"/>
    </linearGradient>
    <linearGradient id="linear-gradient-14" x1="-666.68" y1="643.79" x2="-674.15" y2="651.55" gradientTransform="translate(450.2 -779.62) rotate(-17.41)" xlink:href="#linear-gradient"/>
    <linearGradient id="linear-gradient-15" x1="-667.24" y1="643.58" x2="-674.55" y2="651.17" gradientTransform="translate(450.2 -779.62) rotate(-17.41)" xlink:href="#linear-gradient-13"/>
    <linearGradient id="linear-gradient-16" x1="-4067.03" y1="200.67" x2="-4067.19" y2="198.7" gradientTransform="translate(-4064.86 39.94) rotate(176.92) scale(1 -1)" xlink:href="#linear-gradient-2"/>
    <linearGradient id="linear-gradient-17" x1="7.57" y1="20.09" x2="8.11" y2="28.21" gradientTransform="matrix(1, 0, 0, 1, 0, 0)" xlink:href="#linear-gradient-8"/>
    <linearGradient id="linear-gradient-18" x1="2865.24" y1="925.2" x2="2866.79" y2="926.83" gradientTransform="translate(-3000.74 -132.36) rotate(-14.98)" xlink:href="#linear-gradient-8"/>
    <linearGradient id="linear-gradient-19" x1="-3995.43" y1="20.55" x2="-3995.11" y2="21.58" gradientTransform="translate(-3980.21) rotate(-180) scale(1 -1)" xlink:href="#linear-gradient-8"/>
    <linearGradient id="linear-gradient-20" x1="3.51" y1="34.97" x2="13.44" y2="20.47" xlink:href="#linear-gradient"/>
    <linearGradient id="linear-gradient-21" x1="-3992.24" y1="23.87" x2="-3990.23" y2="34.34" gradientTransform="translate(-3980.21) rotate(-180) scale(1 -1)" xlink:href="#linear-gradient-8"/>
    <linearGradient id="linear-gradient-22" x1="8.94" y1="4.39" x2="1.81" y2="7.57" xlink:href="#linear-gradient"/>
    <linearGradient id="linear-gradient-23" x1="7.13" y1="3.66" x2="15.03" y2="3.66" xlink:href="#linear-gradient"/>
    <linearGradient id="linear-gradient-24" x1="7.41" y1="3.66" x2="14.75" y2="3.66" xlink:href="#linear-gradient"/>
    <linearGradient id="linear-gradient-25" x1="7.37" y1="3.66" x2="12.56" y2="3.66" xlink:href="#linear-gradient"/>
    <linearGradient id="linear-gradient-26" x1="27.59" y1="6.37" x2="18.81" y2="9.51" xlink:href="#linear-gradient"/>
    <linearGradient id="linear-gradient-27" x1="18.05" y1="8.19" x2="28.26" y2="8.19" xlink:href="#linear-gradient"/>
    <linearGradient id="linear-gradient-28" x1="18.41" y1="8.19" x2="27.9" y2="8.19" xlink:href="#linear-gradient"/>
    <linearGradient id="linear-gradient-29" x1="18.37" y1="8.19" x2="25.07" y2="8.19" xlink:href="#linear-gradient"/>
    <linearGradient id="linear-gradient-30" x1="30.8" y1="16.12" x2="21.59" y2="20.22" xlink:href="#linear-gradient"/>
    <linearGradient id="linear-gradient-31" x1="18.89" y1="19.43" x2="29.09" y2="19.43" xlink:href="#linear-gradient"/>
    <linearGradient id="linear-gradient-32" x1="33.75" y1="24.45" x2="26.86" y2="26.66" gradientUnits="userSpaceOnUse">
      <stop offset="0" stop-color="#fcb149"/>
      <stop offset=".06" stop-color="#fdba47"/>
      <stop offset=".14" stop-color="#fec246"/>
      <stop offset=".32" stop-color="#ffc546"/>
      <stop offset=".48" stop-color="#fdba48"/>
      <stop offset=".78" stop-color="#f89d4d"/>
      <stop offset=".87" stop-color="#f79350"/>
      <stop offset="1" stop-color="#f79350"/>
    </linearGradient>
    <linearGradient id="linear-gradient-33" x1="39.33" y1="17.59" x2="33.18" y2="31.17" gradientUnits="userSpaceOnUse">
      <stop offset="0" stop-color="#fedb46"/>
      <stop offset="1" stop-color="#fcee1a"/>
    </linearGradient>
    <linearGradient id="linear-gradient-34" x1="38.2" y1="31.93" x2="37.01" y2="25.44" xlink:href="#linear-gradient-32"/>
    <linearGradient id="linear-gradient-35" x1="35.68" y1="21.43" x2="40.57" y2="31.81" xlink:href="#linear-gradient-32"/>
    <linearGradient id="linear-gradient-36" x1="35.48" y1="19.19" x2="37.94" y2="28.41" xlink:href="#linear-gradient-33"/>
    <linearGradient id="linear-gradient-37" x1="34.24" y1="22.1" x2="39.12" y2="32.46" xlink:href="#linear-gradient-32"/>
    <linearGradient id="linear-gradient-38" x1="3135.42" y1="45.94" x2="3137.39" y2="45.94" gradientTransform="translate(3182.28) rotate(-180) scale(1 -1)" gradientUnits="userSpaceOnUse">
      <stop offset="0" stop-color="#41457f"/>
      <stop offset="1" stop-color="#3d3c6c"/>
    </linearGradient>
    <linearGradient id="linear-gradient-39" x1="3142.26" y1="42.54" x2="3143.57" y2="42.54" xlink:href="#linear-gradient-38"/>
    <linearGradient id="linear-gradient-40" x1="3136.38" y1="45.85" x2="3137.1" y2="47.33" gradientTransform="translate(3182.28) rotate(-180) scale(1 -1)" gradientUnits="userSpaceOnUse">
      <stop offset="0" stop-color="#321944"/>
      <stop offset="1" stop-color="#a13b77"/>
    </linearGradient>
    <linearGradient id="linear-gradient-41" x1="3143.29" y1="39.96" x2="3142.19" y2="44.85" xlink:href="#linear-gradient-40"/>
    <linearGradient id="linear-gradient-42" x1="3143.01" y1="43.7" x2="3137.94" y2="38.63" gradientTransform="translate(3182.28) rotate(-180) scale(1 -1)" xlink:href="#linear-gradient-13"/>
    <linearGradient id="linear-gradient-43" x1="40.5" y1="29.6" x2="48.39" y2="29.6" xlink:href="#linear-gradient"/>
    <linearGradient id="linear-gradient-44" x1="3148.87" y1="30.27" x2="3148" y2="29.4" xlink:href="#linear-gradient-40"/>
    <linearGradient id="linear-gradient-45" x1="34.63" y1="28.17" x2="44.44" y2="28.17" xlink:href="#linear-gradient"/>
    <linearGradient id="linear-gradient-46" x1="3139.59" y1="24.44" x2="3136.78" y2="33.09" gradientTransform="translate(3182.28) rotate(-180) scale(1 -1)" gradientUnits="userSpaceOnUse">
      <stop offset="0" stop-color="#f58f86"/>
      <stop offset="1" stop-color="#ed72ac"/>
    </linearGradient>
    <linearGradient id="linear-gradient-47" x1="3136.05" y1="26.66" x2="3138.3" y2="22.95" xlink:href="#linear-gradient-40"/>
    <linearGradient id="linear-gradient-48" x1="3135.89" y1="26.57" x2="3138.14" y2="22.85" xlink:href="#linear-gradient-40"/>
    <linearGradient id="linear-gradient-49" x1="3135.93" y1="26.59" x2="3138.18" y2="22.87" xlink:href="#linear-gradient-40"/>
    <linearGradient id="linear-gradient-50" x1="1992.21" y1="786.95" x2="1988.22" y2="807.38" gradientTransform="translate(-1884.76 952.67) rotate(-47.76)" xlink:href="#linear-gradient"/>
    <linearGradient id="linear-gradient-51" x1="1989.8" y1="786.48" x2="1985.82" y2="806.91" gradientTransform="translate(-1884.76 952.67) rotate(-47.76)" xlink:href="#linear-gradient"/>
    <linearGradient id="linear-gradient-52" x1="27.88" y1="34.94" x2="14.6" y2="24.37" xlink:href="#linear-gradient"/>
    <linearGradient id="linear-gradient-53" x1="29.92" y1="32.38" x2="16.63" y2="21.81" xlink:href="#linear-gradient"/>
  </defs>
  <g class="cls-32">
    <g id="Layer_2" data-name="Layer 2">
      <g id="Layer_1-2" data-name="Layer 1">
        <g>
          <path class="cls-48" d="M20.35,46.12C8.25,44.28-1.58,32.85,.21,20.14,1.73,9.3,11.24,.86,22.64,.06c.83-.06,1.66-.08,2.5-.05,6.36,.18,12.01,2.73,16.19,6.58,4.16,3.83,6.86,8.95,7.35,14.33,1.31,14.3-13.28,27.48-28.33,25.2Z"/>
          <path class="cls-46" d="M31.62,42.24c-.68-.23-1.19-.8-1.34-1.52l-.99-4.91-8.49,.3-1.04,5.12c-.15,.72,.44,1.44,1.11,1.7l3.55,1.39c.66,.26,1.37,.36,2.08,.3l7.51-.64c.22-.02,.4-.19,.42-.41,.03-.22,.18-.47-.03-.54l-2.78-.79Z"/>
          <path class="cls-15" d="M31.7,41.94c-.68-.22-1.19-.79-1.33-1.5l-.99-4.85-8.28,.3-1.04,5.05c-.15,.71,.24,1.42,.91,1.68l3.55,1.37c.66,.26,1.37,.36,2.07,.3l7.5-.63c.22-.02,.4-.19,.42-.41,.03-.22-.11-.42-.32-.49l-2.49-.82Z"/>
          <path class="cls-46" d="M3.45,39.08c-.92,.05-1.67-.54-1.67-1.33V9.29c0-.79,.75-1.4,1.67-1.36l42.58,1.85c.68,.03,1.22,.6,1.22,1.27v24.2c0,.67-.55,1.25-1.22,1.29L3.45,39.08Z"/>
          <path class="cls-14" d="M3.83,39.08c-.92,.05-1.67-.54-1.67-1.33V9.29c0-.79,.75-1.4,1.67-1.36l42.58,1.85c.68,.03,1.22,.6,1.22,1.27v24.2c0,.67-.55,1.25-1.22,1.29L3.83,39.08Z"/>
          <path class="cls-4" d="M46.41,10.35L3.83,8.6c-.49-.02-.89,.31-.89,.73v28.38c0,.42,.4,.74,.89,.71l42.58-2.45c.36-.02,.66-.33,.66-.69V11.03c0-.36-.29-.66-.66-.68Z"/>
          <path class="cls-17" d="M3.83,36c-.19,0-.35-.12-.35-.28V9.34c0-.16,.16-.29,.35-.28l42.58,1.69c.14,0,.26,.12,.26,.27v22.61c0,.14-.11,.26-.26,.27L3.83,36Z"/>
          <path class="cls-15" d="M41.97,34.78c-3.58-2.22-1.08-8.52-5.1-11.68-4.06-3.19-9.76,.72-12.6-2.58-2.12-2.46,.36-5.43-1.66-7.75-3.17-3.63-11.28,1.36-15-2.21-.53-.51-1.06-1.28-1.37-2.51l-2.4-.1c-.92-.04-1.67,.57-1.67,1.36v28.45c0,.79,.75,1.39,1.67,1.33l42.58-2.54c.68-.04,1.22-.62,1.22-1.29v-.43c-2.83,.96-4.56,.65-5.67-.04Z"/>
          <path class="cls-51" d="M38.38,5.98l-25.07-.85c-.57-.02-1.07,.33-1.07,.77v29.63l27.01-1.25V6.76c0-.41-.38-.76-.88-.78Z"/>
          <g class="cls-23">
            <polygon class="cls-14" points="18.35 13.17 14.7 13.12 14.7 9.77 18.35 9.85 18.35 13.17"/>
            <polygon class="cls-14" points="27.97 11.46 19.2 11.31 19.2 9.87 27.97 10.06 27.97 11.46"/>
            <polygon class="cls-14" points="25.44 13.26 19.2 13.18 19.2 11.74 25.44 11.85 25.44 13.26"/>
            <polygon class="cls-14" points="37.18 27.15 14.7 27.73 14.7 26.68 37.18 26.16 37.18 27.15"/>
            <polygon class="cls-14" points="37.18 28.68 14.7 29.36 14.7 28.3 37.18 27.69 37.18 28.68"/>
            <polygon class="cls-14" points="37.18 30.21 14.7 30.98 14.7 29.92 37.18 29.21 37.18 30.21"/>
            <polygon class="cls-14" points="37.18 31.73 14.7 32.6 14.7 31.54 37.18 30.74 37.18 31.73"/>
            <path class="cls-14" d="M14.7,14.13v11.55l22.47-.46V14.36l-22.47-.23Zm13.9,5.35l-.97,.9s-.05,.08-.04,.13l.23,1.26c.02,.1-.08,.19-.18,.17-.03,0-.07,0-.1-.01l-1.21-.58s-.03-.01-.04-.01c-.01,0-.03,0-.04,.01l-1.22,.61s-.07,.02-.1,.02c-.1,.02-.2-.06-.18-.16l.23-1.27s0-.09-.04-.13l-.99-.89c-.09-.08-.04-.23,.09-.25l1.37-.19c.05,0,.09-.04,.12-.08l.61-1.15c.03-.06,.1-.09,.17-.08,.06-.01,.13,.01,.17,.08l.6,1.15s.07,.07,.12,.08l1.34,.18c.12,.02,.17,.16,.08,.24Z"/>
          </g>
          <path class="cls-12" d="M38.36,5.98l-25.08-.85c-.57-.02-1.04,.39-1.04,.9v1.91l27.01,.71v-1.77c0-.48-.39-.89-.89-.9Z"/>
          <g>
            <path class="cls-14" d="M14.55,6.62c0,.32-.29,.57-.64,.56-.35-.01-.64-.28-.64-.6s.29-.57,.64-.56c.35,.01,.64,.28,.64,.6Z"/>
            <path class="cls-14" d="M16.49,6.68c0,.32-.28,.57-.63,.56-.35,0-.64-.28-.64-.6s.28-.57,.64-.56c.35,.01,.63,.28,.63,.6Z"/>
            <path class="cls-14" d="M18.41,6.74c0,.32-.28,.57-.63,.56-.35,0-.63-.28-.63-.59s.28-.57,.63-.56c.35,.01,.63,.28,.63,.59Z"/>
          </g>
          <path class="cls-50" d="M10.34,19.27s.33,2.48-2.28,4.23l2.78,.66s.89-1.66,.25-4.42l-.75-.47Z"/>
          <path class="cls-58" d="M15.95,8.54c-.13-.23-.39-.35-.66-.35h-6.2c-.27,0-.52,.12-.66,.35l-3.1,5.36c-.13,.23-.13,.52,0,.75l3.1,5.38c.13,.23,.39,.38,.66,.38h6.2c.27,0,.52-.14,.66-.38l3.1-5.39c.13-.23,.13-.51,0-.74l-3.1-5.37Z"/>
          <g>
            <path class="cls-44" d="M9.95,20.41c-.27,0-.52-.15-.66-.38l-3.1-5.39c-.13-.23-.13-.52,0-.75l3.1-5.35c.13-.23,.39-.35,.66-.35h6.2c.27,0,.52,.11,.66,.35l3.1,5.37c.13,.23,.13,.51,0,.75l-3.1,5.38c-.13,.23-.39,.38-.66,.38h-6.2Z"/>
            <path class="cls-19" d="M19.48,14.4l-3.1,5.39c-.05,.08-.14,.14-.23,.14h-6.2c-.1,0-.18-.06-.23-.14l-3.1-5.39c-.05-.08-.05-.19,0-.27l3.1-5.36c.05-.08,.14-.11,.23-.11h6.2c.1,0,.18,.03,.23,.11l3.1,5.37c.05,.08,.05,.17,0,.25Z"/>
            <path class="cls-3" d="M15.67,19.94h-5.77c-.1,0-.18-.06-.23-.14l-3.1-5.39c-.05-.08-.05-.19,0-.27l3.1-5.36c.05-.08,.14-.11,.23-.11h1.08c.67,.48,1.51,1.45,1.65,3.16,.2,2.42-.6,6.38,3.05,8.11Z"/>
          </g>
          <g>
            <path class="cls-14" d="M8.56,15.04c0-.1,.03-.18,.08-.24,.06-.05,.14-.08,.25-.08s.18,.03,.24,.08c.06,.05,.09,.13,.09,.24s-.03,.18-.09,.23c-.06,.06-.14,.09-.24,.09s-.19-.03-.24-.08c-.06-.06-.09-.13-.09-.24Z"/>
            <path class="cls-14" d="M10.68,15.35c-.65,0-.98-.36-.98-1.07,0-.36,.09-.63,.27-.82,.18-.19,.43-.28,.76-.28,.24,0,.46,.05,.65,.14l-.17,.44c-.09-.04-.17-.07-.25-.09-.08-.02-.15-.03-.23-.03-.3,0-.45,.21-.45,.63s.15,.61,.45,.61c.11,0,.21-.01,.31-.04,.09-.03,.19-.08,.28-.14v.49c-.09,.06-.19,.1-.28,.12-.09,.02-.21,.03-.36,.03Z"/>
            <path class="cls-14" d="M13.8,14.26c0,.34-.09,.61-.27,.8-.18,.19-.43,.29-.75,.29-.2,0-.38-.04-.53-.13-.15-.09-.27-.21-.35-.38s-.12-.36-.12-.58c0-.34,.09-.61,.27-.8,.18-.19,.43-.28,.75-.28,.2,0,.38,.04,.53,.13,.15,.09,.27,.21,.35,.38,.08,.16,.12,.36,.12,.58Zm-1.45,0c0,.21,.03,.36,.1,.47,.07,.11,.18,.16,.33,.16s.26-.05,.33-.16c.07-.11,.1-.26,.1-.47s-.03-.36-.1-.47c-.07-.1-.18-.16-.33-.16s-.26,.05-.33,.15c-.07,.1-.1,.26-.1,.47Z"/>
            <path class="cls-14" d="M16.24,15.31h-.57v-1.22c0-.15-.03-.26-.08-.34-.05-.08-.13-.11-.24-.11-.15,0-.25,.05-.32,.16-.07,.11-.1,.28-.1,.53v.99h-.57v-2.09h.44l.08,.27h.03c.06-.1,.14-.17,.24-.23,.11-.05,.23-.08,.37-.08,.31,0,.53,.1,.64,.31h.05c.06-.1,.14-.17,.25-.23,.11-.05,.23-.08,.37-.08,.24,0,.42,.06,.54,.18,.12,.12,.18,.32,.18,.59v1.37h-.57v-1.22c0-.15-.03-.26-.08-.34-.05-.08-.13-.11-.24-.11-.14,0-.24,.05-.31,.15-.07,.1-.1,.26-.1,.48v1.05Z"/>
          </g>
          <path class="cls-59" d="M9.84,40.5l-.06,.92s.13,.14,.38,.04l.28-.91-.6-.06Z"/>
          <path class="cls-49" d="M9.95,41.18s-.45,.18-.36,.38c.05,.11,.21,.35,.35,.55,.13,.19,.37,.27,.58,.2,.07-.02,.15-.04,.21-.06,.14-.04,.15-.23,.01-.27-.06-.02-.13-.04-.18-.05-.17-.03-.39-.42-.42-.57-.03-.16-.19-.18-.19-.18Z"/>
          <path class="cls-39" d="M8.86,31.63c.67,.23,3.13,1.16,3.68,3.3,.03,.11,.1,.43,.11,.95,.01,2.16-1.24,3.98-2.15,5.04-.29,0-.57,0-.86-.01-.14-.55-.28-1.37-.07-2.3,.32-1.42,1.13-1.78,.98-2.48-.29-1.26-3.22-1.07-3.49-2.2-.1-.41,.12-1.1,1.81-2.3Z"/>
          <path class="cls-36" d="M.62,44.54l1.25-.03c.08,0,.11-.1,.05-.15-.06-.05-.14-.09-.24-.08-.24,.02-.77-.31-1.01-.24-.08,.02-.14,.21-.18,.26-.06,.1,0,.23,.13,.23Z"/>
          <path class="cls-62" d="M1.19,43.58l-.52,.47s.18,.13,.44,.08l.53-.36-.45-.18Z"/>
          <g class="cls-11">
            <path class="cls-63" d="M11.07,37.2c.35-.93,.76-2.08,.29-2.74-.48-.66-1.53-.1-2.58-.64-.39-.2-.79-.55-1.13-1.19-.59,.61-.67,1.02-.6,1.3,.28,1.13,3.21,.94,3.49,2.2,.16,.69-.66,1.06-.98,2.48-.18,.8-.1,1.52,.01,2.05,.1-.5,.26-1.02,.51-1.55,.38-.82,.63-.93,.99-1.92Z"/>
          </g>
          <path class="cls-28" d="M9.25,31.36c-.41,1.86-1.27,4.7-3.25,7.67-1.47,2.2-3.08,3.76-4.34,4.81-.09,.03-.24,.06-.43,.04-.14-.02-.25-.06-.32-.09,.09-.52,.27-1.3,.71-2.14,.8-1.53,1.5-1.48,2.3-2.84,.59-.99,.78-2.04,1.16-4.15,.29-1.62,.29-2.01,.7-2.48,.81-.94,2.34-.95,3.48-.82Z"/>
          <g class="cls-6">
            <path class="cls-22" d="M1.91,41.99c.28-.45,.79-.92,1.78-1.84,1.03-.95,.99-.78,1.19-1.06,.91-1.26,.42-2.61,.64-4.23,.12-.91,.53-2.09,1.69-3.42-.55,.1-1.07,.32-1.45,.74-.47,.52-.43,1.02-.7,2.48-.38,2.1-.57,3.16-1.16,4.15-.8,1.35-1.51,1.3-2.3,2.84-.44,.84-.62,1.61-.71,2.14,.07,.04,.19,.08,.32,.09,.11,.01,.21,0,.29,0-.07-1.06,.25-1.65,.4-1.88Z"/>
          </g>
          <path class="cls-41" d="M7.72,21.63c.14-.27,.19-.27,.23-.41,.08-.32-.12-.73-.29-.74-.11,0-.12,.16-.35,.43-.28,.32-.45,.28-.61,.56-.04,.07-.21,.36-.11,.58,.14,.28,.67,.32,.9,.11,.11-.1,.06-.18,.23-.52Z"/>
          <path class="cls-16" d="M7.32,21.92s.1,.51,.03,.93c-.06,.38-.76,.77-.89,.88-.13,.11,.35,.23,.8,.17,.45-.06,1.67-.45,1.86-.67,.19-.22-.22-.11-.55-.15-.34-.04-.66-.61-.67-.9,0-.29-.57-.26-.57-.26Z"/>
          <path class="cls-24" d="M7.46,22.3s.34,.15,.65-.09c.27-.22-.13-.88-.41-.89-.09,0-.23,.06-.31,.16-.05,.06-.05,.09-.13,.19-.07,.08-.1,.09-.12,.13-.01,.05,0,.14,.2,.28-.09-.02-.17,0-.2,.06,0,0-.02,.04-.01,.06,.01,.1,.14,.15,.33,.1Z"/>
          <path class="cls-57" d="M14.98,20.52s.21-.03,.14-.42c-.05-.31-.01-.41,.06-.36,.07,.05,.08,.23,.08,.23,0,0,.27-.23,.38-.53,.11-.3,.18-.05,.2,.1,.02,.15-.16,.61-.26,.7-.1,.09-.25,.47-.25,.47l-.36-.19Z"/>
          <path class="cls-30" d="M15.53,20.63c-.24-.17-.47-.33-.71-.5-.29,1.76-.94,2.45-1.49,2.76-1.34,.73-2.53-.57-5.08-.04-.7,.15-1.93,.42-2.61,1.42-.18,.26-.24,.46-.54,2.36-.38,2.42-.39,2.84-.34,3.36,.1,.95,.16,1.53,.6,2.04,1.17,1.36,3.65,.66,3.96,.57,.57-.17,1.47-.43,1.82-1.19,.17-.36,.15-.68-.11-1.99-.51-2.59-.57-2.76-.43-3.04,.48-.96,2-.41,3.28-1.3,.75-.52,1.59-1.65,1.66-4.45Z"/>
          <path class="cls-9" d="M8.15,32.25c.25-.51-.09-.99,.28-1.6,.47-.79,1.32-.52,1.63-1.1,.54-.99-1.6-2.38-1.16-3.96,.21-.75,.93-1.3,1.54-1.51,1.35-.46,2.23,.71,3.49,.35,.3-.09,.64-.27,.99-.64-.31,.65-.69,1.04-1.05,1.29-1.28,.89-2.8,.34-3.28,1.3-.14,.28-.08,.45,.43,3.04,.26,1.31,.27,1.63,.11,1.99-.35,.76-1.25,1.02-1.82,1.19-.17,.05-.99,.28-1.89,.26,.4-.16,.62-.38,.73-.61Z"/>
          <path class="cls-2" d="M14.49,3.43L12.73,.36c-.08-.13-.22-.22-.37-.22h-3.52c-.15,0-.3,.09-.37,.22l-1.76,3.06c-.08,.13-.08,.3,0,.43l1.76,3.08c.08,.13,.22,.24,.37,.24h3.52c.15,0,.3-.1,.37-.24l1.76-3.07c.08-.13,.08-.3,0-.43Z"/>
          <path class="cls-56" d="M9.32,7.17c-.15,0-.3-.11-.37-.24l-1.76-3.07c-.08-.13-.08-.3,0-.43L8.95,.36c.08-.13,.22-.22,.37-.22h3.52c.15,0,.3,.09,.37,.22l1.76,3.06c.08,.13,.08,.3,0,.43l-1.76,3.08c-.08,.13-.22,.24-.37,.24h-3.52Z"/>
          <path class="cls-20" d="M14.73,3.72l-1.76,3.07s-.08,.09-.13,.09h-3.52c-.05,0-.1-.04-.13-.09l-1.76-3.07s-.03-.11,0-.15l1.76-3.06s.08-.07,.13-.07h3.52c.05,0,.1,.03,.13,.07l1.76,3.06s.03,.1,0,.15Z"/>
          <path class="cls-7" d="M12.56,6.88h-3.28c-.05,0-.1-.04-.13-.09l-1.76-3.07s-.03-.11,0-.15l1.76-3.06s.08-.07,.13-.07h.61c.38,.24,.86,.84,.94,1.81,.11,1.38-.34,3.61,1.73,4.63Z"/>
          <g>
            <path class="cls-48" d="M8.95,4.21c0-.06,.02-.1,.05-.14,.03-.03,.08-.05,.14-.05s.1,.02,.14,.05c.03,.03,.05,.08,.05,.13s-.02,.1-.05,.13c-.03,.03-.08,.05-.14,.05s-.11-.02-.14-.05c-.03-.03-.05-.08-.05-.13Z"/>
            <path class="cls-48" d="M10.77,4.36h-.32v-.69c0-.09-.02-.15-.05-.19-.03-.04-.08-.06-.15-.06-.09,0-.16,.03-.2,.09-.04,.06-.06,.16-.06,.3v.56h-.32v-1.19h.25l.04,.15h.02c.04-.06,.09-.1,.15-.13,.06-.03,.14-.04,.22-.04,.14,0,.24,.04,.31,.11,.07,.07,.11,.18,.11,.32v.78Z"/>
            <path class="cls-48" d="M11.7,4.39c-.19,0-.34-.05-.45-.16-.11-.11-.16-.26-.16-.45s.05-.35,.15-.46c.1-.11,.24-.16,.41-.16s.3,.05,.39,.14c.09,.1,.14,.23,.14,.4v.16h-.77c0,.09,.03,.16,.08,.22,.05,.05,.12,.08,.21,.08,.07,0,.14,0,.2-.02,.06-.01,.13-.04,.2-.07v.25c-.06,.03-.12,.05-.18,.06s-.14,.02-.24,.02Zm-.05-1c-.07,0-.12,.02-.16,.07-.04,.04-.06,.11-.07,.19h.46c0-.08-.02-.14-.06-.19-.04-.04-.1-.07-.16-.07Z"/>
            <path class="cls-48" d="M13,4.13c.06,0,.12-.01,.2-.04v.24c-.08,.04-.18,.05-.3,.05-.13,0-.22-.03-.28-.1-.06-.07-.09-.16-.09-.3v-.57h-.16v-.14l.18-.11,.09-.25h.21v.25h.33v.24h-.33v.57s.01,.08,.04,.1c.03,.02,.06,.03,.1,.03Z"/>
          </g>
          <path class="cls-64" d="M25.28,3.91c-.1-.17-.28-.25-.48-.25h-4.55c-.2,0-.38,.08-.48,.25l-2.27,3.93c-.1,.17-.1,.39,0,.56l2.27,3.99c.1,.17,.28,.33,.48,.33h4.55c.2,0,.38-.16,.48-.33l2.27-3.99c.1-.17,.1-.38,0-.55l-2.27-3.94Z"/>
          <path class="cls-52" d="M20.88,12.72c-.2,0-.38-.16-.48-.33l-2.27-3.98c-.1-.17-.1-.4,0-.57l2.27-3.93c.1-.17,.28-.26,.48-.26h4.55c.2,0,.38,.08,.48,.25l2.27,3.94c.1,.17,.1,.38,0,.55l-2.27,4c-.1,.17-.28,.33-.48,.33h-4.55Z"/>
          <path class="cls-21" d="M27.87,8.21l-2.27,4c-.03,.06-.1,.15-.17,.15h-4.55c-.07,0-.13-.09-.17-.15l-2.27-3.98c-.03-.06-.03-.15,0-.21l2.27-3.93c.03-.06,.1-.08,.17-.08h4.55c.07,0,.13,.01,.17,.07l2.27,3.94c.03,.06,.03,.12,0,.18Z"/>
          <path class="cls-10" d="M25.07,12.36h-4.23c-.07,0-.13-.09-.17-.15l-2.27-3.98c-.03-.06-.03-.15,0-.21l2.27-3.93c.03-.06,.1-.08,.17-.08h.79c.49,.36,1.11,1.1,1.21,2.36,.15,1.78-.44,4.62,2.23,5.99Z"/>
          <g>
            <path class="cls-48" d="M20.44,8.63c0-.08,.02-.14,.06-.17,.04-.04,.1-.06,.18-.06s.13,.02,.18,.06c.04,.04,.06,.1,.06,.17s-.02,.13-.06,.17c-.04,.04-.1,.06-.18,.06s-.14-.02-.18-.06c-.04-.04-.06-.1-.06-.17Z"/>
            <path class="cls-48" d="M22.77,8.05c0,.25-.07,.45-.2,.59-.13,.14-.32,.21-.55,.21-.15,0-.28-.03-.39-.1-.11-.06-.2-.16-.26-.28-.06-.12-.09-.26-.09-.42,0-.25,.07-.45,.2-.59,.13-.14,.32-.21,.55-.21,.15,0,.28,.03,.39,.1,.11,.06,.2,.16,.26,.28,.06,.12,.09,.26,.09,.42Zm-1.06,0c0,.15,.02,.27,.07,.34,.05,.08,.13,.12,.24,.12s.19-.04,.24-.12c.05-.08,.07-.19,.07-.35s-.02-.27-.07-.34c-.05-.08-.13-.11-.24-.11s-.19,.04-.24,.11c-.05,.08-.07,.19-.07,.34Z"/>
            <path class="cls-48" d="M24.04,7.26c.06,0,.1,0,.14,.01l-.03,.39s-.08-.01-.12-.01c-.13,0-.24,.03-.31,.1-.07,.07-.11,.16-.11,.29v.78h-.42v-1.54h.32l.06,.26h.02c.05-.09,.11-.16,.19-.21,.08-.05,.17-.08,.26-.08Z"/>
            <path class="cls-48" d="M25.87,7.29v.21l-.24,.06c.04,.07,.07,.15,.07,.23,0,.16-.06,.29-.17,.39-.11,.09-.27,.14-.48,.14h-.08s-.06-.01-.06-.01c-.04,.03-.06,.07-.06,.11,0,.06,.08,.09,.23,.09h.26c.17,0,.3,.04,.39,.11,.09,.07,.13,.18,.13,.32,0,.18-.07,.32-.22,.42-.15,.1-.36,.15-.64,.15-.21,0-.38-.04-.49-.11-.11-.07-.17-.18-.17-.31,0-.09,.03-.17,.09-.23,.06-.06,.14-.11,.25-.13-.04-.02-.08-.05-.11-.09-.03-.04-.05-.09-.05-.13,0-.06,.02-.11,.05-.15,.03-.04,.08-.08,.15-.11-.08-.03-.14-.09-.19-.17-.05-.08-.07-.17-.07-.27,0-.17,.05-.3,.16-.39,.11-.09,.26-.14,.47-.14,.04,0,.09,0,.15,.01,.06,0,.1,.01,.11,.02h.54Zm-1.19,1.75c0,.06,.03,.1,.08,.14s.13,.05,.23,.05c.15,0,.27-.02,.35-.06,.09-.04,.13-.1,.13-.17,0-.06-.03-.1-.08-.12-.05-.02-.13-.03-.23-.03h-.22c-.08,0-.14,.02-.19,.05-.05,.04-.08,.08-.08,.14Zm.15-1.25c0,.08,.02,.15,.06,.2,.04,.05,.1,.07,.17,.07s.14-.02,.17-.07c.04-.05,.05-.11,.05-.2,0-.18-.08-.28-.23-.28s-.23,.09-.23,.28Z"/>
          </g>
          <path class="cls-55" d="M20.61,23.65c.1,.17,.28,.28,.48,.28h4.55c.2,0,.38-.11,.48-.28l2.27-3.96c.1-.17,.1-.38,0-.55l-2.27-3.95c-.1-.17-.28-.27-.48-.27h-4.55c-.2,0-.38,.1-.48,.27l-2.27,3.94c-.1,.17-.1,.38,0,.55l2.27,3.95Z"/>
          <path class="cls-42" d="M21.71,23.93c-.2,0-.38-.11-.48-.28l-2.27-3.95c-.1-.17-.1-.38,0-.55l2.27-3.95c.1-.17,.28-.27,.48-.27h4.55c.2,0,.38,.1,.48,.27l2.27,3.95c.1,.17,.1,.38,0,.55l-2.27,3.95c-.1,.17-.28,.28-.48,.28h-4.55Z"/>
          <g>
            <path class="cls-14" d="M20.82,19.97c0-.08,.02-.14,.06-.17,.04-.04,.1-.06,.18-.06s.13,.02,.18,.06c.04,.04,.06,.1,.06,.17s-.02,.13-.06,.17c-.04,.04-.1,.06-.18,.06s-.14-.02-.18-.06c-.04-.04-.06-.1-.06-.17Z"/>
            <path class="cls-14" d="M21.73,18.23c0-.14,.08-.2,.23-.2s.23,.07,.23,.2c0,.07-.02,.12-.06,.15-.04,.04-.1,.05-.17,.05-.15,0-.23-.07-.23-.21Zm.44,1.93h-.42v-1.54h.42v1.54Z"/>
            <path class="cls-14" d="M24.1,20.17h-.42v-.9c0-.11-.02-.19-.06-.25-.04-.06-.1-.08-.19-.08-.12,0-.2,.04-.25,.12-.05,.08-.08,.21-.08,.39v.72h-.42v-1.54h.32l.06,.2h.02c.05-.07,.11-.13,.19-.17,.08-.04,.18-.06,.28-.06,.18,0,.31,.05,.41,.14,.09,.1,.14,.24,.14,.42v1Z"/>
            <path class="cls-14" d="M25.45,18.94h-.36v1.22h-.42v-1.22h-.23v-.2l.23-.11v-.11c0-.17,.04-.3,.13-.38,.09-.08,.22-.12,.41-.12,.14,0,.27,.02,.39,.06l-.11,.31c-.08-.03-.16-.04-.23-.04-.06,0-.1,.02-.13,.05-.03,.04-.04,.08-.04,.14v.1h.36v.31Z"/>
            <path class="cls-14" d="M27.15,19.39c0,.25-.07,.45-.2,.59-.13,.14-.32,.21-.55,.21-.15,0-.28-.03-.39-.1s-.2-.16-.26-.28c-.06-.12-.09-.26-.09-.42,0-.25,.07-.45,.2-.59,.13-.14,.32-.21,.55-.21,.15,0,.28,.03,.39,.1,.11,.06,.2,.16,.26,.28,.06,.12,.09,.26,.09,.42Zm-1.06,0c0,.15,.02,.27,.07,.34,.05,.08,.13,.12,.24,.12s.19-.04,.24-.12c.05-.08,.07-.19,.07-.35s-.02-.27-.07-.34c-.05-.08-.13-.11-.24-.11s-.19,.04-.24,.11c-.05,.08-.07,.19-.07,.34Z"/>
          </g>
          <g>
            <path class="cls-35" d="M41.69,24.2c0,3.2-2.5,5.71-5.7,5.61-3.33-.1-6.12-2.97-6.12-6.41s2.8-5.93,6.12-5.59c3.2,.33,5.7,3.19,5.7,6.38Z"/>
            <path class="cls-53" d="M42.55,23.93c0,3.2-2.5,5.71-5.7,5.61-3.33-.1-6.12-2.97-6.12-6.41s2.8-5.93,6.12-5.59c3.2,.33,5.7,3.19,5.7,6.38Z"/>
            <path class="cls-47" d="M42.3,23.91c0,3.06-2.39,5.46-5.45,5.36-3.17-.1-5.83-2.84-5.83-6.12s2.66-5.66,5.83-5.33c3.05,.31,5.45,3.04,5.45,6.09Z"/>
            <path class="cls-33" d="M42.12,23.9c0,2.96-2.31,5.27-5.27,5.18-3.06-.1-5.63-2.75-5.63-5.91s2.57-5.46,5.63-5.15c2.95,.3,5.27,2.93,5.27,5.89Z"/>
            <path class="cls-29" d="M36.83,19.02h0c.16,.01,.28,.16,.28,.32v.54c.31,.04,.63,.09,.94,.16,.23,.05,.46,.12,.69,.19,.14,.05,.23,.18,.22,.33l-.07,.68c-.02,.18-.2,.29-.37,.21-.15-.07-.31-.12-.46-.17-.28-.08-.57-.14-.88-.16h-.08s0,1.55,0,1.55c.82,.23,1.42,.54,1.81,.93,.39,.39,.58,.87,.58,1.44,0,.62-.21,1.12-.64,1.5-.43,.38-1.03,.59-1.81,.64v.6c0,.16-.13,.28-.28,.28h0c-.16,0-.29-.14-.29-.3v-.59h-.13c-.37-.02-.72-.06-1.05-.12-.25-.04-.49-.1-.73-.17-.14-.04-.24-.18-.23-.32l.08-.88c.02-.19,.21-.3,.39-.23,.21,.08,.42,.15,.64,.21,.34,.09,.68,.15,1.02,.17v-1.73c-.78-.19-1.37-.48-1.76-.86-.39-.38-.58-.87-.58-1.47s.21-1.09,.63-1.43c.42-.33,1.01-.5,1.78-.5v-.56c0-.16,.13-.28,.29-.26Zm-.29,2.08c-.24,.02-.43,.08-.57,.2-.14,.12-.2,.27-.2,.47,0,.19,.06,.34,.19,.46,.13,.12,.32,.22,.58,.3v-1.43Zm.5,3.14v1.59c.26,0,.47-.06,.61-.19,.14-.13,.21-.3,.21-.54,0-.21-.07-.38-.2-.52-.13-.14-.34-.25-.62-.34Z"/>
            <path class="cls-1" d="M35.9,24.62c.18-1.76,1.79-2.5,1.58-4.12-.13-1-.88-1.84-1.73-2.49-2.55,.27-4.53,2.38-4.53,5.15,0,3.16,2.57,5.81,5.63,5.91,.3,0,.59,0,.87-.04-1.22-1.21-1.98-2.9-1.82-4.41Z"/>
          </g>
          <path class="cls-54" d="M46.59,45.54c.23,.23,.32,.48,.24,.63-.06,.1-.18,.13-.32,.15-.22,.04-.45,.03-.92-.1-.44-.12-.7-.2-.7-.3,0-.1,.23-.18,.43-.24,.28-.1,.53-.12,.7-.13h.59Z"/>
          <path class="cls-38" d="M39.74,41.79c.1,.04,.24,.12,.27,.25,.06,.21-.16,.42-.51,.75-.26,.25-.62,.58-.74,.5-.08-.05-.03-.24,.01-.41,.05-.21,.16-.53,.44-.89l.54-.2Z"/>
          <path class="cls-26" d="M46.09,45.03l.49,.55c.05,.06,.03,.15-.05,.17-.11,.03-.26,.05-.4,.02-.03,0-.06-.03-.08-.05l-.49-.48,.52-.2Z"/>
          <path class="cls-43" d="M39.46,41.46l.27,.38c.04,.05,.02,.13-.04,.16-.04,.02-.08,.04-.13,.06-.08,.03-.16,0-.22-.05l-.29-.33,.41-.23Z"/>
          <path class="cls-25" d="M44.25,33.42c-.25,.53-.56,1.29-.74,2.25-.08,.4-.44,2.42,.34,4.86,.73,2.27,2.07,3.71,2.78,4.38-.1,.09-.24,.19-.42,.27-.29,.13-.56,.17-.73,.17-2.18-1.56-3.24-3.32-3.72-4.28-1.62-3.24-1.21-6.42-.51-7.76,.23-.44,.5-.68,.79-.79,.95-.34,2.06,.76,2.2,.9Z"/>
          <path class="cls-8" d="M41.26,33.31c.23-.44,.5-.68,.79-.79,.95-.34,2.06,.76,2.2,.9-.25,.52-.55,1.27-.74,2.21-.67,.16-1.6,.53-2.05,1.41-.73,1.42,.32,3.13,.54,3.48,.48,.78,.77,.71,1.49,1.82,.54,.85,.58,1.21,1.05,1.62,.55,.48,1.24,.62,1.79,.65,.11,.11,.21,.21,.3,.29-.1,.09-.24,.19-.42,.27-.29,.13-.56,.17-.73,.17-2.18-1.56-3.24-3.32-3.72-4.28-1.62-3.24-1.21-6.42-.51-7.76Z"/>
          <path class="cls-25" d="M43.01,33.3c-.12,.24-.32,.59-.66,.95-.86,.89-1.66,.81-2.56,1.54-.11,.09-.91,.76-1.21,1.73-.57,1.87,1.09,3.72,1.27,3.91-.11,.1-.27,.23-.49,.33-.2,.1-.39,.14-.52,.17-2.38-2.17-3.54-4.81-2.75-6.52,.43-.93,1.45-1.61,2.21-2.11,1.23-.82,2.41-1.19,3.18-1.37,.51,.46,1.02,.92,1.53,1.37Z"/>
          <path class="cls-18" d="M41.59,28.34c-.04,1.05,.21,1.6-.13,2.46-.25,.62-.65,1.04-.96,1.3,.18,.34,.58,1.01,1.38,1.54,.96,.63,1.92,.68,2.3,.67,.8-.41,2.01-1.18,2.98-2.56,.66-.93,1.38-1.96,1.19-3.27-.24-1.66-1.78-2.55-2.22-2.8-.29-.17-2.27-1.31-3.48-.47-.98,.68-1.03,2.34-1.06,3.13Z"/>
          <path class="cls-60" d="M34.96,29.53c-.03-.17-.15-.29-.22-.36-.08-.08-.1-.07-.15-.14-.13-.17-.1-.34-.15-.35-.04,0-.12,.12-.12,.25,0,.14,.11,.19,.09,.27-.03,.11-.28,.19-.5,.15-.26-.05-.38-.26-.48-.2-.07,.04-.07,.17-.07,.19,.01,.25,.35,.52,.68,.56,.19,.02,.26-.05,.49,0,.15,.04,.2,.09,.28,.06,.12-.05,.17-.27,.14-.43Z"/>
          <path class="cls-45" d="M34.92,29.44c2.05,.14,3.27-.39,4.01-.9,1.67-1.16,2-3,3.94-3.49,.35-.09,.97-.25,1.31,.07,.7,.65-.13,3.05-1.58,4.53-.32,.33-1.48,1.46-3.38,1.72-2.44,.33-4.2-1.05-4.5-1.3-.1-.11-.12-.26-.08-.39,.07-.19,.26-.23,.27-.24Z"/>
          <path class="cls-5" d="M45.06,32.66c.58-.55,.3-.89,1.01-1.98,.72-1.12,1.24-1.14,1.58-1.89,.17-.39,.28-.95,.09-1.75,.29,.39,.53,.87,.61,1.44,.19,1.31-.53,2.33-1.19,3.27-.97,1.38-2.18,2.15-2.98,2.56-.38,0-1.34-.04-2.3-.67-.36-.24-.64-.5-.85-.75,.29,.16,.64,.3,1.04,.39,.19,.04,1.94,.39,3-.61Z"/>
          <path class="cls-61" d="M45.59,24.54l.17,.56c.05,.18,.16,.34,.31,.46l.44,.35s-1.35-.23-2-.86l.39-.12s.07-.05,.07-.1v-.41l.61,.12Z"/>
          <g>
            <path class="cls-34" d="M45.11,24.82c-.06-.01-.53,.06-.66-.16-.18-.3,0-.79,.02-.87,.08-.31,.1-.36,.16-.43l.08-.09s0,0,.01,0c.06-.04,.27-.1,.32-.11,.15,0,.45,.52,.62,1.34,.01,.03,.03,.06,.04,.09,.04,.08-.59,.26-.59,.23Z"/>
            <path class="cls-25" d="M44.35,23.13c.07,.25,.26,.48,.33,.51,0,0,.06,.03,.12,.07,0,0,.01,.01,.02,.03,.1,.14-.1,.39-.04,.45,.05,.04,.2-.07,.23-.03,.03,.04-.09,.16-.05,.2,.03,.03,.1-.02,.17,.02,.03,.02,.03,.05,.09,.13,.03,.05,.07,.09,.09,.12,.13,.12,.38,.11,.42,.04,0-.02,0-.03,0-.09,0,0,0-.05,.02-.12,.03-.1,.13-.19,.23-.31,.18-.22,.21-.38,.21-.43,0-.02,0-.03,0-.04,.01-.2-.06-.47-.19-.61-.21-.24-.49-.03-.82-.23-.38-.24-.32-.72-.49-.73-.19,0-.46,.57-.34,1.03Z"/>
            <path class="cls-40" d="M44.86,24.11c.04-.1,.17-.05,.2,.06,.03,.11-.05,.25-.15,.26-.11,0-.1-.18-.04-.31Z"/>
          </g>
          <g>
            <path class="cls-37" d="M43.31,17.44c-.26,.29-.69,.4-1.07,.24-.49-.2-.71-.76-.51-1.25,1.15-2.76,.44-5.97-1.78-7.98-1.7-1.55-4.06-2.17-6.31-1.67-.51,.11-1.02-.21-1.14-.72-.11-.51,.21-1.02,.72-1.14,2.85-.64,5.85,.16,8.01,2.12,2.81,2.55,3.72,6.62,2.25,10.12-.04,.1-.1,.2-.17,.27Z"/>
            <polygon class="cls-13" points="34.17 3.89 32.8 5.97 34.89 7.34 33.42 7.65 31.34 6.27 32.71 4.19 34.17 3.89"/>
          </g>
          <g>
            <path class="cls-27" d="M15.94,26.13c.12-.37,.46-.65,.88-.66,.53-.02,.97,.39,.98,.92,.1,2.99,2.08,5.61,4.93,6.52,2.19,.7,4.6,.28,6.43-1.11,.42-.32,1.02-.24,1.33,.18,.32,.42,.24,1.02-.18,1.33-2.33,1.77-5.38,2.29-8.16,1.41-3.62-1.15-6.13-4.47-6.26-8.27,0-.11,.01-.22,.04-.32Z"/>
            <polygon class="cls-31" points="29.88 34.66 30.26 32.19 27.8 31.81 29.01 30.93 31.47 31.31 31.09 33.77 29.88 34.66"/>
          </g>
        </g>
      </g>
    </g>
  </g>
</svg>