<?xml version="1.0" encoding="UTF-8"?>
<svg id="Layer_2" data-name="Layer 2" xmlns="http://www.w3.org/2000/svg" xmlns:xlink="http://www.w3.org/1999/xlink" viewBox="0 0 90.35 74.94">
  <defs>
    <style>
      .cls-1 {
        fill: url(#linear-gradient-2);
      }

      .cls-2 {
        fill: #20212e;
      }

      .cls-3 {
        fill: #fff;
      }

      .cls-4 {
        fill: url(#linear-gradient-4);
      }

      .cls-4, .cls-5, .cls-6 {
        stroke: #7f98cd;
      }

      .cls-4, .cls-5, .cls-6, .cls-7 {
        stroke-miterlimit: 10;
        stroke-width: .7px;
      }

      .cls-5 {
        fill: url(#linear-gradient-3);
      }

      .cls-6 {
        fill: url(#linear-gradient-5);
      }

      .cls-7 {
        fill: none;
        stroke: #fff;
        stroke-linecap: round;
      }

      .cls-8 {
        fill: url(#linear-gradient);
      }
    </style>
    <linearGradient id="linear-gradient" x1="12.1" y1="15.1" x2="62.09" y2="15.1" gradientUnits="userSpaceOnUse">
      <stop offset="0" stop-color="#486ab2"/>
      <stop offset="1" stop-color="#292b74"/>
    </linearGradient>
    <linearGradient id="linear-gradient-2" x1="1.57" y1="68.65" x2="36.01" y2="68.65" xlink:href="#linear-gradient"/>
    <linearGradient id="linear-gradient-3" x1="48.6" y1="52.06" x2="90" y2="52.06" xlink:href="#linear-gradient"/>
    <linearGradient id="linear-gradient-4" x1="48.6" y1="61.05" x2="90" y2="61.05" xlink:href="#linear-gradient"/>
    <linearGradient id="linear-gradient-5" x1="48.6" y1="69.79" x2="90" y2="69.79" xlink:href="#linear-gradient"/>
  </defs>
  <g id="Layer_1-2" data-name="Layer 1">
    <g>
      <g>
        <path class="cls-2" d="M37.66,0c2.22,0,4.4,.54,6.43,1.46,.06,.03,.12,.06,.18,.09,3.52,2.01,5.84,4.96,7.32,8.68,1.48,.19,2.88,.26,4.23,.56,4.28,.94,7.28,4.41,7.59,8.63,.32,4.48-2.21,8.44-6.38,9.98-1.6,.59-3.25,.7-4.94,.7-10.83-.02-21.66,0-32.49-.02-1.15,0-2.34-.03-3.44-.33-5.29-1.45-7.14-7.46-3.62-11.67,.57-.68,1.29-1.24,1.93-1.84,.09-4.96,3.06-8.59,9.89-7.99,.94-2.48,2.76-4.13,4.81-5.58,2.48-1.75,5.46-2.67,8.49-2.67h0Zm-12.77,9.96c-6.98-.48-8.62,.85-8.98,7.16-.33,.24-.74,.53-1.14,.83-2.17,1.62-3.16,3.79-2.44,6.42,.77,2.82,2.99,4.03,5.73,4.4,.76,.1,1.54,.03,2.32,.03,6.06,0,12.12,0,18.18,0,4.77,0,9.54,.11,14.31-.03,7.39-.21,11.42-6.71,7.99-12.77-2.26-3.99-5.86-4.52-10.03-3.75-1.83-5.8-5.32-10-11.63-10.77-6.7-.82-11.25,2.49-14.3,8.47Z"/>
        <path class="cls-8" d="M24.89,9.96C27.94,3.98,32.49,.67,39.19,1.49c6.32,.77,9.8,4.96,11.63,10.77,4.17-.78,7.77-.24,10.03,3.75,3.43,6.06-.59,12.56-7.99,12.77-4.77,.13-9.54,.03-14.31,.03-6.06,0-12.12,0-18.18,0-.77,0-1.56,.07-2.32-.03-2.73-.37-4.96-1.58-5.73-4.4-.72-2.63,.27-4.79,2.44-6.42,.4-.3,.81-.59,1.14-.83,.35-6.31,2-7.64,8.98-7.16Z"/>
      </g>
      <g>
        <path class="cls-2" d="M.02,65.14c.99-.16,1.87-.31,3.14-.52,0-3.72,0-7.43,0-11.15,0-1.16-.08-2.33,.03-3.49,.25-2.64,1.55-4.02,4.24-4.06,7.62-.09,15.24-.1,22.86,0,2.82,.04,4.15,1.49,4.25,4.44,.12,3.74,.03,7.49,.03,11.24,0,.89,0,1.78,0,2.37,.9,1.37,2.18,.6,3.02,1.22,.93,3.32-.31,6.81-4.39,6.82-5.81,0-11.62,0-17.44,0-3.23,0-6.46,0-9.69,0-5.13-.02-6.23-1.2-6.05-6.88Zm33.07-.19c0-5.08,.07-9.72-.03-14.35-.05-2.25-.89-3.17-3-3.19-7.49-.08-14.99-.03-22.48-.03-1.69,0-2.83,.92-2.87,2.53-.12,4.99-.04,9.98-.04,15.04h28.42Zm-31.52,1.63c.11,3.48,.64,4.09,3.77,4.1,9.03,.04,18.05,.02,27.08,.01,.52,0,1.05,.06,1.54-.05,1.87-.44,2.39-1.59,1.85-4.06H1.57Z"/>
        <path class="cls-3" d="M33.09,64.95H4.67c0-5.07-.07-10.06,.04-15.04,.04-1.61,1.18-2.53,2.87-2.53,7.49,0,14.99-.05,22.48,.03,2.11,.02,2.96,.94,3,3.19,.1,4.63,.03,9.27,.03,14.35Zm-8.06-12c-2.26-.54-2.8,1.79-4.25,1.3-.94-.08-.51-1.59-1.83-1.26-1.07,1.12-2.62,2.06-3.56,4.28,2.25-.74,1.95,1.72,3.71,1.94,2.2-1.51,4.28-3.38,5.93-6.26Z"/>
        <path class="cls-1" d="M1.57,66.58H35.81c.54,2.47,.02,3.62-1.85,4.06-.49,.12-1.03,.05-1.54,.05-9.03,0-18.05,.03-27.08-.01-3.14-.01-3.66-.62-3.77-4.1Z"/>
      </g>
      <g>
        <rect class="cls-5" x="48.6" y="47.27" width="41.4" height="9.59" rx="4.8" ry="4.8"/>
        <rect class="cls-4" x="48.6" y="56.26" width="41.4" height="9.59" rx="4.8" ry="4.8"/>
        <rect class="cls-6" x="48.6" y="65" width="41.4" height="9.59" rx="4.8" ry="4.8"/>
        <g>
          <circle class="cls-3" cx="83.94" cy="52.06" r="1.65"/>
          <circle class="cls-3" cx="78.81" cy="52.06" r="1.65"/>
        </g>
        <g>
          <circle class="cls-3" cx="83.94" cy="61.05" r="1.65"/>
          <circle class="cls-3" cx="78.81" cy="61.05" r="1.65"/>
        </g>
        <g>
          <circle class="cls-3" cx="83.94" cy="69.79" r="1.65"/>
          <circle class="cls-3" cx="78.81" cy="69.79" r="1.65"/>
        </g>
        <line class="cls-7" x1="62.77" y1="52.06" x2="74.52" y2="52.06"/>
        <line class="cls-7" x1="62.77" y1="61.05" x2="74.52" y2="61.05"/>
        <line class="cls-7" x1="62.77" y1="70.04" x2="74.52" y2="70.04"/>
      </g>
      <g>
        <rect class="cls-2" x="16.79" y="37.56" width="42.18" height="1.6"/>
        <rect class="cls-2" x="16.79" y="38.36" width="1.64" height="3.29"/>
        <rect class="cls-2" x="57.33" y="38.36" width="1.64" height="3.29"/>
        <rect class="cls-2" x="36.48" y="34.31" width="1.64" height="3.29"/>
      </g>
    </g>
  </g>
</svg>