<?xml version="1.0" encoding="UTF-8"?>
<svg id="Layer_2" data-name="Layer 2" xmlns="http://www.w3.org/2000/svg" xmlns:xlink="http://www.w3.org/1999/xlink" viewBox="0 0 438 415.56">
  <defs>
    <style>
      .cls-1 {
        fill: url(#linear-gradient-2);
      }

      .cls-2, .cls-3, .cls-4, .cls-5 {
        fill: #fff;
      }

      .cls-6 {
        fill: url(#linear-gradient-17);
      }

      .cls-7 {
        fill: #455b64;
      }

      .cls-8 {
        fill: #ab6cad;
      }

      .cls-9 {
        fill: #74b2e0;
      }

      .cls-10 {
        fill: #37474f;
      }

      .cls-11 {
        fill: url(#linear-gradient-15);
      }

      .cls-12 {
        fill: #f0997a;
      }

      .cls-13 {
        fill: url(#linear-gradient-18);
      }

      .cls-14 {
        fill: #f5f5f5;
      }

      .cls-3 {
        opacity: .3;
      }

      .cls-15 {
        fill: url(#linear-gradient-14);
      }

      .cls-16 {
        fill: url(#linear-gradient-20);
      }

      .cls-17 {
        fill: url(#linear-gradient-6);
      }

      .cls-18 {
        opacity: .2;
      }

      .cls-4 {
        opacity: .1;
      }

      .cls-19 {
        fill: #e0e0e0;
      }

      .cls-20 {
        fill: url(#linear-gradient-11);
      }

      .cls-21 {
        opacity: .35;
      }

      .cls-22 {
        fill: url(#linear-gradient-10);
      }

      .cls-23 {
        fill: #e6e6e6;
      }

      .cls-24 {
        fill: #f3908f;
      }

      .cls-25 {
        fill: #f1f0f0;
      }

      .cls-26, .cls-5 {
        opacity: .15;
      }

      .cls-27 {
        fill: url(#linear-gradient-16);
      }

      .cls-28 {
        fill: #fabca7;
      }

      .cls-29 {
        fill: url(#linear-gradient-21);
      }

      .cls-30 {
        fill: url(#linear-gradient-25);
      }

      .cls-31 {
        fill: #b16669;
      }

      .cls-32 {
        fill: url(#linear-gradient-5);
      }

      .cls-33 {
        fill: #fafbfb;
      }

      .cls-34 {
        fill: url(#linear-gradient-7);
      }

      .cls-35 {
        fill: url(#linear-gradient-24);
      }

      .cls-36 {
        fill: url(#linear-gradient-9);
      }

      .cls-37 {
        fill: url(#linear-gradient-22);
      }

      .cls-38 {
        fill: url(#linear-gradient-3);
      }

      .cls-39 {
        fill: url(#linear-gradient);
      }

      .cls-40 {
        fill: url(#linear-gradient-23);
      }

      .cls-41 {
        fill: url(#linear-gradient-19);
      }

      .cls-42 {
        fill: url(#linear-gradient-4);
      }

      .cls-43 {
        fill: url(#linear-gradient-8);
      }

      .cls-44 {
        fill: #263238;
      }

      .cls-45 {
        fill: url(#linear-gradient-12);
      }

      .cls-46 {
        fill: url(#linear-gradient-13);
      }

      .cls-47 {
        fill: url(#linear-gradient-26);
      }
    </style>
    <linearGradient id="linear-gradient" x1="141.92" y1="194.72" x2="392.17" y2="194.72" gradientUnits="userSpaceOnUse">
      <stop offset="0" stop-color="#486ab2"/>
      <stop offset="1" stop-color="#292b74"/>
    </linearGradient>
    <linearGradient id="linear-gradient-2" x1="305.18" y1="241.47" x2="392.17" y2="241.47" xlink:href="#linear-gradient"/>
    <linearGradient id="linear-gradient-3" x1="142.5" y1="191.67" x2="391.59" y2="191.67" xlink:href="#linear-gradient"/>
    <linearGradient id="linear-gradient-4" x1="231.89" y1="117.59" x2="263.23" y2="117.59" xlink:href="#linear-gradient"/>
    <linearGradient id="linear-gradient-5" x1="231.89" y1="110.04" x2="262.72" y2="110.04" xlink:href="#linear-gradient"/>
    <linearGradient id="linear-gradient-6" x1="231.94" y1="99.47" x2="302.19" y2="99.47" xlink:href="#linear-gradient"/>
    <linearGradient id="linear-gradient-7" x1="231.94" y1="84.04" x2="301.67" y2="84.04" xlink:href="#linear-gradient"/>
    <linearGradient id="linear-gradient-8" x1="223.93" y1="311.7" x2="300.27" y2="311.7" xlink:href="#linear-gradient"/>
    <linearGradient id="linear-gradient-9" x1="267.7" y1="343.12" x2="300.27" y2="343.12" xlink:href="#linear-gradient"/>
    <linearGradient id="linear-gradient-10" x1="213.06" y1="316.95" x2="286.44" y2="316.95" gradientTransform="translate(191.94 -82.41) rotate(30)" xlink:href="#linear-gradient"/>
    <linearGradient id="linear-gradient-11" x1="217.56" y1="316.95" x2="281.94" y2="316.95" xlink:href="#linear-gradient"/>
    <linearGradient id="linear-gradient-12" x1="251.23" y1="287.14" x2="252.78" y2="287.14" xlink:href="#linear-gradient"/>
    <linearGradient id="linear-gradient-13" x1="225.64" y1="300.89" x2="230.74" y2="300.89" xlink:href="#linear-gradient"/>
    <linearGradient id="linear-gradient-14" x1="274.22" y1="330.05" x2="279.33" y2="330.05" xlink:href="#linear-gradient"/>
    <linearGradient id="linear-gradient-15" x1="252.19" y1="343.8" x2="253.74" y2="343.8" xlink:href="#linear-gradient"/>
    <linearGradient id="linear-gradient-16" x1="248.91" y1="316.98" x2="269.89" y2="316.98" xlink:href="#linear-gradient"/>
    <linearGradient id="linear-gradient-17" x1="43.54" y1="224.6" x2="156.74" y2="224.6" xlink:href="#linear-gradient"/>
    <linearGradient id="linear-gradient-18" x1="34.86" y1="175.52" x2="102.26" y2="175.52" xlink:href="#linear-gradient"/>
    <linearGradient id="linear-gradient-19" x1="138.62" y1="85.25" x2="197.27" y2="85.25" xlink:href="#linear-gradient"/>
    <linearGradient id="linear-gradient-20" x1="130.32" y1="108.61" x2="158.83" y2="108.61" xlink:href="#linear-gradient"/>
    <linearGradient id="linear-gradient-21" x1="83.3" y1="111.43" x2="125.43" y2="111.43" xlink:href="#linear-gradient"/>
    <linearGradient id="linear-gradient-22" x1="52.06" y1="98.9" x2="97.25" y2="98.9" xlink:href="#linear-gradient"/>
    <linearGradient id="linear-gradient-23" x1="95.7" y1="34.62" x2="108.09" y2="34.62" xlink:href="#linear-gradient"/>
    <linearGradient id="linear-gradient-24" x1="95.7" y1="34.82" x2="106.71" y2="34.82" xlink:href="#linear-gradient"/>
    <linearGradient id="linear-gradient-25" x1="143.15" y1="44.2" x2="148.03" y2="44.2" xlink:href="#linear-gradient"/>
    <linearGradient id="linear-gradient-26" x1="338.23" y1="117.93" x2="405.84" y2="117.93" xlink:href="#linear-gradient"/>
  </defs>
  <g id="Layer_1-2" data-name="Layer 1">
    <g>
      <g id="Floor">
        <ellipse class="cls-14" cx="219" cy="289.12" rx="219" ry="126.44"/>
      </g>
      <path id="Shadow" class="cls-19" d="M307.04,373.17l85.83-49.61c1.43-.83,1.43-2.17,0-2.99l-159.39-92.35c-1.43-.83-3.75-.83-5.18,0l-85.83,49.61c-1.43,.83-1.43,2.17,0,2.99l159.39,92.36c1.43,.83,3.75,.83,5.18,0Z"/>
      <path id="Shadow-2" data-name="Shadow" class="cls-19" d="M105.67,341.06l72.31-41.79c1.21-.7,1.21-1.82,0-2.52l-80.75-46.83c-1.21-.7-3.16-.7-4.37,0l-72.31,41.79c-1.21,.7-1.21,1.82,0,2.52l80.75,46.83c1.21,.7,3.16,.7,4.37,0Z"/>
      <ellipse id="Shadow-3" data-name="Shadow" class="cls-19" cx="118.03" cy="339.07" rx="71.99" ry="41.56"/>
      <g id="Desk">
        <g>
          <g>
            <polygon class="cls-10" points="295.73 261.88 291.28 259.3 292.75 353.11 295.73 354.84 295.73 261.88"/>
            <polygon class="cls-44" points="295.73 261.88 300.18 259.3 298.71 353.11 295.73 354.84 295.73 261.88"/>
          </g>
          <g>
            <polygon class="cls-10" points="176.47 193.02 172.02 190.45 173.49 284.26 176.47 285.98 176.47 193.02"/>
            <polygon class="cls-44" points="176.47 193.02 180.92 190.45 179.45 284.26 176.47 285.98 176.47 193.02"/>
          </g>
        </g>
        <g>
          <g>
            <polygon class="cls-10" points="355.35 227.45 350.9 224.87 352.37 318.69 355.35 320.41 355.35 227.45"/>
            <polygon class="cls-44" points="355.35 227.45 359.8 224.87 358.33 318.69 355.35 320.41 355.35 227.45"/>
          </g>
          <g>
            <polygon class="cls-10" points="236.09 158.6 231.64 156.02 233.11 249.83 236.09 251.55 236.09 158.6"/>
            <polygon class="cls-44" points="236.09 158.6 240.54 156.02 239.07 249.83 236.09 251.55 236.09 158.6"/>
          </g>
        </g>
        <g id="Desk-2" data-name="Desk">
          <g>
            <path class="cls-8" d="M392.17,218.61v-3.83c0-.63-.44-1.39-.99-1.71L229.9,119.93c-.54-.31-1.43-.31-1.97,0l-85.02,49.19c-.54,.31-.99,1.08-.99,1.71v3.83c0,.63,.44,1.4,.99,1.71l161.29,93.14c.54,.31,1.43,.31,1.97,0l85.02-49.19c.54-.31,.99-1.08,.99-1.71Z"/>
            <path class="cls-39" d="M392.17,218.61v-3.83c0-.63-.44-1.39-.99-1.71L229.9,119.93c-.54-.31-1.43-.31-1.97,0l-85.02,49.19c-.54,.31-.99,1.08-.99,1.71v3.83c0,.63,.44,1.4,.99,1.71l161.29,93.14c.54,.31,1.43,.31,1.97,0l85.02-49.19c.54-.31,.99-1.08,.99-1.71Z"/>
          </g>
          <path class="cls-1" d="M305.18,263.64v6.11c.36,0,.71-.08,.99-.23l85.02-49.19c.55-.32,.99-1.08,.99-1.71v-3.84c0-.55-.34-1.22-.81-1.58,.36,.3,.3,.73-.18,1.01l-85.02,49.19c-.27,.16-.63,.24-.99,.24Z"/>
          <path class="cls-8" d="M391.18,214.21l-85.02,49.19c-.54,.31-1.43,.31-1.97,0l-161.29-93.14c-.54-.31-.54-.82,0-1.14l85.02-49.19c.55-.31,1.43-.31,1.97,0l161.29,93.14c.55,.31,.55,.82,0,1.14Z"/>
          <path class="cls-38" d="M391.18,214.21l-85.02,49.19c-.54,.31-1.43,.31-1.97,0l-161.29-93.14c-.54-.31-.54-.82,0-1.14l85.02-49.19c.55-.31,1.43-.31,1.97,0l161.29,93.14c.55,.31,.55,.82,0,1.14Z"/>
        </g>
      </g>
      <path id="Shadow-4" data-name="Shadow" class="cls-18" d="M261.46,188.23l-21.77,12.68c-.64,.37-1.68,.37-2.32,0l-61.24-35.31c-.64-.37-.64-.97,0-1.34l21.77-12.68c.64-.37,1.68-.37,2.32,0l61.24,35.31c.64,.37,.64,.97,0,1.34Z"/>
      <g>
        <path class="cls-44" d="M177.81,161.67c0-.24,.16-.48,.48-.67l19.38-11.19c.64-.37,1.67-.37,2.31,0l59.13,34.2c.32,.18,.48,.43,.48,.67,0,.24,0,1.79,0,2.03,0,.24-.16,.48-.48,.67l-19.37,11.19c-.64,.37-1.67,.37-2.31,0l-59.14-34.14c-.32-.18-.48-.42-.48-.66,0-.24,0-1.85,0-2.09Z"/>
        <path class="cls-10" d="M239.74,196.48l19.37-11.14c.64-.37,.64-.96,0-1.33l-59.13-34.2c-.64-.37-1.67-.37-2.31,0l-19.38,11.19c-.64,.37-.64,.97,0,1.33l59.14,34.14c.64,.37,1.67,.37,2.31,0Z"/>
        <path class="cls-44" d="M238.66,196.75v2.08c.39,0,.78-.1,1.09-.27l19.36-11.19c.32-.19,.48-.43,.48-.67v-2.04c0,.24-.16,.48-.48,.67l-19.36,11.14c-.3,.17-.69,.26-1.09,.27Z"/>
      </g>
      <path class="cls-2" d="M181.39,161.81s0-.02,.01-.02l1.92-1.11,2.6,1.5-1.93,1.14-2.6-1.5h0Zm3-1.75s0-.02,.01-.02l1.92-1.11,2.04,1.18-1.93,1.14-2.04-1.18h0Zm.63,3.82s0-.02,.01-.02l1.92-1.11,2.04,1.18-1.93,1.14-2.04-1.18h0Zm2.37-5.58s0-.02,.01-.03l1.92-1.11,3.3,1.91-1.93,1.15-3.3-1.91h0Zm.07,3.5s0-.02,.01-.02l1.92-1.11,1.62,.94-1.93,1.15-1.62-.94h0Zm.63,3.82s0-.02,.01-.02l1.92-1.11,2.04,1.18-1.93,1.14-2.04-1.18h0Zm2.02-2.31s.01-.02,.02-.03l1.92-1.11,1.62,.94-1.93,1.14-1.62-.94h0Zm.27-6.79s0-.02,.01-.03l1.92-1.11,2.6,1.5-1.93,1.14-2.6-1.5h0Zm.78,10.84s0-.02,.01-.02l1.92-1.11,14.77,8.53-1.93,1.14-14.76-8.52h0Zm.55-6.63s0-.02,.01-.03l1.92-1.11,1.62,.94-1.93,1.14-1.62-.94h0Zm1.05,4.06s0-.02,.01-.03l1.92-1.11,1.62,.94-1.93,1.14-1.62-.94h0Zm.62-10.06s0-.02,.01-.03l1.92-1.11,1.62,.94-1.93,1.15-1.62-.94h0Zm.63,3.82s0-.02,.01-.02l1.92-1.11,1.62,.94-1.93,1.14-1.62-.94h0Zm.35,3.66s0-.02,.01-.03l1.92-1.11,1.62,.94-1.93,1.15-1.62-.94h0Zm1.05,4.06s0-.02,.01-.03l1.92-1.11,1.62,.94-1.93,1.14-1.62-.94h0Zm.62-10.06s0-.02,.01-.03l1.92-1.11,1.62,.94-1.93,1.14-1.62-.94h0Zm.63,3.82s0-.02,.01-.02l1.92-1.11,1.62,.94-1.93,1.14-1.62-.94h0Zm.35,3.66s.01-.02,.02-.03l1.92-1.11,1.62,.94-1.93,1.15-1.62-.94h0Zm0-11.15s0-.02,.01-.03l1.92-1.11,2.04,1.18-1.93,1.14-2.04-1.18h0Zm1.05,15.2s0-.02,.01-.03l1.92-1.11,1.62,.94-1.93,1.14-1.62-.94h0Zm.62-10.06s0-.02,.01-.03l1.92-1.11,1.62,.94-1.93,1.14-1.62-.94h0Zm.63,3.82s0-.02,.01-.03l1.92-1.11,1.62,.94-1.93,1.14-1.62-.94h0Zm.35,3.66s0-.02,.01-.02l1.92-1.11,1.62,.94-1.93,1.14-1.62-.94h0Zm1.05,4.06s0-.02,.01-.03l1.92-1.11,1.62,.94-1.93,1.14-1.62-.94h0Zm.52-14.32s0-.02,.01-.02l1.92-1.11,1.62,.94-1.93,1.14-1.62-.94h0Zm.09,4.25s.01-.02,.02-.03l1.92-1.11,1.62,.94-1.93,1.15-1.62-.94h0Zm.63,3.82s0-.02,.01-.02l1.92-1.11,1.62,.94-1.93,1.14-1.62-.94h0Zm.35,3.66s.01-.02,.02-.03l1.92-1.11,1.62,.94-1.93,1.14-1.62-.94h0Zm1.05,4.06s.01-.02,.01-.02l1.92-1.11,1.62,.94-1.93,1.14-1.62-.94h0Zm.53-14.32s0-.02,.01-.03l1.92-1.11,1.62,.94-1.93,1.14-1.62-.94h0Zm.09,4.25s0-.02,.01-.02l1.92-1.11,1.62,.94-1.93,1.14-1.62-.94h0Zm.63,3.82s0-.02,.01-.03l1.92-1.11,1.62,.94-1.93,1.14-1.62-.94h0Zm.35,3.66s0-.02,.01-.02l1.92-1.11,1.62,.94-1.93,1.14-1.62-.94h0Zm1.05,4.06s0-.02,.01-.02l1.92-1.11,1.62,.94-1.93,1.14-1.62-.94h0Zm.52-14.32s0-.02,.01-.03l1.92-1.11,1.62,.94-1.93,1.14-1.62-.94h0Zm.09,4.25s0-.02,.01-.03l1.92-1.11,1.62,.94-1.93,1.14-1.62-.94h0Zm.29,14.02s0-.02,.01-.03l1.92-1.11,2.04,1.18-1.93,1.15-2.04-1.18h0Zm.34-10.22s0-.02,.01-.03l1.92-1.11,1.62,.94-1.93,1.14-1.62-.94h0Zm.35,3.66s0-.02,.01-.02l1.92-1.11,1.62,.94-1.93,1.14-1.62-.94h0Zm1.05,4.06s0-.02,.01-.03l1.92-1.11,1.62,.94-1.93,1.14-1.62-.94h0Zm.52-14.32s0-.02,.01-.02l1.92-1.11,1.62,.94-1.93,1.15-1.62-.94h0Zm.09,4.25s.01-.02,.02-.03l1.92-1.11,1.62,.94-1.93,1.14-1.62-.94h0Zm.63,3.82s0-.02,.01-.03l1.92-1.11,1.62,.94-1.93,1.14-1.62-.94h0Zm.08,10.43s.01-.02,.01-.03l1.92-1.11,2.04,1.18-1.93,1.15-2.04-1.18h0Zm.27-6.79s.01-.02,.02-.03l1.92-1.11,1.62,.94-1.93,1.14-1.62-.94h0Zm1.05,4.06s.01-.02,.01-.03l1.92-1.11,1.62,.94-1.93,1.14-1.62-.94h0Zm.62-10.06s0-.02,.01-.02l1.92-1.11,1.62,.94-1.93,1.15-1.62-.94h0Zm.63,3.82s0-.02,.01-.02l1.92-1.11,1.62,.94-1.93,1.14-1.62-.94h0Zm.35,3.66s0-.02,.01-.02l1.92-1.11,1.62,.94-1.93,1.14-1.62-.94h0Zm.08-11.11s0-.02,.01-.02l1.92-1.11,1.62,.94-1.93,1.14-1.62-.94h0Zm.07,18.1s0-.02,.01-.03l1.92-1.11,2.04,1.18-1.93,1.14-2.04-1.18h0Zm.9-2.96s0-.02,.01-.02l1.92-1.11,1.62,.94-1.93,1.14-1.62-.94h0Zm.62-10.06s.01-.02,.01-.03l1.92-1.11,1.62,.94-1.93,1.15-1.62-.94h0Zm.63,3.82s0-.02,.01-.02l1.92-1.11,1.62,.94-1.93,1.14-1.62-.94h0Zm.35,3.66s0-.02,.01-.02l1.92-1.11,1.62,.94-1.93,1.14-1.62-.94h0Zm.08-11.11s0-.02,.01-.02l1.92-1.11,1.62,.94-1.93,1.14-1.62-.94h0Zm.49,18.35s0-.02,.01-.02l1.92-1.11,2.6,1.5-1.93,1.14-2.6-1.5h0Zm.48-3.2s.01-.02,.02-.03l1.92-1.11,5.12,2.96-1.93,1.14-5.12-2.95h0Zm.62-10.06s0-.02,.01-.03l1.92-1.11,1.62,.94-1.93,1.14-1.62-.94h0Zm.63,3.82s0-.02,.01-.03l1.92-1.11,1.62,.94-1.93,1.14-1.62-.94h0Zm.35,3.66s0-.02,.01-.02l1.92-1.11,1.62,.94-1.93,1.14-1.62-.94h0Zm.08-11.11s0-.02,.01-.03l1.92-1.11,1.62,.94-1.93,1.14-1.62-.94h0Zm1.59,5.11s0-.02,.01-.03l1.92-1.11,1.62,.94-1.93,1.14-1.62-.94h0Zm.43,14.1s0-.02,.01-.02l1.92-1.11,1.62,.94-1.93,1.14-1.62-.94h0Zm.2-10.3s0-.02,.01-.03l1.92-1.11,1.62,.94-1.93,1.14-1.62-.94h0Zm.35,3.66s0-.02,.01-.02l1.92-1.11,1.48,.86c.1,.06,.28,.1,.47,.1s.38-.04,.49-.1l2.52-1.45,1.9,1.1-4.93,2.88-3.86-2.23h0Zm.08-11.11s0-.02,.01-.02l1.92-1.11,1.62,.94-1.93,1.14-1.62-.94h0Zm1.59,5.11s0-.02,.01-.02l1.92-1.11,1.62,.94-1.93,1.14-1.62-.94h0Zm.43,14.1s0-.02,.01-.03l1.92-1.11,1.62,.94-1.93,1.14-1.62-.94h0Zm.2-10.3s0-.02,.01-.03l1.92-1.11,1.62,.94-1.93,1.14-1.62-.94h0Zm1.58-6.77s0-.02,.01-.03l1.92-1.11,1.62,.94-1.93,1.14-1.62-.94h0Zm.44,4.45s0-.02,.01-.03l1.92-1.11,1.62,.94-1.93,1.14-1.62-.94h0Zm.43,14.1s0-.02,.02-.03l1.92-1.11,1.62,.94-1.93,1.14-1.62-.94h0Zm.35-3.28s0-.02,.01-.03l1.92-1.11,1.62,.94-1.93,1.14-1.62-.94h0Zm1.44-13.79s0-.02,.01-.03l1.92-1.11,1.62,.94-1.93,1.14-1.62-.94h0Zm.44,4.45s0-.02,.01-.03l1.92-1.11,2.88,1.66-1.93,1.14-2.88-1.66h0Zm.99,14.43s0-.02,.01-.02l1.92-1.11,4.28,2.47-1.93,1.14-4.28-2.47h0Zm.48-10.14s0-.02,.01-.03l1.92-1.11,1.62,.94-1.93,1.14-1.62-.94h0Zm.75-7.26s0-.02,.01-.03l1.92-1.11,1.62,.94-1.93,1.14-1.62-.94h0Zm1.78,15.62s0-.02,.01-.03l1.92-1.11,1.62,.94-1.93,1.14-1.62-.94h0Zm.13-6.87s0-.02,.01-.03l1.92-1.11,1.62,.94-1.93,1.15-1.62-.94h0Zm.35-3.28s0-.02,.01-.03l1.92-1.11,1.62,.94-1.93,1.14-1.62-.94h0Zm.4-3.99s0-.02,.01-.03l1.92-1.11,1.62,.94-1.93,1.14-1.62-.94h0Zm1.43,18.89s0-.02,.01-.03l1.92-1.11,1.62,.94-1.93,1.15-1.62-.94h0Zm.35-3.28s0-.02,.01-.03l1.92-1.11,1.62,.94-1.93,1.14-1.62-.94h0Zm.13-6.87s0-.02,.01-.03l1.92-1.11,1.62,.94-1.93,1.14-1.62-.94h0Zm.21,3.58s0-.02,.01-.03l1.92-1.11,1.62,.94-1.93,1.14-1.62-.94h0Zm.13-6.87s0-.02,.01-.03l1.92-1.11,1.62,.94-1.93,1.14-1.62-.94h0Zm.99-3.65s0-.02,.01-.03l1.92-1.11,1.62,.94-1.93,1.14-1.62-.94h0Zm.84,18.55s0-.02,.01-.03l4.92-2.84,1.62,.94-4.93,2.88-1.62-.94h0Zm.35-3.28s0-.02,.01-.03l1.92-1.11,1.62,.94-1.93,1.15-1.62-.94h0Zm.35-3.28s0-.02,.01-.03l1.92-1.11,1.62,.94-1.93,1.14-1.62-.94h0Zm.13-6.87s0-.02,.01-.03l1.92-1.11,1.62,.94-1.93,1.14-1.62-.94h0Zm.21,3.58s0-.02,.01-.02l1.92-1.11,1.62,.94-1.93,1.14-1.62-.94h0Zm.77-7.24s0-.02,.01-.02l1.92-1.11,1.62,.94-1.93,1.14-1.62-.94h0Zm1.54,12.01s0-.02,.01-.03l1.92-1.11,1.62,.94-1.93,1.15-1.62-.94h0Zm.34-3.28s0-.02,.01-.02l1.92-1.11,1.62,.94-1.93,1.15-1.62-.94h0Zm.35-3.28s0-.02,.01-.02l1.92-1.11,1.62,.94-1.93,1.14-1.62-.94h0Zm.43-3.97s0-.02,.01-.03l1.92-1.11,1.62,.94-1.93,1.14-1.62-.94h0Zm1.54,12.02s0-.02,.01-.03l4.92-2.84,1.62,.94-4.93,2.88-1.62-.94h0Zm.34-3.28s0-.02,.01-.02l1.92-1.11,1.62,.94-1.93,1.14-1.62-.94h0Zm.35-3.28s0-.02,.01-.02l1.92-1.11,1.62,.94-1.93,1.14-1.62-.94h0Zm1.76-4.1s0-.02,.01-.03l.81-.48,1.62,.94-.83,.51-1.62-.93h0Zm.9,5.6s0-.02,.01-.02l1.92-1.11,1.62,.94-1.93,1.14-1.62-.94h0Zm1.76-4.1s0-.02,.01-.03l.81-.48,1.62,.94-.83,.51-1.61-.93h0Zm.9,5.6s0-.02,.01-.02l1.92-1.11,1.62,.94-1.93,1.14-1.62-.94h0Zm1.76-4.1s0-.02,.01-.03l.81-.48,1.62,.94-.83,.51-1.62-.93h0Zm2.66,1.52s.01-.02,.02-.03l.81-.48,1.62,.94-.83,.51-1.62-.93h0Z"/>
      <g id="Device">
        <path id="Shadow-5" data-name="Shadow" class="cls-18" d="M308.41,188.08l10.61-6.12c1.59-.92,1.59-2.41,0-3.33l-76.12-43.95c-1.59-.92-4.18-.92-5.77,0l-10.61,6.12c-1.59,.92-1.59,2.41,0,3.33l76.12,43.95c1.59,.92,4.18,.92,5.77,0Z"/>
        <g id="Monitor">
          <g>
            <path class="cls-10" d="M259.15,174.35l-11.69-6.76c-1.21-.7-1.81-1.61-1.81-2.52,0-.91,0-1.63,0-1.63l11-6.25c.64-.37,1.16-1.27,1.16-2.02v-14.42l20.42,11.8v14.42c0,.74-.52,1.64-1.16,2.02l-9.19,5.35c-2.41,1.39-6.32,1.39-8.73,0Z"/>
            <path class="cls-44" d="M273.33,169.53v1.62l3.74-2.16c.64-.37,1.16-1.27,1.16-2.02v-14.42l-3.89-2.24c-.08,.99-.17,2.01-.25,3l2.73,1.58v11.26c0,.75-.52,1.65-1.16,2.02l-2.33,1.35Z"/>
            <path class="cls-7" d="M276.83,166.17c0,.74-.52,1.65-1.16,2.02l-7.78,4.54c-2.41,1.39-6.32,1.39-8.73,0l-11.7-6.76c-2.41-1.39-2.41-3.65,0-5.04l7.79-4.54c.64-.37,1.16-1.27,1.16-2.02v-11.26l20.42,11.8v11.27Z"/>
            <path class="cls-10" d="M252.87,157.75h0s2.37-1.37,2.37-1.37c.64-.37,1.16-1.27,1.16-2.02v-11.26l20.42,11.8v11.27c0,.74-.52,1.65-1.16,2.02l-2.33,1.35-20.47-11.78Z"/>
          </g>
          <path class="cls-10" d="M309.62,181.72c-.75,.44-2.02,.41-2.82-.05-10.04-5.8-68.95-39.81-78.99-45.6-.8-.46-1.45-1.59-1.45-2.52v-60.94c0-.93,.61-2.03,1.36-2.47,.75-.44,2.02-.41,2.82,.05l78.99,45.6c.8,.46,1.46,1.59,1.46,2.52v60.94c0,.93-.61,2.03-1.36,2.47Z"/>
          <path class="cls-7" d="M306.8,181.67l-78.99-45.6c-.8-.46-1.46-1.59-1.46-2.52v-60.94c0-.93,.65-1.3,1.46-.84l78.99,45.6c.8,.46,1.46,1.59,1.46,2.52v60.94c0,.93-.65,1.3-1.45,.84Z"/>
          <path class="cls-23" d="M305.53,172.31v-51.51c0-.56-.39-1.23-.87-1.51l-74.69-43.12c-.48-.28-.87-.05-.87,.5v51.51c0,.56,.39,1.23,.87,1.51l74.69,43.12c.48,.28,.87,.05,.87-.5Z"/>
          <path class="cls-2" d="M265.68,152.54c.75,.44,1.37,1.49,1.37,2.36s-.61,1.22-1.37,.79-1.37-1.49-1.37-2.36c0-.87,.61-1.22,1.37-.79Z"/>
          <path class="cls-44" d="M310.56,116.88l-2.73,1.57c.26,.46,.42,.97,.43,1.44v61.12c0,.85-.54,1.23-1.24,.95,.81,.36,1.92,.34,2.61-.05,.75-.44,1.36-1.54,1.36-2.47v-61.11c0-.46-.17-.98-.43-1.44Z"/>
        </g>
      </g>
      <g id="Mouse">
        <path class="cls-18" d="M253.09,208.51l7.45,4.3c2.35,1.36,6.03,1.16,8.22-.43l12.29-8.97c2.19-1.6,2.07-3.99-.28-5.35l-3.74-2.17c-2.35-1.36-6.21-1.48-8.64-.26l-15.17,8.23c-2.42,1.22-2.49,3.3-.14,4.66Z"/>
        <path class="cls-10" d="M281.26,199.51l-8.5,6.65-6.28,4.91c-.61,.28-1.31,.44-2,.48-1.06,.06-2.14-.15-2.98-.63l-6.67-3.85s0,0,0,0c-.01,0-.03-.01-.04-.02-2.34-1.36-2.89-4.52-1.35-6.75,.06-.09,.13-.18,.2-.27,1.27-1.71,3.15-2.95,5.36-3.4l3.38-.68c5.47-1.11,9.96-1.65,10.48-1.3l8.36,4.84s.04,0,.05,.02Z"/>
        <path class="cls-2" d="M276.5,203.22l.48-.37-7.5-4.33,6.56-2.03c-.23-.13-.45-.26-.66-.38l-6.56,2.03-4.47-2.58c-.28,.05-.56,.11-.85,.16l13,7.51Z"/>
        <path class="cls-44" d="M267.21,210.66s.03-.02,.04-.03c0,0,0,0,0,0l5.97-4.31,8.06-5.82v-.91s0-.05-.04-.07c0,0-.03-.02-.05-.02-.6-.21-4.09,.84-8.32,2.52l-2.8,1.11c-.87,.34-1.68,.82-2.39,1.41-2.01,1.66-3.23,4.16-3.23,6.86v.15c.7-.04,1.39-.2,2-.48l.74-.4Z"/>
      </g>
      <g id="Shadow-6" data-name="Shadow">
        <path class="cls-18" d="M293.67,215.39l33.87-19.32c.71-.41,1.87-.4,2.59,0l34.11,19.69c.71,.41,.71,1.08,0,1.49l-33.73,19.5c-.71,.41-1.87,.41-2.58,0l-34.26-19.89c-.71-.41-.71-1.08,0-1.49Z"/>
      </g>
      <g>
        <polygon class="cls-7" points="294.37 208.85 327.74 189.59 339.75 196.53 306.38 215.79 294.37 208.85"/>
        <g>
          <path class="cls-44" d="M304.46,213.2l-6.4-3.69c-.48-.28-.48-.72,0-1l6.44-3.72c.48-.28,1.25-.27,1.73,0l6.36,3.71c.48,.28,.48,.73,0,1.01l-6.4,3.69c-.48,.28-1.25,.28-1.73,0Z"/>
          <path class="cls-10" d="M304.51,206.05l-6.22,3.59,6.18,3.57c.48,.28,1.25,.28,1.73,0l6.18-3.57-6.14-3.59c-.48-.28-1.25-.28-1.73,0Z"/>
        </g>
        <g>
          <path class="cls-44" d="M327.23,200.06l-6.4-3.69c-.48-.28-.48-.72,0-1l6.44-3.72c.48-.28,1.25-.27,1.73,0l6.36,3.71c.48,.28,.48,.73,0,1.01l-6.4,3.69c-.48,.28-1.25,.28-1.73,0Z"/>
          <path class="cls-10" d="M328.97,200.06l6.18-3.57-6.14-3.58c-.48-.28-1.25-.28-1.73,0l-6.22,3.59,6.18,3.57c.48,.28,1.26,.28,1.73,0Z"/>
        </g>
      </g>
      <g id="Phone">
        <g>
          <path class="cls-44" d="M330.33,197.3l-2.03,2.96c-.1,0-.22,0-.33,0-.27,0-.54-.08-.74-.2l-2.05-1.18-2.5-1.44-.73-.42,1.76-3.32,.09-.16,.1,.06,2.73,1.57,3.7,2.13Z"/>
          <path class="cls-7" d="M335.2,194.09c0-.07-.03-.14-.06-.2,0-.06-.03-.11-.06-.16-.07-.14-.16-.26-.26-.37-.04-.04-.09-.09-.14-.13-.12-.1-.25-.2-.39-.28-.08-.05-.16-.09-.25-.14l-5.82-3.37c-.06-.03-.12-.07-.18-.1l-.05-.03h0c-.11-.06-.22-.11-.34-.16-.73-.31-2.58-.16-4.99,1.21-2.4,1.37-17.03,9.84-17.03,9.84-2.15,1.23-4.2,3.17-5.28,4.64-1.09,1.47-1.16,2.72-1.16,2.72v2.6l5.28,3.05c.24,.14,.54,.21,.86,.21,.3,0,.61-.06,.85-.19,0,0,.02,0,.03-.02l6.27-3.62,.25-.99,.24-.99c.28-1.1,1.54-2.59,2.82-3.32l8.89-5.14c.17-.1,.35-.19,.52-.26,1.09-.46,2.09-.35,2.36,.3,.17,.44,.33,.83,.43,1.08,.11,0,.22,0,.33,0,.23-.03,.46-.09,.64-.18,0,0,.02,0,.03-.02l6.27-3.62v-2.05c0-.11,0-.22-.03-.31Z"/>
          <path class="cls-10" d="M335.24,194.4v2.05l-6.27,3.62s-.02,0-.03,.02c-.18,.1-.41,.16-.64,.18-.1,0-.22,0-.33,0-.1-.25-.26-.64-.43-1.08-.27-.66-1.27-.76-2.36-.3-.17,.07-.35,.16-.52,.26l-8.89,5.14c-1.28,.73-2.54,2.23-2.82,3.32l-.24,.99-.25,.99-6.27,3.62s-.02,0-.03,.02c-.23,.13-.54,.19-.85,.19v-2.31s.07-1.25,1.16-2.71c.51-.68,1.23-1.48,2.06-2.25,.96-.88,2.07-1.74,3.22-2.39,0,0,5.98-3.46,10.92-6.31,1.47-.85,2.83-1.64,3.94-2.27,.99-.58,1.76-1.02,2.18-1.25,.85-.48,1.63-.82,2.32-1.03,1.25-.39,2.19-.38,2.66-.18,.09,.03,.17,.08,.26,.11,.09,.04,.17,.09,.25,.14,.14,.08,.27,.17,.39,.28,.05,.04,.09,.09,.14,.13,.1,.11,.19,.23,.26,.37,.03,.04,.05,.09,.06,.16,.03,.06,.05,.13,.06,.2,.03,.09,.03,.2,.03,.31Z"/>
        </g>
      </g>
      <g>
        <path class="cls-44" d="M295.7,212.71v2.21c0,.54,.29,1.04,.76,1.31l31.84,18.39c.47,.27,1.05,.27,1.51,0l30.52-17.62c.47-.27,.76-.77,.76-1.31v-2.21l-31.28,18.06c-.47,.27-1.05,.27-1.51,0l-32.6-18.83Z"/>
        <polygon class="cls-7" points="362.42 203.47 362.42 209.63 329.06 228.9 306.36 215.8 306.36 215.8 327.72 203.47 339.73 190.37 362.42 203.47"/>
        <path class="cls-10" d="M350.41,216.57l-21.36,12.33-34.68-20.04v2.21c0,.54,.29,1.04,.76,1.31l33.17,19.17c.47,.27,1.05,.27,1.51,0l31.85-18.39c.47-.27,.76-.77,.76-1.31v-8.37s-12.01,13.1-12.01,13.1Z"/>
        <path class="cls-44" d="M328.91,228.82l-34.54-19.96v2.21c0,.54,.29,1.04,.76,1.31l33.17,19.17c.19,.11,.4,.17,.62,.19v-2.92Z"/>
        <path d="M328.3,231.54l-32.6-18.83v2.21c0,.54,.29,1.04,.76,1.31l31.84,18.39c.19,.11,.4,.17,.62,.19v-3.08c-.21-.02-.42-.08-.62-.19Z"/>
        <g>
          <polygon class="cls-4" points="362.42 203.47 339.75 191.29 327.72 203.47 339.73 190.37 362.42 203.47"/>
          <polygon class="cls-4" points="350.41 216.57 332.71 206.35 350.87 216.07 350.41 216.57"/>
          <polygon class="cls-44" points="327.72 203.47 306.38 215.79 305.95 215.55 327.72 203.47"/>
        </g>
      </g>
      <g>
        <g>
          <polygon class="cls-2" points="353.31 207.6 337.04 198.21 340.98 193.91 340.98 193.91 357.2 203.27 353.31 207.6"/>
          <polygon class="cls-5" points="356.83 203.68 357.2 203.27 340.98 193.91 337.04 198.21 337.53 198.5 341.1 194.6 356.83 203.68"/>
          <polygon class="cls-5" points="341.1 194.6 340.98 193.91 337.04 198.21 337.53 198.5 341.1 194.6"/>
        </g>
        <g>
          <g>
            <path class="cls-2" d="M338.9,207.27l-5.59-3.25,.95-1.03,5.57,3.24c.19,.11,.23,.33,.08,.5l-.4,.45c-.15,.17-.42,.21-.61,.1Z"/>
            <g>
              <path class="cls-2" d="M334.65,202.79c-.01-.05-.05-.1-.1-.13l-.96-.55c-.12-.07-.3-.04-.39,.06l-.83,.91c-.05,.05-.07,.12-.05,.18,.01,.05,.07,.31,.08,.37,.01,.05,.05,.1,.1,.13l.96,.55c.12,.07,.3,.04,.39-.06l.83-.91c.05-.06,.07-.12,.05-.18-.01-.05-.07-.31-.08-.37Z"/>
              <path class="cls-5" d="M333.69,204.33c.06-.01,.11-.04,.15-.09l.83-.91c.05-.06,.07-.12,.05-.18-.01-.05-.07-.31-.08-.37-.01-.05-.05-.1-.1-.13l-.96-.55c-.06-.04-.14-.04-.21-.03l.32,2.25Z"/>
              <path class="cls-3" d="M333.37,202.08c-.07,.01-.13,.04-.18,.09l-.83,.91c-.05,.05-.07,.12-.05,.18,.01,.05,.07,.31,.08,.37,.01,.05,.05,.1,.1,.13l.96,.55c.07,.04,.16,.04,.24,.02l-.32-2.25Z"/>
              <path class="cls-2" d="M333.76,203.88l.83-.91c.09-.1,.07-.24-.05-.31l-.96-.55c-.12-.07-.3-.04-.39,.06l-.83,.91c-.09,.1-.07,.24,.05,.31l.96,.55c.12,.07,.3,.04,.39-.06Z"/>
            </g>
          </g>
          <g>
            <path class="cls-2" d="M341.11,204.85l-5.59-3.25,.95-1.03,5.57,3.24c.19,.11,.23,.33,.08,.5l-.4,.45c-.15,.16-.42,.21-.61,.1Z"/>
            <g>
              <path class="cls-2" d="M336.87,200.37c-.01-.05-.05-.1-.1-.13l-.96-.55c-.12-.07-.3-.04-.39,.06l-.83,.91c-.05,.05-.07,.12-.05,.18,.01,.05,.07,.31,.08,.37,.01,.05,.05,.1,.1,.13l.96,.55c.12,.07,.3,.04,.39-.06l.83-.91c.05-.06,.07-.12,.05-.18-.01-.05-.07-.31-.08-.37Z"/>
              <path class="cls-5" d="M335.91,201.91c.06-.01,.11-.04,.15-.09l.83-.91c.05-.06,.07-.12,.05-.18-.01-.05-.07-.31-.08-.37-.01-.05-.05-.1-.1-.13l-.96-.55c-.06-.04-.14-.04-.21-.03l.32,2.25Z"/>
              <path class="cls-3" d="M335.59,199.66c-.07,.01-.13,.04-.18,.09l-.83,.91c-.05,.05-.07,.12-.05,.18,.01,.05,.07,.31,.08,.37,.01,.05,.05,.1,.1,.13l.96,.55c.07,.04,.16,.04,.24,.02l-.32-2.25Z"/>
              <path class="cls-2" d="M335.98,201.46l.83-.91c.09-.1,.07-.24-.05-.31l-.96-.55c-.12-.07-.3-.04-.39,.06l-.83,.91c-.09,.1-.07,.24,.05,.31l.96,.55c.12,.07,.3,.04,.39-.06Z"/>
            </g>
          </g>
          <g>
            <path class="cls-2" d="M348.2,212.63l-5.59-3.25,.95-1.03,5.57,3.24c.19,.11,.23,.33,.08,.5l-.4,.45c-.15,.16-.42,.21-.61,.1Z"/>
            <g>
              <path class="cls-2" d="M343.95,208.15c-.01-.05-.05-.1-.1-.13l-.96-.55c-.12-.07-.3-.04-.39,.06l-.83,.91c-.05,.05-.07,.12-.05,.18,.01,.05,.07,.31,.08,.37,.01,.05,.05,.1,.1,.13l.96,.55c.12,.07,.3,.04,.39-.06l.83-.91c.05-.06,.07-.12,.05-.18-.01-.05-.07-.31-.08-.37Z"/>
              <path class="cls-5" d="M343,209.7c.06-.01,.11-.04,.15-.09l.83-.91c.05-.06,.07-.12,.05-.18-.01-.05-.07-.31-.08-.37-.01-.05-.05-.1-.1-.13l-.96-.55c-.06-.04-.14-.04-.21-.03l.32,2.25Z"/>
              <path class="cls-3" d="M342.68,207.45c-.07,.01-.13,.04-.18,.09l-.83,.91c-.05,.05-.07,.12-.05,.18,.01,.05,.07,.31,.08,.37,.01,.05,.05,.1,.1,.13l.96,.55c.07,.04,.16,.04,.24,.02l-.32-2.25Z"/>
              <path class="cls-2" d="M343.07,209.24l.83-.91c.09-.1,.07-.24-.05-.31l-.96-.55c-.12-.07-.3-.04-.39,.06l-.83,.91c-.09,.1-.07,.24,.05,.31l.96,.55c.12,.07,.3,.04,.39-.06Z"/>
            </g>
          </g>
          <g>
            <path class="cls-2" d="M350.41,210.22l-5.59-3.25,.95-1.03,5.57,3.24c.19,.11,.23,.33,.08,.5l-.4,.45c-.15,.16-.42,.21-.61,.1Z"/>
            <g>
              <path class="cls-2" d="M346.17,205.74c-.01-.05-.05-.1-.1-.13l-.96-.55c-.12-.07-.3-.04-.39,.06l-.83,.91c-.05,.05-.07,.12-.05,.18,.01,.05,.07,.31,.08,.37,.01,.05,.05,.1,.1,.13l.96,.55c.12,.07,.3,.04,.39-.06l.83-.91c.05-.06,.07-.12,.05-.18-.01-.05-.07-.31-.08-.37Z"/>
              <path class="cls-5" d="M345.21,207.28c.06-.01,.11-.04,.15-.09l.83-.91c.05-.06,.07-.12,.05-.18-.01-.05-.07-.31-.08-.37-.01-.05-.05-.1-.1-.13l-.96-.55c-.06-.04-.14-.04-.21-.03l.32,2.25Z"/>
              <path class="cls-3" d="M344.89,205.03c-.07,.01-.13,.04-.18,.09l-.83,.91c-.05,.05-.07,.12-.05,.18,.01,.05,.07,.31,.08,.37,.01,.05,.05,.1,.1,.13l.96,.55c.07,.04,.16,.04,.24,.02l-.32-2.25Z"/>
              <path class="cls-2" d="M345.28,206.82l.83-.91c.09-.1,.07-.24-.05-.31l-.96-.55c-.12-.07-.3-.04-.39,.06l-.83,.91c-.09,.1-.07,.24,.05,.31l.96,.55c.12,.07,.3,.04,.39-.06Z"/>
            </g>
          </g>
        </g>
        <g>
          <g>
            <path class="cls-2" d="M328.11,206.01l-1.98,1.14c-.46,.26-.46,.69,0,.96l.88,.51c.46,.26,1.2,.26,1.66,0l1.99-1.14c.46-.26,.46-.69,0-.96l-.88-.51c-.46-.26-1.2-.26-1.66,0Z"/>
            <path class="cls-2" d="M330.85,207.33c-.05,.05-.11,.11-.19,.15l-1.98,1.14c-.46,.26-1.2,.26-1.66,0l-.88-.51c-.08-.04-.14-.1-.19-.14-.1-.1-.14-.21-.15-.31v.64c0,.17,.11,.35,.35,.48l.88,.5c.46,.27,1.2,.27,1.66,0l1.98-1.15c.23-.13,.35-.31,.35-.48v-.66c0,.12-.05,.23-.15,.33Z"/>
          </g>
          <g>
            <path class="cls-2" d="M333.76,209.26l-1.98,1.14c-.46,.26-.46,.69,0,.96l.88,.51c.46,.26,1.2,.27,1.66,0l1.99-1.14c.46-.26,.46-.69,0-.96l-.88-.51c-.46-.26-1.2-.26-1.66,0Z"/>
            <path class="cls-2" d="M336.5,210.58c-.05,.05-.11,.11-.19,.15l-1.98,1.14c-.46,.26-1.2,.26-1.66,0l-.88-.51c-.08-.04-.14-.1-.19-.14-.1-.1-.14-.21-.15-.31v.64c0,.17,.11,.35,.35,.48l.88,.5c.46,.27,1.2,.27,1.66,0l1.98-1.15c.23-.13,.35-.31,.35-.48v-.66c0,.11-.05,.23-.15,.33Z"/>
          </g>
          <g>
            <path class="cls-2" d="M338.16,211.81l-1.98,1.14c-.46,.26-.46,.69,0,.96l.88,.51c.46,.26,1.2,.27,1.66,0l1.99-1.14c.46-.26,.46-.69,0-.96l-.88-.51c-.46-.26-1.2-.26-1.66,0Z"/>
            <path class="cls-2" d="M340.9,213.13c-.05,.05-.12,.11-.19,.15l-1.98,1.14c-.46,.26-1.2,.26-1.66,0l-.88-.51c-.08-.04-.14-.1-.19-.14-.1-.1-.14-.21-.15-.31v.64c0,.17,.11,.35,.35,.48l.88,.5c.46,.27,1.2,.27,1.66,0l1.98-1.15c.23-.13,.35-.31,.35-.48v-.66c0,.11-.05,.23-.15,.33Z"/>
          </g>
          <g>
            <path class="cls-2" d="M342.51,214.35l-1.98,1.14c-.46,.26-.46,.69,0,.96l.88,.51c.46,.26,1.2,.27,1.66,0l1.99-1.14c.46-.26,.46-.69,0-.96l-.88-.51c-.46-.26-1.2-.26-1.66,0Z"/>
            <path class="cls-2" d="M345.24,215.67c-.05,.05-.12,.11-.19,.15l-1.98,1.14c-.46,.26-1.2,.26-1.66,0l-.88-.51c-.08-.04-.14-.1-.19-.14-.1-.1-.14-.21-.15-.31v.64c0,.17,.12,.35,.35,.48l.88,.5c.46,.27,1.2,.27,1.66,0l1.98-1.15c.23-.13,.35-.31,.35-.48v-.66c0,.12-.05,.23-.15,.33Z"/>
          </g>
          <g>
            <path class="cls-2" d="M323.42,208.72l-1.98,1.14c-.46,.26-.46,.69,0,.96l.88,.51c.46,.26,1.2,.27,1.66,0l1.99-1.14c.46-.26,.46-.69,0-.96l-.88-.51c-.46-.26-1.2-.26-1.66,0Z"/>
            <path class="cls-2" d="M326.16,210.04c-.05,.05-.12,.11-.19,.15l-1.98,1.14c-.46,.26-1.2,.26-1.66,0l-.88-.51c-.08-.04-.14-.1-.19-.14-.1-.1-.14-.21-.15-.31v.64c0,.17,.12,.35,.35,.48l.88,.5c.46,.27,1.2,.27,1.66,0l1.98-1.15c.23-.13,.35-.31,.35-.48v-.66c0,.12-.05,.23-.15,.33Z"/>
          </g>
          <g>
            <path class="cls-2" d="M329.07,211.97l-1.98,1.14c-.46,.26-.46,.69,0,.96l.88,.51c.46,.26,1.2,.27,1.66,0l1.99-1.14c.46-.26,.46-.69,0-.96l-.88-.51c-.46-.26-1.2-.26-1.66,0Z"/>
            <path class="cls-2" d="M331.8,213.29c-.05,.05-.12,.11-.19,.15l-1.98,1.14c-.46,.26-1.2,.26-1.66,0l-.88-.51c-.08-.04-.14-.1-.19-.14-.1-.1-.14-.21-.15-.31v.64c0,.17,.12,.35,.35,.48l.88,.5c.46,.27,1.2,.27,1.66,0l1.98-1.15c.23-.13,.35-.31,.35-.48v-.66c0,.12-.05,.23-.15,.33Z"/>
          </g>
          <g>
            <path class="cls-2" d="M333.47,214.52l-1.98,1.14c-.46,.26-.46,.69,0,.96l.88,.51c.46,.26,1.2,.27,1.66,0l1.99-1.14c.46-.26,.46-.69,0-.96l-.88-.51c-.46-.26-1.2-.26-1.66,0Z"/>
            <path class="cls-2" d="M336.21,215.84c-.05,.05-.11,.11-.19,.15l-1.98,1.14c-.46,.26-1.2,.26-1.66,0l-.88-.51c-.08-.04-.14-.1-.19-.14-.1-.1-.14-.21-.15-.31v.64c0,.17,.12,.35,.35,.48l.88,.5c.46,.27,1.2,.27,1.66,0l1.98-1.15c.23-.13,.35-.31,.35-.48v-.66c0,.12-.05,.23-.15,.33Z"/>
          </g>
          <g>
            <path class="cls-2" d="M337.82,217.06l-1.98,1.14c-.46,.26-.46,.69,0,.96l.88,.51c.46,.26,1.2,.27,1.66,0l1.99-1.14c.46-.26,.46-.69,0-.96l-.88-.51c-.46-.26-1.2-.26-1.66,0Z"/>
            <path class="cls-2" d="M340.55,218.38c-.05,.05-.12,.11-.19,.15l-1.98,1.14c-.46,.26-1.2,.26-1.66,0l-.88-.51c-.08-.04-.14-.1-.19-.14-.1-.1-.14-.21-.15-.31v.64c0,.17,.12,.35,.35,.48l.88,.5c.46,.27,1.2,.27,1.66,0l1.98-1.15c.23-.13,.35-.31,.35-.48v-.66c0,.11-.05,.23-.15,.33Z"/>
          </g>
          <g>
            <path class="cls-2" d="M318.73,211.43l-1.98,1.14c-.46,.26-.46,.69,0,.96l.88,.51c.46,.26,1.2,.27,1.66,0l1.99-1.14c.46-.26,.46-.69,0-.96l-.88-.51c-.46-.26-1.2-.26-1.66,0Z"/>
            <path class="cls-2" d="M321.46,212.75c-.05,.05-.11,.11-.19,.15l-1.98,1.14c-.46,.26-1.2,.26-1.66,0l-.88-.51c-.08-.04-.14-.1-.19-.14-.1-.1-.14-.21-.15-.31v.64c0,.17,.11,.35,.35,.48l.88,.5c.46,.27,1.2,.27,1.66,0l1.98-1.15c.23-.13,.35-.31,.35-.48v-.66c0,.11-.05,.23-.15,.33Z"/>
          </g>
          <g>
            <path class="cls-2" d="M324.38,214.68l-1.98,1.14c-.46,.26-.46,.69,0,.96l.88,.51c.46,.26,1.2,.27,1.66,0l1.99-1.14c.46-.26,.46-.69,0-.96l-.88-.51c-.46-.26-1.2-.26-1.66,0Z"/>
            <path class="cls-2" d="M327.11,216c-.05,.05-.11,.11-.19,.15l-1.98,1.14c-.46,.26-1.2,.26-1.66,0l-.88-.51c-.08-.04-.14-.1-.19-.14-.1-.1-.14-.21-.15-.31v.64c0,.17,.12,.35,.35,.48l.88,.5c.46,.27,1.2,.27,1.66,0l1.98-1.15c.23-.13,.35-.31,.35-.48v-.66c0,.12-.05,.23-.15,.33Z"/>
          </g>
          <g>
            <path class="cls-2" d="M328.78,217.23l-1.98,1.14c-.46,.26-.46,.69,0,.96l.88,.51c.46,.26,1.2,.27,1.66,0l1.99-1.14c.46-.26,.46-.69,0-.96l-.88-.51c-.46-.26-1.2-.26-1.66,0Z"/>
            <path class="cls-2" d="M331.51,218.55c-.05,.05-.12,.11-.19,.15l-1.98,1.14c-.46,.26-1.2,.26-1.66,0l-.88-.51c-.08-.04-.14-.1-.19-.14-.1-.1-.14-.21-.15-.31v.64c0,.17,.11,.35,.35,.48l.88,.5c.46,.27,1.2,.27,1.66,0l1.98-1.15c.23-.13,.35-.31,.35-.48v-.66c0,.12-.05,.23-.15,.33Z"/>
          </g>
          <g>
            <path class="cls-2" d="M333.13,219.77l-1.98,1.14c-.46,.26-.46,.69,0,.96l.88,.51c.46,.26,1.2,.27,1.66,0l1.99-1.14c.46-.26,.46-.69,0-.96l-.88-.51c-.46-.26-1.2-.26-1.66,0Z"/>
            <path class="cls-2" d="M335.86,221.09c-.05,.05-.12,.11-.19,.15l-1.98,1.14c-.46,.26-1.2,.26-1.66,0l-.88-.51c-.08-.04-.14-.1-.19-.14-.1-.1-.14-.21-.15-.31v.64c0,.17,.12,.35,.35,.48l.88,.5c.46,.27,1.2,.27,1.66,0l1.98-1.15c.23-.13,.35-.31,.35-.48v-.66c0,.12-.05,.23-.15,.33Z"/>
          </g>
          <g>
            <path class="cls-2" d="M314.04,214.14l-1.98,1.14c-.46,.26-.46,.69,0,.96l.88,.51c.46,.26,1.2,.27,1.66,0l1.99-1.14c.46-.26,.46-.69,0-.96l-.88-.51c-.46-.26-1.2-.26-1.66,0Z"/>
            <path class="cls-2" d="M316.77,215.45c-.05,.05-.12,.11-.19,.15l-1.98,1.14c-.46,.26-1.2,.26-1.66,0l-.88-.51c-.08-.04-.14-.1-.19-.14-.1-.1-.14-.21-.15-.31v.64c0,.17,.12,.35,.35,.48l.88,.5c.46,.27,1.2,.27,1.66,0l1.98-1.15c.23-.13,.35-.31,.35-.48v-.66c0,.12-.05,.23-.15,.33Z"/>
          </g>
          <g>
            <path class="cls-2" d="M319.69,217.39l-1.98,1.14c-.46,.26-.46,.69,0,.96l.88,.51c.46,.26,1.2,.27,1.66,0l1.99-1.14c.46-.26,.46-.69,0-.96l-.88-.51c-.46-.26-1.2-.26-1.66,0Z"/>
            <path class="cls-2" d="M322.42,218.7c-.05,.05-.12,.11-.19,.15l-1.98,1.14c-.46,.26-1.2,.26-1.66,0l-.88-.51c-.08-.04-.14-.1-.19-.14-.1-.1-.14-.21-.15-.31v.64c0,.17,.12,.35,.35,.48l.88,.5c.46,.27,1.2,.27,1.66,0l1.98-1.15c.23-.13,.35-.31,.35-.48v-.66c0,.12-.05,.23-.15,.33Z"/>
          </g>
          <g>
            <path class="cls-2" d="M324.09,219.93l-1.98,1.14c-.46,.26-.46,.69,0,.96l.88,.51c.46,.26,1.2,.27,1.66,0l1.99-1.14c.46-.26,.46-.69,0-.96l-.88-.51c-.46-.26-1.2-.26-1.66,0Z"/>
            <path class="cls-2" d="M326.82,221.25c-.05,.05-.12,.11-.19,.15l-1.98,1.14c-.46,.26-1.2,.26-1.66,0l-.88-.51c-.08-.04-.14-.1-.19-.14-.1-.1-.14-.21-.15-.31v.64c0,.17,.12,.35,.35,.48l.88,.5c.46,.27,1.2,.27,1.66,0l1.98-1.15c.23-.13,.35-.31,.35-.48v-.66c0,.12-.05,.23-.15,.33Z"/>
          </g>
          <g>
            <path class="cls-2" d="M328.44,222.48l-1.98,1.14c-.46,.26-.46,.69,0,.96l.88,.51c.46,.26,1.2,.27,1.66,0l1.99-1.14c.46-.26,.46-.69,0-.96l-.88-.51c-.46-.26-1.2-.26-1.66,0Z"/>
            <path class="cls-2" d="M331.17,223.79c-.05,.05-.12,.11-.19,.15l-1.98,1.14c-.46,.26-1.2,.26-1.66,0l-.88-.51c-.08-.04-.14-.1-.19-.14-.1-.1-.14-.21-.15-.31v.64c0,.17,.12,.35,.35,.48l.88,.5c.46,.27,1.2,.27,1.66,0l1.98-1.15c.23-.13,.35-.31,.35-.48v-.66c0,.12-.05,.23-.15,.33Z"/>
          </g>
        </g>
        <g class="cls-21">
          <path class="cls-2" d="M330.85,207.33c-.05,.05-.11,.11-.19,.15l-1.98,1.14c-.46,.26-1.2,.26-1.66,0l-.88-.51c-.08-.04-.14-.1-.19-.14-.1-.1-.14-.21-.15-.31v.64c0,.17,.11,.35,.35,.48l.88,.5c.46,.27,1.2,.27,1.66,0l1.98-1.15c.23-.13,.35-.31,.35-.48v-.66c0,.12-.05,.23-.15,.33Z"/>
          <path class="cls-2" d="M336.5,210.58c-.05,.05-.11,.11-.19,.15l-1.98,1.14c-.46,.26-1.2,.26-1.66,0l-.88-.51c-.08-.04-.14-.1-.19-.14-.1-.1-.14-.21-.15-.31v.64c0,.17,.11,.35,.35,.48l.88,.5c.46,.27,1.2,.27,1.66,0l1.98-1.15c.23-.13,.35-.31,.35-.48v-.66c0,.11-.05,.23-.15,.33Z"/>
          <path class="cls-2" d="M340.9,213.13c-.05,.05-.12,.11-.19,.15l-1.98,1.14c-.46,.26-1.2,.26-1.66,0l-.88-.51c-.08-.04-.14-.1-.19-.14-.1-.1-.14-.21-.15-.31v.64c0,.17,.11,.35,.35,.48l.88,.5c.46,.27,1.2,.27,1.66,0l1.98-1.15c.23-.13,.35-.31,.35-.48v-.66c0,.11-.05,.23-.15,.33Z"/>
          <path class="cls-2" d="M345.24,215.67c-.05,.05-.12,.11-.19,.15l-1.98,1.14c-.46,.26-1.2,.26-1.66,0l-.88-.51c-.08-.04-.14-.1-.19-.14-.1-.1-.14-.21-.15-.31v.64c0,.17,.12,.35,.35,.48l.88,.5c.46,.27,1.2,.27,1.66,0l1.98-1.15c.23-.13,.35-.31,.35-.48v-.66c0,.12-.05,.23-.15,.33Z"/>
          <path class="cls-2" d="M326.16,210.04c-.05,.05-.12,.11-.19,.15l-1.98,1.14c-.46,.26-1.2,.26-1.66,0l-.88-.51c-.08-.04-.14-.1-.19-.14-.1-.1-.14-.21-.15-.31v.64c0,.17,.12,.35,.35,.48l.88,.5c.46,.27,1.2,.27,1.66,0l1.98-1.15c.23-.13,.35-.31,.35-.48v-.66c0,.12-.05,.23-.15,.33Z"/>
          <path class="cls-2" d="M331.8,213.29c-.05,.05-.12,.11-.19,.15l-1.98,1.14c-.46,.26-1.2,.26-1.66,0l-.88-.51c-.08-.04-.14-.1-.19-.14-.1-.1-.14-.21-.15-.31v.64c0,.17,.12,.35,.35,.48l.88,.5c.46,.27,1.2,.27,1.66,0l1.98-1.15c.23-.13,.35-.31,.35-.48v-.66c0,.12-.05,.23-.15,.33Z"/>
          <path class="cls-2" d="M336.21,215.84c-.05,.05-.11,.11-.19,.15l-1.98,1.14c-.46,.26-1.2,.26-1.66,0l-.88-.51c-.08-.04-.14-.1-.19-.14-.1-.1-.14-.21-.15-.31v.64c0,.17,.12,.35,.35,.48l.88,.5c.46,.27,1.2,.27,1.66,0l1.98-1.15c.23-.13,.35-.31,.35-.48v-.66c0,.12-.05,.23-.15,.33Z"/>
          <path class="cls-2" d="M340.55,218.38c-.05,.05-.12,.11-.19,.15l-1.98,1.14c-.46,.26-1.2,.26-1.66,0l-.88-.51c-.08-.04-.14-.1-.19-.14-.1-.1-.14-.21-.15-.31v.64c0,.17,.12,.35,.35,.48l.88,.5c.46,.27,1.2,.27,1.66,0l1.98-1.15c.23-.13,.35-.31,.35-.48v-.66c0,.11-.05,.23-.15,.33Z"/>
          <path class="cls-2" d="M321.46,212.75c-.05,.05-.11,.11-.19,.15l-1.98,1.14c-.46,.26-1.2,.26-1.66,0l-.88-.51c-.08-.04-.14-.1-.19-.14-.1-.1-.14-.21-.15-.31v.64c0,.17,.11,.35,.35,.48l.88,.5c.46,.27,1.2,.27,1.66,0l1.98-1.15c.23-.13,.35-.31,.35-.48v-.66c0,.11-.05,.23-.15,.33Z"/>
          <path class="cls-2" d="M327.11,216c-.05,.05-.11,.11-.19,.15l-1.98,1.14c-.46,.26-1.2,.26-1.66,0l-.88-.51c-.08-.04-.14-.1-.19-.14-.1-.1-.14-.21-.15-.31v.64c0,.17,.12,.35,.35,.48l.88,.5c.46,.27,1.2,.27,1.66,0l1.98-1.15c.23-.13,.35-.31,.35-.48v-.66c0,.12-.05,.23-.15,.33Z"/>
          <path class="cls-2" d="M331.51,218.55c-.05,.05-.12,.11-.19,.15l-1.98,1.14c-.46,.26-1.2,.26-1.66,0l-.88-.51c-.08-.04-.14-.1-.19-.14-.1-.1-.14-.21-.15-.31v.64c0,.17,.11,.35,.35,.48l.88,.5c.46,.27,1.2,.27,1.66,0l1.98-1.15c.23-.13,.35-.31,.35-.48v-.66c0,.12-.05,.23-.15,.33Z"/>
          <path class="cls-2" d="M335.86,221.09c-.05,.05-.12,.11-.19,.15l-1.98,1.14c-.46,.26-1.2,.26-1.66,0l-.88-.51c-.08-.04-.14-.1-.19-.14-.1-.1-.14-.21-.15-.31v.64c0,.17,.12,.35,.35,.48l.88,.5c.46,.27,1.2,.27,1.66,0l1.98-1.15c.23-.13,.35-.31,.35-.48v-.66c0,.12-.05,.23-.15,.33Z"/>
          <path class="cls-2" d="M316.77,215.45c-.05,.05-.12,.11-.19,.15l-1.98,1.14c-.46,.26-1.2,.26-1.66,0l-.88-.51c-.08-.04-.14-.1-.19-.14-.1-.1-.14-.21-.15-.31v.64c0,.17,.12,.35,.35,.48l.88,.5c.46,.27,1.2,.27,1.66,0l1.98-1.15c.23-.13,.35-.31,.35-.48v-.66c0,.12-.05,.23-.15,.33Z"/>
          <path class="cls-2" d="M322.42,218.7c-.05,.05-.12,.11-.19,.15l-1.98,1.14c-.46,.26-1.2,.26-1.66,0l-.88-.51c-.08-.04-.14-.1-.19-.14-.1-.1-.14-.21-.15-.31v.64c0,.17,.12,.35,.35,.48l.88,.5c.46,.27,1.2,.27,1.66,0l1.98-1.15c.23-.13,.35-.31,.35-.48v-.66c0,.12-.05,.23-.15,.33Z"/>
          <path class="cls-2" d="M326.82,221.25c-.05,.05-.12,.11-.19,.15l-1.98,1.14c-.46,.26-1.2,.26-1.66,0l-.88-.51c-.08-.04-.14-.1-.19-.14-.1-.1-.14-.21-.15-.31v.64c0,.17,.12,.35,.35,.48l.88,.5c.46,.27,1.2,.27,1.66,0l1.98-1.15c.23-.13,.35-.31,.35-.48v-.66c0,.12-.05,.23-.15,.33Z"/>
          <path class="cls-2" d="M331.17,223.79c-.05,.05-.12,.11-.19,.15l-1.98,1.14c-.46,.26-1.2,.26-1.66,0l-.88-.51c-.08-.04-.14-.1-.19-.14-.1-.1-.14-.21-.15-.31v.64c0,.17,.12,.35,.35,.48l.88,.5c.46,.27,1.2,.27,1.66,0l1.98-1.15c.23-.13,.35-.31,.35-.48v-.66c0,.12-.05,.23-.15,.33Z"/>
        </g>
      </g>
      <g id="Chat">
        <g id="Speech_Bubble" data-name="Speech Bubble">
          <g id="Shadow-7" data-name="Shadow" class="cls-18">
            <path d="M234.68,113.03c0,1.39,.98,2.28,2.19,2.98l25.81,14.91c1.21,.7,2.19,.13,2.19-1.27v-10.98h0c0-1.56-.83-3-2.18-3.78l-25.82-14.93c-.97-.56-2.19,.14-2.19,1.27h0v11.8Z"/>
          </g>
          <g id="Speech_Bubble-2" data-name="Speech Bubble">
            <path class="cls-8" d="M231.9,104.03c.04-.84,.62-1.83,1.34-2.24l.5-.29c.74-.43,1.95-.43,2.69,0l25.45,14.71c.74,.43,1.35,1.47,1.35,2.33v12.5c0,.86-.6,1.9-1.35,2.33l-.5,.29c-.74,.43-1.95,.43-2.69,0l.11,.05-11.17-6.42c-.19-.11-.4-.2-.6-.26l-2.04,1.83-.16,.12-1.13,.64-2.07,1.2h0c-.4,.23-1.05,.2-1.55-.09-.58-.34-1.05-1.3-1.05-2.16v-4.69c0-.86-.6-1.9-1.35-2.33l-4.46-2.58c-.74-.43-1.35-1.47-1.35-2.33v-12.5s0-.07,0-.1Z"/>
            <path class="cls-42" d="M231.9,104.03c.04-.84,.62-1.83,1.34-2.24l.5-.29c.74-.43,1.95-.43,2.69,0l25.45,14.71c.74,.43,1.35,1.47,1.35,2.33v12.5c0,.86-.6,1.9-1.35,2.33l-.5,.29c-.74,.43-1.95,.43-2.69,0l.11,.05-11.17-6.42c-.19-.11-.4-.2-.6-.26l-2.04,1.83-.16,.12-1.13,.64-2.07,1.2h0c-.4,.23-1.05,.2-1.55-.09-.58-.34-1.05-1.3-1.05-2.16v-4.69c0-.86-.6-1.9-1.35-2.33l-4.46-2.58c-.74-.43-1.35-1.47-1.35-2.33v-12.5s0-.07,0-.1Z"/>
            <g>
              <path class="cls-8" d="M231.89,104.13c0-.86,.6-1.2,1.35-.78l25.45,14.71c.32,.18,.61,.48,.84,.83l3.18-1.84c-.23-.35-.52-.65-.84-.83l-25.45-14.71c-.75-.43-1.95-.43-2.69,0l-.5,.29c-.75,.43-1.35,1.47-1.35,2.33Z"/>
              <path class="cls-32" d="M231.89,104.13c0-.86,.6-1.2,1.35-.78l25.45,14.71c.32,.18,.61,.48,.84,.83l3.18-1.84c-.23-.35-.52-.65-.84-.83l-25.45-14.71c-.75-.43-1.95-.43-2.69,0l-.5,.29c-.75,.43-1.35,1.47-1.35,2.33Z"/>
            </g>
            <g>
              <path class="cls-33" d="M259.29,133.57c.43,0,.48-.49,.48-.7v-12.5c0-.76-.56-1.72-1.21-2.1l-25.45-14.69c-.17-.1-.33-.15-.47-.15-.43,0-.48,.49-.48,.7v12.5c0,.76,.56,1.72,1.21,2.1l4.46,2.58c.83,.48,1.48,1.6,1.48,2.56v4.69c0,.76,.42,1.65,.92,1.93,.23,.13,.51,.21,.78,.21h0c.27,0,.49-.07,.62-.2l3.82-3.54c.21-.2,.52-.3,.91-.3,.46,0,.97,.15,1.42,.4l11.05,6.35c.17,.1,.33,.15,.47,.15Z"/>
              <path class="cls-23" d="M232.64,103.7c.09,0,.21,.04,.34,.11l25.45,14.69c.58,.33,1.08,1.21,1.08,1.87v12.5c0,.16-.03,.43-.22,.43-.09,0-.21-.04-.34-.11l-11.05-6.35c-.48-.28-1.05-.44-1.55-.44-.46,0-.84,.13-1.09,.38l-3.82,3.54c-.06,.06-.21,.13-.44,.13s-.45-.06-.64-.17c-.37-.22-.79-.97-.79-1.7v-4.69c0-1.04-.71-2.27-1.61-2.79l-4.46-2.58c-.58-.33-1.08-1.21-1.08-1.87v-12.5c0-.16,.03-.43,.22-.43m0-.53c-.44,0-.74,.35-.74,.96v8.3s0,2.46,0,2.46v1.73c0,.86,.6,1.9,1.35,2.33l4.46,2.58c.74,.43,1.35,1.47,1.35,2.33v4.69c0,.86,.47,1.83,1.05,2.16,.28,.16,.61,.24,.91,.24,.32,0,.62-.09,.81-.27l3.82-3.54c.16-.15,.42-.23,.73-.23,.39,0,.86,.13,1.28,.37l11.05,6.35c.22,.12,.42,.18,.6,.18,.44,0,.74-.35,.74-.96v-12.5c0-.86-.6-1.9-1.35-2.33l-25.45-14.69c-.22-.12-.42-.18-.6-.18h0Z"/>
            </g>
          </g>
          <g>
            <path class="cls-7" d="M239.82,113.41c-.85-.49-1.55-.09-1.55,.89s.69,2.19,1.55,2.68c.85,.49,1.55,.09,1.55-.89s-.69-2.19-1.55-2.68Z"/>
            <path class="cls-7" d="M246.01,116.97c-.85-.49-1.55-.09-1.55,.89s.69,2.19,1.55,2.68c.85,.49,1.55,.09,1.55-.89s-.69-2.19-1.55-2.68Z"/>
            <path class="cls-7" d="M252.2,120.54c-.85-.49-1.55-.09-1.55,.89s.69,2.19,1.55,2.68c.85,.49,1.55,.09,1.55-.89s-.69-2.19-1.55-2.68Z"/>
          </g>
        </g>
        <g id="Speech_Bubble-3" data-name="Speech Bubble">
          <g id="Shadow-8" data-name="Shadow" class="cls-18">
            <path d="M234.73,89.09c0,1.39,.98,2.28,2.19,2.98l64.71,37.37c1.21,.7,2.19,.13,2.19-1.27v-24.26h0c0-1.56-.83-3-2.18-3.78l-64.72-37.39c-.97-.56-2.19,.14-2.19,1.27h0v25.08Z"/>
          </g>
          <g id="Speech_Bubble-4" data-name="Speech Bubble">
            <path class="cls-8" d="M300.34,132.18l.5-.29c.74-.43,1.35-1.47,1.35-2.33v-25.78c0-.86-.6-1.9-1.35-2.33l-64.36-37.17c-.74-.43-1.95-.43-2.69,0l-.5,.29c-.74,.43-1.35,1.47-1.35,2.33v25.78c0,.86,.6,1.9,1.35,2.33l43.32,25.02c.74,.43,1.64,1.41,2.01,2.18l4.99,10.55c.37,.78,1.13,1.68,1.72,2.01,.58,.34,1.65,.26,2.4-.17l.34-.19c.74-.43,1.35-1.47,1.35-2.33v-3.11c0-.86,.6-1.21,1.35-.78l6.91,3.99c.74,.43,1.95,.43,2.69,0Z"/>
            <path class="cls-17" d="M300.34,132.18l.5-.29c.74-.43,1.35-1.47,1.35-2.33v-25.78c0-.86-.6-1.9-1.35-2.33l-64.36-37.17c-.74-.43-1.95-.43-2.69,0l-.5,.29c-.74,.43-1.35,1.47-1.35,2.33v25.78c0,.86,.6,1.9,1.35,2.33l43.32,25.02c.74,.43,1.64,1.41,2.01,2.18l4.99,10.55c.37,.78,1.13,1.68,1.72,2.01,.58,.34,1.65,.26,2.4-.17l.34-.19c.74-.43,1.35-1.47,1.35-2.33v-3.11c0-.86,.6-1.21,1.35-.78l6.91,3.99c.74,.43,1.95,.43,2.69,0Z"/>
            <g>
              <path class="cls-8" d="M231.94,66.9c0-.86,.6-1.2,1.35-.78l64.36,37.17c.32,.18,.61,.48,.84,.83l3.18-1.84c-.23-.35-.52-.65-.84-.83l-64.36-37.17c-.75-.43-1.95-.43-2.69,0l-.5,.29c-.75,.43-1.35,1.47-1.35,2.33Z"/>
              <path class="cls-34" d="M231.94,66.9c0-.86,.6-1.2,1.35-.78l64.36,37.17c.32,.18,.61,.48,.84,.83l3.18-1.84c-.23-.35-.52-.65-.84-.83l-64.36-37.17c-.75-.43-1.95-.43-2.69,0l-.5,.29c-.75,.43-1.35,1.47-1.35,2.33Z"/>
            </g>
            <g>
              <path class="cls-33" d="M285.7,134.63c.1,0,.19-.05,.26-.16,.09-.14,.15-.37,.15-.63v-6.61c0-.73,.41-1.22,1.01-1.22,.23,0,.48,.07,.73,.22l9.93,5.74c.17,.1,.33,.15,.47,.15,.43,0,.48-.49,.48-.7v-25.78c0-.76-.56-1.72-1.21-2.1l-64.36-37.17c-.17-.1-.33-.15-.47-.15-.43,0-.48,.49-.48,.7v25.78c0,.76,.56,1.72,1.21,2.1l43.32,25.02c.79,.46,1.72,1.47,2.12,2.3l4.99,10.55c.34,.72,1.08,1.59,1.61,1.9,.09,.05,.18,.08,.25,.08Z"/>
              <path class="cls-23" d="M232.69,66.47c.09,0,.21,.04,.34,.11l64.36,37.17c.58,.33,1.08,1.21,1.08,1.87v21.58s0,2.46,0,2.46v1.73c0,.16-.03,.43-.22,.43-.05,0-.17-.01-.34-.11l-9.93-5.74c-.29-.17-.58-.25-.87-.25-.75,0-1.27,.61-1.27,1.49v6.61c0,.35-.1,.52-.14,.53,0,0-.05,0-.12-.05-.48-.28-1.19-1.11-1.5-1.78l-4.99-10.55c-.41-.87-1.39-1.93-2.22-2.41l-43.32-25.02c-.58-.33-1.08-1.21-1.08-1.87v-25.78c0-.16,.03-.43,.22-.43m0-.53c-.44,0-.74,.35-.74,.96v25.78c0,.86,.6,1.9,1.35,2.33l43.32,25.02c.74,.43,1.64,1.41,2.01,2.18l4.99,10.55c.37,.78,1.13,1.68,1.72,2.01,.13,.08,.26,.11,.38,.11,.39,0,.67-.4,.67-1.06v-6.61c0-.61,.3-.96,.74-.96,.18,0,.39,.06,.6,.18l9.93,5.74c.22,.12,.42,.18,.6,.18,.44,0,.74-.35,.74-.96v-25.78c0-.86-.6-1.9-1.35-2.33l-64.36-37.17c-.22-.12-.42-.18-.6-.18h0Z"/>
            </g>
          </g>
          <g>
            <path class="cls-7" d="M237.06,80.6v-7.26c0-.24,.14-.28,.43-.12l.31,.18c.28,.16,.42,.36,.42,.61v2.8l1.26,.73v-2.8c0-.24,.14-.28,.43-.12l.3,.17c.28,.16,.43,.37,.43,.61v7.26c0,.24-.14,.28-.43,.12l-.3-.17c-.28-.16-.43-.37-.43-.61v-2.96l-1.26-.73v2.96c0,.24-.14,.28-.42,.12l-.31-.18c-.28-.16-.43-.37-.43-.61Z"/>
            <path class="cls-7" d="M241.63,83.25v-5.25c0-.24,.15-.28,.44-.11l.21,.12c.29,.17,.44,.38,.44,.62v5.25c0,.24-.15,.28-.44,.11l-.21-.12c-.3-.17-.44-.38-.44-.62Zm.05-6.55v-.68c0-.24,.16-.27,.49-.08,.34,.2,.52,.42,.52,.66v.68c0,.24-.16,.27-.49,.08-.34-.2-.52-.42-.52-.66Z"/>
            <path class="cls-7" d="M243.64,84.41v-1.04c0-.24,.14-.28,.43-.12l.24,.14c.28,.16,.43,.37,.43,.61v1.04c0,.24-.14,.28-.43,.12l-.24-.14c-.29-.17-.43-.37-.43-.61Zm.22-2.13c-.05-.09-.08-.19-.08-.32v-4.72c0-.24,.14-.28,.43-.12l.34,.19c.13,.08,.24,.17,.31,.27,.08,.1,.11,.2,.11,.3l-.38,4.55c-.01,.13-.04,.21-.09,.23-.04,.03-.14,0-.29-.09l-.06-.03c-.15-.09-.25-.18-.31-.26Z"/>
            <path class="cls-7" d="M237.06,91.32v-7.26c0-.24,.14-.28,.43-.12l.31,.18c.28,.16,.42,.36,.42,.61v2.8l1.26,.73v-2.8c0-.24,.14-.28,.43-.12l.3,.17c.28,.16,.43,.37,.43,.61v7.26c0,.24-.14,.28-.43,.12l-.3-.17c-.28-.16-.43-.37-.43-.61v-2.96l-1.26-.73v2.96c0,.24-.14,.28-.42,.12l-.31-.18c-.28-.16-.43-.37-.43-.61Z"/>
            <path class="cls-7" d="M241.87,93.74c-.26-.67-.38-1.5-.38-2.5s.13-1.67,.38-2.05c.25-.38,.63-.42,1.12-.13,.5,.29,.87,.76,1.13,1.43,.26,.67,.38,1.5,.38,2.49s-.13,1.68-.38,2.05c-.26,.38-.63,.42-1.13,.14-.49-.28-.86-.76-1.12-1.44Zm1.43-.1c.06-.23,.09-.66,.09-1.29s-.03-1.1-.09-1.39c-.06-.29-.16-.48-.31-.56-.15-.09-.25-.02-.31,.2-.06,.22-.09,.65-.09,1.29s.03,1.1,.09,1.4c.06,.3,.17,.49,.31,.57,.14,.08,.24,.01,.31-.21Z"/>
            <path class="cls-7" d="M245.92,96.74c-.05-.07-.08-.14-.09-.23l-.78-5.73s0-.11,0-.17c0-.2,.15-.21,.45-.04,.35,.2,.53,.38,.53,.55l.19,2.91,.07,1.3,.03,.02c.03-.42,.07-.84,.12-1.25l.31-2.57c0-.07,.04-.11,.11-.11,.07,0,.16,.03,.27,.09l.19,.11c.1,.06,.19,.13,.27,.22,.07,.08,.11,.17,.12,.24l.31,2.95c.03,.31,.07,.77,.11,1.36l.03,.02c.01-.1,.02-.21,.02-.32,0-.11,0-.21,.01-.3l.04-.6,.2-2.69c.01-.15,.18-.13,.49,.05,.3,.17,.45,.36,.45,.55,0,.07,0,.12,0,.17l-.77,4.83c-.01,.15-.12,.17-.3,.06l-.24-.14c-.11-.06-.18-.13-.23-.19-.04-.06-.07-.14-.08-.23l-.46-3.25c-.01-.2-.02-.35-.03-.46-.01-.23-.02-.38-.03-.45l-.03-.02c-.01,.18-.02,.32-.03,.41-.01,.23-.02,.37-.03,.43l-.46,2.72c0,.08-.04,.12-.08,.13-.04,.01-.12-.01-.22-.07l-.24-.14c-.1-.06-.17-.12-.22-.18Z"/>
            <path class="cls-7" d="M251.11,96.82c0-2.05,.53-2.77,1.59-2.16,.18,.1,.35,.24,.51,.4,.16,.17,.3,.34,.4,.52,.1,.18,.16,.34,.16,.48s-.04,.29-.11,.47c-.08,.18-.15,.24-.22,.2-.03-.02-.08-.07-.14-.17-.09-.12-.17-.22-.24-.3-.07-.08-.15-.15-.24-.2-.2-.12-.35-.07-.45,.14-.1,.21-.15,.62-.15,1.24s.05,1.09,.14,1.41c.09,.32,.24,.54,.43,.65,.09,.05,.17,.08,.24,.08,.07,0,.14,0,.18,0,.05,0,.08-.01,.1-.01,.07-.01,.11-.01,.13,0,.07,.04,.15,.19,.22,.45,.07,.26,.11,.46,.11,.6s-.06,.24-.18,.29c-.12,.05-.27,.06-.45,.03-.17-.03-.33-.09-.48-.17-1.04-.6-1.56-1.92-1.56-3.94Z"/>
            <path class="cls-7" d="M254.59,101.4c-.17-.42-.26-.9-.26-1.46,0-1.41,.57-1.79,1.72-1.12v-.18c0-.24-.04-.44-.11-.6-.07-.16-.19-.28-.34-.37-.11-.06-.2-.1-.29-.1-.08,0-.18,0-.28,.01-.07,.02-.12,.02-.15,0-.05-.03-.1-.12-.16-.26-.06-.15-.11-.31-.15-.48-.04-.17-.07-.3-.07-.38,0-.13,.06-.22,.17-.27,.12-.05,.27-.06,.45-.02,.18,.04,.37,.11,.56,.22,.51,.29,.88,.68,1.11,1.16s.35,1.03,.35,1.64v2.07c0,.35,0,.62,.02,.8,.01,.19,.03,.4,.05,.63,.01,.11,.02,.19,.02,.26,0,.12-.1,.15-.3,.1-.2-.05-.37-.13-.53-.21-.08-.05-.13-.12-.17-.23-.03-.11-.07-.28-.1-.5-.06,.13-.16,.22-.3,.28-.14,.06-.3,.03-.49-.08-.32-.19-.57-.49-.75-.91Zm1.3-.09c.07-.03,.12-.09,.16-.18v-1.33c-.49-.28-.74-.09-.74,.58,0,.21,.03,.4,.1,.56,.06,.16,.15,.27,.27,.34,.08,.05,.15,.05,.22,.02Z"/>
            <path class="cls-7" d="M258.14,103.49v-3.62c0-.54-.01-.93-.04-1.17-.02-.24-.04-.39-.04-.44,0-.14,.1-.18,.31-.12,.21,.06,.39,.13,.54,.21,.09,.05,.15,.13,.18,.23,.03,.1,.05,.22,.06,.36,.01,.14,.02,.25,.03,.33,.11-.19,.24-.31,.41-.38,.16-.07,.35-.04,.56,.08,.27,.16,.48,.41,.62,.76,.14,.35,.21,.78,.21,1.3v4.11c0,.24-.14,.28-.43,.12l-.25-.14c-.29-.17-.43-.37-.43-.61v-3.72c0-.2-.02-.35-.06-.47-.04-.12-.11-.21-.21-.27-.13-.08-.26-.03-.37,.15v3.94c0,.12-.03,.19-.1,.21-.07,.02-.17-.01-.32-.09l-.26-.15c-.28-.16-.42-.36-.42-.61Z"/>
            <path class="cls-7" d="M263.09,106.35v-7.26c0-.25,.14-.29,.43-.13l.31,.18c.28,.16,.42,.37,.42,.62v7.26c0,.25-.14,.29-.42,.13l-.31-.18c-.28-.16-.43-.37-.43-.62Z"/>
            <path class="cls-7" d="M266.39,108.25v-7.85c0-.24,.14-.28,.43-.12l.25,.14c.29,.17,.43,.37,.43,.61v2.94c.11-.16,.24-.27,.39-.33,.15-.05,.33-.02,.53,.09,.27,.16,.48,.41,.62,.76,.14,.35,.21,.78,.21,1.3v4.11c0,.24-.14,.28-.43,.12l-.25-.14c-.28-.16-.43-.37-.43-.61v-3.72c0-.2-.02-.35-.07-.47s-.12-.21-.22-.27c-.14-.08-.26-.03-.36,.15v3.94c0,.24-.14,.28-.43,.12l-.25-.14c-.28-.16-.43-.37-.43-.61Z"/>
            <path class="cls-7" d="M270.42,110.25c-.27-.67-.41-1.49-.41-2.49,0-1.12,.13-1.84,.4-2.16,.27-.32,.64-.34,1.13-.06,.48,.28,.83,.74,1.05,1.39,.22,.65,.32,1.47,.32,2.46,0,.09-.05,.2-.15,.32-.1,.12-.18,.16-.22,.14l-1.4-.81c0,.39,.07,.7,.17,.92,.1,.22,.24,.38,.42,.49,.11,.06,.21,.1,.29,.1,.09,0,.17,0,.26-.02,.08-.02,.13-.02,.15,0,.05,.03,.1,.12,.17,.26,.06,.15,.11,.3,.15,.46,.04,.16,.06,.28,.06,.36,0,.17-.07,.28-.2,.32-.13,.04-.29,.04-.47,0-.18-.04-.34-.1-.48-.18-.57-.33-.99-.83-1.26-1.49Zm1.5-1.77c0-.54-.03-.94-.09-1.2-.06-.27-.16-.44-.29-.52-.13-.08-.23-.03-.31,.15-.07,.18-.12,.54-.14,1.09l.83,.48Z"/>
            <path class="cls-7" d="M273.67,111.16v-6.56c0-.24,.15-.28,.44-.11l.21,.12c.29,.17,.44,.38,.44,.62v6.58c0,.13,.01,.23,.04,.31,.03,.08,.07,.13,.14,.17,.02,.01,.05,.02,.08,.02,.03,0,.06,.01,.08,.02,.06,.04,.11,.17,.15,.39,.04,.22,.06,.41,.06,.57,0,.18-.07,.27-.22,.28-.14,0-.3-.04-.48-.14-.63-.37-.95-1.12-.95-2.27Z"/>
            <path class="cls-7" d="M275.86,116.04v-5.91c0-.35,0-.61-.02-.8-.01-.18-.03-.39-.05-.62-.01-.11-.02-.2-.02-.25,0-.12,.1-.15,.3-.1,.2,.05,.37,.12,.53,.21,.1,.06,.17,.16,.2,.3,.04,.14,.07,.33,.1,.57,.07-.19,.18-.32,.32-.39,.14-.07,.29-.05,.46,.05,.22,.12,.41,.35,.57,.69,.16,.33,.29,.76,.39,1.28,.1,.52,.14,1.11,.14,1.76,0,.97-.11,1.65-.32,2.05-.22,.4-.52,.49-.91,.27-.24-.14-.44-.36-.6-.68v2.21c0,.24-.15,.28-.44,.11l-.21-.12c-.29-.17-.44-.38-.44-.62Zm1.72-2.62c.07-.23,.1-.65,.1-1.27s-.03-1.03-.09-1.33c-.06-.3-.15-.48-.28-.56-.14-.08-.26,0-.36,.25v2.8c.1,.16,.2,.27,.3,.33,.15,.08,.26,.01,.32-.22Z"/>
            <path class="cls-7" d="M283.39,112.71s0,.1-.01,.2l-1.25,6.88c-.02,.14-.16,.15-.41,0l-.15-.09c-.28-.16-.41-.32-.41-.48,0-.05,0-.12,.02-.19l.42-2.14c-.07-.04-.13-.09-.17-.15-.04-.06-.07-.14-.09-.24l-.85-5.21c-.02-.15-.03-.24-.03-.27,0-.17,.12-.19,.37-.05l.32,.18c.11,.07,.2,.13,.26,.2,.06,.07,.1,.16,.11,.28l.27,2.46c.03,.29,.07,.74,.12,1.34l.03,.02c.02-.25,.04-.41,.05-.48,.03-.35,.05-.58,.07-.72l.29-2.16c.02-.15,.15-.15,.39-.01l.21,.12c.28,.16,.43,.33,.43,.5Z"/>
            <path class="cls-7" d="M284.24,118.2c-.26-.67-.38-1.51-.38-2.5s.13-1.67,.38-2.05c.25-.38,.63-.42,1.12-.13,.5,.29,.87,.76,1.13,1.43,.26,.67,.38,1.5,.38,2.49s-.13,1.67-.38,2.05c-.26,.38-.63,.42-1.13,.14-.49-.28-.86-.76-1.12-1.43Zm1.43-.1c.06-.23,.09-.66,.09-1.29s-.03-1.1-.09-1.39c-.06-.29-.16-.48-.31-.56-.15-.09-.25-.02-.31,.2-.06,.22-.09,.65-.09,1.29s.03,1.1,.09,1.4c.06,.3,.17,.49,.31,.57,.14,.08,.24,.01,.31-.21Z"/>
            <path class="cls-7" d="M287.86,120.69c-.14-.35-.22-.79-.22-1.3v-4.12c0-.24,.14-.28,.43-.12l.25,.14c.28,.16,.43,.37,.43,.61v3.74c0,.19,.02,.34,.06,.46,.04,.12,.11,.21,.21,.27,.13,.08,.26,.03,.37-.15v-3.95c0-.12,.03-.19,.1-.21,.07-.02,.17,0,.32,.09l.26,.15c.28,.16,.42,.36,.42,.61v3.62c0,.54,.01,.93,.04,1.18,.02,.25,.04,.4,.04,.45,0,.14-.1,.17-.31,.12-.21-.06-.39-.13-.54-.22-.09-.05-.15-.13-.18-.23-.03-.1-.05-.22-.06-.36-.01-.14-.02-.25-.03-.33-.11,.19-.24,.32-.39,.39-.15,.07-.33,.05-.53-.06-.29-.17-.5-.42-.64-.78Z"/>
            <path class="cls-7" d="M291.85,120.7c-.06-.08-.09-.18-.09-.3,0-.32,.04-.6,.11-.83,.07-.24,.18-.46,.31-.66l.16-.2c.14-.17,.24-.31,.3-.43,.06-.12,.09-.24,.09-.37,0-.42-.16-.73-.48-.91-.1-.06-.19-.08-.27-.08-.08,0-.16,.02-.23,.04-.08,.02-.12,.03-.14,.02-.06-.04-.13-.13-.2-.29-.07-.16-.13-.33-.18-.51-.05-.18-.08-.31-.08-.4,0-.19,.07-.31,.2-.38,.13-.06,.29-.07,.49-.04,.19,.04,.38,.11,.57,.22,.45,.26,.81,.64,1.08,1.13,.27,.49,.4,1.04,.4,1.64,0,.3-.03,.55-.08,.73-.06,.19-.13,.33-.21,.44s-.19,.22-.34,.35c-.17,.15-.3,.29-.39,.44-.09,.15-.15,.36-.18,.63-.02,.1-.06,.16-.12,.17-.06,.01-.15-.02-.27-.09l-.17-.1c-.13-.07-.22-.15-.28-.23Zm-.18,2.15v-1.04c0-.24,.15-.28,.44-.11l.24,.14c.29,.17,.44,.38,.44,.62v1.04c0,.24-.15,.28-.44,.11l-.24-.14c-.3-.17-.44-.38-.44-.62Z"/>
          </g>
        </g>
      </g>
      <g id="Clock">
        <g id="Clock-2" data-name="Clock">
          <path class="cls-8" d="M223.93,271.94l13.67-7.9s.03-.02,.05-.03l.1-.06h0c6.63-3.75,15.75-3.17,25.82,2.64,20.26,11.7,36.69,40.15,36.69,63.55,0,11.63-4.06,19.81-10.63,23.68h0s-.1,.06-.1,.06c-.02,0-.03,.02-.05,.03l-13.68,7.9-2.33-6.14c-3.22-.79-6.62-2.17-10.15-4.2-20.26-11.7-36.69-40.15-36.69-63.55,0-4.03,.5-7.64,1.41-10.81l-4.13-5.17Z"/>
          <path class="cls-43" d="M223.93,271.94l13.67-7.9s.03-.02,.05-.03l.1-.06h0c6.63-3.75,15.75-3.17,25.82,2.64,20.26,11.7,36.69,40.15,36.69,63.55,0,11.63-4.06,19.81-10.63,23.68h0s-.1,.06-.1,.06c-.02,0-.03,.02-.05,.03l-13.68,7.9-2.33-6.14c-3.22-.79-6.62-2.17-10.15-4.2-20.26-11.7-36.69-40.15-36.69-63.55,0-4.03,.5-7.64,1.41-10.81l-4.13-5.17Z"/>
          <path class="cls-36" d="M299.95,324.43c.2,1.93,.32,3.84,.32,5.72,0,11.63-4.06,19.81-10.63,23.68h0s-.1,.06-.1,.06c-.02,0-.03,.02-.05,.03l-13.68,7.9-2.33-6.14c-.76-.19-1.54-.41-2.32-.67l-3.47-11.96,32.24-18.62Z"/>
          <ellipse class="cls-8" cx="249.75" cy="316.95" rx="29.96" ry="51.89" transform="translate(-125.01 167.34) rotate(-30)"/>
          <ellipse class="cls-22" cx="249.75" cy="316.95" rx="29.96" ry="51.89" transform="translate(-125.01 167.34) rotate(-30)"/>
          <g>
            <path class="cls-8" d="M221.91,281.95c4.55-7.88,13.88-8.77,24.95-2.37,18.33,10.58,33.81,37.39,33.81,58.55,0,5.54-1.07,10.32-3.08,13.81-4.55,7.88-13.88,8.77-24.95,2.37-18.33-10.58-33.81-37.39-33.81-58.55,0-5.54,1.07-10.32,3.08-13.81h0Z"/>
            <path class="cls-8" d="M221.4,282.25c5.16-8.23,15.14-9.5,26.7-3.39,19.14,10.11,34.62,36.93,33.81,58.55-.21,5.67-1.53,10.59-3.82,14.24-5.16,8.23-15.14,9.5-26.7,3.39-19.14-10.11-34.62-36.92-33.81-58.55,.21-5.67,1.53-10.59,3.82-14.23h0Z"/>
            <path class="cls-20" d="M221.4,282.25c5.16-8.23,15.14-9.5,26.7-3.39,19.14,10.11,34.62,36.93,33.81,58.55-.21,5.67-1.53,10.59-3.82,14.24-5.16,8.23-15.14,9.5-26.7,3.39-19.14-10.11-34.62-36.92-33.81-58.55,.21-5.67,1.53-10.59,3.82-14.23h0Z"/>
          </g>
          <g>
            <path class="cls-33" d="M255.12,352.94c7.36,3.89,14.08,4.78,19.32,2.79,1.39-1.09,2.62-2.44,3.65-4.08,2.28-3.65,3.6-8.57,3.82-14.24,.81-21.63-14.67-48.44-33.81-58.55-7.36-3.89-14.08-4.78-19.32-2.79-1.39,1.09-2.62,2.44-3.65,4.08h0c-2.28,3.65-3.6,8.57-3.82,14.24-.81,21.63,14.67,48.44,33.81,58.55Z"/>
            <g>
              <path class="cls-45" d="M252,284.19c.43,.25,.77,.88,.77,1.41v3.98c0,.53-.34,.76-.77,.51-.43-.25-.77-.88-.77-1.41v-3.98c0-.53,.34-.76,.77-.51Z"/>
              <path class="cls-46" d="M225.64,299.41c0,.49,.38,1.11,.84,1.37l3.44,1.99c.46,.27,.83,.08,.83-.41,0-.49-.38-1.11-.84-1.37l-3.44-1.99c-.46-.27-.83-.08-.83,.41Z"/>
            </g>
            <g>
              <path class="cls-15" d="M279.33,331.52c0-.49-.38-1.11-.84-1.37l-3.44-1.99c-.46-.27-.83-.08-.83,.41s.38,1.11,.84,1.38l3.44,1.99c.46,.27,.83,.08,.83-.42Z"/>
              <path class="cls-11" d="M252.96,346.75c-.43-.25-.77-.88-.77-1.41v-3.98c0-.53,.34-.76,.77-.51s.77,.88,.77,1.41v3.98c0,.53-.34,.76-.77,.51Z"/>
            </g>
          </g>
        </g>
        <polygon class="cls-27" points="250.44 318.38 269.89 315.59 248.91 315.59 250.44 318.38"/>
        <g>
          <path class="cls-10" d="M249.69,294.23s-1.8,16.71-2.36,20.59c-.05,.2-.09,.43-.09,.69,0,1.6,1.12,3.54,2.5,4.34,.69,.4,1.32,.44,1.77,.17,.23-.13,1.11-.65,1.34-.77,.46-.26,.75-.82,.75-1.63,.23-4-1.26-23.23-1.26-23.23l-1.31-.94-1.36,.78Z"/>
          <path class="cls-7" d="M247.25,315.5c0,1.6,1.12,3.54,2.5,4.34,1.38,.8,2.5,.15,2.5-1.45,.23-4-1.26-23.23-1.26-23.23l-1.31-.94s-2.44,19.67-2.45,21.28Z"/>
          <path class="cls-44" d="M248.62,316.29c0,.72,.51,1.6,1.13,1.96,.63,.36,1.13,.07,1.13-.65s-.51-1.6-1.13-1.96c-.63-.36-1.13-.07-1.13,.65Z"/>
        </g>
        <rect class="cls-10" x="231.34" y="313.15" width=".34" height="4.06" transform="translate(-109.12 507.28) rotate(-83.12)"/>
        <rect class="cls-10" x="240.23" y="333.64" width="4.06" height=".34" transform="translate(-159.89 425.43) rotate(-66.86)"/>
        <rect class="cls-10" x="260.53" y="297.08" width="4.06" height=".34" transform="translate(-113.95 421.9) rotate(-66.86)"/>
        <rect class="cls-10" x="273.15" y="313.85" width=".34" height="4.06" transform="translate(-73.02 549.41) rotate(-83.12)"/>
        <rect class="cls-10" x="228.31" y="286.74" width=".34" height="5.44" transform="translate(-134.7 225.53) rotate(-41.73)"/>
        <rect class="cls-10" x="241.79" y="278.96" width=".34" height="5.44" transform="translate(-76.25 90.29) rotate(-18.31)"/>
        <rect class="cls-10" x="262.86" y="346.58" width=".34" height="5.44" transform="translate(-96.43 100.33) rotate(-18.31)"/>
        <rect class="cls-10" x="276.33" y="338.8" width=".34" height="5.44" transform="translate(-157.16 270.62) rotate(-41.72)"/>
      </g>
      <g id="Chair">
        <g>
          <path class="cls-44" d="M165.22,300.17l-11.68-67.36-7.39-.37,15.35,67.72h0c.04,.23,.19,.47,.49,.66,.71,.46,1.88,.52,2.63,.13,.4-.2,.59-.49,.58-.78h0Z"/>
          <path class="cls-10" d="M55.37,221.75h-7.4l-17.39,69.97h0c-.02,.29,.15,.59,.54,.81,.73,.42,1.91,.42,2.64,0,.31-.18,.48-.4,.53-.64h0s21.07-70.14,21.07-70.14Z"/>
          <path class="cls-10" d="M106.53,332.27l-.33-75.44-7.39-.37,4,75.8h0c.04,.23,.19,.47,.49,.66,.71,.46,1.88,.52,2.63,.13,.4-.2,.59-.49,.58-.78h0Z"/>
          <path class="cls-44" d="M100.14,192.76h-7.4l-11.49,72.31h0c-.02,.29,.15,.59,.54,.81,.73,.42,1.91,.42,2.64,0,.31-.18,.48-.4,.52-.64h0s15.17-72.49,15.17-72.49Z"/>
        </g>
        <g id="Chair-2" data-name="Chair">
          <path class="cls-8" d="M34.08,140.04c-1.48,3.46-2.5,7.69-2.95,12.98-.84,9.96,2.52,42.19,4.55,56.61h0c2.93,24.08,6.52,24.12,11.74,28.15,8.98,6.94,34.8,20.53,43.32,23.89,15.45,6.08,28.09-3.3,37.51-7.95,9.41-4.64,20.98-11.9,24.95-14.78,2.35-1.72,3.57-3.45,3.55-5.27,0-.72,0-3.68,0-4.44,0-2.33-2.05-4.82-6.38-7.62-7.98-5.18-36.83-22-48.01-28.19-.02-.08-.09-.09-.09-.09-8.6-5.22-13.78-40.71-19.73-59.6-.13-.4-.25-.79-.38-1.17-.1-.3-.21-.59-.31-.88-.38-1.03-.76-1.97-1.17-2.83"/>
          <path class="cls-8" d="M156.73,229.24c0-2.33-2.05-4.82-6.38-7.62-7.98-5.18-36.83-22-48.01-28.19-.02-.08-.09-.09-.09-.09-8.6-5.22-13.78-40.71-19.73-59.6-.06-.18-.48-1.63-1.25-3.47-.04-.09-.07-.17-.11-.25-.11-.25-.22-.51-.34-.77-.06-.13-.11-.26-.17-.38h0c-.96-2.03-2.29-4.26-3.98-5.74-.14-.13-.81-.78-1.95-1.37-.97-.55-3-1.68-3.51-1.97-5.84-3.5-13.51,.7-23.06,5.93-5.94,3.26-11.01,7.13-14.09,14.34h0c-1.48,3.46-2.5,7.69-2.95,12.98-.85,9.96,2.52,42.19,4.55,56.61h0c2.93,24.08,6.52,24.12,11.74,28.15,8.98,6.94,34.8,20.53,43.32,23.89,15.45,6.08,28.09-3.3,37.51-7.95,9.41-4.64,20.98-11.9,24.95-14.78,2.35-1.72,3.57-3.45,3.55-5.27,0-.72,0-3.68,0-4.44Z"/>
          <path class="cls-9" d="M156.73,229.24c0-2.33-2.05-4.82-6.38-7.62-7.98-5.18-36.83-22-48.01-28.19-.02-.08-.09-.09-.09-.09-8.6-5.22-13.78-40.71-19.73-59.6-.06-.18-.48-1.63-1.25-3.47-.04-.09-.07-.17-.11-.25-.11-.25-.22-.51-.34-.77-.06-.13-.11-.26-.17-.38h0c-.96-2.03-2.29-4.26-3.98-5.74-.14-.13-.81-.78-1.95-1.37-.97-.55-3-1.68-3.51-1.97-5.84-3.5-13.51,.7-23.06,5.93-5.94,3.26-11.01,7.13-14.09,14.34h0c-1.48,3.46-2.5,7.69-2.95,12.98-.85,9.96,2.52,42.19,4.55,56.61h0c2.93,24.08,6.52,24.12,11.74,28.15,8.98,6.94,34.8,20.53,43.32,23.89,15.45,6.08,28.09-3.3,37.51-7.95,9.41-4.64,20.98-11.9,24.95-14.78,2.35-1.72,3.57-3.45,3.55-5.27,0-.72,0-3.68,0-4.44Z"/>
          <g>
            <path class="cls-8" d="M128.23,249.25c9.41-4.65,20.99-11.9,24.95-14.78,5.36-3.89,4.86-7.87-2.81-12.85-10.67-6.92-54.14-31.59-54.14-31.59,0,0-54.97,32.44-52.6,38.43,2.36,5.99,36.39,24.52,47.11,28.74,15.46,6.08,28.09-3.29,37.51-7.94Z"/>
            <path class="cls-6" d="M128.23,249.25c9.41-4.65,20.99-11.9,24.95-14.78,5.36-3.89,4.86-7.87-2.81-12.85-10.67-6.92-54.14-31.59-54.14-31.59,0,0-54.97,32.44-52.6,38.43,2.36,5.99,36.39,24.52,47.11,28.74,15.46,6.08,28.09-3.29,37.51-7.94Z"/>
          </g>
          <path class="cls-8" d="M74.73,121.75c-5.79-3.04-13.31,1.09-22.61,6.19-5.96,3.27-11.03,7.14-14.12,14.38l-3.93-2.27c3.08-7.21,8.15-11.08,14.09-14.34,9.55-5.23,17.21-9.43,23.06-5.93,.51,.3,2.54,1.43,3.51,1.97Z"/>
          <path class="cls-9" d="M74.73,121.75c-5.79-3.04-13.31,1.09-22.61,6.19-5.96,3.27-11.03,7.14-14.12,14.38l-3.93-2.27c3.08-7.21,8.15-11.08,14.09-14.34,9.55-5.23,17.21-9.43,23.06-5.93,.51,.3,2.54,1.43,3.51,1.97Z"/>
          <g>
            <path class="cls-8" d="M82.53,133.73c-.13-.4-2.12-7.33-5.85-10.62-.28-.24-2.55-2.41-6.32-2.41-5.05,0-11.12,3.34-18.23,7.23-.59,.33-1.18,.66-1.76,1-.23,.13-.44,.26-.66,.39-.27,.16-.53,.33-.79,.49-.19,.12-.38,.24-.58,.38-1.25,.83-2.45,1.73-3.58,2.72-.18,.16-.36,.32-.54,.49-.71,.65-1.39,1.36-2.03,2.11-.12,.13-.23,.27-.34,.4-.13,.17-.28,.33-.4,.5-.13,.17-.26,.34-.39,.52-.13,.17-.25,.34-.38,.53-.5,.72-.98,1.47-1.42,2.28-.06,.1-.12,.2-.17,.3-.12,.21-.23,.43-.33,.64-.16,.32-.31,.64-.46,.95-1.62,3.57-2.74,7.99-3.22,13.61-1.38,16.36,4.22,70.41,9.84,75.07,0,0-.86-5.29,10.45-12.41,7.69-4.84,13.09-8.9,21.29-12.93,20-9.82,25.6-11.66,25.6-11.66-8.6-5.22-13.78-40.71-19.73-59.6Z"/>
            <path class="cls-13" d="M82.53,133.73c-.13-.4-2.12-7.33-5.85-10.62-.28-.24-2.55-2.41-6.32-2.41-5.05,0-11.12,3.34-18.23,7.23-.59,.33-1.18,.66-1.76,1-.23,.13-.44,.26-.66,.39-.27,.16-.53,.33-.79,.49-.19,.12-.38,.24-.58,.38-1.25,.83-2.45,1.73-3.58,2.72-.18,.16-.36,.32-.54,.49-.71,.65-1.39,1.36-2.03,2.11-.12,.13-.23,.27-.34,.4-.13,.17-.28,.33-.4,.5-.13,.17-.26,.34-.39,.52-.13,.17-.25,.34-.38,.53-.5,.72-.98,1.47-1.42,2.28-.06,.1-.12,.2-.17,.3-.12,.21-.23,.43-.33,.64-.16,.32-.31,.64-.46,.95-1.62,3.57-2.74,7.99-3.22,13.61-1.38,16.36,4.22,70.41,9.84,75.07,0,0-.86-5.29,10.45-12.41,7.69-4.84,13.09-8.9,21.29-12.93,20-9.82,25.6-11.66,25.6-11.66-8.6-5.22-13.78-40.71-19.73-59.6Z"/>
          </g>
        </g>
      </g>
      <g id="Character">
        <g id="Bottom">
          <g id="Bottom-2" data-name="Bottom">
            <g>
              <polygon class="cls-44" points="137.71 324.75 141.55 322.78 137.71 321.77 137.71 324.75"/>
              <path class="cls-44" d="M176.21,331.31s-45.99-20.01-46.51-16.9c-.11,.68-.08,1.3,.05,1.86-.04-.06-.09-.11-.13-.17l.94,5.76s3.31,2.75,7.16,2.88c0-.28,0-2,0-2.98,1.25,.5,2.53,1.1,4.06,2.09,2.96,1.9,4.89,5.28,8.06,9.19,2.31,2.85,6.37,4.13,12.36,4.89,6.45,.82,12.1-.51,13.67-2.28,1.25-1.41,.57-3.95,.34-4.34Z"/>
              <path class="cls-28" d="M174.93,330.26c-.45-.46-2.1-2.24-4.34-4.17-1.95-1.69-4.24-3.83-6.68-5.54-.98-.68-2.47-1.78-3.32-2.67-.81-.85-1.59-1.73-2.31-2.65-2.25-2.87-4.09-6.03-5.66-9.32-.75-1.56-2.1-4.99-1.83-11.4,.41-9.71,1.14-13.22,1.07-19.53l-21.73,3.33c.69,3.49,1.49,11.28,1.89,15.24,.6,6.04,1.49,6.6-.75,12.66-.66,1.79-1.66,3.51-1.72,5.41-.1,3.09,2.36,5.73,5.08,7.19,2.26,1.22,4.84,1.72,7.03,3.02,2.31,1.37,4.11,3.46,5.77,5.53,1.57,1.95,2.84,4.27,5.02,5.63,2.41,1.5,4.7,1.95,7.48,2.47,3.2,.6,7.28,.61,10,.35,4.74-.45,8.24-2.24,4.99-5.56Z"/>
              <path class="cls-10" d="M172.26,326.93c-1.99-1.63-4.82-3.97-8.23-6.6-.76-.37-3.78-1.05-7.07,.76-6.73,3.69-7.8,8.8-7.8,8.8,0,0,1.51,3.41,5.62,4.79,7.89,3.32,21.9,2.01,21.98-1.63,.05-2.31-2.07-4.13-4.49-6.11Zm-40.57-22.02s-.44,1.2-1.6,3.55c-1.16,2.36-1.35,4.69,.18,7,2.02,3.06,4.46,3.97,6.95,4.59,2.07-6.92-2.78-13.7-5.53-15.14Z"/>
            </g>
            <g>
              <path class="cls-44" d="M92.28,322.62c.03,2.5-.58,9.9-.39,15.49,.17,5.07,1.05,12.99-.31,18.9-1.39,6.05-6.57,12.39-13.44,6.69-4.25-3.53-5.92-7.71-6.36-15.02-.31-5.08,1.85-12.05,3.71-18.23,2.17-7.22,3.02-11.09,3.02-11.09l13.77,3.26Z"/>
              <path class="cls-28" d="M78.7,284.96c-.73,11.81,.48,20.13,.41,27.7-.15,3.52-.44,6.49-1.28,10.2-1.09,4.81-2.91,11.49-3.68,14.61-1.08,4.35-1.88,7.09-.47,12.03,.11,.38,.28,.75,.47,1.12,2.03,4.08,7.34,7.24,9.06,6.79,.46,.81,1.67,1.31,3,1.12,.19-.03,.38-.07,.57-.13,.19-.06,.39-.13,.58-.22,1.15-.54,2.26-1.67,2.93-3.66,.11-.33,.21-.68,.3-1.06,1.37-6.06,.54-10.02,.47-12.4-.08-2.75,.15-6.25,.48-10.68,.33-4.43,1.66-18.33,3.33-24.96,1.24-4.62,2.78-10.42,4.4-16.61l-20.59-3.85Z"/>
              <path class="cls-10" d="M73,343.15c4.27-1.78,16.54-1.8,18.38,4.21-.06,5.62-.1,9.44-3.75,14.26-4.85,6.41-10.87-.61-13.14-5.03-2.27-4.42-2.12-10.42-1.49-13.44Z"/>
            </g>
            <path class="cls-10" d="M99.08,118.59c-6.19,10.6-14.53,25.33-15.3,49.32-1.03,31.98-1.7,54.89-1.93,58.75-.23,3.85-2.85,10.87-5.34,29.82-2.49,18.94,.23,55.18,.23,55.18,0,0,2.13,4.31,9.37,5.16,6.68,.78,9.82-2.35,9.82-2.35,0,0,10.59-50.71,13.44-62.08,2.85-11.37,12.58-61.12,12.58-61.12l3.56,30.63s-2.33,10.43-.73,27.14c1.59,16.71,6.88,48.96,6.88,48.96,0,0,3.03,3.2,10.14,2.92,6.51-.26,9.79-3.86,9.79-3.86,0,0,6.23-63.63,6.74-82.51,.51-18.88-.01-66.03-5.2-94.15l-54.04-1.8Z"/>
            <path class="cls-44" d="M127.78,161.04l-5.82,30.22,3.56,30.63,.12-29.08,5.78-28.79c4.58-.97,16.37-8.94,17.37-16.61-6.37,9.96-21.01,13.63-21.01,13.63Zm-34.06,113.57c-1.9,9.81-3.67,19.65-5.32,29.51,2.41-9.71,4.7-19.43,6.85-29.19,2.19-9.76,4.25-19.5,6.3-29.31,1.93-9.84,4.43-32.12,5.52-42.05,1.12-9.94,1.97-19.9,2.7-29.87-1.51,9.88-2.88,19.78-4.25,29.67-1.41,9.88-3.99,32.1-5.94,41.86-2,9.75-4,19.57-5.86,29.38Zm55.89-70.85c.08,4.34,.22,8.7,.03,12.98-.21,4.3-.59,8.65-.92,12.98l-1.01,13.01c-.68,8.67-1.26,17.36-1.74,26.06,1.26-8.62,2.36-17.26,3.31-25.91,.95-8.66,1.85-17.29,2.38-26.05,.21-8.8-.3-17.47-.84-26.18-.57-8.69-1.38-17.37-2.49-26.01l.92,26.09c.12,4.35,.28,8.69,.36,13.03Z"/>
          </g>
        </g>
        <g id="Top">
          <path class="cls-44" d="M102.81,11.78c-5.97,3.19-8.56,7.66-8.86,19.74-.12,4.68,.01,8.84-3.99,11.98-2.14,1.68-4.66,2.91-6.48,4.93-3.03,3.35-3.35,9.14-.04,12.2-2.53,.87-4.29,3.4-4.64,6.06-.35,2.66,.57,5.37,2.1,7.57,1.65,2.36,4.18,4.31,7,4.98,2.18,.52,4.24-.33,6.46-.33,4.02,0,8.04,.09,12.06,.14,5.37,.06,10.73,.12,16.1,.19,4.81,.06,9.5,.92,13.57-2.21,1.67-1.29,2.93-3.3,2.78-5.4,3.37-.51,6.92-1.61,8.99-4.32,2.84-3.75,1.77-9.33-1.02-13.12-1.32-1.79-2.96-3.33-4.25-5.14-2.79-3.92-1.71-8.54-1.47-13.04,.07-1.22-.45-5.72,.36-6.71,0,0,4.43-5.37,4.24-11.15-.19-5.78-3.39-14.48-14.01-17.27-8.85-2.32-26.03-.38-28.9,10.91Z"/>
          <g id="Arm">
            <g>
              <path class="cls-28" d="M191.37,68.12c1.22-2.79,1.82-5.74,1.95-6.58,.91-5.78,2.52-7.28,6.1-11.76,.61-.77,1.24-1.53,1.86-2.28,.3-.37,.62-.73,.87-1.13,.24-.38,.45-.69,1-.54,.39,.11,.68,.43,.89,.77,.7,1.13,.67,2.59,.29,3.86-.38,1.27-1.08,2.43-1.68,3.62-.46,.91,.69,.71,1.22,.53,2.58-.86,5.36-4.18,7.1-6.21,1.14-1.34,2.03-2.88,3.37-4.05,.82-.72,1.82-1.27,2.91-1.38,.74-.08,1.44,.1,1.44,1.03,0,.58-.31,1.1-.56,1.61-.53,1.06-.99,2.02-.59,3.21,.25,.75,.65,1.47,.7,2.26,.06,1.01-.46,1.96-.51,2.97,.51,.22,.76,1.1,.37,2.14-1.34,3.54-2.67,5.77-4.02,7.41-2.06,2.48-3.45,3.76-6.66,5.83-1.48,.96-3.6,2.49-5.2,5.74-1.69,3.44-3.1,7.37-6.52,15.4-4.83,11.34-6.22,16.13-10.72,18.93-3.35,2.08-6.93,.26-15.93-4.02-14.67-6.97-26.57-15.16-26.57-15.16l-1.97-30.46c5.17,1.14,10.26,6.02,17.54,12.66,13.51,12.33,18.55,16.32,18.55,16.32,0,0,13.56-17.94,14.77-20.73Z"/>
              <path class="cls-12" d="M201.92,56.3c1.72,6.34-.7,9.9-2.16,12.17,0,0,3.26-2.04,3.82-5.28,.62-3.55-.71-5.54-1.66-6.88Z"/>
            </g>
            <g>
              <path class="cls-25" d="M183.74,78.65l2.38-3.43s1.64,3.97,4.83,6.88c3.61,3.29,7.27,3.73,7.27,3.73l-1.92,4.33s-4.11-.54-7.27-2.91c-3.17-2.38-5.3-8.59-5.3-8.59Z"/>
              <path class="cls-41" d="M138.62,58.38c7.32,.89,11.89,5.87,16.52,10.08,6.45,5.88,21.03,18.74,21.03,18.74l8.4-10.13s.89,3.75,4.55,6.98c3.66,3.23,8.15,4.21,8.15,4.21,0,0-4.64,11.69-7.64,17.18-3,5.49-6.13,8.59-14.67,5.41-5.01-1.86-34.43-19.67-34.43-19.67l-1.91-32.8Z"/>
              <path class="cls-26" d="M176.16,87.2c-1.62,2.3-2.49,7.47-2.25,10.47-1.05-3.07-1.18-8.22,1.04-11.53l1.2,1.06Z"/>
            </g>
          </g>
          <path id="Chest" class="cls-33" d="M92.24,130.48c.67-4.86,4.06-5.58,2.41-17.2-.82-5.75-3.7-20.62-3.7-20.62,0,0,9.89-7.63,6.71-29.87l10.64-4.28,5.8-2.05,16.21,.68,8.32,2.28c2.86,2.45,8.08,6.32,12.29,12.26,6.07,8.57,7.16,18,.96,25.05-.07,1.37,.18,22.57,1.78,27.73,.63,2.05,1.5,4.84,.16,7.59-5.97,9.79-41.36,19.77-61.58-1.58Z"/>
          <g>
            <g>
              <path class="cls-8" d="M130.32,57.14l8.3,1.24c7.98,6.03,17.47,16.9,18,25.27,.53,8.37-3.72,14.03-3.72,14.03,0,0-.12,17.01,1.83,26,1.95,8.98,4.1,33.04,4.1,33.04,0,0,.17,1.5-6.5,3.38-2.04-11.53-7.1-53.82-6.82-63.97,.28-10.15,.47-26.18-15.19-38.98Z"/>
              <path class="cls-16" d="M130.32,57.14l8.3,1.24c7.98,6.03,17.47,16.9,18,25.27,.53,8.37-3.72,14.03-3.72,14.03,0,0-.12,17.01,1.83,26,1.95,8.98,4.1,33.04,4.1,33.04,0,0,.17,1.5-6.5,3.38-2.04-11.53-7.1-53.82-6.82-63.97,.28-10.15,.47-26.18-15.19-38.98Z"/>
              <path class="cls-18" d="M146.76,100.84c.66-2.7,1.38-5.37,2.11-8.05,.74-2.67,1.44-5.35,2.1-8.03,.32-1.34,.62-2.69,.76-4.03,.2-1.27-.7-2.33-1.6-3.33-1.86-1.96-4.1-3.63-6.38-5.14l-.21-.14,.05-.25c.26-1.42,.21-2.95-.02-4.4-.24-1.46-.75-2.89-1.53-4.14-.82-1.23-1.91-2.29-3.12-3.19-1.21-.91-2.53-1.66-3.92-2.3,1.44,.51,2.81,1.2,4.09,2.05,1.29,.83,2.46,1.88,3.37,3.16,.88,1.3,1.45,2.77,1.77,4.31,.3,1.54,.35,3.1,.09,4.68l-.17-.39c2.34,1.53,4.62,3.15,6.58,5.22,.48,.52,.93,1.09,1.3,1.73,.11,.15,.16,.34,.24,.51,.07,.18,.16,.35,.18,.56,.1,.42,.06,.78,.04,1.15-.16,1.43-.49,2.78-.83,4.13-.68,2.7-1.53,5.34-2.35,7.99-.83,2.65-1.71,5.27-2.57,7.91Z"/>
            </g>
            <g>
              <path class="cls-8" d="M108.31,58.51s3.49,4.49,8.11,15.06c4.62,10.57,9.08,20.17,9,29.96-.08,9.79-3.28,60.4-3.28,60.4,0,0-14.03,2.11-26.74-3l1.04-19.6-4.81,18.68s-6.08-2.18-8.33-4.21c3.31-20.38,10.73-30.05,11.1-37.58,.25-5.17-4.13-19.49-4.97-32.4-.73-11.25,1.54-22.61,1.54-22.61l17.34-4.69Z"/>
              <path class="cls-29" d="M108.31,58.51s3.49,4.49,8.11,15.06c4.62,10.57,9.08,20.17,9,29.96-.08,9.79-3.28,60.4-3.28,60.4,0,0-14.03,2.11-26.74-3l1.04-19.6-4.81,18.68s-6.08-2.18-8.33-4.21c3.31-20.38,10.73-30.05,11.1-37.58,.25-5.17-4.13-19.49-4.97-32.4-.73-11.25,1.54-22.61,1.54-22.61l17.34-4.69Z"/>
              <path class="cls-18" d="M123.57,106.44c-.78-2.51-2.28-4.69-3.86-6.76-1.57-2.08-3.3-4.05-5.07-5.97-.87-.97-1.76-1.93-2.66-2.88l-1.35-1.43c-.23-.25-.45-.47-.68-.76-.06-.08-.11-.11-.18-.23-.06-.12-.12-.24-.17-.37-.07-.24-.06-.44-.07-.66,.17-1.52,.79-2.69,1.37-3.9,.62-1.18,1.29-2.32,2.01-3.44l.07,.65-4.01-4.05-1.99-2.04-.49-.52-.25-.26c-.08-.1-.15-.11-.34-.41-.15-.39-.1-.62-.1-.89,.01-.26,.04-.5,.08-.75,.32-1.93,.82-3.77,1.37-5.61,.56-1.83,1.14-3.65,1.79-5.45-.45,1.86-.93,3.71-1.34,5.57-.4,1.86-.86,3.72-1.07,5.58-.05,.43-.07,1,.02,1.2-.07-.1,.05,.05,.14,.12l.26,.25,.52,.5,2.06,2,4.11,4.03,.29,.29-.23,.36c-.68,1.09-1.33,2.23-1.91,3.38-.56,1.13-1.17,2.35-1.3,3.46,.01,.11,0,.24,.02,.31,.02,.02,.02,.05,.03,.08,0,.03,.08,.11,.12,.16,.18,.23,.42,.48,.62,.71l1.33,1.45c.89,.97,1.77,1.95,2.63,2.94,1.7,2.01,3.35,4.07,4.85,6.25,.75,1.09,1.42,2.23,2.03,3.4,.6,1.17,1.1,2.42,1.34,3.71Z"/>
            </g>
          </g>
          <g id="Arm-2" data-name="Arm">
            <g>
              <path class="cls-12" d="M81.88,160.54c-1.34-1.4-3.04-2.62-3.63-4.54-.3-.99-.23-2.14,.41-2.96,.13-.17,.29-.33,.34-.54,.04-.17,0-.36-.04-.53-.15-.73-.21-1.52,.1-2.2,.26-.58,.77-1.03,1.38-1.22-.37-1.06-.39-2.25-.04-3.32,.41-1.27,1.69-2.3,2.57-.91,.43,.68,.75,1.43,1.03,2.18,.7,1.88,1.14,3.87,1.38,5.86,.26,2.08,.88,7.97-2.35,8.32-.25,.03-.96,.06-1.15-.14Z"/>
              <path class="cls-28" d="M94,64.39c-12.39,2.61-13.56,6.54-20.75,16.9-7.1,10.22-16.19,24.49-18.4,29.5-2.73,6.21-3.29,8.58,3.43,14.99,3.46,3.3,8.28,7.22,13.19,11.66,3.87,3.5,8.53,7.2,12.28,10.83,1,.96,1.52,1.92,1.22,3.37-.17,.84-.52,1.65-.6,2.51-.1,1.1,.26,2.19,.33,3.3,.08,1.11-.25,2.38-1.24,2.87-.48,.24-1.04,.25-1.57,.22,.96,.65,1.96,1.26,3.07,1.59,1.11,.33,2.35,.34,3.39-.18,1-.51,1.74-1.49,2.81-1.83,.58-.19,1.2-.17,1.79-.34,.6-.17,1.14-.54,1.52-1.04,.6-.79,.83-1.9,1.69-2.4,.41-.23,.9-.28,1.33-.47,.89-.38,1.44-1.31,1.62-2.26,.18-.95,.03-1.93-.13-2.88-.44-2.56-1.02-5.09-1.73-7.59-.25-.86-.76-1.6-1.28-2.32-.6-.83-1.18-1.68-1.82-2.47-4.39-5.36-18.32-23.23-18.32-23.23l15.38-20.16s11.24-13.02,2.8-30.58Z"/>
              <path class="cls-24" d="M75.81,115.14c-3.7,3.79-9.57,4.21-11.73,4.12,7.69,2.95,12.99-2.51,12.99-2.51l-1.26-1.61Z"/>
            </g>
            <path class="cls-25" d="M67.97,134.4l3.49,3.03s4.76-.38,8.54-4.91c3.88-4.65,3.58-8.04,3.58-8.04l-4.05-4.58-11.56,14.5Z"/>
            <path class="cls-37" d="M94.14,62.37c-8.9,1.95-10.55,3.13-16.91,12.04-6.36,8.91-17.1,25.9-19.89,30.29-2.79,4.39-6.96,11.98-4.55,15.78,2.41,3.8,15.64,14.96,15.64,14.96,0,0,4.48-.21,8.85-4.71,4.54-4.67,4.18-9.44,4.18-9.44l-4.9-6.15s13.72-17.68,16.21-20.95c2.48-3.27,7.97-14.3,1.39-31.8Z"/>
            <path class="cls-26" d="M76.54,115.12c-1.78-2.01-6.13-5.27-9.31-5.82,3.33-.58,8.31,1.8,10.65,4l-1.34,1.82Z"/>
          </g>
          <g id="Head">
            <g>
              <path class="cls-28" d="M101.05,31.35c1.56-1.82,4.77-2.61,6.37-.16,.99,1.52,1.28,4.08,2.75,3.68,.9-.24,1.21-1.32,.85-3.27,1.9-.48,3.27-3.21,2.85-6.29-1.02-7.43,3.34-12.48,9.71-10.12,2.57-3.66,7.61-4.84,12.6-2.24,3.23,1.68,6.35,5.69,6.63,19.66,.23,11.81-1.47,14.94-3.93,17-2.12,1.76-5.8,2.48-9.67,2.47l.05,6.71s3.72,4.11,1.01,10.26c0,0-6.17-.72-11.01-3.07-7.83-3.8-9.35-7.7-9.35-7.7l-.06-17.73s-2.18,3.91-6.3,.77c-3.41-2.59-4.82-7.25-2.49-9.96Z"/>
              <g>
                <path class="cls-12" d="M129.2,52.07c-7.41,.04-13.8-1.84-16.02-5.16,0,0,.26,1.9,3.4,4.22,3.42,2.52,12.63,3.28,12.63,3.28l-.02-2.34Z"/>
                <path class="cls-44" d="M121.21,27.9c-.13,1.05,.63,2.01,1.68,2.13,1.05,.13,2.01-.63,2.13-1.68,.13-1.05-.63-2.01-1.68-2.13-1.05-.13-2.01,.63-2.13,1.68Z"/>
                <path class="cls-44" d="M135.05,28c.31,1.01,1.39,1.58,2.4,1.26,1.01-.31,1.58-1.39,1.26-2.4-.31-1.01-1.39-1.58-2.4-1.26-1.01,.31-1.58,1.39-1.26,2.4Z"/>
                <g>
                  <path class="cls-44" d="M122.91,22.2l-3.88,2.62c-.71-1.12-.41-2.61,.66-3.34,1.07-.72,2.52-.4,3.22,.72Z"/>
                  <path class="cls-44" d="M135.38,21.73l4.15,2.17c.58-1.19,.12-2.64-1.03-3.24-1.15-.6-2.54-.12-3.12,1.07Z"/>
                  <path class="cls-31" d="M132.62,40.84l-6.52-1.85c-.47,1.86,.61,3.78,2.41,4.29,1.8,.51,3.64-.58,4.11-2.44Z"/>
                  <path class="cls-24" d="M130.56,43.18c-.45-1.8-2.12-3.08-4.04-2.97-.17,0-.33,.05-.5,.08,.16,1.38,1.11,2.6,2.49,2.99,.71,.2,1.42,.15,2.05-.1Z"/>
                  <polygon class="cls-12" points="128.49 25.74 130.41 36.61 136.27 34.02 128.49 25.74"/>
                </g>
              </g>
            </g>
          </g>
          <g>
            <path class="cls-7" d="M107.92,28.48l-6.24,.28s-1.32-6.38-1.94-10.03c-.12-.7-.21-1.32-.24-1.79-.01-.21-.03-.41-.04-.62-.17-2.6,.16-6.26,2.8-8.66,1.92-1.74,3.74-2.67,6.01-3.4-.9,.59-1.58,1.33-2.28,2.05-.7,.73-2.08,2.4-2.28,3.84-.05,.38-.03,.89,.03,1.5,.08,.67,.21,1.46,.39,2.33,1.05,5.09,3.8,14.5,3.8,14.5Z"/>
            <g>
              <g>
                <path class="cls-10" d="M111.38,39.1c1.18-4.05-.23-9.82-3.15-12.87-.86-.9-1.77-1.49-2.7-1.76-.69-.2-1.35-.21-1.97-.06-.36,.09-1.8,.44-2.17,.53-1.47,.37-2.68,1.7-3.28,3.77-1.18,4.05,.23,9.82,3.15,12.87,.86,.9,1.77,1.49,2.7,1.76,.69,.2,1.36,.21,1.98,.06,.35-.09,1.78-.43,2.14-.52,1.48-.36,2.69-1.7,3.29-3.77Z"/>
                <path class="cls-44" d="M103.96,43.34c-.94-.27-1.85-.87-2.7-1.76-2.92-3.05-4.33-8.82-3.15-12.87,.86-2.94,2.92-4.39,5.26-3.71,.94,.27,1.85,.87,2.7,1.76,2.92,3.05,4.33,8.82,3.15,12.87-.86,2.94-2.92,4.39-5.26,3.71Z"/>
              </g>
              <g>
                <path class="cls-25" d="M108.77,39.5c1.14-3.91-.22-9.47-3.03-12.41-1.41-1.47-2.92-2.01-4.21-1.69-.18,.04-.89,.22-1.07,.26-1.3,.32-2.39,1.49-2.96,3.45-1.14,3.91,.22,9.47,3.04,12.41,1.41,1.47,2.91,2.01,4.21,1.69,.18-.04,.9-.22,1.08-.26,1.3-.32,2.38-1.49,2.95-3.44Z"/>
                <path class="cls-19" d="M104.65,27.35c2.82,2.94,4.18,8.5,3.03,12.41-1.14,3.91-4.35,4.7-7.17,1.75-2.82-2.94-4.18-8.5-3.04-12.41,1.14-3.91,4.35-4.7,7.17-1.75Z"/>
              </g>
              <g>
                <path class="cls-40" d="M107.69,39.76c1.14-3.91-.22-9.47-3.03-12.41-1.41-1.47-2.91-2.01-4.21-1.69-.36,.09-1.03,.3-1.39,.39-1.3,.32-2.38,1.49-2.95,3.44-1.14,3.91,.22,9.47,3.04,12.41,1.41,1.47,2.91,2.01,4.21,1.69,.36-.09,1.03-.3,1.39-.39,1.3-.32,2.38-1.49,2.95-3.44Z"/>
                <path class="cls-35" d="M103.27,27.73c2.82,2.94,4.18,8.5,3.03,12.41-1.14,3.91-4.35,4.7-7.17,1.75-2.82-2.94-4.18-8.5-3.04-12.41,1.14-3.91,4.35-4.7,7.17-1.75Z"/>
              </g>
              <g>
                <path class="cls-44" d="M101.51,31.42c1.48,1.55,2.19,4.47,1.59,6.52-.6,2.05-2.28,2.47-3.76,.92-1.48-1.55-2.19-4.47-1.59-6.52,.6-2.05,2.28-2.47,3.76-.92Z"/>
                <g>
                  <path class="cls-7" d="M102.72,33.83l-2.46,1.35-1.13-4.61c.68-.17,1.47,.11,2.21,.89,.59,.62,1.06,1.46,1.38,2.37Z"/>
                  <path class="cls-10" d="M102.94,37.98c-.3,1.03-.87,1.64-1.55,1.81l-1.13-4.61,2.46-1.35c.47,1.37,.58,2.92,.22,4.15Z"/>
                  <path class="cls-7" d="M101.39,39.78c-.68,.17-1.47-.11-2.21-.89-.59-.62-1.06-1.46-1.37-2.37l2.46-1.35,1.13,4.61Z"/>
                  <path class="cls-10" d="M100.26,35.18l-2.46,1.35c-.47-1.37-.58-2.91-.22-4.14,.3-1.03,.87-1.64,1.55-1.81l1.13,4.61Z"/>
                </g>
              </g>
            </g>
          </g>
          <g>
            <path d="M142.83,34.83c.65,.31,2.51,1.26,4.06,2.53,1.91,1.57,1.7,3.9,.68,5.28l-1.59-.52s1.07-1.81,.22-2.95c-.86-1.14-3.4-2.27-3.4-2.27,0,0,.03-1.5,.03-2.08Z"/>
            <path class="cls-8" d="M147.02,41.51c-1.24-.8-1.98-.06-3.19,2.07-1.21,2.13-.64,2.82,.44,3.41,1.08,.58,2.05-.06,2.97-1.83,1.04-1.99,1.12-2.78-.22-3.65Z"/>
            <path class="cls-30" d="M147.02,41.51c-1.24-.8-1.98-.06-3.19,2.07-1.21,2.13-.64,2.82,.44,3.41,1.08,.58,2.05-.06,2.97-1.83,1.04-1.99,1.12-2.79-.22-3.65Z"/>
          </g>
        </g>
      </g>
      <g id="Speech_Bubble-5" data-name="Speech Bubble">
        <g id="Speech_Bubble-6" data-name="Speech Bubble">
          <path class="cls-2" d="M368.69,77.05c-25.19,2.02-43.97,24.07-41.95,49.26,.77,9.54,4.41,18.16,10.01,25.08l-4.55,12.67c-.39,1.09,.65,2.14,1.74,1.77l13.71-4.68c8.13,5.23,17.98,7.93,28.36,7.1,25.19-2.02,43.97-24.07,41.95-49.26-2.02-25.19-24.07-43.97-49.26-41.95Z"/>
          <path class="cls-7" d="M376.07,169.08c-10.11,.81-19.97-1.61-28.53-7.02l-13.33,4.55c-.81,.28-1.69,.07-2.29-.54-.6-.61-.79-1.49-.5-2.29l4.4-12.24c-5.73-7.24-9.15-15.93-9.89-25.17-2.05-25.6,17.11-48.1,42.71-50.15,25.6-2.05,48.1,17.11,50.15,42.71,2.05,25.6-17.11,48.1-42.71,50.15Zm-28.31-8.85l.34,.22c8.33,5.35,17.96,7.77,27.84,6.97,24.69-1.98,43.16-23.68,41.18-48.36-1.98-24.69-23.68-43.16-48.36-41.18-24.69,1.98-43.16,23.68-41.18,48.36,.73,9.06,4.12,17.57,9.82,24.62l.29,.36-4.71,13.11c-.1,.29,.05,.49,.12,.57,.07,.07,.27,.23,.57,.13l14.09-4.8Z"/>
        </g>
        <path class="cls-47" d="M377.27,133.29c.08,.1,.19,.14,.31,.14h2.34c.12,0,.25-.05,.36-.14,.12-.09,.17-.21,.21-.34l.38-1.8h1.36c.12,0,.25-.05,.36-.14,.12-.09,.19-.21,.22-.33l.41-1.89c0-.12,0-.23-.08-.32-.07-.1-.17-.14-.31-.14h-1.34l1.46-6.83c.02-.14-.02-.23-.09-.34-.07-.08-.17-.13-.31-.13h-3.04c-.14,0-.28,0-.37,.05-.1,.05-.22,.14-.35,.25l-6.74,6.71c-.19,.21-.33,.45-.38,.75l-.41,1.89c-.03,.13,0,.24,.06,.33,.09,.1,.18,.14,.31,.14h5.95l-.39,1.8c-.03,.14,0,.25,.08,.34Zm-1.57-4.99l3.27-3.27-.69,3.27h-2.57Zm-17.56-24.52c-.35,.2-.48,.66-.27,1.01l1.61,2.8c.14,.23,.39,.37,.64,.37,.13,0,.25-.03,.37-.1,.36-.21,.48-.66,.27-1.01l-1.61-2.8c-.21-.36-.66-.48-1.01-.27Zm10.5-2.34v4.98c0,.41,.33,.74,.74,.74s.74-.32,.74-.74v-4.98c0-.41-.32-.74-.74-.74s-.74,.33-.74,.74Zm-14.89,11.96l-2.81-1.61c-.35-.21-.8-.08-1.01,.27-.2,.35-.08,.8,.27,1.01l2.81,1.61c.12,.07,.24,.1,.37,.1,.25,0,.51-.14,.64-.37,.2-.35,.08-.8-.27-1.01Zm-9.26,23.2c.25-.18,.52-.34,.82-.49-.02-.04-.04-.06-.05-.1-2.82-5.45-3.83-11.76-2.8-17.71,.9-5.98,4.02-11.45,8.26-15.55,4.36-4,9.9-6.69,15.7-7.23,5.79-.67,11.69,.66,16.58,3.58,3,1.8,5.58,4.2,7.63,6.96l-5.9,.02c-.88,0-1.13,1.2-.33,1.56l13.43,6.06c1.43,.64,3.07-.28,3.27-1.83l1.89-14.7c.11-.88-1.06-1.28-1.52-.52l-3.65,6.06c-3.01-4.07-6.89-7.47-11.33-9.82-6.41-3.38-13.87-4.6-20.89-3.42-7.08,1.05-13.59,4.66-18.47,9.67-4.77,5.12-8.02,11.69-8.7,18.59-.83,6.86,.71,13.89,4.16,19.76,.14,.24,.3,.49,.45,.72,.04-.08,.09-.17,.14-.25,.33-.52,.77-.99,1.3-1.37Zm8.2-14.01h-4.98c-.41,0-.74,.32-.74,.74s.33,.74,.74,.74h4.98c.41,0,.75-.33,.75-.74s-.33-.74-.75-.74Zm33.65,12.15c.14-.12,.25-.24,.33-.36l9.04-14.37c.07-.12,.09-.23,.05-.36-.04-.13-.13-.19-.28-.19h-2.56c-.23,0-.41,.05-.56,.17-.14,.11-.26,.23-.34,.36l-9.01,14.37c-.07,.12-.08,.24-.05,.37,.05,.13,.14,.18,.3,.18h2.52c.24,0,.43-.05,.57-.17Zm19.4-13.61c-.07-.09-.18-.14-.31-.14h-8.5c-.13,0-.25,.05-.36,.14-.12,.1-.18,.21-.21,.34l-.41,1.88c-.03,.14,0,.24,.07,.34,.07,.09,.17,.14,.3,.14h5.12l-5.77,9.03c-.05,.09-.07,.22-.05,.35,.04,.14,.14,.22,.33,.22h2.66c.14,0,.26-.05,.36-.14,.09-.09,.17-.18,.24-.29l5.76-8.98c.14-.2,.24-.37,.32-.52,.08-.14,.14-.27,.16-.38l.35-1.65c.03-.14,0-.24-.08-.34Zm-35.01,2.44c-.13-.52-.37-.98-.72-1.39-.36-.41-.81-.74-1.37-.99-.56-.24-1.21-.37-1.96-.37-.92,0-1.71,.13-2.37,.37-.65,.25-1.2,.58-1.65,.97-.44,.41-.79,.86-1.05,1.34-.25,.5-.44,.98-.56,1.49-.03,.1,0,.2,.06,.27,.06,.08,.15,.12,.26,.12h2.18c.16,0,.32-.03,.45-.08s.25-.16,.34-.32c.04-.07,.1-.18,.18-.33,.08-.14,.2-.29,.35-.43,.14-.14,.33-.27,.56-.38,.22-.12,.5-.17,.83-.17s.59,.05,.77,.16c.17,.1,.3,.23,.37,.38s.11,.3,.11,.44c0,.15,0,.26-.04,.35-.03,.12-.05,.23-.09,.37-.04,.13-.09,.26-.18,.39-.08,.14-.2,.27-.34,.41-.14,.15-.34,.31-.58,.46l-6.03,3.74c-.21,.14-.38,.29-.5,.48-.12,.19-.19,.39-.23,.57l-.34,1.53c-.02,.13,0,.24,.08,.33,.08,.1,.18,.14,.32,.14h9.2c.13,0,.25-.05,.36-.14,.12-.09,.18-.21,.21-.33l.41-1.89c.03-.13,0-.24-.07-.33-.07-.1-.17-.14-.3-.14h-4.11l2.79-1.63c.47-.3,.87-.6,1.17-.9,.31-.3,.56-.6,.76-.92,.19-.32,.34-.63,.46-.97,.11-.32,.21-.66,.27-1,.13-.54,.12-1.07-.02-1.6Zm-19.67,14.58c-.31-.26-.68-.47-1.12-.63s-.92-.24-1.45-.24c-.64,0-1.21,.07-1.69,.21-.49,.14-.9,.34-1.24,.58-.34,.25-.62,.54-.83,.87s-.35,.69-.43,1.07c-.17,.76-.09,1.38,.23,1.87,.32,.49,.92,.83,1.78,1.02,.46,.11,.86,.2,1.2,.27,.34,.07,.62,.15,.84,.23,.22,.08,.38,.17,.47,.26,.09,.09,.13,.2,.1,.34-.06,.26-.26,.45-.6,.55-.34,.1-.74,.15-1.2,.15-.27,0-.48-.03-.65-.09-.17-.06-.3-.13-.4-.22-.1-.08-.18-.17-.23-.24-.05-.08-.09-.14-.13-.17-.05-.06-.11-.11-.18-.14-.07-.03-.16-.05-.28-.05h-1.73c-.07,0-.14,.03-.21,.09-.07,.06-.11,.13-.13,.21-.03,.34,.05,.67,.22,1,.18,.33,.43,.62,.76,.88,.33,.26,.72,.46,1.17,.62,.45,.16,.95,.24,1.48,.24,1.32,0,2.37-.23,3.13-.7,.76-.47,1.24-1.15,1.44-2.05,.18-.83,.07-1.47-.32-1.92-.39-.45-1.05-.78-1.97-.98-.47-.1-.86-.18-1.17-.26-.31-.07-.56-.15-.74-.23-.18-.08-.3-.17-.36-.26-.06-.09-.08-.21-.05-.34,.03-.13,.08-.24,.17-.33,.09-.09,.2-.16,.33-.2s.28-.08,.44-.11c.16-.02,.32-.03,.49-.03,.23,0,.42,.02,.57,.07,.15,.05,.27,.11,.36,.17,.09,.07,.15,.13,.2,.19,.04,.06,.08,.11,.11,.13,.07,.07,.14,.12,.21,.16,.07,.04,.16,.05,.28,.05h1.73c.07,0,.14-.03,.21-.09,.07-.06,.11-.13,.13-.21,.02-.29-.05-.59-.21-.89-.16-.3-.39-.58-.7-.84Zm28.34-.58c0-.11-.08-.16-.22-.16h-1.77c-.18,0-.31,.04-.4,.11-.09,.07-.15,.15-.18,.22l-3.08,5.82-.6-5.82c0-.07-.04-.14-.1-.22-.06-.07-.17-.11-.35-.11h-1.6c-.27,0-.38,.15-.34,.46l.94,8.27c.04,.35,.24,.53,.6,.53h1.79c.33,0,.6-.18,.81-.53l4.46-8.27c.05-.1,.07-.2,.07-.3Zm3.36-.16h-1.73c-.1,0-.19,.04-.27,.11-.08,.07-.13,.15-.15,.25l-1.83,8.55c-.02,.1,0,.18,.06,.25,.06,.07,.13,.11,.23,.11h1.73c.1,0,.19-.04,.27-.11,.08-.07,.13-.15,.15-.25l1.83-8.55c.02-.1,0-.18-.06-.25s-.13-.11-.23-.11Zm-13.82,.81c-.3-.26-.67-.47-1.11-.6-.44-.14-.92-.21-1.43-.21h-3.45c-.1,0-.19,.04-.27,.11s-.13,.15-.15,.25l-1.83,8.55c-.02,.1,0,.18,.06,.25,.06,.07,.13,.11,.23,.11h1.73c.1,0,.19-.04,.27-.11,.08-.07,.13-.15,.15-.25l.61-2.83h1.35l.86,2.83c.03,.08,.07,.16,.13,.24,.06,.08,.18,.12,.36,.12h1.67c.08,0,.15-.03,.22-.09,.07-.06,.11-.13,.13-.21,0-.05,0-.1,0-.15l-.98-3.15c.56-.23,1.01-.54,1.38-.93,.36-.39,.61-.92,.75-1.58,.11-.51,.1-.97-.03-1.36-.13-.4-.34-.73-.64-.99Zm-1.76,2.22c-.08,.37-.26,.63-.53,.77-.27,.14-.6,.21-.97,.21h-1.5l.41-1.96h1.5c.37,0,.66,.07,.87,.21,.21,.14,.28,.4,.21,.77Zm24.2-2.21c-.34-.29-.75-.52-1.22-.69-.47-.17-.96-.26-1.48-.26-.71,0-1.33,.1-1.86,.28-.53,.19-.99,.45-1.38,.77-.38,.33-.7,.71-.95,1.14-.25,.44-.43,.9-.56,1.38-.1,.38-.19,.78-.28,1.19-.09,.41-.17,.8-.22,1.16-.08,.49-.05,.95,.09,1.38,.14,.44,.37,.82,.67,1.14,.31,.33,.7,.58,1.16,.77,.46,.19,.98,.28,1.56,.28,.64,0,1.23-.09,1.77-.26,.53-.17,1-.4,1.4-.7,.4-.29,.73-.64,.99-1.03,.26-.4,.44-.82,.55-1.27,.02-.08,0-.15-.05-.2s-.11-.09-.19-.09h-1.73c-.15,0-.26,.03-.32,.09s-.13,.16-.21,.3c-.06,.11-.14,.22-.23,.34-.09,.12-.21,.24-.36,.34-.15,.1-.32,.19-.53,.26-.21,.07-.46,.11-.76,.11s-.54-.04-.73-.13-.33-.2-.43-.34c-.1-.14-.16-.3-.18-.49-.02-.19-.02-.38,0-.58,.02-.11,.04-.28,.08-.48,.04-.21,.08-.42,.13-.64,.05-.22,.1-.43,.15-.63,.05-.2,.09-.36,.13-.48,.06-.2,.14-.4,.24-.58,.1-.18,.23-.35,.39-.49,.16-.14,.35-.25,.57-.34,.22-.08,.48-.13,.78-.13s.54,.04,.72,.11c.18,.07,.32,.16,.42,.26,.1,.1,.17,.21,.21,.34,.04,.12,.07,.24,.09,.34,.02,.14,.04,.24,.08,.3,.04,.06,.13,.09,.28,.09h1.73c.08,0,.15-.03,.23-.09,.07-.06,.11-.13,.13-.21,.09-.45,.05-.87-.12-1.27-.17-.4-.42-.74-.76-1.03Zm9.42-.82h-6.17c-.1,0-.19,.04-.27,.11s-.13,.15-.15,.25l-1.83,8.55c-.02,.1,0,.18,.06,.25,.06,.07,.13,.11,.23,.11h6.27c.1,0,.19-.04,.27-.11,.08-.07,.13-.15,.15-.25l.3-1.4c.02-.1,0-.18-.05-.25-.05-.07-.13-.11-.23-.11h-4.18l.3-1.48h3.78c.1,0,.19-.04,.28-.11,.09-.07,.14-.15,.16-.25l.3-1.4c.02-.1,0-.18-.06-.25-.06-.07-.13-.11-.23-.11h-3.79l.3-1.43h4.08c.1,0,.19-.04,.28-.11,.09-.07,.14-.15,.16-.25l.3-1.4c.02-.1,0-.18-.06-.25-.06-.07-.13-.11-.23-.11Zm-39.95,.11c-.06-.07-.13-.11-.23-.11h-6.17c-.1,0-.19,.04-.27,.11s-.13,.15-.15,.25l-1.83,8.55c-.02,.1,0,.18,.06,.25,.06,.07,.13,.11,.23,.11h6.27c.1,0,.19-.04,.27-.11,.08-.07,.13-.15,.15-.25l.3-1.4c.02-.1,0-.18-.05-.25-.05-.07-.13-.11-.23-.11h-4.18l.3-1.48h3.78c.1,0,.19-.04,.28-.11,.09-.07,.14-.15,.16-.25l.3-1.4c.02-.1,0-.18-.06-.25-.06-.07-.13-.11-.23-.11h-3.79l.3-1.43h4.08c.1,0,.19-.04,.28-.11,.09-.07,.14-.15,.16-.25l.3-1.4c.02-.1,0-.18-.06-.25Z"/>
      </g>
    </g>
  </g>
</svg>