<?xml version="1.0" encoding="UTF-8"?>
<svg id="Layer_2" data-name="Layer 2" xmlns="http://www.w3.org/2000/svg" xmlns:xlink="http://www.w3.org/1999/xlink" viewBox="0 0 90 76.34">
  <defs>
    <style>
      .cls-1 {
        fill: url(#linear-gradient-2);
      }

      .cls-2 {
        fill: none;
        stroke: #fff;
        stroke-linecap: round;
      }

      .cls-2, .cls-3, .cls-4, .cls-5 {
        stroke-miterlimit: 10;
        stroke-width: .85px;
      }

      .cls-6 {
        fill: #20212e;
      }

      .cls-7 {
        fill: #fff;
      }

      .cls-3 {
        fill: url(#linear-gradient-4);
      }

      .cls-3, .cls-4, .cls-5 {
        stroke: #7f98cd;
      }

      .cls-4 {
        fill: url(#linear-gradient-5);
      }

      .cls-8 {
        fill: url(#linear-gradient-3);
      }

      .cls-9 {
        fill: url(#linear-gradient);
      }

      .cls-5 {
        fill: url(#linear-gradient-6);
      }
    </style>
    <linearGradient id="linear-gradient" x1="66.79" y1="64.79" x2="90" y2="64.79" gradientUnits="userSpaceOnUse">
      <stop offset="0" stop-color="#486ab2"/>
      <stop offset="1" stop-color="#292b74"/>
    </linearGradient>
    <linearGradient id="linear-gradient-2" x1="33.07" y1="64.66" x2="56.31" y2="64.66" xlink:href="#linear-gradient"/>
    <linearGradient id="linear-gradient-3" x1="0" y1="64.64" x2="23.41" y2="64.64" xlink:href="#linear-gradient"/>
    <linearGradient id="linear-gradient-4" x1="19.13" y1="6.22" x2="69.18" y2="6.22" xlink:href="#linear-gradient"/>
    <linearGradient id="linear-gradient-5" x1="19.13" y1="17.09" x2="69.18" y2="17.09" xlink:href="#linear-gradient"/>
    <linearGradient id="linear-gradient-6" x1="19.13" y1="27.66" x2="69.18" y2="27.66" xlink:href="#linear-gradient"/>
  </defs>
  <g id="Layer_1-2" data-name="Layer 1">
    <g>
      <path class="cls-9" d="M66.79,53.4v22.79h23.21v-22.79h-23.21Zm21.36,20.81h-19.31v-9.19h19.31v9.19Z"/>
      <path class="cls-1" d="M33.07,53.27v22.79h23.24v-22.79h-23.24Zm21.36,20.88h-19.54v-9.1c6.51,0,13.02,0,19.54,.02v9.08Z"/>
      <path class="cls-8" d="M0,52.94v23.39H23.41v-23.39H0Zm21.54,21.18H1.98v-9.15c6.52,0,13.03,0,19.55,0v9.14Z"/>
      <g>
        <rect class="cls-3" x="19.13" y=".42" width="50.06" height="11.6" rx="5.8" ry="5.8"/>
        <rect class="cls-4" x="19.13" y="11.29" width="50.06" height="11.6" rx="5.8" ry="5.8"/>
        <rect class="cls-5" x="19.13" y="21.86" width="50.06" height="11.6" rx="5.8" ry="5.8"/>
        <g>
          <circle class="cls-7" cx="61.86" cy="6.22" r="2"/>
          <circle class="cls-7" cx="55.65" cy="6.22" r="2"/>
        </g>
        <g>
          <circle class="cls-7" cx="61.86" cy="17.09" r="2"/>
          <circle class="cls-7" cx="55.65" cy="17.09" r="2"/>
        </g>
        <g>
          <circle class="cls-7" cx="61.86" cy="27.66" r="2"/>
          <circle class="cls-7" cx="55.65" cy="27.66" r="2"/>
        </g>
        <line class="cls-2" x1="36.25" y1="6.22" x2="50.46" y2="6.22"/>
        <line class="cls-2" x1="36.25" y1="17.09" x2="50.46" y2="17.09"/>
        <line class="cls-2" x1="36.25" y1="27.96" x2="50.46" y2="27.96"/>
      </g>
      <g>
        <rect class="cls-7" x="76.79" y="57.42" width="11.36" height="2.39"/>
        <circle class="cls-7" cx="71.22" cy="58.61" r="2.39"/>
      </g>
      <g>
        <rect class="cls-7" x="42.99" y="57.42" width="11.36" height="2.39"/>
        <circle class="cls-7" cx="37.43" cy="58.61" r="2.39"/>
      </g>
      <g>
        <rect class="cls-7" x="10" y="57.42" width="11.36" height="2.39"/>
        <circle class="cls-7" cx="4.44" cy="58.61" r="2.39"/>
      </g>
      <g>
        <rect class="cls-6" x="18.65" y="42.07" width="51.01" height="1.94"/>
        <rect class="cls-6" x="18.65" y="43.04" width="1.98" height="3.98"/>
        <rect class="cls-6" x="67.68" y="43.04" width="1.98" height="3.98"/>
        <rect class="cls-6" x="42.46" y="38.14" width="1.98" height="3.98"/>
      </g>
    </g>
  </g>
</svg>