<?xml version="1.0" encoding="UTF-8"?>
<svg id="Layer_2" data-name="Layer 2" xmlns="http://www.w3.org/2000/svg" xmlns:xlink="http://www.w3.org/1999/xlink" viewBox="0 0 92 85.48">
  <defs>
    <style>
      .cls-1 {
        fill: url(#linear-gradient-2);
      }

      .cls-2 {
        fill: #f6f6f9;
      }

      .cls-3 {
        fill: url(#linear-gradient);
      }
    </style>
    <linearGradient id="linear-gradient" x1="0" y1="42.74" x2="92" y2="42.74" gradientUnits="userSpaceOnUse">
      <stop offset="0" stop-color="#486ab2"/>
      <stop offset="1" stop-color="#292b74"/>
    </linearGradient>
    <linearGradient id="linear-gradient-2" x1="2.06" y1="27.4" x2="90.12" y2="27.4" xlink:href="#linear-gradient"/>
  </defs>
  <g id="Layer_1-2" data-name="Layer 1">
    <g>
      <path class="cls-3" d="M92,37.15c0,2.48-.38,4.99-1.49,7.21,0,0,0,.02-.01,.02-3.43,6.63-8.43,10.62-16.29,10.19-1.86-.1-3.78-.31-6.06,.43,0,5.78-.15,11.63,.05,17.48,.14,4.18-1.56,7.19-5.12,8.94-10.95,5.39-22.04,5.4-33.06,.2-3.78-1.78-5.61-4.92-5.51-9.25,.13-5.54,.03-11.08,.03-16.75-2.57-.99-4.95-.44-7.26-.53-1.59-.06-3.19,.12-4.77,.05-5.59-.24-9.75-2.62-11.76-8.09-1.8-4.89-.35-9.56,4.17-13.62,.35-.31,.69-.64,.98-.92,1.09-9.94,4.14-13.02,14.05-14.2C25.13,6.72,33.64-.32,46.84,.01c12.32,.31,20.3,7.14,25.25,18.26,1.62,.22,3.33,.41,5.01,.71,6.87,1.21,11.39,5.26,13.91,11.67h0c.66,1.72,1,3.55,1,5.4v1.1ZM24.85,52.78c0-3.18,.41-5.94-.09-8.53-.95-5.01,1.51-8.03,5.44-9.98,10.62-5.28,21.44-5.13,32.17-.25,3.97,1.8,5.97,4.95,5.81,9.53-.1,2.93-.62,5.98,.5,8.81,12.52,.86,19.98-3.59,21.24-12.75,.58-4.19-.15-8.14-2.61-11.83-4.01-6.04-9.98-7.32-16.35-6.97-4.52-10.99-11.69-18.21-23.5-18.77-13.38-.64-21.53,6.88-26.33,18.62-10.21,.88-13.2,3.87-12.93,12.97-.6,.38-1.31,.74-1.92,1.23-3.46,2.72-5.05,7.31-3.84,11.02,1.51,4.66,4.46,6.81,9.68,6.9,3.97,.07,7.95,.01,12.71,.01Zm21.52-2.09c5.8-.36,11.66-1,16.69-4.48,4.1-2.83,4.13-6.18,.24-9.28-.62-.49-1.27-.99-1.99-1.3-10-4.32-20.03-4.43-29.97,.12-2.3,1.05-4.53,2.62-4.59,5.61-.06,3.22,2.38,4.7,4.77,5.98,4.59,2.45,9.64,3.02,14.85,3.35Zm-19.47,5.01c-.89,3.9,1.04,6.19,3.88,7.58,10.47,5.14,21.04,5.14,31.46-.14,3.06-1.55,4.74-4.1,3.64-7.65-12.89,7.28-25.75,7.09-38.98,.21Zm38.96,16.21c-12.91,7.35-25.92,7.23-38.97,.12-.83,3.72,.92,5.77,3.48,7.46,7.73,5.09,24.31,5.12,32.02,.01,2.7-1.79,4.59-3.98,3.46-7.59Zm-38.91-8.11c-.91,4.28,1.23,6.42,4.26,7.96,7.75,3.94,15.9,3.94,24.18,2.28,2.83-.57,5.5-1.57,7.82-3.34,2.74-2.08,3.08-3.15,2.35-7.04-8.62,6.37-25.7,7.93-38.61,.13Zm38.97-16.51c-13.19,7.41-26.04,7.25-39.01,.08-.9,3.51,.51,5.99,3.5,7.5,10.45,5.27,21.05,5.23,31.55,.23,3.03-1.44,5.01-3.96,3.96-7.81Z"/>
      <path class="cls-1" d="M24.85,52.78c-4.77,0-8.74,.06-12.71-.01-5.22-.09-8.16-2.24-9.68-6.9-1.21-3.71,.38-8.3,3.84-11.02,.61-.48,1.32-.85,1.92-1.23-.27-9.09,2.72-12.08,12.93-12.97C25.95,8.92,34.11,1.39,47.48,2.03c11.81,.56,18.98,7.78,23.5,18.77,6.37-.35,12.34,.93,16.35,6.97,2.45,3.69,3.18,7.64,2.61,11.83-1.26,9.16-8.72,13.61-21.24,12.75-1.12-2.83-.61-5.88-.5-8.81,.16-4.59-1.84-7.73-5.81-9.53-10.73-4.87-21.55-5.03-32.17,.25-3.93,1.95-6.39,4.97-5.44,9.98,.49,2.59,.09,5.35,.09,8.53Z"/>
      <path class="cls-2" d="M46.37,50.69c-5.2-.33-10.26-.9-14.85-3.35-2.39-1.28-4.83-2.76-4.77-5.98,.05-2.99,2.29-4.56,4.59-5.61,9.93-4.55,19.97-4.44,29.97-.12,.72,.31,1.37,.81,1.99,1.3,3.89,3.11,3.87,6.45-.24,9.28-5.04,3.47-10.89,4.11-16.69,4.48Z"/>
      <path class="cls-2" d="M26.9,55.7c13.24,6.88,26.1,7.07,38.98-.21,1.1,3.55-.58,6.09-3.64,7.65-10.43,5.28-20.99,5.29-31.46,.14-2.83-1.39-4.76-3.68-3.88-7.58Z"/>
      <path class="cls-2" d="M65.86,71.91c1.13,3.61-.77,5.8-3.46,7.59-7.71,5.11-24.29,5.08-32.02-.01-2.56-1.69-4.31-3.74-3.48-7.46,13.05,7.11,26.06,7.23,38.97-.12Z"/>
      <path class="cls-2" d="M26.95,63.8c12.91,7.8,30,6.24,38.61-.13,.72,3.89,.39,4.96-2.35,7.04-2.32,1.76-4.99,2.77-7.82,3.34-8.28,1.66-16.43,1.66-24.18-2.28-3.03-1.54-5.17-3.69-4.26-7.96Z"/>
      <path class="cls-2" d="M65.92,47.29c1.05,3.85-.93,6.37-3.96,7.81-10.5,5-21.1,5.04-31.55-.23-2.99-1.51-4.4-3.99-3.5-7.5,12.97,7.17,25.82,7.33,39.01-.08Z"/>
    </g>
  </g>
</svg>