<?xml version="1.0" encoding="UTF-8"?>
<svg id="Layer_2" data-name="Layer 2" xmlns="http://www.w3.org/2000/svg" xmlns:xlink="http://www.w3.org/1999/xlink" viewBox="0 0 90 76.05">
  <defs>
    <style>
      .cls-1 {
        fill: url(#linear-gradient-2);
      }

      .cls-2 {
        fill: #20212e;
      }

      .cls-3, .cls-4, .cls-5, .cls-6 {
        fill: #fff;
      }

      .cls-7 {
        fill: url(#linear-gradient-6);
      }

      .cls-4 {
        stroke: url(#linear-gradient-5);
      }

      .cls-4, .cls-5 {
        stroke-width: 1.71px;
      }

      .cls-4, .cls-5, .cls-6 {
        stroke-miterlimit: 10;
      }

      .cls-5 {
        stroke: url(#linear-gradient-4);
      }

      .cls-6 {
        stroke: url(#linear-gradient-3);
        stroke-width: .57px;
      }

      .cls-8 {
        fill: url(#linear-gradient-7);
      }

      .cls-9 {
        fill: url(#linear-gradient);
      }

      .cls-10 {
        fill: url(#linear-gradient-8);
      }
    </style>
    <linearGradient id="linear-gradient" x1="0" y1="44.97" x2="90" y2="44.97" gradientUnits="userSpaceOnUse">
      <stop offset="0" stop-color="#486ab2"/>
      <stop offset="1" stop-color="#292b74"/>
    </linearGradient>
    <linearGradient id="linear-gradient-2" x1="18.09" y1="16.47" x2="72.62" y2="16.47" xlink:href="#linear-gradient"/>
    <linearGradient id="linear-gradient-3" x1="27.39" y1="23.31" x2="63.33" y2="23.31" xlink:href="#linear-gradient"/>
    <linearGradient id="linear-gradient-4" x1="26.81" y1="36.23" x2="63.9" y2="36.23" xlink:href="#linear-gradient"/>
    <linearGradient id="linear-gradient-5" x1="26.81" y1="47.34" x2="63.9" y2="47.34" xlink:href="#linear-gradient"/>
    <linearGradient id="linear-gradient-6" x1="31.58" y1="23.31" x2="51.89" y2="23.31" xlink:href="#linear-gradient"/>
    <linearGradient id="linear-gradient-7" x1="31.58" y1="36.23" x2="51.89" y2="36.23" xlink:href="#linear-gradient"/>
    <linearGradient id="linear-gradient-8" x1="31.58" y1="47.34" x2="51.89" y2="47.34" xlink:href="#linear-gradient"/>
  </defs>
  <g id="Layer_1-2" data-name="Layer 1">
    <g>
      <g>
        <path class="cls-9" d="M.04,59.7c2.36-.39,4.44-.73,7.47-1.23,0-8.83,0-17.66,0-26.49,0-2.76-.18-5.54,.07-8.28,.59-6.27,3.68-9.56,10.07-9.64,18.1-.22,36.21-.23,54.31,0,6.7,.09,9.87,3.54,10.09,10.56,.28,8.89,.07,17.8,.07,26.7,0,2.12,0,4.24,0,5.64,2.15,3.26,5.18,1.43,7.18,2.89,2.21,7.89-.74,16.19-10.44,16.19-13.81,0-27.62,0-41.43,0-7.67,0-15.34,.02-23.02,0-12.18-.05-14.8-2.85-14.39-16.34Zm78.58-.45c0-12.07,.16-23.09-.07-34.1-.11-5.35-2.11-7.53-7.14-7.58-17.8-.19-35.61-.08-53.41-.07-4,0-6.72,2.18-6.81,6.01-.28,11.84-.1,23.7-.1,35.74H78.62ZM3.73,63.12c.26,8.27,1.51,9.71,8.96,9.75,21.44,.1,42.89,.04,64.33,.03,1.22,0,2.5,.15,3.67-.13,4.44-1.05,5.67-3.78,4.39-9.65H3.73Z"/>
        <path class="cls-3" d="M78.62,59.24H11.09c0-12.04-.18-23.89,.1-35.74,.09-3.82,2.81-6,6.81-6.01,17.8-.02,35.61-.12,53.41,.07,5.02,.05,7.03,2.23,7.14,7.58,.23,11.01,.07,22.03,.07,34.1Zm-19.15-28.51c-5.38-1.29-6.64,4.25-10.09,3.1-2.24-.18-1.21-3.78-4.35-3-2.55,2.66-6.22,4.89-8.47,10.18,5.35-1.77,4.64,4.08,8.82,4.61,5.22-3.59,10.17-8.02,14.08-14.88Z"/>
      </g>
      <g>
        <path class="cls-2" d="M45.98,0c2.43,0,4.8,.59,7.01,1.59,.07,.03,.13,.06,.19,.1,3.84,2.19,6.37,5.41,7.99,9.47,1.61,.21,3.14,.29,4.62,.61,4.67,1.02,7.94,4.8,8.27,9.42,.35,4.89-2.41,9.21-6.96,10.89-1.74,.64-3.55,.77-5.39,.77-11.81-.02-23.62,0-35.43-.03-1.25,0-2.56-.04-3.75-.36-5.76-1.58-7.79-8.14-3.95-12.73,.62-.75,1.41-1.36,2.1-2,.1-5.41,3.34-9.37,10.79-8.72,1.03-2.7,3.01-4.51,5.25-6.08,2.71-1.91,5.95-2.91,9.26-2.91h0Zm-13.93,10.86c-7.61-.53-9.4,.92-9.79,7.81-.36,.26-.81,.58-1.25,.91-2.37,1.77-3.45,4.13-2.66,7,.84,3.07,3.27,4.39,6.25,4.8,.83,.11,1.68,.03,2.53,.03,6.61,0,13.22,0,19.83,0,5.2,0,10.41,.12,15.61-.03,8.07-.22,12.45-7.32,8.71-13.93-2.46-4.35-6.39-4.93-10.94-4.09-1.99-6.33-5.8-10.9-12.69-11.74-7.31-.89-12.27,2.72-15.6,9.24Z"/>
        <path class="cls-1" d="M32.05,10.86c3.33-6.52,8.29-10.13,15.6-9.24,6.89,.84,10.69,5.41,12.69,11.74,4.55-.85,8.48-.27,10.94,4.09,3.74,6.61-.65,13.7-8.71,13.93-5.2,.14-10.41,.03-15.61,.03-6.61,0-13.22,0-19.83,0-.84,0-1.7,.08-2.53-.03-2.98-.41-5.41-1.73-6.25-4.8-.79-2.87,.29-5.23,2.66-7,.44-.33,.89-.65,1.25-.91,.39-6.88,2.18-8.33,9.79-7.81Z"/>
      </g>
      <rect class="cls-6" x="27.67" y="19.93" width="35.38" height="6.78"/>
      <rect class="cls-5" x="27.67" y="32.84" width="35.38" height="6.78"/>
      <rect class="cls-4" x="27.67" y="43.95" width="35.38" height="6.78"/>
      <rect class="cls-7" x="31.58" y="22.6" width="20.31" height="1.44"/>
      <rect class="cls-8" x="31.58" y="35.51" width="20.31" height="1.44"/>
      <rect class="cls-10" x="31.58" y="46.62" width="20.31" height="1.44"/>
    </g>
  </g>
</svg>